<!-- Generated by IcoMoon.io -->
<svg version="1.1" xmlns="http://www.w3.org/2000/svg" width="64" height="64" viewBox="0 0 64 64">
<path d="M6.059 4.051c0 0 0.463 0.115 0.997 0.216 0.717 0.067 1.416 0.15 2.112 0.15l-3.109-0.366z"></path>
<path d="M4.596 17.402c1.097 0 2.56-0.183 3.841-0.183 0.914 0 2.926 0.183 4.206-0.183 2.195-0.732 1.646-4.024 1.829-5.67 0-0.732 0.183-1.463 0-2.195 0-0.732-0.183-1.28-0.549-1.829 0-0.183-0.366-0.549-0.366-0.549-0.262-0.393-0.529-0.69-0.925-0.963-0.005-0.008-0.012-0.013-0.017-0.022l0.211 0.071c-0.082-0.045-0.166-0.076-0.248-0.116-0.927-1.333-2.621-1.347-4.325-1.347-0.321 0-0.78-0.071-1.197-0.15-0.788-0.074-1.599-0.128-2.46-0.033-0.732 0-1.829 0.366-2.195 0.366 0 0.183-0.366 0.183-0.366 0.183-3.109 0.183-1.829 6.584-1.463 8.047 0 0.549 0.366 1.28 0.732 1.646 0.124 0.249 0.491 0.406 0.72 0.485 0.276 1.286 0.982 2.29 2.571 2.441z"></path>
<path d="M3.499 36.788c0.183 0.183 0.549 0.366 0.549 0.366 1.28 2.195 4.389 1.28 6.401 1.28 0.914-0.183 2.195 0.366 3.109-0.183 0.549-0.183 0.914-0.914 0.914-1.463 0-0.366 0-1.097 0-1.28 0.366-1.097 0.366-2.195 0.366-3.475 0-1.097-0.183-2.378-0.183-3.658 0-0.183-0.183-0.366-0.183-0.549 0-0.366-0.366-1.28-0.549-1.28-0.549-1.097-1.829-1.28-2.926-1.28-0.366 0-0.914 0-1.28 0s-0.732 0-0.732 0c-0.549 0-0.914 0-1.28 0s-0.914 0-0.914 0c-0.183 0-0.183 0-0.183 0-0.914-0.366-0.914-0.366-1.646-0.183-0.366 0-0.731 0.549-0.914 0.549-1.097-0.183-1.829 0.732-2.012 1.829 0 0.732 0.183 2.195 0.183 2.378 0 0.732 0 2.377 0 2.377 0 0.183 0 0.549 0 0.731 0 0.731 0.183 1.28 0.366 2.012 0 0.183 0.366 0.549 0.366 0.549 0 0.183 0 0.366 0 0.366 0.183 0.366 0.366 0.731 0.549 0.914zM7.522 29.29c1.097 0 2.926 0 2.926 0.183-0.183 0.183-0.366 0.914-0.366 0.914-0.366 0-1.28 0.183-1.28 0.183-0.549-0.183-1.463-0.366-1.463-0.366l0.183-0.914z"></path>
<path d="M15.752 47.944c-0.183-0.731-0.732-1.463-1.463-1.646-0.549 0-1.463 0.366-1.463 0.366-0.183-0.183-0.457-0.321-0.686-0.412l0.686 0.229c-0.25-0.126-0.5-0.197-0.751-0.251-0.193-0.072-0.346-0.115-0.346-0.115l0.338 0.112c-0.478-0.102-0.957-0.112-1.435-0.112-0.366 0-0.914 0.183-0.914 0.183-0.732 0-1.829 0.549-1.829 0.549-0.732 0-2.012 0.183-2.012 0-1.28-0.183-1.829 0.549-2.377 1.463-0.183 0.549-0.183 1.463-0.183 1.463 0 1.829 0.549 3.292 0.731 5.121 0 1.097 0.183 2.195 0.366 3.292 0 0.731 0 1.28 0 1.829 0.731 2.195 2.926 1.463 4.572 1.463 1.097 0 3.475 0.183 4.755-0.366 2.56-1.097 1.829-4.572 1.829-6.767 0.183-2.195 0.732-4.389 0.183-6.401z"></path>
<path d="M30.566 2.405c0 0 0.144 0.034 0.333 0.071 0.039 0.001 0.077-0.004 0.116-0.001l-0.449-0.070z"></path>
<path d="M25.628 15.756c0.183 0.914 1.28 1.646 2.378 1.463 0.366-0.183 0.732-0.732 0.914-0.732s0.366 0 0.366 0c0.549 0.914 2.378 0.549 3.292 0.366 0.366 0 1.097-0.366 1.097-0.366 1.646-0.366 4.938 0 5.852-1.646 0.549-1.097-0.183-2.377-0.366-3.292-0.366-1.463-0.366-2.926-0.183-4.206 0-1.097 0.366-2.195 0-3.109-0.366-0.549-0.731-0.914-1.28-1.097-0.366 0-1.097 0.183-1.097 0-0.731-0.183-1.463-0.366-2.195-0.366-0.549 0-1.28 0-1.463 0-0.26-0.129-0.519-0.159-0.779-0.17-0.389-0.068-0.774-0.115-1.15-0.127l0.671 0.104c-0.28-0.015-0.566-0.057-0.786-0.101-0.563-0.011-1.108 0.028-1.613 0.112-0.366 0.183-0.914 0.366-1.28 0.549-0.183 0.183-0.549 0.366-0.549 0.366-1.829 0.366-1.646 2.195-1.646 3.658-0.183 2.376-0.914 6.034-0.183 8.595zM29.469 12.464c0-0.366 0.183-1.28 0.183-1.28 0.183 0.366 0.549 0.732 0.914 0.914s0.914 0.183 0.914 0.183c0.183 0.183 0.549 0.183 0.549 0.366 0 0 0.183 0.183 0 0.183-0.732 0.183-2.56 0-2.56 0s0-0.183 0-0.366z"></path>
<path d="M28.006 34.228c0 0.366-0.183 1.28-0.183 1.28-0.914 0.914 0.732 2.377 1.463 2.56 1.829 0.366 4.755-0.549 6.584-0.914 0.914 0 1.829 0.183 2.56-0.366 1.829-0.914 0.914-5.121 0.914-6.401 0-0.366 0-1.097 0-1.097 0-0.549 0-1.829 0-1.829 0-0.366 0-1.097 0-1.097 0-0.183 0-0.549 0-0.549-0.366-1.28-1.646-1.829-2.926-2.012-0.549 0-1.646 0.183-1.646 0.183-0.549 0-1.646 0.183-1.646 0 0-0.549-0.549-1.097-1.097-1.28-0.366-0.183-0.914-0.183-0.914-0.183l0.193 0.072c-0.384-0.001-0.766 0.135-1.107 0.477-0.549 0.366-0.549 0.914-0.549 1.463 0 0.183-0.183 0.549-0.183 0.549-0.366 0.183-0.914 1.097-0.914 1.097-0.366 0.183-0.549 0.914-0.549 1.28 0 0.183 0 0.549 0 0.732-0.183 0.914 0.183 2.926 0.183 3.109 0 0.366 0 0.732 0 1.28s0 1.646-0.183 1.646z"></path>
<path d="M39.528 45.933c-0.252-0.378-0.763-0.66-1.238-0.804l0.506 0.072c-2.012-0.549-4.389-0.549-6.401-0.366-0.549 0.183-1.463 0.183-2.012 0.549-0.366 0.183-0.732 0.914-0.732 0.914-1.463 0-2.195-0.366-3.292 0.183-0.366 0.366-0.732 0.731-0.914 1.097 0 0.183-0.183 0.549-0.183 0.731-0.183 0.183-0.183 0.366-0.183 0.549 0 0.366 0 0.914 0 1.463s0.183 1.829 0.183 2.012c-0.183 1.097-0.366 2.195 0 3.292 0 0.366 0 0.731 0.183 1.097 0.183 0.183 0.549 0.549 0.549 0.549 0 0.914 0.366 2.012 1.28 2.56 0.549 0.183 1.097-0.183 1.646-0.366 0.183 0 0.366-0.366 0.549-0.366 0.732 0.549 2.926 0.366 2.926 0.366 0.549 0 1.28 0.183 1.829 0.183 0.366 0 1.097-0.366 1.097-0.366s0 0 0.183 0 0.366-0.183 0.366-0.183c1.28 0 2.56 0.183 3.475-0.914 0.183-0.366 0.366-0.731 0.366-1.097 0-0.183 0-0.731 0.183-0.731 0.183-0.549 0.183-1.097 0.183-1.646-0.183-1.463-0.366-4.389-0.366-4.572 0.183-1.28 0.731-3.109-0.183-4.206z"></path>
<path d="M59.632 2.694l-0.352-0.106c0 0 0.171 0.056 0.352 0.106z"></path>
<path d="M48.307 10.635c0 0.366 0.549 1.097 0.549 1.097 0.183 0.366 0.366 0.732 0.549 0.914 0 0.549 0.183 1.097 0.549 1.463 0.183 0.183 0.914 0.366 0.914 0.366 0.549 0.366 1.097 0.732 1.829 0.914 0.366 0.183 0.731 0.183 1.28 0.366 0.183 0 0.549 0 0.549 0 0.183 0.183 0.731 0.183 0.731 0.183 0.549 0 1.646-0.183 1.646-0.183 1.829-0.366 4.206 0.914 5.304-1.097 0.914-1.829 0.183-6.218 0.183-6.401 0-0.366-0.366-1.097-0.549-1.097 0-0.549 0-0.914-0.183-1.28 0-0.366 0-0.731 0-0.731 0.183-0.549 0-1.646-0.549-2.012-0.183-0.183-0.731-0.366-1.097-0.366-0.096-0.018-0.194-0.042-0.289-0.054-0.031-0.007-0.060-0.015-0.090-0.023l0.074 0.022c-1.235-0.15-2.379 0.238-3.719 0.238-1.463 0-2.743 0-4.206 0-0.183 0.183-0.914 0.183-0.914 0.183-0.731-0.366-1.463-0.183-2.195 0.183-0.183 0.366-0.549 1.097-0.549 1.097-0.183 0.549-0.366 0.914-0.183 1.646 0 0.183 0 0.731 0 0.731 0.183 1.28 0.183 2.377 0.366 3.841zM52.513 7.16v-0.183c0.183 0 0.549 0.183 0.549 0.183-0.183 0.366-0.549 1.097-0.549 1.097 0-0.366 0-1.097 0-1.097z"></path>
<path d="M51.599 21.791c0 0 0.061 0.020 0.14 0.044 0.044 0.001 0.089-0.001 0.133 0.001l-0.273-0.045z"></path>
<path d="M51.872 21.836l1.922 0.321c-0.649-0.093-1.297-0.278-1.922-0.321z"></path>
<path d="M62.023 23.437c0 0 0 0-0.183 0 0-0.183-0.366-0.366-0.366-0.366-0.914-0.366-1.28-0.366-2.377-0.549-0.366 0-1.28 0-1.28-0.183-0.731 0-1.28 0-2.012-0.183-0.366 0-0.914 0-1.28 0-0.183 0-0.731 0.183-0.731 0-0.366 0-0.914-0.183-1.463-0.183-0.126 0-0.417-0.085-0.591-0.139-0.561-0.018-1.101 0.087-1.603 0.505-0.549 0.183-0.731 0.732-1.097 1.28 0 0.183 0 0.732 0 0.732-0.183 0.366-0.183 0.914-0.183 1.28 0 0.183 0 0.732 0 0.732 0 0.183 0 0.549 0 0.549 0 0.183 0 0.732 0 0.732v0.183c0 1.463-0.549 3.109-0.366 4.572 0 0.549 0.366 0.731 0.731 1.097 0.183 0 0.549 0 0.549 0 0.183 0.183 0.366 0.366 0.366 0.549s0 0.731 0 0.731 0 0 0 0.183c0 0.366 0 0.914 0.366 1.28 0.183 0.366 0.731 0.549 0.731 0.549 0 0.549 0.549 0.914 0.914 1.28 0.183 0 0.731 0.183 0.731 0.183 0.549 0.914 2.012 1.28 3.109 1.463 0.366 0.183 1.28 0 1.28 0 1.097 0 2.195 0.183 2.926-0.366 0.549-0.366 1.097-1.28 1.097-1.463 0 0 0.183 0 0.183-0.183 0.183 0 0.549 0 0.549-0.183 0.914-0.183 1.829-0.549 1.829-1.646 0.183-0.549-0.549-1.646-0.549-1.646 0-0.183 0.183-0.366 0.183-0.549 0.366-0.366 0.549-1.646 0.366-2.012 0-0.366-0.183-1.097-0.183-1.097-0.183-1.829 0-3.475-0.366-5.304 0-0.366-0.366-0.914-0.731-1.28-0.183-0.183-0.549-0.549-0.549-0.549z"></path>
<path d="M63.669 51.785c0-0.731 0.183-1.646 0-2.56-0.183-0.549-0.366-1.463-0.366-1.463 0-0.549-0.549-0.914-0.914-1.28 0 0-0.366-0.183-0.549-0.183 0-0.13-0.057-0.282-0.134-0.425l0.134 0.060c-0.057-0.047-0.113-0.082-0.171-0.124-0.14-0.23-0.346-0.424-0.561-0.424-0.274-0.138-0.652-0.172-0.823-0.18-0.634-0.101-1.314-0.017-2.103 0.18-0.549 0-1.28 0.183-2.012 0.366-0.183 0-0.549 0-0.549 0-0.549 0-1.463 0.366-1.646 0.366-1.646 0-5.487-1.28-5.67 1.829 0 0.366 0 0.731 0 1.097 0.183 0.914 0.366 2.012 0.366 2.926 0 1.829-0.549 6.584 2.377 7.316 1.097 0.183 2.56-0.366 3.658-0.366 2.377-0.366 7.316 0.549 8.779-1.829 0.914-1.463 0.366-3.841 0.183-5.304zM52.207 50.046c-0.033-0.269-0.060-0.456-0.060-0.456h0.366c0 0.031 0.022 0.039 0.031 0.061-0.143 0.111-0.251 0.251-0.337 0.395z"></path>
</svg>
