<!-- Generated by IcoMoon.io -->
<svg version="1.1" xmlns="http://www.w3.org/2000/svg" width="64" height="64" viewBox="0 0 64 64">
<path d="M38.685 63.764c1.8-0.635 2.858-2.647 3.811-4.023 2.223-3.176 4.446-6.352 6.67-9.422 3.282-4.658 8.364-9.528 7.411-15.563-0.212-1.164-1.482-1.906-2.541-1.906-3.494 0-6.987-0.106-10.481-0.106 0 0 0 0 0 0-0.212 0-0.318 0-0.529 0 0-10.057 0-20.115-0.106-30.172 0-1.906-1.694-2.753-3.388-2.541-8.152 1.165-16.198 2.329-24.35 3.494-1.482 0.212-2.117 2.012-1.8 3.282 2.117 10.375 4.235 20.856 6.458 31.231-3.282 0-6.564 0-9.846 0-2.117 0-3.705 3.070-1.906 4.552 5.717 4.552 11.434 9.105 17.151 13.657 3.176 2.223 8.893 9.105 13.445 7.517zM33.815 56.036c-3.811-2.011-7.517-6.034-10.904-8.681-1.694-1.376-3.494-2.753-5.188-4.129 1.906 0 3.917 0 5.823 0 2.435 0 3.176-2.753 2.011-4.341 0-0.106 0-0.106 0-0.212-2.117-10.163-4.235-20.433-6.246-30.596 6.14-0.847 12.387-1.8 18.527-2.647 0 9.21 0 18.421 0.106 27.737 0 0.529 0.106 1.059 0.423 1.376-0.318 1.482 0.423 3.282 2.435 3.388 3.6 0 7.093 0.106 10.693 0.106-1.059 3.6-5.505 8.046-7.305 10.481-1.376 2.011-2.858 4.023-4.235 6.034-2.329 2.964-2.964 3.176-6.14 1.482z"></path>
</svg>
