<!-- Generated by IcoMoon.io -->
<svg version="1.1" xmlns="http://www.w3.org/2000/svg" width="64" height="64" viewBox="0 0 64 64">
<path d="M1.581 22.945c5.454 0.777 11.1-0.482 16.61-0.414 6.64 0.081 13.28 0.122 19.921 0.163 4.56 0.028 9.079 0.098 13.616 0.554 2.538 0.255 6.601 1.298 8.783-0.492 2.077-1.704-0.886-4.632-2.944-2.944 0.673-0.552 0.595-0.34-0.187-0.325-0.631 0.012-1.266-0.038-1.896-0.074-1.745-0.101-3.484-0.301-5.223-0.477-4.461-0.45-8.962-0.387-13.442-0.415-5.76-0.035-11.517-0.037-17.276-0.135-2.902-0.049-5.791-0.122-8.683 0.155-2.711 0.26-5.445 0.775-8.171 0.387-2.626-0.373-3.757 3.638-1.108 4.015v0z"></path>
<path d="M51.667 17.204c2.070 1.681 4.248 3.246 6.072 5.205 1.833 1.969 4.771-0.982 2.944-2.944-1.824-1.96-4.002-3.523-6.072-5.205-0.88-0.715-2.080-0.864-2.944 0-0.74 0.74-0.883 2.228 0 2.944v0z"></path>
<path d="M54.71 29.327c2.627-1.74 4.806-4.009 7.187-6.050-1.089-0.84-2.18-1.681-3.27-2.523-0.151 0.225-0.362 0.462-0.52 0.694-1.507 2.232 2.102 4.314 3.596 2.101 0.151-0.225 0.362-0.462 0.52-0.694 1.4-2.075-1.572-3.978-3.27-2.523-2.108 1.806-4.022 3.861-6.345 5.4-2.227 1.475-0.144 5.082 2.101 3.595v0z"></path>
<path d="M3.359 43.726c2.219-1.576 4.123-3.568 6.419-5.031 2.257-1.438 0.171-5.043-2.101-3.595-2.305 1.469-4.199 3.454-6.419 5.031-2.17 1.541-0.093 5.155 2.101 3.595v0z"></path>
<path d="M0.336 42.979c1.47 2.306 3.488 4.175 5.031 6.419 1.511 2.197 5.121 0.117 3.596-2.101-1.545-2.245-3.567-4.121-5.031-6.419-1.439-2.257-5.044-0.17-3.596 2.101v0z"></path>
<path d="M2.655 44.358c2.566 0.322 5.007-0.032 7.535-0.474 3.503-0.612 6.928-0.661 10.476-0.621 6.962 0.078 13.914 0.48 20.85 1.063 6.834 0.575 13.615 0.799 20.471 0.899 2.686 0.040 2.682-4.124 0-4.164-6.855-0.101-13.638-0.317-20.471-0.899-6.518-0.555-13.033-0.879-19.573-1.040-3.317-0.082-6.677-0.159-9.973 0.272-3.146 0.411-6.121 1.2-9.315 0.799-2.659-0.333-2.627 3.834 0 4.164v0z"></path>
</svg>
