<!-- Generated by IcoMoon.io -->
<svg version="1.1" xmlns="http://www.w3.org/2000/svg" width="64" height="64" viewBox="0 0 64 64">
<path d="M16.482 9.628c2.53-1.641 4.632-3.858 6.991-5.722 0.904-0.714 0.742-2.242 0-2.983-0.883-0.884-2.082-0.712-2.983 0-2.074 1.638-3.915 3.621-6.137 5.062-2.274 1.474-0.161 5.129 2.13 3.644v0z"></path>
<path d="M20.020 3.671c1.419 1.62 3.158 3.338 3.912 5.399 0.926 2.535 5.006 1.44 4.069-1.122-1.028-2.81-3.054-5.043-4.997-7.261-1.797-2.051-4.77 0.947-2.984 2.984v0z"></path>
<path d="M20.18 3.259c-1.361 4.22-0.589 8.608-0.6 12.951-0.013 4.773-0.334 9.578-0.347 14.371-0.028 10.463 0.135 20.912 0.168 31.377 0.008 2.721 4.228 2.722 4.22 0-0.032-10.050-0.542-20.064-0.189-30.115 0.158-4.502-0.172-8.991 0.189-13.489 0.37-4.6-0.807-9.523 0.628-13.974 0.837-2.597-3.237-3.7-4.069-1.121v0z"></path>
<path d="M40.266 2.882c-0.013 9.456-0.33 18.929 0.089 28.38 0.425 9.627 2.33 19.381 0.455 28.964-0.52 2.658 3.547 3.791 4.069 1.122 1.795-9.172 0.508-18.452-0.159-27.672-0.739-10.229-0.248-20.548-0.234-30.793 0.004-2.722-4.216-2.722-4.22-0.001v0z"></path>
<path d="M35.727 58.293c2.237 2.071 4.495 6.571 8.24 4.822 1.327-0.62 2.649-2.085 3.738-3.059 1.056-0.945 2.338-2.011 2.8-3.397 0.862-2.589-3.213-3.69-4.069-1.122 0.249-0.746-0.381 0.26-0.512 0.395-0.385 0.396-0.796 0.767-1.203 1.141-0.781 0.718-1.622 1.35-2.442 2.020-0.781 0.638-0.316 0.151 0.431 0.268-0.406-0.063-1.182-0.745-1.43-0.975-0.978-0.905-1.581-2.159-2.571-3.075-1.992-1.845-4.984 1.132-2.983 2.983v0z"></path>
</svg>
