<!-- Generated by IcoMoon.io -->
<svg version="1.1" xmlns="http://www.w3.org/2000/svg" width="64" height="64" viewBox="0 0 64 64">
<path d="M1.003 26.874c7.312-9 15.046-17.577 23.483-25.733 3.234-3.094 8.156 1.828 4.922 4.922-6.328 6.187-12.374 12.515-18.14 19.265 16.452 0.563 32.905 1.125 49.357 1.547 4.5 0.141 4.5 7.171 0 7.031-16.593-0.563-33.327-1.125-49.92-1.547 6.75 8.015 12.515 16.734 17.155 26.155 1.969 4.078-4.078 7.593-6.047 3.516-5.484-11.109-12.374-21.093-20.812-30.092-1.406-1.547-1.266-3.515 0-5.062z"></path>
</svg>
