<!-- Generated by IcoMoon.io -->
<svg version="1.1" xmlns="http://www.w3.org/2000/svg" width="64" height="64" viewBox="0 0 64 64">
<path d="M0.236 38.685c0.635 1.8 2.647 2.858 4.023 3.811 3.176 2.223 6.352 4.446 9.422 6.67 4.658 3.282 9.528 8.364 15.563 7.411 1.165-0.212 1.906-1.482 1.906-2.541 0-3.494 0.106-6.987 0.106-10.481 0 0 0 0 0 0 0-0.212 0-0.318 0-0.529 10.058 0 20.115 0 30.172-0.106 1.906 0 2.753-1.694 2.541-3.388-1.164-8.152-2.329-16.198-3.494-24.35-0.212-1.482-2.011-2.117-3.282-1.8-10.375 2.117-20.856 4.235-31.231 6.458 0-3.282 0-6.564 0-9.846 0-2.117-3.070-3.705-4.552-1.906-4.552 5.717-9.105 11.434-13.657 17.151-2.223 3.176-9.105 8.893-7.517 13.445zM7.964 33.815c2.012-3.811 6.034-7.517 8.681-10.904 1.376-1.694 2.753-3.494 4.129-5.188 0 1.906 0 3.917 0 5.823 0 2.435 2.753 3.176 4.341 2.011 0.106 0 0.106 0 0.212 0 10.163-2.117 20.433-4.235 30.596-6.246 0.847 6.14 1.8 12.387 2.647 18.527-9.211 0-18.421 0-27.737 0.106-0.529 0-1.059 0.106-1.376 0.423-1.482-0.318-3.282 0.423-3.388 2.435 0 3.6-0.106 7.093-0.106 10.693-3.6-1.059-8.046-5.505-10.481-7.305-2.011-1.376-4.023-2.858-6.034-4.235-2.964-2.329-3.176-2.964-1.482-6.14z"></path>
</svg>
