<!-- Generated by IcoMoon.io -->
<svg version="1.1" xmlns="http://www.w3.org/2000/svg" width="64" height="64" viewBox="0 0 64 64">
<path d="M26.874 1.003c-9 7.312-17.577 15.046-25.733 23.483-3.094 3.234 1.828 8.156 4.922 4.922 6.187-6.328 12.515-12.374 19.265-18.14 0.563 16.452 1.125 32.905 1.547 49.357 0.141 4.5 7.171 4.5 7.031 0-0.563-16.593-1.125-33.327-1.547-49.92 8.015 6.75 16.734 12.515 26.155 17.155 4.078 1.969 7.593-4.078 3.516-6.047-11.109-5.484-21.093-12.374-30.092-20.812-1.547-1.406-3.515-1.266-5.062 0z"></path>
</svg>
