<!-- Generated by IcoMoon.io -->
<svg version="1.1" xmlns="http://www.w3.org/2000/svg" width="64" height="64" viewBox="0 0 64 64">
<path d="M35.058 20.401c-6.067 1.204-16.788 5.736-13.108 13.8 2.002 4.388 6.25 6.688 10.765 4.482 5.197-2.54 4.562-11.057 4.796-15.759-1.487 0-2.975 0-4.462 0 0.584 5.292 3.987 19.482 11.836 17.029 5.204-1.626 6.427-8.587 5.462-13.118-1.394-6.544-7.23-10.977-13.205-13.003-12.83-4.352-24.194 7.098-24.504 19.561-0.344 13.795 16.978 22.981 28.414 15.813 2.431-1.524 0.193-5.385-2.252-3.853-8.542 5.354-20.657-1.098-21.661-10.916-0.955-9.335 7.452-18.466 16.863-16.808 4.541 0.8 8.279 3.349 10.715 7.225 1.759 2.799 2.864 9.583-1.475 10.94-2.67 0.834-5.537-11.1-5.733-12.869-0.311-2.813-4.317-2.928-4.462 0-0.17 3.437 0.148 7.619-1.467 10.756-1.953 3.795-6.438-0.348-5.742-3.331 0.831-3.565 7.427-5.054 10.405-5.645 2.82-0.56 1.623-4.86-1.187-4.303v0z"></path>
<path d="M28.737 0.695c-15.587 3.378-29.692 17.223-28.672 33.951 1.069 17.527 18.107 26.558 33.635 29.072 17.684 2.863 29.588-16.704 30.264-32.255 0.369-8.492-3.392-16.635-9.301-22.567-2.978-2.989-6.663-5.367-10.551-6.963-1.981-0.814-4.226-1.004-6.336-1.226-0.883-0.093-1.78-0.15-2.667-0.209-0.462-0.030-3.098-0.428-2.527 0.026-2.227-1.771-5.407 1.365-3.154 3.154 1.596 1.269 3.725 1.164 5.682 1.281 4.206 0.252 7.702 0.961 11.345 3.145 6.805 4.081 11.324 10.849 12.764 18.595 1.346 7.244-1.147 14.81-4.829 20.965-4.276 7.148-10.31 12.508-19.005 11.805-6.72-0.543-14.34-3.795-20.089-7.186-6.222-3.67-10.024-10.549-10.766-17.638-1.545-14.743 12.122-26.771 25.395-29.648 2.812-0.61 1.62-4.91-1.185-4.303v0z"></path>
</svg>
