<!-- Generated by IcoMoon.io -->
<svg version="1.1" xmlns="http://www.w3.org/2000/svg" width="64" height="64" viewBox="0 0 64 64">
<path d="M17.705 12.609c-0.010 4.323-2.116 12.286 3.663 13.364 5.438 1.014 8.096-0.331 8.86-5.912 0.579-4.228 0.227-8.762 0.236-13.028 0.004-1.781 0.27-4.217-1.050-5.67-3.719-4.090-7.229 2.038-8.092 5.108-0.575 2.046 2.605 2.919 3.179 0.877 0.772-2.746 1.77-3.408 2.672-1.19 0.448 1.1-0.024 3.128-0.034 4.378-0.022 2.837 0.236 5.87-0.098 8.693-0.184 1.556-0.539 3.236-2.332 3.626-1.667 0.363-3.275-0.668-3.729-1.905-0.726-1.978 0.015-6.254 0.020-8.34 0.005-2.122-3.292-2.125-3.297 0v0z"></path>
<path d="M14.072 9.718c6.411-0.078 12.822-0.156 19.233-0.234 4.369-0.053 7.369-0.548 10.976 2.407 2.397 1.963 5.647 4.694 6.148 7.858 0.986 6.24-0.305 13.673-0.329 20.021-0.013 3.337-0.004 6.675 0.026 10.012 0.015 1.665 0.101 3.342 0.060 5.006 0.014 0.834 0.028 1.668 0.042 2.503 0.557 2.354-0.045 3.317-1.806 2.889-2.349 1.044-7.672-0.026-10.288-0.035-3.429-0.012-6.858-0.024-10.288-0.035-3.113-0.011-7.282 0.718-10.288-0.035-4.619-1.158-3.721-4.793-3.672-8.843 0.174-14.118 0.348-28.237 0.522-42.355 0.026-2.122-3.271-2.124-3.297 0-0.116 9.412-0.232 18.824-0.348 28.237-0.095 7.727-1.665 17.093 0.017 24.631 0.126 0.564 0.618 0.989 1.151 1.151 5.516 1.677 12.77 0.501 18.485 0.521 6.161 0.021 13.813 1.296 19.826 0.020 2.384-0.506 2.95-1.226 3.33-3.642 1.047-6.646-0.207-14.526-0.171-21.274 0.034-6.35 0.955-13.175 0.309-19.479-0.437-4.262-4.163-6.631-7.1-9.48-3.699-3.587-5.636-3.466-10.904-3.402-7.212 0.088-14.425 0.175-21.637 0.263-2.12 0.026-2.126 3.323 0 3.297v0z"></path>
<path d="M40.784 9.752c-0.026 2.399-0.013 4.798 0.040 7.197 0.020 0.907 0.74 1.627 1.648 1.648 2.622 0.063 5.244 0.125 7.865 0.188 2.123 0.051 2.122-3.246 0-3.297-2.622-0.063-5.244-0.125-7.865-0.188 0.55 0.55 1.099 1.099 1.648 1.648-0.053-2.399-0.066-4.797-0.040-7.197 0.023-2.122-3.274-2.124-3.297 0v0z"></path>
<path d="M20.884 32.71c7.217-0.044 14.434-0.087 21.651-0.131 2.121-0.013 2.126-3.31 0-3.297-7.217 0.044-14.434 0.087-21.651 0.131-2.121 0.013-2.126 3.31 0 3.297v0z"></path>
<path d="M24.291 38.327c4.14 0 8.279 0 12.419 0 2.121 0 2.125-3.297 0-3.297-4.14 0-8.279 0-12.419 0-2.122 0-2.125 3.297 0 3.297v0z"></path>
<path d="M20.465 44.44c7.45-0.812 14.907-1.171 22.4-1.078 2.122 0.026 2.124-3.271 0-3.297-7.493-0.093-14.951 0.266-22.4 1.078-2.087 0.228-2.11 3.527 0 3.297v0z"></path>
<path d="M25.17 50.24c3.921 0.079 7.839 0.047 11.759-0.096 2.115-0.077 2.126-3.375 0-3.297-3.919 0.143-7.838 0.175-11.759 0.096-2.122-0.043-2.122 3.254 0 3.297v0z"></path>
<path d="M20.445 55.927c7.622-0.077 15.241-0.027 22.861 0.151 2.123 0.050 2.122-3.248 0-3.297-7.62-0.178-15.239-0.228-22.861-0.151-2.12 0.021-2.126 3.319 0 3.297v0z"></path>
</svg>
