<!-- Generated by IcoMoon.io -->
<svg version="1.1" xmlns="http://www.w3.org/2000/svg" width="64" height="64" viewBox="0 0 64 64">
<path d="M10.318 46.077c0-1.209 0.151-3.929 0.151-3.929 0-4.231 0-8.463-0.453-12.543-0.151-1.511-0.302-2.871-0.453-4.382 0-0.604-0.151-1.965-0.151-1.965 0-2.418 0.453-4.685 0.604-7.103 0.151-1.058 0.302-2.418-0.302-3.476-0.653-0.978-1.852-1.329-2.98-1.563l0.411 0.051c-0.169-0.019-0.321-0.044-0.483-0.067-0.415-0.085-0.819-0.155-1.18-0.236-0.132 0-0.302-0.008-0.484-0.019-0.489-0.074-0.972-0.132-1.481-0.132-0.453 0-0.907 0-1.209 0.151-0.151 0-0.453 0.302-0.604 0.302-0.604 0-0.907 0-1.36 0.453-0.151 0.302-0.302 0.907-0.302 0.907-0.151 0.302 0.151 1.662 0.151 1.964 0 0.151 0 0.302 0 0.453 0 0.756 0.151 1.511 0.151 2.267 0.056 0.168 0.068 0.337 0.070 0.506-0.026 0.082-0.059 0.158-0.070 0.25-0.151 1.209 0.302 3.022 0.453 4.080 0 0.604 0.302 1.965 0.302 1.965-0.151 4.080 0.453 8.009 0.604 12.089 0.151 1.209 0 2.418 0 3.476 0 0.151 0 0.604 0 0.604-0.302 2.418-0.302 2.418-0.151 5.138 0.151 0.453 0.302 1.36 0.302 1.36 0 0.863 0.1 2.216 0.137 2.771-0.088 0.312-0.137 0.621-0.137 0.855 0 0.302 0.151 1.058 0.151 1.058 0 0.151 0 0.151 0 0.302 0.151 0.453 0.151 1.36 0.604 1.813 0.302 0.302 1.209 0.756 1.209 0.756 0.302 0.151 0.756 0 0.756 0 0.302 0.302 0.756 0.302 1.058 0.151 0.151 0 0.453-0.151 0.453-0.151 0.274 0.034 0.58 0.057 0.888 0.058 1.067 0.287 2.213 0.249 2.889-0.512 0.604-0.604 0.604-1.662 0.604-2.569 0-0.151-0.151-0.756-0.151-0.756 0.453-1.36 0-2.871 0-4.382z"></path>
<path d="M21.089 51.432c-0.052-0.991-0.161-1.882-0.174-2.288-0.070-2.286-0.471-4.555-0.471-6.846-0.151-3.325-0.302-6.498-0.453-9.823-0.151-1.36-0.604-3.627-0.453-5.138 0.151-2.418 0-4.534-0.151-7.103-0.151-1.209-0.302-2.418-0.302-3.627-0.151-0.604-0.151-1.813 0-1.813 0-0.604 0.151-1.511-0.151-2.116-0.151-0.302-0.453-0.453-0.756-0.453-0.302-0.151-0.756-0.151-0.907-0.151-0.059-0.118-0.155-0.231-0.251-0.34l0.1 0.037c-0.054-0.045-0.105-0.077-0.158-0.116-0.136-0.139-0.29-0.259-0.446-0.337-0.047 0-0.126 0-0.21 0-1.218-0.316-1.705 1.461-1.453 2.72 0.756 3.174 0.907 6.8 1.058 9.974 0 1.058 0.151 2.267 0.151 3.325 0 0.604 0.151 1.662 0.151 1.662 0.302 6.498 0.604 13.147 1.209 19.796 0.166 1.828-0.675 5.285 1.336 6.41 2.281 1.274 2.453-1.512 2.332-3.775z"></path>
<path d="M37.217 43.357c-0.151-7.254 0.151-14.507-0.151-21.761-0.151-1.36-0.453-2.569-0.453-3.929-0.151-1.209 0.151-2.569 0-3.778s-0.453-3.022-1.813-3.476c-0.604-0.151-1.209 0-1.813 0-0.302 0-0.756 0.151-0.907 0.151-0.756 0.151-1.36 0-1.965 0-0.302 0-0.756 0.151-0.756 0.151-0.302 0-0.756 0-0.756 0-0.218-0.218-0.669-0.434-0.905-0.539l0.905 0.388c-0.756-0.756-1.965-0.604-2.569 0.302-0.302 0.302-0.302 0.907-0.302 1.36 0.151 0.151 0.302 0.604 0.302 0.604 0.302 9.218 0.453 18.436 0.604 27.654 0.151 3.476 0.151 6.951 0.151 10.427 0 1.36-0.453 3.778 1.36 4.382 1.511 0.453 3.325-0.151 4.836-0.302 1.058-0.151 1.965 0.453 3.022 0.302 1.813-0.302 2.116-1.965 1.965-3.476-0.151-2.871-0.604-5.591-0.756-8.463z"></path>
<path d="M47.040 49.855c0-0.453 0-1.058 0-1.511 0-0.302-0.151-0.907 0-0.907 0-4.533-1.058-9.067-1.36-13.601-0.302-3.627 0-7.103-0.302-10.578-0.151-2.267-0.302-4.534-0.604-6.8 0-0.604-0.151-1.209-0.151-1.662 0-0.907 0.151-2.569 0.151-2.569 0.151-0.756 0-1.511-0.604-1.964-0.144-0.073-0.357-0.109-0.541-0.128-0.307-0.132-0.638-0.138-0.97 0.128-0.604 0.302-0.756 0.756-0.907 1.36 0 0.151-0.151 0.453-0.151 0.453-1.36 0-1.209 2.418-1.058 3.174 0.151 0.604 0.302 1.36 0.453 1.965 0 0.151 0 0.302 0 0.453 0.151 0.907 0.302 1.813 0.453 2.871 0.151 0.604 0.151 1.36 0.302 2.116 0.756 5.44 0 11.031 1.058 16.623 0.302 1.511 0.151 3.022 0.453 4.534 0.302 1.058 0.453 1.965 0.604 2.871 0 0.302 0 0.907 0 0.907 0 0.604 0 1.058 0 1.511 0 0.302 0.151 0.756 0.151 0.756 0 1.36-0.604 5.44 1.965 4.987 1.36-0.302 1.36-2.116 1.209-3.173 0-0.604-0.151-1.662-0.151-1.813z"></path>
<path d="M63.814 47.89c-0.151-1.965-0.302-5.289-0.302-6.8 0-5.289-0.151-10.427-0.151-15.716 0-2.418 0.151-4.836 0-7.254 0-1.662-0.151-3.325-0.151-4.836 0-1.058 0.302-2.116 0-3.022-0.265-0.661-0.652-1.083-1.148-1.382l0.090 0.022c-0.039-0.017-0.088-0.029-0.128-0.045-0.058-0.034-0.112-0.075-0.174-0.105-0.183-0.092-0.465-0.125-0.668-0.139-1.348-0.275-3.059-0.157-4.017 0.441-0.453 0.151-1.058 0.604-1.209 1.058-0.151 0.302-0.302 0.907-0.302 0.907-0.302-0.302-0.907-0.453-1.209-0.302-1.511 0.907-1.209 1.964-0.907 3.627 0.302 3.022 0.756 5.894 1.209 8.916 0.604 4.685 1.209 9.52 1.209 14.356 0.151 1.662-0.302 2.871-0.151 4.382 0.302 1.662 0.604 3.476 0.756 5.289 0.151 1.058 0 2.871 0.302 4.080 0.151 0.756 0.756 1.36 1.511 1.36 0.302 0.151 0.604 0 1.058 0 0.151-0.151 0.453-0.151 0.453-0.151 0.453 0.302 0.907 0.756 1.511 0.453 0.453-0.151 0.907-0.756 0.907-0.756 2.267-0.757 1.662-2.419 1.511-4.383z"></path>
</svg>
