<!-- Generated by IcoMoon.io -->
<svg version="1.1" xmlns="http://www.w3.org/2000/svg" width="64" height="64" viewBox="0 0 64 64">
<path d="M4.231 18.097c0.295 5.118-0.413 10.177-0.344 15.282 0.045 3.339 0.951 7.135 0.243 10.425-0.572 2.66 3.507 3.792 4.081 1.125 0.693-3.224 0.136-6.75-0.032-10.007-0.29-5.607 0.607-11.203 0.284-16.826-0.157-2.712-4.389-2.727-4.231 0v0z"></path>
<path d="M6.171 20.742c8.040 0.89 16.127 0.701 24.199 0.497 8.921-0.226 17.864-1.582 26.721 0.133 2.665 0.516 3.802-3.561 1.125-4.080-8.382-1.623-16.811-0.834-25.266-0.391-8.882 0.466-17.931 0.59-26.778-0.39-2.71-0.3-2.681 3.934 0 4.231v0z"></path>
<path d="M5.995 46.836c9.925 0.155 19.699-0.77 29.633-0.051 4.43 0.321 8.873 0.437 13.299 0.773 3.571 0.271 7.39 0.83 10.875-0.269 2.593-0.817 1.485-4.903-1.125-4.080-3.075 0.97-6.597 0.37-9.751 0.118-4.424-0.354-8.87-0.448-13.299-0.773-9.934-0.73-19.708 0.205-29.633 0.050-2.73-0.043-2.726 4.188 0 4.231v0z"></path>
<path d="M55.361 19.684c0.507 8.514 0.193 17.043 0.176 25.565-0.006 2.729 4.226 2.729 4.231 0 0.017-8.522 0.331-17.050-0.176-25.565-0.161-2.711-4.394-2.727-4.231 0v0z"></path>
<path d="M14.986 26.913c-0.166 1.427 0.048 2.866 0.233 4.282 0.153 1.173 0.544 2.622 0.372 3.796-0.394 2.668 3.683 3.817 4.080 1.125 0.455-3.085-0.813-6.117-0.453-9.202 0.315-2.707-3.92-2.677-4.231 0v0z"></path>
<path d="M11.989 33.26c3.417-0.075 7.033-1.193 10.369-0.075 2.595 0.87 3.698-3.218 1.125-4.080-3.769-1.263-7.648-0.161-11.493-0.076-2.725 0.059-2.731 4.291-0.001 4.231v0z"></path>
<path d="M41.609 33.965c3.118 0.013 6.225 0.165 9.311 0.63 2.668 0.402 3.816-3.675 1.125-4.080-3.467-0.522-6.93-0.767-10.435-0.781-2.73-0.012-2.729 4.219-0.001 4.231v0z"></path>
<path d="M20.266 21.511c4.875 3.712 9.047 8.782 12.483 13.823 2.604 3.82 4.719 8.232 8.674 10.86 2.279 1.516 4.396-2.151 2.135-3.654-4.134-2.748-6.281-8.381-9.276-12.229-3.559-4.573-7.251-8.929-11.881-12.454-2.172-1.654-4.276 2.024-2.135 3.654v0z"></path>
<path d="M59.24 29.029c0.023 0.984 0.19 1.959 0.295 2.936 0.058 0.532 0.085 1.066 0.083 1.601-0.002 0.518-0.264 0.604 0.317 0.16-0.913 0.7-1.396 1.806-0.759 2.894 0.528 0.902 1.977 1.463 2.894 0.759 2.73-2.092 1.467-5.445 1.401-8.35-0.062-2.724-4.294-2.731-4.231 0v0z"></path>
<path d="M0.075 29.767c0.331 1.635 0.277 3.648 0.277 5.432 0.001 2.729 4.232 2.729 4.231 0 0-2.178 0.006-4.413-0.428-6.557-0.541-2.674-4.619-1.539-4.080 1.124v0z"></path>
<path d="M2.116 31.144c0.882 0 1.763 0 2.645 0 1.153 0 2.116-0.963 2.116-2.116s-0.963-2.116-2.116-2.116c-0.882 0-1.763 0-2.645 0-1.153 0-2.116 0.963-2.116 2.116s0.963 2.116 2.116 2.116v0z"></path>
<path d="M1.906 37.592c1.339 0.247 2.607 0.247 3.946 0 1.135-0.209 1.763-1.564 1.478-2.602-0.325-1.183-1.47-1.687-2.602-1.477-0.596 0.109 0.449-0.035-0.174 0.027-0.192 0.019-0.384 0.024-0.577 0.028s-0.387-0.004-0.58-0.014c-0.127-0.008-0.254-0.018-0.38-0.032 0.253 0.035 0.258 0.032 0.015-0.009-1.133-0.209-2.277 0.295-2.602 1.477-0.286 1.038 0.342 2.393 1.477 2.602v0z"></path>
<path d="M57.039 29.819c1.392 1.178 3.143 0.985 4.846 0.973 1.153-0.008 2.116-0.956 2.116-2.116 0-1.147-0.963-2.124-2.116-2.116-0.532 0.003-1.064 0.029-1.596 0.028-0.24 0-0.48-0.014-0.719-0.035 0.288 0.044 0.317 0.044 0.090-0.001-0.382-0.080 0.3 0.213 0.372 0.274-0.879-0.745-2.126-0.866-2.992 0-0.764 0.764-0.882 2.246 0 2.992v0z"></path>
<path d="M57.62 37.416c0.592 0.092 1.186 0.166 1.783 0.221 0.244 0.023 0.488 0.042 0.732 0.062 0.163 0.014 0.326 0.030 0.488 0.047 0.269 0.027 0.326 0.035 0.17 0.023 1.139 0.176 2.271-0.271 2.602-1.477 0.279-1.013-0.336-2.426-1.477-2.602-0.592-0.092-1.186-0.166-1.783-0.221-0.244-0.023-0.488-0.042-0.732-0.062-0.163-0.014-0.326-0.030-0.488-0.047-0.269-0.027-0.326-0.035-0.17-0.023-1.139-0.176-2.271 0.271-2.602 1.477-0.279 1.013 0.336 2.426 1.477 2.602v0z"></path>
</svg>
