<!-- Generated by IcoMoon.io -->
<svg version="1.1" xmlns="http://www.w3.org/2000/svg" width="64" height="64" viewBox="0 0 64 64">
<path d="M29.515 3.36c2.296 10.405-0.713 20.614-1.010 31.022-0.142 4.958 0.261 10.035 0.65 14.976 0.29 3.686 1.371 8.224-0.039 11.768-1.142 2.87 3.489 4.105 4.616 1.273 1.352-3.397 0.705-7.499 0.389-11.035-0.46-5.15-0.746-10.343-0.835-15.513-0.199-11.417 3.368-22.323 0.845-33.763-0.665-3.013-5.28-1.735-4.616 1.272v0z"></path>
<path d="M30.13 4.217c3.892 4.949 10.634 7.788 12.947 13.903 1.081 2.859 5.711 1.62 4.616-1.273-2.74-7.242-9.619-10.219-14.179-16.015-1.908-2.425-5.27 0.989-3.384 3.385v0z"></path>
<path d="M18.755 48.096c2.507-2.804 4.031-6.261 6.391-9.172 2.447-3.020 5.666-5.398 8.368-8.18 2.622-2.699 5.037-5.499 8.099-7.728 2.074-1.509 4.394-2.979 5.281-5.494 1.029-2.919-3.597-4.163-4.616-1.273-0.624 1.77-4.106 3.339-5.567 4.528-2.753 2.243-5.032 4.986-7.496 7.522-2.419 2.49-5.131 4.648-7.455 7.239-2.507 2.796-3.896 6.381-6.39 9.172-2.050 2.294 1.324 5.692 3.384 3.385v0z"></path>
<path d="M16.653 19.35c6.425 3.863 11.177 9.578 16.439 14.797 2.522 2.501 5.27 4.568 7.355 7.475 1.584 2.21 3.049 4.495 5.326 6.051 2.556 1.747 4.947-2.403 2.416-4.133-2.265-1.549-3.567-4.469-5.265-6.568-2.162-2.674-5.009-4.781-7.449-7.201-5.241-5.198-10.007-10.706-16.406-14.552-2.653-1.595-5.057 2.545-2.416 4.133v0z"></path>
<path d="M33.914 62.855c2.544-2.962 4.734-6.203 7.276-9.167 2.263-2.639 5.688-4.24 7.459-7.274 1.56-2.672-2.579-5.080-4.133-2.416-1.462 2.504-4.745 4.136-6.71 6.304-2.62 2.891-4.735 6.208-7.276 9.168-1.998 2.328 1.371 5.731 3.385 3.384v0z"></path>
</svg>
