<!-- Generated by IcoMoon.io -->
<svg version="1.1" xmlns="http://www.w3.org/2000/svg" width="64" height="64" viewBox="0 0 64 64">
<path d="M27.519 5.104c1.964-0.037 3.931-0.254 5.892-0.365 1.313-0.075 2.627-0.125 3.943-0.137 0.62-0.006 1.241 0.014 1.86 0.049 0.773 0.045 0.604 0.389 0.1-0.21 1.883 2.236 5.070-0.984 3.201-3.201-1.408-1.671-4.905-1.188-6.796-1.133-2.737 0.079-5.465 0.418-8.199 0.47-2.916 0.055-2.921 4.583 0 4.528v0z"></path>
<path d="M33.52 24.832c1.812 0.264 3.64 0.306 5.467 0.392 1.117 0.053 2.234 0.122 3.349 0.232 0.312 0.031 0.617 0.087 0.925 0.146 0.837 0.162 0.462 0.322-0.152-0.491 1.736 2.299 5.671 0.047 3.91-2.285-1.321-1.749-3.556-1.808-5.585-1.982-2.176-0.187-4.734-0.091-6.71-0.38-2.855-0.417-4.085 3.945-1.205 4.365v0z"></path>
<path d="M18.428 33.132c3.206 1.004 6.641 0.34 9.81 1.321 2.797 0.865 3.984-3.506 1.204-4.366-3.196-0.989-6.619-0.32-9.81-1.321-2.794-0.875-3.981 3.496-1.204 4.366v0z"></path>
<path d="M20.835 31.362c2.057-9.335 5.99-18.079 9.771-26.813 1.147-2.65-2.753-4.958-3.91-2.285-3.932 9.086-8.087 18.183-10.226 27.895-0.627 2.845 3.738 4.055 4.366 1.203v0z"></path>
<path d="M36.116 23.25c2.022-6.494 3.904-12.898 7.884-18.513 1.692-2.388-2.237-4.646-3.91-2.285-4.197 5.923-6.207 12.742-8.34 19.595-0.87 2.795 3.501 3.981 4.366 1.203v0z"></path>
<path d="M20.796 62.842c2.184-4.464 3.282-9.332 5.047-13.96 2.060-5.398 4.59-10.623 6.688-16.010 1.061-2.724-3.317-3.893-4.365-1.204-1.956 5.019-4.148 9.936-6.225 14.903-1.913 4.574-2.873 9.527-5.054 13.985-1.277 2.612 2.628 4.909 3.91 2.286v0z"></path>
<path d="M21.551 62.276c8.222-12.553 17.349-24.48 25.656-36.975 1.621-2.439-2.302-4.703-3.91-2.285-8.307 12.495-17.434 24.423-25.656 36.975-1.605 2.45 2.317 4.716 3.91 2.285v0z"></path>
</svg>
