<!-- Generated by IcoMoon.io -->
<svg version="1.1" xmlns="http://www.w3.org/2000/svg" width="64" height="64" viewBox="0 0 64 64">
<path d="M24.764 45.253c0.587-3.511-1.22-6.267-3.246-8.992-2.757-3.708-4.317-6.874-5.315-11.449-1.18-5.41-0.803-10.796 2.938-15.104 3.328-3.832 8.411-5.399 13.332-5.388 4.544 0.010 8.784 2.786 11.966 5.813 3.306 3.143 4.059 8.297 4.006 12.617-0.059 4.86-1.876 8.239-5.108 11.721-2.557 2.755-4.923 5.498-5.74 9.265 1.211-0.319 2.422-0.64 3.632-0.959-0.128-0.155-0.256-0.311-0.385-0.466-1.521-2.34-5.285-0.164-3.753 2.194 0.323 0.497 0.656 0.915 1.064 1.345 1.088 1.146 3.286 0.635 3.632-0.959 1.074-4.95 5.73-7.987 8.445-12.037 2.623-3.913 2.847-9.487 2.386-14.010-0.953-9.333-8.669-17.665-18.201-18.712-10.27-1.129-20.959 5.035-22.903 15.629-1.003 5.464 0.477 11.522 2.357 16.633 0.734 1.994 2.048 3.644 3.325 5.314 1.213 1.586 3.743 4.196 3.376 6.389-0.458 2.741 3.73 3.916 4.192 1.155v0z"></path>
<path d="M22.454 46.772c4.797 0.846 9.881 0.608 14.704 0.078 2.755-0.302 2.784-4.652 0-4.347-4.389 0.483-9.179 0.848-13.549 0.078-2.74-0.483-3.912 3.706-1.155 4.192v0z"></path>
<path d="M23.471 31.489c1.583 4.366 2.551 8.893 3.622 13.402 0.648 2.727 4.838 1.57 4.192-1.155-1.071-4.51-2.040-9.036-3.622-13.402-0.948-2.614-5.149-1.486-4.192 1.155v0z"></path>
<path d="M25.566 32.722c3.985-0.015 7.968-0.167 11.953-0.181-0.698-0.917-1.397-1.834-2.096-2.751-0.698 4.672-3.169 8.803-4.166 13.402-0.592 2.733 3.597 3.894 4.192 1.155 0.996-4.598 3.466-8.73 4.166-13.402 0.204-1.368-0.555-2.756-2.096-2.751-3.985 0.015-7.968 0.166-11.953 0.181-2.803 0.009-2.804 4.357 0 4.346v0z"></path>
<path d="M21.005 52.929c6.497 1.755 13.146 0.871 19.775 0.802 2.801-0.029 2.804-4.376 0-4.347-6.214 0.064-12.531 0.998-18.62-0.647-2.709-0.732-3.858 3.461-1.155 4.192v0z"></path>
<path d="M21.944 59.164c6.037-0.151 12.073-0.013 18.111 0 2.804 0.006 2.803-4.341 0-4.347-6.037-0.013-12.074-0.151-18.111 0-2.798 0.070-2.805 4.417 0 4.347v0z"></path>
<path d="M24.989 63.252c3.671 0.643 7.375 0.229 11.048 0.724 2.739 0.37 3.922-3.818 1.155-4.191-3.666-0.495-7.406-0.088-11.048-0.724-2.741-0.48-3.913 3.708-1.155 4.191v0z"></path>
</svg>
