<!-- Generated by IcoMoon.io -->
<svg version="1.1" xmlns="http://www.w3.org/2000/svg" width="64" height="64" viewBox="0 0 64 64">
<path d="M5.774 36.061c-2.5-6.409 0.161-14.354 4.468-19.184 5.121-5.74 10.235-10.504 17.993-12.085 7.382-1.505 15.233 0.822 21.301 5.027 7.731 5.357 9.039 15.751 9.38 24.498 0.329 8.444-5.294 14.457-11.073 19.852-5.247 4.898-11.757 6.133-18.677 5.029-11.323-1.807-23.987-10.248-23.498-22.92 0.109-2.841-4.294-2.83-4.403 0-0.56 14.504 12.964 24.295 25.894 27.010 6.723 1.411 13.896 0.852 19.795-2.847 6.872-4.31 13.79-12.155 15.774-20.104 1.052-4.217 0.561-8.746-0.083-12.98-0.742-4.876-1.556-10.131-4.096-14.434-4.222-7.153-13.075-11.308-20.969-12.554-7.92-1.25-16.491 0.66-22.774 5.748-5.946 4.815-13.174 11.919-13.813 19.987-0.281 3.548-0.79 7.729 0.535 11.126 1.020 2.615 5.279 1.478 4.246-1.17v0z"></path>
<path d="M15.943 33.894c0.133-9.15 6-18.661 16.025-19.027 9.375-0.342 15.707 8.859 15.936 17.365 0.247 9.188-6.829 15.087-15.504 15.653-4.377 0.286-8.357-1.239-11.698-4.022-3.197-2.663-4.075-6.772-4.576-10.703-0.354-2.777-4.762-2.811-4.403 0 0.633 4.965 1.7 9.535 5.254 13.247 3.741 3.908 9.107 5.781 14.398 5.904 11.809 0.273 20.731-8.353 20.932-20.078 0.19-11.109-8.325-20.626-19.262-21.733-12.875-1.303-21.341 12.116-21.506 23.394-0.041 2.841 4.362 2.837 4.403 0v0z"></path>
<path d="M33.153 24.826c6.935 1.686 8.908 13.418 0.48 14.313-5.148 0.547-9.985-6.976-6.119-10.987 2.028-2.105 5.926-2.309 8.435-3.731 2.47-1.399 0.252-5.203-2.222-3.802-4.743 2.687-10.538 2.699-11.764 9.165-1.36 7.17 4.658 13.665 11.669 13.758 5.907 0.079 9.783-5.121 10.025-10.561 0.255-5.733-3.834-11.065-9.334-12.4-2.758-0.671-3.928 3.574-1.17 4.245v0z"></path>
</svg>
