<!-- Generated by IcoMoon.io -->
<svg version="1.1" xmlns="http://www.w3.org/2000/svg" width="64" height="64" viewBox="0 0 64 64">
<path d="M5.023 48.366c0.431-7.351-0.832-14.687-0.682-22.044 0.058-2.82-0.689-6.619 2.808-7.519 3.275-0.842 7.013-0.904 10.382-0.95 8.557-0.117 17.046 1.416 25.61 1.308 3.868-0.048 14.628-2.738 16.421 2.004 1.072 2.837 0.164 6.651-0.252 9.535-0.47 3.264-0.493 6.477-0.436 9.774 0.069 4.001 0.14 8.024-0.618 11.973-0.325 1.69-9.193 1.923-10.576 2.017-8.969 0.608-17.987 0.127-26.959-0.127-3.691-0.104-7.332 0.282-11.019 0.342-1.816 0.029-4.488 0.084-5.276-1.928-0.595-1.516-0.323-3.473-0.312-5.066 0.018-2.638-4.073-2.637-4.091 0-0.018 2.745-0.293 6.088 1.605 8.345 2.492 2.966 6.696 2.826 10.241 2.677 10.225-0.429 20.423 0.277 30.658 0.067 4.809-0.099 9.676-0.438 14.4-1.389 2.561-0.516 4.528-1.124 5.273-3.849 1.131-4.139 0.838-8.823 0.764-13.060-0.077-4.389 0.327-8.508 0.852-12.846 0.798-6.601-0.837-12.273-8.207-12.95-3.117-0.286-6.21 0.010-9.32 0.243-5.34 0.4-10.688-0.009-16.012-0.446-8.102-0.665-17.662-1.912-25.571 0.783-2.665 0.909-4.025 3.692-4.322 6.311-0.472 4.172-0.175 8.545 0.065 12.723 0.27 4.687 0.757 9.374 0.482 14.072-0.155 2.636 3.937 2.621 4.091 0v0z"></path>
<path d="M20.859 15.048c0.407-2.612 0.33-5.181 0.3-7.816-0.682 0.682-1.364 1.364-2.045 2.045 8.434 0.13 16.641 2.268 25.088 1.064-0.864-0.657-1.726-1.315-2.589-1.972 0 2.576 0 5.151 0 7.727 0 2.638 4.091 2.638 4.091 0 0-2.576 0-5.151 0-7.727 0-1.457-1.297-2.156-2.589-1.972-8.010 1.141-15.994-1.087-24-1.21-1.106-0.017-2.058 0.943-2.045 2.045 0.025 2.241 0.192 4.503-0.154 6.729-0.401 2.579 3.54 3.687 3.945 1.087v0z"></path>
</svg>
