<!-- Generated by IcoMoon.io -->
<svg version="1.1" xmlns="http://www.w3.org/2000/svg" width="64" height="64" viewBox="0 0 64 64">
<path d="M10.644 4.708c8.727-0.002 17.453-0.003 26.18-0.005 3.927-0.001 7.854-0.001 11.781-0.002 3.978-0.001 12.669-1.643 12.021 4.827 0.549-0.549 1.098-1.098 1.647-1.647-10.965-0.095-21.93-0.189-32.895-0.284-5.263-0.045-10.526-0.091-15.79-0.136-2.020-0.017-6.133 0.817-7.895-0.068-2.43 0.288-1.982-0.581 1.342-2.609 1.642-0.089 3.284-0.113 4.928-0.071 2.12 0.011 2.123-3.283 0-3.295-6.842-0.036-13.038-0.357-11.806 8.026 0.104 0.707 0.93 1.204 1.588 1.209 20.176 0.174 40.352 0.348 60.527 0.523 0.956 0.008 1.559-0.766 1.647-1.647 0.954-9.524-6.839-8.123-14.007-8.122-13.090 0.002-26.18 0.005-39.27 0.007-2.12 0-2.123 3.295 0 3.295v0z"></path>
<path d="M46.225 22.825c0.814 0 1.627 0 2.441 0.001 0.707 0 1.6-0.144 2.293 0.003-0.328-0.252-0.656-0.505-0.984-0.757 0.037 0.059 0.074 0.118 0.111 0.177-0.075-0.277-0.15-0.554-0.225-0.831 0.172 1.516 0.1 3.097 0.139 4.623 0.055 2.116 3.35 2.124 3.295 0-0.028-1.067-0.055-2.134-0.083-3.201-0.024-0.938 0.092-2.047-0.649-2.763-0.785-0.759-2.089-0.544-3.082-0.544-1.085-0-2.17-0-3.255-0.001-2.12-0-2.123 3.294 0 3.295v0z"></path>
<path d="M49.381 21.281c-2.65 2.356-5.063 4.84-7.341 7.554 0.777 0 1.553 0 2.33 0-2.28-2.147-4.506-5.969-7.83-4.338-2.389 1.172-4.511 4.221-6.5 6.042-3.689 3.376-4.733 1.913-8.198-0.4-0.506-0.337-1.151-0.256-1.663 0-2.597 1.299-4.788 4.030-6.876 5.993-1.548 1.455 0.785 3.782 2.33 2.33 3.092-2.907 3.978-4.861 7.822-2.545 1.252 0.755 1.877 1.789 3.369 1.602 1.767-0.221 3.416-2.709 4.654-3.835 1.056-0.96 3.983-4.486 5.311-4.931 2.596-0.869 3.462 0.726 5.251 2.411 0.605 0.57 1.743 0.699 2.33 0 2.279-2.716 4.693-5.2 7.341-7.554 1.588-1.412-0.749-3.735-2.33-2.33v0z"></path>
<path d="M1.666 50.524c20.207-0.034 40.414-0.068 60.62-0.103 2.12-0.004 2.124-3.298 0-3.295-20.207 0.034-40.414 0.068-60.62 0.103-2.12 0.004-2.124 3.298 0 3.295v0z"></path>
<path d="M58.408 10.634c0.127 12.301 0.111 24.6-0.048 36.9-0.027 2.121 3.267 2.122 3.295 0 0.159-12.3 0.175-24.6 0.048-36.9-0.022-2.119-3.317-2.124-3.295 0v0z"></path>
<path d="M2.423 9.477c0.486 12.279-1.093 24.879 0.245 37.068 0.229 2.085 3.526 2.108 3.295 0-1.338-12.189 0.241-24.79-0.245-37.068-0.084-2.113-3.379-2.124-3.295 0v0z"></path>
<path d="M40.527 50.26c1.177 2.030 2.598 4.060 3.502 6.227 0.755 1.81 1.009 3.717 2.067 5.407 1.123 1.793 3.975 0.141 2.845-1.663-1.062-1.695-1.268-3.735-2.106-5.538-0.979-2.105-2.299-4.089-3.463-6.096-1.063-1.834-3.911-0.177-2.845 1.663v0z"></path>
<path d="M21.662 49.096c-2.090 4.144-6.061 6.859-7.847 11.218-0.803 1.961 2.383 2.814 3.177 0.876 1.643-4.009 5.567-6.569 7.514-10.431 0.952-1.888-1.889-3.558-2.845-1.663v0z"></path>
</svg>
