<!-- Generated by IcoMoon.io -->
<svg version="1.1" xmlns="http://www.w3.org/2000/svg" width="64" height="64" viewBox="0 0 64 64">
<path d="M63.199 27.465c-0.189-5.005-0.189-10.009-0.661-14.919-0.189-2.172-0.472-4.155-2.266-5.665-2.266-1.889-5.854-1.889-8.593-2.172-4.721-0.566-9.443-0.755-14.258-0.85-9.537-0.094-19.168 0.283-28.611 1.039-6.043 0.567-8.215 3.777-8.498 9.726-0.378 8.782-0.85 18.791 1.511 27.383 1.511 5.477 6.421 5.949 11.425 5.76 0.378 3.683 1.228 7.176 2.549 10.67 0.378 1.039 1.133 1.605 2.266 1.7 3.683 0.283 5.76-2.644 7.932-5.193 2.361-2.833 4.721-5.666 7.082-8.404 4.438 0.283 8.97 0.378 13.408 0.283 3.871-0.094 8.687 0.189 12.464-0.85 7.46-2.266 4.532-12.747 4.249-18.507zM58.95 37.758c-0.661 4.627-4.155 3.871-7.837 4.060-5.099 0.283-10.104 0.283-15.203 0-0.378-1.7-2.455-2.927-3.871-1.322-2.172 2.549-4.344 5.099-6.421 7.648-1.228 1.511-3.588 5.382-5.854 6.704-0.755-2.455-1.322-4.91-1.605-7.46 0.283 0 0.567 0 0.85 0 3.022 0 3.022-4.721 0-4.721-0.378 0-0.755 0-1.228 0-0.567-2.266-4.155-2.172-4.627 0.094-0.944 0-1.889-0.094-2.738-0.189-2.172-0.378-3.21-0.661-4.060-2.833-0.661-1.605-0.661-3.871-0.85-5.571-0.567-5.949-0.567-11.898-0.472-17.846 0-1.228-0.189-2.738 0.189-3.871 0.755-2.172 3.305-2.644 5.382-3.022 2.833-0.566 6.043-0.378 8.97-0.566 5.949-0.283 11.898-0.472 17.846-0.472 2.927 0 5.949 0.189 8.876 0.378 2.644 0.189 7.082-0.189 9.443 1.039 3.022 1.605 2.172 7.176 2.266 10.009s0.283 5.571 0.378 8.404c0.283 3.116 0.944 6.61 0.566 9.537z"></path>
</svg>
