<!-- Generated by IcoMoon.io -->
<svg version="1.1" xmlns="http://www.w3.org/2000/svg" width="64" height="64" viewBox="0 0 64 64">
<path d="M4.651 29.86c-0.411-12.464 15.218-19.437 25.725-20.239 10.979-0.838 23.963 3.236 28.507 14.153 6.939 16.673-23.626 21.77-34.172 21.663-1.158-0.012-2.124 0.975-2.124 2.124 0 0.079 0 0.157 0 0.236 0 0.983 0.656 1.747 1.559 2.048 0.236 0.079 0.472 0.157 0.708 0.236-0.311-1.183-0.624-2.367-0.937-3.55-3.149 2.736-6.151 5.646-9.483 8.164 1.065 0.611 2.131 1.223 3.196 1.834 0.544-4.843-0.052-9.936-3.659-13.499-1.92-1.897-4.582-2.885-6.606-4.672-2.386-2.106-2.276-5.112-2.964-7.88-0.229-0.922-1.12-1.548-2.048-1.559-0.099-0.001-0.199-0.001-0.3-0.003-2.741-0.033-2.737 4.215 0 4.248 0.1 0.001 0.2 0.002 0.3 0.004-0.683-0.52-1.366-1.039-2.048-1.56 0.503 2.027 0.491 3.834 1.385 5.809 1.072 2.371 2.688 4.070 4.732 5.609 2.124 1.599 4.546 2.46 5.998 4.823 1.509 2.452 1.267 5.947 0.961 8.68-0.171 1.521 1.967 2.763 3.196 1.834 3.627-2.74 6.917-5.85 10.342-8.828 1.279-1.111 0.473-3.080-0.937-3.55-0.236-0.079-0.472-0.158-0.708-0.236 0.519 0.682 1.039 1.366 1.559 2.048 0-0.079 0-0.157 0-0.236-0.708 0.708-1.416 1.416-2.124 2.124 14.973 0.154 47.301-7.608 37.457-28.907-5.712-12.359-21.084-16.497-33.599-15.245-12.319 1.232-28.633 10.198-28.166 24.328 0.091 2.732 4.339 2.741 4.248 0v0z"></path>
</svg>
