<!-- Generated by IcoMoon.io -->
<svg version="1.1" xmlns="http://www.w3.org/2000/svg" width="64" height="64" viewBox="0 0 64 64">
<path d="M4.129 28.807c1.459-8.826 12.206-15.581 20.169-17.666 7.947-2.080 15.911-0.626 23.148 2.933 5.671 2.789 13.592 8.315 12.045 15.652-1.199 5.682-4.906 9.256-9.048 12.888-3.52 3.085-3.123 8.461-5.604 12.161 1.112-0.143 2.224-0.287 3.335-0.43-3.023-3.055-3.869-6.42-8.345-7.773-2.456-0.742-5.736 0.351-8.236 0.324-3.094-0.033-6.115-0.667-9.076-1.515-4.715-1.35-11.196-3.388-14.118-7.594-1.348-1.941-3.644-7.057-3.089-9.452 0.618-2.665-3.477-3.796-4.095-1.129-0.793 3.416 1.136 7.481 2.477 10.535 1.932 4.401 5.289 6.788 9.629 8.655 5.516 2.373 11.003 4.211 17.020 4.689 3.3 0.263 8.231-1.525 10.798 0.873 1.623 1.516 2.449 3.789 4.032 5.389 1.009 1.019 2.582 0.692 3.335-0.43 1.376-2.053 2.048-4.266 2.676-6.64 0.947-3.574 2.929-5.127 5.595-7.421 3.892-3.348 6.742-9.345 7.181-14.405 0.728-8.386-7.87-14.687-14.368-18.045-8.656-4.472-18.099-5.54-27.551-3.065-8.897 2.33-20.412 10.709-22.004 20.336-0.442 2.678 3.65 3.826 4.096 1.129v0z"></path>
</svg>
