<!-- Generated by IcoMoon.io -->
<svg version="1.1" xmlns="http://www.w3.org/2000/svg" width="64" height="64" viewBox="0 0 64 64">
<path d="M0.601 46.6c3.752 3.963 8.932 6.33 12.458 10.501 1.78 2.107 4.787-0.931 3.020-3.020-3.53-4.177-8.707-6.538-12.458-10.501-1.897-2.005-4.912 1.022-3.020 3.020v0z"></path>
<path d="M16.613 57.101c7.878-8.080 16.772-15.51 23.734-24.421 3.445-4.409 7.428-8.305 11.528-12.107 2.136-1.981 4.436-3.765 6.707-5.586 0.914-0.733 1.772-1.516 2.617-2.327 0.201-0.193 2.594-2.7 1.345-2.199-0.693-1.19-1.385-2.38-2.078-3.57 0.004 0.016 0.007 0.032 0.011 0.048-2.425 1.306-0.269 4.994 2.156 3.688 0.345-0.186 0.601-0.424 0.854-0.716 1.249-1.446 0.090-4.437-2.078-3.57-1.746 0.698-2.726 2.815-4.068 4.102-2.033 1.951-4.4 3.574-6.552 5.39-4.534 3.826-9.046 8.159-12.698 12.835-7.241 9.268-16.306 17.010-24.497 25.412-1.924 1.972 1.095 4.995 3.020 3.020v0z"></path>
</svg>
