<!-- Generated by IcoMoon.io -->
<svg version="1.1" xmlns="http://www.w3.org/2000/svg" width="64" height="64" viewBox="0 0 64 64">
<path d="M31.909 8.492c0.049-1.845 0.524-3.648 0.568-5.495-0.758 0.758-1.516 1.516-2.274 2.274 2.105-0.211 4.209-0.442 6.288-0.839-0.932-0.529-1.864-1.058-2.797-1.588 0.362 1.857 0.65 3.753 0.487 5.649-0.252 2.922 4.297 2.899 4.547 0 0.197-2.28-0.215-4.625-0.65-6.857-0.25-1.285-1.655-1.806-2.797-1.588-1.683 0.321-3.376 0.504-5.080 0.675-1.257 0.126-2.242 0.94-2.274 2.274-0.044 1.847-0.52 3.649-0.568 5.495-0.077 2.934 4.47 2.926 4.547 0v0z"></path>
<path d="M57.373 47.491c4.749-10.374 3.313-23.202-5.205-31.209-4.209-3.957-15.794-12.755-21.297-7.123-2.050 2.098 1.163 5.315 3.215 3.215 2.875-2.941 13.374 5.72 15.623 7.834 6.585 6.19 7.342 17.113 3.738 24.988-1.212 2.645 2.707 4.958 3.927 2.295v0z"></path>
<path d="M32.856 7.545c-15.184 0.447-30.032 16.632-27.933 31.988 0.602 4.4 3.753 8.892 6.016 12.595 2.266 3.708 5.442 6.588 9.189 8.742 3.777 2.171 8.233 3.134 12.554 3.13 4.621-0.004 8.988-2.131 13.234-3.68 2.731-0.997 1.552-5.392-1.209-4.385-7.358 2.685-13.616 4.965-21.25 1.535-6.694-3.007-10.823-10.201-13.473-16.752-2.594-6.41 1.407-14.058 5.369-18.997 4.267-5.321 10.557-9.424 17.504-9.629 2.925-0.086 2.934-4.634 0-4.547v0z"></path>
<path d="M29.906 26.717c0.546 3.131 1.010 6.255 1.056 9.438 0.019 1.339 1.027 2.142 2.274 2.274 3.528 0.374 7.070 0.562 10.611 0.758 2.932 0.161 2.916-4.387 0-4.547-3.541-0.196-7.083-0.383-10.611-0.758 0.758 0.758 1.516 1.516 2.274 2.274-0.051-3.583-0.603-7.123-1.218-10.646-0.503-2.885-4.885-1.658-4.385 1.208v0z"></path>
<path d="M29.635 11.334c0.011 2.112 0.038 4.443 0.65 6.478 0.842 2.801 5.231 1.607 4.384-1.209-0.497-1.654-0.477-3.533-0.487-5.27-0.015-2.931-4.563-2.932-4.547 0.001v0z"></path>
<path d="M13.99 19.706c0.376 0.991 0.959 1.777 1.752 2.475 0.609 0.536 1.282 0.994 1.864 1.56 0.888 0.863 2.33 0.885 3.215 0 0.867-0.866 0.889-2.352 0-3.215-0.496-0.483-1.055-0.894-1.591-1.33-0.271-0.221-0.529-0.453-0.775-0.7-0.094-0.095-0.405-0.524-0.049-0.029-0.099-0.138-0.258-0.562-0.033 0.032-0.44-1.157-1.517-1.94-2.797-1.588-1.11 0.305-2.029 1.636-1.588 2.796v0z"></path>
<path d="M6.141 38.239c3.194 0.014 6.35 0.108 9.509-0.46 2.883-0.518 1.658-4.901-1.209-4.384-2.731 0.491-5.54 0.309-8.301 0.298-2.932-0.013-2.931 4.535 0.001 4.547v0z"></path>
<path d="M18.169 54.815c0.813-0.834 1.457-1.819 2.274-2.653 0.868-0.884 0.883-2.333 0-3.215-0.869-0.869-2.348-0.884-3.215 0-0.817 0.833-1.46 1.817-2.274 2.653-0.865 0.887-0.884 2.331 0 3.215 0.867 0.868 2.35 0.888 3.215 0v0z"></path>
<path d="M34.291 60.633c0.375-1.612 0.525-3.289 0.758-4.926 0.174-1.226-0.28-2.437-1.588-2.797-1.078-0.297-2.622 0.358-2.797 1.588-0.233 1.637-0.383 3.314-0.758 4.926-0.665 2.853 3.72 4.065 4.384 1.209v0z"></path>
<path d="M50.442 38.158c1.178 0.23 2.24 0.114 3.416-0.079 0.505-0.083 1.008-0.186 1.514-0.271 0.002 0 0.997 0.066 0.566-0.029 2.858 0.628 4.072-3.755 1.209-4.384-1.122-0.247-2.159-0.109-3.279 0.079-0.508 0.085-1.013 0.188-1.52 0.271-0.084 0.014-0.969-0.024-0.695 0.029-1.216-0.236-2.45 0.326-2.797 1.588-0.311 1.125 0.369 2.559 1.587 2.797v0z"></path>
<path d="M47.835 24.097c1.535-0.669 2.753-1.966 4.168-2.842 1.052-0.651 1.454-2.021 0.816-3.11-0.614-1.048-2.056-1.469-3.11-0.816-1.415 0.876-2.634 2.173-4.168 2.842-1.137 0.496-1.386 2.137-0.816 3.11 0.681 1.162 1.974 1.311 3.11 0.816v0z"></path>
<path d="M46.13 59.907c5.317-3.555 9.459-7.223 11.465-13.485 0.897-2.8-3.494-3.99-4.384-1.209-1.625 5.072-5.089 7.9-9.377 10.767-2.424 1.621-0.149 5.562 2.296 3.927v0z"></path>
<path d="M45.161 51.191c1.589 0.979 3.257 1.818 4.926 2.653 1.108 0.554 2.455 0.305 3.11-0.816 0.596-1.016 0.292-2.557-0.816-3.11-1.669-0.834-3.337-1.673-4.926-2.653-2.504-1.543-4.786 2.391-2.295 3.926v0z"></path>
</svg>
