<!-- Generated by IcoMoon.io -->
<svg version="1.1" xmlns="http://www.w3.org/2000/svg" width="64" height="64" viewBox="0 0 64 64">
<path d="M4.56 35.163c0.061-6.109 1.137-12.152 3.915-17.637 3.293-6.503 9.47-10.316 16.349-12.133 7.159-1.891 14.932-0.727 21.267 3.026 6.507 3.856 9.791 12.057 12.107 18.875 2.547 7.5 1.073 13.96-3.472 20.324-4.582 6.417-11.68 11.826-19.814 11.819-6.797-0.006-15.026-2.708-20.659-6.474-5.427-3.63-8.402-9.695-8.748-16.101-0.157-2.906-4.689-2.921-4.532 0 0.95 17.586 16.886 25.401 32.647 27.034 9.279 0.961 17.53-4.951 23.23-11.687 5.857-6.923 8.512-14.852 6.406-23.761-1.896-8.023-6.139-16.945-12.544-22.287-6.37-5.31-15.709-7.016-23.744-5.776-8.338 1.288-15.84 5.264-20.795 12.18-4.584 6.396-6.067 14.894-6.145 22.597-0.029 2.924 4.502 2.921 4.532 0v0z"></path>
<path d="M16.833 33.842c7.174 0.664 14.301 1.175 21.485 1.626 3.451 0.217 9.092 1.395 12.136-0.803 2.346-1.693 0.088-5.627-2.286-3.913-2.381 1.718-8.433 0.258-11.225 0.101-6.733-0.377-13.391-0.921-20.109-1.543-2.911-0.269-2.884 4.264 0 4.532v0z"></path>
<path d="M29.415 19.125c0.092 0.174 0.195 0.343 0.282 0.52-0.076-0.18-0.152-0.361-0.229-0.542 0.043 0.103 0.070 0.196 0.089 0.306-0.027-0.201-0.054-0.402-0.081-0.603 0.002 0.040 0.005 0.079 0.007 0.119 0.070 1.233 0.978 2.266 2.266 2.266 1.182 0 2.335-1.032 2.266-2.266-0.045-0.801-0.322-1.393-0.687-2.088-0.574-1.092-2.072-1.415-3.1-0.813-1.102 0.644-1.388 2.006-0.814 3.1v0z"></path>
<path d="M29.959 47.906c0.063 0.063 0.125 0.126 0.189 0.189 0.872 0.873 2.332 0.873 3.204 0s0.873-2.331 0-3.204c-0.063-0.063-0.125-0.126-0.189-0.189-0.872-0.873-2.332-0.873-3.204 0s-0.873 2.331 0 3.204v0z"></path>
</svg>
