<!-- Generated by IcoMoon.io -->
<svg version="1.1" xmlns="http://www.w3.org/2000/svg" width="64" height="64" viewBox="0 0 64 64">
<path d="M4.865 31.647c-0.071-14.343 16.232-27.838 30.291-25.428 14.046 2.408 24.784 13.657 24.236 28.121-0.538 14.216-13.871 23.527-27.106 23.732-6.499 0.1-13.626-1.541-19.322-4.684-3.322-1.833-5.966-4.753-7.181-8.363-1.289-3.833-0.711-8.3-1.377-12.281-0.481-2.877-4.847-1.653-4.369 1.205 0.751 4.494 0.291 9.055 1.763 13.43 1.233 3.664 4.108 6.536 7.12 8.795 6.324 4.743 15.656 6.336 23.367 6.431 16.21 0.198 30.415-11.907 31.637-28.264 1.266-16.955-13.192-30.846-29.392-32.781-16.371-1.958-34.279 13.507-34.197 30.087 0.015 2.921 4.546 2.923 4.531 0v0z"></path>
<path d="M30.542 16.354c0.299 5.956 0.332 11.895-0.099 17.845-0.209 2.888-0.772 5.718-1.118 8.588-0.131 1.087-0.293 2.177-0.295 3.275-0.001 0.657-0.491 2.5 0.191 1.187 1.381 0.181 2.76 0.361 4.141 0.541-0.023-0.106-0.047-0.213-0.070-0.319-0.624-2.854-4.991-1.643-4.369 1.205 0.023 0.106 0.047 0.214 0.070 0.32 0.414 1.89 3.253 2.249 4.141 0.541 0.544-1.045 0.421-2.329 0.428-3.475 0.019-3.007 0.826-5.959 1.134-8.94 0.712-6.916 0.725-13.83 0.378-20.769-0.145-2.908-4.676-2.922-4.531 0v0z"></path>
<path d="M13.927 34.102c5.633 0.663 11.279 0.747 16.945 0.731 5.576-0.015 11.52 0.776 17.040 0.213 2.878-0.294 2.907-4.828 0-4.531-5.075 0.518-10.501-0.243-15.626-0.219-6.137 0.029-12.257-0.007-18.36-0.725-2.899-0.341-2.866 4.194 0 4.531v0z"></path>
</svg>
