<!-- Generated by IcoMoon.io -->
<svg version="1.1" xmlns="http://www.w3.org/2000/svg" width="64" height="64" viewBox="0 0 64 64">
<path d="M44.437 4.98c-12.883-5.897-28.397-3.901-39.374 4.99-1.542 1.27-0.544 3.175 0.998 3.629-3.629 4.536-4.99 10.161-5.625 16.058-0.726 6.623-0.817 13.79 1.905 19.959 5.534 12.701 22.953 13.609 34.929 12.338 13.427-1.452 24.677-9.889 26.491-23.951 1.814-13.79-6.895-27.399-19.324-33.024zM53.691 49.798c-4.899 5.443-12.248 7.439-19.324 7.893-6.895 0.363-15.695 0.181-21.864-3.175-6.623-3.629-7.984-11.159-7.984-18.145 0.091-7.349 0.817-15.605 6.079-21.139 1.179-1.179 0.635-2.722-0.454-3.448 10.252-7.077 24.495-7.53 35.201-1.089 13.246 7.712 19.506 26.854 8.347 39.102z"></path>
<path d="M25.475 25.574c3.266 2.087 8.074 1.542 10.705-1.27 6.169-6.441-6.351-14.788-10.433-9.345-0.907-0.272-1.905-0.091-2.54 0.998-1.996 3.266-0.907 7.53 2.268 9.617zM26.745 18.861c0.907 0.091 1.814-0.181 2.359-1.089 0.091 0 0.181 0 0.272-0.091 0.272 0 0.635 0.091 0.907 0.181 0.635 0.181 1.361 0.454 1.814 0.817 1.542 1.179 1.179 2.45-0.454 3.175-2.087 0.998-5.806-0.363-4.899-2.994z"></path>
<path d="M36.453 31.744c-0.272-0.817-0.817-1.27-1.452-1.542-0.363-0.635-0.998-1.089-1.905-1.089-2.631-0.091-6.804-0.998-8.256 1.905-0.726 1.452-0.454 3.448-0.544 4.99-0.181 2.177-0.363 4.446-0.544 6.623-0.181 2.994-0.998 7.984 2.45 9.435 3.629 1.633 9.254 0.363 13.064-0.181 1.179-0.181 1.905-1.724 1.542-2.812-1.452-5.716-2.722-11.613-4.355-17.328zM28.379 47.983c-0.907-1.089 0-5.081 0.091-6.532 0.181-2.268 0.998-5.171 0.544-7.349 0-0.181 0-0.363 0-0.454 0.635 0.272 2.087 0.181 3.175 0.091 1.27 4.718 2.45 9.435 3.629 14.153-2.631 0.363-6.804 0.907-7.439 0.091z"></path>
</svg>
