<!-- Generated by IcoMoon.io -->
<svg version="1.1" xmlns="http://www.w3.org/2000/svg" width="64" height="64" viewBox="0 0 64 64">
<path d="M30.709 4.873c6.629 2.428 14.684 2.819 19.984 7.929 2.626 2.532 3.83 7.168 5.546 10.337 2.092 3.865 2.899 7.961 2.758 12.32-0.457 14.23-14.177 23.458-27.359 23.829-15.052 0.423-26.176-10.436-26.618-25.251-0.444-14.84 10.194-30.586 26.309-29.276 3.004 0.244 2.981-4.429 0-4.671-18.131-1.473-30.067 15.32-30.956 31.87-0.933 17.376 11.308 30.326 28.311 31.905 15.347 1.425 30.982-8.598 34.405-23.873 2.151-9.599-2.048-16.96-5.858-25.384-3.975-8.791-12.85-10.661-21.364-12.982-1.326-0.361-2.627-0.786-3.917-1.258-2.835-1.039-4.046 3.477-1.242 4.505v0z"></path>
<path d="M12.256 28.507c7.561-0.21 15.101-0.877 22.669-0.596 4.92 0.183 10.148 2.497 14.906 0.471 2.765-1.176 0.381-5.199-2.357-4.034-2.039 0.868-5.050-0.133-7.096-0.516-2.803-0.524-5.63-0.624-8.476-0.679-6.55-0.125-13.102 0.501-19.646 0.682-3.006 0.083-3.014 4.755 0 4.671v0z"></path>
<path d="M13.813 40.769c11.674 0.394 23.352 0.762 35.034 0.779 3.012 0.004 3.012-4.667 0-4.671-11.682-0.016-23.36-0.385-35.034-0.779-3.014-0.102-3.004 4.57 0 4.671v0z"></path>
</svg>
