<!-- Generated by IcoMoon.io -->
<svg version="1.1" xmlns="http://www.w3.org/2000/svg" width="64" height="64" viewBox="0 0 64 64">
<path d="M4.768 32.059c-0.012-16.818 15.063-29.643 31.771-26.333 15.302 3.031 23.562 17.448 22.704 32.167-0.836 14.346-13.891 21.523-27.060 21.084-6.609-0.221-13.772-2.43-18.842-6.754-3.018-2.574-5.083-5.999-6.504-9.654-1.005-2.586-3.26-7.088-1.615-9.726 1.586-2.543-2.425-4.867-4.001-2.338-3.648 5.85 1.684 16.459 5.375 21.176 5.332 6.817 13.284 10.421 21.746 11.557 15.737 2.113 32.596-5.552 35.215-22.488 2.794-18.063-7.883-35.113-25.787-39.492-19.075-4.666-36.959 10.787-37.636 29.668 0 0.378 0.001 0.755 0.001 1.133 0.002 2.987 4.635 2.987 4.633 0v0z"></path>
<path d="M14.805 34.375c7.095 0.457 14.189 0.781 21.291 1.105 5.586 0.254 11.336 0.564 16.773-0.995 2.866-0.822 1.646-5.292-1.232-4.468-5.389 1.545-11.157 1.029-16.688 0.777-6.719-0.306-13.431-0.619-20.144-1.052-2.984-0.192-2.966 4.441 0 4.633v0z"></path>
</svg>
