<!-- Generated by IcoMoon.io -->
<svg version="1.1" xmlns="http://www.w3.org/2000/svg" width="64" height="64" viewBox="0 0 64 64">
<path d="M15.208 17.932c1.055-6.138 8.353-10.378 14.132-10.999 5.375-0.577 11.58 2.593 12.732 8.297 0.334-0.821 0.668-1.642 1.002-2.463-0.017 0.012-0.036 0.025-0.054 0.037-2.3 1.583-0.122 5.366 2.201 3.766 0.017-0.012 0.036-0.025 0.054-0.037 0.858-0.59 1.21-1.438 1.002-2.463-1.579-7.82-9.681-11.766-16.937-11.499-7.529 0.278-17.002 6.427-18.338 14.202-0.473 2.751 3.731 3.928 4.206 1.159v0z"></path>
<path d="M13.2 15.249c-9.867-3.388-14.495 8.046-12.887 15.98 2.97 14.663 22.221 9.372 32.42 8.9 7.192-0.333 14.427 1.72 21.456-0.648 5.427-1.828 8.541-7.933 9.55-13.201 1.123-5.866-1.46-10.456-6.231-13.723-4.547-3.114-11.023-3.493-14.686 1.073-1.742 2.171 1.324 5.278 3.084 3.084 3.068-3.824 7.89-1.865 11.036 0.872 3.722 3.239 3.011 8.13 1.129 12.195-4.772 10.304-18.368 5.492-27.306 6.101-7.499 0.511-21.21 4.732-25.59-3.79-2.494-4.855-0.129-15.038 6.866-12.635 2.668 0.916 3.804-3.298 1.159-4.206v0z"></path>
</svg>
