<!-- Generated by IcoMoon.io -->
<svg version="1.1" xmlns="http://www.w3.org/2000/svg" width="64" height="64" viewBox="0 0 64 64">
<path d="M9.718 40.58c4.195 0.759 8.386 0.49 12.621 0.312 5.257-0.219 10.526 0.060 15.787-0.142 6.283-0.242 13.44-0.585 19.152-3.454 5.563-2.793 7.716-9.793 6.193-15.552-0.855-3.235-3.685-6.39-6.294-8.351-1.567-1.178-3.041-2.085-4.938-2.612-1.536-0.426-3.182 0.526-4.594 0.184-2.764-0.668-3.936 3.584-1.172 4.253 2.471 0.597 4.364-0.695 6.82 0.771 3.265 1.951 6.293 5.669 6.252 9.567-0.059 5.666-3.953 8.291-8.989 9.437-5.737 1.306-11.947 1.417-17.793 1.464-3.475 0.027-6.95-0.084-10.425 0.023-3.814 0.118-7.664 0.53-11.448-0.155-2.78-0.503-3.968 3.748-1.172 4.254v0z"></path>
<path d="M17.025 17.905c1.116-3.201 1.622-6.787 4.009-9.354 2.416-2.597 6.436-3.459 9.778-4.031 7.239-1.242 10.321 4.591 14.505 9.212 1.913 2.113 5.022-1.016 3.118-3.118-2.599-2.871-4.762-6.048-7.855-8.427-3.119-2.399-7.239-2.438-10.941-1.92-4.33 0.606-8.45 2.246-11.724 5.166-3.151 2.81-3.825 7.522-5.143 11.3-0.938 2.693 3.323 3.84 4.254 1.172v0z"></path>
<path d="M10.866 35.447c-3.332-2.383-7.333-5.627-6.229-10.214 0.864-3.589 5.646-9.503 9.621-6.354 2.171 1.72 5.182-1.056 3.118-3.118-0.184-0.184-0.368-0.368-0.551-0.551-2.013-2.013-5.131 1.106-3.118 3.118 0.184 0.184 0.368 0.368 0.551 0.551 1.039-1.039 2.079-2.079 3.118-3.118-6.069-4.808-12.551-0.468-15.826 5.425-4.18 7.52 1.105 13.788 7.089 18.070 2.319 1.658 4.518-2.169 2.227-3.809v0z"></path>
<path d="M14.541 52.67c2.224-1.404 3.881-3.515 6.065-4.962 2.358-1.564 0.152-5.385-2.226-3.809-2.186 1.45-3.856 3.568-6.065 4.962-2.398 1.514-0.187 5.332 2.226 3.809v0z"></path>
<path d="M23.074 52.326c2.080-1.715 4.068-3.54 6.354-4.985 2.397-1.515 0.186-5.333-2.226-3.809-2.602 1.644-4.879 3.723-7.246 5.674-2.197 1.811 0.942 4.913 3.118 3.119v0z"></path>
<path d="M32.056 52.431c1.167-1.613 2.818-2.841 4.538-3.803 2.482-1.388 0.26-5.198-2.226-3.809-2.414 1.35-4.5 3.144-6.12 5.385-0.706 0.976-0.17 2.454 0.791 3.017 1.113 0.654 2.314 0.182 3.017-0.79v0z"></path>
<path d="M40.9 51.958c1.843-1.524 3.561-3.194 5.618-4.433 2.432-1.465 0.217-5.28-2.226-3.809-2.378 1.432-4.381 3.362-6.511 5.123-0.928 0.767-0.789 2.329 0 3.118 0.909 0.911 2.193 0.766 3.118 0.001v0z"></path>
<path d="M47.7 52.877c1.928-2.020 4.436-3.248 6.721-4.801 2.338-1.589 0.134-5.412-2.226-3.809-2.596 1.764-5.421 3.193-7.614 5.49-1.963 2.057 1.152 5.18 3.118 3.119v0z"></path>
<path d="M15.555 62.195c-0.205 0.578-0.027 0.118 0.068-0.026-0.232 0.352 0.307-0.334 0.373-0.404 0.516-0.551 1.086-1.053 1.653-1.55 0.995-0.874 2.037-1.691 3.037-2.559 2.153-1.866-0.98-4.971-3.118-3.118-2.134 1.849-5.277 3.706-6.265 6.487-0.402 1.133 0.445 2.411 1.541 2.712 1.222 0.337 2.31-0.409 2.713-1.541v0z"></path>
<path d="M23.418 62.906c1.328-1.752 3.451-3.309 5.482-4.132 1.113-0.451 1.887-1.452 1.541-2.712-0.291-1.057-1.597-1.993-2.712-1.541-3.209 1.302-6.022 3.396-8.118 6.16-0.728 0.961-0.153 2.465 0.791 3.017 1.131 0.663 2.292 0.165 3.017-0.791v0z"></path>
<path d="M32.791 62.722c1.353-1.789 3.371-3.049 5.274-4.171 2.448-1.443 0.229-5.256-2.226-3.809-2.615 1.541-5.014 3.318-6.856 5.753-0.727 0.962-0.154 2.464 0.791 3.017 1.13 0.663 2.294 0.166 3.017-0.79v0z"></path>
<path d="M40.638 62.41c2.015-1.174 3.597-2.935 5.224-4.572 2.007-2.018-1.111-5.138-3.118-3.118-1.358 1.364-2.652 2.903-4.332 3.882-2.455 1.431-0.237 5.243 2.226 3.808v0z"></path>
<path d="M44.788 58.475c-0.493 0.759-0.648 1.729-0.141 2.532 0.798 1.263 2.37 1.392 3.463 0.446 1.76-1.521 3.629-3.097 5.576-4.372 2.369-1.55 0.162-5.371-2.226-3.809-2.26 1.478-4.426 3.295-6.468 5.061 1.155 0.148 2.309 0.297 3.464 0.446-0.006-0.010-0.012-0.018-0.018-0.028 0 0.742 0 1.484 0 2.226 0.048-0.096 0.1-0.187 0.159-0.278 1.553-2.394-2.268-4.602-3.809-2.225v0z"></path>
</svg>
