<!-- Generated by IcoMoon.io -->
<svg version="1.1" xmlns="http://www.w3.org/2000/svg" width="64" height="64" viewBox="0 0 64 64">
<path d="M16.918 16.926c0.695-5.943 7.975-8.673 13.005-9.683 3.155-0.634 7.107-0.407 9.665 1.688 0.989 0.811 1.382 2.001 1.783 3.165 0.096 0.299 0.186 0.599 0.271 0.901 0.276 0.944-0.089 1.494 0.602 0.531 1.105-0.142 2.209-0.285 3.313-0.427-0.064-0.082-0.128-0.163-0.191-0.245-1.676-2.141-4.639 0.867-2.983 2.983 0.063 0.082 0.127 0.163 0.191 0.245 0.908 1.162 2.608 0.556 3.313-0.427 1.351-1.883-0.962-6.472-1.942-8.103-2.441-4.062-7.735-4.834-12.023-4.746-8.175 0.166-18.192 5.31-19.222 14.118-0.316 2.7 3.908 2.669 4.219 0v0z"></path>
<path d="M14.106 14.817c-4.747-0.503-8.807 1.048-11.636 4.928-2.519 3.455-3.327 9.898-1.405 13.76 3.962 7.961 16.547 6.61 23.68 5.145 2.664-0.547 1.534-4.614-1.122-4.068-5.362 1.101-12.436 1.892-17.295-1.172-2.878-1.815-2.123-6.552-1.337-9.257 1.226-4.221 5.118-5.54 9.113-5.116 2.706 0.287 2.678-3.935 0.001-4.219v0z"></path>
<path d="M40.826 39.428c4.965 0.385 10.542 0.916 15.195-1.281 4.905-2.315 7.179-6.962 7.874-12.152 0.697-5.199-2.168-10.090-6.239-13.048-4.323-3.143-10.070-2.711-14.614-0.421-2.43 1.225-0.293 4.864 2.129 3.643 8.569-4.32 16.352 3.538 13.967 12.231-2.254 8.215-11.642 7.326-18.313 6.809-2.714-0.21-2.694 4.010 0 4.219v0z"></path>
<path d="M30.587 26.072c0.917 7.904-0.449 15.761-0.542 23.668-0.032 2.722 4.187 2.719 4.219 0 0.094-7.908 1.459-15.764 0.542-23.668-0.309-2.669-4.532-2.7-4.219 0v0z"></path>
<path d="M24.328 47.087c3.524 1.121 4.753 6.772 9.141 6.047 3.182-0.526 6.071-5.134 8.146-7.293 1.885-1.96-1.095-4.948-2.983-2.983-1.797 1.869-3.834 5.215-6.285 6.208 0.759-0.307-0.365-0.712-0.989-1.318-0.705-0.684-1.368-1.413-2.058-2.114-1.113-1.131-2.324-2.129-3.852-2.614-2.599-0.828-3.703 3.246-1.12 4.067v0z"></path>
</svg>
