<!-- Generated by IcoMoon.io -->
<svg version="1.1" xmlns="http://www.w3.org/2000/svg" width="64" height="64" viewBox="0 0 64 64">
<path d="M23.076 26.564l0.004 0.028v0.011l0.004 0.020 0.003 0.015 0.003 0.015 0.004 0.019 0.003 0.012 0.005 0.021v0.009l0.006 0.023v0.007l0.007 0.024v0.006l0.008 0.025v0.005l0.009 0.025v0.004l0.009 0.026v0.004l0.011 0.025v0.004l0.011 0.025v0.003l0.012 0.025v0.004l0.012 0.024v0.004l0.013 0.024v0.005l0.013 0.022 0.003 0.005 0.013 0.022 0.003 0.005 0.013 0.021 0.004 0.006 0.013 0.020 0.004 0.006 0.013 0.019 0.005 0.007 0.013 0.018 0.019 0.024 0.008 0.010 0.021 0.025 0.011 0.012 0.014 0.015 0.007 0.008 0.022 0.022c0.224 0.224 0.533 0.362 0.875 0.363h0c0.341-0.005 0.649-0.142 0.876-0.363l-0 0c3.489-3.040 7.332-6.177 11.749-9.593 0.224-0.214 0.363-0.515 0.363-0.849 0-0.009-0-0.019-0-0.028v0.001c-0-0.675-0.54-1.223-1.212-1.238h-0.001l-0.328 0.043c-0.215 0.061-0.4 0.172-0.547 0.32v0c-4.405 3.405-8.249 6.543-11.75 9.594-0.219 0.198-0.357 0.483-0.36 0.799v0.012c-0 0.011-0 0.024-0 0.037 0 0.065 0.005 0.13 0.014 0.192l-0.001-0.007z"></path>
<path d="M35.91 23.57c-0.34 0.010-0.646 0.146-0.876 0.363l0.001-0c-1.186 0.969-2.379 1.899-3.491 2.76l-0.549 0.424c-1.085 0.836-2.207 1.7-3.296 2.567-0.224 0.216-0.363 0.519-0.363 0.854 0 0.007 0 0.015 0 0.023v-0.001c0 0.684 0.554 1.238 1.238 1.238v0l0.328-0.043c0.215-0.061 0.399-0.172 0.547-0.32v0q1.006-0.8 2.027-1.584l-0.015 0.011 0.029-0.021 0.060-0.046 0.013-0.008c0.006-0.005 0.012-0.009 0.019-0.013v0l0.063-0.049 0.682-0.529c1.471-1.138 2.995-2.311 4.46-3.511 0.224-0.215 0.363-0.518 0.363-0.852 0-0.008-0-0.016-0-0.024v0.001c-0-0.684-0.554-1.238-1.238-1.238v0z"></path>
<path d="M46.942 40.543c-0.071 0.11-0.124 0.238-0.151 0.376l-0.001 0.007c-0.146 0.328-0.248 0.709-0.285 1.109l-0.001 0.014c-0.008 0.111-0.012 0.241-0.012 0.372 0 0.641 0.106 1.257 0.301 1.832l-0.012-0.040c0.232 0.729 0.508 1.356 0.842 1.947l-0.027-0.051c0.387 0.657 0.79 1.224 1.236 1.754l-0.016-0.019c0.503 0.647 1.030 1.222 1.599 1.752l0.009 0.008c0.299 0.269 0.625 0.528 0.966 0.765l0.033 0.021c0.382 0.261 0.823 0.478 1.293 0.63l0.036 0.010c0.217 0.066 0.469 0.112 0.73 0.127l0.009 0c0.088 0.008 0.19 0.012 0.293 0.012s0.206-0.004 0.306-0.013l-0.013 0.001c0.465-0.039 0.894-0.149 1.292-0.319l-0.027 0.010c0.097-0.039 0.193-0.081 0.288-0.124 0.013 0.087 0.025 0.175 0.041 0.261 0.079 0.381 0.196 0.718 0.349 1.033l-0.011-0.025c0.105 0.227 0.222 0.423 0.358 0.604l-0.006-0.009c0.125 0.17 0.249 0.32 0.381 0.462l-0.003-0.003c0.139 0.137 0.29 0.263 0.451 0.376l0.011 0.007c0.932 0.705 2.136 0.831 3.208 1.235 0.257 0.124 0.475 0.254 0.681 0.402l-0.014-0.009c0.289 0.252 0.551 0.513 0.796 0.791l0.008 0.009c0.224 0.224 0.535 0.363 0.877 0.363 0.685 0 1.24-0.555 1.241-1.239v-0c-0.005-0.342-0.143-0.651-0.364-0.878l0 0c-0.567-0.677-1.262-1.227-2.050-1.617l-0.037-0.016c-0.335-0.153-0.747-0.306-1.17-0.431l-0.070-0.018c-0.434-0.129-0.876-0.235-1.302-0.391-0.154-0.077-0.284-0.153-0.407-0.236l0.013 0.008c-0.073-0.067-0.142-0.136-0.209-0.209-0.060-0.088-0.121-0.193-0.176-0.3l-0.008-0.017c-0.073-0.203-0.137-0.446-0.179-0.697l-0.004-0.026c-0.005-0.048-0.010-0.097-0.013-0.146-0.014-0.231-0.077-0.445-0.179-0.635l0.004 0.008c0.247-0.182 0.488-0.373 0.716-0.579 0.25-0.242 0.476-0.506 0.675-0.791l0.012-0.018c0.181-0.268 0.333-0.576 0.443-0.904l0.008-0.027c0.115-0.337 0.181-0.725 0.181-1.129 0-0.037-0.001-0.073-0.002-0.11l0 0.005c-0.013-0.445-0.076-0.869-0.185-1.275l0.009 0.039c-0.115-0.475-0.236-0.867-0.378-1.248l0.024 0.075c-0.352-0.978-0.766-1.819-1.259-2.605l0.033 0.056c-0.467-0.754-0.985-1.408-1.568-1.996l0.001 0.001c-0.596-0.59-1.306-1.066-2.093-1.394l-0.043-0.016c-0.589-0.245-1.273-0.39-1.989-0.396h-0.056c-0.37 0.011-0.724 0.052-1.067 0.121l0.040-0.007c-0.445 0.091-0.839 0.225-1.208 0.403l0.030-0.013c-1.362 0.663-2.464 1.681-3.209 2.935l-0.019 0.034zM54.521 48.525c-0.156 0.060-0.347 0.117-0.543 0.16l-0.027 0.005c-0.053 0-0.107 0-0.16 0s-0.107 0-0.16-0.004c-0.145-0.031-0.264-0.064-0.381-0.102l0.025 0.007c-0.297-0.148-0.551-0.303-0.79-0.476l0.015 0.011c-0.306-0.253-0.581-0.511-0.841-0.785l-0.004-0.004-0.008-0.009c0.744-0.544 1.471-1.135 2.173-1.707l0.053-0.044c0.443-0.361 0.887-0.721 1.333-1.073 0.529-0.4 1.017-0.743 1.493-1.048v0 0 0l0.004 0.003c0.032 0.069 0.064 0.139 0.095 0.209 0.24 0.553 0.443 1.203 0.576 1.877l0.010 0.063c0.005 0.075 0.008 0.161 0.008 0.249s-0.003 0.175-0.009 0.261l0.001-0.012c-0.027 0.123-0.055 0.224-0.088 0.322l0.006-0.022c-0.066 0.129-0.13 0.236-0.2 0.339l0.007-0.011c-0.178 0.199-0.366 0.38-0.566 0.546l-0.009 0.007c-0.3 0.219-0.613 0.421-0.88 0.59-0.317 0.211-0.688 0.426-1.074 0.62l-0.063 0.028zM52.041 39.565c0.128-0.011 0.257-0.015 0.385-0.015s0.257 0.005 0.386 0.015c0.295 0.058 0.551 0.133 0.797 0.227l-0.033-0.011c0.316 0.153 0.584 0.313 0.838 0.492l-0.018-0.012c0.354 0.3 0.67 0.621 0.955 0.969l0.010 0.013 0.024 0.029 0.046 0.053c-0.45 0.289-0.93 0.624-1.468 1.026v0l-0.004 0.003c-0.358-0.352-0.701-0.732-1.032-1.099v0l-0.033-0.033c-0.404-0.448-0.82-0.907-1.271-1.333l-0.030-0.028c-0.053-0.049-0.11-0.094-0.165-0.141h0.007c0.162-0.055 0.365-0.109 0.573-0.151l0.033-0.005zM48.97 42.199c0.018-0.078 0.037-0.155 0.060-0.231 0.024-0.044 0.048-0.085 0.084-0.14 0.144-0.154 0.255-0.34 0.32-0.547l0.003-0.010v-0.004c0.624 0.537 1.187 1.101 1.706 1.704l0.018 0.021c0.267 0.297 0.545 0.606 0.83 0.907l0.016 0.016 0.004 0.004c-0.379 0.309-0.76 0.617-1.144 0.92-0.283 0.213-0.526 0.393-0.766 0.557-0.009 0.005-0.017 0.011-0.026 0.018v0 0 0 0c-0.043-0.065-0.086-0.13-0.128-0.197-0.191-0.3-0.379-0.651-0.54-1.015l-0.021-0.052c-0.166-0.394-0.306-0.859-0.4-1.341l-0.007-0.046c-0.009-0.102-0.014-0.22-0.014-0.34 0-0.079 0.002-0.158 0.007-0.236l-0 0.011z"></path>
<path d="M0.001 34.553v0.014c0 0.343 0.139 0.653 0.364 0.878v0c0.229 0.217 0.536 0.353 0.875 0.362h0.002c1.478 0.13 3.197 0.205 4.934 0.205 0.769 0 1.536-0.015 2.298-0.043l-0.11 0.003c1.115-0.019 2.23-0.037 3.345-0.027 1.803 0.017 3.606 0.081 5.409 0.118l1.345 0.027c0.029 0.091 0.064 0.17 0.107 0.243l-0.003-0.006q0.166 0.295 0.309 0.602c0.212 0.532 0.384 1.157 0.487 1.804l0.007 0.051c0.040 0.365 0.063 0.788 0.063 1.216 0 0.482-0.029 0.957-0.085 1.423l0.006-0.056c-0.091 0.596-0.203 1.106-0.343 1.604l0.023-0.095-0.009 0.034c-5.409 0.005-10.818 0.048-16.227 0.049-0.683 0.007-1.234 0.558-1.241 1.241v0.001c0 0.057 0.004 0.112 0.012 0.166l-0.001-0.006c-0.022 0.070-0.035 0.15-0.035 0.234 0 0.029 0.002 0.058 0.005 0.087l-0-0.003c0.013 0.221 0.021 0.479 0.021 0.739 0 0.715-0.056 1.418-0.164 2.103l0.010-0.076c-0.012 0.164-0.020 0.355-0.020 0.548 0 0.167 0.006 0.334 0.016 0.499l-0.001-0.022c0.012 0.331 0.064 0.645 0.152 0.944l-0.007-0.027c0.159 0.527 0.517 0.951 0.983 1.196l0.011 0.005c0.532 0.221 1.148 0.354 1.795 0.363l0.004 0q2.856 0.229 5.723 0.272c2.027 0.031 4.054 0 6.080-0.039s4.038-0.083 6.056-0.096c2.041-0.014 4.083-0.005 6.125 0.011 4.083 0.031 8.167 0.097 12.25 0.107q1.408 0.003 2.818-0.006c0.112 0.030 0.24 0.047 0.372 0.047 0.753 0 1.376-0.559 1.475-1.285l0.001-0.008c-0-0.225-0.062-0.436-0.169-0.617l0.003 0.006c0.116-1.449 0.148-2.901 0.153-4.356 0.024-0.087 0.038-0.186 0.038-0.289 0-0.001 0-0.002 0-0.003v0c-0.001-0.342-0.139-0.652-0.363-0.878l0 0c-0.057-0.057-0.119-0.108-0.186-0.152l-0.004-0.003c-0.2-0.148-0.451-0.237-0.724-0.239h-0c-0.071 0-0.141 0.006-0.209 0.018l0.007-0.001c-5.409-0.299-10.827-0.437-16.24-0.494-0.021-0.257-0.033-0.556-0.033-0.858 0-0.421 0.023-0.836 0.068-1.245l-0.004 0.051c0.126-0.778 0.322-1.472 0.588-2.132l-0.024 0.066c0.305-0.657 0.643-1.221 1.032-1.745l-0.019 0.026c0.148-0.181 0.3-0.357 0.459-0.529 0.080-0.087 0.151-0.185 0.209-0.291l0.004-0.008c1.349 0.024 2.698 0.057 4.046 0.126 3.63 0.184 7.25 0.524 10.885 0.582 0.683-0.005 1.235-0.557 1.241-1.24v-0c-0-0.35-0.147-0.666-0.383-0.888l-0.001-0c0.063-4.087 0.282-8.167 0.492-12.248 0.107-2.104 0.131-4.214 0.132-6.319 0-1.911 0.301-3.819 0.107-5.728 0.081-0.158 0.13-0.344 0.131-0.541v-0.001c-0.001-0.342-0.139-0.653-0.364-0.877v0c-0.227-0.221-0.536-0.358-0.876-0.363h-0.001c-3.644-0.213-7.287-0.441-10.934-0.614q-5.605-0.267-11.213-0.263h-3.93c-0.12 0.021-0.262 0.034-0.406 0.038l-0.004 0c-0.008 0-0.017 0-0.027 0-0.284 0-0.562-0.024-0.832-0.071l0.029 0.004c-0.107 0.012-0.213 0.020-0.308 0.022-0.195 0.004-0.39 0-0.584 0.013-0.007 0-0.015 0.003-0.022 0.005-0.098 0.025-0.211 0.039-0.326 0.039-0.133 0-0.261-0.019-0.383-0.054l0.010 0.003h-4.299c-0.831 0-1.661-0.003-2.491-0.029-0.892-0.029-1.783-0.071-2.675-0.090-0.234-0.005-0.468-0.008-0.702-0.008-0.088-0.001-0.191-0.002-0.294-0.002-1.468 0-2.895 0.171-4.264 0.495l0.125-0.025c-0.134 0.034-0.252 0.087-0.358 0.158l0.004-0.003c-0.418 0.031-0.775 0.266-0.976 0.605l-0.003 0.006c-0.109 0.177-0.173 0.391-0.173 0.621 0 0.119 0.018 0.235 0.050 0.344l-0.002-0.009c0.129 0.324 0.236 0.705 0.303 1.1l0.005 0.034c0.17 1.572-0.053 3.152-0.058 4.728-0.007 2.11-0.133 4.219-0.221 6.328-0.085 2.027-0.131 4.054-0.187 6.076-0.058 2.102-0.098 4.206-0.084 6.31zM41.683 45.811c0.351 0.018 0.701 0.035 1.052 0.053h0.003c-0.014 1.067-0.046 1.999-0.107 2.856q-0.679 0-1.359 0c-2.79 0-5.628-0.030-8.373-0.059h-0.148c-2.653-0.029-5.662-0.063-8.605-0.063h-0.728c-1.955 0.004-3.942 0.040-5.863 0.077-1.423 0.027-2.892 0.053-4.338 0.069q-0.706 0.006-1.41 0.006c-1.316 0-2.523-0.019-3.691-0.058-0.845-0.028-1.737-0.075-2.65-0.139l-0.314-0.022c-0.41-0.028-0.833-0.057-1.247-0.102l-0.036-0.009c-0.006-0.107-0.009-0.213-0.009-0.32 0.009-0.499 0.042-0.98 0.1-1.453l-0.006 0.066c0.043-0.418 0.087-0.849 0.096-1.28q3.667-0.004 7.336-0.024c2.865-0.013 5.828-0.025 8.739-0.025h2.572c5.761 0.021 12.289 0.103 18.986 0.426zM26.749 36.23c-0.094 0.139-0.185 0.28-0.273 0.423-0.383 0.635-0.715 1.368-0.959 2.14l-0.020 0.073c-0.221 0.702-0.377 1.517-0.436 2.359l-0.002 0.033c-0.021 0.247-0.034 0.534-0.034 0.824s0.012 0.577 0.036 0.861l-0.003-0.037v0.018c-0.521-0.003-1.041-0.006-1.561-0.008l-1.916-0.007c0.211-0.885 0.333-1.901 0.336-2.945v-0.001c-0-0.642-0.054-1.272-0.157-1.885l0.009 0.066c0-0.011-0.003-0.020-0.005-0.030-0.127-0.746-0.318-1.409-0.573-2.039l0.024 0.066 5.397 0.091c0.044 0 0.088 0 0.13 0v0zM2.571 27.991l0.019-0.697c0.054-2.003 0.112-4.075 0.203-6.11l0.019-0.427c0.042-0.912 0.084-1.823 0.115-2.735 0.018-0.503 0.024-1.014 0.030-1.508 0.007-0.542 0.013-1.102 0.034-1.653 0.012-0.292 0.027-0.582 0.043-0.873 0.031-0.587 0.063-1.195 0.061-1.796 0-0.040 0-0.080 0-0.12-0.002-0.555-0.049-1.098-0.139-1.627l0.008 0.058c0.213-0.043 0.432-0.079 0.65-0.114 0.721-0.082 1.556-0.128 2.402-0.128 0.048 0 0.096 0 0.145 0h-0.007c0.699 0 1.387 0.021 2.027 0.045l0.466 0.018c0.637 0.024 1.296 0.049 1.946 0.059 0.324 0.006 0.648 0.006 0.972 0.006q0.418 0 0.835 0c0.277 0 0.555-0.003 0.833-0.003h10.841c6.326 0 12.747 0.38 18.955 0.747l0.884 0.053c0.013 0.248 0.019 0.497 0.019 0.747v0.107c0 0.73-0.045 1.463-0.088 2.177-0.036 0.608-0.072 1.238-0.083 1.856-0.011 0.539-0.012 1.078-0.013 1.616 0 0.506-0.003 1.014-0.011 1.518-0.016 1.039-0.049 2.101-0.098 3.16-0.045 0.994-0.099 1.987-0.152 2.978-0.060 1.108-0.121 2.253-0.17 3.38-0.005 0.101-0.009 0.202-0.013 0.303l-0.003 0.064c0 0.034-0.003 0.069-0.004 0.102s0 0.053-0.004 0.084l-0.003 0.073c0 0.039-0.003 0.077-0.005 0.115 0 0.018 0 0.036 0 0.053l-0.007 0.139c0 0.003 0 0.006 0 0.009s-0 0.006-0 0.009v-0l-0.006 0.168v0.015c-0.043 1.096-0.075 2.153-0.101 3.189-0.010 0.395-0.019 0.785-0.027 1.174 0 0.079 0 0.16-0.005 0.239v0.003c-1.845-0.067-3.718-0.191-5.531-0.311-1.144-0.075-2.328-0.153-3.492-0.216-1.749-0.095-3.467-0.128-5.37-0.16s-3.794-0.060-5.691-0.091q-3.046-0.053-6.092-0.121-2.51-0.053-5.018-0.101c-0.373-0.006-0.753-0.010-1.129-0.010-0.876 0-1.765 0.015-2.626 0.030l-0.32 0.005c-0.752 0.012-1.523 0.024-2.282 0.024v0c-1.192 0-2.179-0.028-3.106-0.089v0c-0.003-1.941 0.043-3.836 0.087-5.431z"></path>
</svg>
