<!-- Generated by IcoMoon.io -->
<svg version="1.1" xmlns="http://www.w3.org/2000/svg" width="64" height="64" viewBox="0 0 64 64">
<path d="M1.238 2.473c-0.2 8.486 0.249 16.987-0.159 25.467-0.178 3.728-0.286 7.452-0.436 11.181-0.095 2.369-0.501 5.518 0.884 7.612 1.498 2.264 5.163 0.147 3.654-2.135-1.069-1.616-0.315-5.121-0.25-6.976 0.127-3.663 0.266-7.318 0.442-10.98 0.386-8.041-0.095-16.119 0.096-24.169 0.065-2.73-4.166-2.724-4.231 0v0z"></path>
<path d="M17.003 18.902c1.893 13.649 0.518 27.512 0.277 41.22-0.048 2.73 4.184 2.725 4.231 0 0.247-14.123 1.523-28.283-0.428-42.344-0.374-2.693-4.45-1.543-4.080 1.124v0z"></path>
<path d="M58.886 17.635c0.493 14.512-0.14 29.033 0.353 43.545 0.078 2.297 3.699 2.994 4.156 0.562 0.123-0.655 0.123-1.175 0-1.83-0.502-2.68-4.579-1.542-4.080 1.125 0-0.14 0-0.279 0-0.42 1.385 0.188 2.771 0.375 4.156 0.562-0.493-14.512 0.14-29.033-0.353-43.545-0.093-2.72-4.325-2.729-4.232 0.001v0z"></path>
<path d="M43.976 2.088c-0.704 2.682-0.544 5.549-0.547 8.297-0.004 3.867-0.051 7.741-0.118 11.607-0.077 4.469-0.427 8.924-0.599 13.389-0.13 3.398 0.432 7.005 0.028 10.361 1.314-0.356 2.628-0.712 3.943-1.068-0.084-0.143-0.167-0.286-0.25-0.429-1.374-2.355-5.031-0.226-3.654 2.135 0.084 0.143 0.167 0.286 0.25 0.429 1.154 1.977 3.706 0.896 3.943-1.068 0.349-2.903-0.089-6.071-0.062-9.009 0.041-4.483 0.472-8.959 0.602-13.439 0.109-3.721-0.044-7.456 0.124-11.173 0.133-2.929-0.331-6.046 0.42-8.909 0.693-2.642-3.388-3.761-4.080-1.124v0z"></path>
<path d="M3.177 5.118c7.264-0.639 14.486 0.76 21.753 0.695 6.933-0.061 13.823-1.141 20.734-1.577 2.709-0.171 2.725-4.403 0-4.231-6.538 0.412-13.035 1.293-19.586 1.548-7.655 0.298-15.249-1.34-22.901-0.666-2.696 0.237-2.718 4.47 0 4.231v0z"></path>
<path d="M3.916 48.058c7.21-1.166 14.573-0.41 21.784 0.383 6.765 0.744 13.482 1.746 20.174-0.030 2.635-0.699 1.515-4.78-1.125-4.080-6.655 1.766-13.527 0.486-20.24-0.252-7.244-0.796-14.491-1.269-21.718-0.101-2.687 0.434-1.543 4.511 1.125 4.080v0z"></path>
<path d="M18.514 20.984c7.754-0.439 15.499-0.422 23.26-0.602 3.139-0.073 6.285-0.177 9.42-0.341 2.658-0.139 5.556-0.795 8.186-0.19 2.656 0.611 3.783-3.468 1.125-4.079-2.453-0.564-4.962-0.302-7.445-0.102-3.316 0.267-6.651 0.338-9.975 0.445-8.194 0.265-16.379 0.176-24.57 0.64-2.713 0.154-2.727 4.386 0 4.231v0z"></path>
<path d="M19.22 63.119c8.055 0.795 16.137 0.876 24.226 0.881 3.959 0.002 7.899-0.243 11.851-0.464 2.123-0.119 4.355 0.138 6.445-0.317 2.666-0.58 1.535-4.658-1.125-4.080-2.046 0.445-4.541 0.121-6.629 0.238-3.966 0.222-7.909 0.393-11.882 0.39-7.641-0.006-15.278-0.13-22.886-0.881-2.716-0.268-2.689 3.966 0 4.231v0z"></path>
</svg>
