<!-- Generated by IcoMoon.io -->
<svg version="1.1" xmlns="http://www.w3.org/2000/svg" width="64" height="64" viewBox="0 0 64 64">
<path d="M12.128 3.817c2.479 7.111 1.315 14.775 1.154 22.14-0.086 3.924 0.201 7.881 0.387 11.8 0.159 3.369 1.183 7.872 0.046 11.135-0.9 2.584 3.189 3.685 4.080 1.125 1.026-2.946 0.437-6.465 0.253-9.508-0.294-4.834-0.569-9.708-0.535-14.552 0.055-7.793 1.323-15.727-1.306-23.265-0.891-2.56-4.98-1.459-4.080 1.125v0z"></path>
<path d="M16.285 51.57c7.778-0.298 15.495 1.042 23.282 0.819 7.476-0.214 14.913-1.131 22.389-1.348 2.723-0.079 2.73-4.311 0-4.232-7.074 0.205-14.118 0.977-21.187 1.302-8.195 0.377-16.302-1.087-24.484-0.773-2.72 0.104-2.73 4.336 0 4.232v0z"></path>
<path d="M1.11 16.367c6.669 2.897 13.945 1.614 20.984 1.505 9.115-0.142 18.227 0.349 27.342 0.372 2.729 0.007 2.729-4.225 0-4.232-8.288-0.021-16.572-0.38-24.861-0.389-6.772-0.006-14.92 1.873-21.329-0.91-2.476-1.075-4.633 2.57-2.136 3.654v0z"></path>
<path d="M47.143 16.127c-0.179 8.017-0.367 16.137 0.308 24.137 0.54 6.378 2.597 13.662 0.473 19.914-0.88 2.591 3.208 3.694 4.080 1.125 2.057-6.054 0.578-12.977-0.127-19.148-0.983-8.59-0.695-17.4-0.503-26.027 0.061-2.732-4.171-2.725-4.232-0.001v0z"></path>
<path d="M18.31 50.068c12.74-14.277 26.585-27.526 39.146-41.967 1.782-2.049-1.198-5.055-2.992-2.992-12.561 14.441-26.406 27.69-39.146 41.967-1.811 2.029 1.172 5.033 2.992 2.992v0z"></path>
</svg>
