<!-- Generated by IcoMoon.io -->
<svg version="1.1" xmlns="http://www.w3.org/2000/svg" width="64" height="64" viewBox="0 0 64 64">
<path d="M13.96 3.701c7.297-0.002 14.594-0.003 21.891-0.005 4.806-0.001 7.297-0.2 10.682 3.476 2.841 3.085 4.311 6.133 4.475 10.286 0.293 7.391 0.197 14.816 0.295 22.213 0.052 3.92 0.104 7.84 0.156 11.76 0.065 4.934 0.873 8.18-4.784 9.021-6.764 1.006-14.403 0.085-21.239 0.118-2.606 0.013-7.554 0.87-9.916-0.218-3.827-1.764-2.93-7.677-2.926-11.006 0.009-7.407 0.195-14.817 0.301-22.223 0.047-3.28 0.094-6.559 0.14-9.839 0.034-2.393-1.031-11.727 0.898-13.479 1.564-1.421-0.758-3.732-2.317-2.317-2.389 2.17-1.709 5.387-1.752 8.417-0.082 5.739-0.164 11.479-0.246 17.218-0.070 4.919-0.141 9.839-0.211 14.758-0.077 5.453-0.984 12.075 0.195 17.464 1.236 5.653 7.54 4.48 12.414 4.516 5.719 0.042 11.443-0.059 17.162-0.091 4.556-0.025 9.875 0.795 14.229-0.521 0.531-0.16 1.018-0.584 1.144-1.144 0.858-3.8 0.218-8.098 0.166-11.98-0.069-5.227-0.139-10.453-0.208-15.679-0.092-6.924 1.606-16.714-1.212-23.204-1.534-3.533-5.689-9.473-9.497-10.631-4.116-1.252-10.13-0.189-14.389-0.188-5.151 0.001-10.301 0.002-15.452 0.003-2.108 0-2.112 3.277 0 3.276v0z"></path>
<path d="M41.281 4.571c0.275 2.952 0.416 5.907 0.425 8.872 0.002 0.669 0.503 1.449 1.203 1.58 2.83 0.53 5.863 0.167 8.728 0.105 2.105-0.045 2.113-3.322 0-3.276-2.519 0.054-5.373 0.478-7.857 0.012 0.401 0.527 0.802 1.053 1.203 1.58-0.009-2.965-0.15-5.92-0.425-8.872-0.194-2.082-3.472-2.102-3.276 0v0z"></path>
<path d="M20.95 15.276c4.004 0 8.009 0 12.013 0 2.108 0 2.112-3.276 0-3.276-4.004 0-8.009 0-12.013 0-2.108 0-2.112 3.276 0 3.276v0z"></path>
<path d="M20.622 23.466c7.718 0 15.435 0 23.153 0 2.108 0 2.112-3.276 0-3.276-7.718 0-15.435 0-23.153 0-2.108 0-2.112 3.276 0 3.276v0z"></path>
<path d="M21.168 30.674c4.15 0 8.3 0 12.45 0 2.108 0 2.112-3.276 0-3.276-4.15 0-8.3 0-12.45 0-2.108 0-2.112 3.276 0 3.276v0z"></path>
<path d="M20.95 38.537c7.428-0.052 14.853 0.039 22.277 0.274 2.109 0.067 2.107-3.21 0-3.276-7.425-0.234-14.849-0.326-22.277-0.274-2.107 0.015-2.112 3.291 0 3.276v0z"></path>
<path d="M20.515 47.028c4.364 0.337 8.727 0.45 13.102 0.336 2.104-0.054 2.113-3.331 0-3.276-4.375 0.113-8.739 0.001-13.102-0.336-2.103-0.163-2.092 3.114 0 3.276v0z"></path>
<path d="M20.295 54.481c8.045-0.046 16.090-0.093 24.135-0.139 2.108-0.012 2.112-3.288 0-3.276-8.045 0.046-16.090 0.093-24.135 0.139-2.108 0.012-2.112 3.288 0 3.276v0z"></path>
</svg>
