<!-- Generated by IcoMoon.io -->
<svg version="1.1" xmlns="http://www.w3.org/2000/svg" width="64" height="64" viewBox="0 0 64 64">
<path d="M39.317 23.525c-4.61-3.316-10.919-2.346-14.882 1.537-1.86 1.779 0.971 4.691 2.831 2.831 5.257-5.095 14.477-0.647 12.455 6.875-2.184 8.25-15.367 6.066-13.911-2.831 0.404-2.507-3.478-3.64-3.882-1.051-0.89 5.742 1.941 11.323 7.845 12.86 5.257 1.375 11.161-1.456 13.345-6.389 2.184-4.772 0.485-10.838-3.801-13.83z"></path>
<path d="M63.742 29.753c-0.485-1.698-1.86-2.75-3.235-3.72-2.912-2.022-6.066-3.882-9.058-5.823-2.184-1.375-4.206 2.103-2.022 3.478 1.698 1.051 3.397 2.184 5.095 3.235 0.89 0.566 2.831 1.375 4.044 2.265-4.044 0.404-8.007 0.485-12.051 0.162-2.588-0.162-2.588 3.882 0 4.044 4.206 0.324 8.331 0.243 12.455-0.243-1.456 2.022-4.367 4.125-5.257 5.338-1.537 2.103 2.022 4.125 3.478 2.022 2.346-3.154 8.088-5.581 6.551-10.757z"></path>
<path d="M18.935 32.745c-4.206 0.243-8.331 0.162-12.536-0.243 0.89-0.971 1.698-1.86 2.588-2.831 1.779-1.941-1.051-4.772-2.831-2.831-1.941 2.103-6.389 5.338-6.147 8.573 0.162 1.698 1.375 2.669 2.588 3.72 1.698 1.537 3.478 2.992 5.176 4.448 1.941 1.698 4.853-1.132 2.831-2.831-0.97-0.89-2.022-1.698-2.992-2.588-0.485-0.404-1.537-1.051-2.265-1.698 4.529 0.485 9.058 0.647 13.588 0.324 2.588-0.162 2.588-4.206 0-4.044z"></path>
</svg>
