<!-- Generated by IcoMoon.io -->
<svg version="1.1" xmlns="http://www.w3.org/2000/svg" width="64" height="64" viewBox="0 0 64 64">
<path d="M29.448 1.548c-3.523 7.916-8.154 15.268-11.756 23.144-2.79 6.1-6.306 12.648-6.251 19.506 0.086 10.908 10.694 18.668 20.808 19.696 13.194 1.34 20.061-10.224 20.307-22.272 0.14-6.878-5.034-14.256-8.113-20.093-2.167-4.105-4.67-8.027-6.806-12.147-1.537-2.967-2.116-6.142-4.445-8.67-1.983-2.152-5.176 1.058-3.201 3.201 1.735 1.884 2.306 4.536 3.322 6.823 1.245 2.798 2.912 5.416 4.433 8.071 3.286 5.743 6.729 11.73 9.151 17.901 2.516 6.412 0.298 13.277-3.299 18.797-2.425 3.722-7.55 4.392-11.574 3.823-9.943-1.406-18.058-9.501-15.505-19.918 1.437-5.867 4.754-12.008 7.461-17.366 3.082-6.1 6.596-11.961 9.379-18.212 1.176-2.642-2.724-4.948-3.91-2.284v0z"></path>
<path d="M31.368 56.568c8.057 1.161 15.77-6.557 14.105-14.671-0.586-2.859-4.951-1.647-4.366 1.204 0.917 4.468-3.958 9.761-8.535 9.101-2.854-0.412-4.084 3.95-1.204 4.366v0z"></path>
</svg>
