<!-- Generated by IcoMoon.io -->
<svg version="1.1" xmlns="http://www.w3.org/2000/svg" width="64" height="64" viewBox="0 0 64 64">
<path d="M49.563 16.745c-1.563-1.563-3.127-3.127-4.69-4.69-0.071-0.142-0.284-0.355-0.569-0.497-3.695-2.132-6.325 0.711-8.67 3.127-3.624 3.553-7.249 7.178-10.873 10.802-3.767 3.767-7.604 7.604-11.371 11.371-1.563 1.563-5.756 4.406-4.051 6.965 0.924 1.421 2.629 2.629 3.767 3.767 1.706 1.706 3.411 3.553 5.259 5.259 2.843 2.558 5.614 0.924 7.888-1.35 7.32-7.32 14.569-14.569 21.889-21.889 1.563-1.563 6.68-5.188 5.97-7.959-0.497-1.777-3.269-3.624-4.548-4.904zM46.65 25.628c-1.777 1.777-3.553 3.553-5.33 5.33-4.477 4.477-9.026 9.025-13.503 13.503-1.706 1.706-3.411 3.411-5.188 5.188-0.142 0.142-0.284 0.284-0.426 0.426-1.066-0.995-2.345-2.487-3.127-3.34-1.137-1.137-4.406-3.411-4.975-4.975 0.071-0.071 0.142-0.142 0.284-0.355 0.284-0.569 1.066-1.066 1.492-1.492 1.777-1.777 3.553-3.553 5.401-5.401 4.477-4.477 9.026-9.026 13.503-13.503 1.848-1.848 3.838-4.406 5.97-6.183 1.279 1.279 2.558 2.558 3.838 3.838 0.64 0.64 4.477 3.482 4.406 4.69-0.071 0.569-1.919 1.848-2.345 2.274z"></path>
<path d="M57.594 2.531c-0.071-0.071-0.142-0.142-0.213-0.213s-0.071-0.071-0.142-0.142c-2.701-2.203-6.609-1.421-9.026 0.853-1.35 1.279-3.553 3.056-2.132 4.975 2.203 2.914 5.401 5.401 7.959 7.96 1.635 1.635 3.553 2.203 5.685 0.924 1.563-0.924 3.482-2.843 4.051-4.548 1.35-4.051-3.767-7.391-6.183-9.807zM58.589 12.623c-0.071 0.213-0.213 0.426-0.355 0.569-0.213-0.213-0.426-0.426-0.64-0.64-1.35-1.35-2.701-2.701-4.051-4.051-0.782-0.782-2.061-1.635-2.629-2.629 0 0 0 0-0.071-0.071 0.071-0.142 0.213-0.284 0.355-0.426 0.284-0.284 0.569-0.782 0.924-0.924 0.426-0.213 0.426-0.213 0.711 0.071 0 0 0 0 0.071 0.071 1.492 1.492 3.056 3.056 4.548 4.548 0.853 1.066 1.777 1.99 1.137 3.482z"></path>
<path d="M15.238 54.197c-1.563-1.563-3.056-3.056-4.619-4.619-0.853-0.853-1.848-2.203-3.056-2.558-2.203-0.64-4.69 0.64-5.33 2.772-0.995 3.269-1.421 6.822-2.132 10.234-0.071 0.142-0.142 0.355-0.071 0.497-0.071 0.355 0 0.64 0.142 0.853 0.995 3.269 6.822 1.066 9.239 0.569 2.132-0.426 10.234-1.137 8.386-5.046-0.569-1.066-1.706-1.848-2.558-2.701zM8.771 58.675c-1.137 0.213-2.274 0.497-3.411 0.711 0.355-1.563 0.64-3.198 0.995-4.761 0.142-0.711 0.284-1.421 0.426-2.132 1.99 1.848 4.406 4.264 5.401 5.543-1.137 0.213-2.274 0.426-3.411 0.64z"></path>
</svg>
