<!-- Generated by IcoMoon.io -->
<svg version="1.1" xmlns="http://www.w3.org/2000/svg" width="64" height="64" viewBox="0 0 64 64">
<path d="M34.932 26.912c-3.831-2.119-9.248 0.518-9.929 4.877-0.655 4.201 3.11 8.264 7.329 7.622 3.008-0.458 5.204-3.866 5.81-6.594 0.793-3.568-1.101-6.569-4.799-6.932-2.807-0.276-2.78 4.099 0 4.373 0.009 0.001 0.32 0.084 0.375 0.113 0.267 0.14-0.058-0.224 0.208 0.261-0.233-0.426-0.005 0.057 0.024 0.169 0.15 0.584-0.015-0.435 0.015 0.189 0.010 0.205-0.007 0.41-0.022 0.614 0.036-0.465-0.055 0.22-0.065 0.264-0.309 1.389-1.174 2.639-2.293 3.229 0.432-0.228-0.797 0.117-0.222 0.066-0.090 0.008-0.677-0.071-0.21 0.015-0.043-0.008-0.622-0.238-0.278-0.073-0.634-0.305-1.503-1.216-1.594-2.1-0.165-1.587 2.081-3.070 3.444-2.316 2.469 1.365 4.674-2.412 2.208-3.777v0z"></path>
<path d="M26.594 28.911c-0.004 0.009-0.009 0.019-0.014 0.028-0.716 1.487 0.141 3.249 1.888 3.29 1.328 0.031 2.868-0.972 4.032-1.541-0.998-0.997-1.995-1.994-2.992-2.991-0.77 1.241-1.658 2.402-2.429 3.644-1.095 1.766 1.19 4.342 2.991 2.991 0.882-0.661 1.762-1.323 2.673-1.944-0.998-0.997-1.995-1.994-2.992-2.991-0.801 1.060-1.628 2.099-2.43 3.158-1.122 1.483 0.75 3.907 2.47 3.212 2.789-1.128 5.108-3.146 5.9-6.143-1.218 0.321-2.436 0.644-3.654 0.965-0.406-0.477-0.102-0.045-0.088 0.071 0.057 0.48 0.031 0.969-0.006 1.45-0.050 0.674-0.334 1.42-0.635 1.703-0.289 0.271-0.96 0.39-0.289 0.34 1.004 0.203 1.542 0.692 1.616 1.469 0.012 0.606 0.134-0.152-0.022 0.181 0.337-0.719 1.049-1.131 1.83-1.471-0.883-1.144-1.766-2.289-2.649-3.433-1.006 0.861-1.489 1.947-2.043 3.114-1.2 2.533 2.568 4.754 3.777 2.207 0.388-0.82 0.654-1.627 1.358-2.23 0.739-0.632 0.81-1.851 0.343-2.649-0.654-1.117-1.898-1.26-2.991-0.784-1.767 0.77-3.481 2.361-3.879 4.32-0.47 2.307 1.458 4.266 3.781 3.45 3.958-1.39 5.749-7.578 2.99-10.829-1.082-1.275-3.258-0.534-3.654 0.965-0.375 1.42-1.485 2.538-2.846 3.089 0.824 1.071 1.646 2.141 2.47 3.212 0.801-1.060 1.628-2.099 2.43-3.158 1.328-1.756-1.243-4.183-2.992-2.991-0.91 0.62-1.791 1.283-2.672 1.944 0.996 0.997 1.994 1.994 2.991 2.991 0.77-1.242 1.658-2.403 2.429-3.644 1.231-1.985-1.127-3.902-2.992-2.991-0.447 0.219-0.901 0.422-1.356 0.625 0.076-0.034-0.745 0.321-0.429 0.189-0.369 0.153-0.811 0.113-0.041 0.13 0.629 1.097 1.259 2.194 1.888 3.29 0.005-0.009 0.009-0.019 0.015-0.028 1.216-2.528-2.554-4.747-3.778-2.208v0z"></path>
<path d="M23.083 28.689c5.083-10.188 21.304-4.593 17.338 6.659-1.714 4.863-6.653 6.432-11.205 4.827-5.094-1.797-6.757-7.246-5.184-12.009 0.888-2.685-3.336-3.826-4.216-1.162-2.256 6.829 0.577 13.839 7.137 16.929 6.625 3.121 13.984 0.378 17.147-6.136 7.772-16.004-17.146-26.642-24.793-11.315-1.254 2.515 2.517 4.731 3.777 2.207v0z"></path>
<path d="M4.134 32.819c8.327-12.946 25.334-22.732 39.795-13.312 2.37 1.544 4.559-2.243 2.206-3.776-16.527-10.765-36.202-0.007-45.778 14.881-1.53 2.379 2.256 4.57 3.777 2.207v0z"></path>
<path d="M17.736 43.173c-5.621-2.837-10.253-6.618-13.116-12.319-1.266-2.52-5.038-0.305-3.777 2.207 3.17 6.309 8.457 10.744 14.685 13.887 2.511 1.267 4.726-2.505 2.208-3.775v0z"></path>
<path d="M43.935 19.734c3.399 1.406 5.837 4.003 8.7 6.212 1.998 1.542 3.544 3.157 5.055 5.172 0.553 0.737 1.705 1.012 2.188 1.693 0.629-1.097 1.259-2.194 1.888-3.29-0.081 0.002-0.163 0.005-0.244 0.008-2.812 0.092-2.821 4.465 0 4.373 0.081-0.003 0.163-0.005 0.244-0.008 1.526-0.050 2.897-1.869 1.888-3.29-0.66-0.93-1.576-1.524-2.507-2.166-0.731-0.504-1.342-1.743-1.867-2.442-0.819-1.092-1.982-1.912-3.045-2.751-3.656-2.882-6.785-5.927-11.138-7.729-2.606-1.079-3.73 3.154-1.163 4.217v0z"></path>
<path d="M16.726 47.671c4.486 1.294 8.147 3.928 12.892 4.704 4.731 0.774 9.404-0.277 13.77-2.086 7.838-3.246 15.696-10.191 20.022-17.469 1.443-2.43-2.337-4.629-3.777-2.207-3.749 6.31-10.348 11.922-16.867 15.194-4.107 2.061-8.709 2.888-13.247 2.146-4.234-0.692-7.605-3.336-11.632-4.497-2.716-0.784-3.866 3.436-1.162 4.215v0z"></path>
<path d="M29.566 32.257c-1.059 0.553-1.713 1.417-1.812 2.616-0.099 1.189 1.070 2.186 2.186 2.186 1.267 0 2.087-0.999 2.186-2.186 0.001-0.020 0.004-0.041 0.005-0.060-0.026 0.194-0.052 0.387-0.078 0.581 0.008-0.043 0.021-0.083 0.041-0.122-0.074 0.174-0.146 0.348-0.22 0.522 0.166-0.284-0.413 0.452-0.139 0.2-0.506 0.467-0.166 0.144 0.038 0.038 1.056-0.551 1.365-2.001 0.785-2.991-0.625-1.063-1.936-1.335-2.992-0.783v0z"></path>
</svg>
