<!-- Generated by IcoMoon.io -->
<svg version="1.1" xmlns="http://www.w3.org/2000/svg" width="64" height="64" viewBox="0 0 64 64">
<path d="M11.036 8.050c0 0 0-0.093 0.093-0.093 0.926-0.093 2.038 0.093 2.964 0.093 1.204 0 2.408-0.093 3.705-0.093 1.667 0 3.334-0.093 4.909 0.093 0.278 0 0.556 0.185 0.926 0.185 0.37 0.093 0.741 0.093 1.019 0.093 0 0 0 0.093 0.093 0.093 0.278 0 0.648 0.093 0.926 0.185 0 0 0.278 0.093 0.37 0.093 0 0 0 0.093 0 0.093 0.093 0.093 0.278 0 0.37 0.093 0.093 0 0.093 0.185 0.093 0.185 0.093 0.093 0.278 0 0.37 0.093s0.278 0.37 0.463 0.556c0.093 0.093 0.278 0 0.37 0.093s0.37 0.37 0.556 0.556c0.278 0.278 0.648 0.463 0.741 0.648 0 0 0 0.185 0 0.185 0.185 0.093 0.185 0.185 0.37 0.463 0.185 0.37 0.278 0.648 0.556 1.019 0.093 0.093 0.185 0.185 0.185 0.185s0 0.185 0 0.185c0 0 0.185 0.093 0.185 0.093 0.093 0.185 0.278 0.463 0.37 0.648 0.093 0.093 0.185 0.278 0.185 0.463 0 0.093 0.185 0.278 0.37 0.463 0.185 0.278 0.463 0.556 0.741 0.741 0 0 0.185 0.185 0.185 0.185 0.278 0.093 0.834 0.093 1.297 0.093s0.926 0.093 1.297 0.093c1.945 0.185 3.334 0.185 5.187 0.37 0.278 0 0.37 0.093 0.648 0.093 0.556 0 1.297 0 1.852 0.093 0.278 0 0.556 0 0.741 0 0 0 0 0.093 0.093 0.093 0 0 0.278 0 0.37 0 0.093 0.185 0.926 0.185 1.297 0.185 1.667 0.185 3.52 0.185 5.372 0.185 0.741 0 1.667 0.185 2.408 0 0.278-0.093 0.556-0.093 0.926 0.093 0 0 0.093 0.093 0.093 0.093 0.556 0.185 1.297 0.093 2.038 0.185 0 0 0 0.093 0.093 0.093 0.278 0 0.37 0.093 0.648 0.093 0.648 0.093 1.389 0 2.038 0 0.463 0 0.834 0.093 1.482 0.093 0.093 0 0.185 0 0.185 0 0.093 0 0.278 0.093 0.648 0.093 0.093 0 0.185 0 0.185 0 0.093 0 0.093 0.093 0.093 0.093 0.185 0.093 0.556 0.093 0.741 0.185 0.093 0 0 0.093 0.093 0.093 0.185 0 0.093 0.093 0.185 0.093 0.556 0.278 1.019 0.741 1.111 1.667 0 0.278-0.093 0.648 0 1.019 0.278 1.204 0.278 2.871 0.463 4.075 0.185 1.667 0.371 3.52 0.185 5.465 0 0.463-0.093 1.019-0.093 1.575 0 0.185 0 0.278 0 0.463 0 0.37-0.185 0.834-0.185 1.482 0 0.093 0 0.185 0 0.185s-0.093 0.185-0.093 0.093c0 0.185 0.093 0.463 0.093 0.648 0 0.463-0.185 1.019-0.185 1.482-0.093 1.019 0 1.852-0.093 2.871 0 0 0 0.185 0 0.185s-0.093 0-0.093 0c-0.093 0.834-0.185 1.667-0.093 2.686 0 0.185 0 0.37 0 0.556 0.185 1.297 0 3.89-0.093 5.465 0 0.278 0.093 0.741 0 1.019 0 0-0.093 0-0.093 0.093 0 0 0 0.093 0 0.093-0.093 0.185-0.185 0.648-0.37 1.019 0 0.093-0.093 0-0.093 0.093 0 0 0 0.093 0 0.093-0.093 0.093-0.093 0.278-0.185 0.556 0 0.093-0.093 0.185-0.093 0.185s-0.093 0.093-0.093 0.093c-0.093 0.278-0.093 0.556-0.185 0.741-0.093 0.093-0.278 0.185-0.37 0.37-0.093 0.093-0.185 0.185-0.185 0.37 0 0.093-0.185 0.278-0.37 0.463-0.093 0.093-0.093 0.185-0.185 0.37-0.556 0.648-1.019 1.019-1.575 1.297-0.093 0-0.463 0.37-0.648 0.37-0.093 0-0.278 0.093-0.463 0.185 0 0-0.093 0.093-0.093 0.093-0.37 0.093-0.926 0-1.575 0.093-0.37 0.093-0.741 0.278-1.204 0.37s-1.204 0-1.852 0c-0.648 0-1.204-0.093-1.667-0.093-0.278 0-0.463 0.093-0.648 0.093-0.648 0.093-1.482 0.093-2.223 0.093s-1.482 0.093-2.316 0c-0.37 0-1.111-0.278-1.76-0.093-0.093 0-0.093 0.093-0.185 0.093-1.204 0-2.779-0.278-4.075-0.37-3.612-0.185-7.317-0.37-11.485-0.648-1.019-0.093-2.038-0.093-2.964-0.093s-1.852-0.093-2.779-0.185c-3.52-0.37-7.873-0.185-11.485-0.648 0 0-0.093-0.093-0.093-0.093-0.37-0.093-0.834-0.093-1.204-0.093-0.556-0.093-1.019-0.278-1.575-0.37-0.278 0-0.556-0.093-0.926-0.185s-0.741-0.185-1.111-0.37c-0.093 0 0-0.093-0.093-0.093-0.185 0-0.278-0.185-0.463-0.185s-0.185-0.185-0.185-0.185c-0.093 0-0.185 0-0.185 0s-0.093-0.185-0.093-0.185c-0.093 0-0.185 0-0.185 0-0.093-0.093-0.093-0.278-0.185-0.37 0 0-0.185 0-0.185 0-0.278-0.37-0.648-0.741-1.019-1.111-0.185-0.185-0.37-0.463-0.556-0.648-0.093-0.093-0.278-0.093-0.37-0.185 0 0 0-0.185 0-0.185s-0.185-0.093-0.185-0.093c0 0 0-0.185 0-0.185-0.185-0.185-0.278-0.278-0.463-0.556 0-0.093-0.093 0-0.093-0.093 0-0.185-0.185-0.185-0.185-0.37 0-0.093-0.278-0.463-0.37-0.648 0-0.093 0-0.185 0-0.185 0-0.093-0.185-0.185-0.185-0.185s0-0.185 0-0.185c-0.093-0.093-0.093-0.093-0.093-0.185s-0.093-0.185-0.093-0.37c0-0.093-0.093-0.093-0.093-0.093-0.093-0.185-0.093-0.463-0.093-0.648 0 0-0.093 0-0.093-0.093-0.093-0.278-0.093-0.556-0.185-0.926 0 0 0-0.185 0-0.185-0.185-0.185 0.093-0.556-0.093-0.648s-0.093-0.185-0.093-0.463c0-0.093-0.093-0.093-0.093-0.185-0.093-0.741 0.093-1.389 0-2.223 0-0.185-0.093-0.37-0.093-0.556 0-0.278 0.093-0.37 0.093-0.648 0-0.185-0.093-0.37-0.093-0.556 0-0.834 0-1.76 0-2.779 0-0.463-0.093-0.926-0.093-1.297 0-0.185 0.093-0.463 0.093-0.648 0-0.37 0-0.834 0-1.297-0.093-0.834-0.093-2.223-0.185-3.334-0.093-0.834-0.093-1.76-0.185-2.593s-0.278-1.667-0.37-2.408c0-0.463-0.093-0.926-0.093-1.297-0.093-0.834-0.185-1.389 0-2.223 0 0 0.093 0 0.093-0.093 0-0.37 0.278-0.834 0.093-1.482 0-0.093-0.185-0.463-0.093-0.926 0-0.093 0.093-0.093 0.093-0.093 0.093-0.278 0.093-0.556 0.185-0.741 0-0.093 0.185-0.185 0.185-0.185 0.093-0.093 0-0.185 0.093-0.37 0-0.093 0.185-0.185 0.185-0.185 0.093-0.093 0-0.185 0.093-0.37s0.278-0.278 0.463-0.463c0.093-0.093 0-0.278 0.093-0.37 0.093-0.185 0.463-0.37 0.648-0.648s0.37-0.556 0.556-0.741c0.278-0.278 0.463-0.834 0.741-1.204 0 0 0.093-0.093 0.093-0.093 0.093-0.185 0-0.278 0.093-0.463 0 0 0.185-0.093 0.185-0.093 0-0.093 0-0.185 0-0.185s0.185-0.093 0.185-0.093c0-0.093 0-0.185 0-0.185s0.185-0.093 0.185-0.093c0-0.093 0-0.185 0-0.185s0.185-0.093 0.185-0.093c0-0.093 0-0.185 0-0.185 0.093-0.093 0.278-0.185 0.37-0.37 0.185-0.185 0.278-0.37 0.463-0.648 0.093-0.093 0.093 0 0.093-0.093 0-0.185 0.185-0.185 0.185-0.37s0.185-0.185 0.185-0.37c0-0.185 0.185-0.185 0.185-0.37s0.278-0.278 0.37-0.37c0 0 0.093-0.093 0.093-0.093 0.093-0.093 0.37-0.093 0.556-0.185 0.093 0 0.185-0.185 0.185-0.185s0.185 0 0.185 0c0.093-0.093 0.278-0.185 0.556-0.37 0 0 0.185 0 0.185 0s0-0.093 0-0.093c0 0 0.185 0 0.185 0 0.185-0.185 0.834-0.278 1.297-0.37s0.834-0.185 1.204-0.185c0.093 0 0.185 0 0.278 0zM54.476 23.981c0 0 0 0.093 0 0.093s-0.185 0-0.185 0-0.278 0-0.37-0.093c-0.185-0.278-1.204 0.093-1.204 0.093-0.278 0-0.556 0-0.741 0-0.648 0-1.297-0.093-2.038-0.093-0.37 0-0.648-0.093-1.019-0.093-0.648-0.093-1.019-0.093-1.482 0s-1.111 0-1.482 0c-0.093 0-0.093-0.093-0.093-0.093-0.741-0.093-1.389-0.093-1.852-0.093-0.093 0-0.093-0.093-0.093-0.093-1.389-0.185-2.779-0.093-4.075-0.185 0 0-0.093-0.093-0.093-0.093-0.093 0-0.278 0-0.37 0-0.648 0-1.019-0.093-1.575-0.093-1.111 0-2.408-0.093-3.242-0.093-0.093 0-0.093-0.093-0.093-0.093-0.463-0.093-0.926-0.093-1.297-0.093-0.37-0.093-0.741-0.185-1.111-0.185-0.37-0.093-0.834-0.093-1.204-0.185 0 0 0-0.093-0.093-0.093-0.185 0-0.278-0.093-0.37-0.093-0.185 0-0.185 0-0.37-0.093-0.093-0.093-0.185-0.093-0.185-0.093-0.093 0-0.185-0.185-0.185-0.185s-0.185-0.093-0.185-0.093c-0.093 0-0.093-0.093-0.093-0.093-0.185-0.093-0.463-0.185-0.648-0.37-0.278-0.093-0.278-0.185-0.463-0.37 0 0-0.185 0-0.185 0-0.093-0.093-0.185-0.185-0.37-0.37s-0.648-0.648-0.648-0.741c0-0.093-0.093-0.093-0.093-0.093-0.185-0.278-0.556-0.556-0.648-0.741-0.093-0.093-0.185-0.093-0.185-0.185-0.093-0.185-0.093-0.278-0.185-0.463 0-0.093-0.185-0.093-0.185-0.093-0.093-0.093-0.093-0.278-0.093-0.37 0 0-0.093 0-0.093 0s0-0.185 0-0.185c0 0-0.093 0-0.093 0s0-0.185 0-0.185c0 0-0.093 0-0.093 0s0-0.185 0-0.185c0 0-0.093 0-0.093 0s0-0.185 0-0.185c-0.093-0.093-0.185-0.093-0.185-0.185s-0.185-0.278-0.185-0.37c-0.093-0.185-0.278-0.37-0.37-0.556 0-0.093-0.093-0.093-0.093-0.093-0.185-0.278-0.278-0.463-0.37-0.556 0 0 0-0.185 0-0.185-0.093-0.093-0.185-0.093-0.185-0.185 0-0.185-0.37-0.37-0.463-0.37s-0.093-0.093-0.093-0.093c-0.278-0.093-0.37-0.093-0.648-0.093-0.185 0-0.278-0.093-0.37-0.093-0.278 0-0.926 0-1.111 0s-0.278-0.093-0.37-0.093c-2.038-0.093-4.539-0.093-6.298 0-0.463 0-1.019 0.093-1.482 0.093-0.556 0-1.111-0.185-1.575-0.093-0.185 0-0.185 0.093-0.37 0.093s-0.278 0-0.463 0c-0.093 0-0.093 0.093-0.093 0.093-0.556 0.093-0.648 0.185-1.019 0.463-0.278 0.278-0.463 0.463-0.648 0.648-0.093 0.093-0.093 0.185-0.093 0.185-0.093 0.093-0.185 0.185-0.185 0.185-0.185 0.278-0.185 0.648-0.37 1.019s-0.463 0.926-0.556 1.111c-0.185 0.278-0.278 0.37-0.463 0.556s-0.37 0.463-0.556 0.648c-0.185 0.185-0.463 0.37-0.463 0.556s-0.463 0.556-0.463 0.556c0 0 0 0.278 0 0.37s-0.093 0.093-0.093 0.093c-0.093 0.648 0 1.297 0.093 1.852s0.278 1.111 0.37 1.667c0.093 0.741 0 1.575 0.093 2.316 0.093 0.463 0.278 1.019 0.37 1.297 0 0.185 0.093 0.37 0.093 0.463 0 0.37-0.093 0.648-0.093 0.741 0 0.278 0.093 0.556 0.093 0.926 0 0.463 0.093 0.926 0.093 1.297 0 0.185 0.093 0.37 0.093 0.463 0 0.556-0.093 1.297 0 1.852 0 0.278 0.185 0.834 0.185 1.019 0 0.093 0 0.185 0 0.185 0.093 1.482-0.37 3.427-0.093 4.816 0.185 0.741 0.093 1.667 0.093 2.593 0 0.741 0.093 1.945 0.185 2.316 0.093 0.185 0 0.278 0.093 0.37 0 0 0 0.185 0 0.185 0 0.185 0 0.278 0.093 0.37s0 0.37 0 0.463c0.093 0.37 0.185 0.556 0.185 0.648 0.093 0.185 0.185 0.37 0.185 0.463 0 0.185 0.185 0.185 0.185 0.37s0.278 0.278 0.37 0.37c0 0 0 0.185 0 0.185 0.093 0.185 0.37 0.185 0.37 0.37 0 0.278 0.463 0.463 0.556 0.556 0.185 0.185 0.278 0.278 0.37 0.37 0.093 0 0.278 0 0.37 0 0.185 0 0.185 0.093 0.37 0.093 0.556 0.093 1.019 0.093 1.575 0.093 2.871 0.185 6.669 0 9.355 0.37 1.297 0.185 2.316 0.093 3.705 0.093 1.667 0 3.705 0.185 5.094 0.37 1.204 0.185 2.593 0.093 3.705 0.093 0.37 0 0.463 0.093 0.556 0.093 1.667 0.093 3.149 0.093 4.631 0.185 0.834 0.093 1.575 0.185 2.316 0.185 1.297 0.093 2.964 0 4.261 0 0.463 0 0.926 0.093 1.297 0.093 0.185 0 0.556-0.093 0.741-0.093 0.556 0 0.926-0.093 1.204-0.093 0.463-0.093 0.926 0 1.297 0 1.111 0 3.427 0.185 3.705-0.093 0 0 0.185 0 0.185 0 0.185-0.093 0.37-0.278 0.463-0.37 0 0 0.185 0 0.185 0 0.463-0.185 0.926-0.556 1.111-0.648 0.37-0.37 0.556-1.019 0.926-1.76 0.185 0 0.093-0.278 0.093-0.463 0.093-2.13 0.093-4.446 0.185-6.484 0.093-0.741 0.185-1.482 0.185-2.223 0-0.834 0-1.575 0.093-2.316 0.185-1.852 0.37-3.89 0.556-5.557 0-0.37 0.093-0.741 0.093-1.111 0-0.185-0.093-0.37-0.093-0.556-0.093-0.834 0-1.482-0.093-2.13-0.093-0.37-0.185-0.834-0.185-1.204-0.093-0.37 0-0.648-0.093-0.741s0-0.463-0.093-0.556c-1.111-0.741-1.945-0.834-2.871-0.834z"></path>
</svg>
