<!-- Generated by IcoMoon.io -->
<svg version="1.1" xmlns="http://www.w3.org/2000/svg" width="64" height="64" viewBox="0 0 64 64">
<path d="M8.467 39.646c2.018 3.379 4.68 6.169 7.839 8.272l0.093 0.059c1.695 1.149 3.635 2.18 5.684 2.996l0.206 0.072c1.756 0.719 3.825 1.324 5.967 1.715l0.196 0.030c1.13 0.22 2.524 0.405 3.94 0.514l0.131 0.008c0.058 0.78 0.072 1.561 0.072 2.343-0.554 0-1.108 0.006-1.662 0.017-3.192 0.061-6.389 0.357-9.573-0.008-0.524-0.076-1.045-0.172-1.562-0.293-0.118-0.029-0.253-0.046-0.392-0.046-0 0-0 0-0 0v0c-0.010-0-0.022-0-0.034-0-0.716 0-1.321 0.479-1.51 1.135l-0.003 0.011c-0.032 0.12-0.051 0.258-0.051 0.4 0 0.252 0.058 0.49 0.162 0.702l-0.004-0.009c-0.029 0.108-0.047 0.233-0.050 0.361v0.002c-0.009 1.026-0.2 2.144 0.171 3.129 0.196 0.549 0.522 1.011 0.943 1.364l0.005 0.004c0.233 0.193 0.493 0.368 0.771 0.515l0.025 0.012c0.341 0.171 0.746 0.333 1.166 0.46l0.057 0.015c0.588 0.179 1.285 0.323 2.001 0.403l0.054 0.005c0.668 0.088 1.455 0.146 2.252 0.16l0.019 0c1.553 0.033 3.109-0.083 4.659-0.164 1.541-0.080 3.079-0.070 4.622-0.053 1.757 0.016 3.515 0.048 5.271 0.074 3.615 0.051 7.232 0.067 10.843-0.12 0.434-0.006 0.826-0.181 1.114-0.462l-0 0c0.174-0.177 0.306-0.396 0.381-0.64l0.003-0.011c0.354-0.29 0.581-0.724 0.591-1.212v-0.002c0.008-0.491 0.053-0.979 0.074-1.471 0.006-0.115 0.009-0.25 0.009-0.386 0-0.577-0.062-1.14-0.179-1.683l0.009 0.052c-0.172-0.749-0.605-1.376-1.197-1.794l-0.009-0.006c-0.489-0.298-1.076-0.485-1.704-0.511l-0.007-0c-0.357-0.023-0.775-0.035-1.195-0.035-0.646 0-1.285 0.030-1.915 0.089l0.081-0.006c-0.8 0.037-1.607 0.006-2.407 0.006h-8.678c0-0.744-0.011-1.486-0.061-2.227 0.213 0 0.424 0 0.635 0 1.299-0.015 2.598-0.1 3.891-0.227 1.253-0.122 2.494-0.32 3.74-0.5 0.39-0.048 0.781-0.092 1.169-0.149 0.366-0.059 0.694-0.166 0.997-0.316l-0.020 0.009c0.439-0.246 0.767-0.645 0.915-1.122l0.004-0.014c0.056-0.199 0.088-0.427 0.088-0.663 0-0.215-0.027-0.424-0.077-0.623l0.004 0.017c-0.097-0.425-0.231-0.799-0.405-1.15l0.013 0.030c-0.248-0.607-0.545-1.131-0.897-1.61l0.014 0.021c-0.566-0.777-1.232-1.47-1.867-2.19q0.783-0.258 1.547-0.572c1.787-0.737 3.327-1.61 4.74-2.647l-0.062 0.043c1.399-1.028 2.618-2.17 3.688-3.442l0.026-0.032c2.034-2.42 3.526-5.365 4.248-8.6l0.025-0.136c0.272-1.231 0.428-2.645 0.428-4.096 0-2.002-0.297-3.935-0.85-5.757l0.037 0.14c-1.012-3.225-2.681-5.993-4.861-8.266l0.007 0.007c-0.17-0.181-0.387-0.317-0.63-0.389l-0.010-0.003c-0.978-0.926-2.067-1.753-3.24-2.456l-0.085-0.047c-1.323-0.783-2.852-1.439-4.466-1.888l-0.135-0.032c-1.653-0.468-3.552-0.737-5.514-0.737-0.039 0-0.079 0-0.118 0h0.006c-1.563 0.005-3.091 0.145-4.575 0.408l0.16-0.024c-1.14 0.199-2.121 0.444-3.074 0.75l0.161-0.045c-0.481-1.47-0.949-2.652-1.474-3.803l0.094 0.23c-0.384-0.801-0.828-1.491-1.347-2.117l0.014 0.017c-0.504-0.604-1.167-1.058-1.925-1.3l-0.029-0.008c-0.286-0.091-0.616-0.144-0.957-0.144-0.016 0-0.032 0-0.048 0h0.002c-1.18 0.008-2.288 0.315-3.251 0.849l0.035-0.018c-1.539 0.782-2.865 1.673-4.070 2.703l0.028-0.023c-2.342 1.865-4.393 3.932-6.184 6.213l-0.061 0.081c-1.072 1.361-2.090 2.887-2.985 4.492l-0.090 0.177c-0.778 1.406-1.514 3.060-2.11 4.78l-0.069 0.228c-0.503 1.424-0.914 3.106-1.16 4.842l-0.017 0.143c-0.171 1.121-0.269 2.414-0.269 3.73 0 0.527 0.016 1.050 0.047 1.569l-0.003-0.071c0.237 3.69 1.304 7.085 3.013 10.064l-0.060-0.113zM49.847 58.775c0.012 0.016 0.025 0.032 0.036 0.049-0.014-0.016-0.026-0.033-0.038-0.049zM43.495 58.807c0.348 0 0.698 0.005 1.047 0.008s0.699 0.008 1.048 0.008c0.596 0 1.081-0.012 1.527-0.037l0.385-0.022c0.468-0.027 0.952-0.053 1.426-0.053 0.272 0 0.52 0.008 0.755 0.027l0.053 0.013c0.014 0.053 0.028 0.111 0.039 0.167 0.010 0.189 0.016 0.411 0.016 0.635 0 0.34-0.013 0.677-0.039 1.010l0.003-0.044-0.010 0.114c-1.707 0.072-3.566 0.107-5.677 0.107-2.050 0-4.133-0.032-6.148-0.062q-1.010-0.017-2.019-0.030c-1.387-0.018-2.602-0.028-3.712-0.028-0.912 0-1.838 0.051-2.734 0.1l-0.172 0.010h-0.053c-1.092 0.059-2.22 0.122-3.33 0.122-0.032 0-0.071 0-0.109 0-0.843 0-1.675-0.047-2.494-0.139l0.101 0.009c-0.745-0.113-1.409-0.284-2.044-0.514l0.074 0.023c-0.115-0.056-0.226-0.118-0.337-0.186l-0.030-0.030c-0.011-0.042-0.021-0.084-0.032-0.127-0.006-0.131-0.010-0.284-0.010-0.439 0-0.225 0.008-0.449 0.023-0.67l-0.002 0.030v-0.034c1.115 0.14 2.406 0.22 3.715 0.22 0.083 0 0.165-0 0.247-0.001l-0.013 0c0.541 0 1.127-0.008 1.794-0.028 0.621-0.017 1.241-0.042 1.863-0.067 0.672-0.026 1.345-0.053 2.018-0.072 0.587-0.016 1.212-0.023 2.027-0.023q0.522 0 1.047 0c0.349 0 0.698 0 1.047 0zM35.778 9.347c0.835-0.106 1.802-0.168 2.784-0.168h0.001c0.005 0 0.011 0 0.017 0 0.905 0 1.798 0.055 2.674 0.162l-0.105-0.011c1.651 0.247 3.136 0.663 4.538 1.238l-0.129-0.047c1.289 0.576 2.397 1.234 3.419 2.001l-0.045-0.032c0.63 0.509 1.195 1.028 1.726 1.581l0.006 0.006c0.148 0.156 0.331 0.278 0.535 0.355l0.010 0.003c0.225 0.259 0.443 0.522 0.648 0.779 0.841 1.111 1.592 2.371 2.199 3.711l0.050 0.124c0.506 1.211 0.908 2.624 1.139 4.094l0.014 0.106c0.083 0.662 0.13 1.427 0.13 2.204s-0.047 1.543-0.139 2.295l0.009-0.090c-0.249 1.603-0.657 3.040-1.216 4.399l0.047-0.128c-0.653 1.466-1.403 2.729-2.28 3.89l0.036-0.050c-0.95 1.182-1.993 2.223-3.138 3.14l-0.040 0.031c-1.227 0.926-2.62 1.75-4.103 2.409l-0.136 0.054c-1.392 0.582-3.016 1.041-4.706 1.301l-0.119 0.015c-0.763 0.095-1.647 0.149-2.543 0.149-0.923 0-1.833-0.057-2.726-0.169l0.107 0.011c-0.107-0.017-0.218-0.033-0.329-0.053v0c0.002-0.030 0.003-0.066 0.003-0.101 0-0.15-0.021-0.295-0.059-0.433l0.003 0.011-0.008-0.039c-0.055-0.624-0.086-1.351-0.086-2.084 0-0.402 0.009-0.803 0.028-1.2l-0.002 0.056c0.011-0.427 0.021-0.853 0.022-1.28 0-0.566-0.013-1.138-0.048-1.702-0.019-0.458-0.081-0.89-0.182-1.308l0.009 0.046c-0.208-0.804-0.816-1.429-1.594-1.659l-0.016-0.004c-0.247-0.069-0.532-0.112-0.826-0.118l-0.004-0-0.148-0.010c-0.234-0.016-0.466-0.033-0.698-0.058-0.366-0.055-0.69-0.133-1.003-0.236l0.042 0.012c-0.102-0.053-0.201-0.115-0.298-0.18-0.343-0.324-0.66-0.666-0.953-1.028l-0.015-0.020c-0.188-0.224-0.382-0.457-0.587-0.673-0.678-0.75-1.615-1.253-2.669-1.369l-0.019-0.002c-0.107-0.009-0.213-0.014-0.32-0.014-1 0.059-1.924 0.334-2.743 0.778l0.035-0.017c-0.387 0.18-0.768 0.39-1.134 0.594-0.371 0.22-0.826 0.454-1.294 0.664l-0.091 0.037c-0.042 0.019-0.082 0.040-0.125 0.064-0.292-0.804-0.537-1.759-0.692-2.743l-0.012-0.091c-0.063-0.539-0.099-1.164-0.099-1.797 0-0.645 0.038-1.281 0.11-1.906l-0.007 0.076c0.243-1.525 0.637-2.891 1.175-4.181l-0.044 0.12c0.669-1.515 1.439-2.819 2.339-4.019l-0.038 0.053c0.98-1.209 2.054-2.275 3.233-3.214l0.042-0.032c1.36-1.026 2.905-1.939 4.549-2.669l0.15-0.060c1.658-0.701 3.589-1.251 5.601-1.557l0.137-0.017zM30.884 41.893c-0.549-0.174-1.1-0.373-1.639-0.594-1.688-0.743-3.142-1.603-4.478-2.61l0.056 0.041c-1.198-0.955-2.252-2.003-3.183-3.155l-0.030-0.038c-0.328-0.443-0.62-0.869-0.867-1.284-0.014-0.022-0.027-0.045-0.041-0.067v0 0 0c0.131-0.042 0.245-0.092 0.351-0.153l-0.009 0.005c0.506-0.213 0.994-0.48 1.466-0.739l0.041-0.022c0.394-0.213 0.8-0.438 1.216-0.63 0.221-0.089 0.489-0.171 0.764-0.232l0.036-0.007c0.042 0 0.084 0 0.125 0 0.032 0 0.065 0 0.107 0.004 0.048 0.012 0.095 0.026 0.142 0.041 0.087 0.046 0.171 0.098 0.256 0.153 0.344 0.327 0.662 0.673 0.956 1.039l0.016 0.020 0.188 0.224c0.476 0.596 1.060 1.083 1.725 1.438l0.030 0.014c0.668 0.295 1.442 0.495 2.255 0.561l0.026 0.002c0.101 0.013 0.201 0.025 0.304 0.035l0.144 0.019c0.058 0.8 0.048 1.579 0.031 2.513l-0.016 0.592-0.004 0.136c-0.010 0.444-0.020 0.889-0.020 1.334 0 0.36 0.015 0.755 0.045 1.207v0.019c0.004 0.046 0.011 0.092 0.015 0.139h-0.003zM8.811 25.091c0.377-2.462 1.012-4.675 1.891-6.759l-0.069 0.185c1.126-2.557 2.442-4.76 3.991-6.776l-0.056 0.076c1.881-2.355 3.963-4.42 6.259-6.223l0.082-0.062c0.954-0.757 2.030-1.438 3.177-1.998l0.104-0.046c0.316-0.131 0.691-0.246 1.079-0.326l0.041-0.007c0.075-0.006 0.162-0.009 0.251-0.009 0.053 0 0.105 0.001 0.157 0.003l-0.007-0c0.053 0.013 0.111 0.028 0.165 0.044 0.047 0.026 0.094 0.053 0.14 0.083 0.141 0.128 0.27 0.261 0.391 0.402l0.005 0.006c0.392 0.567 0.749 1.214 1.039 1.896l0.027 0.072c0.341 0.845 0.63 1.707 0.924 2.571-1.314 0.585-2.424 1.193-3.479 1.878l0.096-0.059c-2.841 1.83-5.163 4.223-6.857 7.038l-0.054 0.097c-1.708 2.8-2.719 6.187-2.719 9.81 0 0.169 0.002 0.337 0.007 0.505l-0.001-0.025c0.172 3.383 1.284 6.475 3.078 9.058l-0.038-0.057c1.877 2.688 4.276 4.879 7.065 6.465l0.106 0.056c2.78 1.602 6.063 2.662 9.566 2.95l0.084 0.006c0.531 0.044 1.149 0.069 1.772 0.069 1.213 0 2.403-0.095 3.565-0.278l-0.129 0.017 0.085-0.014c0.029 0.066 0.062 0.123 0.1 0.175l-0.002-0.003c0.368 0.494 0.755 0.968 1.167 1.427s0.841 0.922 1.238 1.406c0.187 0.249 0.369 0.533 0.531 0.828l0.019 0.038c-0.678 0.096-1.356 0.195-2.034 0.288-1.721 0.24-3.709 0.377-5.728 0.377-1.837 0-3.648-0.113-5.425-0.334l0.213 0.022c-2.955-0.424-5.62-1.167-8.13-2.208l0.222 0.081c-2.285-1.004-4.253-2.171-6.059-3.541l0.073 0.053c-1.511-1.197-2.837-2.516-4.003-3.969l-0.038-0.049c-0.949-1.253-1.795-2.674-2.475-4.187l-0.056-0.139c-0.613-1.464-1.093-3.17-1.36-4.946l-0.015-0.121c-0.105-0.847-0.165-1.828-0.165-2.822 0-1.067 0.069-2.119 0.203-3.15l-0.013 0.122z"></path>
<path d="M34.366 21.064c0.336 0.859 0.716 1.689 1.077 2.457l0.189 0.406c0.277 0.596 0.564 1.215 0.901 1.793 0.673 1.185 1.667 2.12 2.865 2.703l0.039 0.017c0.966 0.425 2.092 0.672 3.275 0.672 0.040 0 0.081-0 0.121-0.001l-0.006 0c0.277 0 0.56-0.011 0.844-0.035 0.721-0.059 1.38-0.168 2.020-0.323l-0.088 0.018c0.713-0.183 1.333-0.415 1.919-0.703l-0.057 0.026c0.597-0.292 1.11-0.651 1.558-1.078l-0.003 0.002c0.524-0.507 0.929-1.134 1.169-1.837l0.010-0.033c0.088-0.258 0.149-0.558 0.172-0.869l0.001-0.012 0.020-0.18c0.008-0.095 0.013-0.206 0.013-0.318 0-0.292-0.031-0.577-0.090-0.851l0.005 0.026c-0.133-0.707-0.417-1.332-0.818-1.864l0.008 0.011c-0.442-0.582-0.919-1.096-1.442-1.558l-0.011-0.010-0.146-0.132c-0.469-0.412-0.897-0.835-1.299-1.283l-0.012-0.014c-0.129-0.179-0.253-0.383-0.361-0.597l-0.012-0.026c-0.101-0.263-0.194-0.529-0.286-0.794-0.16-0.459-0.325-0.934-0.526-1.387-0.23-0.456-0.507-0.847-0.833-1.192l0.002 0.002c-0.267-0.281-0.563-0.53-0.885-0.744l-0.019-0.012-0.064-0.046c-0.509-0.339-1.093-0.64-1.709-0.875l-0.061-0.020c-1.066-0.434-2.301-0.693-3.595-0.711l-0.007-0c-0.029-0.001-0.062-0.001-0.096-0.001-0.902 0-1.757 0.198-2.525 0.553l0.037-0.015c-0.339 0.168-0.631 0.364-0.894 0.591l0.005-0.005c-0.254 0.227-0.479 0.478-0.672 0.753l-0.009 0.014-0.021 0.029c-0.182 0.264-0.334 0.569-0.439 0.895l-0.007 0.025-0.031 0.079c-0.105 0.314-0.177 0.678-0.199 1.055l-0.001 0.012-0.013 0.133c-0.003 0.029-0.004 0.062-0.004 0.096 0 0.106 0.015 0.208 0.044 0.304l-0.002-0.008c-0.003 0.097-0.005 0.212-0.005 0.327 0 1.64 0.352 3.198 0.985 4.602l-0.029-0.071zM36.528 15.758c0.022-0.094 0.048-0.186 0.076-0.278 0.034-0.065 0.072-0.129 0.111-0.197 0.042-0.046 0.086-0.088 0.133-0.127l0.002-0.002c0.083-0.053 0.166-0.101 0.254-0.146 0.168-0.061 0.375-0.118 0.587-0.161l0.029-0.005c0.172-0.012 0.344-0.019 0.516-0.019 0.234 0 0.489 0.013 0.755 0.039 0.741 0.129 1.397 0.319 2.023 0.569l-0.068-0.024c0.427 0.191 0.791 0.397 1.134 0.632l-0.024-0.016c0.129 0.116 0.248 0.235 0.36 0.36l0.004 0.004c0.102 0.145 0.199 0.312 0.282 0.486l0.009 0.021c0.087 0.234 0.167 0.47 0.246 0.707l0.013 0.041 0.026 0.071c0.090 0.267 0.187 0.548 0.295 0.825 0.139 0.349 0.28 0.64 0.439 0.919l-0.019-0.035c0.207 0.325 0.419 0.607 0.651 0.871l-0.007-0.008 0.059 0.070c0.389 0.449 0.797 0.855 1.233 1.23l0.016 0.013 0.037 0.032c0.429 0.373 0.819 0.759 1.183 1.168l0.011 0.013c0.091 0.129 0.182 0.277 0.263 0.432l0.011 0.022c0.035 0.107 0.063 0.213 0.093 0.326 0.002 0.048 0.004 0.104 0.004 0.16 0 0.092-0.003 0.183-0.010 0.274l0.001-0.012c-0.022 0.096-0.048 0.19-0.078 0.282-0.053 0.102-0.11 0.199-0.173 0.3-0.118 0.128-0.241 0.246-0.371 0.357l-0.006 0.005c-0.244 0.168-0.524 0.328-0.817 0.465l-0.036 0.015c-0.531 0.207-1.156 0.377-1.804 0.482l-0.055 0.007c-0.385 0.037-0.743 0.057-1.063 0.057-0.273 0-0.587-0.016-0.956-0.048-0.408-0.073-0.765-0.171-1.108-0.295l0.047 0.015c-0.255-0.123-0.472-0.251-0.676-0.394l0.016 0.010c-0.219-0.195-0.418-0.401-0.599-0.622l-0.008-0.009c-0.363-0.531-0.704-1.139-0.99-1.777l-0.030-0.075-0.133-0.279-0.021-0.042-0.022-0.047c-0.317-0.671-0.602-1.276-0.864-1.886-0.389-0.881-0.716-1.913-0.93-2.986l-0.016-0.097c-0.024-0.218-0.038-0.47-0.038-0.726 0-0.216 0.010-0.43 0.029-0.642l-0.002 0.027c0.002-0.028 0.004-0.061 0.004-0.094 0-0.091-0.010-0.18-0.029-0.266l0.002 0.008z"></path>
<path d="M28.532 14.643c-0.118-0.034-0.255-0.053-0.395-0.053-0.002 0-0.005 0-0.007 0h0c-0.006-0-0.014-0-0.021-0-0.718 0-1.323 0.483-1.509 1.141l-0.003 0.011c-0.085 0.343-0.183 0.634-0.301 0.914l0.015-0.041c-0.111 0.259-0.221 0.519-0.323 0.782-0.105 0.305-0.177 0.658-0.201 1.023l-0.001 0.012-0.004 0.040c-0.002 0.026-0.003 0.055-0.003 0.085 0 0.087 0.008 0.173 0.023 0.256l-0.001-0.009c0.022 0.277 0.078 0.535 0.166 0.777l-0.006-0.020c0.225 0.554 0.546 1.026 0.946 1.416l0.001 0.001c0.275 0.281 0.659 0.456 1.082 0.456 0.007 0 0.014-0 0.021-0h-0.001c0.005 0 0.010 0 0.016 0 0.865 0 1.567-0.701 1.567-1.567 0-0.434-0.177-0.827-0.462-1.111l-0-0c-0.059-0.053-0.116-0.115-0.17-0.176l-0.029-0.049c0.056-0.209 0.116-0.382 0.185-0.549l-0.011 0.030c0.191-0.401 0.369-0.878 0.507-1.372l0.015-0.064c0.033-0.121 0.052-0.26 0.052-0.404 0-0.722-0.48-1.332-1.138-1.527l-0.011-0.003z"></path>
<path d="M45.941 31.647c-0.903-0.441-1.955-0.806-3.055-1.043l-0.092-0.017-0.053-0.015c-0.778-0.195-1.633-0.383-2.614-0.575-0.122-0.034-0.262-0.053-0.407-0.053-0.003 0-0.007 0-0.010 0h0.001c-0.003 0-0.006 0-0.009 0-0.146 0-0.287 0.020-0.421 0.056l0.011-0.003c-0.406 0.108-0.738 0.367-0.938 0.713l-0.004 0.007c-0.339 0.666-0.612 1.439-0.78 2.251l-0.010 0.060c-0.099 0.47-0.166 0.955-0.234 1.423-0.042 0.295-0.083 0.59-0.131 0.883-0.030 0.12-0.047 0.257-0.047 0.398 0 0.298 0.077 0.579 0.212 0.822l-0.004-0.009c0.040 0.067 0.079 0.124 0.122 0.178l-0.003-0.004c0.033 0.084 0.074 0.157 0.123 0.224l-0.002-0.003 0.233 0.31c0.887 1.18 1.805 2.4 3.099 3.151 0.392 0.225 0.854 0.374 1.346 0.416l0.012 0.001c0.070 0.007 0.139 0.011 0.206 0.011 0.5-0.023 0.963-0.161 1.37-0.387l-0.016 0.008 0.139-0.101c0.165-0.103 0.307-0.224 0.43-0.363l0.002-0.002c0.161-0.174 0.3-0.371 0.412-0.586l0.007-0.015c0.133-0.262 0.255-0.571 0.349-0.892l0.010-0.040c0.037-0.114 0.074-0.229 0.114-0.342 0.241-0.436 0.493-0.81 0.774-1.16l-0.012 0.016 0.096-0.129c0.236-0.32 0.427-0.591 0.596-0.86 0.182-0.304 0.349-0.656 0.479-1.025l0.013-0.042c0.082-0.248 0.133-0.534 0.143-0.83l0-0.005 0.006-0.082c0.001-0.020 0.001-0.043 0.001-0.067 0-0.44-0.114-0.852-0.314-1.211l0.007 0.013c-0.269-0.472-0.664-0.844-1.14-1.078l-0.016-0.007zM42.336 37.685v0 0 0zM43.296 35.469c-0.11 0.148-0.221 0.297-0.33 0.444-0.241 0.339-0.45 0.727-0.608 1.141l-0.012 0.036c-0.030 0.082-0.061 0.166-0.091 0.251l-0.035 0.091-0.019 0.053v0.007c-0.553-0.491-1.047-1.024-1.488-1.6l-0.020-0.027-0.346-0.461 0.010-0.062c0.090-0.61 0.181-1.24 0.331-1.861 0.012-0.051 0.025-0.101 0.037-0.151v0-0.004l0.050 0.012c0.26 0.059 0.521 0.118 0.78 0.181 0.956 0.214 1.749 0.446 2.522 0.721l-0.151-0.047c0.038 0.013 0.076 0.027 0.115 0.042 0.025 0.010 0.050 0.018 0.075 0.028v0 0h0.003c-0.276 0.463-0.548 0.857-0.843 1.233l0.019-0.025z"></path>
<path d="M28.263 24.173c-0.2-0.666-0.804-1.145-1.521-1.154h-0.001c-0.004 0-0.009-0-0.014-0-0.142 0-0.279 0.020-0.409 0.056l0.011-0.003c-0.421 0.124-0.763 0.405-0.964 0.774l-0.004 0.008c-0.121 0.209-0.193 0.461-0.193 0.729 0 0.151 0.023 0.296 0.065 0.433l-0.003-0.010c0.090 0.282 0.188 0.554 0.294 0.807l0.16 0.377c0.14 0.234 0.33 0.424 0.557 0.56l0.007 0.004c0.227 0.134 0.5 0.213 0.792 0.213 0.002 0 0.003 0 0.005 0h-0c0.003 0 0.007 0 0.011 0 0.144 0 0.283-0.020 0.415-0.056l-0.011 0.003c0.402-0.115 0.731-0.374 0.936-0.715l0.004-0.007c0.138-0.225 0.22-0.497 0.22-0.788 0-0.151-0.022-0.297-0.063-0.434l0.003 0.011c-0.115-0.269-0.214-0.541-0.296-0.806z"></path>
</svg>
