<!-- Generated by IcoMoon.io -->
<svg version="1.1" xmlns="http://www.w3.org/2000/svg" width="64" height="64" viewBox="0 0 64 64">
<path d="M2.12 56.037c4.72-0.259 9.459 1.113 14.22 1.136 5.658 0.027 11.321-0.44 16.974-0.632 5.353-0.182 10.675-0.206 16.008 0.334 4.397 0.445 8.725 1.194 13.101 0.183 2.762-0.639 1.59-4.877-1.169-4.24-4.234 0.979-8.718-0.015-12.971-0.445-5.419-0.548-10.872-0.368-16.304-0.183-5.214 0.177-10.42 0.537-15.639 0.586-4.783 0.043-9.465-1.397-14.22-1.136-2.82 0.154-2.834 4.551 0 4.396v0z"></path>
<path d="M10.695 30.679c3.538 1.37 7.752 1.178 11.428 0.55 2.79-0.478 1.603-4.714-1.169-4.24-2.932 0.502-6.285 0.536-9.089-0.55-2.648-1.025-3.783 3.227-1.169 4.24v0z"></path>
<path d="M27.4 21.049c3.115 0.012 6.228 0.17 9.343 0.183 2.836 0.012 2.834-4.385 0-4.396-3.115-0.013-6.228-0.171-9.343-0.183-2.836-0.011-2.834 4.386 0 4.396v0z"></path>
<path d="M43.668 10.712c2.81 0.462 5.657-0.303 8.427 0.183 2.772 0.486 3.958-3.75 1.169-4.24-2.815-0.494-5.638 0.276-8.427-0.183-2.773-0.457-3.961 3.78-1.169 4.24v0z"></path>
<path d="M9.526 29.51c0.671 3.327 0.199 8.030 0.141 11.682-0.039 2.397-0.109 4.793-0.218 7.188-0.043 0.926-0.099 1.851-0.168 2.776-0.087 1.176-0.565 1.508 0.26 0.764-2.109 1.904 1.011 5.003 3.108 3.108 0.991-0.894 0.926-2.661 1.027-3.872 0.236-2.804 0.29-5.628 0.356-8.441 0.108-4.629 0.655-9.796-0.269-14.374-0.559-2.778-4.797-1.599-4.238 1.169v0z"></path>
<path d="M24.652 18.667c-0.057 11.822-1.345 23.63 0.445 35.389 1.413-0.39 2.825-0.779 4.239-1.169-0.061-0.244-0.122-0.489-0.183-0.733-0.687-2.749-4.928-1.583-4.239 1.169 0.061 0.244 0.122 0.489 0.183 0.733 0.703 2.814 4.654 1.559 4.239-1.169-1.723-11.328-0.343-22.832-0.288-34.221 0.015-2.835-4.382-2.834-4.396 0.001v0z"></path>
<path d="M46.085 8.958c-0.018 0.081-0.037 0.163-0.055 0.243-1.413 0-2.825 0-4.239 0 0.984 3.801 0.538 8.736 0.425 12.559-0.13 4.38-0.426 8.753-0.602 13.13-0.175 4.35-0.3 8.706-0.268 13.060 0.013 1.762-0.486 6.105 1.615 7.053 2.562 1.158 4.799-2.631 2.218-3.796 1.123 0.507 0.825 1.586 0.706 0.447-0.066-0.632-0.083-1.269-0.107-1.904-0.066-1.761-0.046-3.526-0.029-5.287 0.041-3.988 0.182-7.976 0.362-11.96 0.221-4.901 0.544-9.797 0.572-14.704 0.018-3.083 0.122-6.768-0.655-9.768-0.539-2.086-3.717-2.118-4.239 0-0.076 0.306-0.095 0.613-0.103 0.925-0.065 2.838 4.333 2.831 4.397 0.001v0z"></path>
<path d="M18.424 29.842c0.020 4.27 0.304 8.527 0.387 12.795 0.078 4-0.717 7.826 0.241 11.787 0.666 2.755 4.905 1.586 4.239-1.169-0.84-3.474-0.17-7.093-0.084-10.619 0.104-4.247-0.366-8.539-0.387-12.795-0.014-2.834-4.41-2.835-4.396 0.001v0z"></path>
<path d="M33.995 19.217c-0.712 7.061-0.006 14.103-0.212 21.173-0.133 4.55-1.212 10.126 0.879 14.376 1.252 2.544 5.044 0.315 3.797-2.219-1.69-3.434-0.366-9.188-0.258-12.891 0.199-6.829-0.498-13.614 0.191-20.438 0.284-2.821-4.114-2.794-4.397-0.001v0z"></path>
<path d="M50.298 8.958c1.015 9.962 0.139 19.726-0.248 29.676-0.141 3.616-0.208 7.24-0.065 10.856 0.076 1.931-0.053 5.465 1.689 6.819 2.209 1.718 5.345-1.37 3.108-3.108-0.589-0.459-0.443-4.754-0.467-5.938-0.067-3.332 0.046-6.67 0.185-9.999 0.396-9.501 1.161-18.793 0.193-28.305-0.285-2.793-4.684-2.82-4.397 0v0z"></path>
</svg>
