<!-- Generated by IcoMoon.io -->
<svg version="1.1" xmlns="http://www.w3.org/2000/svg" width="64" height="64" viewBox="0 0 64 64">
<path d="M59.276 2.117h-54.552c-6.298 0-6.298 9.769 0 9.769h54.552c6.298 0 6.298-9.769 0-9.769z"></path>
<path d="M59.293 38.384c6.281 0.491 6.248-9.295 0-9.786-8.591-0.735-18.59-1.154-28.687-1.154-8.309 0-16.551 0.284-24.718 0.842l1.104-0.061c-6.231 0.423-6.281 10.159 0 9.769 7.034-0.497 15.242-0.78 23.516-0.78 10.131 0 20.164 0.425 30.080 1.257l-1.295-0.088z"></path>
<path d="M59.276 52.047c-2.101 0.043-4.579 0.067-7.061 0.067-15.502 0-30.781-0.953-45.783-2.805l1.796 0.181c-6.231-0.728-6.18 9.041 0 9.786 13.207 1.659 28.492 2.606 43.997 2.606 2.479 0 4.953-0.024 7.42-0.072l-0.37 0.006c6.281-0.118 6.298-9.888 0-9.769z"></path>
</svg>
