<!-- Generated by IcoMoon.io -->
<svg version="1.1" xmlns="http://www.w3.org/2000/svg" width="64" height="64" viewBox="0 0 64 64">
<path d="M32.909 58.798c-4.917-2.634-7.010-9.503-10.315-13.759-4.926-6.344-10.166-12.386-14.129-19.41-4.211-7.463-3.682-17.276 5.514-20.209 3.243-1.035 7.163-1.002 10.169 0.667 2.933 1.627 4.481 5.476 6.085 8.241 1.037 1.789 3.417 1.198 4.071-0.532 1.964-5.188 7.203-8.673 12.626-9.256 7.108-0.765 10.2 4.292 10.852 10.655 0.435 4.24 0.411 8.899-1.925 12.606-1.016 1.612-2.703 2.94-4.049 4.27-1.556 1.538-2.698 3.242-3.883 5.066-2.83 4.357-6.252 8.121-9.63 12.044-3.103 3.604-4.807 7.577-7.319 11.533-1.544 2.433 2.312 4.666 3.848 2.248 1.435-2.259 2.431-4.746 3.798-7.045 1.651-2.773 4.213-5.2 6.35-7.599 4.159-4.668 7.080-10.265 11.546-14.627 6.504-6.354 7.846-17.521 4.191-25.844-6.249-14.229-26.267-6.941-30.698 4.767 1.357-0.177 2.714-0.355 4.071-0.532-1.864-3.214-3.553-6.527-6.45-8.949-3.083-2.579-7.278-3.026-11.139-2.699-8.832 0.75-14.973 7.165-15.189 16.023-0.235 9.64 7.63 18.551 13.253 25.601 3.159 3.96 6.117 7.823 8.702 12.181 1.902 3.207 4.026 6.6 7.404 8.409 2.531 1.356 4.781-2.49 2.247-3.847v0z"></path>
</svg>
