<!-- Generated by IcoMoon.io -->
<svg version="1.1" xmlns="http://www.w3.org/2000/svg" width="64" height="64" viewBox="0 0 64 64">
<path d="M7.376 17.859c3.569-1.371 6.622-3.638 9.94-5.492 2.396-1.338 4.814-2.628 7.192-3.995 0.972-0.559 5.269-4.026 6.201-3.793 4.359 1.088 8.422 3.5 12.337 5.631 4.386 2.387 8.137 5.776 12.607 7.987 2.599 1.285 4.886-2.606 2.277-3.897-4.468-2.21-8.224-5.594-12.606-7.987-4.314-2.356-8.688-4.67-13.416-6.086-2.226-0.667-3.151 0.235-5.040 1.445-2.286 1.464-4.642 2.817-7.004 4.152-4.416 2.498-8.956 5.865-13.688 7.684-2.687 1.032-1.521 5.397 1.2 4.351v0z"></path>
<path d="M6.023 19.067c8.415 0.278 16.923-0.393 25.337-0.559 5.366-0.105 10.734-0.177 16.101-0.091 1.929 0.032 3.86 0.093 5.784 0.238 0.493 0.037 0.985 0.082 1.473 0.162 1.531 0.252 0.068 0.132-0.29-1.032 0.854 2.772 5.211 1.589 4.351-1.2-0.842-2.729-5.152-2.444-7.371-2.559-5.364-0.279-10.756-0.174-16.124-0.098-9.72 0.138-19.541 0.948-29.26 0.627-2.911-0.096-2.902 4.417 0 4.513v0z"></path>
<path d="M4.331 16.435c0.017 7.506 0.256 15.010-0.033 22.514-0.284 7.383-0.803 14.676 0.033 22.049 1.477-0.2 2.955-0.4 4.432-0.599-0.062-0.376-0.125-0.752-0.188-1.128-0.478-2.866-4.826-1.646-4.351 1.2 0.062 0.376 0.125 0.752 0.188 1.128 0.417 2.499 4.718 1.923 4.432-0.599-0.778-6.862-0.511-13.741-0.103-20.617 0.475-7.969 0.121-15.97 0.103-23.946-0.008-2.911-4.52-2.911-4.513-0.001v0z"></path>
<path d="M53.595 17.751c0.82 7.359 1.931 14.687 1.645 22.112-0.277 7.182-1.628 14.201-0.247 21.358 0.55 2.856 4.9 1.643 4.351-1.2-1.281-6.647 0.022-13.483 0.409-20.159 0.428-7.39-0.83-14.792-1.645-22.112-0.318-2.858-4.835-2.889-4.513 0.001v0z"></path>
<path d="M7 63.55c3.191-1.227 6.822-0.77 10.171-0.681 4.896 0.129 9.794-0.101 14.693 0.053 8.922 0.282 17.737 1.828 26.656 0.628 2.872-0.387 1.645-4.734-1.2-4.351-9.323 1.254-18.871-0.672-28.217-0.861-4.296-0.087-8.594 0.106-12.888-0.008-3.451-0.092-7.128-0.396-10.415 0.869-2.685 1.033-1.519 5.397 1.202 4.351v0z"></path>
<path d="M23.322 42.007c5.29 0.037 10.573 0.523 15.831-0.269 2.869-0.432 1.646-4.78-1.2-4.351-4.814 0.724-9.786 0.141-14.63 0.107-2.911-0.020-2.908 4.492 0 4.513v0z"></path>
<path d="M21.254 39.563c-0.050 6.416-0.678 12.8-1.316 19.179-0.29 2.896 4.225 2.867 4.513 0 0.639-6.38 1.267-12.763 1.316-19.179 0.023-2.911-4.49-2.909-4.513 0v0z"></path>
<path d="M35.544 39.186c-0.047 7.026-0.693 14.032-0.564 21.059 0.047 2.544 3.739 3.077 4.432 0.599 0.185-0.66 0.247-1.229 0.269-1.916 0.094-2.911-4.419-2.902-4.513 0-0.036 0.238-0.072 0.478-0.108 0.717 1.477 0.2 2.955 0.4 4.432 0.599-0.129-7.028 0.517-14.034 0.564-21.059 0.020-2.911-4.493-2.909-4.513 0v0z"></path>
</svg>
