<!-- Generated by IcoMoon.io -->
<svg version="1.1" xmlns="http://www.w3.org/2000/svg" width="64" height="64" viewBox="0 0 64 64">
<path d="M4.369 17.676c1.253 6.552 0.062 13.342-0.114 19.945-0.094 3.513 0.353 7.035 0.401 10.547 0.053 3.827 0.977 7.656 0.444 11.482-0.385 2.765 3.842 3.959 4.231 1.166 1.051-7.55-0.642-15.57-0.689-23.196-0.043-7.096 1.308-14.049-0.042-21.111-0.531-2.776-4.759-1.598-4.231 1.166v0z"></path>
<path d="M54.743 17.824c0.012 7.215 0.125 14.43 0.194 21.644 0.064 6.796 1.161 13.64-0.298 20.365 1.436 0.194 2.872 0.389 4.309 0.583 0-0.243 0-0.488 0-0.731 0-2.829-4.387-2.829-4.387 0 0 0.243 0 0.488 0 0.731 0 2.436 3.775 3.043 4.309 0.583 1.458-6.717 0.741-13.537 0.486-20.336-0.284-7.593-0.212-15.24-0.224-22.839-0.005-2.829-4.392-2.83-4.388 0v0z"></path>
<path d="M7.957 18.439c8.668-3.695 15.71-10.444 24.519-14.037 2.583-1.054 1.454-5.3-1.166-4.231-4.782 1.951-9.191 4.468-13.547 7.227-3.93 2.488-7.723 5.42-12.019 7.252-2.595 1.107-0.358 4.885 2.214 3.788v0z"></path>
<path d="M31.676 5.133c4.352 0.867 7.429 4.516 10.992 6.908 4.086 2.743 9.231 3.415 13.083 6.603 2.161 1.789 5.284-1.296 3.102-3.102-3.883-3.214-8.629-4.502-13.049-6.762-4.601-2.353-7.658-6.821-12.963-7.878-2.762-0.551-3.939 3.678-1.166 4.231v0z"></path>
<path d="M8.495 62.793c16.189-0.823 32.398 2.97 48.476-0.261 2.773-0.557 1.596-4.785-1.166-4.23-15.633 3.141-31.555-0.698-47.31 0.105-2.814 0.143-2.828 4.531 0.001 4.386v0z"></path>
<path d="M25.13 60.051c-0.172-6.766-0.004-13.534 0.366-20.291-0.731 0.731-1.462 1.462-2.194 2.194 5.362-0.372 10.714-0.882 16.086-1.097-0.731-0.731-1.462-1.462-2.194-2.194 0.121 7.754-1.054 15.465-0.914 23.215 0.051 2.826 4.438 2.83 4.387 0-0.14-7.751 1.035-15.461 0.914-23.215-0.018-1.159-0.984-2.242-2.194-2.194-5.372 0.215-10.724 0.725-16.086 1.097-1.244 0.086-2.125 0.935-2.194 2.194-0.369 6.757-0.537 13.525-0.366 20.291 0.072 2.824 4.46 2.831 4.387 0v0z"></path>
</svg>
