<!-- Generated by IcoMoon.io -->
<svg version="1.1" xmlns="http://www.w3.org/2000/svg" width="64" height="64" viewBox="0 0 64 64">
<path d="M0.505 21.716c0.312 2.891 0.094 5.731-0.093 8.622-0.216 3.332 0.341 6.708-0.36 9.997-0.284 1.336 0.603 2.665 2.036 2.672 3.376 0.017 6.647-0.843 10.030-0.528 0.842 0.078 1.91-0.695 2.036-1.551 0.911-6.194-0.567-12.521 0.704-18.652 0.274-1.318-0.595-2.691-2.036-2.672-3.288 0.041-6.565 0.294-9.854 0.176-2.725-0.097-2.715 4.126 0 4.223 3.288 0.118 6.566-0.135 9.854-0.176-0.678-0.891-1.358-1.782-2.036-2.672-1.285 6.195 0.209 12.445-0.704 18.652 0.678-0.517 1.357-1.033 2.036-1.551-3.387-0.316-6.65 0.545-10.030 0.528 0.679 0.891 1.358 1.782 2.036 2.672 0.616-2.887 0.47-5.722 0.427-8.655-0.054-3.721 0.578-7.36 0.176-11.085-0.289-2.678-4.515-2.706-4.223 0v0z"></path>
<path d="M12.614 33.254c7.903 1.321 16.012 0.928 23.995 1.003 3.92 0.037 7.843-0.243 11.758-0.4 4.338-0.174 8.669-1.13 12.988-0.251 2.658 0.541 3.79-3.529 1.123-4.072-3.49-0.711-6.893-0.509-10.418-0.18-4.252 0.398-8.54 0.526-12.807 0.648-8.335 0.238-17.278 0.557-25.516-0.821-2.663-0.446-3.804 3.623-1.123 4.072v0z"></path>
<path d="M45.551 32.098c-0.181 3.191-0.112 6.486-0.629 9.645-0.436 2.663 3.633 3.805 4.072 1.123 0.581-3.547 0.576-7.186 0.779-10.767 0.156-2.723-4.069-2.708-4.222-0.001v0z"></path>
<path d="M52.942 31.394c-0.018 3.489-0.788 7.526 0.075 10.943 0.667 2.639 4.74 1.519 4.072-1.123-0.24-0.951-0.077-3.047-0.051-4.361 0.037-1.819 0.118-3.639 0.127-5.459 0.014-2.724-4.209-2.723-4.223 0v0z"></path>
</svg>
