<!-- Generated by IcoMoon.io -->
<svg version="1.1" xmlns="http://www.w3.org/2000/svg" width="64" height="64" viewBox="0 0 64 64">
<path d="M5.361 33.007c7.059 4.058 15.223 7.481 23.826 9.846l0.744 0.174c0.056 1.31 1.132 2.352 2.451 2.352 0.561 0 1.078-0.188 1.491-0.505l-0.006 0.004 25.352-20.005c1.083-0.12 1.931-0.986 2.022-2.068l0.001-0.008c0.028-0.119 0.044-0.256 0.044-0.396 0-0.338-0.093-0.654-0.255-0.924l0.005 0.008c-0.178-0.367-0.437-0.67-0.757-0.894l-0.007-0.005c-7.702-5.49-16.474-10.475-25.745-14.531l-0.946-0.369c-0.282-0.124-0.61-0.196-0.955-0.196-0.844 0-1.588 0.431-2.023 1.086l-0.006 0.009c-0.061-0.007-0.132-0.011-0.204-0.011-0.453 0-0.868 0.16-1.192 0.427l0.003-0.003c-9.053 6.78-17.020 13.478-24.597 20.587l0.153-0.142c-0.476-0.288-0.962-0.566-1.438-0.899-2.453-1.537-4.718 2.346-2.265 3.882l0.737 0.44c-0.005 0.057-0.008 0.123-0.008 0.191 0 1.281 1.038 2.319 2.319 2.319 0.467 0 0.902-0.138 1.266-0.376l-0.009 0.005zM31.468 10.854c0.315-0.233 0.565-0.535 0.731-0.884l0.006-0.014c8.824 3.878 16.346 8.059 23.428 12.841l-0.521-0.331-21.91 17.255c-0.291-0.39-0.708-0.673-1.19-0.788l-0.014-0.003c-8.812-2.316-16.517-5.444-23.691-9.414l0.523 0.265c6.873-6.422 14.25-12.622 21.945-18.425l0.693-0.501z"></path>
<path d="M62.31 35.173l-0.279-0.054c-0.168-0.044-0.362-0.069-0.561-0.069-0.962 0-1.786 0.591-2.13 1.429l-0.006 0.015-22.988 17.147-30.906-14.028c-2.615-1.186-4.898 2.696-2.265 3.882l32.352 14.711c0.325 0.191 0.715 0.303 1.132 0.303s0.807-0.113 1.143-0.309l-0.011 0.006 16.032-11.988q3.837-2.858 7.666-5.716c1.177-0.899 2.516-1.537 2.507-3.163-0.015-1.035-0.719-1.902-1.674-2.162l-0.016-0.004z"></path>
</svg>
