<!-- Generated by IcoMoon.io -->
<svg version="1.1" xmlns="http://www.w3.org/2000/svg" width="64" height="64" viewBox="0 0 64 64">
<path d="M63.368 6.527c-1.902-3.403-6.605-2.002-9.708-1.601-5.504 0.7-10.909 1.601-16.313 2.702-11.309 2.302-22.418 5.504-33.227 9.508-0.3-0.1-0.7-0.2-1.001-0.3-3.102-0.801-4.504 4.103-1.301 4.804 0.2 0 0.4 0.1 0.5 0.1 0.5 0.5 1.201 0.701 2.002 0.5 4.103 1.001 8.207 2.002 12.21 3.002 3.703 0.901 10.608 1.101 12.61 4.604 1.902 3.203 2.202 9.007 3.102 12.81 1.201 5.104 2.502 10.208 3.703 15.212 0.3 1.201 1.801 2.202 3.102 1.701 4.303-1.701 5.404-5.604 7.206-9.608 2.502-5.504 4.904-10.909 7.406-16.413 2.602-5.805 5.204-11.509 7.806-17.314 1.201-2.602 3.703-6.505 1.902-9.708zM57.864 12.231c-0.801 1.802-1.601 3.603-2.502 5.504-1.902 4.203-3.803 8.507-5.705 12.71s-3.803 8.507-5.705 12.71c-0.801 1.801-1.601 3.603-2.502 5.504-0.5 1.001-1.001 2.702-1.701 4.103-1.001-4.504-2.102-8.807-3.102-13.211-1.001-4.303-1.301-10.608-4.404-14.011-2.602-3.002-8.006-3.403-11.609-4.203-2.502-0.6-5.104-1.301-7.606-1.902 13.811-4.604 28.123-7.906 42.534-9.608 3.002-0.5 3.903-1.201 2.302 2.402z"></path>
</svg>
