<!-- Generated by IcoMoon.io -->
<svg version="1.1" xmlns="http://www.w3.org/2000/svg" width="64" height="64" viewBox="0 0 64 64">
<path d="M19.826 16.581c0.788-6.427 6.478-11.431 12.874-11.655 6.963-0.242 10.968 6.521 11.326 12.672 0.182 3.128 5.065 3.146 4.881 0-0.521-8.925-5.867-16.362-15.049-17.489-9.65-1.185-17.815 7.53-18.913 16.472-0.383 3.119 4.502 3.082 4.881 0v0z"></path>
<path d="M18.605 20.648c-5.571 0.083-7.577 5.663-8.356 10.354-1.294 7.798 0.208 16.572 1.271 24.331 0.909 6.634 6.529 8.552 12.422 8.659 4.919 0.089 9.82-0.586 14.744-0.508 3.208 0.050 6.311 0.291 9.419-0.7 6.861-2.187 6.317-10.467 5.961-16.223-0.262-4.229-0.542-8.358-0.35-12.596 0.135-2.984 0.065-6.346-1.207-9.108-2.857-6.203-10.017-5.336-15.739-4.834-6.491 0.57-13.832-2.436-19.804 0.959-2.735 1.555-0.277 5.772 2.463 4.215 4.238-2.409 9.996 0.015 14.587-0.091 3.663-0.085 10.101-2.073 13.23 0.461 3.097 2.508 1.397 10.332 1.463 13.786 0.089 4.602 3.087 15.813-1.72 18.638-1.634 0.961-4.060 0.746-5.872 0.719-3.288-0.050-6.515-0.095-9.803 0.095-4.086 0.237-12.656 2.139-14.621-2.868-0.994-2.532-0.87-5.666-1.124-8.346-0.335-3.532-0.593-7.070-0.77-10.614-0.136-2.703-0.127-11.391 3.804-11.448 3.145-0.046 3.149-4.927 0-4.881v0z"></path>
</svg>
