<!-- Generated by IcoMoon.io -->
<svg version="1.1" xmlns="http://www.w3.org/2000/svg" width="64" height="64" viewBox="0 0 64 64">
<path d="M18.667 16.782c2.003-6.347 5.971-11.589 13.096-11.845 5.783-0.208 12.090 5.954 11.541 12.008-0.284 3.128 4.588 3.101 4.869 0 0.336-3.705-2.132-8.253-4.295-11.097-2.813-3.7-6.408-5.214-10.922-5.743-9.743-1.139-16.354 7.044-18.985 15.381-0.949 3.004 3.753 4.279 4.695 1.294v0z"></path>
<path d="M15.71 50.018c-0.061-5.459-0.644-10.894-0.625-16.356 0.009-2.411-0.33-6.831 1.857-8.405 1.863-1.341 5.372-0.808 7.515-0.793 5.838 0.038 11.717 0.244 17.551 0.5 5.523 0.242 6.277 3.077 6.608 8.288 0.374 5.9 0.045 11.824 0.396 17.731 0.122 2.045 0.187 4.24-0.727 6.126-1.274 2.632-6.484 2.063-8.821 2.003-6.245-0.161-12.493-0.247-18.728-0.659-2.319-0.153-4.629-0.217-5.37-2.731-0.579-1.963-0.351-4.284-0.467-6.311-0.181-3.121-5.051-3.138-4.869 0 0.269 4.645-0.14 9.562 4.158 12.462 2.62 1.769 6.712 1.471 9.676 1.644 4.786 0.28 9.578 0.198 14.364 0.414 6.069 0.274 12.917 0.067 15.171-6.566 0.874-2.572 0.545-5.62 0.36-8.268-0.33-4.749-0.105-9.519-0.211-14.275-0.113-5.071-0.551-11.994-6.294-13.889-2.307-0.761-4.764-0.831-7.172-0.91-4.722-0.156-9.451-0.274-14.173-0.4-5.023-0.133-12.946-0.666-14.692 5.582-2.227 7.979-0.467 16.68-0.376 24.816 0.035 3.138 4.904 3.142 4.869 0v0z"></path>
<path d="M34.618 32.453c-3.22-0.485-7.591 0.483-9.137 3.719-1.789 3.746 1.663 7.589 5.362 7.934 3.002 0.28 5.736-2.29 6.759-4.886 1.242-3.151-0.661-6.13-3.796-6.97-3.038-0.813-4.325 3.884-1.295 4.695 0.17 0.041 0.338 0.090 0.502 0.148-0.415-0.135 0.174 0.12 0.23 0.155-0.221-0.18-0.236-0.181-0.042-0.002-0.373-0.365-0.065-0.075 0.024 0.097-0.129-0.316-0.154-0.347-0.077-0.091-0.153-0.588-0.026-0.158-0.029 0.050-0.008 0.602 0.118-0.524-0.027 0.077-0.025 0.106-0.258 0.677-0.021 0.143-0.137 0.308-0.324 0.592-0.519 0.867 0.295-0.416-0.347 0.316-0.464 0.423 0.362-0.326-0.382 0.234-0.534 0.316-0.58 0.312 0.447-0.141-0.172 0.054-0.124 0.039-0.74 0.105-0.14 0.051-0.133 0.008-0.266 0.008-0.399 0 0.57 0.017-0.005-0.024-0.152-0.067 0.291 0.086-0.209-0.147-0.275-0.205-0.172-0.162-0.334-0.334-0.487-0.516-0.011-0.011-0.183-0.462-0.075-0.156-0.163-0.461-0.022-0.041-0.056 0.17 0.095-0.588-0.213 0.3 0.093-0.223-0.115 0.196 0.262-0.232 0.345-0.288 0.375-0.254 0.618-0.356 0.885-0.455 0.441-0.161 0.903-0.257 1.363-0.338-0.208 0.037 1.195 0.045 0.837-0.010 1.311 0.198 2.612-0.308 2.995-1.7 0.322-1.161-0.384-2.795-1.698-2.993v0z"></path>
<path d="M28.579 43.361c0.39 1.541 0.213 3.715 0.812 5.478 1.002 2.957 5.706 1.688 4.695-1.294-0.596-1.759-0.355-3.674-0.812-5.478-0.77-3.042-5.466-1.751-4.695 1.294v0z"></path>
</svg>
