<!-- Generated by IcoMoon.io -->
<svg version="1.1" xmlns="http://www.w3.org/2000/svg" width="64" height="64" viewBox="0 0 64 64">
<path d="M0.284 13.485c-0.174 12.49-0.179 24.981-0.179 37.471 0 2.775 4.303 2.775 4.303 0 0-12.491 0.005-24.981 0.179-37.471 0.039-2.776-4.264-2.773-4.303 0v0z"></path>
<path d="M2.436 15.637c9.833 1.188 19.574-0.815 29.395-1.13 10.023-0.322 20.076 0.204 30.091 0.544 2.776 0.094 2.767-4.209 0-4.303-10.029-0.34-20.055-0.746-30.091-0.544-9.843 0.199-19.535 2.321-29.395 1.13-2.751-0.332-2.719 3.974 0 4.303v0z"></path>
<path d="M2.077 53.646c19.709-0.834 39.418 0.493 59.132 0.146 2.772-0.049 2.776-4.352 0-4.303-19.714 0.347-39.423-0.98-59.132-0.146-2.764 0.117-2.775 4.42 0 4.303v0z"></path>
<path d="M59.629 13.844c-0.001 6.969-0.030 13.932-0.493 20.888-0.379 5.706-1.883 11.466-0.686 17.154 0.571 2.715 4.719 1.563 4.149-1.144-1.173-5.572 0.558-11.782 0.932-17.396 0.432-6.489 0.4-13.004 0.401-19.504 0-2.774-4.303-2.774-4.303 0.001v0z"></path>
<path d="M2.528 15.723c9.477 7.956 17.799 17.175 25.302 26.996 1.66 2.174 5.401 0.034 3.716-2.172-7.732-10.121-16.203-19.664-25.975-27.866-2.11-1.771-5.17 1.256-3.042 3.042v0z"></path>
<path d="M31.904 43.078c0.811-1.766 3.134-3.201 4.504-4.555 2.679-2.648 5.433-5.213 8.171-7.802 5.781-5.468 11.733-10.914 17.288-16.611 1.938-1.986-1.102-5.032-3.042-3.042-5.869 6.016-12.16 11.758-18.267 17.535-2.572 2.433-5.146 4.855-7.665 7.344-1.526 1.508-3.786 2.958-4.705 4.96-1.148 2.503 2.559 4.691 3.716 2.172v0z"></path>
<path d="M5.494 52.455c7.279-4.92 13.391-11.269 20.157-16.831 2.146-1.763-0.917-4.789-3.042-3.042-6.478 5.324-12.319 11.449-19.286 16.158-2.285 1.544-0.135 5.274 2.171 3.715v0z"></path>
<path d="M37.489 34.369c3.057 2.435 6.473 4.21 9.393 6.877 3.787 3.457 7.438 7.241 10.866 11.052 1.86 2.067 4.892-0.986 3.042-3.042-3.202-3.559-6.668-6.875-10.046-10.265-3.1-3.111-6.84-4.978-10.214-7.663-2.147-1.71-5.213 1.315-3.042 3.042v0z"></path>
</svg>
