<!-- Generated by IcoMoon.io -->
<svg version="1.1" xmlns="http://www.w3.org/2000/svg" width="64" height="64" viewBox="0 0 64 64">
<path d="M3.664 32.046c-0.001 4.745-0.017 9.486-0.234 14.227-0.187 4.089-1.27 8.151-0.391 12.219 0.571 2.645 4.619 1.523 4.048-1.116-0.782-3.623 0.429-7.454 0.541-11.103 0.146-4.745 0.234-9.478 0.234-14.227 0-2.707-4.198-2.707-4.198 0v0z"></path>
<path d="M58.471 31.113c0.043 8.787 0.896 17.567 0.467 26.355-0.132 2.707 4.066 2.694 4.198 0 0.429-8.787-0.424-17.568-0.467-26.355-0.013-2.706-4.211-2.708-4.198 0v0z"></path>
<path d="M5.996 34.145c9.444 1.147 19.063-0.563 28.533-0.722 8.153-0.138 16.789-1.476 24.783 0.647 2.62 0.696 3.731-3.354 1.117-4.048-8.041-2.136-16.681-1.084-24.883-0.823-9.75 0.311-19.835 1.927-29.55 0.748-2.683-0.326-2.652 3.876 0 4.198v0z"></path>
<path d="M5.763 60.499c18.673 2.245 37.463 0.966 56.207 0.933 2.707-0.005 2.707-4.203 0-4.198-18.744 0.033-37.534 1.313-56.207-0.933-2.684-0.323-2.653 3.879 0 4.198v0z"></path>
<path d="M0.24 19.776c1.202 3.050 2.724 5.972 3.731 9.096 0.827 2.566 4.882 1.468 4.048-1.116-1.008-3.128-2.528-6.044-3.731-9.096-0.98-2.488-5.041-1.405-4.048 1.116v0z"></path>
<path d="M2.589 21.709c9.536-2.869 18.911-6.247 28.491-8.974 8.618-2.453 17.478-3.934 26.084-6.419 2.596-0.75 1.49-4.801-1.117-4.048-8.169 2.359-16.566 3.85-24.778 6.057-10.053 2.701-19.832 6.338-29.796 9.335-2.585 0.778-1.483 4.831 1.117 4.049v0z"></path>
<path d="M6.787 30.338c10.881-3.065 22.016-5.153 32.804-8.558 4.118-1.299 8.164-2.873 12.244-4.293 2.962-1.031 6.374-2.146 8.587-4.481 1.861-1.963-1.103-4.937-2.968-2.968-2.268 2.392-6.274 3.258-9.299 4.278-4.067 1.37-8.055 2.933-12.164 4.186-9.984 3.046-20.276 4.959-30.321 7.788-2.601 0.733-1.495 4.784 1.117 4.048v0z"></path>
<path d="M54.348 5.316c0.773 2.45 0.886 5.444 2.638 7.456 1.781 2.045 4.737-0.937 2.968-2.968 0.261 0.299-0.141-0.362-0.189-0.493-0.218-0.598-0.377-1.218-0.538-1.833-0.284-1.090-0.493-2.203-0.833-3.279-0.811-2.572-4.864-1.473-4.047 1.116v0z"></path>
<path d="M10.968 15.628c-0.773 3.619-2.069 7.098-2.799 10.728-0.401 1.993 1.947 3.603 3.508 2.042 0.233-0.233 0.467-0.467 0.7-0.7 1.916-1.915-1.052-4.884-2.968-2.968-0.234 0.233-0.467 0.467-0.7 0.7 1.169 0.681 2.339 1.362 3.508 2.042 0.73-3.63 2.026-7.109 2.799-10.728 0.563-2.64-3.483-3.762-4.048-1.115v0z"></path>
<path d="M18.898 12.597c-0.886 2.806-1.974 5.585-3.088 8.31-0.656 1.604-2.221 4.057-0.763 5.624 0.81 0.87 2.142 0.742 2.969 0 0.208-0.187 0.357-0.43 0.521-0.656 1.594-2.194-2.051-4.285-3.626-2.119 0.045-0.065 0.091-0.13 0.136-0.195 0.989 0 1.979 0 2.969 0-0.009-0.010-0.017-0.019-0.027-0.029 0.205 0.495 0.41 0.989 0.615 1.484-0.087 0.705 0.15-0.212 0.174-0.28 0.132-0.374 0.282-0.741 0.427-1.109 0.303-0.764 0.619-1.523 0.928-2.284 1.014-2.499 1.999-5.060 2.811-7.632 0.819-2.588-3.235-3.687-4.047-1.115v0z"></path>
<path d="M26.986 11.288c-0.342 4.262-2.289 8.191-3.423 12.27-0.727 2.613 3.323 3.72 4.048 1.116 1.248-4.488 3.197-8.69 3.573-13.385 0.218-2.7-3.982-2.679-4.197 0v0z"></path>
<path d="M34.449 9.423c-0.158 3.951-2.506 7.406-3.657 11.103-0.807 2.592 3.246 3.692 4.048 1.116 1.286-4.129 3.63-7.787 3.807-12.219 0.108-2.708-4.090-2.697-4.197 0v0z"></path>
<path d="M42.687 7.232c-0.584 2.968-1.080 5.965-2.066 8.833-0.655 1.902-1.099 4.307 1.433 4.943 2.627 0.659 3.741-3.389 1.117-4.048-0.111-0.028-0.222-0.056-0.334-0.084 0.418 0.321 0.836 0.643 1.255 0.965 0.51 0.802 0.299 0.119 0.578-0.66 0.332-0.922 0.582-1.87 0.828-2.818 0.513-1.981 0.844-4.009 1.238-6.016 0.52-2.643-3.526-3.771-4.048-1.115v0z"></path>
<path d="M51.528 4.865c-1.665 3.057-2.911 6.681-3.71 10.063-0.622 2.633 3.426 3.75 4.048 1.116 0.718-3.041 1.789-6.311 3.287-9.061 1.295-2.377-2.329-4.496-3.625-2.119v0z"></path>
</svg>
