<!-- Generated by IcoMoon.io -->
<svg version="1.1" xmlns="http://www.w3.org/2000/svg" width="64" height="64" viewBox="0 0 64 64">
<path d="M7.481 23.397c-0.343-0.343-0.686-0.572-1.258-0.8-6.517-1.715-6.631 7.775-5.945 11.89 0.8 5.145 4.916 9.718 10.633 8.346 5.373-1.258 8.117-6.974 6.517-12.119-1.486-4.573-5.488-6.974-9.947-7.317zM5.88 28.314c0-0.114 0.114-0.114 0 0v0zM10.111 37.117c-2.172 0.8-3.43-0.8-4.002-2.744-0.343-1.143-0.343-2.287-0.343-3.316 0-0.572 0.114-1.372 0.114-1.944 0 0 0-0.114 0-0.114 2.172-0.114 4.573 0.572 5.717 2.63 1.029 1.829 0.8 4.573-1.486 5.488z"></path>
<path d="M25.888 21.111c-2.172 0.229-3.087 2.401-2.63 4.002-2.287 4.116-1.601 9.604 2.058 12.691 3.773 3.201 9.832 3.201 13.148-0.572 3.201-3.43 3.43-8.918 0.343-12.462-3.087-3.659-8.346-4.23-12.919-3.659zM35.035 32.315c-0.915 2.058-3.43 2.63-5.373 1.486-2.515-1.372-2.287-4.573-0.8-6.631 0.114-0.114 0.114-0.229 0.229-0.457 3.544 0.229 7.889 1.372 5.945 5.602z"></path>
<path d="M62.017 25.798c-2.63-2.515-6.746-2.744-10.175-2.287-1.372 0.114-2.172 1.029-2.515 2.058-0.457 0.343-0.915 0.8-1.143 1.486-1.258 4.116-1.829 9.146 2.058 12.005s8.575 0 11.319-3.087c2.744-2.858 3.544-7.203 0.457-10.175zM58.015 31.515c-0.572 0.915-3.087 3.43-4.23 2.973-1.715-0.686-0.686-3.887-0.229-5.488 2.401 0 5.831 0.229 4.459 2.515z"></path>
</svg>
