<!-- Generated by IcoMoon.io -->
<svg version="1.1" xmlns="http://www.w3.org/2000/svg" width="64" height="64" viewBox="0 0 64 64">
<path d="M24.551 19.405c4.317 1.122 9.067 1.552 13.479 0.788 3.002-0.519 1.725-5.077-1.258-4.561-3.538 0.612-7.519 0.106-10.962-0.788-2.956-0.769-4.209 3.794-1.258 4.561v0z"></path>
<path d="M22.152 16.325c-5.387 8.035-12.042 16.452-12.523 26.514-0.527 11.067 11.114 18.809 20.745 20.795 10.949 2.257 20.481-6.236 23.349-16.341 3.508-12.358-7.71-22.022-14.084-30.968-1.754-2.461-5.86-0.102-4.086 2.387 5.162 7.244 13.314 14.023 13.997 23.461 0.345 4.779-2.331 9.105-5.442 12.466-4.056 4.379-9.136 5.376-14.767 3.896-8.581-2.253-16.479-9.385-14.6-18.78 1.557-7.782 7.179-14.605 11.496-21.042 1.704-2.542-2.396-4.906-4.086-2.387v0z"></path>
<path d="M25.734 12.704c1.959 0.572 4.413 0.125 6.399-0.032 1.812-0.143 4.459-0.002 6.067-0.995 2.591-1.597 0.217-5.691-2.387-4.085 0.742-0.458-0.326 0-0.761 0.055-1.12 0.144-2.247 0.24-3.372 0.329-1.002 0.080-2.007 0.135-3.011 0.171-0.449 0.017-0.899 0.019-1.347 0.013-0.634-0.009-0.285-0.005-0.33-0.018-2.936-0.855-4.18 3.71-1.258 4.563v0z"></path>
<path d="M20.337 3.955c0.631 1.598 1.487 3.091 2.361 4.565 0.733 1.235 1.48 2.697 2.668 3.55 1.049 0.754 2.63 0.185 3.236-0.848 0.698-1.191 0.196-2.485-0.849-3.236 0.74 0.532 0.106-0.079 0.51 0.461-0.161-0.215-0.308-0.442-0.456-0.665-0.413-0.625-0.799-1.269-1.181-1.913-0.364-0.613-0.714-1.235-1.055-1.861-0.172-0.315-0.337-0.634-0.497-0.955-0.055-0.11-0.426-0.988-0.177-0.354-0.473-1.198-1.565-2.022-2.909-1.652-1.142 0.313-2.125 1.707-1.651 2.908v0z"></path>
<path d="M20.551 4.408c2.069 2.442 5.157 3.028 8.225 2.933 1.566-0.049 3.149-0.401 4.643-0.848 1.571-0.47 3.609-2.405 5.154-1.518-0.283-1.079-0.566-2.157-0.849-3.236-0.912 1.987-2.175 3.765-3.154 5.716-1.363 2.718 2.717 5.115 4.086 2.387 0.978-1.951 2.241-3.729 3.154-5.716 0.535-1.164 0.349-2.548-0.849-3.236-2.964-1.702-5.267-0.702-8.103 0.788-2.502 1.314-7.013 1.683-8.96-0.616-1.977-2.332-5.305 1.031-3.346 3.344v0z"></path>
<path d="M39.212 27.655c-4.892-1.233-9.663-1.602-13.844 1.808-2.753 2.246-3.23 6.024 0.053 8.089 1.459 0.918 3.073 1.399 4.768 1.656 2.093 0.319 6.483-0.864 7.842 0.956 0.705 0.943-1.205 2.029-1.748 2.383-1.298 0.846-3.239 0.603-4.672 0.386-2.492-0.377-4.906-1.083-7.417-1.37-3.028-0.345-2.994 4.388 0 4.73 4.466 0.51 9.34 2.8 13.736 0.693 3.672-1.76 6.056-5.244 4.187-9.211-2.215-4.697-8.204-2.577-12.068-3.382-0.728-0.151-1.561-0.401-2.155-0.871-0.246-0.326-0.289-0.274-0.132 0.155 0.323-0.395 0.71-0.717 1.163-0.965 2.917-1.958 5.879-1.293 9.030-0.498 2.96 0.747 4.215-3.815 1.258-4.56v0z"></path>
<path d="M27.151 25.009c0.74 7.935 0.973 15.884 0.985 23.85 0.005 3.050 4.735 3.051 4.73 0-0.013-7.966-0.245-15.915-0.986-23.85-0.281-3.010-5.014-3.038-4.73 0v0z"></path>
<path d="M30.981 26.031c0.728 4.483 0.682 9.038 0.507 13.563-0.125 3.233 1.428 6.79 1.098 9.919 1.469-0.398 2.939-0.796 4.408-1.194-0.038-0.087-0.076-0.174-0.113-0.261-1.206-2.794-5.281-0.382-4.086 2.387 0.038 0.087 0.076 0.174 0.114 0.261 1.041 2.412 4.193 0.841 4.407-1.194 0.326-3.096-1.002-6.767-1.098-9.919-0.152-5.003 0.134-9.839-0.676-14.82-0.489-3.006-5.047-1.726-4.562 1.257v0z"></path>
</svg>
