<!-- Generated by IcoMoon.io -->
<svg version="1.1" xmlns="http://www.w3.org/2000/svg" width="64" height="64" viewBox="0 0 64 64">
<path d="M6.703 3.113c-0.064 5.040-0.703 10.040-0.885 15.074-0.178 4.913 0.546 9.821 0.713 14.726 0.171 5.004 0.065 10.048 0.162 15.060 0.072 3.73 0.659 7.945-0.093 11.61-0.56 2.727 3.616 3.888 4.177 1.152 0.713-3.473 0.25-7.010 0.229-10.524-0.030-5.32-0.222-10.631-0.128-15.953 0.087-4.909-0.681-9.807-0.745-14.716-0.072-5.484 0.833-10.943 0.903-16.428 0.035-2.795-4.297-2.792-4.333 0v0z"></path>
<path d="M8.834 4.3c5.268 1.751 10.711 0.729 16.101 0.258 6.765-0.591 13.614 0.634 20.399 0.361 2.784-0.112 2.794-4.445 0-4.333-6.351 0.256-12.677-0.51-19.027-0.415-5.496 0.082-10.925 1.745-16.321-0.049-2.659-0.884-3.79 3.301-1.152 4.178v0z"></path>
<path d="M43.464 3.846c2.348 4.218 6.554 6.673 9.387 10.47 1.65 2.211 5.414 0.056 3.742-2.186-2.808-3.764-7.090-6.341-9.387-10.47-1.359-2.441-5.102-0.257-3.742 2.186v0z"></path>
<path d="M52.916 13.403c-0.167 8.376-0.303 16.745 0.101 25.116 0.348 7.206 1.79 14.65 0.157 21.785 1.207-0.319 2.414-0.638 3.621-0.956 0.066 0.078 0.131 0.156 0.196 0.234-0.71-2.7-4.889-1.553-4.177 1.152 0.181 0.688 0.462 1.139 0.918 1.678 1.045 1.236 3.274 0.557 3.621-0.956 1.627-7.106 0.521-14.341 0.077-21.516-0.547-8.835-0.357-17.693-0.181-26.537 0.056-2.796-4.277-2.79-4.333 0v0z"></path>
<path d="M8.112 62.97c8.272 2.035 16.685 0.524 25.041-0.041 7.273-0.492 14.489 0.181 21.749 0.479 2.794 0.115 2.784-4.218 0-4.333-6.421-0.264-12.815-0.862-19.25-0.623-8.755 0.326-17.721 2.472-26.387 0.339-2.714-0.667-3.865 3.511-1.152 4.178v0z"></path>
<path d="M42.988 3.113c0.177 3.495 0.156 6.986-0.181 10.47-0.108 1.125 1.068 2.236 2.166 2.166 2.685-0.171 6.249 0.137 8.811 1.006 2.654 0.9 3.783-3.286 1.152-4.178-1.311-0.444-2.851-0.504-4.214-0.686-1.88-0.251-3.847-0.596-5.749-0.474 0.722 0.722 1.444 1.444 2.166 2.166 0.336-3.485 0.357-6.975 0.181-10.47-0.14-2.78-4.473-2.794-4.333 0v0z"></path>
</svg>
