<!-- Generated by IcoMoon.io -->
<svg version="1.1" xmlns="http://www.w3.org/2000/svg" width="64" height="64" viewBox="0 0 64 64">
<path d="M25.662 18.461c4.303-3.376 16.45-1.787 12.444 5.643-3.91 7.253-14.981 0.678-11.849-6.093 1.195-2.582-2.635-4.841-3.837-2.242-2.525 5.457-0.139 10.909 4.57 14.23 5.143 3.628 11.094 1.767 14.549-3.011 3.415-4.723 1.686-10.438-3.15-13.219-5.026-2.889-11.454-1.913-15.869 1.551-2.254 1.768 0.915 4.889 3.141 3.141v0z"></path>
<path d="M32.334 59.428c-1.36-0.253-2.732-3.374-3.391-4.457-1.14-1.873-2.136-3.855-3.427-5.631-4.084-5.617-7.684-10.983-9.65-17.736-2.071-7.111-2.77-14.426 2.144-20.549 4.3-5.357 12.283-7.268 18.822-6.341 10.432 1.48 14.477 15.876 12.272 24.669-1.748 6.974-5.3 13.716-9.279 19.667-2.28 3.41-5.173 8.928-8.955 10.85-2.555 1.298-0.306 5.132 2.242 3.837 4.68-2.379 8.149-8.854 10.96-13.060 4.412-6.598 8.897-15.028 9.869-23.016 1.504-12.365-5.343-26.314-18.665-27.562-7.448-0.698-15.357 2.353-20.409 7.815-5.432 5.873-5.755 13.901-4.212 21.321 1.694 8.141 5.585 15.33 10.639 21.854 2.647 3.418 5.060 11.731 9.858 12.624 2.801 0.522 3.996-3.76 1.181-4.284v0z"></path>
</svg>
