<!-- Generated by IcoMoon.io -->
<svg version="1.1" xmlns="http://www.w3.org/2000/svg" width="64" height="64" viewBox="0 0 64 64">
<path d="M9.551 61.553c0.073-3.641 0.543-7.27 0.738-10.906 0.265-4.948-0.404-9.92-0.777-14.846-0.839-11.099-0.628-22.489 0.63-33.543 0.344-3.027-4.387-2.994-4.728 0-1.213 10.657-1.235 21.429-0.721 32.133 0.245 5.098 0.979 10.153 0.905 15.267-0.058 3.975-0.695 7.922-0.775 11.895-0.061 3.051 4.666 3.045 4.728 0v0z"></path>
<path d="M5.91 4.52c3.235 2.921 7.239 4.261 10.919 6.476 4.444 2.675 8.817 5.496 13.199 8.274 4.454 2.824 8.81 5.762 13.425 8.327 4.101 2.28 9.018 3.242 12.775 6.053 2.444 1.828 4.796-2.28 2.386-4.082-3.062-2.291-6.821-3.138-10.244-4.728-4.759-2.21-9.194-5.238-13.578-8.096-4.358-2.84-8.788-5.565-13.195-8.325-3.971-2.487-8.862-4.099-12.344-7.241-2.256-2.038-5.61 1.295-3.343 3.343v0z"></path>
<path d="M9.056 63.421c14.221-11.732 32.636-16.649 47.391-27.604 2.418-1.795 0.065-5.902-2.386-4.082-15.093 11.205-33.781 16.325-48.348 28.343-2.354 1.942 1.011 5.268 3.343 3.343v0z"></path>
</svg>
