<!-- Generated by IcoMoon.io -->
<svg version="1.1" xmlns="http://www.w3.org/2000/svg" width="64" height="64" viewBox="0 0 64 64">
<path d="M33.068 49.583c-8.611 4.214-20.427 0.641-24.458-8.244-4.122-9.069 0.916-20.061 9.618-24 0.916-0.366 1.191-1.099 1.191-1.832 0.824 0.458 1.466 1.191 1.74 2.107 0.366 1.191 0 2.84 0 4.030-0.092 2.748-0.183 5.404-0.458 8.153-0.275 2.931 4.305 2.931 4.58 0 0.366-4.305 0.733-8.702 0.458-13.007-0.092-2.015-0.458-4.030-2.29-5.313-2.107-1.466-5.863-1.374-8.244-1.649-4.305-0.55-8.611-1.099-13.007-1.649-2.931-0.366-2.931 4.214 0 4.58 3.847 0.458 8.336 0.55 12.366 1.282-10.168 5.496-15.023 19.053-9.893 29.587 5.313 11.175 19.877 15.206 30.687 9.893 2.657-1.282 0.366-5.221-2.29-3.939z"></path>
<path d="M61.098 41.706c-3.847 0.641-7.878 1.099-11.725 1.74 3.114-6.595 3.756-14.29 1.191-21.343-2.107-5.954-8.061-13.007-14.931-9.16-2.565 1.466-0.275 5.404 2.29 3.939 3.114-1.74 6.137 2.107 7.328 4.397 1.282 2.473 2.015 5.404 2.198 8.244 0.366 5.038-0.916 9.801-3.481 14.198-0.092 0.275-0.092 0.55-0.183 0.824-0.183-0.092-0.366-0.275-0.733-0.641-0.824-0.824-1.008-3.206-1.374-4.397-0.916-2.931-1.832-5.771-2.748-8.702-0.916-2.84-5.313-1.649-4.397 1.191 1.282 4.031 2.565 8.153 3.847 12.183 0.641 2.015 1.099 4.030 3.298 4.763 2.473 0.733 5.862-0.458 8.336-0.916 4.122-0.641 8.244-1.374 12.366-2.015 2.84-0.366 1.649-4.763-1.282-4.305z"></path>
</svg>
