<!-- Generated by IcoMoon.io -->
<svg version="1.1" xmlns="http://www.w3.org/2000/svg" width="64" height="64" viewBox="0 0 64 64">
<path d="M4.652 63.358c7.101-6.78 13.494-14.237 19.833-21.722 1.877-2.216-1.313-5.439-3.205-3.205-6.339 7.485-12.732 14.941-19.833 21.722-2.119 2.022 1.092 5.223 3.205 3.205v0z"></path>
<path d="M21.371 18.69c0.329-5.201 5.583-9.696 9.638-12.326 5.154-3.342 12.225-1.872 17.365 0.759 4.323 2.213 7.419 6.174 9.044 10.686 1.98 5.5 1.261 10.479-1.726 15.41-3.124 5.157-6.767 8.164-12.627 9.697-4.887 1.279-9.659 0.755-14.158-1.525-8.479-4.296-10.557-14.039-7.994-22.666 0.834-2.809-3.541-4.001-4.371-1.205-3.446 11.601 0.534 23.5 11.816 28.619 5.829 2.645 11.951 2.373 17.969 0.571 7.217-2.161 11.716-7.777 15-14.302 5.667-11.261-1.953-25.812-12.983-30.289-6.701-2.72-14.166-3.207-20.41 0.842-5.286 3.427-10.68 9.161-11.095 15.729-0.184 2.921 4.35 2.903 4.533 0v0z"></path>
<path d="M46.968 15.948c4.709 5.289 3.541 12.821 0.023 18.409-1.562 2.482 2.362 4.755 3.915 2.288 4.669-7.417 5.337-17.086-0.733-23.901-1.948-2.187-5.143 1.030-3.205 3.205v0z"></path>
</svg>
