<!-- Generated by IcoMoon.io -->
<svg version="1.1" xmlns="http://www.w3.org/2000/svg" width="64" height="64" viewBox="0 0 64 64">
<path d="M15.36 14.716c7.759 0 15.519 0 23.278 0 2.802 3.688 10.165 3.896 12.898 0 1.859 0 3.719 0 5.578 0 2.465 0 5.964-0.004 6.734-3.006 1.388-5.414-9.427-3.839-12.14-3.839-0.027 0-0.060 0.003-0.089 0.003-0.983-1.904-2.729-3.254-5.23-3.53-3.113-0.343-6.295 0.932-7.856 3.526-7.65 0-15.3 0-22.95 0-2.974 0-15.329-1.938-15.578 3.629-0.234 5.21 12.839 3.217 15.356 3.217zM55.402 10.033c1.615 0 4.253-0.654 4.887 1.292 0.377 1.156 0.177 1.228-0.779 1.228-1.065 0-2.129 0-3.194 0-1.287 0-2.575 0-3.862 0 0.050-0.256 0.087-0.521 0.107-0.798-0.018-0.595-0.101-1.166-0.214-1.722 1.018 0 2.037 0 3.055 0zM8.052 10.033c3.98 0 7.96 0 11.94 0 5.894 0 11.789 0 17.683 0-0.18 0.922-0.17 1.761-0.014 2.52-4.8 0-9.599 0-14.399 0-4.111 0-8.221 0-12.331 0-1.955 0-5.277 0.712-6.674-0.733-2.533-2.617 2.314-1.787 3.795-1.787zM49.519 29.553c-8.071 0-16.142 0-24.213 0-0.852-2.163-2.599-3.747-5.264-4.042-3.204-0.354-6.529 1.066-7.861 3.954-4.311-0.252-12.307-0.703-12.173 3.727 0.091 3 3.58 2.676 5.672 2.676 2.452 0 4.904 0 7.356 0 2.776 2.887 8.777 3.027 11.499 0 7.425 0 14.849 0 22.274 0 3.31 0 13.894 1.831 16.413-1.789 4.314-6.199-11.87-4.526-13.704-4.526zM9.748 34.236c-1.459 0-4.44 0.602-5.573-0.51-0.171-0.168-0.968-2.296-0.747-2.54 0.078-0.086 0.638 0.024 0.745 0 0.863-0.195 1.982 0 2.861 0 1.546 0 3.093 0 4.639 0-0.185 1.156-0.064 2.176 0.295 3.051-0.74 0-1.479 0-2.219 0zM60.396 33.714c-0.536 1.689-15.719 0.522-18.044 0.522-5.606 0-11.211 0-16.817 0 0.198-0.513 0.335-1.072 0.38-1.691-0.014-0.465-0.061-0.919-0.137-1.36 5.186 0 10.373 0 15.559 0 1.924 0 20.337-1.503 19.059 2.528zM55.346 50.704c-4.768 0-9.537 0-14.305 0-0.914-1.919-2.598-3.296-5.066-3.569-3.051-0.337-6.188 0.954-7.633 3.569-5.439 0-10.879 0-16.318 0-2.948 0-11.878-1.356-12.021 3.629-0.135 4.72 8.869 3.218 11.502 3.218 5.839 0 11.677 0 17.516 0 2.781 2.813 8.661 2.945 11.391 0 4.285 0 8.569 0 12.854 0 2.974 0 9.166 1.032 10.48-2.718 1.727-4.926-5.845-4.129-8.4-4.129zM18.292 55.386c-3.053 0-11.864 1.534-14.045-0.732-2.335-2.426 1.291-1.786 2.743-1.786 2.837 0 5.673 0 8.51 0 4.032 0 8.064 0 12.096 0-0.141 0.929-0.090 1.773 0.132 2.518-3.145 0-6.29 0-9.435 0zM60.373 54.86c-0.464 1.343-8.471 0.527-10.121 0.527-2.875 0-5.75 0-8.625 0 0.109-0.382 0.19-0.784 0.221-1.218-0.013-0.444-0.056-0.878-0.126-1.3 2.501 0 5.003 0 7.504 0 1.017 0 12.192-1.035 11.147 1.992z"></path>
</svg>
