<!-- Generated by IcoMoon.io -->
<svg version="1.1" xmlns="http://www.w3.org/2000/svg" width="64" height="64" viewBox="0 0 64 64">
<path d="M51.253 24.48c-11.209-8.22-27.274-8.842-38.607-0.249-10.586 7.97-14.82 21.919-11.582 34.497 0.996 3.861 6.974 2.242 5.978-1.619-2.74-10.461 0.996-22.292 10.088-28.519 9.465-6.476 21.919-5.231 30.886 1.37 3.362 2.242 6.476-3.113 3.238-5.48z"></path>
<path d="M58.601 21.491c-4.11-5.729-8.095-11.333-12.205-17.062-2.242-3.238-7.721-0.125-5.355 3.113 2.74 3.736 5.355 7.597 8.095 11.333 1.37 1.868 2.74 3.736 4.11 5.729 0.374 0.498 4.11 5.106 4.11 5.729-0.374 2.491-8.593 6.974-10.586 8.469-3.736 2.74-7.721 5.231-11.582 7.721-3.363 2.117-0.249 7.472 3.113 5.355 5.604-3.487 11.084-7.099 16.315-11.084 2.989-2.242 8.593-5.106 9.34-9.216 0.498-3.736-3.362-7.348-5.355-10.088z"></path>
</svg>
