<!-- Generated by IcoMoon.io -->
<svg version="1.1" xmlns="http://www.w3.org/2000/svg" width="64" height="64" viewBox="0 0 64 64">
<path d="M26.459 24.605c2.615-6.637 3.824-13.759 7.239-20.076 1.305-2.416-2.371-4.566-3.678-2.149-3.597 6.655-4.915 14.105-7.667 21.093-1.008 2.558 3.112 3.656 4.106 1.131v0z"></path>
<path d="M29.273 4.552c1.858 6.621 5.169 12.565 6.27 19.415 0.326-0.801 0.652-1.604 0.979-2.405-0.079 0.035-0.158 0.070-0.236 0.105-2.506 1.114-0.337 4.782 2.149 3.678 0.079-0.035 0.158-0.070 0.236-0.105 0.924-0.411 1.119-1.534 0.978-2.405-1.1-6.845-4.413-12.796-6.27-19.415-0.74-2.64-4.849-1.517-4.106 1.132v0z"></path>
<path d="M2.046 26.878c7.698 0.622 15.371-0.466 23.069-0.532 2.745-0.023 2.748-4.282 0-4.259-7.698 0.066-15.371 1.154-23.069 0.532-2.739-0.221-2.718 4.039 0 4.259v0z"></path>
<path d="M37.681 25.915c7.444 1.899 15.173-0.677 22.537 1.42 2.647 0.754 3.769-3.356 1.132-4.107-7.425-2.114-15.118 0.473-22.537-1.42-2.663-0.679-3.792 3.428-1.132 4.107v0z"></path>
<path d="M43.426 40.466c4.155-1.69 7.91-4.034 11.688-6.426 3.047-1.928 6.657-3.387 8.572-6.62 1.403-2.369-2.279-4.51-3.678-2.149-1.444 2.437-4.695 3.691-7.044 5.092-3.516 2.097-6.856 4.445-10.671 5.996-2.508 1.021-1.413 5.142 1.132 4.107v0z"></path>
<path d="M1.681 26.764c5.603 4.001 10.27 9.088 15.362 13.686 2.032 1.836 5.054-1.167 3.011-3.011-5.37-4.85-10.313-10.13-16.224-14.352-2.24-1.6-4.363 2.096-2.149 3.677v0z"></path>
<path d="M15.279 60.805c1.65-6.723 2.014-14.041 5.287-20.253 1.279-2.428-2.397-4.58-3.678-2.149-3.475 6.598-3.965 14.137-5.715 21.271-0.655 2.667 3.452 3.798 4.106 1.131v0z"></path>
<path d="M15.034 62.115c7.329-2.763 11.24-9.898 17.722-13.879 2.335-1.434 0.198-5.118-2.149-3.678-6.047 3.713-9.974 10.913-16.704 13.449-2.545 0.96-1.443 5.078 1.131 4.108v0z"></path>
<path d="M30.971 48.882c3.387 0.128 6.162 2.997 8.432 5.232 2.927 2.883 6.373 5.213 9.405 7.985 2.022 1.849 5.042-1.154 3.011-3.011-3.481-3.184-7.271-5.982-10.695-9.233-2.817-2.673-6.156-5.082-10.152-5.233-2.748-0.104-2.737 4.155 0 4.259v0z"></path>
<path d="M40.845 40.020c3.671 6.561 6.619 13.396 8.126 20.785 0.548 2.69 4.653 1.549 4.106-1.132-1.576-7.731-4.716-14.942-8.555-21.803-1.342-2.396-5.020-0.249-3.678 2.15v0z"></path>
</svg>
