<!-- Generated by IcoMoon.io -->
<svg version="1.1" xmlns="http://www.w3.org/2000/svg" width="64" height="64" viewBox="0 0 64 64">
<path d="M24.831 20.827c1.952-5.599 5.783-10.298 8.418-15.568 1.358-2.715-2.715-5.106-4.077-2.383-2.831 5.659-6.795 10.675-8.894 16.696-1.006 2.882 3.557 4.111 4.552 1.254v0z"></path>
<path d="M29.345 5.541c1.722 1.528 2.865 3.863 3.977 5.838 1.017 1.806 3.449 5.4 3.088 7.604-0.488 2.978 4.061 4.254 4.552 1.255 0.532-3.246-1.142-6.472-2.539-9.304-1.453-2.945-3.241-6.512-5.741-8.731-2.267-2.015-5.619 1.313-3.337 3.337v0z"></path>
<path d="M3.116 26.805c6.775-0.993 13.555-1.959 20.263-3.344 2.981-0.616 1.716-5.167-1.255-4.553-6.709 1.387-13.488 2.351-20.263 3.344-3.003 0.441-1.722 4.989 1.255 4.553v0z"></path>
<path d="M0.623 26.787c4.489 5.070 7.077 11.567 12.394 15.935 2.332 1.916 5.693-1.404 3.338-3.338-5.279-4.337-7.916-10.879-12.394-15.935-2.022-2.284-5.349 1.068-3.338 3.338v0z"></path>
<path d="M12.325 41.447c0.17 2.827 0.024 5.692-0.065 8.52-0.057 1.81-0.142 3.62-0.256 5.427-0.052 0.83-0.123 1.658-0.206 2.486-0.088 0.875-0.565 1.084 0.234 0.39-2.303 2 1.051 5.326 3.338 3.338 1.848-1.606 1.372-6.312 1.482-8.446 0.198-3.876 0.427-7.836 0.194-11.716-0.181-3.024-4.904-3.042-4.721 0.001v0z"></path>
<path d="M14.697 62.174c5.624-2.635 9.431-9.386 15.764-10.385 3.001-0.474 1.723-5.023-1.255-4.553-6.952 1.096-10.827 8.020-16.892 10.862-2.756 1.291-0.357 5.36 2.383 4.076v0z"></path>
<path d="M28.643 51.551c5.637 4.049 11.775 7.212 18.563 8.786 2.963 0.687 4.22-3.866 1.255-4.553-6.421-1.488-12.109-4.483-17.436-8.309-2.478-1.781-4.832 2.317-2.383 4.076v0z"></path>
<path d="M43.492 38.73c0.983 6.183 1.508 12.427 2.664 18.583 0.561 2.99 5.111 1.72 4.552-1.255-1.155-6.155-1.681-12.401-2.664-18.583-0.476-3-5.025-1.722-4.552 1.255v0z"></path>
<path d="M47.635 40.362c5.749-4.537 10.68-9.93 15.701-15.234 2.092-2.209-1.242-5.553-3.338-3.338-5.022 5.304-9.952 10.696-15.701 15.234-2.389 1.885 0.977 5.202 3.338 3.338v0z"></path>
<path d="M38.453 22.477c7.653 1.605 15.206 3.244 23.069 2.51 3.004-0.28 3.032-5.004 0-4.721-7.458 0.696-14.555-0.82-21.814-2.343-2.971-0.622-4.234 3.929-1.255 4.554v0z"></path>
</svg>
