<!-- Generated by IcoMoon.io -->
<svg version="1.1" xmlns="http://www.w3.org/2000/svg" width="64" height="64" viewBox="0 0 64 64">
<path d="M20.786 32.526c0.128-6.367 3.107-10.176 9.369-11.684 6.656-1.603 13.003 4.175 13.072 10.705 0.071 6.694-5.792 9.979-11.585 11.43-7.111 1.78-9.576-5.469-10.931-10.66-0.684-2.623-4.743-1.51-4.057 1.118 0.908 3.48 1.635 6.676 3.952 9.516 2.59 3.177 7.125 4.945 11.153 4.254 3.861-0.661 8.070-2.482 11.062-5.059 3.257-2.804 4.382-6.4 4.614-10.599 0.466-8.472-7.678-15.302-15.712-15.125-9.311 0.206-14.969 7.316-15.144 16.104-0.054 2.715 4.154 2.71 4.207 0v0z"></path>
<path d="M29.276 4.333c0.338 1.907 0.186 3.869 0.526 5.785 0.201 1.13 1.561 1.752 2.588 1.469 1.182-0.325 1.67-1.46 1.469-2.588-0.338-1.907-0.186-3.869-0.526-5.785-0.201-1.13-1.561-1.752-2.588-1.469-1.181 0.325-1.67 1.46-1.469 2.588v0z"></path>
<path d="M49.196 17.337c1.536-1.169 2.919-2.472 4.283-3.835 1.921-1.92-1.055-4.895-2.975-2.975-1.097 1.097-2.194 2.235-3.431 3.177-0.911 0.693-1.388 1.798-0.755 2.878 0.527 0.899 1.964 1.451 2.879 0.755v0z"></path>
<path d="M53.569 34.279c2.817-0.050 5.595-0.626 8.415-0.351 2.701 0.263 2.675-3.947 0-4.207-2.82-0.275-5.598 0.3-8.415 0.351-2.71 0.048-2.715 4.257 0 4.207v0z"></path>
<path d="M46.318 49.015c0.927 1.939 2.74 3.456 4.362 4.809 0.879 0.734 2.11 0.865 2.975 0 0.756-0.756 0.881-2.239 0-2.975-1.396-1.166-2.963-2.41-3.703-3.957-0.495-1.034-1.952-1.298-2.878-0.755-1.050 0.614-1.25 1.844-0.756 2.878v0z"></path>
<path d="M28.925 55.525c0.336 1.746 0.54 3.513 0.877 5.259 0.217 1.127 1.548 1.755 2.588 1.469 1.169-0.321 1.686-1.463 1.469-2.588-0.336-1.746-0.54-3.513-0.877-5.259-0.217-1.127-1.548-1.755-2.588-1.469-1.169 0.322-1.686 1.463-1.469 2.588v0z"></path>
<path d="M13.136 54.274c0.833-1.406 2.444-2.372 3.803-3.278 0.952-0.635 1.36-1.844 0.755-2.878-0.554-0.945-1.924-1.392-2.878-0.755-1.975 1.317-4.076 2.701-5.313 4.787-1.388 2.339 2.25 4.454 3.633 2.123v0z"></path>
<path d="M2.027 34.104c2.183 0.131 4.322-0.323 6.487-0.526 1.142-0.107 2.104-0.876 2.104-2.104 0-1.066-0.96-2.211-2.104-2.104-2.164 0.203-4.304 0.657-6.487 0.526-2.711-0.163-2.696 4.046 0 4.207v0z"></path>
<path d="M9.381 14.181c2.213 1.261 4.036 3.005 6.463 3.893 1.078 0.395 2.303-0.433 2.588-1.469 0.323-1.175-0.394-2.194-1.469-2.588-2.014-0.738-3.609-2.417-5.459-3.47-2.361-1.344-4.48 2.291-2.123 3.633v0z"></path>
</svg>
