<!-- Generated by IcoMoon.io -->
<svg version="1.1" xmlns="http://www.w3.org/2000/svg" width="64" height="64" viewBox="0 0 64 64">
<path d="M29.434 2.696c1.198 7.469 0.727 15.001 0.842 22.524 0.031 2.039 2.243 2.615 3.663 1.517 0.091-0.071 0.182-0.141 0.273-0.212 2.186-1.692-0.875-4.705-3.033-3.034-0.092 0.071-0.182 0.142-0.274 0.212 1.221 0.506 2.441 1.012 3.662 1.517-0.121-7.927 0.267-15.796-0.995-23.664-0.437-2.726-4.571-1.565-4.137 1.141v0z"></path>
<path d="M31.171 23.654c-3.334 0.736-5.515 4.088-5.373 7.412 0.166 3.86 3.831 6.165 7.467 5.718 3.437-0.421 5.015-3.241 4.511-6.487-0.471-3.031-3.266-5.567-6.18-6.167-2.7-0.556-3.849 3.58-1.14 4.137 1.331 0.274 2.469 1.058 2.968 2.368 0.222 0.584 0.26 1.040 0.165 1.432-0.055 0.229-0.074 0.297-0.595 0.443-3.605 1.012-3.695-4.055-0.684-4.72 2.702-0.594 1.556-4.731-1.14-4.136v0z"></path>
<path d="M19.714 28.529c2.165-1.567 3.999-3.488 5.862-5.393 1.983-2.028 4.197-4.679 6.973-5.594 2.615-0.861 1.495-5.005-1.14-4.137-5.886 1.938-9.046 7.934-13.86 11.419-2.218 1.606-0.080 5.33 2.165 3.705v0z"></path>
<path d="M31.373 17.802c2.704 1.879 5.109 4.229 7.713 6.246 1.769 1.37 4.998 4.427 7.525 3.505 2.577-0.94 1.464-5.088-1.141-4.137 0.29-0.106 0.546 0.104-0.058-0.198-0.528-0.265-1.022-0.601-1.513-0.926-1.446-0.956-2.795-2.059-4.139-3.15-2.066-1.677-4.037-3.523-6.224-5.043-2.278-1.585-4.419 2.136-2.165 3.703v0z"></path>
<path d="M17.347 62.592c5.212 1.762 11.363 1.47 16.801 1.221 2.263-0.104 4.524-0.295 6.782-0.455 0.934-0.066 1.868-0.129 2.802-0.184 0.328-0.020 2.056 0.046 1.501-0.104 2.674 0.728 3.807-3.412 1.141-4.137-3-0.817-7.143 0.265-10.19 0.469-5.668 0.381-12.287 0.883-17.697-0.945-2.628-0.89-3.746 3.256-1.14 4.137v0z"></path>
<path d="M16.487 26.677c-0.887 11.424-0.295 22.89-0.953 34.323-0.159 2.765 4.132 2.75 4.29 0 0.659-11.433 0.067-22.899 0.953-34.323 0.215-2.761-4.078-2.74-4.29 0v0z"></path>
<path d="M47.396 60.617c1.774-11.628 0.825-23.426 0.792-35.132-0.008-2.767-4.298-2.767-4.29 0 0.032 11.288 1.073 22.778-0.639 33.991-0.413 2.706 3.721 3.869 4.137 1.141v0z"></path>
</svg>
