<!-- Generated by IcoMoon.io -->
<svg version="1.1" xmlns="http://www.w3.org/2000/svg" width="64" height="64" viewBox="0 0 64 64">
<path d="M43.538 9.164c0.562 0.094 1.218-0.187 1.78-0.187 0.281 0 0.468 0.094 0.75 0.094s0.562 0 0.843 0c0.094 0 0.375 0.187 0.656 0.094 0.375-0.094 1.124 0 1.78 0 0.187 0 0.562 0 0.75 0 0 0 0 0.094 0.094 0.094 0.562 0 1.405 0 2.155 0.094 0 0 0 0.094 0.094 0.094s0.281 0 0.468 0c0.281 0.094 1.124 0.094 1.499 0.281 0.468 0.187 1.031 0.562 1.499 0.937 0.094 0.094 0.187 0.281 0.281 0.375 0.187 0.187 0.375 0.375 0.656 0.656 0.094 0.094 0.094 0.094 0.187 0.187 0 0 0 0.187 0 0.187 0.094 0.094 0.187 0.562 0.281 0.937s0.187 0.75 0.281 1.124c0 0 0 0.187 0 0.187 0.094 0.094 0.094 0.094 0.094 0.281 0 0 0 0.187 0 0.187 0.094 0.094 0.094 0.094 0.094 0.281 0 0 0 0.187 0 0.187 0.281 0.281 0.187 1.499 0.281 2.155 0 0.281 0.094 0.468 0.094 0.75 0 0.843 0 1.78-0.094 2.624 0 0.281 0 0.562-0.094 0.75-0.094 0.281-0.281 0.375-0.281 0.656-0.375 0.281-0.75 0.187-1.124 0.375 0 0 0 0.094-0.094 0.094s-0.094 0.094-0.187 0.094c-0.094 0-0.281 0-0.375 0-0.187 0-0.375 0.187-0.562 0.187-0.468 0.094-0.843 0.094-1.312 0.187-0.375 0.094-0.843 0-1.124 0.281-0.281 0.843 0 1.593 0.094 2.436 0 0.562-0.187 1.312 0 1.968 0-0.094 0.281 0.468 0.094 0.656 0 0-0.094 0-0.094 0 0 1.312 0.094 2.53 0.187 3.842 0 0.187 0 0.468 0 0.75 0.094 0.843 0.094 2.061 0.187 3.092 0 0.375 0.187 0.843 0.187 1.218 0 0.468 0 1.031 0.094 1.405 0.094 0.187 0 0.75 0 1.124 0 0.843 0.094 1.78 0.281 2.53 0 0.094 0 0.281 0 0.562 0 0.468 0.094 1.218 0.094 1.874 0 0.375 0.094 0.843 0.094 1.218 0 0.843-0.468 1.593-0.281 2.436 0 0 0.094 0 0.094 0.094 0 0 0 0.094 0 0.094 0.094 0.187 0.187 0.468 0.281 0.75 0.094 0.75-0.094 1.593 0 2.342 0 0.281 0.094 0.562 0.187 0.843 0 0 0.094 0 0.094 0.094 0 0.562 0.094 1.124 0.187 1.78s0.094 1.218-0.094 1.968c0 0.094 0 0.094 0 0.187-0.094 0.187-0.187 0.937-0.281 1.312s-0.375 0.843-0.562 1.312c0 0.094 0 0.094 0 0.187 0 0-0.094 0.281-0.094 0.281-0.094 0.094-0.094 0.187-0.187 0.281-0.094 0.187-0.468 0.375-0.656 0.656-0.094 0.187-0.375 0.375-0.562 0.562 0 0-0.094 0.094-0.094 0.094-0.094 0.094-0.187 0-0.375 0.094 0 0 0 0.094-0.094 0.094s-0.281 0.187-0.468 0.281c-0.187 0.094-0.375 0.187-0.656 0.281-0.094 0-0.187 0-0.375 0.094-0.094 0-0.094 0.187-0.187 0.187-0.187 0.094-0.375 0.094-0.75 0.187-0.094 0-0.375 0.094-0.562 0.187-0.094 0-0.375 0.187-0.656 0.281-0.094 0.094-0.281 0.094-0.656 0.187-0.094 0-0.187 0.094-0.375 0.094 0 0-0.281 0.187-0.468 0.187s-0.281 0-0.468 0c-0.468 0-1.218 0.187-1.874 0.281-0.937 0.094-1.874 0-2.998 0.094-0.094 0-0.094 0-0.187 0-0.75 0.187-2.436 0.094-3.561 0.094s-2.155-0.094-3.279-0.187c0 0 0-0.094-0.094-0.094-0.281 0-0.75 0-1.124 0-0.843-0.562-2.624-0.562-4.029-0.656-0.281 0-0.468-0.094-0.75-0.094-0.094 0-0.281 0.094-0.468 0.094-0.468 0.094-1.031 0.094-1.499 0.094-0.656 0-1.312 0.094-1.968 0.094-1.78 0.094-3.561-0.094-5.060-0.562 0 0 0-0.094-0.094-0.094-0.281 0-0.468-0.187-0.75-0.281 0 0-0.187 0-0.187 0s0-0.094 0-0.094c-0.187-0.094-0.468-0.094-0.656-0.187-0.094 0-0.375-0.094-0.562-0.187 0 0 0-0.094-0.094-0.094s-0.187-0.187-0.375-0.187c-0.094 0-0.187-0.187-0.375-0.187-0.094 0-0.281-0.094-0.375-0.094-0.187-0.187-0.375-0.281-0.75-0.468-0.094 0 0-0.094-0.094-0.094-0.281 0-0.562-0.468-0.75-0.75-0.187-0.187-0.375-0.468-0.562-0.75 0-0.094-0.094 0-0.094-0.094s-0.187-0.094-0.281-0.281c-0.094-0.094-0.094-0.187-0.187-0.375 0-0.094-0.094 0-0.094-0.094 0 0-0.094-0.094-0.094-0.187s-0.094-0.468-0.187-0.656c0-0.094 0-0.187-0.094-0.375 0-0.094 0-0.187-0.094-0.375-0.281-0.843-0.281-2.342-0.375-3.561 0 0-0.094 0-0.094-0.094 0-0.375 0.094-1.031 0-1.499 0 0-0.094-0.094-0.094-0.094-0.094-1.499-0.281-2.905-0.375-4.31 0-0.281-0.094-0.562-0.094-0.75-0.094-0.562-0.094-1.124-0.094-1.78 0 0-0.094 0-0.094-0.094 0-0.281 0-0.843 0-1.218 0-0.468-0.094-1.405-0.094-2.155 0 0-0.094 0-0.094-0.094 0-0.281 0.094-0.375 0.094-0.75 0-0.281 0-0.562 0-0.843 0 0 0.094 0 0.094-0.094 0-0.468 0.094-1.124 0.094-1.593 0-0.843-0.094-1.687-0.094-2.717 0-0.187 0-0.281 0-0.468-0.094-1.218 0-3.186-0.187-4.498 0-0.094 0-0.281 0-0.375s-0.094-0.094-0.094-0.187c0-0.375 0-0.75 0-1.124 0-0.75-0.094-1.499-0.094-2.155 0-0.75 0.187-1.499 0.187-2.342-0.281-0.375-0.75-0.187-1.218-0.281-0.656-0.094-1.405-0.281-2.155-0.375-0.468-0.094-1.031-0.094-1.312-0.468-0.375-0.562 0-1.593-0.187-2.436 0 0-0.094-0.094-0.094-0.094-0.094-0.937 0-1.687-0.094-2.53 0-0.094-0.094-0.187-0.094-0.281-0.094-0.843 0.094-2.249 0.094-3.092 0-0.469 0-0.843 0.094-1.312 0-0.187 0-0.469 0.094-0.656 0 0 0.187-0.187 0.187-0.187 0-0.094 0-0.187 0-0.281s0.187-0.094 0.187-0.187c0 0 0-0.187 0-0.187s0.094 0 0.094 0c0.187-0.281 0.281-0.562 0.375-0.75 0.281-0.281 0.75-0.281 1.124-0.469 0 0 0-0.094 0.094-0.094 0 0 0.094-0.094 0.187-0.094s0.187 0 0.281-0.094c0.094 0 0.094-0.187 0.187-0.187 0.375-0.187 1.593-0.094 2.342-0.094 0.281 0 0.656-0.094 0.937-0.094 0.469 0 1.031 0.187 1.499 0 0 0 0.187-0.187 0.187-0.187 0.187-0.094 0.375-0.094 0.656-0.094 0.562-0.094 1.031 0.094 1.593 0.094 0.468 0 1.312-0.187 1.968-0.187 0.937 0 2.061-0.094 3.092-0.187 0.375-0.094 0.281-0.562 0.375-0.75s0.094-0.281 0.187-0.468c0.094-0.187 0.094-0.375 0.187-0.562s0.187-0.468 0.281-0.75c0.094-0.281 0.187-0.562 0.281-0.75 0-0.094 0.187-0.094 0.187-0.187 0.094-0.094 0-0.187 0.094-0.281 0.187-0.281 0.281-0.562 0.562-0.843 0.094-0.094 0.094-0.094 0.187-0.187 0 0 0-0.187 0-0.187s0.094 0 0.094 0c0.094-0.094 0-0.187 0.094-0.281 0-0.094 0.187-0.094 0.187-0.187 0.094-0.094 0-0.187 0.094-0.281 0 0 0.187-0.094 0.187-0.094 0.094-0.094 0-0.187 0.094-0.281s0.094-0.094 0.187-0.187c0.281-0.375 0.562-0.562 0.937-0.843 0.094 0 0-0.094 0.094-0.094 0.187 0 0.187-0.187 0.375-0.281 0 0 0.187 0 0.187 0s0.094-0.187 0.094-0.187c0.094-0.094 0.187 0 0.281-0.094 0 0 0.094-0.187 0.094-0.187s0.094 0 0.187 0c0.094-0.094 0.094-0.094 0.187-0.187s0.187 0 0.375-0.094c0.094 0 0.094-0.187 0.187-0.187 0.094-0.094 0.187 0 0.375-0.094 0 0 0-0.094 0.094-0.094s0.187 0 0.375-0.094c0.094 0 0.187-0.094 0.281-0.094s0.468-0.187 0.75-0.281c0.094 0 0.281 0 0.375 0 1.124-0.187 2.905 0 4.123 0.281 0.094 0 0.094 0 0.187 0 0.281 0.094 0.937 0.281 1.312 0.375s0.843 0.187 1.218 0.375c0.094 0 0.281 0 0.375 0.094 0.094 0 0.094 0.187 0.187 0.187 0.187 0.094 0.375 0.094 0.562 0.187 0 0 0 0.094 0.094 0.094 0 0 0.187 0.094 0.187 0.094 0.094 0 0.094 0.187 0.187 0.187 0.094 0.094 0.187 0 0.281 0.094 0.094 0 0.094 0.094 0.187 0.187s0.187 0.094 0.281 0.187c0.094 0.094 0.187 0.187 0.375 0.375 0.187 0.094 0.375 0.187 0.656 0.469 0.094 0.094 0 0.187 0.094 0.281s0.281 0.281 0.468 0.468c0.187 0.187 0.375 0.375 0.656 0.656 0.094 0.094 0 0.187 0.094 0.281 0 0 0.187 0 0.187 0.094 0.094 0.094 0 0.187 0.094 0.281s0.281 0.094 0.375 0.281c0 0 0 0.187 0 0.187 0.094 0 0.281 0.281 0.281 0.375s0.094 0.187 0.187 0.281c0.094 0.094 0.187 0.187 0.281 0.375 0.094 0.094 0.187 0.187 0.281 0.375 0.094 0.094 0.187 0.187 0.281 0.375 0 0.094 0.094 0.094 0.094 0.187s0.187 0.094 0.187 0.187c0 0 0 0.187 0 0.187 0.094 0 0.281 0.281 0.281 0.375-0.562 0.469-0.281 0.469-0.187 0.656zM35.948 8.414c0 0 0-0.187 0-0.187 0-0.094-0.187-0.187-0.281-0.281 0 0 0-0.094 0-0.094 0-0.094-0.094 0-0.094-0.094-0.187-0.375-0.562-0.75-0.75-0.937s-0.281-0.187-0.468-0.281c-0.094 0-0.094-0.187-0.187-0.187s0-0.094-0.094-0.094c-0.187-0.094-0.281-0.094-0.375-0.281 0 0-0.187 0-0.187 0s0-0.094 0-0.094c0 0-0.187 0-0.187 0s0-0.094 0-0.094c0 0-0.187 0-0.187 0s0-0.094 0-0.094c0 0-0.187 0-0.187 0s0-0.094 0-0.094c0 0-0.187 0-0.187 0s0-0.094 0-0.094c0 0-0.187 0-0.187 0s0-0.094 0-0.094c0 0-0.187 0-0.187 0-0.281-0.094-0.468-0.281-0.75-0.281-0.375 0-0.75 0-0.937 0.094 0 0-0.094 0-0.094 0-0.094 0.094-0.187 0.187-0.281 0.281 0 0-0.094 0-0.094 0-0.187 0-0.187 0.281-0.375 0.281-0.094 0 0 0.094-0.094 0.094s-0.187 0-0.281 0.094c0 0-0.094 0.187-0.094 0.187-0.094 0.094-0.187 0-0.281 0.094s-0.187 0.187-0.281 0.281c-0.094 0.094-0.187 0.187-0.281 0.281-0.187 0.187-0.281 0.375-0.468 0.656-0.094 0.094-0.187 0.187-0.281 0.281-0.094 0.187-0.094 0.375-0.187 0.469 0 0 0 0.187 0 0.187s-0.094 0-0.094 0c0 0 0 0.187 0 0.187-0.094 0.187-0.094 0.375-0.094 0.562 0.281 0.281 0.656 0.187 0.937 0.187 0.375 0 0.75-0.094 1.124-0.094s0.843 0.094 1.218 0.094c0.656 0 1.312 0 1.968 0 0.75 0 1.405-0.094 1.968-0.094 0.468 0 0.843 0.187 1.218-0.094 0.281-0.469 0.187-0.562 0.094-0.75zM52.814 17.222c0 0 0-0.187 0-0.187-0.094-0.281 0-0.281-0.094-0.468-0.094-0.281-0.281-0.562-0.375-0.75 0-0.094 0-0.281 0-0.469 0-0.094-0.094-0.094-0.094-0.094-0.094-0.187 0-0.375-0.094-0.562 0 0-0.187-0.187-0.187-0.187s-0.094-0.187-0.187-0.187c-0.375-0.281-1.874-0.187-2.53-0.375-0.375-0.094-0.75 0-1.031 0-0.094 0-0.094-0.094-0.187-0.094s-0.281 0-0.375 0c-1.968-0.281-3.935-0.094-5.716-0.094-0.187 0-0.375 0.094-0.562 0.094s-0.375-0.094-0.656-0.094c-2.249-0.094-4.404-0.094-6.371-0.187-0.656 0-1.405 0-2.061 0-0.375 0-0.468-0.094-0.656-0.094-0.094 0-0.094 0.094-0.281 0.094-0.468 0-0.843 0-1.218 0.094-0.187 0-0.375 0.094-0.656 0.094-0.187 0-0.468 0.094-0.656 0.094s-0.375-0.094-0.562-0.094c-0.094 0-0.094 0.094-0.281 0.094-0.562 0.094-1.218 0-1.78 0-0.375 0-0.843 0.094-1.218 0.187-0.656 0.094-1.405 0.187-1.968 0.187-0.75 0-1.405 0-2.155 0-1.405 0-3.186 0.094-4.31 0.281-0.281 0-0.468 0.094-0.656 0.094-0.843 0.094-1.499-0.094-2.249-0.094-0.656 0-1.312-0.094-1.968 0.187-0.187 0.75 0 1.687 0 2.624 0 0.468-0.094 0.937-0.094 1.312s-0.094 0.843 0.094 1.124c0.75 0.281 1.499 0.187 2.249 0.187 0.843 0 1.687 0.094 2.436 0 0.281 0 0.562-0.094 0.75-0.187 0.281-0.094 0.468 0 0.75-0.094 0.094 0 0.094-0.094 0.187-0.094 0.562-0.094 1.312 0.094 1.499-0.187 0 0 0.375 0 0.468 0 0.562 0 1.031 0.094 1.593 0.094 0.281 0 0.656-0.187 0.75-0.187 0.187-0.094 0.468 0 0.656 0 1.405-0.187 2.811-0.468 4.31-0.468 0.562 0 1.031 0.094 1.593 0.094 0.375 0 0.656-0.094 0.937-0.094 0.937-0.094 1.874 0 2.624-0.094 0.187 0 0.375-0.094 0.562-0.094s0.281 0.094 0.562 0.094c0.656 0.094 1.124-0.094 1.687-0.094 0.375 0 1.031 0.094 1.124-0.094 0 0 0.375 0 0.468 0 1.687-0.094 3.654-0.094 5.153 0 0.375 0 0.75 0.094 1.031 0.094 0.375 0 0.75-0.094 1.124-0.094s0.843 0 1.218 0c1.593 0 3.186-0.094 4.779-0.187 0.75 0 1.593 0 2.249-0.281 0.562-0.094 0.468-0.75 0.375-0.843zM45.318 23.5c-0.562 0-1.124-0.094-1.687-0.094-0.094 0-0.094 0.094-0.281 0.094-1.499 0.094-3.186 0-4.779 0s-3.092 0.094-4.685 0.187c-0.75 0-1.593 0-2.342 0s-1.499 0.094-2.249 0.094c-0.094 0-0.281-0.094-0.468-0.094s-0.375 0.094-0.562 0.094c-0.656 0-1.405-0.187-2.061-0.094-0.094 0-0.187 0.094-0.281 0.094-0.375 0-0.75-0.094-1.124-0.094-0.094 0-0.281 0.094-0.468 0.094-0.656 0.094-1.124 0.094-1.687 0.187-0.75 0.094-1.499 0.094-2.249 0.094s-1.499 0.094-2.155 0.187c-0.375 0-1.124-0.094-1.218 0.094 0 0-0.187 0-0.187 0-0.375 0.094-0.656-0.094-0.75 0.187-0.187 1.312-0.094 2.717 0 3.842 0 0.375 0.187 0.656 0.187 0.937 0 0.094 0.094 0.094 0.094 0.094 0 0.281 0.094 0.562 0.094 0.75 0.094 1.124 0.094 2.436 0.281 3.373 0 0.281 0.094 0.468 0.187 0.75 0.375 2.624 0.094 6.090 0.281 8.714 0 0.375 0 0.843 0.094 0.937 0 0.187 0 0.187 0.094 0.281 0 0 0 0.187 0 0.187 0.094 0.468-0.094 0.75-0.094 1.031 0 0 0.094 0.094 0.094 0.094 0 0.094 0 0.187 0 0.281 0 0 0.094 0 0.094 0 0.094 0.094 0 1.031 0 1.218s0.094 0.281 0.094 0.375c0.187 0.656 0.094 1.405 0.187 2.155 0.094 0.562 0.187 1.031 0.281 1.593 0.094 1.031 0 2.155 0.094 3.186 0 0.375 0.187 0.75 0.187 1.031 0.094 0.75 0.187 1.218 0.468 1.687 0.187 0.281 0.468 0.468 0.843 0.75 0.281 0.187 0.937 0.468 1.218 0.562 0.094 0 0.094 0 0.187 0 0.281 0.094 0.656 0.094 0.75 0.187 0 0 0.094 0 0.094 0 0-0.187 0-0.094 0-0.094 0.187 0.094 0.468 0.094 0.75 0.094 0.094 0 0.187 0.094 0.375 0.094 0.094 0 0.187 0 0.281 0s0.094 0.094 0.094 0.094c0.281 0 0.281-0.094 0.468-0.094s0.468 0 0.656 0c1.218-0.094 2.342-0.187 3.561-0.187 0.375 0 1.031-0.094 1.124 0.094 0 0 0.187 0 0.187 0 0.281 0 0.375 0.094 0.562 0.094 0.094 0 0.281 0 0.375 0 0.75 0.094 1.499 0.094 2.155 0.094 3.279 0.187 6.278 0.375 9.37 0.281 0.656 0 1.968-0.187 2.436-0.375 0.094 0 0.187 0 0.281 0 0.375 0 0.656 0 0.843-0.094 0.281-0.094 0.375-0.094 0.656-0.094 0.094 0 0.094-0.094 0.094-0.094 0.468-0.094 0.843-0.094 1.124-0.281 0.094 0 0.094-0.094 0.187-0.094s0-0.094 0.094-0.094c0.187-0.094 0.375-0.094 0.375-0.281 0-0.094 0.094 0 0.094-0.094 0.094-0.187 0.187-0.281 0.281-0.562 0-0.094 0.094-0.094 0.094-0.094 0.094-0.281 0.094-0.75 0.187-1.031 0.094-0.843 0.094-2.061 0-2.624 0-0.094 0-0.281 0-0.375 0-0.75-0.094-1.218-0.187-1.78-0.187-1.405-0.375-2.717-0.281-4.123 0-0.094 0.094-0.094 0.094-0.094 0-0.281-0.094-0.562-0.094-0.843 0-0.375 0-0.75 0-1.031 0-0.375-0.187-0.843-0.187-1.124 0-0.094-0.094-0.094-0.094-0.094-0.094-0.468-0.094-1.031-0.094-1.499 0-0.562-0.094-1.312-0.187-1.687 0-0.187 0-0.281 0-0.468-0.094-0.75-0.094-1.874-0.187-2.436-0.187-0.281-0.187-0.468-0.187-0.656-0.094-0.562 0-1.312 0-1.78 0-0.094-0.094-0.094-0.094-0.094 0-0.281 0-0.468 0-0.75s-0.094-0.468-0.094-0.75c0-0.375 0.094-0.656 0.094-1.031 0-0.468-0.094-0.843-0.094-1.124s0.094-0.468 0.094-0.75c0-0.094 0.094-0.187 0.094-0.281 0.094-0.75 0-1.78-0.094-2.155-0.094-0.562-0.094-1.312-0.094-1.968 0-0.468-0.094-0.937-0.094-1.405 0-0.094 0.094-0.094 0.094-0.281s-0.094-0.187-0.094-0.375c0-0.187 0-0.468-0.094-0.75-0.468-0.094-1.031 0-1.499 0z"></path>
<path d="M22.456 26.498c0.468 0 0.562 0.375 1.031 0.375 0.094 0.187 0.375 0 0.656 0.094 0 0 0 0.094 0.094 0.094 0.187 0.094 0.281 0.187 0.562 0.281 0.094 0 0.187 0 0.281 0.094s0.187 0.281 0.281 0.375c0.094 0.094 0.281 0.187 0.375 0.375 0.094 0.094 0.094 0.094 0.187 0.187 0 0 0 0.187 0 0.187 0.094 0.094 0.094 0.187 0.094 0.375 0 0.094 0.094 0.281 0.094 0.562 0 0 0 0.187 0 0.187s0.094 0 0.094 0c0 0.375 0 0.75 0.094 1.124 0.094 0.468 0.187 0.843 0.281 1.312 0 0 0 0.187 0 0.187 0.094 0.094 0.187 0.281 0.187 0.468 0.094 0.937 0 1.968 0.094 2.998 0 0.281 0 0.656 0.094 1.031 0 0.094 0.094 0.187 0.094 0.281 0 0.468 0 1.031 0 1.499 0 0.656 0.187 1.312 0.281 1.968 0.094 1.312 0.187 2.717 0.375 4.029 0.094 0.656 0.281 1.312 0.281 1.874 0 0.187 0 0.281 0 0.468 0 0.281-0.094 1.031-0.187 1.499 0 0.094 0 0.187 0 0.281 0 0-0.094 0.094-0.094 0.094-0.094 0.375 0 0.656-0.094 1.031 0 0-0.094 0-0.094 0.094s0 0.094 0 0.187-0.187 0.094-0.187 0.187c0 0.094 0 0.094 0 0.187s-0.094 0.187-0.094 0.281c0 0.094-0.094 0-0.094 0.094s0 0.187-0.094 0.281c0 0.094-0.187 0.094-0.187 0.187 0 0 0 0.187 0 0.187-0.094 0.094-0.187 0.281-0.375 0.468-0.187 0.281-0.375 0.468-0.75 0.75-0.094 0.094-0.094 0.094-0.187 0.187-0.094 0-0.187 0-0.187 0.094-0.187 0-0.562-0.094-0.937-0.187-0.187 0-0.375 0-0.562-0.094 0 0 0-0.094-0.094-0.094-0.281 0-0.75-0.562-0.843-0.937-0.094-0.094 0-0.187-0.094-0.375-0.281-0.468-0.656-0.75-0.75-1.124-0.094-0.468 0.094-1.031 0.094-1.687 0-0.375-0.094-0.843 0-1.312 0-0.094 0.094-0.094 0.094-0.281s-0.094-0.187-0.094-0.281c-0.094-0.281 0-0.562-0.094-0.843-0.094-0.375-0.187-0.75-0.187-1.031-0.094-0.656 0-1.312-0.094-1.968 0-0.094 0-0.281 0-0.375-0.094-0.094-0.094-0.094-0.094-0.281 0 0 0-0.187 0-0.187-0.094-0.094 0-0.094-0.094-0.281-0.094-0.281-0.094-1.031-0.187-1.499 0-0.094 0-0.187 0-0.281-0.094-0.375-0.187-1.405-0.187-1.968-0.094-1.874 0-3.842-0.094-5.716 0-0.843-0.094-1.405-0.187-2.249 0-0.094 0-0.187 0-0.281s-0.094-0.843-0.094-1.031c0 0 0.094 0 0.094-0.094 0-0.375 0.468-1.031 0.75-1.218 0.094 0 0.094-0.187 0.187-0.187 0.094-0.094 0.187 0 0.281-0.094 0.094-0.468 0.187-0.562 0.281-0.562-0.094 0 0 0 0 0z"></path>
<path d="M35.199 51.515c-0.281 0-0.468 0.094-0.75 0.187-0.094 0-0.187 0.187-0.281 0.187-0.281 0.094-0.656 0-0.937-0.094-0.187 0-0.375 0-0.468-0.094 0 0-0.187-0.187-0.187-0.187-0.094 0-0.187 0-0.281 0-0.094-0.094-0.375-0.468-0.562-0.656-0.094-0.094-0.187-0.187-0.281-0.187s-0.281-0.187-0.468-0.281c-0.094-0.094-0.094-0.281-0.281-0.281 0.094-0.468 0-0.937-0.094-1.405-0.094-0.937-0.094-1.78-0.187-2.811 0-0.375-0.094-0.843-0.187-1.218-0.094-0.937-0.187-1.874-0.187-2.811s0-1.874-0.094-2.811c0-0.468-0.187-0.937-0.281-1.405-0.094-1.124 0-2.436-0.187-3.467 0-0.094 0-0.094 0-0.187s-0.094-0.094-0.094-0.094c0-0.281 0-0.562 0-0.75 0-0.468-0.187-0.843-0.187-1.312 0-0.937 0.281-1.968 0.187-2.998 0.187 0 0.094-0.187 0.187-0.281 0-0.094 0.187-0.094 0.187-0.187 0 0 0-0.094 0-0.187s0.094 0 0.094-0.094c0 0 0.094-0.187 0.094-0.281 0 0 0.187 0 0.187 0s0.094-0.187 0.094-0.187c0.094-0.094 0.187 0 0.281-0.094 0 0 0.094-0.187 0.094-0.187s0.094 0 0.187 0c0 0 0.094-0.187 0.187-0.187 0.187-0.094 0.468 0 0.75-0.094 0 0 0-0.094 0.094-0.094 0.187 0 0.281 0 0.468-0.094 0.281-0.094 0.843-0.094 1.218 0.187 0 0 0.094 0.094 0.094 0.094 0.094 0 0.187 0.187 0.375 0.187 0.094 0 0.094 0.187 0.281 0.187 0.375 0 0.656 0.562 0.75 0.843s0.094 0.468 0.187 0.75c0 0 0 0.187 0 0.187 0.094 0.094 0.187 0.281 0.187 0.468 0.094 0.75 0 1.593 0.094 2.342s0.281 1.499 0.281 2.155c0.094 1.499 0 3.186 0.094 4.779 0 0.468 0.187 1.031 0.281 1.499 0 0.281-0.094 0.656 0 1.031 0 0.094 0.094 0.094 0.094 0.187 0 0.468-0.187 0.843-0.094 1.405 0 0 0 0.187 0 0.187 0.094 0.094 0 0.094 0.094 0.281 0.187 0.562 0.094 1.874 0.187 2.624 0 0.094 0.094 0.281 0.094 0.468 0 0.375 0 0.75 0.094 1.218 0.094 0.656 0.281 1.687 0 2.061 0 0.094-0.094 0.094-0.187 0.094-0.187 0.094-0.187 0.094-0.375 0.281-0.094 0.094-0.187 0.281-0.375 0.468-0.094 0.094-0.187 0.281-0.375 0.468 0 0.094-0.094 0.094-0.094 0.187z"></path>
<path d="M39.040 51.796c-0.094-0.187-0.281-0.187-0.375-0.468 0 0 0-0.187 0-0.187-0.094 0-0.094-0.187-0.187-0.468 0-0.187-0.094-0.281-0.094-0.375s0-0.187 0-0.281c0-0.094 0.094-0.094 0.094-0.187s-0.094-0.281-0.094-0.468c0-0.281-0.094-0.562-0.094-0.843 0-0.468 0.094-0.937 0.094-1.312 0-0.843-0.187-1.593-0.187-2.436 0-0.75 0.094-1.593 0.187-2.342s0.187-1.499 0.281-2.155c0.094-1.218 0-2.53-0.187-3.748 0-0.375-0.187-0.656-0.187-1.031 0-0.094 0-0.281 0-0.468 0-0.094 0.094-0.094 0.094-0.281 0 0-0.094 0-0.094-0.094-0.094-1.593 0-3.279-0.094-4.966 0.094 0 0.094-0.187 0.094-0.281s0.187-0.094 0.187-0.187c0.094-0.187 0-0.375 0.094-0.562 0-0.094 0.094 0 0.094-0.094 0 0 0.094-0.187 0.094-0.187 0.094-0.094 0.187 0 0.281-0.094s0.187-0.281 0.375-0.375c0.187-0.094 0.187-0.187 0.375-0.375 0.094-0.094 0.094-0.094 0.187-0.187s0.375-0.187 0.562-0.281c0 0 0.656-0.094 0.937 0 0 0 0 0.094 0.094 0.094s0.187 0.187 0.375 0.187c0.187 0 0.187 0.375 0.468 0.375 0 0 0.187 0.187 0.187 0.187 0.094 0.094 0.187 0.281 0.281 0.562 0.094 0.187 0 0.281 0.094 0.562s0.281 0.562 0.375 0.843c0.187 0.656 0.375 1.405 0.468 2.061 0.187 1.124 0.281 2.249 0.281 3.467 0 0.094 0 0.281 0 0.375-0.094 0.187 0 0.187 0 0.656 0 0.187 0 0.375 0.094 0.656 0.094 0.187 0.187 0.375 0.187 0.562s0 0.375 0 0.656c0 0.187 0.094 0.375 0.094 0.562 0 0.375-0.094 0.656-0.094 0.937 0 0.375 0 0.75 0 1.031 0 0.656-0.094 1.312-0.187 1.968-0.094 1.687-0.094 3.373 0.094 4.966 0 0.281 0.094 0.562 0.094 0.843s-0.187 0.562-0.281 0.937c-0.094 0.281-0.094 0.656-0.187 0.937s-0.094 0.562-0.187 0.75c0 0 0 0.187 0 0.187-0.094 0.094-0.187 0.281-0.281 0.468-0.187 0.187-0.75 0.468-1.218 0.562-0.187 0-0.375-0.094-0.562-0.094-0.375 0-0.656 0-1.031-0.094 0 0 0-0.094-0.094-0.094 0 0-0.281 0-0.281 0-0.281-0.375-0.937-0.187-1.218-0.375z"></path>
</svg>
