<!-- Generated by IcoMoon.io -->
<svg version="1.1" xmlns="http://www.w3.org/2000/svg" width="64" height="64" viewBox="0 0 64 64">
<path d="M34.58 31.734c-3.314-1.228-6.971 0.73-8.745 3.555-2.153 3.425 0.164 7.392 3.85 8.259 6.413 1.508 11.369-9.387 5.069-12.373-2.788-1.322-5.231 2.826-2.428 4.155 0.515 0.245 0.202 0.047 0.417 0.27-0.132-0.137-0.078-0.091-0.021 0.099 0.057 0.282 0.067 0.298 0.029 0.047 0.014 0.16 0.017 0.322 0.014 0.483 0 0.222-0.018 0.346-0.16 0.854-0.135 0.485-0.37 0.894-0.624 1.192-0.306 0.357-0.225 0.269-0.463 0.427-0.087 0.058-0.553 0.193-0.41 0.182-0.318 0.026-0.824-0.119-1.267-0.546 0.187 0.181-0.060-0.35-0.034-0.025-0.024-0.307 0.002-0.259 0.184-0.594 0.661-1.217 2.157-1.771 3.311-1.343 2.915 1.080 4.162-3.572 1.278-4.641v0z"></path>
<path d="M28.812 43.115c0.351 1.353 0.315 3.293 0.315 4.975 0.001 3.103 4.813 3.103 4.812 0-0.001-2.066 0.034-4.241-0.487-6.254-0.776-3.003-5.419-1.728-4.641 1.278v0z"></path>
<path d="M15.693 40.671c0.117-3.724 0.993-7.356 1.088-11.078 0.12-4.746 4.194-4.661 7.876-4.963 4.874-0.4 9.758-0.726 14.638-0.225 5.271 0.541 9.409 2.689 9.24 8.438-0.12 4.106-1.003 8.077-0.946 12.211 0.055 3.977-0.995 7.725-0.13 11.695 0.66 3.032 5.298 1.746 4.64-1.279-0.958-4.398 0.124-9.879 0.332-14.373 0.205-4.437 1.706-8.867 0.369-13.255-1.764-5.79-8.207-7.575-13.505-8.249-6.33-0.805-13.165-0.144-19.473 0.685-3.891 0.512-6.768 2.57-7.612 6.49-0.488 2.267-0.277 4.696-0.615 6.996-0.337 2.293-0.642 4.588-0.715 6.906-0.095 3.105 4.717 3.096 4.814 0.001v0z"></path>
<path d="M10.767 41.711c1.333 4.421 0.024 9.042 0.727 13.542 0.766 4.911 4.179 7.529 8.973 8.189 6.99 0.962 14.344 0.442 21.377 0.184 4.91-0.18 9.437-1.889 10.657-7.078 0.711-3.018-3.929-4.299-4.64-1.279-0.98 4.163-5.964 3.559-9.353 3.622-6.103 0.115-12.787 0.847-18.797-0.444-3.765-0.809-3.674-4.604-3.611-7.696 0.071-3.486 0.327-6.934-0.694-10.32-0.892-2.962-5.537-1.699-4.639 1.28v0z"></path>
<path d="M20.506 16.61c0.038-5.73 3.726-9.069 8.861-10.913 3.6-1.294 10.152-2.137 11.277 2.73 0.698 3.024 5.338 1.741 4.64-1.279-1.653-7.159-9.585-7.981-15.655-6.574-7.869 1.823-13.881 7.779-13.935 16.037-0.020 3.104 4.792 3.102 4.812 0v0z"></path>
</svg>
