<!-- Generated by IcoMoon.io -->
<svg version="1.1" xmlns="http://www.w3.org/2000/svg" width="64" height="64" viewBox="0 0 64 64">
<path d="M19.487 17.221c0.424-4.785 2.718-9.374 7.032-11.718 5.98-3.251 11.637 2.16 15.203 6.28 2.005 2.316 5.345-1.054 3.353-3.353-5.053-5.837-11.46-10.29-19.485-7.652-6.798 2.236-10.26 9.836-10.847 16.443-0.27 3.047 4.475 3.021 4.743 0v0z"></path>
<path d="M15.14 33.623c0.083-2.216-0.281-5.049 1.236-6.877 2.129-2.564 7.74-0.946 10.4-0.472 5.297 0.945 10.414-0.319 15.725-0.323 7.271-0.004 6.6 5.691 5.903 11.034-0.81 6.214 0.343 12.489-0.573 18.734-0.439 2.99 4.131 4.278 4.573 1.261 1.116-7.606 0.217-15.236 1.1-22.858 0.742-6.419-1.843-11.875-8.778-12.719-3.91-0.476-7.778 0.202-11.673 0.524-4.483 0.372-8.803-1.22-13.289-1.164-7.853 0.097-9.13 6.506-9.368 12.86-0.115 3.060 4.629 3.049 4.743 0v0z"></path>
<path d="M10.397 33.425c0.59 4.49 0.505 8.944 0.281 13.457-0.179 3.598-0.721 7.279 0.44 10.76 2.174 6.523 9.090 6.665 14.803 6.194 4.035-0.332 8.034-1.016 12.095-0.958 2.208 0.032 4.386 0.194 6.594 0.015 4.332-0.352 7.898-2.481 8.077-7.136 0.118-3.060-4.626-3.048-4.743 0-0.125 3.236-5.758 2.534-7.967 2.455-4.73-0.168-9.355 0.417-14.056 0.882-2.708 0.269-5.864 0.724-8.366-0.575-2.564-1.33-2.446-4.659-2.36-7.074 0.215-6.042 0.738-11.996-0.055-18.021-0.394-2.987-5.141-3.026-4.744 0v0z"></path>
</svg>
