<!-- Generated by IcoMoon.io -->
<svg version="1.1" xmlns="http://www.w3.org/2000/svg" width="64" height="64" viewBox="0 0 64 64">
<path d="M35.289 25.554c7.165-3.929 11.556-12.712 6.24-19.876-6.125-8.32-17.218-6.24-24.961-1.733-0.925 0.578-1.387 1.387-1.387 2.311-4.391 2.773-4.391 10.863-1.733 15.254 4.507 7.396 14.676 7.858 21.841 4.045zM33.209 6.371c5.316 2.311 6.24 7.858 2.196 11.903-2.658 2.658-6.818 4.16-10.516 3.929-2.196-0.231-4.276-1.040-5.778-2.542-1.040-1.156-4.507-9.014 0.462-8.551 2.311 0.231 3.12-1.849 2.658-3.582 3.467-1.849 7.28-2.773 10.978-1.156z"></path>
<path d="M59.556 56.871c-1.733-6.934-3.929-14.445-8.898-19.761-5.431-5.893-13.174-7.28-20.916-6.356-7.742 1.040-16.409 3.582-21.379 10.054-3.929 5.085-4.738 11.903-1.502 17.45-0.116 0-0.231 0-0.462 0.116-3.582 0.809-2.080 6.356 1.502 5.547 16.063-3.582 32.357-4.738 48.882-3.467 1.964 0.231 3.236-1.849 2.773-3.582zM12.639 57.217c0-0.347-0.231-0.809-0.462-1.156-8.205-13.058 13.058-19.876 22.303-19.761 11.325 0.116 15.716 9.014 18.49 18.374-13.52-0.809-27.041 0-40.33 2.542z"></path>
</svg>
