<!-- Generated by IcoMoon.io -->
<svg version="1.1" xmlns="http://www.w3.org/2000/svg" width="64" height="64" viewBox="0 0 64 64">
<path d="M3.577 23.737c6.043-7.817 16.191-12.065 25.844-12.994 5.752-0.554 10.636 0.986 15.783 3.42 5.416 2.561 10.577 4.713 15.033 8.848 2.056 1.909 5.145-1.166 3.081-3.081-4.731-4.391-10.134-6.831-15.915-9.53-5.604-2.617-10.745-4.343-17.006-4.082-10.924 0.455-23.115 5.56-29.901 14.339-1.695 2.194 1.365 5.302 3.082 3.081v0z"></path>
<path d="M12.293 33.724c11.329-10.316 29.4-11.45 39.955 0.545 1.86 2.114 4.93-0.981 3.081-3.081-12.158-13.818-33.133-12.37-46.117-0.545-2.082 1.896 1.009 4.969 3.081 3.081v0z"></path>
<path d="M21.191 44.438c5.148-4.128 17.7-8.472 21.636-0.804 1.284 2.501 5.044 0.296 3.764-2.199-5.434-10.586-21.2-5.916-28.481-0.078-2.194 1.758 0.912 4.821 3.081 3.081v0z"></path>
<path d="M30.276 56.604c0.994 0.838 2.361 1.087 3.367 0.081 0.609-0.609 0.919-1.756 0.629-2.591-0.307-0.89-1.094-1.649-2.101-1.6-1.188 0.058-1.772 0.798-2.417 1.65-0.819 1.085 0.019 2.952 1.302 3.201 1.706 0.332 3.407-0.106 4.011-1.914 0.535-1.602-0.746-3.079-1.969-3.885-1.034-0.681-2.351-0.165-2.981 0.782-0.865 1.302-1.35 3.124-0.086 4.376 1.391 1.378 3.675 1.268 4.796-0.344 0.706-1.015 0.355-2.465-0.182-3.459-0.732-1.352-2.836-2.274-4.004-0.832 1.214 0.707 2.428 1.413 3.642 2.119 0.412-1.159-0.398-2.442-1.528-2.77-0.773-0.225-1.403 0.028-2.095 0.32-1.37 0.578-2.227 2.107-1.45 3.516 0.821-1.067 1.641-2.134 2.462-3.201-1.877-0.657-3.295 1.469-2.669 3.099 0.391 1.018 1.074 2.24 2.254 2.468 1.102 0.213 1.987-0.188 2.625-1.095-0.343 0.488 0.037-0.023 0.155-0.135 0.098-0.094 0.202-0.18 0.293-0.281 0.609-0.676 0.874-1.549 0.625-2.441-0.198-0.711-0.729-1.27-1.233-1.781-1.332-1.349-3.734-0.356-3.72 1.541 0.007 0.835 0.107 1.574 0.445 2.339 0.437 0.992 1.834 1.469 2.812 1.125 1.247-0.438 2.579-1.705 2.587-3.104 0.008-1.535-1.424-2.459-2.83-2.382-0.956 0.052-1.771 0.318-2.64 0.69-0.807 0.345-1.72 1.131-1.858 2.045-0.268 1.779 0.802 2.814 2.358 3.386 1.584 0.582 3.245-0.317 4.146-1.579 0.772-1.081 0.742-2.709 0.087-3.827-0.802-1.372-2.637-1.923-4.119-1.45-1.433 0.456-2.374 1.841-2.281 3.345 0.077 1.277 0.702 2.608 1.878 3.226 1.484 0.782 3.194 0.264 4.225-1.002 0.688-0.843 0.768-1.65 0.341-2.64-0.471-1.092-1.391-1.728-2.417-2.234-1.065-0.526-2.35-0.296-2.981 0.782-0.568 0.97-0.283 2.456 0.782 2.981 0.272 0.134 0.545 0.262 0.804 0.42 0.295 0.179-0.367-0.374 0.021 0.057-0.412-0.457-0.052 0.014 0.026 0.195 0.114-0.88 0.227-1.761 0.341-2.64-0.152 0.185-0.737 0.641-0.113 0.196-0.15 0.107-0.477 0.214 0.22-0.064-0.182 0.073-0.5 0.058 0.295-0.018-0.199 0.019-0.461-0.108 0.316 0.054-0.314-0.065 0.564 0.272 0.28 0.123s0.47 0.397 0.227 0.183c-0.129-0.113-0.319-0.393 0.158 0.233-0.139-0.183-0.309-0.694-0.015 0.073-0.086-0.224-0.118-0.776-0.032 0.077-0.008-0.072-0.007-0.145-0.004-0.216 0.008-0.342-0.11 0.632-0.040 0.301 0.038-0.18 0.197-0.444-0.129 0.264 0.076-0.165 0.297-0.373-0.193 0.219 0.121-0.145 0.376-0.245-0.232 0.165 0.277-0.186-0.58 0.207-0.248 0.101 0.344-0.11-0.623 0.051-0.238 0.028 0.101-0.006 0.203 0.004 0.304 0.007-0.61-0.018-0.418-0.071-0.203-0.005-0.121-0.050-0.241-0.101-0.362-0.151 0.184 0.11 0.105 0.043-0.239-0.203 0.148 0.118 0.266 0.387-0.137-0.204 0.196 0.287-0.203-0.567-0.089-0.237 0.061 0.177 0.059 0.51-0.019-0.266 0.008 0.081 0.003 0.163-0.001 0.245 0.040-0.689 0.072-0.46 0.017-0.252-0.093 0.351 0.255-0.535 0.093-0.208-0.077 0.156-0.304 0.408 0.151-0.16-0.054 0.067-0.118 0.124-0.183 0.181 0.482-0.423 0.33-0.247 0.145-0.153 0.568-0.289 0.377-0.153 0.167-0.108 0.641-0.136 0.391-0.049 0.17-0.059 0.618 0.028 0.345 0.060 0.141-0.014 0.644 0.236 0.357 0.156 0.199 0.076-0.162-0.084-0.41-0.301 0.216 0.193-0.149-0.118-0.264-0.38 0.204 0.291-0.007-0.013-0.015-0.025-0.021-0.038 0.173 0.293 0.259 0.609 0.259 0.949 0.028 0.373-0.099 0.593-0.25 0.914 0.115-0.244-0.422 0.508-0.236 0.296 0.311-0.355-0.492 0.329-0.142 0.102 0.109-0.071 0.227-0.128 0.344-0.183 0.301-0.142-0.575 0.234-0.261 0.111 0.068-0.026 0.137-0.049 0.204-0.073 0.137-0.046 0.278-0.085 0.419-0.121 0.135-0.034 0.271-0.060 0.408-0.083-0.869 0.143-0.376 0.044-0.154 0.037 0.052-0.001 0.104 0 0.155 0.003 0.291 0.015-0.677-0.112-0.407-0.052 0.257 0.057-0.612-0.292-0.394-0.169-0.84-0.479-1.060-1.371-0.923-2.276-0.038 0.248 0.301-0.617 0.155-0.382 0.351-0.566 0.351-0.431 0.197-0.27-0.143 0.149-0.803 0.684-0.14 0.184-0.172 0.13-0.415 0.153 0.273-0.088 1.050-0.368 2.044 0.364 2.331 1.236-0.051-0.153-0.059-0.513 0.007 0.142-0.022-0.219-0.021-0.44-0.023-0.66-1.24 0.514-2.48 1.027-3.72 1.541 0.16 0.162 0.317 0.325 0.465 0.498-0.213-0.295-0.267-0.357-0.164-0.187-0.417-0.715-0.275-1.607 0.261-2.202-0.213 0.237-0.459 0.428-0.657 0.684-0.871 0.966-0.263 0.848 1.823-0.352 0.79 0.54 1.044 0.681 0.763 0.423-0.138-0.153-0.076-0.068 0.189 0.257-0.052-0.071-0.097-0.148-0.142-0.224-0.030-0.052-0.058-0.105-0.085-0.159-0.173-0.332 0.211 0.543 0.085 0.214-0.015-0.044-0.031-0.088-0.043-0.132-0.005-0.019-0.009-0.038-0.015-0.058 0.088 0.335 0.089 0.671 0.001 1.007-0.187 0.32-0.374 0.641-0.56 0.962 0.005-0.004 0.011-0.009 0.016-0.014-0.514 0.213-1.027 0.426-1.541 0.639-0.175-0.023-0.349-0.046-0.525-0.069 0.72 0.252 1.599-0.039 2.12-0.56 0.706-0.705 0.816-1.779 0.341-2.64-0.005-0.009-0.010-0.017-0.015-0.027 0.099 0.367 0.198 0.733 0.297 1.1 0.001-0.011 0.001-0.021 0.002-0.032-0.099 0.366-0.198 0.733-0.297 1.1-0.097 0.121-0.195 0.243-0.291 0.364 0.141-0.137 0.047-0.069-0.282 0.206 0.071-0.053 0.149-0.097 0.225-0.14 0.080-0.046 0.164-0.085 0.247-0.123-0.391 0.155-0.49 0.2-0.295 0.135 0.397-0.095 0.074-0.1-0.968-0.015-0.32-0.187-0.641-0.373-0.961-0.56 0.006 0.007 0.012 0.013 0.017 0.019-0.213-0.514-0.425-1.027-0.638-1.541 0.021-0.169 0.044-0.339 0.065-0.508-0.324 0.912 0.204 1.995 1.002 2.461 0.778 0.455 2.033 0.41 2.64-0.341 0.569-0.703-3.182-0.146-2.395 0.32-0.521-0.309-0.446-0.375-0.29-0.2-0.528-0.587-0.205-0.275-0.087-0.040 0.154 0.308-0.221-0.568-0.107-0.241 0.025 0.071 0.042 0.144 0.058 0.216 0.076 0.336-0.057-0.634-0.047-0.3 0.009 0.328 0.127-0.635 0.041-0.33 0.127-0.447 0.399-0.787 0.787-1.037 0.133-0.057 0.266-0.114 0.399-0.171 0.459-0.043 0.574-0.060 0.344-0.052-0.386 0.009 0.593 0.118 0.157 0.010 0.469 0.115 0.827 0.545 0.963 0.996 0.020 0.127 0.041 0.255 0.062 0.382-0.070 0.405-0.076 0.494-0.019 0.267 0.113-0.409-0.235 0.486-0.038 0.101 0.097-0.189 0.216-0.365 0.334-0.542-0.994 0.261-1.988 0.521-2.981 0.782 0.207 0.142 0.193 0.126-0.043-0.049 0.073 0.063 0.142 0.129 0.208 0.2-0.197-0.275-0.235-0.322-0.114-0.14 0.017 0.033 0.035 0.065 0.052 0.098-0.138-0.223-0.204-0.467-0.198-0.73-0.066-0.727 0.575-1.299 1.179-1.54-0.213 0.054-0.132 0.047 0.246-0.021-0.466 0.038 0.526 0.121-0.014 0.015 0.434 1.067 0.868 2.134 1.302 3.201-0.090 0.119-0.413 0.524-0.161 0.212 0.19-0.236 0.535-0.408-0.11 0-0.367 0.099-0.734 0.198-1.1 0.298 0.009 0 0.017-0.001 0.025-0.001-0.7-0.533-1.401-1.066-2.101-1.6-0.14-0.404-0.103-0.758 0.15-1.208 0.26-0.26 0.521-0.521 0.782-0.782-0.015 0.012-0.030 0.023-0.046 0.035 0.367-0.099 0.734-0.198 1.1-0.298-0.020 0.001-0.041 0.002-0.061 0.003 0.367 0.099 0.734 0.198 1.1 0.298 0.088 0.074 0.176 0.147 0.264 0.222-0.907-0.765-2.189-0.893-3.081 0-0.787 0.785-0.91 2.314-0.001 3.080v0z"></path>
</svg>
