<!-- Generated by IcoMoon.io -->
<svg version="1.1" xmlns="http://www.w3.org/2000/svg" width="64" height="64" viewBox="0 0 64 64">
<path d="M25.195 5.737c0.586-4.822-4.54-4.653-7.987-4.83-2.533-0.129-5.051-0.383-7.562-0.377-1.769 0.004-4.49-0.427-6.156 0.181-1.413 0.516-1.286 0.713-1.525 2.046-0.251 1.398 0.147 2.856 0.121 4.267-0.036 1.945-0.293 3.828 0.065 5.766 0.637 3.449-0.913 11.23 4.271 10.389 3.804-0.617 2.946-4.579 2.736-7.642-0.065-0.951-1.014-4.237 0.623-3.969 1.259 0.205 4.992 5.634 5.833 6.612 1.907 2.214 4.904 7.522 8.374 6.95 0.934-0.153 3.454-1.862 3.654-2.866 0.393-1.983-2.707-4.038-3.968-5.067-1.9-1.552-3.389-3.097-4.903-5.025-2.843-3.618 2.482-2.471 4.295-3.147 1.192-0.444 1.95-1.822 2.128-3.288z"></path>
<path d="M61.436 55.187c-0.175-1.096-0.337-2.158-0.294-3.1 0.187-4.133 2.092-8.641-2.902-9.964-3.711-0.982-2.107 2.542-2.206 5.15-0.067 1.753 0.252 3.365 0.181 5.043-1.842-0.82-5.4-3.839-6.323-5.685-0.15-0.301-0.451-0.752-0.752-0.902-2.124-1.652-3.826-4.245-6.629-3.429-2.325 0.677-4.235 2.811-1.942 4.782 1.992 1.792 4.185 3.39 6.149 5.194 0.431 0.396 3.802 4.495 3.154 4.525-2.154 0.1-5.949-1.343-7.895-0.318-1.658 0.874-1.463 5.039-0.018 6.332 0.964 0.863 4.75 0.648 6.026 0.711 3.492 0.17 10.246 1.615 12.836-1.574 1.459-1.796 1.001-4.36 0.615-6.766zM58.311 44.979c0 0.15 0 0.601 0 0.601s-0.15 0-0.15-0.15c0-0.15-0.301-0.301-0.301-0.301-0.301-0.301-0.902-0.752-0.902-0.752v-0.15c0.451 0 1.353 0.301 1.353 0.451 0 0 0 0.15 0 0.301zM58.913 58.661h-0.15c0-0.15 0-0.15 0-0.15l0.15-0.15c0 0.15 0 0.301 0 0.301z"></path>
<path d="M20.068 59.472c0.522-0.444 0.916-1.036 0.804-1.713 0-0.301-0.15-0.752-0.301-0.902-0.15-0.301-0.451-0.601-0.451-0.601-1.053-0.902-3.158-0.601-4.21-0.601-0.601 0-1.955 0-1.955 0-0.434-0.054-0.866-0.127-1.294-0.199 0.414-0.518 0.843-1.050 0.843-1.154 1.353-1.203 2.556-2.255 3.759-3.759 0.601-0.601 1.353-1.504 1.955-2.255 0.301-0.451 0.902-1.353 0.902-1.353 0.301-0.301 0.601-0.601 0.752-1.053 0-0.15 0-0.601 0-0.752 0-3.188-3.020-2.856-4.803-1.086-2.411 2.394-4.257 4.729-7.407 6.437-0.469-2.41 0.376-5.57-0.49-7.827-0.872-2.272-2.034-1.213-4.011-0.525-3.672 1.276-1.643 7.687-2.237 10.718-0.35 1.785-0.053 3.386 0.014 5.164 0.034 0.905-0.298 1.746-0.309 2.63-0.049 3.969 9.147 1.952 11.574 1.628 0.315-0.039 0.703-0.078 1.112-0.113 1.125-0.095 2.346-0.148 2.346-0.037 1.053 0 3.308 0.902 4.060-0.451 0.579-0.867 0.18-1.73-0.653-2.196zM6.738 59.563c-0.451 0-1.504 0-1.504 0 0-0.301 0-0.752 0-1.053 0-0.022-0.002-0.051-0.004-0.078 0.134 0.11 0.286 0.194 0.455 0.229 0.068 0 0.154-0.009 0.242-0.021 0.067 0.059 0.132 0.121 0.208 0.171 0.15 0.15 0.601 0.301 0.601 0.301 0 0.15 0 0.451 0 0.451zM9.696 58.875c0.24 0.041 0.433 0.087 0.35 0.087-0.025 0.1-0.049 0.2-0.070 0.301-0.119 0-0.23 0-0.23 0-0.016-0.116-0.033-0.25-0.049-0.388z"></path>
<path d="M40.428 24.745c0.873 0.004 1.797-0.261 2.477-0.812 3.588-2.913 6.404-5.511 9.392-9.027 0.912-1.074 2.149-3.335 3.455-3.698 0.605 2.155-0.141 4.706 0.072 6.956 0.074 0.786-0.171 3.26 0.193 3.891 0.934 1.616 4.801 1.266 5.839-0.117 0.847-1.13 0.364-3.729 0.364-5.077 0-1.804 0.15-3.458 0.15-5.112 0-3.040-0.3-5.975-0.412-9.023-0.014-0.388 0.236-1.712 0.009-2.039-0.612-0.881-1.064-0.669-2.272-0.656-1.761 0.019-3.679 0.115-5.491 0.205-2.663 0.132-5.313 0.442-7.971 0.642-1.654 0.124-4.886-0.414-6.291 0.632-2.524 1.878-0.737 7.15 2.391 7.102 1.992-0.031 4.681-1.023 6.532-0.152-2.519 3.214-5.357 6.437-7.997 9.605-0.451 0.601-1.353 1.654-1.353 1.654-0.451 0.451-1.203 1.504-1.203 1.504v0.15c-1.308 2.182 0.293 3.362 2.116 3.371zM42.223 4.382c0-0.090 0-0.601 0-0.601v-0.15c0.19 0.127 0.459 0.253 0.709 0.357-0.231 0.096-0.428 0.226-0.581 0.394-0.070-0.039-0.127-0.061-0.127 0.001zM59.364 7.393c-0.010-0.047-0.022-0.091-0.034-0.136l0.034-0.017c0 0.054 0 0.103 0 0.153zM41.921 5.321c-0.006 0.038-0.014 0.075-0.017 0.113-0.147 0-0.283 0-0.283 0 0-0.15 0.15-0.15 0.3-0.113z"></path>
</svg>
