<!-- Generated by IcoMoon.io -->
<svg version="1.1" xmlns="http://www.w3.org/2000/svg" width="64" height="64" viewBox="0 0 64 64">
<path d="M27.723 38.73c-0.418-0.418-1.671-0.418-1.671-0.418-0.418 0-1.045 0.627-1.045 0.627-0.209 0-0.627 0-0.63-0.003-1.428-0.943-3.595-0.181-5.070 0.013-2.814 0.369-5.768 0.104-8.607 0.104-2.805 0-5.173-0.283-3.44 2.759 2.133 3.741 6.442 0.209 9.573 1.914 1.718 0.935 0.035 1.557-1.286 2.413-4.205 2.725-7.065 5.431-9.837 9.466-1.197 1.741-3.676 3.009-4.521 4.882-0.724 1.608-0.008 4.007 2.297 3.316 0.418 0 0.836-0.418 1.254-0.627 0.836-0.836 2.507-2.089 2.507-2.089 2.507 1.671 4.179-2.716 5.223-3.761 0.418-0.627 1.045-1.254 1.671-1.88 0.209-0.209 0.836-0.836 0.836-0.836 0.418-0.418 0.836-0.627 1.254-1.045 0-0.209 0.418-0.627 0.418-0.627 0.418-0.627 1.463-1.463 1.463-1.463 1.514-1.21 4.519-4.74 5.474-2.741 0.779 1.631-0.387 4.542-0.379 6.304 0.010 2.237 2.286 7.917 4.856 4.527 1.862-2.456 0.944-9.206 1.123-12.060 0-1.463 0-3.134 0-4.597 0-0.836-0.418-1.88-0.418-2.089 0-0.628-0.418-1.673-1.045-2.091z"></path>
<path d="M63.728 22.549c0.132-0.503 0.227-0.963 0.272-1.323-3.686-1.511-8.767 0.702-12.493 0.355 1.040-2.571 3.276-4.542 4.921-6.708 1.015-1.336 3.257-4.074 3.261-5.813 0-0.418-0.209-0.836 0-0.836 0.627-1.045 1.254-1.88 0.418-3.134-0.109-0.163-0.288-0.281-0.493-0.37-2.335-1.273-3.759 1.479-5.566 3.087-3.335 2.964-3.68 9.162-8.727 10.182-0.039-2.826-0.177-5.691-0.578-8.49-0.151-1.053-0.213-3.23-1.074-4.005-1.067-0.961-3.009-0.727-3.443 0.731-0.060 0.042-0.118 0.070-0.178 0.12-0.627 0.209-0.627 0.836-0.836 1.463 0 0.209 0 0.627 0 0.627-0.886 3.984-0.33 8.086-1.053 12.058-0.423 2.329-2.080 4.821-1.34 7.226 1.841 5.988 13.912 1.633 18.088 0.905 2.234-0.389 5.594-0.071 7.044-1.899 0.691-0.866 1.392-2.708 1.777-4.177z"></path>
<path d="M0.771 4.882c0.209 0.418 1.045 0.836 1.045 0.836 0.418 0.209 1.045 0.627 1.045 0.627 1.254 1.254 2.507 2.716 3.761 3.97 0.627 0.627 1.88 2.089 1.88 2.089 1.202 1.404 2.176 2.85 3.147 4.345 0.769 1.184 2.811 2.988 2.911 4.445 0.16 2.321-4.158 1.606-5.701 1.535-2.119-0.097-7.257-0.946-8.54 1.35-1.033 1.85 0.642 4.422 2.315 5.102 4.148 1.688 9.491 0.564 13.809 0.564 2.294 0 9.612 1.688 11.263-0.247 0.446-0.525 0.216-1.737 0.191-2.392-0.077-2.041-0.556-4.048-0.436-6.12 0.263-4.545 2.822-9.675 1.28-14.207-0.911-2.678-5.363-3.566-5.91-0.422-0.281 1.613 0.125 3.811-0.047 5.533-0.135 1.352-0.49 2.786-0.967 4.049-2.406-0.223-6.283-5.698-8.090-7.505-1.254-1.254-2.925-2.507-4.179-3.552-0.418-0.418-1.463-0.627-1.463-0.836-0.418 0-0.836-0.209-0.836-0.209-0.418-0.209-1.045-0.836-1.254-0.836-0.418-0.627-0.836-1.045-1.045-1.463-0.209-0.209-0.836-0.627-0.836-0.627s0-0.209-0.209-0.209c-0.368-0.368-0.882-0.568-1.412-0.606-0.032-0.013-0.050-0.021-0.050-0.021l0.047 0.020c-0.37-0.025-0.748 0.017-1.092 0.188-0.627 0.418-0.836 1.045-1.045 1.671 0 0.209 0.209 0.836 0.209 0.836-0.419 0.63-0.21 1.674 0.208 2.092z"></path>
<path d="M60.009 54.6c-0.702-0.642-1.393-1.291-1.944-1.988-2.633-3.332-4.897-7.062-8.466-9.345-0.125-2.172 4.573-1.068 5.927-1.617 1.857-0.752 4.219-3.417 2.078-4.718-1.808-1.098-6.2-0.007-8.296-0.007-2.943 0-6.863-1.213-9.022 1.059-0.878 0.925-1.308 2.188-1.492 3.392-0.077 0.501 0.35 2.438 0.003 2.784-0.209 0.209-0.209 0.836-0.209 0.836s0 0 0 0.209c0 1.88-0.209 4.388-0.209 6.059 0 0.209-0.209 0.627-0.209 0.627 0 2.145-1.046 5.595 0.61 7.375 1.187 1.275 4.785 1.985 5.7 0.146 0.281-0.567 0.178-2.559 0.208-3.191 0.079-1.73-1.109-7.405 1.821-6.742 1.868 0.422 3.131 4.059 4.409 5.336 1.045 1.045 3.343 3.343 3.343 3.343 0.209 0.209 1.045 1.045 1.045 1.045 1.575 1.89 3.231 2.943 5.567 1.907 1.723-0.765 3.060-1.958 1.723-3.844-0.676-0.947-1.641-1.802-2.585-2.666z"></path>
</svg>
