<!-- Generated by IcoMoon.io -->
<svg version="1.1" xmlns="http://www.w3.org/2000/svg" width="64" height="64" viewBox="0 0 64 64">
<path fill="#1d1d1b" d="M17.65 21.67c0.3-2.983 1.789-5.57 3.978-7.313l0.022-0.017c2.169-1.821 4.714-3.28 7.493-4.24l0.167-0.050c0.37-0.12 1.2-0.28 1.2-0.28s-0.21-1.94 0.24-2.23c0.507-0.214 1.095-0.36 1.71-0.409l0.020-0.001-0.080-1.28s-1.52-0.37-1.73-1.69 0.83-3 3.3-2.34c1.113 0.199 1.948 1.16 1.948 2.315 0 0.42-0.11 0.815-0.304 1.156l0.006-0.012c-0.319 0.276-0.711 0.476-1.143 0.567l-0.017 0.003-0.080 1.36s1.44 0 1.48 0.21 0 2.43 0 2.43 4.86 0.33 8 3.66c1.84 2.046 3.224 4.539 3.971 7.294l0.029 0.126v0.58s7.090 0.78 10.83 4c1.617 1.28 2.645 3.243 2.645 5.446 0 1.171-0.29 2.274-0.803 3.241l0.018-0.038c-1.652 3.017-4.105 5.416-7.076 6.956l-0.094 0.044c-1.826 1.065-3.938 2.002-6.157 2.7l-0.223 0.060s4.6 11.53 4.39 12.48-2.88 3.62-8.2 4.74-11.45 2.1-19-0.29-7.58-4.45-7.41-5.32 3.42-11.32 3.42-11.32-7-1.36-11.54-5.15-6.3-7.17-6-9 2.51-4.25 5.85-5.94 9.14-2.45 9.14-2.45z"></path>
<path fill="#cbe7f5" d="M32.57 2.78c0.147-0.047 0.316-0.074 0.492-0.074 0.896 0 1.627 0.705 1.668 1.59l0 0.004c0 1.3-2.35 1.080-2.69 0.49-0.121-0.211-0.193-0.463-0.193-0.733 0-0.539 0.287-1.012 0.716-1.274l0.007-0.004z"></path>
<path fill="#f2910d" d="M31.89 8.22c0.31 0 2.87-0.15 2.93 0.16 0.035 0.185 0.055 0.398 0.055 0.615s-0.020 0.43-0.059 0.636l0.003-0.021c-0.090 0.060-3.15 0.060-3.15 0.060s-0.060-1.48 0.22-1.45z"></path>
<path fill="#e7413e" d="M19.81 22.46c-0.11-0.11-0.19-3 2.53-6s5.93-4.94 10.070-5.19c0.128-0.004 0.278-0.007 0.429-0.007 3.981 0 7.579 1.637 10.159 4.274l0.002 0.003c1.451 1.783 2.463 3.978 2.84 6.384l0.010 0.076c0.090 0.74 0.19 0.87 0 1s-2.38 1.050-2.38 1.050-4.38-3-4.51-2.93-0.62 0.64-0.49 0.71 4.32 2.47 4.11 2.59c-0.466 0.196-1.009 0.346-1.575 0.426l-0.035 0.004c-0.12 0-3-2-3.24-2s-0.78 0.37-0.62 0.52 3 1.55 2.62 1.83-7.16 0.83-12.35-0.19-6.93-1.83-7.57-2.55z"></path>
<path fill="#1d1d1b" d="M23 21.45c-0.011-0.139-0.017-0.301-0.017-0.464 0-1.47 0.491-2.826 1.318-3.911l-0.012 0.016c1.55-2.29 3-3.060 3.22-3s0.49 0.91 0.49 0.91c-1.302 0.581-2.34 1.558-2.984 2.776l-0.016 0.034c-1 2.070-0.84 3.86-1.11 4s-0.75-0.12-0.89-0.36z"></path>
<path fill="#1d1d1b" d="M40.14 19.68c0.24-0.24 4.85 2.57 4.75 2.88s-0.34 0.49-0.49 0.46-4.57-2.41-4.6-2.53c0.033-0.311 0.156-0.589 0.342-0.812l-0.002 0.002z"></path>
<path fill="#1d1d1b" d="M40.47 18.48c-0.060-0.090 0.13-0.59 0.38-0.53 1.588 0.807 2.947 1.661 4.221 2.621l-0.071-0.051c0 0.28 0 0.55-0.22 0.55-1.686-0.882-3.095-1.741-4.446-2.679l0.136 0.089z"></path>
<path fill="#1d1d1b" d="M41.28 16.16c0.13 0 2.1 0.81 2.13 1.11s0.12 0.53 0 0.53c-0.845-0.296-1.568-0.634-2.251-1.033l0.061 0.033c-0.1-0.11-0.22-0.64 0.060-0.64z"></path>
<path fill="#fab900" d="M19.87 24.57c2.754 1.259 5.95 2.162 9.303 2.546l0.147 0.014c1.419 0.196 3.058 0.308 4.723 0.308 2.896 0 5.713-0.338 8.414-0.977l-0.247 0.049c1.535-0.384 2.851-0.839 4.113-1.394l-0.163 0.064c0.090 0.070 0.22 3.59-0.34 4.36s-4.73 2.53-12 2.47-12-2-12.66-2.44c-0.455-0.247-0.816-0.617-1.044-1.066l-0.006-0.014c-0.060-0.28-0.46-3.83-0.24-3.92z"></path>
<path fill="#1d1d1b" d="M23.39 27.13c0.241-0.128 0.527-0.203 0.83-0.203 0.9 0 1.645 0.66 1.779 1.523l0.001 0.010c0.34 1.57-2.16 1.94-3.050 1.36-0.374-0.284-0.612-0.729-0.612-1.229 0-0.676 0.436-1.25 1.041-1.457l0.011-0.003z"></path>
<path fill="#cbe7f5" d="M24.1 27.93c0.43 0 1.27 0.65 0.8 1.15-0.19 0.171-0.443 0.276-0.721 0.276-0.327 0-0.62-0.145-0.818-0.375l-0.001-0.001c-0.033-0.083-0.053-0.179-0.053-0.28 0-0.425 0.345-0.77 0.77-0.77 0.008 0 0.016 0 0.024 0h-0.001z"></path>
<path fill="#1d1d1b" d="M32.72 28.15c0.67-0.27 2.6 0.22 2.72 1.7s-2 2-3.31 1.33-0.95-2.41 0.59-3.030z"></path>
<path fill="#cbe7f5" d="M33.21 29c0.4-0.090 1.12 0.37 1.090 0.87s-0.71 0.86-1.46 0.59-0.52-1.26 0.37-1.46z"></path>
<path fill="#1d1d1b" d="M41.060 27.25c0.67-0.39 2.91-0.71 3.46 0.41s0.25 2.31-1.26 2.44-2.17-0.28-2.51-0.81c-0.196-0.238-0.314-0.545-0.314-0.88 0-0.482 0.246-0.907 0.619-1.157l0.005-0.003z"></path>
<path fill="#cbe7f5" d="M41.77 27.81c0.43-0.35 2-0.060 2 0.46s-0.25 1.18-1.54 0.84-0.77-1.050-0.46-1.3z"></path>
<path fill="#e7413e" d="M48.48 23.82c0.109-0.003 0.236-0.005 0.365-0.005 2.296 0 4.457 0.576 6.347 1.59l-0.072-0.035c3.49 1.73 4.51 3.21 4.51 4.42-0.148 1.247-0.672 2.35-1.455 3.215l0.005-0.005c-0.833 0.662-1.769 1.322-2.743 1.927l-0.127 0.073c-0.384 0.222-0.829 0.392-1.302 0.485l-0.028 0.005s-4.27-1.95-4.48-2-0.74 0.5-0.5 0.71 4.11 1.61 3.9 1.83-3.87 1.33-10 1.85-14.37 0.9-22.5-0.56-13.48-4.26-14.22-4.97-2.32-1.7 0.22-4.17 6.79-4 8.21-4.51c0.826-0.281 1.809-0.515 2.82-0.66l0.090-0.011s0 4.26 0.68 5.44 1.8 2.61 5.25 3.66c3.348 1.025 7.197 1.614 11.183 1.614 0.206 0 0.413-0.002 0.618-0.005l-0.031 0c3.494-0.118 6.803-0.735 9.914-1.781l-0.244 0.071c1.41-0.55 2.541-1.558 3.234-2.837l0.016-0.033c0.283-0.695 0.447-1.501 0.447-2.346 0-0.163-0.006-0.325-0.018-0.486l0.001 0.021c-0.068-0.539-0.106-1.162-0.106-1.794 0-0.248 0.006-0.495 0.018-0.74l-0.001 0.035z"></path>
<path fill="#1d1d1b" d="M50.11 31.3c2.2 0.741 3.998 1.482 5.741 2.32l-0.301-0.13c0 0.13-0.15 0.44-0.43 0.38s-5.53-1.87-5.56-1.95 0.44-0.59 0.55-0.62z"></path>
<path fill="#1d1d1b" d="M51 30.19s0.53-0.65 0.68-0.65 5.9 2.53 5.78 2.75-0.090 0.34-0.31 0.34-6.050-2.32-6.15-2.44z"></path>
<path fill="#1d1d1b" d="M51.6 27.19c2.59 0.998 4.718 1.986 6.772 3.094l-0.312-0.154c0 0.090 0 0.34-0.13 0.37s-6.52-2.23-6.67-2.41 0.21-0.84 0.34-0.9z"></path>
<path fill="#1d1d1b" d="M52.74 26c-0.14-0.090 0.090-0.65 0.34-0.59 1.245 0.374 2.308 0.805 3.322 1.322l-0.112-0.052c0 0.18 0 0.49-0.15 0.46s-3.24-1.060-3.4-1.14z"></path>
<path fill="#1d1d1b" d="M9.36 31.39c-0.265-0.326-0.425-0.747-0.425-1.205s0.16-0.879 0.428-1.209l-0.003 0.004c1.005-1.276 2.322-2.262 3.839-2.849l0.061-0.021c0.24 0.090 0.52 0.46 0.3 0.56s-2.78 1.45-3.24 2.53 0.34 1.54 0.34 1.79-1.050 0.59-1.3 0.4z"></path>
<path fill="#a42116" d="M6.71 34.58c0.21-0.24 2.59 1.66 7 2.84s8.070 2.25 17.62 2.58 13.5-0.55 17.3-1.29 7.26-2.2 7.45-2-1.7 1.76-4.58 3.090c-4.964 2.468-10.803 3.938-16.979 4l-0.021 0c-0.546 0.021-1.187 0.032-1.831 0.032-6.528 0-12.773-1.212-18.522-3.422l0.353 0.119c-4.71-1.88-8.17-5.53-7.79-5.95z"></path>
<path fill="#cbe7f5" d="M22.56 44.52c0.052-0.001 0.113-0.002 0.174-0.002 0.949 0 1.855 0.184 2.684 0.519l-0.048-0.017c-0.070 0.18-1.86 8.19-1.67 8.28s0.43 0.31 0.52 0.18 1.86-8.28 2.1-8.28 1.7 0.31 3.4 0.47l3.62 0.31s0.28 4.82 0.12 7.84-0.090 3.87 0 3.9c0.552-1.882 0.87-4.043 0.87-6.279 0-0.032-0-0.064-0-0.096v0.005c0-3.15-0.19-5.25 0-5.34s0.86 0.060 2.28-0.19 2.51-0.34 2.51-0.34 1.35 4 1.88 5.5 1.14 4.020 1.14 4.020h0.34c-0.357-2.172-0.795-4.036-1.344-5.853l0.084 0.323c-0.93-3.18-1.33-4-1.24-4.080 1.098-0.117 2.066-0.279 3.013-0.493l-0.173 0.033c1.42-0.34 2.26-0.5 2.26-0.5s4.11 11.22 4.14 11.62-2.070 1.95-4.22 2.72c-1.148 0.405-2.552 0.779-3.992 1.051l-0.188 0.029s-0.49-3.24-1.050-5.65-0.71-3-0.92-3.060c-0.029-0.004-0.063-0.007-0.098-0.007-0.151 0-0.29 0.047-0.404 0.128l0.002-0.001s0.81 3.46 1.21 5.81c0.193 0.88 0.326 1.911 0.369 2.964l0.001 0.036c-2.020 0.335-4.371 0.545-6.764 0.58l-0.036 0c-0.237 0.008-0.517 0.013-0.797 0.013-1.642 0-3.247-0.161-4.799-0.469l0.156 0.026c0.070-0.12 1.49-9.080 1.36-9.18s-0.8-0.21-0.83-0.060-2.5 8.62-2.63 8.65c-1.725-0.472-3.171-0.988-4.568-1.594l0.218 0.084c-1.58-0.68-2.38-1.11-2.44-1.45s3.32-11.96 3.76-12.15z"></path>
<path fill="#cbe7f5" d="M26.14 59.73c-0.49-0.1 1.67-5.53 1.85-5.53s0.13 0.15 0.13 0.3c-0.337 2.197-0.748 4.079-1.263 5.917l0.083-0.347c-0.18 0-0.65-0.31-0.8-0.34z"></path>
</svg>
