<!-- Generated by IcoMoon.io -->
<svg version="1.1" xmlns="http://www.w3.org/2000/svg" width="64" height="64" viewBox="0 0 64 64">
<path fill="#1d1d1b" d="M16.75 28.37c0.599-2.457 1.763-4.585 3.35-6.321l-0.010 0.011c1.571-1.762 3.545-3.132 5.78-3.967l0.1-0.033c0.53-0.15 2.84-0.34 2.84-0.34s0-1.75 0.78-2c0.498-0.174 1.080-0.308 1.682-0.377l0.038-0.004v-2.84s-1.53-0.28-1.78-1.56 0.69-2.44 2.47-2.38 2.56 1.25 2.21 2.53c-0.295 0.791-0.987 1.37-1.827 1.498l-0.013 0.002-0.060 2.69s2.060 0 2.12 1.22 0.070 1.34 0.070 1.34 4.71 0 7.68 3.060c1.766 1.719 3.292 3.671 4.531 5.811l0.069 0.129c0.058 0.418 0.091 0.9 0.091 1.391 0 0.049-0 0.098-0.001 0.147l0-0.007c3.541 0.583 6.709 1.799 9.522 3.535l-0.112-0.065c4 2.69 5.22 4.41 5 8.56-0.102 3.808-2.075 7.134-5.029 9.104l-0.041 0.026c-2.84 1.87-6.090 5-15.93 5.75-1.311 0.112-2.838 0.175-4.379 0.175-6.785 0-13.282-1.234-19.278-3.49l0.377 0.125c-6-2.090-10.22-4.4-12.72-7.81-0.965-1.429-1.54-3.19-1.54-5.086 0-1.595 0.407-3.095 1.124-4.402l-0.024 0.048c1-1.47 3.88-3.37 7-4.59 1.556-0.627 3.525-1.271 5.542-1.798l0.368-0.082z"></path>
<path fill="#cbe7f5" d="M19.68 35.060c-0.803-1.226-1.281-2.728-1.281-4.342 0-0.035 0-0.069 0.001-0.104l-0 0.005c0.425-3.306 1.834-6.223 3.921-8.512l-0.011 0.012c2.005-1.908 4.701-3.105 7.675-3.18l0.015-0c3.15-0.19 6.62 0.43 8.72 1.81 0.983 0.557 1.826 1.222 2.555 1.995l0.005 0.005s-1.35 0-1.38 0.16-0.090 0.71 0 0.75c0.958 0.044 1.861 0.166 2.736 0.36l-0.106-0.020c0.19 0.19 2.25 2.060 2.59 3.94 0.127 0.752 0.2 1.617 0.2 2.5s-0.073 1.749-0.212 2.592l0.013-0.092c-0.12-0.1-5.69-2.69-5.81-2.63s-0.31 0.59-0.22 0.69 5.94 2.53 6 2.81-0.13 1.78-0.13 1.78-5.78-2.87-6-2.72-0.5 0.57-0.34 0.69 6.31 2.75 6.28 2.94-0.81 0.75-1.22 0.94l-0.56 0.25c-1.33-0.863-2.927-1.778-4.573-2.609l-0.307-0.141c-0.21 0.090-0.65 0.28-0.43 0.59s4.37 2.41 4.15 2.62-3.87 0.82-9.090 0.72-10.15-0.37-13.19-3.81z"></path>
<path fill="#cbe7f5" d="M31.47 9.44c1.070-0.13 1.93 0.4 1.75 1.31s-2.070 0.78-2.47 0.5c-0.192-0.192-0.311-0.457-0.311-0.75 0-0.575 0.458-1.044 1.030-1.060l0.002-0z"></path>
<path fill="#696a9b" d="M30.34 17.62c-0.014 0.002-0.029 0.003-0.045 0.003-0.204 0-0.37-0.166-0.37-0.37 0-0.022 0.002-0.044 0.006-0.065l-0 0.002c0.070-0.32 0.5-0.91 1.69-0.85s1.63 0.35 1.78 0.72 0 0.44-0.37 0.5-2.35 0-2.69 0.060z"></path>
<path fill="#1d1d1b" d="M39.84 25.4c1.537 0.488 2.861 1.071 4.107 1.776l-0.107-0.056c0.090 0.22 0.16 0.72 0 0.75-1.56-0.471-2.847-0.956-4.094-1.516l0.214 0.086c-0.21-0.16-0.24-1-0.12-1.040z"></path>
<path fill="#1d1d1b" d="M40 28c1.796 0.655 3.267 1.306 4.69 2.037l-0.23-0.107c0 0.22 0.1 0.5-0.12 0.5-1.784-0.487-3.241-0.986-4.659-1.56l0.279 0.1c-0.15-0.19-0.21-0.97 0.040-0.97z"></path>
<path fill="#1d1d1b" d="M25 22.59c0.418-0.758 1.064-1.346 1.845-1.681l0.025-0.009c1.38-0.59 2.22-0.62 2.41-0.43 0.105 0.114 0.169 0.266 0.169 0.434 0 0.089-0.018 0.174-0.051 0.251l0.002-0.004c-0.923 0.234-1.722 0.525-2.482 0.885l0.082-0.035c-0.66 0.5-1.060 1.090-1.38 1.19s-0.69-0.41-0.62-0.6z"></path>
<path fill="#1d1d1b" d="M23.34 24.87c0.31-0.1 1.81 0.16 1.81 0.47-0.167 0.639-0.263 1.372-0.263 2.128 0 0.663 0.074 1.31 0.214 1.931l-0.011-0.058c0.56 1.78 1.72 4.44 1.53 5.28-0.165 0.644-0.741 1.113-1.426 1.113-0.068 0-0.136-0.005-0.202-0.014l0.008 0.001c-1.356-0.262-2.563-0.731-3.652-1.379l0.052 0.029c-0.81-0.56-1.060-1.31-0.93-3.12s1.93-6.060 2.87-6.38z"></path>
<path fill="#e6e4da" d="M23.68 25.87c0.16 0 0.19 0.13 0.16 0.41-0 0.031-0 0.067-0 0.104 0 1.909 0.263 3.757 0.755 5.509l-0.034-0.143c0.69 2.19 0.84 2.5 0.59 2.62-1.24-0.135-2.371-0.49-3.392-1.025l0.052 0.025c-0.084-0.489-0.132-1.053-0.132-1.628 0-0.795 0.092-1.569 0.265-2.311l-0.014 0.068c0.35-1.88 1.35-3.5 1.75-3.63z"></path>
<path fill="#92a0d1" d="M16.15 29.87c0.27 0 0.070 4.38 2 6.38s4.85 3.31 9.35 3.9c1.68 0.278 3.616 0.436 5.589 0.436 2.288 0 4.526-0.213 6.695-0.621l-0.224 0.035c2.742-0.539 5.176-1.552 7.329-2.958l-0.079 0.048c0.169-0.131 0.277-0.333 0.28-0.559v-0.001s0.060-6.060 0.16-6.16 5.5 0.69 8.43 3 3.69 3.69 3.6 6.22c-0.149 1.868-1.025 3.507-2.342 4.653l-0.008 0.007c-0.529 0.452-1.122 0.857-1.757 1.194l-0.053 0.026s-4.25-3.35-4.44-3.32-0.62 0.54-0.46 0.72 4.46 3 4.25 3.19c-0.456 0.252-1.003 0.505-1.569 0.72l-0.091 0.030s-2.34-1.81-2.47-1.81-0.66 0.4-0.5 0.65 2.16 1.44 2.060 1.54c-4.233 1.317-9.101 2.080-14.145 2.090h-0.005c-0.528 0.014-1.148 0.022-1.771 0.022-6.528 0-12.852-0.877-18.859-2.519l0.501 0.117c-4.375-1.293-8.192-3.069-11.676-5.316l0.176 0.106c-0.877-0.858-1.42-2.053-1.42-3.375s0.544-2.517 1.42-3.374l0.001-0.001c2.77-2.393 6.149-4.16 9.871-5.038l0.159-0.032z"></path>
<path fill="#1d1d1b" d="M52.75 40.62c0.38-0.11 3.34 2.35 3.28 2.53s-0.31 0.54-0.56 0.44c-1.216-0.746-2.268-1.517-3.251-2.366l0.031 0.026c-0.070-0.25 0.28-0.56 0.5-0.63z"></path>
<path fill="#1d1d1b" d="M54.5 40c0.12 0 0.65-0.44 0.87-0.41 0.982 0.541 1.824 1.186 2.558 1.938l0.002 0.002c-0.090 0.19-0.15 0.53-0.5 0.44s-2.93-1.97-2.93-1.97z"></path>
<path fill="#1d1d1b" d="M56.78 38.81c0.12-0.12 0.22-0.53 0.62-0.37s0.85 0.93 0.72 1.090-0.15 0.37-0.28 0.28-1.060-1-1.060-1z"></path>
<path fill="#1d1d1b" d="M51.34 35.34c0.325-0.159 0.706-0.252 1.11-0.252 1.307 0 2.387 0.976 2.549 2.239l0.001 0.013c0.4 2.38-3.82 2.88-4.66 1.41-0.243-0.361-0.389-0.806-0.389-1.285 0-0.944 0.564-1.757 1.374-2.119l0.015-0.006z"></path>
<path fill="#cbe7f5" d="M52 36.19c0.096-0.019 0.205-0.030 0.318-0.030 0.877 0 1.598 0.668 1.682 1.523l0.001 0.007c0.12 1.15-2.28 1.4-2.75 0.5-0.109-0.195-0.173-0.429-0.173-0.677 0-0.604 0.38-1.119 0.913-1.32l0.010-0.003z"></path>
<path fill="#1d1d1b" d="M43.78 41.78c0.9-0.25 2.81-0.28 3.31 1.19s-1.94 2.93-3.37 2.72c-1.036-0.156-1.821-1.040-1.821-2.107 0-0.019 0-0.037 0.001-0.055l-0 0.003c0.312-0.852 1.002-1.498 1.86-1.745l0.020-0.005z"></path>
<path fill="#cbe7f5" d="M44.43 42.56c0.64-0.060 1.75 0.5 1.41 1.13s-1.66 1.060-2.19 0.56c-0.172-0.179-0.278-0.423-0.278-0.692 0-0.552 0.448-1 1-1 0.020 0 0.041 0.001 0.061 0.002l-0.003-0z"></path>
<path fill="#1d1d1b" d="M31.25 42.75c0.76-0.11 3.93 0.060 4.090 1.62s-1.62 3.19-4.28 2.53c-1.006-0.163-1.764-1.025-1.764-2.064 0-1.106 0.86-2.012 1.948-2.085l0.006-0z"></path>
<path fill="#cbe7f5" d="M31.28 43.78c0.060-0.004 0.13-0.006 0.2-0.006 0.77 0 1.483 0.25 2.060 0.673l-0.010-0.007c0.53 0.53 0.060 1.43-1.35 1.4s-2.56-1.65-0.9-2.060z"></path>
<path fill="#1d1d1b" d="M18.090 40.22c1.33-0.22 4.63 0.47 4.53 2.59s-4.22 2.56-5.62 1.34c-0.554-0.398-0.91-1.041-0.91-1.767 0-1.139 0.877-2.072 1.992-2.163l0.008-0.001z"></path>
<path fill="#cbe7f5" d="M18 41.34c0.87-0.1 3.12 0.25 3.34 1.31s-1.66 1.54-3.090 0.85-0.82-2.1-0.25-2.16z"></path>
<path fill="#1d1d1b" d="M10.93 34.34c1.1-0.070 3.72 0.1 3.19 2.5s-4.22 2.28-5 0.66c-0.148-0.286-0.235-0.625-0.235-0.984 0-1.156 0.9-2.102 2.038-2.175l0.006-0z"></path>
<path fill="#cbe7f5" d="M11 35.37c0.87-0.22 2.19 0.28 1.81 1.35s-1.59 1-2.41 0.47-0.050-1.65 0.6-1.82z"></path>
<path fill="#696a9b" d="M7.22 44.15c0.28 0 5.65 2.88 10.31 4.13 4.524 1.428 9.726 2.251 15.121 2.251 0.123 0 0.245-0 0.368-0.001l-0.019 0c7.090 0 10.68-0.090 15.65-1.31s7.82-2.88 8-2.75c0.096 0.059 0.159 0.163 0.159 0.282 0 0.070-0.022 0.135-0.059 0.189l0.001-0.001c-2.803 2.738-6.292 4.785-10.184 5.861l-0.166 0.039c-3.251 0.784-6.984 1.234-10.822 1.234-4.021 0-7.926-0.494-11.659-1.424l0.331 0.070c-8.19-2.070-12.5-4-14.22-5.41s-3.28-3.19-2.81-3.16z"></path>
</svg>
