<!-- Generated by IcoMoon.io -->
<svg version="1.1" xmlns="http://www.w3.org/2000/svg" width="64" height="64" viewBox="0 0 64 64">
<path fill="#1d1d1b" d="M60.78 35.68c0-6.31 0.15-21.22-0.16-25.94s-3.19-5.060-4.78-5.12-9.41-0.31-17.16-0.44-19.68-0.78-24.75-0.53-6.93 1.13-8.93 2.66-1.88 5.4-1.94 7.4c0 0-0.060 8.82-0.060 16.47s0.37 23 0.37 25.94 0.94 3.22 1.25 3.31c1.146 0.106 2.479 0.167 3.826 0.167 0.269 0 0.537-0.002 0.804-0.007l-0.040 0.001c0.32-0.060 4.13-6.31 7.44-11.69s12.63-19.34 13.94-21 3.72-4.69 4.75-4.56 0.62 1.53 0.62 2.12-1.37 11.19-2.5 16.54-4.31 17.31-4.25 18.4 1 1 2.16 1 5.84 0 10.53-0.090 8.44-0.19 12-0.5 6.53-1.41 6.94-2.88-0.060-14.93-0.060-21.25zM29.93 45.060c-0.15-0.32-1.78 0.15-2.060 0.31s-0.16 3.25-0.16 3.25c-0.646-0.295-1.407-0.552-2.197-0.734l-0.083-0.016c-0.198-0.041-0.425-0.064-0.657-0.064-0.543 0-1.057 0.127-1.512 0.353l0.020-0.009c0.006-0.079 0.009-0.172 0.009-0.265s-0.003-0.186-0.010-0.277l0.001 0.012c-0.020-0.251-0.11-0.477-0.252-0.663l0.002 0.003c0.21-0.143 0.393-0.298 0.559-0.469l0.001-0.001c0.286-0.31 0.463-0.724 0.47-1.179v-0.001c0-0.19-0.090-0.25-0.31-0.25s-0.53 0.68-0.72 0.81c-0.292 0.273-0.686 0.441-1.118 0.441-0.015 0-0.029-0-0.044-0.001l0.002 0c-0.159 0.021-0.344 0.033-0.531 0.033-0.333 0-0.657-0.037-0.968-0.108l0.029 0.006s-0.28-1.090-0.37-1.37-0.47-0.13-0.69 0 0.34 1.84 0.34 1.84c-0.332 0.356-0.536 0.836-0.536 1.362 0 0.288 0.061 0.563 0.171 0.81l-0.005-0.013c0.245 0.618 0.739 1.092 1.354 1.305l0.016 0.005c-0.009 0.079-0.014 0.172-0.014 0.265 0 0.333 0.064 0.651 0.18 0.943l-0.006-0.017c0.114 0.499 0.501 0.886 0.991 0.998l0.009 0.002c-0.011 0.21-0.017 0.456-0.017 0.703 0 0.644 0.043 1.278 0.125 1.9l-0.008-0.073c0.15 0.28 0.56 0.16 0.71 0.12 0.038-0.364 0.060-0.787 0.060-1.215s-0.022-0.851-0.064-1.267l0.004 0.052 0.41 0.060s0.16 1.81 0.22 2.090 0.5 0.25 0.69 0.16c0.024-0.238 0.038-0.515 0.038-0.794 0-0.472-0.039-0.934-0.115-1.384l0.007 0.049c0.174 0.023 0.376 0.036 0.58 0.036s0.406-0.013 0.603-0.039l-0.023 0.002c0.5-0.090 1-0.22 1-0.22s0.060 2.22 0.090 2.38 0.6 0.12 0.82 0c0.071-0.458 0.111-0.987 0.111-1.525 0-0.364-0.018-0.724-0.055-1.079l0.004 0.045 0.47-0.37s0.090 1.94 0.12 2.13 0.44 0 0.59-0.19c0.038-0.342 0.059-0.738 0.059-1.14s-0.021-0.798-0.063-1.188l0.004 0.048 0.25-0.44c0.108-0.569 0.169-1.223 0.169-1.892 0-0.224-0.007-0.447-0.021-0.668l0.002 0.030c0.060-0.62 0.16-2.16 0.22-2.28 0.333-0.207 0.719-0.398 1.122-0.554l0.048-0.016c0.18-0.1 0.090-0.47-0.070-0.78z"></path>
<path fill="#1f4863" d="M7 7.24c1.3-1 3.68-1.71 7-2s16.37 0.47 22.56 0.72 16.31 0.41 18.34 0.47 3.94 0.94 4.1 3.75 0.15 13.85 0.15 19.75-0.060 19.41-0.090 22.28 0 3.66-1.22 4.57-6.25 1.59-11.19 1.68-10.62 0.16-12.5 0.16-2.78 0.090-2.84-0.060 2.72-11.22 3.84-18 2.31-13.5 2.31-13.5c0.918 0.428 1.987 0.775 3.104 0.986l0.086 0.014c1.6 0.25 3.69-0.25 4.44-1.91s0.16-4.37-0.090-5c-0.243-0.523-0.517-0.973-0.833-1.388l0.013 0.018c0.194-0.555 0.339-1.203 0.407-1.873l0.003-0.037c0-0 0-0 0-0 0-0.601-0.080-1.183-0.231-1.736l0.011 0.046c0.223-0.186 0.498-0.317 0.8-0.369l0.010-0.001c0.236-0.034 0.508-0.053 0.785-0.053s0.549 0.019 0.816 0.056l-0.031-0.004c0.273 0.474 0.628 0.871 1.050 1.183l0.010 0.007c0.53 0.28 2-0.12 2.5-2 0.092-0.207 0.146-0.448 0.146-0.702 0-0.943-0.741-1.712-1.672-1.758l-0.004-0c-0.736 0.167-1.355 0.587-1.774 1.162l-0.006 0.008c-0.174 0.287-0.323 0.619-0.431 0.968l-0.008 0.032c-0.104-0.004-0.225-0.006-0.347-0.006-0.396 0-0.786 0.024-1.169 0.071l0.046-0.005c-0.477 0.132-0.873 0.272-1.256 0.435l0.066-0.025c-0.3-0.948-0.891-1.733-1.666-2.271l-0.014-0.009c-0.749-0.562-1.694-0.901-2.717-0.901-0.026 0-0.051 0-0.076 0.001l0.004-0-0.87-1.87c0.5-0.264 0.835-0.78 0.835-1.375 0-0.181-0.031-0.354-0.088-0.516l0.003 0.011c-0.47-1.25-1.31-1.69-2.81-1.1-0.651 0.212-1.114 0.814-1.114 1.524 0 0.549 0.277 1.034 0.699 1.322l0.005 0.004c0.452 0.277 0.999 0.44 1.584 0.44 0.013 0 0.025-0 0.038-0h-0.002l0.44 1.5c-0.064-0.007-0.138-0.010-0.213-0.010-0.484 0-0.931 0.158-1.293 0.425l0.006-0.004c-0.369 0.246-0.68 0.545-0.933 0.89l-0.007 0.010c-0.765-0.25-1.646-0.394-2.56-0.394-0.552 0-1.091 0.053-1.613 0.153l0.053-0.008c-2.002 0.239-3.54 1.927-3.54 3.973 0 0.097 0.003 0.194 0.010 0.289l-0.001-0.013c0.193 1.775 0.918 3.351 2.008 4.6l-0.008-0.010c0.317 0.429 0.645 0.807 1 1.16l0 0c-1.895 2.353-3.752 4.983-5.44 7.728l-0.19 0.332c-3 4.84-8.78 14.12-10.78 17.34s-6 9.44-6.22 9.5c-0.337 0.059-0.724 0.092-1.119 0.092-0.601 0-1.183-0.077-1.738-0.223l0.048 0.011c-0.47-0.35-0.47-5.72-0.4-8.78s-0.38-21.44-0.44-27.72-0.88-11.6 2.22-14.040z"></path>
<path fill="#1d1d1b" d="M13.78 19.53c0.56 0 1.47 0 1 0.93s-2.1 2.57-0.72 5.32 2 2.84 2.66 3 1.34-0.090 1.5 0.22 0.31 0.5 0 0.78c-0.931 0.536-2.046 0.852-3.236 0.852-1.664 0-3.184-0.619-4.341-1.638l0.007 0.006c-3.37-3-2.090-6.090-0.56-7.62 0.945-1.002 2.226-1.678 3.662-1.847l0.028-0.003z"></path>
<path fill="#cbe7f5" d="M12.84 20.84c0.41-0.16 0.31 0.34 0.22 0.53-0.456 0.693-0.727 1.542-0.727 2.455s0.271 1.762 0.737 2.472l-0.011-0.017c1.56 2.81 1.66 2.78 1.62 2.9-0.212 0.041-0.456 0.064-0.706 0.064-1.46 0-2.732-0.8-3.404-1.985l-0.010-0.019c-1.5-2.4-0.75-5.24 2.28-6.4z"></path>
<path fill="#1d1d1b" d="M22.5 20.34c1.57-0.32 2.62 0.87 2 2.62s-2 2-3.13 1c-0.388-0.387-0.628-0.923-0.628-1.514 0-1.047 0.752-1.918 1.745-2.104l0.013-0.002z"></path>
<path fill="#ffe19b" d="M22.59 21.26c0.88-0.18 1.46 0.49 1.12 1.47s-1.1 1.13-1.75 0.55c-0.219-0.216-0.355-0.516-0.355-0.848 0-0.585 0.422-1.071 0.978-1.171l0.007-0.001z"></path>
<path fill="#1d1d1b" d="M52.94 16.58c1.26-0.26 2.090 0.69 1.6 2.090s-1.57 1.61-2.49 0.79c-0.311-0.308-0.504-0.735-0.504-1.208 0-0.831 0.596-1.522 1.383-1.671l0.011-0.002z"></path>
<path fill="#ffe19b" d="M53 17.31c0.7-0.14 1.17 0.39 0.89 1.17s-0.88 0.9-1.39 0.44c-0.147-0.173-0.236-0.399-0.236-0.645 0-0.458 0.308-0.845 0.729-0.963l0.007-0.002z"></path>
<path fill="#1d1d1b" d="M12.060 35.68c1-0.49 2.81-0.34 2.28 1.94s-2.75 2.41-3.28 1.5c-0.227-0.361-0.362-0.8-0.362-1.27 0-0.95 0.549-1.771 1.348-2.164l0.014-0.006z"></path>
<path fill="#ffe19b" d="M12.28 36.5c0.58-0.28 1.58-0.19 1.29 1.090s-1.55 1.35-1.85 0.84c-0.128-0.203-0.204-0.449-0.204-0.714 0-0.532 0.308-0.993 0.756-1.213l0.008-0.004z"></path>
<path fill="#e6e4da" d="M15.71 12.78s-0.5-0.94-0.34-1c0.188-0.119 0.414-0.195 0.656-0.21l0.004-0c0.186 0.406 0.348 0.884 0.46 1.38l0.009 0.050h0.31s0.22-0.81 0.44-0.84 0.53 0 0.46 0.19-0.31 0.78-0.31 0.78 1.060-0.19 1.13 0 0.28 0.62 0 0.65l-1.1 0.13c0.027 0.066 0.042 0.142 0.042 0.222 0 0.126-0.038 0.243-0.103 0.34l0.001-0.002c-0.088 0.128-0.202 0.233-0.335 0.307l-0.005 0.003s0.47 1.1 0.22 1.29c-0.171 0.111-0.375 0.186-0.594 0.209l-0.006 0.001-0.34-1.4s-0.91 1.090-1.16 1-0.75-0.47-0.62-0.56 1-1 1-1c-0.285 0.045-0.614 0.071-0.949 0.071-0.131 0-0.26-0.004-0.389-0.012l0.018 0.001c0-0.1-0.15-0.56 0-0.63s0.75-0.25 0.75-0.25-0.65-0.15-0.65-0.31 0.34-0.84 0.46-0.75c0.239 0.106 0.551 0.221 0.87 0.321l0.070 0.019z"></path>
<path fill="#e6e4da" d="M24.060 10.28s-0.16-0.57 0.19-0.6 0.9 0 0.9-0.12-0.28-1.35-0.060-1.47 0.66-0.25 0.62-0.060 0.1 1.34 0.1 1.34 0.81-0.66 1-0.53c0.109 0.11 0.194 0.244 0.248 0.393l0.002 0.008-0.88 0.69c0.454 0.052 0.866 0.151 1.259 0.292l-0.039-0.012c0 0.1 0.19 0.53-0.22 0.53h-1.090c0.109 0.328 0.234 0.609 0.383 0.875l-0.013-0.025c0.19 0.28 0.41 0.44 0.25 0.56s-0.78 0.34-0.84 0.25-0.37-0.91-0.47-1.090-0.22-0.41-0.22-0.41-0.59 0.63-0.65 0.59-0.57-0.46-0.44-0.56l0.56-0.4z"></path>
<path fill="#8ec480" d="M37.31 7.81c0.88-0.18 1.31 0.4 1.28 0.84s-1.22 1.060-1.69 0.72-0.81-1.31 0.41-1.56z"></path>
<path fill="#8ec480" d="M37 13.59c0.1-0.13 0.63-0.72 2.69-0.31s3 1.090 3.56 2.46c0.164 0.42 0.259 0.907 0.259 1.416 0 0.434-0.069 0.852-0.197 1.243l0.008-0.028c-0.938-1.058-1.973-1.992-3.104-2.802l-0.056-0.038c-0.916-0.735-1.955-1.383-3.066-1.901l-0.094-0.039z"></path>
<path fill="#8ec480" d="M48.56 13.59c0.74-0.33 1.060 0.81 0.84 1.56-0.131 0.466-0.552 0.802-1.051 0.802-0.198 0-0.384-0.053-0.544-0.145l0.005 0.003c-0.5-0.35-0.6-1.63 0.75-2.22z"></path>
<path fill="#1d1d1b" d="M44.9 8.59c0.248-0.173 0.555-0.276 0.886-0.276 0.814 0 1.483 0.624 1.554 1.42l0 0.006c0.12 1.54-2.090 1.72-2.69 0.82s-0.53-1.38 0.25-1.97z"></path>
<path fill="#ffe19b" d="M45.43 9.25c0.101-0.070 0.227-0.112 0.362-0.112 0.337 0 0.612 0.26 0.638 0.59l0 0.002c0 0.62-0.86 0.7-1.1 0.33s-0.22-0.56 0.1-0.81z"></path>
<path fill="#e6e4da" d="M50.31 25.43c0.12 0 1.34 0.13 1.37 0s0.070-1.65 0.41-1.65 0.69 0 0.62 0.18c-0.098 0.329-0.154 0.708-0.154 1.099 0 0.064 0.002 0.127 0.004 0.189l-0-0.009c0.090 0 1.19-1.060 1.37-1s0.57 0.21 0.47 0.37-1.65 1.56-1.65 1.56c0.081 0.507 0.128 1.093 0.128 1.688 0 0.145-0.003 0.289-0.008 0.432l0.001-0.021c-0.12 0-0.66 0.22-0.75 0-0.087-0.446-0.154-0.985-0.188-1.533l-0.002-0.037s-0.81 1.16-1 1-0.56-0.62-0.4-0.71 0.87-0.75 0.87-0.75l-1.12-0.19z"></path>
<path fill="#1d1d1b" d="M40.87 30.15c0.193-0.128 0.43-0.204 0.684-0.204 0.69 0 1.25 0.56 1.25 1.25 0 0.13-0.020 0.255-0.056 0.373l0.002-0.009c-0.099 0.646-0.65 1.134-1.316 1.134-0.452 0-0.851-0.225-1.092-0.57l-0.003-0.004c-0.093-0.196-0.147-0.426-0.147-0.668 0-0.536 0.266-1.011 0.672-1.299l0.005-0.003z"></path>
<path fill="#ffe19b" d="M41.22 30.83c0.083-0.058 0.185-0.093 0.296-0.093 0.287 0 0.52 0.233 0.52 0.52 0 0.058-0.010 0.114-0.027 0.166l0.001-0.004c-0.047 0.265-0.276 0.464-0.552 0.464-0.183 0-0.345-0.087-0.447-0.223l-0.001-0.001c-0.038-0.083-0.060-0.18-0.060-0.282 0-0.223 0.105-0.42 0.269-0.547l0.002-0.001z"></path>
<path fill="#1d1d1b" d="M40.93 45.68c0.193-0.128 0.43-0.204 0.684-0.204 0.69 0 1.25 0.56 1.25 1.25 0 0.13-0.020 0.255-0.056 0.373l0.002-0.009c-0.099 0.646-0.65 1.134-1.316 1.134-0.452 0-0.851-0.225-1.092-0.57l-0.003-0.004c-0.091-0.195-0.145-0.424-0.145-0.665 0-0.537 0.264-1.012 0.67-1.302l0.005-0.003z"></path>
<path fill="#ffe19b" d="M41.28 46.36c0.083-0.058 0.185-0.093 0.296-0.093 0.287 0 0.52 0.233 0.52 0.52 0 0.058-0.010 0.114-0.027 0.166l0.001-0.004c-0.047 0.265-0.276 0.464-0.552 0.464-0.183 0-0.345-0.087-0.447-0.223l-0.001-0.001c-0.041-0.084-0.065-0.184-0.065-0.289 0-0.222 0.108-0.418 0.273-0.54l0.002-0.001z"></path>
<path fill="#1d1d1b" d="M51.37 41c0.196-0.135 0.437-0.215 0.698-0.215 0.685 0 1.24 0.555 1.24 1.24 0 0.134-0.021 0.263-0.061 0.384l0.002-0.009c-0.099 0.646-0.65 1.134-1.316 1.134-0.452 0-0.851-0.225-1.092-0.57l-0.003-0.004c-0.092-0.195-0.146-0.423-0.146-0.664 0-0.534 0.265-1.007 0.671-1.293l0.005-0.003z"></path>
<path fill="#ffe19b" d="M51.72 41.7c0.080-0.051 0.178-0.081 0.282-0.081 0.293 0 0.53 0.237 0.53 0.53 0 0.054-0.008 0.106-0.023 0.155l0.001-0.004c-0.051 0.261-0.278 0.456-0.55 0.456-0.184 0-0.346-0.088-0.449-0.225l-0.001-0.001c-0.038-0.083-0.060-0.18-0.060-0.282 0-0.222 0.105-0.42 0.269-0.547l0.002-0.001z"></path>
<path fill="#1d1d1b" d="M51.5 51.15c0.194-0.131 0.432-0.209 0.689-0.209 0.685 0 1.24 0.555 1.24 1.24 0 0.136-0.022 0.266-0.062 0.388l0.002-0.009c-0.099 0.646-0.65 1.134-1.316 1.134-0.452 0-0.851-0.225-1.092-0.57l-0.003-0.004c-0.090-0.194-0.142-0.42-0.142-0.659 0-0.54 0.267-1.017 0.677-1.307l0.005-0.003z"></path>
<path fill="#ffe19b" d="M51.84 51.83c0.082-0.054 0.183-0.087 0.291-0.087 0.293 0 0.53 0.237 0.53 0.53 0 0.052-0.008 0.103-0.022 0.151l0.001-0.004c-0.047 0.265-0.276 0.464-0.552 0.464-0.183 0-0.345-0.087-0.447-0.223l-0.001-0.001c-0.043-0.086-0.068-0.187-0.068-0.294 0-0.218 0.105-0.412 0.266-0.535l0.002-0.001z"></path>
<path fill="#e6e4da" d="M45 36.18s-0.38-0.9-0.19-1.060 0.47-0.31 0.53-0.16 0.44 1.25 0.44 1.25 0.37-0.75 0.53-0.75 0.62 0 0.59 0.16c-0.124 0.289-0.258 0.536-0.411 0.768l0.011-0.018s1.090 0.16 1.090 0.31c-0.036 0.226-0.092 0.428-0.167 0.62l0.007-0.020-1.22 0.12s0.72 1.78 0.57 1.91-0.6 0.28-0.66 0.18c-0.168-0.613-0.339-1.112-0.535-1.598l0.035 0.098c-0.090 0-0.91 1.57-1.060 1.47s-0.66-0.28-0.56-0.4 0.75-0.82 0.62-0.91-0.78-0.060-0.81-0.28 0-0.66 0.12-0.69 0.72-0.090 0.72-0.090-0.78-0.38-0.72-0.53-0.060-0.6 0.32-0.5c0.212 0.052 0.468 0.094 0.729 0.118l0.021 0.002z"></path>
<path fill="#e6e4da" d="M39.37 51.18s0.28-0.31 0.44-0.25c0.264 0.321 0.504 0.682 0.704 1.066l0.016 0.034s0.25-0.69 0.43-0.63 0.41 0 0.35 0.16-0.31 1.31-0.31 1.31 1.47 0.44 1.47 0.72 0 0.53-0.1 0.53-0.84-0.13-0.84-0.13 0.15 0.6 0 0.66l-0.25 0.090-0.81-0.93s-0.41 1.28-0.57 1.25l-0.78-0.13 0.060-0.69s-0.4 0-0.5-0.28-0.25-1.15 0-1.18 1.25 0 1.22-0.1-0.5-1.28-0.53-1.5z"></path>
<path fill="#f2910d" d="M20.71 47.28c0.45-0.080 1.47-0.29 1.69 0.15 0.11 0.149 0.177 0.336 0.177 0.539 0 0.323-0.169 0.608-0.423 0.769l-0.004 0.002c-0.305 0.182-0.672 0.29-1.065 0.29-0.29 0-0.567-0.059-0.818-0.165l0.014 0.005c-0.16-0.19-0.85-1.38 0.43-1.59z"></path>
<path fill="#f2910d" d="M22 49.81c0.875-0.701 1.997-1.127 3.219-1.13h0.001c1.53 0.13 2.070 0.63 2.22 1.13 0.066 0.146 0.105 0.317 0.105 0.497 0 0.473-0.267 0.884-0.658 1.089l-0.007 0.003c-0.631 0.301-1.372 0.477-2.154 0.477-0.537 0-1.055-0.083-1.542-0.237l0.036 0.010c-1.72-0.37-1.79-1.31-1.22-1.84z"></path>
<path fill="#c8db89" d="M31.84 21.9c-0.060-0.12-2.59-2.72-2.41-4.62s0.6-4 4.63-3 6.75 2.71 8.5 5.21 1.9 4.5 1.72 5.16c-0.093 0.36-0.213 0.672-0.362 0.967l0.012-0.027s-2.18-3.88-2.34-3.88-0.78 0.41-0.63 0.57 2.79 4.060 2.57 4.15-0.69 0.28-0.69 0.28-2.19-3.87-2.38-3.93-0.75 0.18-0.62 0.31 2.34 3.72 2.25 3.75c-0.121 0.007-0.263 0.011-0.405 0.011s-0.284-0.004-0.424-0.012l0.019 0.001-1.91-3.13s-0.5 0.16-0.44 0.28 1.69 2.91 1.57 2.91-1.57-0.56-1.79-0.66l-1.15-0.5s0.75-3.21 0.090-4.12-0.78-1.69-2.56-1.47c-1.282 0.263-2.39 0.883-3.25 1.75l-0 0z"></path>
<path fill="#1d1d1b" d="M30.56 17c0.107-0.576 0.513-1.036 1.049-1.217l0.011-0.003c0.94-0.32 1.41-0.070 1.53 0.25s0.22 0.62-0.12 0.68-0.94-0.25-1.38 0.22-0.15 0.66-0.53 0.66-0.47-0.47-0.56-0.59z"></path>
</svg>
