<!-- Generated by IcoMoon.io -->
<svg version="1.1" xmlns="http://www.w3.org/2000/svg" width="64" height="64" viewBox="0 0 64 64">
<path fill="#1d1d1b" d="M17.89 14.58c1.801-3.053 4.634-5.334 8.010-6.383l0.1-0.027c1.556-0.505 3.347-0.796 5.206-0.796 2.806 0 5.457 0.663 7.804 1.842l-0.1-0.046c2.093 1.322 3.852 2.963 5.263 4.877l0.037 0.053s6.2 1.11 10.6 4.72 6.6 7.36 6.48 10.85-4 7.73-5.74 9.24c-1.265 1.041-2.673 2.031-4.153 2.913l-0.157 0.087 2.76 7.87c1.493 0.353 2.647 1.507 2.995 2.973l0.005 0.027c0.49 2.47-2.56 3.7-4.28 2.62s-1.73-2.13-1.54-3c0.178-0.736 0.428-1.382 0.752-1.984l-0.022 0.044s-5.51-6.46-5.6-6.41-1.050 0.92-5.12 1.63c-1.739 0.346-3.892 0.64-6.079 0.816l-0.211 0.014-0.27 3.27c0.74 0.438 1.229 1.233 1.229 2.141 0 0.191-0.022 0.377-0.062 0.555l0.003-0.017c-0.25 2-3.55 2.32-4.93 1.27s-0.87-2.81-0.41-3.58c0.306-0.465 0.77-0.806 1.314-0.947l0.016-0.003-0.71-2.65c-2.085-0.138-4.023-0.447-5.896-0.918l0.226 0.048c-3.48-0.8-5.27-1.29-5.27-1.29l-6.41 7.61c0.613 0.471 1.004 1.203 1.004 2.028 0 0.269-0.041 0.527-0.118 0.77l0.005-0.018c-0.37 2-3.57 2.37-5.24 1s-0.31-3.64 0.34-4.19c0.403-0.335 0.891-0.582 1.427-0.706l0.023-0.005 4-8.91c-3.115-1.622-5.738-3.763-7.856-6.337l-0.034-0.043c-3.75-4.59-4.77-10-4.59-11.67s3.7-5.21 7.31-6.84c2.234-0.985 4.87-1.846 7.604-2.447l0.286-0.053z"></path>
<path fill="#8ec480" d="M16.47 16.28c0.13 0.060 0.19 0.31 0.19 0.31-0.662 1.637-1.198 3.554-1.519 5.543l-0.021 0.157c-0.060 0.5-0.095 1.080-0.095 1.667 0 1.056 0.111 2.086 0.322 3.079l-0.017-0.096c0.12 0.16 3 4.23 10.76 5.43 1.507 0.239 3.245 0.375 5.015 0.375 4.15 0 8.125-0.75 11.797-2.121l-0.233 0.076c1.453-0.64 2.679-1.555 3.659-2.687l0.011-0.013c0.414-0.668 0.66-1.479 0.66-2.346 0-0.012-0-0.024-0-0.035v0.002c0.021-0.338 0.033-0.732 0.033-1.13 0-1.28-0.125-2.532-0.363-3.742l0.020 0.122c-0.311-1.678-0.658-3.077-1.075-4.446l0.075 0.286c2.331 0.48 4.398 1.327 6.249 2.486l-0.079-0.046c2.28 1.66 6.56 4.83 6.38 9.12s-5.4 7.12-7.83 8.14-10.7 4.59-20.16 3.79-13.44-2.13-18.8-5.86-6.16-6.21-6.6-8.14c-0.77-3.42 2.65-6.070 4.72-7.2 1.867-0.915 4.151-1.837 6.503-2.607l0.398-0.113z"></path>
<path fill="#e6e4da" d="M17.12 26.23c-0.085-0.611-0.133-1.318-0.133-2.036 0-2.285 0.491-4.456 1.373-6.413l-0.040 0.099q2.82-5.86 8-7.77c1.541-0.605 3.326-0.955 5.193-0.955 2.1 0 4.096 0.444 5.9 1.242l-0.093-0.037c3.167 1.414 5.569 4.061 6.626 7.315l0.024 0.085c0.636 2.631 1 5.652 1 8.758 0 0.018 0 0.037-0 0.055v-0.003c-0.002 0.329-0.083 0.638-0.225 0.911l0.005-0.011s-5.11-4.56-5.33-4.56-0.83 0.49-0.65 0.7 5.23 4.070 5.1 4.29c-0.409 0.278-0.878 0.518-1.377 0.696l-0.044 0.014s-3.85-3.42-4.13-3.42-0.74 0.49-0.61 0.58 4.070 3.15 3.91 3.3c-0.452 0.273-0.979 0.478-1.54 0.585l-0.030 0.005c-0.929-0.926-1.907-1.806-2.929-2.634l-0.071-0.056c-0.25 0-0.65 0.31-0.52 0.5s2.75 2.43 2.56 2.53-1.75 0.47-1.75 0.47-1.94-1.79-2.070-1.79-0.71 0.18-0.64 0.4 1.63 1.66 1.51 1.73c-1.518 0.37-3.261 0.583-5.054 0.583-2.414 0-4.738-0.385-6.913-1.097l0.157 0.044c-6.47-1.98-7.21-4.11-7.21-4.11z"></path>
<path fill="#1d1d1b" d="M39.62 20c1.629 1.17 3.057 2.345 4.406 3.604l-0.026-0.024c-0.005 0.227-0.064 0.44-0.164 0.628l0.004-0.008s-4.41-3.2-4.44-3.36c0-0.309 0.082-0.598 0.224-0.849l-0.004 0.009z"></path>
<path fill="#1d1d1b" d="M40.14 18.59s0.37-0.62 0.53-0.65c1.165 0.796 2.183 1.658 3.104 2.614l0.006 0.006c0 0.25 0.060 0.71 0 0.65s-3.61-2.62-3.64-2.62z"></path>
<path fill="#1d1d1b" d="M40.88 15.54c0.731 0.302 1.362 0.685 1.922 1.15l-0.012-0.010c0.1 0.25 0.19 0.59 0.070 0.62-0.802-0.311-1.495-0.684-2.131-1.131l0.031 0.021c-0-0.011-0-0.023-0-0.035 0-0.222 0.044-0.433 0.124-0.626l-0.004 0.011z"></path>
<path fill="#1d1d1b" d="M20.85 17.050c0.438-1.287 1.122-2.39 2.003-3.303l-0.003 0.003c1.48-1.51 2.87-2.19 3.11-2.060s0.37 0.49 0.22 0.55c-1.141 0.644-2.088 1.505-2.812 2.533l-0.018 0.027c-1 1.54-1.15 2.77-1.36 2.8-0.436-0.118-0.816-0.307-1.149-0.556l0.009 0.006z"></path>
<path fill="#1d1d1b" d="M26.33 16.25c0.3-0.080 0.62 0.34 0.56 0.89-0.1 0.631-0.157 1.358-0.157 2.099 0 1.28 0.17 2.521 0.489 3.7l-0.023-0.099c0.77 2.87 0.74 4.78 0.4 5-0.346 0.039-0.746 0.061-1.152 0.061-1.119 0-2.199-0.169-3.215-0.482l0.077 0.020c-1.75-0.5-2.31-1.050-2.25-2.16 0.317-2.081 1.046-3.944 2.103-5.575l-0.033 0.055c0.853-1.386 1.919-2.551 3.168-3.487l0.032-0.023z"></path>
<path fill="#fff" d="M25.38 18.87c0.15 0 0.090 2.34 0.55 4.28s0.71 3.27 0.44 3.45c-0.015 0-0.032 0-0.049 0-1.125 0-2.213-0.157-3.244-0.45l0.083 0.020c-0.68-0.15-1-0.31-1-0.77 0.241-1.439 0.617-2.722 1.123-3.937l-0.043 0.117c0.6-1.2 1.76-2.68 2.14-2.71z"></path>
<path fill="#1d1d1b" d="M7.23 26.54c-0.15-0.48-0.236-1.032-0.236-1.604 0-0.673 0.12-1.318 0.339-1.915l-0.012 0.039c0.715-1.431 1.959-2.509 3.469-2.989l0.041-0.011c0.34 0 0.56 0.46 0.43 0.56s-2.49 1-2.8 2.52 0.52 3.46 0.4 3.67-1.48-0.11-1.63-0.27z"></path>
<path fill="#1d1d1b" d="M52.44 21.73c1.395 0.825 2.584 1.64 3.714 2.526l-0.074-0.056c0.003 0.019 0.005 0.041 0.005 0.064 0 0.167-0.105 0.31-0.253 0.365l-0.003 0.001c-1.371-0.614-2.543-1.282-3.642-2.047l0.072 0.047c0.006-0.326 0.072-0.634 0.186-0.917l-0.006 0.017z"></path>
<path fill="#1d1d1b" d="M51.61 24.51c1.693 1.15 3.171 2.334 4.552 3.62l-0.022-0.020c0 0.25-0.090 0.47-0.25 0.47s-4.47-2.93-4.56-3.090c0.002-0.363 0.106-0.701 0.285-0.988l-0.005 0.008z"></path>
<path fill="#1d1d1b" d="M50.62 27.1c1.952 1.048 3.627 2.152 5.195 3.387l-0.075-0.057c0 0.18-0.25 0.61-0.34 0.55s-5.49-2.74-5.4-2.93c0.185-0.361 0.391-0.673 0.627-0.959l-0.007 0.009z"></path>
<path fill="#1d1d1b" d="M48.65 29.29c0.18 0 5.050 2.52 5 2.74s-0.18 0.49-0.37 0.43-5.28-2.34-5.15-2.46 0.37-0.68 0.52-0.71z"></path>
<path fill="#1d1d1b" d="M47.080 31.66c1.528 0.815 2.81 1.61 4.037 2.478l-0.117-0.078c-0.15 0.13-0.21 0.22-0.4 0.25-1.57-0.629-2.886-1.28-4.144-2.018l0.144 0.078c0.1-0.283 0.265-0.523 0.478-0.708l0.002-0.002z"></path>
<path fill="#1d1d1b" d="M45.29 33.82c1.306 0.616 2.428 1.303 3.466 2.094l-0.046-0.034c-0.15 0.090-0.37 0.28-0.52 0.28-1.362-0.591-2.508-1.199-3.601-1.885l0.111 0.065c0.162-0.209 0.358-0.382 0.581-0.515l0.010-0.005z"></path>
<path fill="#1d1d1b" d="M42.73 35.45c0.958 0.519 1.776 1.049 2.548 1.635l-0.048-0.035s-0.37 0.28-0.49 0.25c-0.956-0.482-1.755-0.954-2.52-1.471l0.080 0.051c0-0.090 0.28-0.37 0.43-0.43z"></path>
<path fill="#c8db89" d="M8.67 34.4c0.14-0.14 4.81 3.48 9.62 5.27s8.14 2.070 14.71 2.33c0.375 0.014 0.816 0.021 1.259 0.021 5.484 0 10.69-1.19 15.373-3.326l-0.232 0.095c4-1.79 6.29-3.42 6.47-3.21s-2.28 3.12-6 4.84-8.38 4.19-16.18 4.23-13.33-1.16-17.69-3.71-7.6-6.26-7.33-6.54z"></path>
<path fill="#fab900" d="M16.19 42.57c1.077 0.415 2.007 0.965 2.827 1.643l-0.017-0.013c-0.090 0.1-5.76 7.090-6 7.12s-0.65 0-0.65-0.12 3.65-8.48 3.84-8.63z"></path>
<path fill="#fab900" d="M11.050 52.16c0.82-0.080 2.65 0.67 2.59 2s-2.16 1.51-3.12 1.080-1.14-2.93 0.53-3.080z"></path>
<path fill="#fab900" d="M32.16 46.64c0.096-0.002 0.209-0.003 0.322-0.003 0.506 0 1.007 0.023 1.501 0.068l-0.064-0.005c-0.081 0.991-0.212 1.887-0.395 2.763l0.025-0.143c-0.1 0-0.77 0-0.8-0.060s-0.59-2.62-0.59-2.62z"></path>
<path fill="#fab900" d="M31.91 50.43c0.24-0.117 0.521-0.185 0.819-0.185 0.833 0 1.541 0.536 1.797 1.282l0.004 0.013c0.56 1.48-1.75 2-2.59 1.42s-1.010-2.19-0.030-2.53z"></path>
<path fill="#fab900" d="M47.57 43.77c0.783-0.44 1.691-0.828 2.643-1.115l0.097-0.025c0 0.090 2.32 6.66 2.13 6.72s-0.12 0.34-0.34 0-4.56-5.49-4.53-5.58z"></path>
<path fill="#fab900" d="M53 51.23c0.097-0.012 0.209-0.019 0.323-0.019 1.047 0 1.959 0.574 2.44 1.425l0.007 0.014c0.071 0.172 0.112 0.371 0.112 0.58 0 0.862-0.698 1.56-1.56 1.56-0.321 0-0.619-0.097-0.867-0.263l0.006 0.004c-1.54-0.86-1.27-3.080-0.46-3.3z"></path>
</svg>
