<!-- Generated by IcoMoon.io -->
<svg version="1.1" xmlns="http://www.w3.org/2000/svg" width="64" height="64" viewBox="0 0 64 64">
<path fill="#1d1d1b" d="M16.59 14c2.966-3.026 6.7-5.29 10.886-6.478l0.174-0.042c6.56-1.63 11.81-1 15.37 1.25s4.63 4.37 4.63 4.37l2.35-1.75s-2.31-5.5 2.57-6.81 5.81 2.69 5.62 5.81-2.35 3.75-3.19 3.88c-0.965-0.012-1.888-0.172-2.754-0.458l0.064 0.018-2.68 4c0.878 1.817 1.417 3.943 1.48 6.188l0.001 0.022c0.036 0.613 0.056 1.331 0.056 2.053 0 1.242-0.060 2.47-0.178 3.681l0.012-0.154s3.59 1.5 3.71 1.5 2.92-1 3.92-0.17 0.71 1.59 0.71 1.59 2 0 1.54 1.75c-0.167 0.948-0.801 1.718-1.652 2.073l-0.018 0.007c0.371 0.198 0.62 0.583 0.62 1.027 0 0.187-0.044 0.364-0.123 0.52l0.003-0.007c-0.465 0.795-1.314 1.32-2.286 1.32-0.354 0-0.693-0.070-1.001-0.197l0.018 0.006c-1.075-0.781-1.887-1.864-2.317-3.125l-0.013-0.045c-0.136-0.446-0.239-0.97-0.288-1.509l-0.002-0.031-3.17-1s-2.58 8.62-3.71 12.16-1.79 5.84-1.79 5.84 3.87 0 4.33 1.91 0.42 4.92 0 5.21-5 0.67-8.41 0.67-4.54-0.79-4.5-1.33 0-7.55-0.25-7.67c-0.6-0.079-1.295-0.124-2-0.124s-1.399 0.045-2.081 0.132l0.081-0.008c-1.67 0.16-2.88 0.62-2.92 1s0.25 7.29 0 7.75-6.25 0.95-10.17 1-4.58 0-4.58-0.42-0.67-5 0.63-5.71c1.376-0.499 2.972-0.853 4.63-0.995l0.070-0.005s-2.87-7.83-4.29-11.75-2.37-6.92-2.37-6.92l-3.25 0.97s0.29 1.62-0.5 2.21-2.25 1-3 0c-0.273-0.393-0.436-0.88-0.436-1.405 0-0.244 0.035-0.48 0.101-0.702l-0.004 0.018c-0.803-0.49-1.331-1.361-1.331-2.355 0-0.019 0-0.038 0.001-0.057l-0 0.003c0.21-1.46 0.79-2 1.13-2.17 0.202-0.055 0.433-0.087 0.673-0.087 0.069 0 0.138 0.003 0.207 0.008l-0.009-0.001s0.87-1.63 2.1-1.3c0.677 0.122 1.199 0.657 1.299 1.331l0.001 0.009 2.25-0.84c-0.284-1.14-0.447-2.449-0.447-3.796 0-1.134 0.115-2.241 0.335-3.309l-0.018 0.105c0.336-2.010 1.145-3.788 2.309-5.275l-0.019 0.025-4.41-4.62c-0.878 0.63-1.975 1.007-3.159 1.007-0.343 0-0.679-0.032-1.004-0.092l0.034 0.005c-2.17-0.55-4.17-2.71-2.44-6s7.27-3.59 8.63-1.71 0 4.33 0 4.33z"></path>
<path fill="#ddc07c" d="M8.32 31.37l-0.55-0.87s0.21-1 1.050-0.63 1 1.59 1.12 1.54 2.5-0.95 2.63-0.7 0.54 2.41 0.54 2.41-4 1-4 1.25 0.33 1.63-0.21 2.090-1.33 0.5-1.5 0.16-0.29-1.16 0-1.21 0.58-0.2 0.58-0.33-0.080-0.71-0.080-0.71-1 0.34-1.5-0.21-0.92-2.080-0.4-2.45c0.229-0.176 0.521-0.283 0.837-0.283 0.259 0 0.502 0.072 0.71 0.196l-0.006-0.003c0.19 0.25 0.78-0.25 0.78-0.25z"></path>
<path fill="#1d1d1b" d="M12.15 31.41c0.080 0.13 0.29 0.71 0.080 0.84-0.222 0.076-0.477 0.12-0.743 0.12-0.017 0-0.033-0-0.050-0.001l0.002 0s-0.37-0.54-0.21-0.66c0.264-0.124 0.571-0.227 0.892-0.295l0.028-0.005z"></path>
<path fill="#fab900" d="M8.48 6c1.73-0.32 3.21 0.41 3.46 2s-1.83 4-3.25 4.58-3.33 0.46-4.12-0.75-1.050-4.92 3.91-5.83z"></path>
<path fill="#ddc07c" d="M12 11.21c1.456 1.193 2.762 2.433 3.974 3.761l0.026 0.029c-0.198 0.493-0.45 0.919-0.757 1.3l0.007-0.009s-4.25-3.67-4.1-3.88 0.85-1.2 0.85-1.2z"></path>
<path fill="#fab900" d="M52.9 5.75c1.41-0.46 3.83-0.21 4.37 3.080s-1.5 4.54-3.54 4.13c-1.657-0.307-2.895-1.741-2.895-3.464 0-0.147 0.009-0.291 0.026-0.433l-0.002 0.017c0.080-1.83 0.87-2.96 2.040-3.33z"></path>
<path fill="#ddc07c" d="M50.52 12.16c0.13 0.17 1.21 1 1.090 1.17s-2.29 3-2.29 3c-0.326-0.597-0.662-1.325-0.954-2.075l-0.046-0.135c0.040-0.12 2.2-1.96 2.2-1.96z"></path>
<path fill="#8ec480" d="M25.27 9.71c2.44-1.12 8.67-1.92 13-1.25s8.73 5.87 9.73 9.54c0.582 2.151 1.054 4.729 1.322 7.367l0.017 0.213s-3.63-2.16-3.8-2-0.2 0.75-0.080 0.84 3.79 1.66 3.88 2 0 2.58 0 2.58c-0.969-0.509-2.166-1.041-3.398-1.503l-0.232-0.076c-0.080 0.12-0.46 0.62 0 0.75 1.33 0.625 2.464 1.292 3.531 2.048l-0.071-0.048c0 0.16-0.33 2.7-0.33 2.7s-2.75-1.54-2.88-1.5-0.29 0.59-0.12 0.63 2.87 1.67 2.83 1.92-3.67 11.83-3.81 11.87c-0.882-0.318-1.598-0.628-2.292-0.975l0.122 0.055s-0.33 0.59-0.17 0.67 2.13 0.87 2 1.080-0.38 1-0.38 1c-0.664-0.399-1.433-0.764-2.239-1.052l-0.091-0.028c-0.13 0.12-0.34 0.42-0.13 0.58 0.942 0.382 1.705 0.748 2.444 1.152l-0.124-0.062c0 0.16 0 0.83-0.12 0.83-0.675-0.34-1.507-0.692-2.364-0.992l-0.156-0.048c-0.21 0.080-0.46 0.5-0.21 0.66s2.46 1.090 2.42 1.34c-0.114 0.337-0.242 0.624-0.394 0.897l0.014-0.027c-0.624-0.415-1.36-0.844-2.122-1.231l-0.128-0.059c-0.12 0-0.29 0.62-0.17 0.71 0.763 0.405 1.417 0.833 2.030 1.312l-0.030-0.022c0 0.12-2.66 0.29-2.7 0.62-0.036 0.138-0.056 0.297-0.056 0.46s0.020 0.322 0.059 0.473l-0.003-0.013c0.080 0.17 3 0 4.83 0.25s2.63 0.21 2.71 0.67 0.29 3.29 0 3.37-5.71 0-7.080-0.080-2.13-0.33-2.13-0.58-0.080-7.75-0.29-8-3.25-0.63-5.71-0.5c-1.629 0.095-3.148 0.453-4.553 1.034l0.093-0.034c-0.385-0.381-0.807-0.727-1.259-1.030l-0.031-0.020c-0.17 0-0.58 0.3-0.46 0.5s1.25 1.13 1.25 1.25c-0.018 0.19-0.047 0.361-0.085 0.527l0.005-0.027c-0.87-0.66-1.852-1.281-2.886-1.816l-0.114-0.053c-0.17 0.12-0.37 0.62-0.17 0.75 1.182 0.767 2.203 1.534 3.169 2.363l-0.039-0.033c0 0.21 0.080 1.21 0.080 1.21s-2.62-1.75-2.79-1.5-0.21 0.79-0.080 0.88 2.79 1.25 2.83 1.54c0.050 0.562 0.078 1.215 0.078 1.875s-0.029 1.313-0.084 1.959l0.006-0.084c-0.16 0.21-10.62 1-10.75 0.58s-0.12-3.5 0.17-3.71 6.46-1 6.54-1.21 0.080-0.75-0.12-0.79-1.38 0-1.42-0.080-5.54-14.13-6.75-19.21-1.67-11.83 1.97-16.62 5.27-5.42 8.27-6.79z"></path>
<path fill="#1d1d1b" d="M33.32 11.62c0.33 0 0.33 1 0.2 1-0.173-0.010-0.375-0.015-0.578-0.015-2.317 0-4.469 0.708-6.251 1.92l0.039-0.025c-3.37 2.33-3.75 3.17-4 3.080s-0.7-0.25-0.62-0.46c2.593-3.377 6.629-5.534 11.169-5.54h0.001z"></path>
<path fill="#1d1d1b" d="M43.9 14.91c0.847 0.231 1.578 0.65 2.172 1.212l-0.002-0.002c0 0.21 0 0.59-0.21 0.46-0.787-0.33-1.444-0.665-2.074-1.041l0.074 0.041c-0.090-0.17-0.17-0.5 0.040-0.67z"></path>
<path fill="#1d1d1b" d="M44.57 17.71s2.79 1.12 3 1.7 0.33 0.71 0.080 0.67c-1.221-0.475-2.265-1.006-3.247-1.626l0.077 0.046c-0.040-0.21-0.040-0.71 0.090-0.79z"></path>
<path fill="#1d1d1b" d="M45.070 20.83c1.184 0.527 2.195 1.098 3.145 1.752l-0.065-0.042c0.080 0.29 0.37 0.71 0 0.54-1.279-0.521-2.335-1.037-3.352-1.614l0.142 0.074c0.017-0.26 0.064-0.502 0.136-0.732l-0.006 0.022z"></path>
<path fill="#ddc07c" d="M51.19 30.58c0.17 0.080 3.58 1.54 3.71 1.58s2-0.87 3-0.58 0.75 0.83 0.66 1.080-0.37 0.75-0.16 0.92 0.21 0.29 0.33 0.29 0.54-0.62 0.88-0.41c0.22 0.212 0.357 0.508 0.357 0.837 0 0.265-0.089 0.51-0.239 0.706l0.002-0.003c-0.44 0.491-0.963 0.897-1.55 1.196l-0.030 0.014c-0.17 0-0.25 0.5-0.080 0.62s1.080 0.42 0.87 0.79c-0.271 0.502-0.794 0.838-1.395 0.838-0.392 0-0.751-0.143-1.027-0.38l0.002 0.002c-1.2-1-1.58-3.67-1.62-3.87-0.105-0.356-0.276-0.664-0.502-0.923l0.002 0.003c-1.442-0.385-2.608-0.771-3.745-1.214l0.245 0.084c0-0.16 0.29-1.58 0.29-1.58z"></path>
<path fill="#1d1d1b" d="M32.57 39.080c0.16 0 3.66 0.42 6.2-0.83s4.090-3.25 4.42-3.17 0.79 0.58 0.71 0.75c-1.071 1.844-2.66 3.284-4.567 4.145l-0.063 0.025c-3.16 1.41-6.29 1.54-6.54 1.29s-0.58-2.13-0.16-2.21z"></path>
<path fill="#1d1d1b" d="M30.69 18.16c3.71-0.82 9.080 0.21 11.17 4.63s1.54 10.33-3.29 13.080-11.3 2.67-14.3-0.21-5.16-14.91 6.42-17.5z"></path>
<path fill="#e6e4da" d="M30.93 19.49c3.2-0.71 7.84 0.18 9.64 4s1.33 8.92-2.84 11.29-9.73 2.3-12.34-0.18-4.46-12.88 5.54-15.11z"></path>
<path fill="#1d1d1b" d="M31.46 25c0.178-0.038 0.383-0.059 0.592-0.059 1.657 0 3 1.343 3 3 0 0.983-0.473 1.856-1.204 2.403l-0.008 0.006c-1.46 0.83-3.41 0.81-4.32-0.060-0.462-0.559-0.741-1.284-0.741-2.073 0-1.598 1.146-2.928 2.661-3.213l0.020-0.003z"></path>
<path fill="#e6e4da" d="M32.23 26c0.124-0.035 0.267-0.055 0.414-0.055 0.464 0 0.882 0.198 1.175 0.514l0.001 0.001c0.41 0.5-1 1.66-1.17 1.58s-1.17-1.63-0.42-2.040z"></path>
</svg>
