<!-- Generated by IcoMoon.io -->
<svg version="1.1" xmlns="http://www.w3.org/2000/svg" width="64" height="64" viewBox="0 0 64 64">
<path fill="#1d1d1b" d="M31.38 45.81c-4.538-2.557-8.266-6.055-11.017-10.251l-0.073-0.119c-4.53-7.1-5.25-10-4.94-13.75s1.25-7.88 4.34-11.38 10.1-4.59 13.63-4.75 9.4 1.75 12.44 5.44 3.75 9.37 2.090 15.34-4 11.47-6.56 14.82-3.72 3.56-4.38 3.84-3 0.78-3 0.78l0.090 2.22c0.803 0.334 1.496 0.754 2.114 1.261l-0.014-0.011c0.59 0.63 2.25 2.47 2 3.1-0.207 0.474-0.672 0.799-1.213 0.799-0.172 0-0.336-0.033-0.486-0.092l0.009 0.003c-0.515-0.321-0.883-0.839-0.998-1.446l-0.002-0.014c-0.050-0.646-0.197-1.244-0.424-1.8l0.014 0.040c-0.14-0.154-0.34-0.25-0.564-0.25-0.009 0-0.018 0-0.027 0.001l0.001-0c0.023 0.358 0.036 0.777 0.036 1.199 0 0.988-0.071 1.959-0.209 2.909l0.013-0.108c-0.28 0.88-0.5 0.82-0.5 0.82v1.65s2.38-0.15 2.53 0.56 0.29 1.57-0.28 1.66-3.18 0.44-3.22-0.090 0.13-3.44 0-3.47-0.85-0.22-0.85-0.060c0.038 0.537 0.060 1.163 0.060 1.795s-0.022 1.258-0.065 1.879l0.005-0.084c-0.16 0.12-3.84 0.31-4 0s0-2.13 0.88-2.28c0.085-0.005 0.184-0.008 0.283-0.008 0.708 0 1.384 0.139 2.002 0.39l-0.035-0.013-0.16-1.84c-0.22-0.658-0.347-1.416-0.347-2.203 0-0.115 0.003-0.229 0.008-0.343l-0.001 0.016c0.029-0.841 0.119-1.64 0.265-2.418l-0.015 0.098c-0.591 0.168-1.106 0.44-1.548 0.796l0.008-0.006c-0.43 0.46-0.46 0.71-0.34 1s0.25 0.59 0 0.75c-0.184 0.21-0.453 0.342-0.753 0.342-0.183 0-0.354-0.049-0.502-0.135l0.005 0.003c-0.75-0.31-0.94-0.93-0.37-1.9 0.578-0.907 1.397-1.616 2.366-2.046l0.034-0.014c0.451-0.253 0.981-0.422 1.546-0.469l0.014-0.001z"></path>
<path fill="#e6e4da" d="M32.57 46.28c0.22 0 0.69 0 0.72 1.47s0.15 5.72-0.25 5.84-1.25 0.25-1.44-0.090 0.25-7.22 0.97-7.22z"></path>
<path fill="#e6e4da" d="M33.16 43.94c-0.204 0.039-0.438 0.062-0.678 0.062-0.73 0-1.412-0.209-1.987-0.571l0.016 0.009c-1.19-0.75-5.44-5-8.88-9.28-2.62-3.337-4.202-7.597-4.202-12.227 0-0.24 0.004-0.48 0.013-0.718l-0.001 0.035c0.13-3.56 2.38-9.28 5.94-11.34 2.896-1.555 6.337-2.469 9.991-2.469 1.218 0 2.412 0.101 3.574 0.296l-0.126-0.017c4.566 0.879 8.195 4.155 9.566 8.442l0.024 0.088c1.31 4.16-0.94 11.94-2 14.75-1.108 2.537-2.248 4.671-3.531 6.706l0.121-0.206s-0.63-1-0.79-1-0.65 0.22-0.53 0.35 1 1.15 0.88 1.37-0.94 1.4-0.94 1.4-0.71-1.11-0.8-1.070-0.61 0.14-0.45 0.42 0.94 1.15 0.81 1.37c-0.189 0.301-0.415 0.559-0.675 0.776l-0.005 0.004c-0.19 0.13-1.22-1.26-1.32-1.26s-0.4 0-0.47 0.22 1.1 1.64 1 1.83c-0.335 0.379-0.713 0.709-1.129 0.987l-0.021 0.013-0.25 0.1c-0.533-0.859-1.044-1.587-1.591-2.284l0.041 0.054c-0.13 0-0.69 0.19-0.6 0.41s1.49 2 1.34 2.13c-0.355 0.19-0.77 0.36-1.203 0.488l-0.047 0.012s-0.99-1.82-1.18-1.82-0.66 0.19-0.63 0.34 0.72 1.6 0.72 1.6z"></path>
<path fill="#1d1d1b" d="M21.72 15.41c0.203-0.932 0.62-1.745 1.196-2.417l-0.006 0.007c1.1-1.44 2.13-1.75 2.31-1.69s0.41 0.81 0.35 0.91-1.66 0.84-2 1.69-0.47 1.65-0.75 1.81c-0.098 0.035-0.21 0.055-0.327 0.055-0.31 0-0.588-0.141-0.771-0.363l-0.001-0.002z"></path>
<path fill="#1d1d1b" d="M36 36.59c-0.747 0.449-1.644 0.724-2.603 0.75l-0.007 0c-1.8 0.15-2.72-0.4-2.8-0.58s0.33-0.85 0.44-0.86 1.74 0.66 2.6 0.35 1.54-0.77 1.84-0.66c0.321 0.171 0.536 0.503 0.536 0.886 0 0.040-0.002 0.080-0.007 0.119l0-0.005z"></path>
<path fill="#1d1d1b" d="M24.13 20.13c1.42-0.17 5 1.18 6.91 5.090s-0.13 6-2.19 5.94-4.090-0.6-6.44-3.47-2.22-5.28-1.53-6c0.819-0.888 1.959-1.469 3.235-1.559l0.015-0.001z"></path>
<path fill="#1d1d1b" d="M39.76 20.13c1.56-0.79 5-0.25 4.62 3.37-0.307 3.071-2.464 5.565-5.328 6.368l-0.052 0.012c-2.44 0.65-4.63 0.5-4.85-1.91s0.73-5.41 5.61-7.84z"></path>
</svg>
