<!-- Generated by IcoMoon.io -->
<svg version="1.1" xmlns="http://www.w3.org/2000/svg" width="64" height="64" viewBox="0 0 64 64">
<path fill="#1d1d1b" d="M30.59 35.25s-6.33 0.33-9.71-3-3.45-5.79-3.45-5.79-2.67 0.080-3.75-0.84-1.3-3.25 0.33-4.79 2.42-1.41 2.42-1.41c0.185-1.392 0.49-2.645 0.911-3.843l-0.041 0.133c0.291-0.798 0.656-1.488 1.099-2.119l-0.019 0.029-4.54-2.5c-0.419 0.449-1.014 0.728-1.675 0.728-0.394 0-0.764-0.099-1.087-0.274l0.012 0.006c-0.981-0.479-1.645-1.469-1.645-2.614 0-0.823 0.343-1.567 0.894-2.095l0.001-0.001c0.673-0.561 1.548-0.902 2.501-0.902 0.754 0 1.458 0.213 2.056 0.582l-0.017-0.010c1 0.71 0.5 2.13 0.5 2.13l5.13 2.33c2.431-2.34 5.692-3.834 9.299-3.999l0.031-0.001c0.308-0.018 0.669-0.029 1.031-0.029 3.77 0 7.276 1.131 10.197 3.071l-0.068-0.043c0.77 0.727 1.455 1.529 2.048 2.4l0.032 0.050 5.54-3.7c-0.037-0.162-0.058-0.349-0.058-0.54 0-1.236 0.876-2.268 2.041-2.507l0.017-0.003c0.337-0.142 0.728-0.225 1.139-0.225 1.657 0 3 1.343 3 3s-1.343 3-3 3c-0.137 0-0.272-0.009-0.404-0.027l0.015 0.002c-0.379-0.092-0.712-0.233-1.015-0.419l0.015 0.009-5.33 4.37c0.289 0.536 0.544 1.16 0.733 1.812l0.017 0.068c0.080 0.58 0.12 1.21 0.12 1.21s3.71-0.21 3.58 3.29-4.12 4-4.12 4c-0.548 2.695-2.183 4.929-4.417 6.266l-0.043 0.024c-2.202 1.418-4.808 2.418-7.607 2.818l-0.103 0.012 0.34 3.63c1.107 0.319 2.011 1.035 2.569 1.98l0.011 0.020c0.83 1.54 1.87 3.33 2.29 3.33s2-1.37 2.58-1.83c0.354-0.247 0.647-0.553 0.872-0.907l0.008-0.013s-1.83-2.71 0.67-3.87 3.97 0.75 3.26 2.75-3.33 1.75-3.33 1.75-3.29 3.25-3.88 3.25c-0.007 0-0.015 0-0.023 0-0.661 0-1.259-0.272-1.687-0.71l-0-0c-0.8-1.602-1.601-2.951-2.486-4.237l0.076 0.117c-0.46-0.38-0.79-0.25-0.84-0.13s1.88 9.21 1.63 11.17c-0.218 1.294-0.847 2.414-1.746 3.247l-0.004 0.003 0.080 1s2.38-0.34 2.84 0.91-1.21 2.21-2.38 2-1.37-0.58-1.37-0.75-0.17-2.83-0.17-2.83l-1-0.17s0.46 3.21 0 3.5-2.46 0.67-3.050 0.090c-0.227-0.26-0.366-0.603-0.366-0.978 0-0.69 0.469-1.27 1.105-1.44l0.010-0.002c1.3-0.29 1.55-0.13 1.55-0.13v-1.25c-1.192-0.806-1.966-2.154-1.966-3.681 0-0.080 0.002-0.16 0.006-0.24l-0 0.011c0-2.79 1.67-11.21 1.67-11.21s-0.5-0.54-1.59 0.79c-1.042 1.594-1.799 3.473-2.147 5.492l-0.013 0.088c-0.17 1.21-0.21 1.63-0.21 1.63 0.8 0.409 1.338 1.227 1.338 2.171 0 0.070-0.003 0.139-0.009 0.208l0.001-0.009c-0.137 1.101-1.067 1.944-2.194 1.944-0.419 0-0.812-0.117-1.146-0.32l0.010 0.005c-1.25-0.79-1.080-2.71-0.54-3.5 0.376-0.475 0.889-0.826 1.48-0.995l0.020-0.005s0.91-5.090 2-6.54c0.586-0.92 1.447-1.62 2.466-1.989l0.034-0.011c0.29-0.090 0.62-0.17 0.62-0.17z"></path>
<path fill="#c8db89" d="M11.88 7.16c0.203-0.092 0.441-0.146 0.691-0.146 0.851 0 1.557 0.622 1.688 1.436l0.001 0.010c0.042 0.148 0.066 0.318 0.066 0.493 0 1.038-0.842 1.88-1.88 1.88s-1.88-0.842-1.88-1.88c0-0.836 0.546-1.545 1.301-1.789l0.013-0.004z"></path>
<path fill="#c8db89" d="M51 6.58c0.203-0.093 0.441-0.147 0.691-0.147 0.846 0 1.547 0.618 1.678 1.427l0.001 0.010c0.044 0.151 0.069 0.325 0.069 0.505 0 1.038-0.842 1.88-1.88 1.88s-1.88-0.842-1.88-1.88c0-0.839 0.549-1.549 1.308-1.791l0.013-0.004z"></path>
<path fill="#c8db89" d="M16.22 21c0.22-0.070 0.12 1.42 0.33 2.46s0.38 1.66 0.17 1.66-1.71 0.17-2-1.2c-0.053-0.19-0.084-0.409-0.084-0.635 0-1.040 0.651-1.928 1.567-2.279l0.017-0.006z"></path>
<path fill="#c8db89" d="M46.13 20c0.113-0.029 0.242-0.046 0.376-0.046 0.809 0 1.473 0.62 1.544 1.41l0 0.006c0.29 1.63-2.25 2.92-2.37 2.75s0.37-1.42 0.41-2.21c-0.021-0.231-0.033-0.499-0.033-0.77 0-0.402 0.027-0.797 0.078-1.185l-0.005 0.045z"></path>
<path fill="#fab900" d="M15.43 9.83c0.2 0 4.12 1.75 3.95 2.080s-0.5 0.88-0.62 0.8-3.58-1.71-3.67-1.92 0.34-0.96 0.34-0.96z"></path>
<path fill="#fab900" d="M44 13c0.17-0.080 4.42-3.46 4.67-3.21s0.7 0.63 0.5 0.83-4.46 3.84-4.59 3.63-0.58-1.25-0.58-1.25z"></path>
<path fill="#8ec480" d="M27 8.83c3-1.080 8.5-0.67 12.87 2.25s4 11.5 3.92 12.46c-0.134 0.782-0.349 1.48-0.642 2.136l0.022-0.056c-0.507-0.834-1.045-1.556-1.643-2.224l0.013 0.014c-0.21 0-0.75 0.38-0.54 0.59 0.692 0.8 1.301 1.703 1.795 2.674l0.035 0.076c-0.080 0.25-0.79 1.41-0.79 1.41-0.599-1.014-1.203-1.882-1.864-2.704l0.034 0.044c-0.17 0-0.71 0.41-0.63 0.54 0.671 0.903 1.296 1.925 1.828 3.003l0.052 0.117c-0.13 0.21-1 1.090-1.090 0.92-0.457-0.907-0.913-1.67-1.414-2.398l0.044 0.068c-0.13 0-0.59 0.21-0.5 0.41s1.54 2.46 1.37 2.67c-0.297 0.268-0.623 0.515-0.971 0.733l-0.029 0.017s-0.83-2-1-2-0.92 0.38-0.83 0.5 1.080 1.79 0.91 2c-0.168 0.144-0.359 0.271-0.564 0.373l-0.016 0.007-1.15-1.46-0.59 0.37s0.92 1.42 0.75 1.46l-0.83 0.25s-0.5-1.12-0.67-1.17-0.83 0-0.7 0.13c0.182 0.333 0.364 0.731 0.518 1.144l0.022 0.066c-1.171 0.252-2.516 0.397-3.895 0.397s-2.724-0.144-4.021-0.419l0.126 0.022c-4.312-0.966-7.607-4.415-8.331-8.737l-0.009-0.063c-0.221-0.992-0.348-2.131-0.348-3.3 0-2.961 0.813-5.732 2.228-8.102l-0.040 0.072c1.45-2.37 4.040-3.37 6.57-4.29z"></path>
<path fill="#1d1d1b" d="M22.59 12.12c0.24-0.17 0.63 0.17 0.5 0.38-0.854 0.74-1.501 1.697-1.857 2.786l-0.013 0.044c-0.5 1.79-0.29 2.21-0.5 2.25s-0.75 0-0.79-0.080c0.123-1.067 0.388-2.041 0.776-2.948l-0.026 0.069c0.474-0.985 1.117-1.817 1.9-2.492l0.010-0.008z"></path>
<path fill="#1d1d1b" d="M30.68 10.33c0.43-0.099 0.925-0.156 1.432-0.156 3.667 0 6.64 2.973 6.64 6.64 0 0.345-0.026 0.683-0.077 1.013l0.005-0.037c-0.68 6.21-9.63 8.62-12.63 4.46s-2.58-10.040 4.63-11.92z"></path>
<path fill="#e6e4da" d="M30.89 12.11c0.335-0.081 0.719-0.127 1.114-0.127 2.728 0 4.94 2.212 4.94 4.94 0 0.257-0.020 0.509-0.057 0.755l0.004-0.027c-0.5 4.65-7.16 6.41-9.39 3.32s-1.97-7.47 3.39-8.86z"></path>
<path fill="#1d1d1b" d="M31.21 14.72c0.158-0.037 0.34-0.058 0.526-0.058 1.342 0 2.43 1.088 2.43 2.43 0 0.126-0.010 0.25-0.028 0.371l0.002-0.014c-0.25 2.29-3.53 3.16-4.63 1.63s-0.95-3.67 1.7-4.36z"></path>
<path fill="#1d1d1b" d="M25.72 26.5c1.058 1.526 2.8 2.513 4.773 2.513 0.136 0 0.271-0.005 0.405-0.014l-0.018 0.001c2.046-0.019 3.896-0.843 5.251-2.171l-0.001 0.001c0.34 0 1 0.92 0.92 1.33s-2.21 2.75-6.29 2.5-6-2.87-6-3.080 0.62-1.080 0.96-1.080z"></path>
<path fill="#8ec480" d="M32 37c0.17 0 2 14 1.58 14.83s-2.58 1.42-3 0 0.97-14.83 1.42-14.83z"></path>
<path fill="#c8db89" d="M25.47 48.12c0.7-0.14 1.37 0.63 1.37 1.38-0.088 0.618-0.613 1.088-1.248 1.088-0.166 0-0.325-0.032-0.47-0.091l0.009 0.003c-0.62-0.38-0.87-2.13 0.34-2.38z"></path>
<path fill="#c8db89" d="M43.55 38c0.746 0 1.362 0.56 1.449 1.283l0.001 0.007c0 0.75-1.5 1.5-2 1.25s-0.7-2.29 0.55-2.54z"></path>
</svg>
