<!-- Generated by IcoMoon.io -->
<svg version="1.1" xmlns="http://www.w3.org/2000/svg" width="64" height="64" viewBox="0 0 64 64">
<path fill="#1d1d1b" d="M23.1 21.37c-1.582-1.115-2.968-2.251-4.269-3.477l0.019 0.017c-0.67-0.88-2.59-3.13-2.8-2.83s-1.79 3-2.16 3c-1.621-1.061-3.020-2.114-4.348-3.248l0.058 0.048c-0.298 0.096-0.642 0.152-0.998 0.152-1.246 0-2.333-0.678-2.914-1.685l-0.009-0.016c-1.63-2.41 1.42-4.91 4-4.58s1.67 3.5 1.67 3.5 1.080 0.79 1.16 0.67 1.75-2.79 2.84-2.71 3.33 2.62 3.33 2.62 2.13-0.25 3.13 0.75 0.83 2.5 1.25 2.55 2.2 0.54 2.2 0.54 1.75-5.75 6-6.38 11.21 7.29 11.21 7.29 2.34-4.83 3-5 3.88 2 4 1.88 3.13-3.59 3.13-3.59c-0.447-0.48-0.722-1.127-0.722-1.838 0-0.809 0.356-1.535 0.919-2.029l0.003-0.003c0.622-0.731 1.543-1.191 2.571-1.191 1.635 0 2.999 1.165 3.305 2.71l0.004 0.021c0.79 2.92-3.54 3.71-3.54 3.71s-4.21 6.080-4.71 6.21-3.25-1.17-3.33-1-1.46 3.87-1.46 3.87c2.513 3.097 4.184 6.97 4.613 11.21l0.007 0.090c0.5 6.58 0 10.58-4.16 12.58-2.244 1.19-4.85 2.078-7.605 2.521l-0.145 0.019c-1 0.13-2.55 0.25-2.55 0.25l0.38 1.79 3.17 0.46c0.227-0.777 0.933-1.335 1.769-1.335 0.049 0 0.099 0.002 0.147 0.006l-0.006-0c1.54 0.080 1.34 2.080 0.74 2.61-0.253 0.194-0.573 0.311-0.921 0.311-0.292 0-0.564-0.082-0.796-0.225l0.007 0.004c-0.29-0.21-0.62-0.5-0.62-0.5h-2.79c0.030 0.405 0.048 0.878 0.048 1.355s-0.017 0.95-0.051 1.418l0.004-0.063-0.13 0.37 0.090 1s2.62 0.17 2.62 0.84-0.83 1.7-1.29 1.66c-0.751-0.112-1.425-0.362-2.024-0.724l0.024 0.014c-0.080-0.2-0.29-2.58-0.29-2.58h-0.67c0.092 0.617 0.145 1.328 0.145 2.052 0 0.231-0.005 0.462-0.016 0.69l0.001-0.032c-0.17 0.17-2.55 1.38-3 1s-0.92-2-0.54-2.13 2.7-0.33 2.7-0.45 0.050-1 0.050-1-0.92-0.54-0.92-1.2-0.080-1.63-0.080-1.63c-0.485 0.030-0.895 0.325-1.087 0.742l-0.003 0.008c-0.176 0.276-0.356 0.604-0.516 0.943l-0.024 0.057s0.5 1.67-0.67 2-2.5-1.17-1.91-2.29 1.87-0.38 1.87-0.38c0.528-0.805 1.118-1.504 1.783-2.124l0.007-0.006c0.228-0.147 0.5-0.3 0.781-0.438l0.049-0.022 0.21-2s-5.37 0.71-9.080-0.75-6.71-3.79-6.5-9.42 4.64-16.66 4.64-16.66z"></path>
<path fill="#a42116" d="M30.47 53.28c0.3-0.22 0.83 0.92 0.5 1.17s-1.29-0.58-0.5-1.17z"></path>
<path fill="#a42116" d="M40.8 49.58c0.62 0 1 0.16 1 0.7s-0.75 0.75-1 0.55-0.33-1.25 0-1.25z"></path>
<path fill="#e7413e" d="M34.93 49.12c0.21-0.32 1.46 3.62 1.17 4-0.261 0.194-0.589 0.31-0.944 0.31-0.2 0-0.391-0.037-0.567-0.104l0.011 0.004c-0.009-0.213-0.014-0.463-0.014-0.714 0-1.237 0.125-2.445 0.364-3.611l-0.020 0.115z"></path>
<path fill="#f2910d" d="M8.18 10.2c1.070 0 2.12-0.080 2.29 1.21s-0.67 2-2.12 2.21c-0.033 0.002-0.072 0.004-0.111 0.004-0.911 0-1.65-0.739-1.65-1.65 0-0.068 0.004-0.136 0.012-0.202l-0.001 0.008c0.080-0.45 0.54-1.54 1.58-1.58z"></path>
<path fill="#fab900" d="M11.43 13.66c0.18 0 1.21 1 1.54 0.71s2.67-3.090 2.83-3 2.59 3 3 2.87 1.21-0.62 1.71-0.37 1.17 0.62 1.25 1.080 0.13 2.33 0.75 2.46 2.21 0.21 2.17 0.42-1.13 2.41-1.13 2.41c-1.581-0.568-2.874-1.618-3.732-2.97l-0.018-0.030c-1.58-2.37-2.5-3.29-3.16-3.58s-0.92-0.42-1.17-0.17-1.25 2.59-1.83 2.67-2.88-1.75-2.88-2 0.42-0.46 0.67-0.5z"></path>
<path fill="#fab900" d="M43.3 18.12s2.090-4.75 2.63-4.46 3 2.17 3.42 2 3.91-4.29 4.12-4.17 0.5 0.17 0.38 0.34-3.67 5.41-3.85 5.37-3-1.5-3.24-1.2-1.83 4.42-2 4.17-1.46-2.050-1.46-2.050z"></path>
<path fill="#f2910d" d="M54.72 7.080c2.38-0.63 3.21 1.37 2.71 2.58-0.379 0.763-1.154 1.278-2.048 1.278-0.719 0-1.361-0.333-1.779-0.853l-0.003-0.004c-1.25-1.55 0.6-2.87 1.12-3z"></path>
<path fill="#e7413e" d="M31.35 11.91c1.89-0.63 6.79 2.62 11.7 9s5.46 14.62 5.3 14.58-1.84-1.21-2-1.17-0.38 0.55-0.25 0.67 2.12 1.21 2.16 1.5-0.080 1.13-0.080 1.42c-0.002 0.193-0.031 0.379-0.084 0.554l0.004-0.014c-0.752-0.51-1.615-0.994-2.518-1.404l-0.112-0.045c-0.12 0.13-0.54 0.75-0.33 0.84 1.065 0.507 1.98 1.073 2.825 1.726l-0.035-0.026c-0.121 0.444-0.292 0.833-0.511 1.19l0.011-0.020-0.17 0.21-2.83-2s-0.88 0.42-0.5 0.75 3 2 2.83 2.29-0.91 1.040-0.91 1.040c-0.839-0.708-1.77-1.368-2.755-1.948l-0.095-0.052c-0.29 0-0.66 0.38-0.5 0.54s2.67 2.090 2.5 2.21-1.080 0.63-1.080 0.63-2.080-1.55-2.25-1.59-0.54 0.21-0.54 0.38 2.12 1.58 2 1.66c-0.579 0.284-1.251 0.504-1.956 0.624l-0.044 0.006c-0.13-0.18-1.33-1.46-1.78-1.46s-0.67 0.25-0.5 0.42 1.54 1.17 1.37 1.29-7.33 1.42-11.37 0.71-6.59-1.72-7.85-5.26 0.71-11.080 2.88-16.54 4.34-11.62 7.47-12.71z"></path>
<path fill="#1d1d1b" d="M23.64 39.87c0.24-0.17 1 0.21 0.71 0.46s-0.75 0.54-0.88 1-0.21 0.66-0.42 0.62c-0.217-0.040-0.378-0.227-0.378-0.453 0-0.031 0.003-0.061 0.009-0.090l-0 0.003c0.162-0.62 0.499-1.146 0.956-1.537l0.004-0.003z"></path>
<path fill="#1d1d1b" d="M25.68 41.45c0.34 0 0.79 1.33 2.17 1.63s3 0.45 3.2 0.91c0.015 0.065 0.024 0.139 0.024 0.216 0 0.515-0.389 0.939-0.889 0.994l-0.005 0c-1.547-0.233-2.927-0.806-4.11-1.64l0.030 0.020c-1-0.88-1.25-2.13-0.42-2.13z"></path>
<path fill="#1d1d1b" d="M28.85 19.080c-0.060-0.12 0.080-0.67 0.75-2.3s1.83-2 2.080-1.75 0.33 0.5 0.17 0.67c-0.789 0.381-1.402 1.021-1.741 1.807l-0.009 0.023c-0.42 1.25-0.34 1.42-0.55 1.59s-0.55 0.21-0.7-0.040z"></path>
<path fill="#1d1d1b" d="M27.35 24.41c-0.060-0.26 1.5-1.58 4.25-2.46s4.83-0.71 4.87-0.29c0 0.023 0.001 0.050 0.001 0.078 0 0.356-0.044 0.701-0.127 1.031l0.006-0.029c-0.479-0.092-1.030-0.145-1.593-0.145-1.154 0-2.257 0.222-3.267 0.626l0.059-0.021c-2.29 1-3.45 1.92-3.66 1.92s-0.5-0.5-0.54-0.71z"></path>
<path fill="#1d1d1b" d="M33.14 25c4.25-1.1 9.25 2 10 5.71s-0.8 8.87-6.88 9.67-9.29-1.59-10-5.55 0.74-8.3 6.88-9.83z"></path>
<path fill="#e6e4da" d="M33.41 26.29c3.51-0.91 7.63 1.65 8.22 4.71s-0.63 7.33-5.63 8-7.67-1.31-8.22-4.58 0.57-6.83 5.63-8.13z"></path>
<path fill="#1d1d1b" d="M33.83 28.37c2.35-0.61 5.12 1.1 5.51 3.16 0.082 0.315 0.129 0.676 0.129 1.048 0 2.248-1.717 4.095-3.912 4.301l-0.017 0.001c-3.37 0.44-5.15-0.88-5.52-3.070s0.42-4.57 3.81-5.44z"></path>
<path fill="#e6e4da" d="M34.89 29.78c0.47-0.23 2.41 1.13 2.12 1.59s-2.25 0.58-2.46 0.37-0.25-1.66 0.34-1.96z"></path>
</svg>
