<!-- Generated by IcoMoon.io -->
<svg version="1.1" xmlns="http://www.w3.org/2000/svg" width="64" height="64" viewBox="0 0 64 64">
<path fill="#1d1d1b" d="M15.61 18.94l-5.42-4.59c-0.414 0.309-0.935 0.496-1.501 0.496-0.7 0-1.333-0.285-1.789-0.745l-0-0c-1.58-1.54-1-4.5 1.38-5.54s5.12-0.79 6 0.84-0.83 3-0.83 3l5.12 3.6c2.587-2.495 5.717-4.445 9.193-5.656l0.177-0.054c5.92-2 14.79 1.17 16 1.71s2.29 1.17 2.29 1.17l2.84-2.54s-1.5-2.63 0.87-4.030c0.775-0.499 1.722-0.795 2.737-0.795 1.812 0 3.403 0.943 4.31 2.364l0.012 0.021c1.75 2.58 0.95 5.16-1.25 5.66-0.317 0.071-0.682 0.111-1.056 0.111-1.053 0-2.032-0.322-2.842-0.873l0.018 0.011-2.54 2.67s3.71 3.080 4.29 9.67c0.1 1.029 0.157 2.224 0.157 3.433 0 4.8-0.898 9.391-2.534 13.614l0.088-0.257c-1.55 3.62-3.33 7.080-3.33 7.080s3.54-0.71 5.37 1.34 2.25 3.58 2.79 3.75 1.090 0.2 0.59 1.16c-0.563 0.795-1.478 1.307-2.514 1.307-0.115 0-0.228-0.006-0.34-0.019l0.014 0.001c-0.589-0.191-1.266-0.301-1.97-0.301-0.289 0-0.574 0.019-0.853 0.055l0.033-0.004c-0.67 0.25-3 1.46-5.37 0.42s-3.21-1.21-4.5-1-4 1.75-6.71 1.62c-1.57-0.099-3.030-0.457-4.376-1.033l0.086 0.033c-0.34 0-2.5 1.79-5 1.63s-2.67-1.13-4.59-1-4.5 0.79-5.7 0.87-3.090 0.17-3.67-0.16-0.58-2.92 0.79-4.63c1.203-1.611 2.94-2.764 4.945-3.2l0.055-0.010c0.332-0.019 0.721-0.029 1.112-0.029 1.018 0 2.020 0.072 3 0.213l-0.112-0.013c0.17 0-4.080-6-6.5-13.17s-1.58-14.2 1.030-18.2z"></path>
<path fill="#696a9b" d="M49.53 51c-2.34-0.33-4.3 2.12-4.55 2.33s-1-0.54-1.16-0.79 0-0.21 0.41-0.92c0.635-0.744 1.333-1.401 2.097-1.976l0.033-0.024c0.13-0.495 0.274-0.911 0.444-1.314l-0.024 0.064c0.25-0.59 1.91-4.090 3-7 1.408-4.197 2.22-9.029 2.22-14.052 0-0.031 0-0.062-0-0.093v0.005c-0.090-4.92-1.75-9.83-6.92-12.38s-9.58-3.91-16.38-2.54-8.5 4.5-8.5 4.5l3.050 2.34c0.44 0.33-2.82 4-3.32 3.84-0.2-0.060-3-2.64-3-2.64-0.717 1.057-1.241 2.305-1.491 3.65l-0.009 0.060c-0.58 2.59-0.54 7 1.050 12.63s5.92 13.12 5.92 13.12c0.685-0.255 1.554-0.512 2.443-0.719l0.157-0.031c0.114-0.025 0.244-0.039 0.378-0.039 0.424 0 0.814 0.142 1.126 0.382l-0.004-0.003s0.25 0.66-0.050 0.79c-1.039 0.5-2.321 1.008-3.639 1.435l-0.231 0.065c-2 0.62-3.29-0.13-5.92 0.21s-3.84 4.1-3.84 4.54 1.46 0.29 2.87 0.16 3.29-1.25 4.42-1.29 2.17 0.75 4.83 0.84c0.116 0.008 0.252 0.012 0.389 0.012 1.485 0 2.848-0.526 3.911-1.401l-0.011 0.008c0.88-0.46 2.050-2.58 3.59-3s2.25-0.080 3.83 0.42c0.531 0.137 1.142 0.216 1.77 0.216s1.239-0.079 1.821-0.227l-0.051 0.011c0.037-0.006 0.080-0.010 0.123-0.010 0.212 0 0.405 0.084 0.547 0.22l-0-0c0.25 0.2-0.71 1.58-2.38 2s-5.45-0.91-6-0.79-0.79 1.25-0.62 1.42c1.244 0.431 2.678 0.68 4.169 0.68 0.176 0 0.351-0.003 0.526-0.010l-0.025 0.001c2.080-0.090 3.83-1.42 6.62-1.5s4.29 1.45 5 1.66 1.75-0.46 2.54-0.71 2.59 0 2.8-0.2-1.63-3.64-3.96-3.95z"></path>
<path fill="#92a0d1" d="M47.44 13.52c0.13-0.080 2.92-2.71 2.92-2.71s-1.58-2 0.42-3.33 4.62-0.080 5.66 1.79-0.29 3.63-1.5 3.5-2.58-1.080-3.080-0.87-2.92 2.91-3.13 2.87c-0.475-0.383-0.897-0.793-1.279-1.237l-0.011-0.013z"></path>
<path fill="#1d1d1b" d="M19.86 23.4c0.57 0.263 1.237 0.417 1.939 0.417 0.865 0 1.676-0.233 2.373-0.639l-0.022 0.012c1.114-0.813 1.956-1.936 2.406-3.243l0.014-0.047c0.065-0.025 0.141-0.040 0.22-0.040 0.221 0 0.416 0.114 0.529 0.287l0.002 0.002c0.21 0.29-0.38 2.41-2 3.58-0.895 0.771-2.069 1.241-3.353 1.241-0.2 0-0.397-0.011-0.59-0.034l0.024 0.002c-1.33-0.090-1.58-0.090-1.79-0.34s0.080-1.2 0.25-1.2z"></path>
<path fill="#1d1d1b" d="M18.28 28.81c0.19-0.28 0.83 0 0.79 0.38-0.087 0.388-0.137 0.833-0.137 1.29 0 0.81 0.157 1.583 0.442 2.291l-0.015-0.041c0.71 1.87 1.080 1.92 0.92 2.21s-0.71 0.58-1 0.41c-0.638-0.953-1.089-2.085-1.274-3.304l-0.006-0.046c-0.099-0.361-0.156-0.777-0.156-1.205 0-0.72 0.161-1.403 0.448-2.014l-0.012 0.029z"></path>
<path fill="#1d1d1b" d="M28.94 29.35c0.215-0.946 0.753-1.741 1.489-2.282l0.011-0.008c1.34-1 2.13-1.080 2.34-1s0.45 0.5 0.29 0.71-1.46 0.23-2.34 1.23-0.87 1.83-1.080 1.87-0.5-0.39-0.71-0.52z"></path>
<path fill="#1d1d1b" d="M40.65 23.27c0.009-0 0.019-0 0.029-0 1.143 0 2.185 0.429 2.975 1.134l-0.004-0.004c1.46 1.25 1.67 2.33 1.5 2.54-0.199 0.166-0.436 0.293-0.697 0.367l-0.013 0.003c-0.16-0.944-0.658-1.749-1.362-2.304l-0.008-0.006c-0.711-0.386-1.538-0.676-2.413-0.823l-0.047-0.007c-0.17-0.020-0.21-0.73 0.040-0.9z"></path>
<path fill="#1d1d1b" d="M34.9 31.6c1.14-0.47 2.63 0.5 2.83 2.3s-0.2 3-1.41 3-2.42-1.59-2.63-2.59c-0.074-0.21-0.117-0.452-0.117-0.704 0-0.896 0.54-1.665 1.313-2.001l0.014-0.005z"></path>
<path fill="#cbe7f5" d="M35.27 32.8c0.61-0.25 1.41 0.27 1.52 1.23s-0.11 1.59-0.76 1.61-1.29-0.85-1.41-1.38c-0.039-0.112-0.062-0.242-0.062-0.377 0-0.482 0.289-0.897 0.704-1.080l0.008-0.003z"></path>
<path fill="#1d1d1b" d="M41.23 29.85c1.19-0.79 2.34 0.13 2.3 2.71-0.039 1.87-1.139 3.474-2.721 4.237l-0.029 0.013c-0.145 0.061-0.314 0.096-0.491 0.096-0.718 0-1.3-0.582-1.3-1.3 0-0.059 0.004-0.116 0.011-0.173l-0.001 0.007c0-1.38 1.11-4.84 2.23-5.59z"></path>
<path fill="#cbe7f5" d="M41.86 30.77c0.44-0.13 1.17 1.46 0.37 3.13s-1.62 1.83-1.83 1.7-0.12-1.29 0.29-2.62 0.75-2.080 1.17-2.21z"></path>
<path fill="#1d1d1b" d="M31.65 39.85c0.75-0.15 1.25 0.55 2.080 1.42s0.84 1.5 2.21 1.63 1.92-0.17 2 0.12 0.17 0.46-0.12 0.67-2.090 1.25-5.17 0.080-3.58-3.37-1-3.92z"></path>
<path fill="#1d1d1b" d="M48.44 34.9c0.23-0.14 1.59 0.83 1.46 1.16s-0.080 0.42-0.33 0.42c-0.664-0.153-1.242-0.461-1.714-0.883l0.004 0.003c-0.13-0.29 0.29-0.54 0.58-0.7z"></path>
<path fill="#1d1d1b" d="M46.23 37.27c0.14-0.1 2.55 0.79 2.55 1.17s-0.21 0.79-0.42 0.79c-1.016-0.253-1.905-0.596-2.737-1.032l0.067 0.032c0.111-0.373 0.297-0.695 0.542-0.962l-0.002 0.002z"></path>
<path fill="#1d1d1b" d="M45.32 39.85c0.37-0.060 3 1.59 3 1.84s-0.090 0.46-0.3 0.46-3.25-1.25-3.25-1.59c0.030-0.329 0.248-0.601 0.544-0.708l0.006-0.002z"></path>
<path fill="#1d1d1b" d="M43.86 42.19c0.27-0.27 3.37 1.75 3.37 2s-0.12 0.46-0.33 0.46c-1.29-0.488-2.401-1.064-3.433-1.749l0.063 0.039c-0.090-0.25 0.2-0.63 0.33-0.75z"></path>
<path fill="#1d1d1b" d="M42.57 44.27c0.24-0.080 3.71 2.13 3.66 2.46-0.028 0.205-0.134 0.381-0.288 0.499l-0.002 0.001c-1.576-0.629-2.892-1.273-4.154-2.002l0.154 0.082c0.098-0.419 0.322-0.775 0.627-1.038l0.003-0.002z"></path>
<path fill="#1d1d1b" d="M41.19 47s3.88 2.080 3.79 2.29 0 0.38-0.33 0.38-3.75-1.13-3.87-1.46 0.16-1.21 0.41-1.21z"></path>
<path fill="#1d1d1b" d="M40.23 49.31c0.29-0.090 2.17 1.13 2.050 1.42s-0.090 0.42-0.3 0.33c-0.915-0.292-1.699-0.63-2.442-1.036l0.072 0.036c0.147-0.303 0.357-0.555 0.615-0.746l0.005-0.004z"></path>
<path fill="#92a0d1" d="M21.67 19.64c-2.59-1.85-9.64-7.2-9.6-7.41s1.41-0.92 0.91-2-2.12-1.23-3.29-0.96c-2.37 0.58-3.16 3.17-2 4s2.38-0.17 2.75-0.12 7.78 6.4 9.66 8.090z"></path>
</svg>
