<!-- Generated by IcoMoon.io -->
<svg version="1.1" xmlns="http://www.w3.org/2000/svg" width="64" height="64" viewBox="0 0 64 64">
<path fill="#1d1d1b" d="M51.41 37.46c-0.87 0-1.53 1-1.75 1-0.41 0.090-0.95 0-1.58 0-0.105-0.012-0.226-0.019-0.349-0.019-0.885 0-1.687 0.355-2.271 0.929l0-0c-0.92 1-1.38 5.38-0.13 6.42s3.25 0.58 4 0.46 1 0.21 1.87 0.25c0.004 0 0.009 0 0.013 0 1.517 0 2.849-0.791 3.606-1.983l0.010-0.017c0.92-1.59 0.12-4.34-0.33-5.38-0.692-0.986-1.813-1.63-3.085-1.66l-0.005-0zM18.54 19.21c2 0.63 5.080-0.2 6.87-0.33s4.75 0.54 6.13 0.46 3.21-1.92 3.79-5-0.5-7-3.37-8-6.34 0.62-7.92 1.2-3.36 0.46-5.83 1.67-2.42 2.55-2.46 4 0.83 5.38 2.79 6zM36.79 20.76c0.42 0.12 9.5-10.17 9.62-10.5s-0.7-1.090-1.12-1.090-9.85 9.77-9.75 10.25c0.294 0.558 0.719 1.012 1.235 1.332l0.015 0.008zM52.54 13.76c0.33 0.080 2.58-2.84 2.71-3.21s-0.63-0.46-1-0.5-3 2.51-2.79 2.75c0.294 0.387 0.652 0.708 1.063 0.951l0.017 0.009zM13.12 23.3c0.34-0.59-1.83 0-2.41 0.25-1.311 0.762-2.326 1.909-2.903 3.285l-0.017 0.045c-0.694 1.183-1.122 2.597-1.17 4.106l-0 0.014c0.321 0.245 0.728 0.392 1.169 0.392 0.222 0 0.436-0.037 0.634-0.106l-0.014 0.004c0.42-0.21 0.3-1.67 0.92-3.71s3.46-3.7 3.79-4.28zM36.5 8.050c0.918-0.617 1.701-1.349 2.353-2.188l0.017-0.022c0.090-0.25-0.12-0.67-0.62-0.83s-2.79 1.25-2.71 2c0.040 0.37 0.58 1.080 0.96 1.040zM56.29 16.67c-1.79-2.37-5.63-1.080-6.38-0.87s-2.8-0.2-3.75 0.54c-3 2.33-2.25 6.46-2.12 7.5 0.224 1.058 1.086 1.863 2.157 1.999l0.013 0.001c0.91 0.080 3.62 1.29 5.080 1.62s4 0.21 5-1.37 1.79-7.040 0-9.42zM49.58 31.21c0.13-0.41-0.080-0.33-0.46-0.41s-3 2.18-3.33 2.58c-0.13 0.17 0.75 1.17 1.080 1.17s2.59-2.92 2.71-3.34zM31 57.46c-0.25-0.080-1 0.21-3.92 0.17-0.106 0.008-0.23 0.013-0.355 0.013-1.22 0-2.336-0.448-3.191-1.188l0.006 0.005c-0.33 0-1 0.63-1.25 1s0.62 0.55 1.12 0.84c1.066 0.454 2.306 0.718 3.608 0.718 0.138 0 0.275-0.003 0.412-0.009l-0.020 0.001c0.227 0.022 0.491 0.034 0.758 0.034 1.109 0 2.168-0.215 3.138-0.604l-0.057 0.020c0-0.16 0-0.91-0.25-1zM38.66 26.84c-2.37-1.42-3.91-4-7.080-4.25s-5.29 1.56-8 1.92c-3.83 0.5-7.17 1-9.83 3.12-2.329 1.984-3.842 4.866-3.999 8.104l-0.001 0.026c-0.030 0.204-0.046 0.44-0.046 0.679 0 1.502 0.662 2.849 1.71 3.766l0.006 0.005c0.79 0.75-0.13 2.25-0.25 3.5 0.209 3.157 1.674 5.936 3.896 7.868l0.014 0.012c2.88 2.17 4.46 2 7 2s3.58 0.54 7.5 1.25 5 0.17 7.88-2.46 1.54-5.54 1.79-6.080 1.54-1.21 2.71-2.54 2-5.67 1.66-8.67-2.62-6.83-4.96-8.25z"></path>
<path fill="#e6e4da" d="M21.16 9.55c0.647 1.057 1.796 1.752 3.106 1.752 0.037 0 0.073-0.001 0.109-0.002l-0.005 0c1.434-0.116 2.62-1.063 3.082-2.355l0.008-0.025c0.29-0.71 0.16-1.25 0.29-1.25s2.87-0.91 4.29 0.92c0.915 1.194 1.465 2.708 1.465 4.35 0 0.676-0.093 1.33-0.268 1.95l0.012-0.051c-0.63 1.67-2.13 2.92-3 2.92-1.702-0.275-3.664-0.431-5.663-0.431-0.326 0-0.651 0.004-0.975 0.012l0.048-0.001c-2.79 0.25-3.25 0.46-3.79 0.21-0.99-0.892-1.7-2.076-1.992-3.417l-0.008-0.043c-0.043-0.234-0.068-0.502-0.068-0.777 0-1.065 0.373-2.043 0.995-2.811l-0.007 0.008c0.673-0.363 1.459-0.69 2.279-0.937l0.091-0.024z"></path>
<path fill="#e6e4da" d="M22.46 9.17c-0.050-0.2 3.66-1.25 3.79-1-0.060 0.971-0.699 1.778-1.573 2.085l-0.017 0.005c-0.134 0.033-0.287 0.052-0.445 0.052-0.779 0-1.449-0.464-1.75-1.13l-0.005-0.012z"></path>
<path fill="#1d1d1b" d="M28.75 8.76c-0.070-0.22 0.62-0.34 0.83-0.17s1.25 2.62 1 2.83-0.75 0.42-0.91 0.13-0.88-2.67-0.92-2.79z"></path>
<path fill="#1d1d1b" d="M30.71 8.88c-0.060-0.16 0.45-0.17 0.75 0.13s0.87 1.66 0.62 1.83-0.42 0.29-0.62 0.12c-0.292-0.591-0.549-1.283-0.734-2.005l-0.016-0.075z"></path>
<path fill="#1d1d1b" d="M20.87 13.55c1.13-0.65 3.13-0.42 3.13 1.45s-2.79 2.17-3.5 1.42c-0.362-0.322-0.589-0.789-0.589-1.309 0-0.678 0.385-1.266 0.949-1.556l0.010-0.005z"></path>
<path fill="#fff" d="M21.58 14.26c0.48-0.29 1.42 0.080 1.42 0.7s-1 0.84-1.42 0.67c-0.244-0.135-0.407-0.391-0.407-0.685s0.163-0.55 0.403-0.683l0.004-0.002z"></path>
<path fill="#1d1d1b" d="M28 13.050c1.25-0.78 3.91 0 3.62 1.79s-2.25 2.12-3.33 2-3.63-1.71-0.29-3.79z"></path>
<path fill="#fff" d="M28.5 13.76c0.44-0.22 2-0.21 2 0.87s-1.42 1.5-2.33 1.25-0.88-1.54 0.33-2.12z"></path>
<path fill="#e6e4da" d="M47.25 17.8c0.35-0.34 1.54-0.42 1.62-0.17s0.29 2 1.46 2.67c0.443 0.343 1.007 0.55 1.619 0.55 0.346 0 0.676-0.066 0.979-0.186l-0.018 0.006c0.71-0.25 1.21-0.62 1.13-0.79s-0.33-0.67-0.5-0.67-1.67 1.090-2.67 0.25-0.62-2-0.16-2.16 3.29-0.59 4 0.37 0.62 7 0.21 6.71-0.88-1.67-1.13-1.67-0.79 0.21-0.67 0.5 1.38 1.71 1.13 2-0.71 0.63-0.92 0.46-0.66-2.21-1.080-2.17-1 0.25-0.83 0.5 0.66 1.46 0.41 1.5-2.12-0.58-3-0.66-2.17 0.12-2.62-1.090-0.46-4.49 1.040-5.95z"></path>
<path fill="#1d1d1b" d="M48.41 21.26c0.164-0.054 0.353-0.085 0.549-0.085 0.89 0 1.631 0.639 1.789 1.484l0.002 0.011c0 1-1.79 1.79-2.75 1.090s-1.13-1.88 0.41-2.5z"></path>
<path fill="#fff" d="M48.81 22.16c0.054-0.018 0.116-0.028 0.181-0.028 0.292 0 0.535 0.208 0.589 0.484l0.001 0.004c0 0.35-0.59 0.59-0.91 0.36s-0.37-0.62 0.14-0.82z"></path>
<path fill="#e6e4da" d="M46.58 40.13c0.14-0.17 0.92-0.37 0.88-0.17s-0.59 1.13 0.5 1.59c0.556 0.195 1.029 0.507 1.408 0.908l0.002 0.002s0.21 2.13-0.12 2.13-0.59 0.080-0.63-0.13 0-1.5-0.21-1.54-0.7-0.25-0.75 0 0.13 1.88-0.080 1.75-0.5 0.13-0.87-0.46-0.5-3.62-0.13-4.080z"></path>
<path fill="#e6e4da" d="M52 39.59c0.12-0.080 0.54-0.25 0.75-0.080 0.439 0.633 0.701 1.416 0.701 2.261 0 0.201-0.015 0.398-0.043 0.59l0.003-0.022c-0.16 1.5-0.37 1.83-0.66 1.92s-0.25 0.25-0.3 0.080 0-1.46-0.25-1.5-0.79 0-0.83 0.12 0.21 1.8-0.12 1.75-0.88 0-0.92-0.25c-0.071-0.393-0.111-0.846-0.111-1.308 0-0.244 0.011-0.485 0.033-0.723l-0.002 0.031c0.12 0 1.54-0.090 1.83-1 0.068-0.242 0.106-0.52 0.106-0.808 0-0.381-0.068-0.746-0.193-1.084l0.007 0.022z"></path>
<path fill="#fff" d="M49.25 39.59c1.38-0.17 2 0.75 1.87 1.33s-0.87 1-1.87 0.42-1.040-1.63 0-1.75z"></path>
<path fill="#e6e4da" d="M23.25 26c1.45-0.17 3.12-1 5.5-1.25 0.407-0.071 0.877-0.111 1.355-0.111 1.95 0 3.743 0.671 5.162 1.794l-0.017-0.013c1.905 1.398 3.551 2.989 4.959 4.776l0.041 0.054c1.089 1.513 1.741 3.404 1.741 5.447 0 0.88-0.121 1.731-0.347 2.539l0.016-0.066c-0.79 3.080-1.12 3.71-2.12 4.46s-2.21 1.87-2.25 2.29 1 3.63-1 5.42-3.5 2.37-4.54 2.29-4.5-1.38-8-1.42-5.63-0.21-7.21-1.41c-1.526-1.413-2.669-3.219-3.269-5.258l-0.021-0.082c0-0.75-0.21-1.45 0.080-1.58s3.21-0.62 4.080-1.33 0.71-2.29 0-3.38-1.25-1.96-2.41-2.17-2.75 1.17-2.75 1.17c-0.386-0.578-0.616-1.289-0.616-2.053 0-0.247 0.024-0.488 0.070-0.721l-0.004 0.024c0.3-1.42 1.050-4.71 3.3-6.75s5.79-2.41 8.25-2.67z"></path>
<path fill="#1d1d1b" d="M17.16 28.76c0.28-0.19 1.090 0.29 0.92 0.58-0.734 0.788-1.394 1.662-1.96 2.599l-0.040 0.071c-0.37 1-0.16 1.58-0.54 1.75s-0.92 0.62-1 0c0.006-0.969 0.269-1.875 0.724-2.655l-0.014 0.025c0.526-0.914 1.161-1.695 1.901-2.362l0.009-0.008z"></path>
<path fill="#1d1d1b" d="M28.62 26.88c1.92-0.5 3.59 0.58 4.67 1.25 0.677 0.536 1.492 0.93 2.381 1.123l0.039 0.007c0.87 0.12 1.5 0.33 1.66 1s0 2.33-0.5 2.54-2.58 0.25-3.58 1.080-1.33 1.71-2.71 2-2.83 0.54-4.37-0.71-3-6.87 2.41-8.29z"></path>
<path fill="#fff" d="M29 27.88c0.105-0.007 0.227-0.011 0.35-0.011 1.089 0 2.105 0.313 2.963 0.855l-0.023-0.014c1.12 0.67 0.87 0.8 2 1.090s1.87 0.41 2 0.87 0.37 1.29-0.17 1.46-2.5 0.13-3.46 0.79-1.66 2.29-3.75 2.080c-1.605-0.23-2.836-1.561-2.91-3.193l-0-0.007c-0.007-0.088-0.012-0.19-0.012-0.293 0-1.798 1.286-3.296 2.989-3.623l0.023-0.004z"></path>
<path fill="#1d1d1b" d="M35.58 37c0.351-0.188 0.767-0.298 1.209-0.298 1.436 0 2.6 1.164 2.6 2.6 0 0.341-0.066 0.667-0.185 0.966l0.006-0.017c-0.92 2.55-3.63 2.84-4.84 1.42-0.371-0.508-0.594-1.145-0.594-1.835 0-1.247 0.73-2.324 1.785-2.827l0.019-0.008z"></path>
<path fill="#fff" d="M35.94 37.91c0.228-0.127 0.5-0.201 0.79-0.201 0.911 0 1.65 0.739 1.65 1.65 0 0.232-0.048 0.452-0.134 0.652l0.004-0.011c-0.192 0.827-0.922 1.434-1.795 1.434-0.5 0-0.954-0.2-1.286-0.524l0 0c-0.243-0.327-0.389-0.739-0.389-1.185 0-0.799 0.469-1.489 1.147-1.809l0.012-0.005z"></path>
<path fill="#fff" d="M13.12 39.13c0.17-0.12 1-1.12 2.090-0.71s2 2.84 1.62 3.13c-0.926 0.483-1.999 0.87-3.128 1.106l-0.082 0.014c-0.080-0.12 0.38-1.71 0.21-2.25-0.199-0.493-0.438-0.918-0.722-1.307l0.012 0.017z"></path>
<path fill="#1d1d1b" d="M24.75 42.92c0.44-0.19 3.62-0.33 4.21 0.21s0.87 2.21 2.2 2.88 2 1.12 2 2.29c-0.078 1.089-0.921 1.959-1.99 2.079l-0.010 0.001c-0.79 0-2.91-0.92-4.58-0.92-0.217 0.020-0.469 0.031-0.724 0.031-1.134 0-2.215-0.225-3.202-0.632l0.056 0.020c-0.578-0.529-0.939-1.286-0.939-2.128 0-0.206 0.022-0.407 0.063-0.601l-0.003 0.019c0.33-0.5 1.29-2.54 2.92-3.25z"></path>
<path fill="#fff" d="M25.46 43.92c0.68-0.28 2.62-0.29 2.91 0.21s0.67 1.67 1.29 2 2.59 1.17 2.55 1.87-0.92 1.59-1.050 1.5c-1.138-0.631-2.496-1.002-3.941-1.002-0.063 0-0.126 0.001-0.189 0.002l0.009-0c-2.21 0.090-2.58 0.38-3.21 0s-1.12-1.25-0.92-1.75c0.651-1.134 1.507-2.079 2.524-2.812l0.026-0.018z"></path>
<path fill="#1d1d1b" d="M20.54 37.26c0.094-0.184 0.283-0.308 0.5-0.308s0.406 0.124 0.498 0.305l0.002 0.003c0.21 0.46 1.17 5 0.88 5.17s-0.59 0.54-0.8 0.21c-0.467-1.532-0.846-3.356-1.066-5.229l-0.014-0.151z"></path>
<path fill="#1d1d1b" d="M22.91 37.17c0.103-0.117 0.253-0.19 0.42-0.19s0.317 0.073 0.419 0.189l0 0.001c0.12 0.25 0.91 3.8 0.54 3.92s-0.71 0.38-0.88-0.080-0.75-3.46-0.5-3.84z"></path>
<path fill="#1d1d1b" d="M25.41 37.63c0.1-0.28 0.71-0.12 0.84 0.080 0.213 1.005 0.346 2.17 0.37 3.361l0 0.019c-0.080 0.17-0.71 0.21-0.83-0.080-0.186-0.977-0.322-2.139-0.378-3.322l-0.002-0.058z"></path>
<path fill="#1d1d1b" d="M27.79 38.13c0.085-0.103 0.212-0.167 0.355-0.167s0.27 0.065 0.354 0.167l0.001 0.001c0.25 0.25 1.080 3.42 0.58 3.46s-0.75 0.21-1-0.38c-0.201-0.717-0.316-1.54-0.316-2.39 0-0.243 0.009-0.483 0.028-0.721l-0.002 0.032z"></path>
<path fill="#1d1d1b" d="M30.16 37.71c0.18-0.17 0.75-0.41 0.84 0.090s0.12 1.33-0.17 1.46-0.62 0.45-0.75 0c-0.036-0.183-0.056-0.393-0.056-0.609 0-0.336 0.050-0.66 0.142-0.965l-0.006 0.023z"></path>
<path fill="#1d1d1b" d="M16 45.21c0-0.31 0.67-0.37 0.79 0s0.5 1.42 0.29 1.5c-0.115 0.084-0.259 0.134-0.415 0.134-0.088 0-0.172-0.016-0.25-0.045l0.005 0.002c-0.26-0.13-0.42-1.21-0.42-1.59z"></path>
</svg>
