<!-- Generated by IcoMoon.io -->
<svg version="1.1" xmlns="http://www.w3.org/2000/svg" width="64" height="64" viewBox="0 0 64 64">
<path fill="#1d1d1b" d="M11.61 21.55c1.45-1.32 0.19-4.94 4.060-7.060s6.13-1.38 6.13-1.38c0.543-0.278 1.175-0.476 1.843-0.557l0.027-0.003c1.060-0.13 2.56 0.5 6-1s5-2.94 8-3.060 7.81 0.93 9.94 2.93 2.25 7.5 5.12 11.88 5.44 8.19 5.38 11.19-1.94 5.93-5.19 10.31c-2.001 2.817-4.136 5.289-6.483 7.543l-0.017 0.017c-1 0.88-3.56 3.5-7.75 3.13s-8-2.25-9.56-2.63c-0.774-0.247-1.665-0.389-2.589-0.389-0.768 0-1.512 0.098-2.222 0.283l0.061-0.014c-2.004 0.639-4.315 1.043-6.71 1.119l-0.040 0.001c-1.56-0.12-5.31-2.62-7.31-7s-5-14.69-4.3-17.69 3.55-5.75 5.61-7.62z"></path>
<path fill="#e6e4da" d="M13.23 21.86c0.67-1 1.5-4.56 2.75-5.5s4.38-2.19 4.94-1.75c1.192 1.488 2.851 2.558 4.753 2.989l0.057 0.011c3.5 0.94 6 1.060 8.38-1.19 1.2-1.003 1.958-2.501 1.958-4.175 0-0.157-0.007-0.312-0.020-0.465l0.001 0.020c0.073-0.525 0.272-0.994 0.566-1.388l-0.006 0.008c0.25-0.18 8.25 0.32 10.060 2.63s2.25 8.75 4.94 12.75 4.19 6.060 4.19 8.62-0.69 4.82-3.5 8.070-6.82 9.31-8.82 10.25c-1.468 0.649-3.181 1.027-4.981 1.027-0.824 0-1.629-0.079-2.408-0.23l0.079 0.013c-2.37-0.5-5.060-3.38-9.25-2.94s-6.37 2.39-9.75 1.31-6.44-8.75-7.62-13.31-2.75-8.31-1.19-10.81 4.19-4.94 4.87-5.94z"></path>
<path fill="#fff" d="M23.050 14.36c0.32-0.070 1.25 0 4.060-0.44s6.31-2.87 6.56-2.43 0.060 3.12-1.060 4.060-3.88 1.12-5.63 0.81-4.5-1.87-3.93-2z"></path>
<path fill="#1d1d1b" d="M16 19.74c0.226-1.177 0.776-2.199 1.552-3.002l-0.002 0.002c0.58-0.33 2.37-0.88 2.5-0.58s0.45 0.75 0.12 0.91-1.79 0.25-2 0.79c-0.336 0.818-0.729 1.522-1.192 2.173l0.022-0.033c-0.27 0.2-0.89-0.1-1-0.26z"></path>
<path fill="#1d1d1b" d="M10.94 26.82c0.26-0.22 1.54 0.21 1.38 0.5s-1.46 1.25-1.46 2.54 0.41 2.29 0.080 2.42-1.21 0.46-1.29-0.080c-0.088-0.464-0.139-0.998-0.139-1.543 0-0.355 0.021-0.705 0.063-1.048l-0.004 0.041c0.36-1.079 0.824-2.016 1.397-2.873l-0.027 0.043z"></path>
<path fill="#1d1d1b" d="M40.82 13.9c0.325-0.174 0.711-0.275 1.121-0.275 1.337 0 2.42 1.084 2.42 2.42 0 0.157-0.015 0.312-0.044 0.461l0.002-0.015c-0.38 2.29-3.38 2.25-4.34 1.37-0.4-0.441-0.645-1.030-0.645-1.675 0-1.013 0.603-1.885 1.469-2.278l0.016-0.006z"></path>
<path fill="#fff" d="M41.33 15c0.166-0.091 0.363-0.144 0.573-0.144 0.668 0 1.21 0.542 1.21 1.21 0 0.083-0.008 0.164-0.024 0.242l0.001-0.008c-0.19 1.15-1.7 1.13-2.18 0.69-0.204-0.222-0.329-0.519-0.329-0.845 0-0.509 0.304-0.947 0.741-1.142l0.008-0.003z"></path>
<path fill="#1d1d1b" d="M29.19 21c0.81-0.26 2.81 0 2.63 2s-2.46 1.54-3.38 1.080-0.92-2.72 0.75-3.080z"></path>
<path fill="#fff" d="M29.55 22c0.36-0.090 1.22 0 1.13 0.89s-1.050 0.67-1.45 0.47c-0.16-0.147-0.261-0.357-0.261-0.591 0-0.364 0.243-0.671 0.575-0.768l0.006-0.001z"></path>
<path fill="#1d1d1b" d="M19.61 25.2c1.42-0.68 5-0.3 7.54 0.83s1.85 2.58 0.85 6.080-1.89 5.89-2.6 6.79c-0.704 0.819-1.603 1.451-2.626 1.826l-0.044 0.014c-0.54 0.080-2.58 0.16-3-0.29-0.527-0.868-1.337-1.52-2.3-1.832l-0.030-0.008c-1.29-0.25-2.63 0-3.42-1.75-0.322-0.787-0.509-1.7-0.509-2.657 0-1.355 0.375-2.623 1.027-3.705l-0.018 0.032c1.217-2.23 2.959-4.037 5.067-5.295l0.063-0.035z"></path>
<path fill="#fff" d="M20.32 26.070c0.8-0.3 4.25 0.5 5.45 0.88s2.050 1.080 1.88 2.12c-0.719 2.48-1.444 4.499-2.274 6.463l0.144-0.383c-0.87 2.38-0.87 2.92-2.16 3.71s-2.25 1.090-2.59 0.75c-0.74-0.907-1.712-1.598-2.826-1.986l-0.044-0.014c-1.5-0.37-2.63-0.66-2.79-1.12-0.2-0.656-0.314-1.409-0.314-2.189 0-1.156 0.252-2.253 0.704-3.239l-0.020 0.049c1.17-2.11 3.59-4.58 4.84-5.040z"></path>
<path fill="#1d1d1b" d="M39.11 21.65c0.68-0.306 1.474-0.484 2.309-0.484 2.244 0 4.188 1.286 5.136 3.161l0.015 0.033c0.415 0.725 0.66 1.593 0.66 2.519 0 1.98-1.12 3.699-2.761 4.558l-0.028 0.014c-2.12 0.91-6.25 1.45-8-1.17s-1.12-6.5 2.67-8.63z"></path>
<path fill="#fff" d="M41.77 22.24c1.595 0.218 2.921 1.197 3.617 2.553l0.013 0.027c1.080 2.17 0.67 3.5-0.080 4.54-1.046 1.189-2.572 1.936-4.271 1.936-0.453 0-0.895-0.053-1.317-0.154l0.039 0.008c-1.477-0.296-2.615-1.461-2.867-2.929l-0.003-0.021c-0.080-0.63-0.17-1.71 0-1.71s1.33 2.37 1.67 2.29 0.66-0.83 0.54-1c-0.573-0.783-1.1-1.673-1.539-2.611l-0.041-0.099c0.12-0.12 0.54-1.12 0.75-0.87s1.33 3.25 1.58 3.080 0.67-0.92 0.5-1.21-1.54-2.5-1.33-2.71 1.16-0.91 1.33-0.75 0.71 2.17 1 2.21c0.012 0.001 0.026 0.001 0.040 0.001 0.331 0 0.6-0.269 0.6-0.6 0-0.008-0-0.015-0-0.022l0 0.001c-0.060-0.3-0.52-1.88-0.23-1.96z"></path>
<path fill="#1d1d1b" d="M16.070 33.4c-0.13-0.3 0.5-0.87 0.83-0.58s1.87 3.13 1.58 3.33-0.54 0.34-0.75 0.25c-0.578-0.856-1.132-1.84-1.606-2.869l-0.054-0.131z"></path>
<path fill="#1d1d1b" d="M17.61 30.86c0.060-0.29 0.54-0.66 0.83-0.5 0.76 1.265 1.437 2.726 1.954 4.261l0.046 0.159c0.006 0.035 0.010 0.075 0.010 0.116 0 0.319-0.213 0.588-0.505 0.672l-0.005 0.001c-0.839-1.341-1.621-2.891-2.262-4.514l-0.068-0.196z"></path>
<path fill="#1d1d1b" d="M19.44 28.78c-0.060-0.2 0.54-0.75 0.79-0.58 0.678 1.114 1.198 2.409 1.486 3.79l0.014 0.080c-0.080 0.58-0.37 0.92-0.58 0.75-0.546-1.069-1.123-2.403-1.624-3.772l-0.086-0.268z"></path>
<path fill="#1d1d1b" d="M21.69 27.61c0-0.24 0.83-0.37 1-0.25 0.29 0.54 0.46 1.182 0.46 1.863 0 0.020-0 0.040-0 0.060l0-0.003c-0.17 0.37-0.42 0.75-0.67 0.46-0.367-0.613-0.643-1.328-0.784-2.090l-0.006-0.040z"></path>
<path fill="#1d1d1b" d="M31.9 33.82c0.214-0.095 0.463-0.15 0.726-0.15 1.011 0 1.83 0.819 1.83 1.83 0 0.085-0.006 0.168-0.017 0.25l0.001-0.010c0 1.91-2.54 2-3.42 1.25s-0.7-2.42 0.88-3.17z"></path>
<path fill="#fff" d="M32.24 34.84c0.079-0.031 0.17-0.049 0.265-0.049 0.409 0 0.74 0.331 0.74 0.74 0 0.031-0.002 0.062-0.006 0.093l0-0.004c0 0.79-1 0.82-1.39 0.51s-0.26-0.98 0.39-1.29z"></path>
<path fill="#1d1d1b" d="M49.38 30.93c0.268-0.119 0.581-0.188 0.91-0.188 1.265 0 2.29 1.025 2.29 2.29 0 0.105-0.007 0.209-0.021 0.31l0.001-0.012c0 2.39-3.18 2.5-4.27 1.56s-0.89-3.020 1.090-3.96z"></path>
<path fill="#fff" d="M49.7 31.89c0.15-0.068 0.326-0.107 0.511-0.107 0.701 0 1.27 0.569 1.27 1.27 0 0.059-0.004 0.117-0.012 0.174l0.001-0.007c0 1.34-1.77 1.39-2.38 0.87-0.217-0.239-0.35-0.558-0.35-0.907 0-0.607 0.4-1.12 0.951-1.29l0.010-0.003z"></path>
<path fill="#1d1d1b" d="M24.23 44c1.18-0.54 3.79 0.25 3.25 2.5s-3.16 1.62-4 0.91c-0.413-0.368-0.672-0.901-0.672-1.495 0-0.898 0.592-1.658 1.408-1.911l0.014-0.004z"></path>
<path fill="#fff" d="M24.61 44.74c0.72-0.33 2.33 0.15 2 1.54s-1.94 1-2.45 0.56c-0.246-0.229-0.399-0.554-0.399-0.916 0-0.547 0.351-1.012 0.841-1.181l0.009-0.003z"></path>
<path fill="#1d1d1b" d="M35.69 42.86c0.87-0.32 1.67 0.79 3.54 0.25s4.040-1.41 5.77-1.11c1.132 0.017 2.070 0.825 2.287 1.895l0.003 0.015c0.015 0.151 0.023 0.327 0.023 0.504 0 0.768-0.159 1.499-0.447 2.161l0.014-0.035c-0.889 0.892-1.828 1.733-2.813 2.519l-0.067 0.051c-0.91 0.88-1.46 1.71-2.46 1.54s-1.7-0.83-3.25-0.87c-0.154 0.012-0.333 0.019-0.514 0.019-0.923 0-1.805-0.176-2.614-0.495l0.048 0.017c-0.79-0.37-2.42-1.75-2.33-2.75 0.454-1.578 1.456-2.873 2.783-3.694l0.027-0.016z"></path>
<path fill="#fff" d="M35.23 44.53s0.090 2.42 0.34 2.5 0.66 0.12 0.66-0.080-0.33-3 0-3.050 0.71 0.050 0.75 0.17-0.080 3.13 0.25 3.17 0.67 0.16 0.67 0 0-3 0-3 0.5 0 0.58 0.12 0 3 0.34 3.090 0.66 0 0.66-0.21c-0.070-0.64-0.109-1.382-0.109-2.133 0-0.389 0.011-0.776 0.032-1.161l-0.002 0.053c0.17 0 1-0.46 1-0.29s0 2.41 0.21 2.41 0.83 0 0.83-0.29-0.21-2.21 0-2.33 1.17-0.5 1.21-0.33-0.080 1.62 0.090 1.62 0.66 0 0.66-0.29 0-1.54 0.17-1.58 2.25 0 2.5 0.54c0.139 0.383 0.219 0.826 0.219 1.287 0 0.309-0.036 0.611-0.104 0.899l0.005-0.026c-0.16 0.25-1.79 1.42-2.54 2.34s-1.33 1.58-1.91 1.62-1.71-0.71-2.67-0.87-2.54 0-3.42-0.42c-0.687-0.269-1.2-0.85-1.367-1.565l-0.003-0.015c0.134-0.835 0.47-1.575 0.958-2.19l-0.008 0.010z"></path>
<path fill="#1d1d1b" d="M36.32 37.24c-0.27-0.18 0.79-0.46 1-0.29s1.55 3.37 1.25 3.58c-0.281 0.133-0.61 0.21-0.957 0.21-0.015 0-0.030-0-0.046-0l0.002 0s-1.13-3.42-1.25-3.5z"></path>
<path fill="#1d1d1b" d="M37.82 35.32c0.14-0.15 0.75-0.62 1-0.42 0.505 1.088 0.82 2.356 0.87 3.692l0.001 0.018c-0.21 0.25-0.91 0.42-1 0.17-0.33-0.953-0.631-2.116-0.847-3.309l-0.023-0.151z"></path>
<path fill="#1d1d1b" d="M40.32 34.49c0.12-0.17 0.7-0.38 0.79-0.090 0.225 0.949 0.359 2.041 0.37 3.163l0 0.007c-0.16 0.13-0.79 0.42-0.91 0.080-0.165-0.797-0.26-1.712-0.26-2.649 0-0.18 0.004-0.358 0.010-0.536l-0.001 0.026z"></path>
<path fill="#1d1d1b" d="M45.77 39.53c0.14 0.13 3.15 2.14 3.15 2.67s-0.060 1-0.73 0.54c-1.13-0.763-2.108-1.515-3.038-2.322l0.038 0.032c0-0.21 0.5-1 0.58-0.92z"></path>
<path fill="#1d1d1b" d="M46 37.7c-0.050-0.23 0.46-0.63 0.71-0.55s3.79 3.67 3.59 3.84-0.42 0.5-0.63 0.5c-1.349-1.149-2.552-2.39-3.628-3.736l-0.042-0.054z"></path>
<path fill="#1d1d1b" d="M48.070 36.65s0.41-0.7 0.75-0.5 2.75 2.84 2.66 3.13-0.54 0.79-0.75 0.67-2.54-3.17-2.66-3.3z"></path>
</svg>
