<!-- Generated by IcoMoon.io -->
<svg version="1.1" xmlns="http://www.w3.org/2000/svg" width="64" height="64" viewBox="0 0 64 64">
<path fill="#1d1d1b" d="M9.19 25s0.88-7.71 6.46-11.79 9.42-5.42 17.58-4.92 11.59 5.25 13.59 7.33 3.18 8.6 3.18 8.6 1.42 0.37 1.46 1.25l0.090 2c0.209 0.017 0.453 0.027 0.7 0.027 0.516 0 1.021-0.042 1.514-0.124l-0.053 0.007c0-0.16-0.58-12.66-0.58-12.66s-2.29-0.75-2.38-2.5 1.38-3.38 3.84-2.59 0.71 4.59 0.71 4.59 1.5 14.5 1.37 15.080-0.71 0.75-1 0.83-4-0.2-4-0.2c0.024 0.252 0.037 0.545 0.037 0.841 0 0.766-0.090 1.51-0.26 2.224l0.013-0.065c-0.33 0.55-2 0.88-2 0.88-0.019 1.206-0.186 2.364-0.483 3.469l0.023-0.099c-0.171 0.846-0.521 1.59-1.009 2.222l0.009-0.012s2.54 6.45 2.5 6.83-5.88 5.83-12.75 8.37-14.75 0.8-19-1.7-7.3-5.88-7.5-6.5 2-5.34 2-5.34-1.13-2.33-1.79-4c-0.326-0.761-0.667-1.728-0.953-2.718l-0.047-0.192s-2.46-0.63-2.68-1.21-0.63-6.88-0.34-7.38 1.38-0.55 1.75-0.55z"></path>
<path fill="#e7413e" d="M9.15 26.59s1.54-0.16 1.58 0.13c0.062 0.885 0.098 1.919 0.098 2.96s-0.036 2.075-0.105 3.098l0.008-0.138c-0.121 0.036-0.26 0.056-0.403 0.056-0.263 0-0.51-0.069-0.724-0.19l0.007 0.004c-0.17-0.17-0.75-5.67-0.46-5.92z"></path>
<path fill="#e7413e" d="M48.65 25.51c0.12-0.12 1.080 0.13 1.13 0.38 0.057 0.872 0.090 1.889 0.090 2.915s-0.033 2.044-0.097 3.053l0.007-0.138c-0.191 0.119-0.423 0.19-0.672 0.19-0.15 0-0.294-0.026-0.427-0.073l0.009 0.003c-0.080-0.12-0.080-6.29-0.040-6.33z"></path>
<path fill="#e6e4da" d="M53.19 10.64c1-0.36 1.54 0.41 1.67 1.45 0.006 0.047 0.009 0.101 0.009 0.155 0 0.723-0.587 1.31-1.31 1.31-0.203 0-0.395-0.046-0.567-0.129l0.008 0.003c-0.514-0.245-0.863-0.761-0.863-1.358 0-0.669 0.438-1.236 1.043-1.429l0.011-0.003z"></path>
<path fill="#e6e4da" d="M51.94 28.26c0.13 0 2.79 0 2.79-0.25s-0.5-8.42-0.25-8.62 0.3 0.080 0.42 0.33c0.369 2.647 0.61 5.764 0.669 8.924l0.001 0.076c-0.66 0.132-1.42 0.208-2.197 0.208-0.505 0-1.003-0.032-1.491-0.094l0.058 0.006c-0.16-0.12 0-0.58 0-0.58z"></path>
<path fill="#cbe7f5" d="M12.19 25.18s-1.41 0.12-1.54 0c0.557-3.145 1.866-5.916 3.736-8.213l-0.026 0.033c1.635-2.108 3.734-3.78 6.148-4.879l0.102-0.041s0.080 1.63 0.29 1.71c0.314 0.034 0.678 0.054 1.046 0.054 0.752 0 1.486-0.082 2.192-0.236l-0.067 0.012c0.16-0.25-0.25-2.91-0.13-3 0.545-0.185 1.174-0.304 1.827-0.33l0.013-0c0.013 1.423 0.118 2.809 0.309 4.167l-0.019-0.167c0.522 0.146 1.122 0.229 1.741 0.229 0.179 0 0.357-0.007 0.533-0.021l-0.023 0.001c0.004 0 0.008 0 0.012 0 0.644 0 1.245-0.186 1.751-0.508l-0.013 0.008c0-0.13-0.54-4-0.42-4 0.113-0.030 0.255-0.058 0.4-0.078l0.020-0.002s0.21 3.54 0.46 3.5 3.16-0.13 3.12-0.46-0.46-3.25-0.21-3.21c3.344 0.348 6.33 1.657 8.738 3.642l-0.028-0.022c3.85 3.27 5.85 10.22 5.75 10.31-0.194 0.088-0.43 0.173-0.673 0.241l-0.037 0.009s-5.46-5.63-10.66-6.46-9.46-1.38-14.92 1.12c-3.629 1.755-6.739 3.96-9.426 6.595l0.006-0.005z"></path>
<path fill="#e7413e" d="M21.61 11.68c0.17-0.090 1.33-0.5 1.33-0.5s0.34 1.5 0.13 1.58c-0.326 0.052-0.703 0.081-1.086 0.081-0.044 0-0.087-0-0.131-0.001l0.007 0z"></path>
<path fill="#e7413e" d="M26.73 10.090c0.434-0.060 0.935-0.094 1.444-0.094 0.195 0 0.39 0.005 0.583 0.015l-0.027-0.001c0 0.13 0.25 3.46 0.13 3.5-0.394 0.091-0.846 0.143-1.31 0.143-0.141 0-0.281-0.005-0.419-0.014l0.019 0.001c-0.248-1.059-0.4-2.281-0.42-3.535l-0-0.014z"></path>
<path fill="#e7413e" d="M31 9.89c0.218-0.012 0.473-0.019 0.73-0.019s0.512 0.007 0.765 0.020l-0.035-0.002c0.085 0.577 0.134 1.242 0.134 1.919 0 0.116-0.001 0.232-0.004 0.348l0-0.017c-0.13 0-1.25 0.12-1.25 0.12z"></path>
<path fill="#1f4863" d="M12.44 27.050c2.572-2.481 5.49-4.628 8.67-6.356l0.21-0.104c4.16-2 9.58-2.080 13.33-1.45s7.080 3.080 9.42 4.7 2.54 2.21 2.54 2.21c-0.001 0.142-0.002 0.309-0.002 0.476 0 2.121 0.106 4.218 0.313 6.285l-0.021-0.261c0.21 0.383 0.46 0.712 0.75 1l0 0c-0.356 1.697-0.926 3.202-1.692 4.583l0.042-0.083c-0.974 1.961-2.26 3.62-3.812 4.984l-0.018 0.016c-0.936 0.666-2.006 1.314-3.124 1.883l-0.146 0.067s-2.83-2.75-3-2.79-0.83 0.46-0.71 0.71 3.13 2.41 2.88 2.58c-2.532 1.070-5.471 1.733-8.552 1.829l-0.038 0.001c-4.564-0.083-8.71-1.804-11.891-4.598l0.021 0.018c-2.229-2.364-3.991-5.197-5.117-8.333l-0.053-0.167c-0.080-0.25-0.040-7.11 0-7.2z"></path>
<path fill="#1d1d1b" d="M22.57 23.68c0.5 0 1 0.91 0.54 1.66s-2.75 3.55-2.54 6.17c0.054 1.862 0.769 3.546 1.917 4.838l-0.007-0.008c0.75 0.84 1.17 0.75 1.17 1.13s0 0.42-0.25 0.5c-0.474 0.102-1.018 0.161-1.576 0.161-1.515 0-2.93-0.432-4.127-1.18l0.033 0.019c-2.37-1.62-2.41-5.25-2.29-6.54s0.79-6.54 7.13-6.75z"></path>
<path fill="#e6e4da" d="M21.15 24.72c0.46-0.070 0.75 0.29 0.54 0.46s-2.71 3-2.58 6 0.89 4.33 1.37 4.82 0.71 0.71 0.59 0.83c-1.596-0.067-2.979-0.921-3.779-2.181l-0.011-0.019c-1.25-2-0.42-5.46 0.25-6.8s1.62-2.83 3.62-3.11z"></path>
<path fill="#1d1d1b" d="M40.53 22.68c0.756 0.289 1.388 0.76 1.863 1.361l0.007 0.009c0 0.25-0.080 0.46-0.21 0.42-0.702-0.36-1.301-0.735-1.865-1.155l0.035 0.025c-0.047-0.071-0.076-0.159-0.076-0.253 0-0.176 0.099-0.328 0.243-0.406l0.002-0.001z"></path>
<path fill="#1d1d1b" d="M40.86 26.76c1.417 0.599 2.638 1.296 3.763 2.116l-0.053-0.037c0 0.25 0 0.5-0.13 0.5s-3.44-1.66-3.62-1.75-0.17-0.79 0.040-0.83z"></path>
<path fill="#1d1d1b" d="M41.070 29.68c1.458 0.768 2.712 1.597 3.875 2.535l-0.045-0.035c0 0.25 0.080 0.62-0.080 0.58s-3.79-2.12-4-2.33 0.12-0.75 0.25-0.75z"></path>
<path fill="#1d1d1b" d="M40.9 32.76c1.453 0.801 2.707 1.673 3.862 2.657l-0.032-0.027c0.050 0.2-0.25 0.54-0.25 0.54-1.529-0.837-2.793-1.625-4.012-2.474l0.142 0.094c-0.040-0.21 0.29-0.79 0.29-0.79z"></path>
<path fill="#1d1d1b" d="M39.86 35.76c1.73 1.123 3.197 2.189 4.607 3.323l-0.107-0.083c-0.080 0.17-0.13 0.54-0.29 0.46s-4.67-2.79-4.67-3 0.46-0.7 0.46-0.7z"></path>
<path fill="#1d1d1b" d="M38.9 38.26c1.494 1.017 2.8 2.086 4.007 3.257l-0.007-0.007c-0.132 0.147-0.284 0.273-0.451 0.375l-0.009 0.005s-4-2.92-4.080-3.13 0.29-0.46 0.54-0.5z"></path>
<path fill="#1d1d1b" d="M37.36 40.3c1.291 0.83 2.412 1.75 3.415 2.785l0.005 0.005c-0.134 0.144-0.285 0.269-0.451 0.374l-0.009 0.006c-1.29-0.853-2.405-1.702-3.462-2.616l0.042 0.036c0.068-0.256 0.234-0.465 0.455-0.588l0.005-0.002z"></path>
<path fill="#e6e4da" d="M28.53 23.72c0.072-0.006 0.155-0.009 0.239-0.009 0.27 0 0.532 0.032 0.784 0.093l-0.023-0.005s0.080-1.41 0.37-1.5 0.58 0 0.58 0.13 0.090 1.21 0.090 1.21 1.16-0.63 1.29-0.46-0.080 0.75-0.080 0.75 0.41 0.25 0.41 0.41c-0.022 0.159-0.079 0.301-0.162 0.424l0.002-0.003s-1.42-0.25-1.42 0c0.135 0.572 0.293 1.059 0.485 1.529l-0.025-0.069-0.63 0.25s-0.5-0.88-0.58-0.71c-0.197 0.277-0.448 0.502-0.739 0.664l-0.011 0.006c-0.13 0-0.46-0.5-0.46-0.5s0.83-1.090 0.71-1.17-1-0.29-1-0.46c-0.001-0.017-0.002-0.037-0.002-0.058 0-0.197 0.064-0.378 0.174-0.525l-0.002 0.002z"></path>
<path fill="#e6e4da" d="M34.73 36.49c0.090-0.060 0.59 0 0.59 0s0-0.84 0.23-0.89 0.34 0 0.34 0.070 0 0.72 0 0.72 0.69-0.37 0.76-0.27-0.050 0.44-0.050 0.44 0.25 0.15 0.25 0.25c-0.017 0.091-0.052 0.172-0.101 0.242l0.001-0.002s-0.75-0.050-0.75 0.050c0.082 0.336 0.178 0.622 0.294 0.898l-0.014-0.038-0.37 0.15s-0.3-0.52-0.35-0.42c-0.116 0.164-0.263 0.298-0.433 0.397l-0.007 0.004c-0.080 0-0.27-0.3-0.27-0.3s0.49-0.64 0.42-0.69-0.62-0.17-0.62-0.27c-0.002-0.016-0.003-0.034-0.003-0.053 0-0.106 0.031-0.206 0.084-0.289l-0.001 0.002z"></path>
<path fill="#e6e4da" d="M23.18 40.090c0.17-0.12 0.37-0.33 0.58-0.21s0.38 1.090 0.38 1.090 0.87 0 1 0.21c0.010 0.073 0.015 0.158 0.015 0.244 0 0.18-0.024 0.354-0.068 0.52l0.003-0.014h-0.66l0.12 0.92h-0.41l-0.59-0.79s-0.33 0.58-0.46 0.54c-0.271-0.157-0.5-0.309-0.718-0.473l0.018 0.013 0.66-0.66s-0.83-0.17-0.83-0.42 0-0.54 0.17-0.5 0.62 0.25 0.66 0.13z"></path>
<path fill="#e6e4da" d="M27.92 32.59c0.17-0.080 0.87-0.41 0.87-0.29s-0.080 0.79 0.21 0.79 1.13-0.080 1.13 0.090 0.29 0.5 0 0.54-1 0.17-1 0.17l0.12 1h-0.5c-0.25 0-0.5-0.91-0.5-0.91s-0.71-0.17-0.71-0.29c0.010-0.157 0.028-0.301 0.053-0.443l-0.003 0.023h0.37z"></path>
<path fill="#e6e4da" d="M35.69 28.050c0.17-0.080 0.88-0.41 0.88-0.29s-0.090 0.79 0.21 0.79 1.12-0.080 1.12 0.090 0.29 0.5 0 0.54-1 0.16-1 0.16l0.13 1h-0.5c-0.25 0-0.5-0.91-0.5-0.91s-0.71-0.17-0.71-0.3 0-0.41 0-0.41h0.37z"></path>
<path fill="#e6e4da" d="M29.4 39.2c0.17-0.080 0.67-0.12 0.75 0.080s0.67 0.5 0.67 0.5l0.58 1.22-0.37 0.38s-0.67 0.46-0.75 0.29c-0.122-0.188-0.247-0.351-0.383-0.504l0.003 0.004-0.37 0.54-0.8-0.33s-0.25-0.67 0.050-0.88 0.54-0.080 0.5-0.33c-0.010-0.074-0.015-0.16-0.015-0.247 0-0.26 0.050-0.509 0.14-0.737l-0.005 0.014z"></path>
<path fill="#cbe7f5" d="M14.48 42.72c0.23 0.15 1.34 1.42 2 2 0.3 0.271 0.626 0.53 0.968 0.769l0.032 0.021s-1.54 2.54-1.79 2.5c-0.975-0.584-1.812-1.273-2.532-2.071l-0.008-0.010c0.307-1.217 0.763-2.286 1.359-3.261l-0.029 0.051z"></path>
<path fill="#e7413e" d="M18.070 45.64c0.12-0.090 0.5 0.12 0.41 0.25s-1.54 3.16-1.66 3.16-0.63-0.080-0.5-0.25 1.58-3.040 1.75-3.16z"></path>
<path fill="#e7413e" d="M19.070 46.51l0.41 0.25c-0.485 1.284-1.003 2.368-1.599 3.401l0.059-0.111c-0.16-0.080-0.46-0.16-0.46-0.29s1.59-3.25 1.59-3.25z"></path>
<path fill="#cbe7f5" d="M20.15 47.050c2.294 1.245 5.009 2.009 7.895 2.089l0.025 0.001c4.83 0.2 6.54 0.12 10.79-2 2.519-1.153 4.671-2.665 6.499-4.499l0.001-0.001c0.443-0.444 0.92-0.854 1.426-1.226l0.034-0.024s1.66 4.34 1.58 4.5c-0.127 0.166-0.28 0.306-0.453 0.416l-0.007 0.004c-0.577-1.123-1.171-2.078-1.833-2.981l0.043 0.061c-0.21 0-0.67 0.71-0.67 0.71s1.67 2.46 1.5 2.71c-0.335 0.29-0.717 0.54-1.129 0.737l-0.031 0.013c-0.44-0.928-0.913-1.721-1.451-2.465l0.031 0.045c-0.25-0.080-0.92 0.42-0.83 0.63s1.54 2.46 1.54 2.46-0.83 0.75-1 0.66-1.21-2.16-1.37-2.16-0.67 0.58-0.67 0.58 1.54 2 1.37 2.17l-0.75 0.58-1.41-2.12s-0.63 0.25-0.63 0.41 1.46 2.38 1.38 2.5-2.46 2-7.75 2.63-8.63 0.12-11.54-0.84-4.050-1.87-4.090-2c0.37-1.364 0.883-2.557 1.537-3.657l-0.037 0.067z"></path>
</svg>
