<!-- Generated by IcoMoon.io -->
<svg version="1.1" xmlns="http://www.w3.org/2000/svg" width="64" height="64" viewBox="0 0 64 64">
<path fill="#1d1d1b" d="M12.11 9.68c0.82 0.080 3.34 3.080 4.46 4.2s1.38 2 2.67 2.5 1.41 0.55 1.5 0.38c0.094-0.341 0.184-0.778 0.252-1.222l0.008-0.068s-1.46-0.38-1.67-0.92 3-9 3.63-9.33 1.45 0 1.33 0.33-3.92 8.25-3.67 8.54c0.224 0.217 0.485 0.398 0.773 0.533l0.017 0.007s0.67-1 1-1c0.447 0.134 0.837 0.336 1.179 0.597l-0.009-0.007s0.29-0.8 0.79-0.67c0.399 0.173 0.734 0.428 0.996 0.746l0.004 0.004s0.13-0.54 0.55-0.33 3.16 1.75 3.16 1.75c-0.255-0.84-0.402-1.806-0.402-2.806 0-2.783 1.137-5.3 2.971-7.113l0.001-0.001c4.42-4.33 9-3.92 14-1s4.13 7.92 4.090 10-2 4.87-4.25 6.54-3.17 1.66-3.17 1.66 3.42 1 3.38 1.62c-0.369 1.089-0.809 2.028-1.337 2.907l0.037-0.067c1.15 1.13 2.505 2.056 4.004 2.716l0.086 0.034c2.83 1.33 7.58 2.25 8.62 3.41 0.701 0.928 1.123 2.102 1.123 3.374 0 1.029-0.276 1.993-0.758 2.823l0.014-0.027c-1.29 2.58-3.21 2.88-6.42 1.5s-4.29-2.58-6-3.080c-1.18-0.296-2.202-0.666-3.174-1.124l0.104 0.044c-0.75-0.37-1.21-1.79-1.75-1.33-1.446 1.898-2.777 4.042-3.897 6.309l-0.103 0.231c-1.162 2.047-2.395 4.565-3.491 7.156l-0.189 0.505c-0.46 1.33-2.62 6.79-3.67 8.21s-2 3.16-2.91 3.25-5.29-1.88-6-2.34-2-1.33-1.54-2.5 4.16-8.36 5.080-10.62 1.42-3 1.12-3.29-2-0.55-2.25 0-4.4 9.97-5.4 11.67-3.34 2-5.67 1-4.21-2.91-4.46-3.66c-0.129-0.34-0.203-0.734-0.203-1.145s0.074-0.805 0.211-1.168l-0.008 0.023c0.29-0.71 3.54-5.92 4.13-7.34 0.598-1.478 1.31-2.753 2.157-3.923l-0.037 0.053c0.71-0.92 3.13-5.59 4.84-8.59s2-4.16 1.7-4.33c-1.060-0.512-2.291-0.902-3.583-1.11l-0.077-0.010c-1 0-3 0.16-3.59-0.34-1.487-1.986-3.012-4.271-4.419-6.635l-0.201-0.365c-1.25-2-2.29-2.83-1.92-3.91 0.636-1.253 1.684-2.219 2.962-2.736l0.038-0.014c0.765-0.336 1.656-0.532 2.594-0.532 0.228 0 0.453 0.012 0.674 0.034l-0.028-0.002z"></path>
<path fill="#85bfe9" d="M11.53 11.76c0.563 0.191 1.031 0.539 1.365 0.992l0.005 0.008c0.46 0.58 1.71 2 1.34 2.25s-2.090 1.29-2.71 1.79-0.71 1.13-1 0.84-2.5-3.8-2.42-4.38 1.13-1.88 3.42-1.5z"></path>
<path fill="#cbe7f5" d="M14.82 16c0.23 0 1.71 1.92 4.25 2.62 1.96 0.696 4.238 1.198 6.6 1.412l0.11 0.008c2 0 4.67-0.21 5-0.080s0 1.37 3.5 2.54c1.624 0.541 3.502 0.899 5.449 0.998l0.051 0.002c0.17 0.17 2.17 4.71 3.38 5.92s7 3.41 6.79 3.79c-0.406 0.892-0.844 2.039-1.221 3.212l-0.069 0.248c-0.13 0.5 0 0.79-0.38 0.7s-3.79-1.45-4.25-1.66-0.79-0.090-1.33-0.75-1.5-2.54-2.17-2.59c-0.048-0.006-0.104-0.009-0.16-0.009-0.489 0-0.919 0.252-1.167 0.634l-0.003 0.005c-0.21 0.37-2.8 4.080-3.59 5.54s-2.66 6.25-3.16 7-0.71 1.71-0.92 1.58c-0.841-0.599-1.821-1.218-2.834-1.785l-0.166-0.085c-0.37-0.090-2.17-0.54-2.080-0.75s1.33-2.42 0.54-3c-1.277-0.607-2.76-1.087-4.313-1.364l-0.108-0.016c-0.5-0.12-1.87 2.18-1.87 2.18-0.912-0.708-1.946-1.424-3.018-2.083l-0.152-0.087c-1-0.54-2.71-0.87-2.63-1.16s4.34-8 5.42-9.84 2.42-4.29 1.46-4.79c-1.533-0.647-3.336-1.194-5.207-1.552l-0.173-0.028c-0.222 0.034-0.479 0.053-0.74 0.053-0.538 0-1.058-0.081-1.547-0.233l0.037 0.010c-0.45-0.29-3-3.5-2.79-4.080 0.962-1.032 2.11-1.875 3.392-2.481l0.068-0.029z"></path>
<path fill="#f2910d" d="M22.49 14.84c0.3 0 0.46 0 0.37 0.46s-0.37 2-0.54 1.92-0.71-0.090-0.62-0.25c0.248-0.843 0.517-1.549 0.832-2.23l-0.042 0.1z"></path>
<path fill="#f2910d" d="M24.4 14.76s0.71 0.17 0.63 0.33-0.5 2.42-0.71 2.38-0.5 0-0.54-0.17 0.62-2.54 0.62-2.54z"></path>
<path fill="#e7413e" d="M26.11 15.47c0.27-0.21 2.92 1.16 3.17 1.46s0.62 0.83 0.42 0.87-2.13 0.080-2.84 0.13-1.46 0-1.41-0.17c0.15-0.864 0.379-1.633 0.686-2.36l-0.026 0.070z"></path>
<path fill="#85bfe9" d="M37.61 4.84c2.86-0.54 5.92 0.79 8.29 2.5s2.8 5.5 1.84 8.29-3.54 5.5-6.74 5.75-6-0.29-8.34-2.7-1.66-7.55-0.66-9.55c1.085-2.212 3.121-3.814 5.561-4.282l0.049-0.008z"></path>
<path fill="#1d1d1b" d="M35.45 7.22c1.929 1.304 4.139 2.452 6.478 3.337l0.222 0.073c3.71 1.34 5.21 1.75 5.17 2.3s-0.32 5.070-3.92 6.79c-1.112 0.551-2.421 0.874-3.805 0.874-2.276 0-4.348-0.872-5.901-2.3l0.006 0.006c-2.42-2.17-2.050-5.37-0.92-7.79s2.46-3.42 2.67-3.29z"></path>
<path fill="#1f4863" d="M36 9.8c0.44 0.1 2.79 1.38 5.37 2.5s4 1.33 3.92 1.83c-0.449 1.528-1.361 2.802-2.571 3.696l-0.019 0.014c-1.58 1-3.54 1.25-6-0.25s-2.58-3-2.29-4.62 1.16-3.25 1.59-3.17z"></path>
<path fill="#1d1d1b" d="M40.11 13c0.5 0.33 1.71 1.83 1.42 2.12s-0.17 0.67-0.67 0.46c-0.729-0.54-1.297-1.256-1.648-2.087l-0.012-0.033c0.080-0.28 0.91-0.46 0.91-0.46z"></path>
<path fill="#1d1d1b" d="M37.74 13.88c0.12-0.050 2.25 2.67 2 3s-0.79 0.63-0.92 0.54-2.16-2.75-2-3 0.58-0.37 0.92-0.54z"></path>
<path fill="#e7413e" d="M42.45 24c-0.16-0.16 1.87 0.54 1.79 0.92s0 1.29-0.42 1.12-1.29-1.95-1.37-2.040z"></path>
<path fill="#85bfe9" d="M51.24 33.72c0.17-0.080 3.91 1 4.5 1.75s0.29 2.5-0.25 3.46-0.79 1.070-1.42 1.070c-1.601-0.458-2.999-1.082-4.284-1.872l0.074 0.042c-0.25-0.29 1-4.29 1.38-4.45z"></path>
<path fill="#1d1d1b" d="M27.070 23.13c0.32-0.2 9.54 4.21 9.42 4.92s-3 7.54-4 7.88-8.75-3.5-9-4.25 3.12-8.25 3.58-8.55z"></path>
<path fill="#e7413e" d="M27.57 24.68c0.2-0.080 7.63 3.33 7.54 3.7s-3 6.17-3.16 6.17-6.95-3.21-6.95-3.55 2.24-6.2 2.57-6.32z"></path>
<path fill="#1d1d1b" d="M31.050 28c0.31-0.63 1.22-0.87 2.3 0s-0.63 2.83-1.85 2-0.63-1.61-0.45-2z"></path>
<path fill="#1d1d1b" d="M30 31.14c0.26-0.52 1-0.72 1.91 0s-0.52 2.35-1.54 1.62-0.52-1.33-0.37-1.62z"></path>
<path fill="#1d1d1b" d="M35 35.63s0.71 1 0.5 1.38-0.33 0.67-0.54 0.5c-0.298-0.313-0.508-0.712-0.588-1.156l-0.002-0.014c0.080-0.25 0.63-0.71 0.63-0.71z"></path>
<path fill="#1d1d1b" d="M32.9 36.93c0.17 0.12 1.25 1.87 1 2.29s-0.25 0.5-0.45 0.5c-0.612-0.614-1.103-1.349-1.434-2.166l-0.016-0.044c0-0.21 0.9-0.58 0.9-0.58z"></path>
<path fill="#1d1d1b" d="M31.32 38.13c0.25 0.090 1.83 2.34 1.71 2.71-0.124 0.291-0.293 0.54-0.5 0.75l0-0s-2.21-2.66-2-2.91c0.222-0.224 0.484-0.409 0.774-0.543l0.016-0.007z"></path>
<path fill="#1d1d1b" d="M29.86 39.3s2.21 2.88 2 3.33 0 0.55-0.41 0.46-2.59-2.79-2.38-3.090c0.235-0.26 0.494-0.49 0.775-0.69l0.015-0.010z"></path>
<path fill="#85bfe9" d="M14.4 39.93c0.14-0.17 1.38 0.75 1.92 1.12 0.323 0.313 0.735 0.536 1.195 0.627l0.015 0.002c0.475 0.087 0.888 0.308 1.211 0.621l-0.001-0.001c0.37 0.29 1.46 0.71 1.33 0.92s-1.5 3.91-1.79 4.54-0.67 1.29-0.67 1.29-0.12 0.25-0.5-0.25-1.11-1.37-1.46-1.37-0.91 0.5-1.37 0.16-1.17-2.080-1.67-2.21-0.87 0.13-0.87-0.16c0.924-2.124 1.814-3.861 2.794-5.538l-0.134 0.248z"></path>
<path fill="#85bfe9" d="M26.24 45.63c0.799 0.162 1.509 0.44 2.152 0.818l-0.032-0.018c0.88 0.45 1 1 1.71 1.33s1.080 0.21 1.080 0.54-1.5 4.25-1.83 4.29c-0.045 0.001-0.097 0.002-0.15 0.002-0.762 0-1.484-0.17-2.13-0.475l0.030 0.013c-0.42-0.33-0.79-1.16-1.37-1.080-0.225 0.038-0.485 0.060-0.75 0.060s-0.525-0.022-0.777-0.064l0.027 0.004c-0.42-0.080-0.75-0.12-0.63-0.54s2.29-4.79 2.67-4.88z"></path>
<path fill="#1d1d1b" d="M27.24 47.51c0.38 0 0.46 0.37 1 0.46s0.79 0.16 0.7 0.41-0.12 0.67-0.33 0.55c-0.244-0.204-0.535-0.362-0.853-0.456l-0.017-0.004c-0.34 0-0.75-0.090-0.8-0.25 0.013-0.276 0.125-0.524 0.3-0.711l-0 0.001z"></path>
<path fill="#1d1d1b" d="M25.74 49.26c0.33 0 0.46 0.46 1 0.62s0.91 0.090 0.83 0.46 0 0.67-0.29 0.59-0.75-0.46-1.17-0.55-0.66 0.090-0.79-0.29c-0.006-0.038-0.010-0.082-0.010-0.127 0-0.305 0.173-0.57 0.426-0.701l0.004-0.002z"></path>
<path fill="#1d1d1b" d="M16.61 42.43c0.21 0 0 0.29 0.59 0.5s0.91 0.29 0.83 0.5-0.17 0.45-0.42 0.45c-0.378-0.084-0.712-0.212-1.020-0.38l0.020 0.010c-0.42-0.17-0.5-0.21-0.5-0.38 0.106-0.281 0.278-0.517 0.497-0.698l0.003-0.002z"></path>
<path fill="#1d1d1b" d="M14 43.38c0.27-0.26 0.58 0.88 1.25 1.090s1 0.25 1.080 0.46 0.17 0.62-0.12 0.7c-0.087 0.022-0.187 0.034-0.29 0.034-0.324 0-0.619-0.123-0.841-0.325l0.001 0.001c-0.46-0.33-0.79-0.87-1.21-1s-0.58 0-0.54-0.2 0.57-0.63 0.67-0.76z"></path>
<path fill="#cbe7f5" d="M11.28 46.22c0.18-0.18 1.080-0.25 1.25 0.21s0.21 2.12 1.080 2.37 1.17-0.58 1.71-0.17 0.67 0.92 1 1 0.75 0.12 0.71 0.29-1.62 3.12-2.33 3.58-1.38 0.5-3.21-0.46-2.63-1.53-2.49-2.49 2-4.040 2.28-4.33z"></path>
<path fill="#cbe7f5" d="M23 51.63c0.27-0.26 0.25 0.75 1 0.8s1.080-0.17 1.63 0 0.66 0.91 1.54 1.080 1.62 0.33 1.58 0.5-2.75 5.25-3.080 5.21c-1.407-0.418-2.545-0.833-3.654-1.305l0.224 0.085c-1-0.42-1.38-0.92-1.29-1.29 0.685-2.043 1.378-3.722 2.167-5.347l-0.117 0.267z"></path>
</svg>
