<!-- Generated by IcoMoon.io -->
<svg version="1.1" xmlns="http://www.w3.org/2000/svg" width="64" height="64" viewBox="0 0 64 64">
<path fill="#1d1d1b" d="M59 19.15c1.21-4.92-0.46-6.79-5-6.87-3.121 0.055-6.030 0.913-8.544 2.375l0.084-0.045s0.090 0.12-1.29-1.54c-0.923-0.952-2.214-1.543-3.643-1.543-0.066 0-0.132 0.001-0.197 0.004l0.009-0c0-0.005 0-0.010 0-0.016 0-1.419-0.325-2.762-0.904-3.958l0.024 0.054c-1-2.29-7-5-10.91-2.67s-5.58 9.88-5.75 9.84c-9.080-2.38-15.62-0.63-17.37 3.29s1.79 7.21 1.79 7.21c-0.377 0.588-0.601 1.305-0.601 2.075 0 0.921 0.321 1.767 0.857 2.433l-0.006-0.007c1.75 2.41 5 1.7 5 1.7l2.45 2.88s-6.83 7-8.58 10-2.88 7.46 0.2 8.91c0.877 0.378 1.897 0.597 2.969 0.597 1.176 0 2.291-0.264 3.287-0.737l-0.047 0.020s3.54 4 6.79 1.92c1.383-0.84 2.294-2.338 2.294-4.049 0-0.489-0.074-0.961-0.213-1.405l0.009 0.033 1-0.46s1.75 9.46 8 10.71 8.54-10.25 8.54-10.25c2.355 0.833 5.212 1.585 8.146 2.117l0.354 0.053c6.18 1.18 8.39-3.75 7.090-9.82-1.011-3.978-3.168-7.355-6.094-9.858l-0.026-0.022s9.040-8.050 10.28-12.97zM21.25 48.15s-0.88-1.88-3.79-1.38c-1.942 0.402-3.551 1.585-4.513 3.199l-0.017 0.031c-0.29 0.533-0.498 1.154-0.587 1.812l-0.003 0.028s-3.33 1-4.7-0.54-0.46-5.38 1.79-8.55c2.129-2.666 4.393-5.038 6.848-7.196l0.062-0.054c0.891 0.776 1.869 1.544 2.884 2.263l0.116 0.077c1.38 0.91 1.92 1.21 1.92 1.21-0.007 0.259-0.012 0.564-0.012 0.869 0 1.456 0.095 2.89 0.279 4.296l-0.018-0.165c0.33 1.79 0.54 3.62 0.54 3.62zM20.92 34.27c0.12 1.34 0.16 2.25 0.16 2.25s-1.33-0.87-1.83-1.25c-0.372-0.322-0.7-0.676-0.988-1.062l-0.012-0.018c0.757-0.955 1.654-1.759 2.666-2.394l0.044-0.026c-0.061 0.484-0.097 1.044-0.097 1.613 0 0.298 0.010 0.594 0.029 0.887l-0.002-0.040zM21.42 24.15c-0.28 3.54-0.42 4.85-0.42 4.85-1.649 1.157-3.073 2.476-4.301 3.964l-0.029 0.036c-1.093-0.589-1.992-1.41-2.653-2.403l-0.017-0.027s2.33-2.79 1-5.38-3.79-1.83-4.63-1.62c-0.632 0.192-1.183 0.461-1.68 0.803l0.020-0.013s-2.88-3.67-0.5-5.92 6.58-2.91 10.21-2.54 4.080 1 4.080 1c-0.486 2.041-0.878 4.501-1.096 7.011l-0.014 0.199zM41.62 31.9c0.168-0.906 0.289-1.983 0.338-3.079l0.002-0.051c0.995 0.596 1.85 1.203 2.656 1.869l-0.036-0.029c1.17 0.87 1.46 1.16 1.42 1.33-0.967 1.080-1.99 2.061-3.082 2.962l-0.048 0.038c-0.645 0.531-1.364 1.027-2.125 1.46l-0.075 0.040s0.63-2.87 0.92-4.58zM40 21.61l-0.11 3.39-5.34-3.45 1.88-1.25c0.463 0.402 0.999 0.738 1.581 0.985l0.039 0.015c0.578 0.174 1.246 0.285 1.936 0.31l0.014 0zM28.55 7.4c2.090-1.92 5.13-2.17 7.92-0.12s2.21 4.33 2.21 4.33-2.79 1-3.21 3.17c-0.11 0.533-0.173 1.145-0.173 1.772 0 0.759 0.092 1.496 0.266 2.201l-0.013-0.063-2.55 1.46c-1.261-0.916-2.706-1.827-4.209-2.645l-0.211-0.105c-2.25-1.17-3.62-1.71-3.62-1.71s1.51-6.37 3.59-8.29zM23.59 22c0.19-1.588 0.485-3.011 0.887-4.389l-0.047 0.189c1.489 0.507 2.767 1.098 3.97 1.804l-0.1-0.054c1.067 0.469 1.979 1.099 2.75 1.87v0s-2.46 1.67-4.54 3.29-3.51 2.65-3.51 2.65 0.26-2.75 0.59-5.36zM23.8 44.21c-0.037-0.381-0.059-0.823-0.059-1.27s0.021-0.889 0.063-1.326l-0.004 0.056 2.63 1.92c1.080 0.79 1.91 1.37 1.91 1.37s-1.83 0.92-2.75 1.34c-0.315 0.157-0.715 0.325-1.125 0.473l-0.085 0.027s-0.38-1.8-0.58-2.61zM33.64 57.21c-2.46 1.63-4.8 0.71-6.38-2.42-1.032-1.85-1.839-3.995-2.305-6.264l-0.025-0.146c0.774-0.423 1.683-0.819 2.629-1.135l0.121-0.035c0.943-0.391 1.735-0.797 2.491-1.255l-0.081 0.045c1.112 0.928 2.409 1.683 3.82 2.201l0.090 0.029 3.17 1.21s-1.080 6.090-3.53 7.71zM37.64 45.040c-0.25 1.42-0.46 2.17-0.46 2.17l-3-1c-0.798-0.352-1.485-0.798-2.087-1.337l0.008 0.007c1.221-0.624 2.242-1.235 3.22-1.904l-0.099 0.064c1.54-1 2.88-2 2.88-2s-0.17 2.53-0.42 3.96zM38.39 38.5s-7.63 5.63-8 5.46-7.3-5.27-7.39-5.48-0.25-8.62 0-8.87 8.46-6 9.71-6.63c2.789 1.578 5.127 3.096 7.37 4.737l-0.21-0.147c0.020 0.29-1.44 10.87-1.44 10.87zM52.68 42.67c0.67 4.75 1.12 6.54-2.21 7s-11-1.87-11-1.87c0.329-1.492 0.626-3.368 0.821-5.273l0.019-0.227c0.12-2.050 0.25-3.38 0.25-3.38s2.66-1.92 4.24-3.27 2.5-2.21 2.5-2.21 4.75 4.42 5.42 9.17zM47.68 30.67c-1.043-0.915-2.183-1.818-3.369-2.661l-0.131-0.089-2.18-1.52 0.38-5.12c1.016-0.572 1.855-1.346 2.484-2.275l0.016-0.025c0.361-0.728 0.609-1.575 0.698-2.47l0.002-0.030s9-4.45 11.21-1.66-5.37 12.33-6.87 13.79-2.16 2-2.16 2z"></path>
<path fill="#e6e4da" d="M39.3 13.36c1.93-0.64 5 1 4 4.080-0.427 1.369-1.682 2.345-3.166 2.345-1.088 0-2.054-0.525-2.657-1.336l-0.006-0.009c-0.342-0.521-0.546-1.159-0.546-1.845 0-1.51 0.988-2.79 2.352-3.228l0.024-0.007z"></path>
<path fill="#1d1d1b" d="M39.43 14.53c0.1-0.080 0.83 0.41 0.71 0.54s-0.92 0.58-0.71 1.33 1.12 1.29 1.12 1.46-0.41 0.83-0.62 0.75c-0.72-0.524-1.233-1.295-1.416-2.187l-0.004-0.023c-0-0.013-0-0.029-0-0.045 0-0.746 0.359-1.407 0.914-1.821l0.006-0.004z"></path>
<path fill="#1d1d1b" d="M29.55 27.53c2-1 9.62 0 7.090 7.080-2.17 6.080-11 3.75-11 0.21s0.75-5.71 3.91-7.29z"></path>
<path fill="#fab900" d="M30.26 28.9c1.26-0.61 3.21 0.25 4.13 0.88s1 2.87 1 2.87-1.13-1.080-1.3-1-0.5 0.46-0.37 0.58 1.5 1.17 1.5 1.42c-0.111 0.447-0.255 0.837-0.436 1.205l0.016-0.035c-0.633-0.738-1.287-1.407-1.98-2.033l-0.020-0.017c-0.16 0-0.62 0.46-0.62 0.46l2.21 2.29-0.71 0.5s-2.21-2.54-2.33-2.54-0.59 0.17-0.5 0.34c0.734 0.813 1.44 1.697 2.091 2.621l0.059 0.089c-0.167 0.111-0.358 0.209-0.561 0.284l-0.019 0.006s-2.21-2.42-2.34-2.42-0.79 0.33-0.66 0.5 1.8 2.1 1.8 2.1c-1.361-0.133-2.54-0.82-3.322-1.829l-0.008-0.011c-1.21-1.68-0.89-4.68 2.37-6.26z"></path>
<path fill="#1d1d1b" d="M30.59 29.86c0.3 0 0.42 0.79 0.34 0.92-0.512 0.203-0.954 0.455-1.354 0.76l0.014-0.010c-0.5 0.5-0.41 1.54-0.62 1.58-0.035 0.004-0.075 0.006-0.116 0.006-0.253 0-0.487-0.081-0.677-0.218l0.003 0.002c-0-0.008-0-0.019-0-0.029 0-0.733 0.216-1.415 0.589-1.986l-0.009 0.014c0.43-0.572 1.078-0.96 1.819-1.039l0.012-0.001z"></path>
<path fill="#cbe7f5" d="M16.55 48.69c1.3-0.56 2.54-0.21 2.88 1.29 0.059 0.325 0.092 0.699 0.092 1.081 0 0.693-0.111 1.36-0.315 1.984l0.013-0.045c-0.416-0.761-0.856-1.415-1.35-2.025l0.020 0.025c-0.21-0.050-0.71 0.33-0.55 0.5s1.46 1.83 1.34 2-0.71 0.25-0.71 0.25c-0.477-0.927-0.975-1.72-1.532-2.465l0.032 0.045c-0.21 0-0.79 0.080-0.67 0.29 0.382 0.644 0.748 1.398 1.053 2.183l0.037 0.107c-0.13 0-2.050-0.37-2.050-2.080s0.46-2.6 1.71-3.14z"></path>
<path fill="#ffe19b" d="M10.51 25.23c1.45-0.43 2.92 0.59 3 1.55-0.048 0.786-0.276 1.51-0.643 2.143l0.012-0.023s-0.95-2-1.2-2-0.59 0.25-0.5 0.42c0.377 0.546 0.737 1.173 1.045 1.828l0.035 0.082c-0.204 0.152-0.439 0.281-0.691 0.374l-0.019 0.006c-0.306-0.687-0.64-1.275-1.023-1.826l0.023 0.035c-0.17-0.050-0.71 0.16-0.58 0.33 0.285 0.454 0.527 0.978 0.697 1.533l0.012 0.047c-0.822-0.272-1.434-0.964-1.588-1.816l-0.002-0.014c-0.090-1.17 0.17-2.29 1.42-2.67z"></path>
</svg>
