<!-- Generated by IcoMoon.io -->
<svg version="1.1" xmlns="http://www.w3.org/2000/svg" width="64" height="64" viewBox="0 0 64 64">
<path fill="#1d1d1b" d="M18.79 26.51c-0.998-1.521-1.592-3.385-1.592-5.387 0-1.588 0.374-3.090 1.038-4.42l-0.026 0.057c2.62-5.25 9.33-7.55 9.33-7.55-0.225-0.738-0.375-1.592-0.419-2.475l-0.001-0.025c0.17-0.25 2.88-1 3.13-0.66 0.233 0.806 0.397 1.745 0.458 2.711l0.002 0.039 1.29 0.12c0.43 0.052 0.81 0.126 1.18 0.223l-0.060-0.014s-0.62-5.87-0.5-6 4.090-0.58 4.21-0.33 0.17 7.5 0.17 7.5 3.66 1.37 5.5 6.33 0.5 6.79 0.5 6.79l-1.38 1.58s7.38 4.16 9 8.58 2.38 11.51-0.62 16.8-8.5 11.67-20 10.88-16.17-9.55-17.54-14.21-0.3-15.92 6.33-20.54z"></path>
<path fill="#e6e4da" d="M19.87 24.46c-0.352-0.953-0.556-2.055-0.556-3.203 0-1.887 0.55-3.646 1.499-5.124l-0.023 0.038c2.67-3.91 6-5.5 10.87-5.41s7.63 2.7 8.63 5.54 1.5 6 1.25 6.21-0.88-0.17-2.13-0.71c-0.7-0.318-1.595-0.657-2.512-0.948l-0.188-0.052s1.95-1.71 0.29-3.5-4.63-0.38-5 0.87 0.83 2.59 0.83 2.59c-0.562-0.075-1.212-0.118-1.872-0.118-2.044 0-3.992 0.411-5.767 1.154l0.098-0.037c-2.090 0.817-3.875 1.724-5.556 2.78l0.136-0.080z"></path>
<path fill="#fff" d="M34.29 17.63c0.167-0.063 0.359-0.099 0.561-0.099 0.9 0 1.63 0.73 1.63 1.63 0 0.092-0.008 0.181-0.022 0.269l0.001-0.009c-0.34 1.090-2.34 0.88-2.67 0.29-0.186-0.23-0.299-0.525-0.299-0.848 0-0.546 0.324-1.016 0.791-1.229l0.008-0.003z"></path>
<path fill="#1d1d1b" d="M28.12 12.050c2-0.48 4 0.79 4.21 2.54 0 0.010 0 0.022 0 0.034 0 1.867-1.513 3.38-3.38 3.38-0.594 0-1.152-0.153-1.637-0.422l0.017 0.009c-3.040-1.59-1.17-5.080 0.79-5.54z"></path>
<path fill="#1d1d1b" d="M34.9 18.27c0.066-0.024 0.143-0.038 0.223-0.038 0.376 0 0.68 0.304 0.68 0.68s-0.304 0.68-0.68 0.68c-0.152 0-0.292-0.050-0.405-0.134l0.002 0.001c-0.64-0.34-0.24-1.090 0.18-1.19z"></path>
<path fill="#ffe19b" d="M28.55 8.84s-0.41-1.22-0.25-1.31 1.090-0.5 1.16-0.28 0.34 1.59 0.18 1.59z"></path>
<path fill="#ffe19b" d="M34 3.84c0.12-0.12 1.75-0.38 1.75-0.090s0.18 6.090 0 6c-0.584-0.132-1.065-0.273-1.535-0.439l0.095 0.029c-0.040-0.13-0.42-5.44-0.31-5.5z"></path>
<path fill="#1d1d1b" d="M23.21 18c-0.138-0.695-0.218-1.495-0.218-2.313 0-0.154 0.003-0.306 0.008-0.459l-0.001 0.022c0.18-0.13 0.5-0.35 0.53-0.1s0.56 2.56 0.5 2.78-0.82 0.070-0.82 0.070z"></path>
<path fill="#1d1d1b" d="M20 20.87c0.576-0.581 1.234-1.080 1.956-1.478l0.044-0.022c0.557-0.312 1.218-0.505 1.923-0.53l0.007-0c0.375 0.762 0.64 1.648 0.747 2.583l0.003 0.037c-0.256 0.125-0.555 0.234-0.867 0.313l-0.033 0.007s-0.53-1.94-0.75-1.85c-0.923 0.475-1.681 0.923-2.414 1.408l0.094-0.058c-0.163 0.14-0.347 0.263-0.544 0.363l-0.015 0.007s-0.15-0.75-0.15-0.78z"></path>
<path fill="#1d1d1b" d="M34.050 13.060c0.855 0.029 1.669 0.14 2.454 0.327l-0.084-0.017c1.19 0.25 1.6 0.53 1.66 0.69s0.19 0.47 0.060 0.56-1.37-0.37-2.28-0.53-1.44-0.060-1.53-0.16-0.41-0.84-0.28-0.87z"></path>
<path fill="#1d1d1b" d="M38.64 17.9c0.68 0.049 1.309 0.217 1.883 0.484l-0.033-0.014c0.090 0.19 0.28 0.81 0.15 0.81-0.687-0.085-1.309-0.236-1.901-0.449l0.061 0.019c-0.16-0.16-0.16-0.85-0.16-0.85z"></path>
<path fill="#1d1d1b" d="M38.92 19.53c0.68 0.049 1.309 0.217 1.883 0.484l-0.033-0.014c0.090 0.18 0.28 0.81 0.15 0.81-0.685-0.083-1.307-0.238-1.896-0.459l0.056 0.018c-0.16-0.16-0.16-0.84-0.16-0.84z"></path>
<path fill="#fff" d="M37.77 25.62c1.478 0.241 2.803 0.724 3.997 1.41l-0.057-0.030c2.15 1.15 2.59 2.18 2.59 2.18-0.276 0.045-0.594 0.071-0.918 0.071-1.217 0-2.349-0.362-3.295-0.985l0.023 0.014c-1.054-0.602-1.87-1.52-2.327-2.624l-0.013-0.036z"></path>
<path fill="#fab900" d="M34.8 25.21c0.521 0.043 1.001 0.132 1.463 0.263l-0.053-0.013c0.717 1.883 2.148 3.356 3.953 4.112l0.047 0.018c1.277 0.529 2.761 0.837 4.316 0.837 0.403 0 0.801-0.021 1.193-0.061l-0.049 0.004c0.25 0.090 1.85 1.66 1.66 1.72s-4.87 1.19-8.28-1-4.41-4.78-4.25-5.88z"></path>
<path fill="#e6e4da" d="M32.52 24.9c0.18 0 0.25 5.53 5.69 7.6 2.244 0.845 4.838 1.335 7.546 1.335 0.918 0 1.822-0.056 2.71-0.165l-0.106 0.011c0.415 0.806 0.723 1.742 0.874 2.729l0.006 0.051c-0.1 0.16-1.5 0.16-1.57 0.94s0.47 1.53 0.85 1.5c0.437-0.084 0.823-0.202 1.19-0.355l-0.040 0.015 0.16 1.22c-0.282-0.034-0.609-0.053-0.94-0.053-2.721 0-5.138 1.3-6.665 3.312l-0.015 0.021c-1.923 2.578-3.496 5.563-4.566 8.777l-0.064 0.223c-0.106 0.397-0.204 0.895-0.273 1.403l-0.008 0.067s-1-1.69-1.25-1.6-0.75 0.19-0.59 0.41l2 2.88c0.043 0.548 0.117 1.047 0.224 1.534l-0.014-0.074c0.13 0.41 0.5 1.32 0.5 1.32s-3.090-4.66-3.31-4.57-0.59 0.44-0.56 0.6 3.22 4.28 3.060 4.4c-0.206 0.129-0.443 0.247-0.692 0.341l-0.028 0.009s-2.64-3.32-2.81-3.32-0.53 0.38-0.5 0.47c0.86 0.929 1.689 1.929 2.462 2.974l0.068 0.096c-0.19 0.060-1.59 0.12-1.59 0.12-0.625-0.721-1.279-1.375-1.976-1.98l-0.024-0.020c-0.19 0-0.66 0.53-0.56 0.69s1.4 1.31 1.22 1.41c-0.409 0.044-0.883 0.069-1.363 0.069-0.171 0-0.341-0.003-0.511-0.009l0.024 0.001s-0.19-0.78-0.47-0.81c-0.045-0.003-0.099-0.004-0.152-0.004-0.212 0-0.418 0.023-0.617 0.068l0.019-0.004s0 0.72-0.090 0.72c-0.077 0.002-0.167 0.003-0.257 0.003-1.754 0-3.416-0.396-4.902-1.102l0.069 0.030c-1.198-0.52-2.218-1.235-3.067-2.117l-0.003-0.003s1.57-0.75 1.19-1.59-1-1.19-1.56-1.070-1 1.72-1 1.72c-1.173-0.814-2.166-1.788-2.976-2.904l-0.024-0.035c-0.676-0.806-1.244-1.734-1.664-2.739l-0.026-0.071c0.298-0.049 0.557-0.193 0.749-0.399l0.001-0.001c0.209-0.199 0.378-0.438 0.495-0.706l0.005-0.014c1.323 1.85 3.253 3.191 5.495 3.737l0.065 0.013c4 1.18 7.31 0.87 10.19-1.16s5.66-7.060 4.62-11.5c-0.945-3.657-3.737-6.492-7.297-7.483l-0.073-0.017c-0.605-0.085-1.304-0.134-2.014-0.134-2.752 0-5.334 0.733-7.56 2.013l0.074-0.039c-1.485 1.177-2.755 2.539-3.799 4.067l-0.041 0.063c-0.569-0.142-1.059-0.313-1.528-0.523l0.058 0.023c-0.1-0.090 0.78-5.28 2.9-7.38s7.11-6.5 14.63-5.030z"></path>
<path fill="#e6e4da" d="M14.21 39.43c0.027 0.245 0.216 0.438 0.457 0.47l0.003 0c0.021 0.001 0.046 0.001 0.072 0.001 0.342 0 0.662-0.093 0.937-0.256l-0.008 0.005c-0.3 0.918-0.472 1.974-0.472 3.071 0 0.327 0.015 0.651 0.045 0.97l-0.003-0.041c0.229 1.281 0.541 2.406 0.945 3.487l-0.045-0.137c-0.124-0.053-0.268-0.084-0.42-0.084s-0.296 0.031-0.427 0.087l0.007-0.003c-0.258 0.173-0.477 0.382-0.655 0.623l-0.005 0.007c-0.407-1.203-0.686-2.597-0.778-4.042l-0.002-0.048c0-1.76 0.030-3.54 0.35-4.11z"></path>
<path fill="#fab900" d="M25.86 33.31c4-0.55 8.69 0.84 9.44 7 0.065 0.413 0.103 0.89 0.103 1.376 0 4.201-2.795 7.75-6.627 8.888l-0.066 0.017c-3 0.88-8.6 0.060-10.54-4.31-0.44-1.054-0.696-2.278-0.696-3.562 0-4.848 3.643-8.845 8.341-9.403l0.045-0.004z"></path>
<path fill="#1d1d1b" d="M24.67 37.060c0-0.1-0.56-0.94-0.21-1.25 0.782-0.512 1.74-0.817 2.768-0.817 0.773 0 1.506 0.172 2.163 0.48l-0.031-0.013c2.66 1 2.85 2.69 2.75 2.79s-1.060 1.25-1.060 1.25l0.72 1.21s2-0.25 2.090 0c0.099 0.43 0.156 0.924 0.156 1.432 0 1.456-0.467 2.802-1.259 3.898l0.013-0.020c-1.72 2.22-3.31 2.56-3.44 2.44s-0.91-1.79-0.91-1.79l-1.12 0.47c0.147 0.494 0.29 1.121 0.396 1.761l0.014 0.099c-0.668 0.571-1.541 0.919-2.496 0.919-0.509 0-0.995-0.099-1.44-0.278l0.026 0.009c-1.764-0.759-3.161-2.094-3.98-3.764l-0.020-0.046c-0.13-0.44 1.19-1 1.19-1.16-0.102-0.426-0.212-0.78-0.341-1.124l0.021 0.064s-1.5 0.25-1.53 0.1c-0.206-0.498-0.325-1.077-0.325-1.683 0-1.069 0.371-2.052 0.992-2.826l-0.007 0.009c1.69-2.47 3.25-2.88 3.34-2.72 0.153 0.432 0.312 0.792 0.493 1.138l-0.023-0.048c0.1 0.090 1.060-0.53 1.060-0.53z"></path>
<path fill="#fff" d="M22.36 37.81s0.66 1.060 0.85 1.090c0.992-0.234 1.866-0.578 2.673-1.027l-0.053 0.027c0.001-0.045 0.002-0.099 0.002-0.152 0-0.532-0.070-1.048-0.201-1.539l0.009 0.041c0.449-0.22 0.977-0.348 1.535-0.348s1.086 0.128 1.556 0.357l-0.021-0.009c1.75 0.78 1.87 1.56 1.87 1.56s-1 1.37-0.91 1.5 1.5 2.41 1.5 2.41c0.029-0 0.064-0 0.098-0 0.607 0 1.204 0.044 1.788 0.128l-0.067-0.008c0.001 0.027 0.001 0.059 0.001 0.092 0 1.173-0.375 2.259-1.012 3.144l0.011-0.016c-0.525 0.874-1.244 1.581-2.102 2.075l-0.028 0.015s-0.78-1.5-1-1.5-2.59 0.75-2.59 1.1 0.28 2.060 0.28 2.060c-0.331 0.122-0.713 0.192-1.111 0.192-0.964 0-1.832-0.412-2.437-1.070l-0.002-0.002c-1.85-1.68-2.1-1.9-1.85-2s1.19-0.75 1.19-1c-0.183-0.834-0.397-1.543-0.656-2.229l0.036 0.109c-0.070-0.1-1.85 0-1.88-0.1 0.128-1.008 0.409-1.922 0.823-2.761l-0.023 0.051c0.53-0.94 1.25-2 1.72-2.19z"></path>
<path fill="#1d1d1b" d="M25.36 39.71c0.39-0.238 0.862-0.378 1.367-0.378 1.469 0 2.66 1.191 2.66 2.66 0 0.133-0.010 0.264-0.029 0.393l0.002-0.014c-0.090 2.63-4.66 3.5-5.25 1s0.38-3.19 1.25-3.66z"></path>
<path fill="#fab900" d="M25.88 40.71c0.225-0.134 0.495-0.213 0.785-0.213 0.856 0 1.55 0.694 1.55 1.55 0 0.075-0.005 0.149-0.016 0.222l0.001-0.008c-0.050 1.54-2.72 2.050-3.070 0.57s0.24-1.83 0.75-2.12z"></path>
<path fill="#fab900" d="M21.58 54.4c0.2-0.1 0.44 0.28 0.25 0.47s-0.25 0.22-0.41 0.13-0.030-0.5 0.16-0.6z"></path>
<path fill="#1d1d1b" d="M29.24 54.71c0.249-0.246 0.591-0.397 0.969-0.397 0.577 0 1.072 0.355 1.278 0.858l0.003 0.009c0.068 0.155 0.108 0.337 0.108 0.527 0 0.74-0.6 1.34-1.34 1.34-0.198 0-0.387-0.043-0.556-0.121l0.008 0.003c-1.41-0.5-0.91-1.62-0.47-2.22z"></path>
<path fill="#fab900" d="M29.81 55.29c0.099-0.095 0.233-0.153 0.381-0.153 0.229 0 0.425 0.14 0.508 0.339l0.001 0.004c0.027 0.062 0.043 0.134 0.043 0.209 0 0.293-0.237 0.53-0.53 0.53-0.081 0-0.158-0.018-0.226-0.051l0.003 0.001c-0.55-0.17-0.36-0.64-0.18-0.88z"></path>
<path fill="#1d1d1b" d="M38.74 37.53c0.249-0.255 0.596-0.412 0.98-0.412 0.581 0 1.078 0.362 1.277 0.873l0.003 0.009c0.068 0.155 0.108 0.337 0.108 0.527 0 0.74-0.6 1.34-1.34 1.34-0.199 0-0.387-0.043-0.556-0.121l0.008 0.003c-1.42-0.5-0.92-1.63-0.48-2.22z"></path>
<path fill="#1d1d1b" d="M21 29.34c0.249-0.246 0.591-0.397 0.969-0.397 0.577 0 1.072 0.355 1.278 0.858l0.003 0.009c0.068 0.155 0.108 0.337 0.108 0.527 0 0.74-0.6 1.34-1.34 1.34-0.198 0-0.387-0.043-0.556-0.121l0.008 0.003c-1.39-0.5-0.89-1.63-0.47-2.22z"></path>
<path fill="#1d1d1b" d="M30.42 28.74c0.192-0.192 0.457-0.311 0.75-0.311 0.449 0 0.833 0.279 0.987 0.674l0.002 0.007c0.080 0.141 0.127 0.309 0.127 0.488 0 0.552-0.448 1-1 1-0.187 0-0.362-0.051-0.512-0.141l0.005 0.003c-1.090-0.39-0.7-1.26-0.36-1.72z"></path>
<path fill="#1d1d1b" d="M38.26 33.9c0.194-0.193 0.461-0.313 0.756-0.313 0.448 0 0.832 0.275 0.991 0.666l0.003 0.007c0.085 0.144 0.136 0.318 0.136 0.503 0 0.552-0.448 1-1 1-0.191 0-0.369-0.053-0.52-0.146l0.004 0.002c-1.090-0.39-0.71-1.26-0.37-1.72z"></path>
<path fill="#1d1d1b" d="M36.26 48.12c0.194-0.193 0.461-0.313 0.756-0.313 0.448 0 0.832 0.275 0.991 0.666l0.003 0.007c0.085 0.144 0.136 0.318 0.136 0.503 0 0.552-0.448 1-1 1-0.191 0-0.369-0.053-0.52-0.146l0.004 0.002c-1.090-0.39-0.71-1.26-0.37-1.72z"></path>
<path fill="#fab900" d="M39.31 38.1c0.099-0.095 0.233-0.153 0.38-0.153 0.229 0 0.425 0.14 0.508 0.339l0.001 0.004c0.027 0.062 0.043 0.134 0.043 0.209 0 0.293-0.237 0.53-0.53 0.53-0.081 0-0.158-0.018-0.226-0.051l0.003 0.001c-0.55-0.19-0.36-0.64-0.18-0.88z"></path>
<path fill="#1d1d1b" d="M43.89 37.84c0.77-0.34 1.56 0.5 1.29 1.45s-1.53 1.71-2.18 0.6 0.25-1.77 0.89-2.050z"></path>
<path fill="#fab900" d="M44 38.59c0.3-0.14 0.62 0.2 0.51 0.57s-0.6 0.67-0.88 0.24 0.080-0.7 0.37-0.81z"></path>
<path fill="#1d1d1b" d="M47.060 34.72c0.278 0.196 0.458 0.516 0.458 0.878 0 0.491-0.33 0.904-0.781 1.030l-0.008 0.002c-0.91 0.38-2.27-0.14-1.86-1.35s1.57-0.88 2.19-0.56z"></path>
<path fill="#fab900" d="M46.52 35.24c0.29 0.15 0.23 0.6-0.13 0.76s-0.9-0.060-0.74-0.54 0.62-0.35 0.87-0.22z"></path>
<path fill="#fab900" d="M40.24 57c-0.406-1.084-0.64-2.337-0.64-3.644 0-1.844 0.467-3.578 1.288-5.092l-0.028 0.056c1.432-2.912 3.74-5.21 6.576-6.593l0.084-0.037c0.694-0.145 1.508-0.245 2.34-0.279l0.030-0.001-0.060 1.16c-2.225 0.151-4.126 1.407-5.173 3.219l-0.017 0.031c-1.423 1.985-2.373 4.401-2.635 7.019l-0.005 0.061c0 1 0.5 3.060 0.31 3.19-0.584 0.328-1.267 0.636-1.979 0.883l-0.091 0.027z"></path>
<path fill="#fff" d="M43.61 55c-0.19-0.694-0.299-1.491-0.299-2.314 0-1.772 0.506-3.426 1.381-4.825l-0.022 0.038c0.901-1.477 2.009-2.729 3.301-3.758l0.029-0.022c0.496-0.288 1.073-0.504 1.687-0.615l0.033-0.005c-0.062 1.173-0.219 2.273-0.465 3.339l0.025-0.129c-0.118 0.581-0.326 1.097-0.612 1.56l0.012-0.020s-1.68-1.94-1.9-1.88-0.6 0.5-0.47 0.69 2 1.62 1.91 1.84-0.41 1.060-0.5 1-1.57-1.62-1.79-1.59-0.68 0.41-0.56 0.59 2.13 1.63 1.88 2l-0.38 0.53c-0.542-0.63-1.125-1.193-1.754-1.7l-0.026-0.020c-0.231 0.215-0.383 0.513-0.41 0.845l-0 0.005c0.070 0.15 1.57 1.53 1.47 1.65s-0.22 0.47-0.34 0.44-1.090-1.060-1.22-1-0.47 0.75-0.31 0.91 0.87 0.66 0.87 0.81c-0.472 0.602-0.977 1.135-1.527 1.619l-0.013 0.011z"></path>
<path fill="#fff" d="M28.43 13.060c0.184-0.056 0.396-0.088 0.615-0.088 1.058 0 1.942 0.747 2.153 1.743l0.003 0.014c0.001 0.020 0.001 0.043 0.001 0.067 0 1.226-0.994 2.22-2.22 2.22-0.401 0-0.777-0.106-1.102-0.292l0.011 0.006c-1.98-1.070-0.74-3.37 0.54-3.67z"></path>
</svg>
