<!-- Generated by IcoMoon.io -->
<svg version="1.1" xmlns="http://www.w3.org/2000/svg" width="64" height="64" viewBox="0 0 64 64">
<path fill="#1d1d1b" d="M59.050 38.69c-0.71-3.37-3.34-3.15-4-3.060-0.582 0.091-1.088 0.21-1.58 0.361l0.080-0.021s-17.75-7.25-17.84-7.37c0.041-0.195 0.064-0.42 0.064-0.65 0-1.271-0.711-2.377-1.756-2.941l-0.018-0.009c-0.416-0.233-0.913-0.37-1.443-0.37-0.942 0-1.783 0.434-2.333 1.114l-0.004 0.006-6.22-3.75c0.23-0.461 0.365-1.005 0.365-1.58s-0.135-1.119-0.375-1.601l0.009 0.021c-0.519-0.848-1.44-1.405-2.491-1.405-0.134 0-0.265 0.009-0.395 0.026l0.015-0.002c-0.298 0.056-0.559 0.132-0.81 0.23l0.030-0.010-1.22-3.93s1.31-2.19 0.090-3.75-3.44-0.79-3.84-0.38c-0.352 0.478-0.649 1.026-0.865 1.614l-0.015 0.046-4.15-0.070c-0.289-1.030-1.22-1.773-2.324-1.773-0.044 0-0.088 0.001-0.132 0.004l0.006-0c-1.676 0.025-3.026 1.39-3.026 3.070 0 0.31 0.046 0.61 0.132 0.892l-0.006-0.022c0.69 1.91 3.78 2.31 4.72 1.090 0.501-0.521 0.819-1.221 0.85-1.994l0-0.006s3.71 0 3.68 0.1c-0.001 0.023-0.002 0.049-0.002 0.076 0 0.712 0.402 1.33 0.991 1.639l0.010 0.005c0.37 0.176 0.804 0.278 1.262 0.278 0.31 0 0.608-0.047 0.889-0.134l-0.021 0.006 1.78 4.1c-0.303 0.439-0.484 0.982-0.484 1.568 0 0.622 0.204 1.196 0.549 1.66l-0.005-0.007c0.694 0.788 1.706 1.283 2.833 1.283 0.2 0 0.396-0.016 0.588-0.046l-0.021 0.003 6.56 4.6c-0.055 0.158-0.087 0.34-0.087 0.53 0 0.378 0.127 0.726 0.34 1.004l-0.003-0.004c0.275 0.444 0.672 0.789 1.144 0.994l0.016 0.006-0.59 8.47s-2.87 0.69-1.91 3.28c0.292 1.152 1.32 1.991 2.543 1.991 0.23 0 0.453-0.030 0.665-0.085l-0.018 0.004s12.5 8.5 12.53 8.59c0.204 1.301 1.252 2.305 2.558 2.439l0.012 0.001c0.197 0.052 0.422 0.082 0.655 0.082 1.302 0 2.386-0.932 2.622-2.165l0.003-0.017c-0.069-0.599-0.168-1.129-0.298-1.646l0.018 0.086 6.4-8.81s3.99-0.28 3.27-3.66zM48.37 50.13c-0.383-0.292-0.868-0.468-1.394-0.468-0.183 0-0.361 0.021-0.531 0.061l0.016-0.003c-0.534 0.197-0.986 0.409-1.416 0.654l0.046-0.024-11.94-7.13s1.5-1.53 0.56-3c-0.423-0.788-1.128-1.378-1.976-1.644l-0.024-0.006s0.19-7.63 0.25-7.63c0.2 0.055 0.431 0.087 0.668 0.087 0.427 0 0.83-0.102 1.187-0.284l-0.015 0.007c1.1-0.46 1.2-0.75 1.2-0.75s8.6 4.15 12 5.53 5.91 2.31 5.91 2.31c-0.073 0.212-0.116 0.455-0.116 0.709 0 0.51 0.171 0.98 0.46 1.356l-0.004-0.005c0.361 0.649 0.833 1.191 1.397 1.621l0.013 0.009z"></path>
<path fill="#cbe7f5" d="M6.8 11c0.267-0.19 0.6-0.304 0.96-0.304 0.917 0 1.661 0.738 1.67 1.653v0.001c0.12 1.59-1.31 2.060-2.47 1.25-0.447-0.293-0.739-0.792-0.739-1.359 0-0.497 0.224-0.942 0.576-1.239l0.002-0.002z"></path>
<path fill="#ffe19b" d="M15.9 10.47c0.267-0.191 0.6-0.306 0.96-0.306 0.915 0 1.658 0.741 1.66 1.655v0c0.13 1.59-1.31 2.060-2.47 1.25-0.444-0.294-0.733-0.791-0.733-1.355 0-0.499 0.226-0.945 0.58-1.242l0.002-0.002z"></path>
<path fill="#ffe19b" d="M20.55 18.94c0.267-0.19 0.6-0.304 0.96-0.304 0.917 0 1.661 0.738 1.67 1.653v0.001c0.12 1.59-1.31 2.060-2.47 1.25-0.447-0.293-0.738-0.792-0.738-1.359 0-0.497 0.224-0.942 0.576-1.239l0.002-0.002z"></path>
<path fill="#ffe19b" d="M31.3 26.35c0.329-0.246 0.743-0.395 1.193-0.395 1.068 0 1.94 0.836 1.997 1.89l0 0.005c0.13 1.59-2 2.19-3.19 1.37-0.421-0.34-0.688-0.856-0.688-1.435s0.267-1.095 0.685-1.432l0.003-0.003z"></path>
<path fill="#cbe7f5" d="M56.59 37c0.767 0.292 1.302 1.020 1.302 1.874 0 0.661-0.321 1.248-0.816 1.612l-0.006 0.004c-1.27 1-2.94-0.51-2.89-1.92 0.093-0.937 0.877-1.663 1.831-1.663 0.207 0 0.406 0.034 0.591 0.097l-0.013-0.004z"></path>
<path fill="#cbe7f5" d="M29.84 40c0.282-0.202 0.635-0.322 1.015-0.322 0.924 0 1.681 0.711 1.754 1.616l0 0.006c0.11 1.39-1.76 1.9-2.77 1.2-0.368-0.296-0.601-0.746-0.601-1.25s0.233-0.954 0.598-1.248l0.003-0.002z"></path>
<path fill="#ffe19b" d="M45.69 51.070c0.282-0.202 0.635-0.322 1.015-0.322 0.924 0 1.681 0.711 1.754 1.616l0 0.006c0.1 1.39-1.77 1.9-2.77 1.2-0.371-0.294-0.607-0.744-0.607-1.25s0.236-0.956 0.604-1.247l0.003-0.003z"></path>
</svg>
