<!-- Generated by IcoMoon.io -->
<svg version="1.1" xmlns="http://www.w3.org/2000/svg" width="64" height="64" viewBox="0 0 64 64">
<path fill="#1d1d1b" d="M11 8.060s0 1.5 0.25 1.54 0.83-1.17 0.83-1.17 1.46 1.21 1.71 0.92-0.5-1.67-0.46-1.88 0.46-0.83 0.21-1.25-0.87 0.090-0.87 0.090-0.79-2-1.090-2-0.17 1.92-0.29 2-2 0.41-2 0.62 1.71 1.13 1.71 1.13zM37.82 53.85c-4-2.29-5.25-7.42-5.080-7.58s1.25 0.83 3.62 1.41c1.651 0.361 3.547 0.567 5.491 0.567 2.97 0 5.827-0.482 8.498-1.372l-0.19 0.055c5.5-1.91 9.12-6.54 9.29-7.12s0.25-2.17-0.29-2.34-4.16 0.96-7.16 1.090-5.25-0.42-5.21-0.63c1.475-0.852 2.738-1.876 3.818-3.067l0.012-0.013c2.5-2.67 3.55-5.46 4-11.38s-0.62-10.47-1.38-11.33-2.17-0.080-2.42 0.38c-0.541 2.712-1.449 5.122-2.684 7.325l0.064-0.125c-1.438 2.168-3.595 3.759-6.125 4.443l-0.075 0.017c-0.054-2.864-0.708-5.562-1.841-7.992l0.051 0.122c-2-4.63-6.84-8.090-13.13-9.13s-9.91 0.44-10.12 0.5c-0.92 0.25-0.55 1.29-0.34 1.71s0.5 0.17 1 0.17 0.75-0.34 4 0.62 5 7.38 5 7.38c-0.068-0-0.149-0.001-0.229-0.001-1.813 0-3.597 0.12-5.346 0.353l0.205-0.022c-3.967 0.572-7.531 1.923-10.662 3.896l0.112-0.066c-5.12 3.13-6.5 10.42-6.5 10.8s1.21 1 1.46 1.080 0.5-0.58 2.59-2.75c1.411-1.32 3.313-2.13 5.404-2.13 0.002 0 0.004 0 0.006 0h1.040c-1.134 1.007-2.148 2.1-3.049 3.284l-0.041 0.056c-1.86 3.094-3.074 6.773-3.365 10.709l-0.005 0.081c-0.17 4.46 3.42 8.62 3.67 8.83s1.080 0 1.29-0.29 0.080-1.12 0-1.83c-0.001-0.038-0.001-0.084-0.001-0.129 0-1.967 0.622-3.789 1.68-5.279l-0.019 0.028c1.256-1.302 2.771-2.345 4.462-3.048l0.088-0.032c-0.009 0.235-0.015 0.511-0.015 0.788 0 2.247 0.353 4.411 1.006 6.441l-0.041-0.149c1.13 2.82 4.42 7.29 10.84 9.82s12 0.8 12.62 0.38c0.461-0.264 0.767-0.754 0.767-1.315 0-0.080-0.006-0.158-0.018-0.234l0.001 0.008c-0.12-0.49-2.75-0.7-6.75-2.99zM41.41 10.85c1.66 2.38 1.7 6.54 1.75 6.83s0.29 0.25 0.62 0.090 0.5-2.5-0.75-5.92c-0.908-2.349-2.502-4.265-4.534-5.553l-0.046-0.027c-0.335 0.094-0.628 0.234-0.889 0.416l0.010-0.006c1.421 1.258 2.683 2.637 3.789 4.138l0.051 0.072zM49.7 7.85c0.21 0 0 2.17 0.37 2.29s0.93-1.14 1.090-1.29 1 0.17 1 0.17l0.16-1.3s0.42-0.54 0.38-0.79-1-0.29-1.17-0.25-0.87-1.68-1.33-1.62-0.38 1.46-0.46 1.62-1.57-0.13-1.63 0.13c-0.11 0.58 1.38 1.040 1.59 1.040zM54.2 32.85l0.5 0.75c0.64-0.546 1.214-1.132 1.731-1.766l0.019-0.024c0.938-1.165 1.665-2.544 2.1-4.047l0.020-0.083c0.090-0.17-0.76-0.53-0.91-0.46-0.42 0.21-0.92 1.67-1.38 3-0.505 1.034-1.208 1.9-2.065 2.578l-0.015 0.012zM53.61 52.35c-0.12-0.25-4 0.29-6.5 0s-4.76-1.6-4.91-1.5c-0.313 0.234-0.514 0.604-0.514 1.021 0 0.067 0.005 0.132 0.015 0.197l-0.001-0.007c0.080 0.58 2.16 0.83 4.91 1.29 1.052 0.165 2.265 0.259 3.5 0.259s2.448-0.094 3.632-0.276l-0.132 0.017c0.072-0.153 0.113-0.331 0.113-0.52s-0.042-0.367-0.117-0.528l0.003 0.008zM52.82 55.51c-2 0.67-2.33 2.8-1.12 3.63s3.91 0.5 4-1.5c0.007-0.063 0.010-0.136 0.010-0.21 0-1.165-0.945-2.11-2.11-2.11-0.281 0-0.549 0.055-0.795 0.155l0.014-0.005zM59.7 51.18c0.116-0.103 0.188-0.252 0.188-0.419 0-0.125-0.041-0.24-0.109-0.333l0.001 0.002c-0.241-0.161-0.538-0.257-0.857-0.257-0.050 0-0.1 0.002-0.149 0.007l0.006-0.001c-0.21 0-0.58-1.42-1-1.46s-0.58 1.59-0.63 1.84-1.15-0.11-1.15 0.080c0 0.54 1.16 0.88 1.16 0.88s-0.37 1.33-0.12 1.62 1-0.46 1-0.46 0.58 0.34 0.92 0.17-0.38-1.29-0.38-1.42 0.91-0.16 1.12-0.29zM9.45 55.31c-0.42 0-0.63 1.33-0.71 1.54l-1.74 0.46c-0.010 0.055-0.015 0.118-0.015 0.182 0 0.227 0.069 0.437 0.188 0.612l-0.002-0.004c0.25 0.25 1.21 0.21 1.21 0.21s0 1.29 0.29 1.41 1-0.7 1.16-0.87 1.34 0.37 1.46 0.17-0.29-0.92-0.25-1.13 0.67-0.58 0.63-0.75-1.17-0.17-1.34-0.21-0.47-1.58-0.88-1.62zM18.45 54.1c-2.17-3.5-0.33-7.13-0.29-7.33s-0.53-0.45-0.67-0.3c-1.17 1.3-1.58 4.5-0.58 7s4.25 6 4.62 5.92 0.75-0.33 0.63-0.75-1.5-1.040-3.67-4.54zM8.45 15.1c0.33 0.080 1.54-0.67 4.080-1.21 0.444-0.081 0.955-0.127 1.477-0.127 1.245 0 2.429 0.264 3.498 0.739l-0.055-0.022c0.142-0.199 0.233-0.442 0.25-0.706l0-0.004c0-0.38-2.42-1.5-5.17-1.17s-4.65 1.4-4.53 1.5 0.16 0.96 0.49 1.040z"></path>
<path fill="#1f4863" d="M23 8.72c0.25-0.080 8.75 0 12.63 4.42s4.37 10.38 4.44 11.17 0 1.66 0.38 1.79 2.41 0 5-1.67c1.768-1.062 3.203-2.51 4.219-4.234l0.031-0.056c1.080-1.62 2.25-4.75 2.62-4.83s1.68 6.16-0.32 12.69-5.59 8.72-6.68 9-1.58 0.16-1.79 0.45 0.33 1.34 0.58 1.42-0.080 0.92 4.88 1 7.83-0.62 7.92-0.37-2 3.71-6 5.16-9 2-11.090 1.67c-2.524-0.528-4.725-1.217-6.83-2.092l0.25 0.092c-0.67-0.33-1.33-0.71-1.75-0.46s-1.37 3.38 0.79 6.59c1.846 2.458 4.007 4.551 6.45 6.27l0.090 0.060c0.67 0.46 1.090 0.54 0.92 0.71s-6.54 0.18-10.74-2.5-7.13-8.17-7.5-9.46-0.5-5.070-0.64-5.54-1.33-0.8-2-0.46-4.41 1.93-5.86 4.68-1.46 3.21-1.46 3.21c-0.941-1.626-1.496-3.576-1.496-5.657 0-0.963 0.119-1.898 0.343-2.792l-0.017 0.079c1.125-3.861 3.211-7.147 5.985-9.696l0.015-0.014c1.3-0.92 2.34-1.5 2.3-1.67-1.126-0.656-2.479-1.044-3.922-1.044-0.292 0-0.58 0.016-0.864 0.047l0.035-0.003c-2.043 0.33-3.878 0.927-5.575 1.761l0.115-0.051c-0.47 0.33-1.006 0.625-1.574 0.86l-0.056 0.020s2-3.88 3.92-5.42c3.090-2.262 6.817-3.843 10.865-4.444l0.135-0.017c2.038-0.34 4.39-0.536 6.786-0.54h0.004c0.153-0.077 0.278-0.189 0.368-0.326l0.002-0.004s-0.33-3.67-2.080-5.88c-1.182-1.434-2.436-2.716-3.79-3.886l-0.040-0.034z"></path>
<path fill="#ffe19b" d="M53.28 56.31c1.070-0.42 1.79 0.87 1.67 1.62s-1.71 1.13-2.46 0.71-0.71-1.75 0.79-2.33z"></path>
<path fill="#1d1d1b" d="M27.24 10.68c0.489 0.006 0.962 0.053 1.422 0.138l-0.052-0.008c0.17 0.080 2.42 3 3.67 8.29s1 5.83 1 5.83-0.75 0-0.75-0.25-1-6.5-2.46-9.41c-0.95-1.781-1.888-3.282-2.915-4.715l0.085 0.125z"></path>
<path fill="#1d1d1b" d="M32 13c0.21 0 0.83-0.090 1 0.12 0.82 1.773 1.588 3.894 2.182 6.087l0.068 0.293c0.316 1.145 0.497 2.459 0.497 3.817 0 0.417-0.017 0.829-0.051 1.237l0.004-0.053c-0.16 0-0.5 0.080-0.58-0.090-0.297-2.604-0.736-4.923-1.328-7.181l0.078 0.351c-0.584-1.798-1.217-3.313-1.956-4.766l0.086 0.186z"></path>
<path fill="#1d1d1b" d="M36.41 17.93s0.79 0 1 0.17c0.375 1.274 0.591 2.738 0.591 4.252 0 0.059-0 0.118-0.001 0.177l0-0.009c0.13 2.33 0 2.7-0.12 2.66s-0.55-0.12-0.59-0.25-0.080-2.25-0.33-4c-0.14-1.157-0.333-2.176-0.587-3.17l0.037 0.17z"></path>
<path fill="#1d1d1b" d="M41.91 28.43c0.064 0.002 0.14 0.003 0.215 0.003 1.553 0 2.994-0.484 4.178-1.309l-0.024 0.016c2.46-1.62 3.5-2.92 3.75-3s0.33 0.17 0.33 0.38c-0.988 1.622-2.373 2.914-4.023 3.764l-0.056 0.026c-1.106 0.636-2.432 1.011-3.845 1.011-0.142 0-0.284-0.004-0.425-0.011l0.020 0.001c-0.086-0.192-0.136-0.417-0.136-0.653 0-0.080 0.006-0.159 0.017-0.235l-0.001 0.009z"></path>
<path fill="#1d1d1b" d="M41.61 31.22c0.16-0.15 2.71 0.21 4.55-0.54 1.233-0.578 2.282-1.188 3.272-1.877l-0.072 0.047c0.17 0 0.17 0.42 0.090 0.67s-1.34 1.95-4.29 2.5-3.8 0.58-3.84 0.33c0.037-0.416 0.14-0.8 0.299-1.152l-0.009 0.022z"></path>
<path fill="#1d1d1b" d="M41.86 34.18c0.13 0.090 0.46 0.29 1.71 0.25s1.54-0.29 1.5-0.16-0.080 0.7-0.33 0.79c-0.565 0.172-1.215 0.271-1.888 0.271-0.187 0-0.373-0.008-0.556-0.023l0.024 0.002c-0.75-0.17-0.62 0-0.75-0.17s0.29-0.96 0.29-0.96z"></path>
<path fill="#1d1d1b" d="M38.91 36.31s1.41 2.87 3.33 3.83c2.132 0.915 4.606 1.502 7.2 1.628l0.050 0.002c1.58 0 1.87-0.3 1.87-0.090s0 0.88-0.54 0.92-6.37 0.21-9.16-1.63-3.55-3.75-3.5-3.95 0.62-0.84 0.75-0.71z"></path>
<path fill="#1d1d1b" d="M35.82 37.060c0.934 1.68 2.059 3.12 3.372 4.362l0.008 0.008c2.29 2 5.21 2.34 5.25 2.59s0.29 0.45-0.17 0.54c-2.387-0.119-4.517-1.132-6.079-2.709l-0.001-0.001c-2.75-2.54-3.34-4.63-3.13-4.75 0.136-0.044 0.292-0.069 0.455-0.069 0.105 0 0.207 0.010 0.305 0.030l-0.010-0.002z"></path>
<path fill="#1d1d1b" d="M32.86 37.1c0.19-0.23 0.84 0.29 0.84 0.29 0.434 1.752 1.232 3.278 2.313 4.556l-0.014-0.016c1.78 1.92 2 1.92 2 2.070s-0.21 0.29-0.59 0.16c-1.372-0.87-2.474-2.053-3.226-3.451l-0.024-0.049c-1.38-2.23-1.46-3.35-1.3-3.56z"></path>
<path fill="#1d1d1b" d="M30.91 37.31c0-0.13 0.75 0 0.7 0.16-0.014 0.173-0.022 0.375-0.022 0.578 0 0.716 0.099 1.408 0.285 2.065l-0.013-0.053c0.34 1.080 1 1.71 0.88 1.91s-0.92 0.17-1.13-0.080c-0.463-1.119-0.732-2.419-0.732-3.782 0-0.281 0.011-0.559 0.034-0.835l-0.002 0.036z"></path>
<path fill="#1d1d1b" d="M29.36 36.27c0.27-0.080 0.75 0.83 0.75 0.83s-2.080 5.58-0.45 9.29 4.62 8.21 4.58 8.5-0.38 0.42-0.38 0.42-3.87-5-5-8.71c-0.457-1.294-0.72-2.786-0.72-4.339 0-1.017 0.113-2.008 0.327-2.96l-0.017 0.090c0.25-1.17 0.62-3.040 0.91-3.12z"></path>
<path fill="#1d1d1b" d="M27.91 34.18c0.21-0.070 0.5 0.5 0.5 0.5-1.28 2.241-2.035 4.925-2.035 7.785 0 0.371 0.013 0.739 0.038 1.104l-0.003-0.049c0.41 4.91 2.58 8.87 2.5 9.16s-0.59 0.17-0.8 0-3-6-2.5-10.91 1.92-7.46 2.3-7.59z"></path>
<path fill="#1d1d1b" d="M26.41 32.85c0.2-0.060 0.29 0.5 0.29 0.5-1.472 1.744-2.451 3.949-2.696 6.37l-0.004 0.050c-0.042 0.637-0.067 1.381-0.067 2.131 0 1.289 0.071 2.561 0.21 3.813l-0.014-0.154c-0.13 0.080-0.67 0.080-0.8-0.13-0.207-1.185-0.326-2.55-0.326-3.942 0-1.106 0.075-2.195 0.22-3.262l-0.014 0.124c0.53-2.5 2.61-5.35 3.2-5.5z"></path>
<path fill="#1d1d1b" d="M22.49 34.81c0.21-0.17 0.37 0.25 0.37 0.25s-1.33 2.75-1.58 2.71-0.71-0.17-0.62-0.3 1.62-2.47 1.83-2.66z"></path>
<path fill="#1d1d1b" d="M11.45 42.64c1.569-2.849 3.654-5.225 6.152-7.079l0.058-0.041c3.95-2.75 8-4.42 8.16-4.3s0.17 0.59 0 0.67-5.82 2.46-8.91 5.17-4.34 6-4.59 6-0.87-0.42-0.87-0.42z"></path>
<path fill="#1d1d1b" d="M12.78 36.64c1.697-2.114 3.678-3.91 5.904-5.361l0.096-0.059c2.139-1.298 4.673-2.173 7.385-2.444l0.075-0.006c0.080 0.12 0 0.66 0 0.66s-4.55 0.71-7.38 2.67c-1.982 1.379-3.686 2.974-5.133 4.782l-0.037 0.048c-0.077 0.182-0.189 0.336-0.329 0.459l-0.001 0.001s-0.54-0.71-0.58-0.75z"></path>
<path fill="#1d1d1b" d="M20.49 26.77c0.16-0.050 2.92-0.34 4.33-0.46s1.88 0.16 1.88 0.37c-0.031 0.191-0.105 0.36-0.212 0.503l0.002-0.003c-0.456-0.046-0.985-0.073-1.52-0.073-0.979 0-1.937 0.088-2.868 0.257l0.097-0.015c-1.54 0.42-2 0.62-2 0.5s0.12-1.040 0.29-1.080z"></path>
<path fill="#1d1d1b" d="M10.78 25.39c1.166-0.301 2.6-0.565 4.062-0.735l0.158-0.015c2.5-0.29 3.79 0.21 3.83 0.42s0 0.75-0.2 0.75c-0.868-0.169-1.867-0.267-2.888-0.267-0.614 0-1.22 0.035-1.815 0.103l0.073-0.007c-2 0.38-3.34 0.79-3.38 0.63s0.2-0.88 0.16-0.88z"></path>
<path fill="#1d1d1b" d="M15.36 22.85c-0.18-0.050 0.46-0.58 0.84-0.75 1.295-0.313 2.782-0.492 4.31-0.492s3.015 0.179 4.44 0.518l-0.13-0.026c4.46 0.9 5.42 2.9 5.42 2.9l-0.88 0.38s-1.16-1.86-5.36-2.38c-1.266-0.198-2.726-0.311-4.212-0.311-0.848 0-1.687 0.037-2.516 0.109l0.108-0.008c-0.469 0.042-1.015 0.065-1.567 0.065-0.159 0-0.318-0.002-0.476-0.006l0.023 0z"></path>
<path fill="#1d1d1b" d="M24.36 20.56c0.474-0.248 1.023-0.442 1.602-0.554l0.038-0.006c1.628 0.17 3.069 0.866 4.173 1.913l-0.003-0.003c1.71 1.67 1.33 2.29 1.33 2.29h-0.5s-1.33-2.45-3.5-2.95-3.14-0.69-3.14-0.69z"></path>
<path fill="#1d1d1b" d="M32.45 26c3.060-0.78 7.16-0.12 6.62 5.63s-8.91 5-9.91 1.29c-0.64-2.41 0.040-6.11 3.29-6.92z"></path>
<path fill="#696a9b" d="M33.2 27.43c2.060-0.55 4.6-0.1 4.24 3.78s-5.66 3.56-6.53 1.31-0.55-4.33 2.29-5.090z"></path>
</svg>
