<!-- Generated by IcoMoon.io -->
<svg version="1.1" xmlns="http://www.w3.org/2000/svg" width="64" height="64" viewBox="0 0 64 64">
<path fill="#1d1d1b" d="M16.51 49.27s-1.2-10.71 0.25-16.92 2.92-9.12 5.42-11c1.513-1.112 3.271-2.006 5.166-2.587l0.124-0.033s-1.62-5.33-2.37-5.54-3.54 0.66-4.71-0.17-3-3-3.21-2.83-0.46 1-0.75 1.16c-0.222 0.041-0.478 0.064-0.739 0.064-0.669 0-1.302-0.153-1.867-0.425l0.026 0.011c-0.59-0.38-1.17-0.92-0.29-1.54 0.989-0.544 2.166-0.864 3.419-0.864 0.205 0 0.407 0.008 0.607 0.025l-0.026-0.002c0.75 0.21 3.62 3.050 4.080 3s3.92-1 5 0.5 2.58 6 2.58 6c0.52-0.142 1.117-0.224 1.733-0.224 0.302 0 0.599 0.020 0.891 0.058l-0.034-0.004c0.965 0.043 1.877 0.179 2.755 0.4l-0.095-0.020s0.34-3.46-0.95-4-2.75-0.12-2.92-1.62-0.75-3-1.17-3-0.75 0.33-1.54 0.41c-0.987-0.028-1.869-0.452-2.498-1.118l-0.002-0.002c-0.13-0.42 0.42-1.75 2.42-2s4.45 2 4.58 3.25 0 2 0.12 2.080 3.71 1 4 3c0.039 0.524 0.061 1.134 0.061 1.75s-0.022 1.226-0.066 1.831l0.005-0.081c0.13 0 6.25 0.54 9.21 10 1.168 3.658 1.841 7.865 1.841 12.229 0 1.979-0.138 3.926-0.406 5.831l0.025-0.219c2.144 0.712 3.677 2.668 3.75 4.992l0 0.008c0 3.87-3.83 5.54-6.92 5s-6.16-1.21-8.46-0.88-3.83 1.46-5.83 1.25-5.72-2.19-8.79-1.44-5.83 1.3-7-0.75c-0.244-0.502-0.387-1.092-0.387-1.716 0-1.842 1.245-3.393 2.939-3.858l0.028-0.007z"></path>
<path fill="#c8db89" d="M16 51.1c0.81-0.63 2.88-0.62 2.92-0.91-0.569-2.832-0.894-6.088-0.894-9.42 0-1.51 0.067-3.005 0.198-4.481l-0.014 0.191c0.75-7.38 2.080-11.63 5.75-14.29s8-2.42 11.67-1.84 7.37 4.5 8.8 10.25 0.42 17.21 0.58 17.34 3.38 0.54 3.5 3.37-1.45 4.5-4.45 3.79c-1.894-0.5-4.068-0.787-6.309-0.787-0.743 0-1.478 0.032-2.205 0.093l0.095-0.007c-3.75 0.16-4.42 1-6.54 0.79s-3.21-2-7.090-1.42-5.5 1.25-6 0.63-1.37-2.25-0.010-3.3z"></path>
<path fill="#1d1d1b" d="M16.93 52.69c0.511-0.469 1.194-0.756 1.945-0.756 0.065 0 0.13 0.002 0.194 0.006l-0.009-0c0.75 0.080 1.87 0.25 1.79 0.62s0 0.54-0.42 0.54-1.080-0.54-1.83-0.16-1.17 0.71-1.38 0.66c-0.208-0.136-0.344-0.367-0.344-0.631 0-0.101 0.020-0.197 0.056-0.284l-0.002 0.005z"></path>
<path fill="#1d1d1b" d="M27.85 52.1c0.29 0.060 1 1 1.87 1s2.13-0.29 2.21 0 0.25 0.92 0 1c-0.306 0.043-0.659 0.068-1.018 0.068-0.658 0-1.296-0.083-1.905-0.24l0.053 0.012c-0.59-0.29-1.71-0.71-1.75-1s0.33-0.88 0.54-0.84z"></path>
<path fill="#1d1d1b" d="M41.93 52.69c0.348-0.042 0.751-0.066 1.16-0.066 0.608 0 1.203 0.053 1.782 0.155l-0.061-0.009c1.25 0.21 1.37 0.25 1.37 0.46s-0.18 0.77-0.33 0.77c-0.651-0.172-1.446-0.319-2.258-0.412l-0.082-0.008c-0.75 0-0.91 0.13-1.33 0s-0.37-0.81-0.25-0.89z"></path>
<path fill="#1d1d1b" d="M35.31 48.6c0.31 0 2.2 2.63 1.95 2.75-0.296 0.095-0.639 0.157-0.993 0.17l-0.007 0s-1.66-2.58-1.66-2.75 0.4-0.12 0.71-0.17z"></path>
<path fill="#1d1d1b" d="M37.43 48.44c-0.080-0.33 0.58 0 0.83 0.12 0.544 0.801 0.988 1.728 1.282 2.719l0.018 0.071c-0.17 0-0.71 0.13-0.88 0-0.401-0.774-0.822-1.734-1.188-2.72l-0.062-0.19z"></path>
<path fill="#1d1d1b" d="M39.68 48.31c-0.13-0.4 0.75-0.25 0.83-0.16 0.459 0.671 0.866 1.439 1.183 2.252l0.027 0.078c-0.132 0.13-0.313 0.21-0.512 0.21-0.085 0-0.167-0.015-0.243-0.041l0.005 0.002c-0.404-0.635-0.833-1.401-1.223-2.19l-0.067-0.15z"></path>
<path fill="#1d1d1b" d="M41.39 47.44s0.37-0.42 0.62-0.25c0.802 0.746 1.494 1.595 2.060 2.528l0.029 0.052c-0.090 0.25-0.59 0.42-0.59 0.42-0.739-0.821-1.436-1.718-2.066-2.664l-0.054-0.086z"></path>
<path fill="#1d1d1b" d="M42.35 45.44c-0.15 0 0.25-0.75 0.46-0.54 0.597 0.584 1.12 1.24 1.555 1.956l0.025 0.044c0 0.3 0.080 0.71 0 0.71s-1.88-2.13-2.040-2.17z"></path>
<path fill="#1d1d1b" d="M21.18 29.31c-0.12-0.12 0.21-1.12 0.88-2.79s1.080-2.25 1.41-2.37 0.79 0 0.75 0.16-1.25 2.17-1.62 3c-0.187 0.563-0.348 1.237-0.451 1.931l-0.009 0.069c-0.14 0.13-0.88 0.090-0.96 0z"></path>
<path fill="#1d1d1b" d="M26.13 31.77c1.3-1.67 3.25-1.92 6.7-2s6.47 1.67 6.92 6.54-2.88 7.59-8.31 7.13-6.84-4.38-7.17-6.21 0.73-4 1.86-5.46z"></path>
<path fill="#cbe7f5" d="M32.7 31.56c0.091-0.006 0.197-0.009 0.304-0.009 2.691 0 4.885 2.126 4.996 4.789l0 0.010c0.18 3.8-3.3 5.75-6.83 5.38-2.695-0.383-4.75-2.655-4.79-5.416l-0-0.004c-0.050-1.66 1.23-4.62 6.32-4.75z"></path>
<path fill="#1d1d1b" d="M31.22 34.9c0.328-0.176 0.718-0.279 1.131-0.279 1.229 0 2.245 0.912 2.407 2.097l0.001 0.013c0.25 2-2.79 3-4.12 1.62-0.461-0.37-0.754-0.933-0.754-1.564 0-0.866 0.55-1.603 1.32-1.881l0.014-0.004z"></path>
</svg>
