<!-- Generated by IcoMoon.io -->
<svg version="1.1" xmlns="http://www.w3.org/2000/svg" width="64" height="64" viewBox="0 0 64 64">
<path fill="#1d1d1b" d="M10.53 37.52c-0.497 0.321-1.105 0.512-1.758 0.512-0.785 0-1.505-0.276-2.068-0.737l0.006 0.005c-1.9-1.53-1.090-3.53 0-4.62s4.28-1.1 5 0.62c0.212 0.389 0.337 0.852 0.337 1.345s-0.125 0.956-0.345 1.36l0.007-0.015 11.32 8.75c0.33-0.306 0.764-0.503 1.245-0.53l0.005-0c0.111-0.013 0.239-0.020 0.369-0.020 0.346 0 0.68 0.051 0.995 0.146l-0.024-0.006 6.56-12.59c-0.15-0.348-0.237-0.754-0.237-1.18 0-0.799 0.307-1.527 0.809-2.072l-0.002 0.002c0.506-0.521 1.213-0.844 1.995-0.844 0.925 0 1.744 0.451 2.249 1.146l0.006 0.008c0.189 0.336 0.3 0.737 0.3 1.164 0 0.3-0.055 0.588-0.155 0.853l0.005-0.017 8.72 6.87 7.91-18.9c-0.494-0.621-0.793-1.416-0.793-2.282 0-0.108 0.005-0.216 0.014-0.322l-0.001 0.014c0.062-1.398 1.21-2.508 2.618-2.508 0.21 0 0.414 0.025 0.61 0.071l-0.018-0.004c1.285 0.294 2.228 1.428 2.228 2.781 0 0.478-0.118 0.929-0.326 1.324l0.008-0.016c-0.594 0.978-1.595 1.658-2.761 1.808l-0.019 0.002-7.5 17.82c0.668 0.333 1.118 1.012 1.118 1.795 0 0.299-0.066 0.583-0.183 0.837l0.005-0.012c-0.399 1.031-1.383 1.748-2.534 1.748-0.587 0-1.131-0.187-1.575-0.504l0.008 0.006c-1-0.81-0.28-2.75-0.28-2.75l-8-6.5c-0.359 0.272-0.791 0.468-1.261 0.557l-0.019 0.003c-0.228 0.041-0.491 0.065-0.76 0.065-0.373 0-0.735-0.046-1.081-0.132l0.031 0.006-6.25 12.42s1.68 2.4-0.070 4.31c-0.524 0.606-1.294 0.988-2.153 0.988-1.073 0-2.007-0.595-2.49-1.473l-0.007-0.015c-0.382-0.61-0.608-1.352-0.608-2.146 0-0.093 0.003-0.185 0.009-0.276l-0.001 0.012z"></path>
<path fill="#cbe7f5" d="M8.15 33.27c0.242-0.112 0.525-0.177 0.823-0.177 0.958 0 1.759 0.674 1.955 1.574l0.002 0.013c0.014 0.088 0.021 0.189 0.021 0.293 0 1.105-0.895 2-2 2-0.267 0-0.522-0.052-0.755-0.147l0.013 0.005c-0.786-0.229-1.351-0.943-1.351-1.789 0-0.824 0.536-1.523 1.278-1.767l0.013-0.004z"></path>
<path fill="#ffe19b" d="M24.18 45.71c0.205-0.098 0.446-0.156 0.7-0.156 0.8 0 1.467 0.57 1.618 1.325l0.002 0.011c0.008 0.061 0.012 0.131 0.012 0.203 0 0.939-0.761 1.7-1.7 1.7-0.209 0-0.409-0.038-0.594-0.107l0.012 0.004c-0.667-0.183-1.149-0.784-1.149-1.497 0-0.695 0.457-1.283 1.088-1.48l0.011-0.003z"></path>
<path fill="#ffe19b" d="M34.13 29c0.173-0.084 0.376-0.134 0.59-0.134 0.673 0 1.233 0.485 1.348 1.125l0.001 0.008c0.006 0.049 0.009 0.105 0.009 0.163 0 0.79-0.64 1.43-1.43 1.43-0.172 0-0.337-0.030-0.489-0.086l0.010 0.003c-0.569-0.147-0.982-0.656-0.982-1.26 0-0.59 0.393-1.089 0.932-1.247l0.009-0.002z"></path>
<path fill="#ffe19b" d="M55.16 15.16c0.192-0.093 0.418-0.148 0.656-0.148 0.745 0 1.366 0.533 1.502 1.238l0.002 0.010c0.006 0.051 0.009 0.11 0.009 0.171 0 0.878-0.712 1.59-1.59 1.59-0.19 0-0.372-0.033-0.54-0.094l0.011 0.003c-0.622-0.169-1.072-0.728-1.072-1.392 0-0.646 0.425-1.193 1.011-1.375l0.010-0.003z"></path>
<path fill="#cbe7f5" d="M46.11 38.49c0.147-0.072 0.32-0.113 0.502-0.113 0.566 0 1.038 0.402 1.147 0.936l0.001 0.008c0.005 0.042 0.008 0.091 0.008 0.141 0 0.668-0.542 1.21-1.21 1.21-0.146 0-0.287-0.026-0.417-0.074l0.008 0.003c-0.47-0.132-0.809-0.557-0.809-1.061 0-0.489 0.32-0.904 0.761-1.047l0.008-0.002z"></path>
</svg>
