<!-- Generated by IcoMoon.io -->
<svg version="1.1" xmlns="http://www.w3.org/2000/svg" width="64" height="64" viewBox="0 0 64 64">
<path fill="#1d1d1b" d="M7.17 52.38c0.004-3.865 0.596-7.591 1.691-11.094l-0.071 0.264c1.71-5.55 4.55-16.38 6.21-22.17s4.5-12.75 9.79-14.83c2.054-0.777 4.429-1.228 6.91-1.228 3.254 0 6.327 0.775 9.045 2.15l-0.115-0.053c4.21 2.21 6.21 4.58 8.46 13.58s3.29 19.17 5.41 25.75 2.5 7.13 2.25 7.54c-0.67 0.764-1.568 1.314-2.587 1.544l-0.032 0.006c-1.379-0.162-2.633-0.471-3.821-0.917l0.111 0.037-1.29-0.83s2.12 3.54 2.080 4-0.37 1-0.75 1c-1.703-0.459-3.191-1.19-4.496-2.156l0.036 0.026c-0.622-0.512-1.178-1.056-1.685-1.642l-0.015-0.017s-1.050 4.7-1.090 5.37c-0.006 0.533-0.177 1.025-0.465 1.428l0.005-0.008c-0.927-0.195-1.748-0.542-2.478-1.017l0.028 0.017c-0.38-0.42-2.5-2.21-2.5-2.21-0.825 1.244-1.748 2.323-2.787 3.279l-0.013 0.011c-1 0.59-1.33 0.46-1.33 0.46s-1.92-2.83-2.29-3.33c-0.269-0.34-0.557-0.641-0.872-0.913l-0.008-0.007s-2.75 3.25-3.5 3.5-1.66 0.25-1.87-0.17-1-2.33-1-2.33c-0.837 0.67-1.782 1.267-2.792 1.752l-0.088 0.038c-1 0.34-1.12 0.29-1.29 0.13s-0.29-5.34-0.29-5.34c-1.633 1.254-3.504 2.322-5.513 3.115l-0.157 0.055c-2.33 0.67-3.41 0.71-3.66 0.38s0.25-6.25 0.25-6.25c-0.607 0.418-1.317 0.846-2.052 1.233l-0.118 0.057c-0.109 0.025-0.234 0.039-0.362 0.039-0.328 0-0.635-0.093-0.896-0.253l0.007 0.004z"></path>
<path fill="#f2910d" d="M8.79 50.25c0.735-4.274 1.575-7.867 2.6-11.381l-0.18 0.721c1.38-4.46 4.25-13.29 4.63-13.88 0.566-0.839 1.513-1.383 2.587-1.383 0.203 0 0.401 0.019 0.593 0.056l-0.020-0.003c1.79 0.21 2.75 0.54 3 0.33s0.46-0.41 0.33-0.46-2-2.16-1.54-2.25c0.134-0.019 0.289-0.030 0.446-0.030 0.486 0 0.948 0.103 1.366 0.288l-0.021-0.009c0.8 0.3 1.17 0.71 1.38 0.55 0.138-0.133 0.239-0.302 0.288-0.493l0.002-0.007c-0.451-0.923-0.978-1.718-1.593-2.435l0.013 0.015c-0.67-0.58-1-0.79-1-0.79 1.218 0.319 2.272 0.715 3.272 1.205l-0.102-0.045c0.75 0.5 1.16 0.55 1.25 0.34s0.62-2.54 0.62-2.54c0.247 0.811 0.616 1.517 1.092 2.136l-0.012-0.016c0.244 0.291 0.607 0.475 1.014 0.475 0.069 0 0.137-0.005 0.204-0.016l-0.007 0.001 1.17-0.21 0.67-0.62s0.2 0.66 0.58 0.75 0.83-0.5 1.080-1.3c0.101-0.409 0.16-0.878 0.16-1.361 0-0.207-0.011-0.412-0.032-0.614l0.002 0.025c0.446 0.508 0.811 1.101 1.066 1.749l0.014 0.041c0.42 1.080 0.29 1.75 0.63 1.87s0.75-0.66 2.33-1.87c1.169-0.943 2.478-1.815 3.864-2.563l0.136-0.067c0.17 0-1.25 3-1.21 3.63s0.17 1 0.54 1c0.722-0.182 1.347-0.412 1.942-0.697l-0.062 0.027s-0.17 1.29 0.37 1.58 1.59 0 2.67 0.46 3.13 2.46 3.88 6.17 2.99 13.67 2.99 13.67-1.54-1.38-1.7-1.090-0.5 0.59-0.34 0.79 2.21 1.67 2.34 1.88 0.62 1.79 0.62 1.79-2.42-2.5-2.54-2.29-0.33 0.87-0.17 1 2.92 2.5 3 2.75 0.38 1 0.38 1-3.25-2.92-3.38-2.67c-0.066 0.202-0.104 0.434-0.104 0.675 0 0.115 0.009 0.227 0.025 0.337l-0.002-0.012c0.080 0.13 3.71 2.92 3.83 3.13 0.108 0.21 0.21 0.458 0.291 0.716l0.009 0.034c-1.009-0.711-2.17-1.418-3.378-2.048l-0.172-0.082c-0.064 0.294-0.107 0.638-0.12 0.989l-0 0.011s3.79 2 3.92 2.21 0.37 0.79 0.16 0.84c-0.009 0-0.020 0-0.031 0-1.525 0-2.917-0.569-3.975-1.506l0.006 0.005c-1.79-1.55-2.29-2.5-2.58-2.5s-1.38 0.29-1.33 0.58c0.216 1.258 0.459 2.309 0.754 3.339l-0.054-0.219c0.38 1.3 0.63 2 0.63 2-0.912-0.735-1.697-1.575-2.354-2.511l-0.026-0.039c-0.7-1.2-0.75-1.58-1-1.62s-1.41 0.75-1.41 0.75-0.42 2-0.88 4.33-0.5 2.54-0.5 2.54c-1.106-0.84-2.37-1.692-3.679-2.474l-0.191-0.106c-0.024-0.002-0.053-0.003-0.081-0.003-0.367 0-0.696 0.163-0.917 0.421l-0.001 0.002c-0.17 0.21-2.13 2.87-2.13 2.87-0.888-0.948-1.746-1.965-2.551-3.025l-0.069-0.095c-0.38-0.67-0.84-1-1-1s-3.34 3.41-3.71 3.66-1.080-0.12-1.21-0.37c-0.394-0.907-0.785-1.658-1.221-2.381l0.051 0.091c-0.12 0-1.87 1.5-2.71 1.92-0.28 0.16-0.609 0.315-0.952 0.444l-0.048 0.016c0.049-0.736 0.078-1.595 0.078-2.46s-0.028-1.724-0.084-2.576l0.006 0.116c-0.098-0.22-0.316-0.371-0.568-0.371-0.080 0-0.156 0.015-0.226 0.043l0.004-0.001c-1.42 1.016-3.039 1.925-4.755 2.648l-0.165 0.062c-1.012 0.393-2.193 0.697-3.419 0.861l-0.081 0.009s0.55-7 0.3-7.17c-0.204-0.088-0.441-0.139-0.69-0.139s-0.486 0.051-0.702 0.144l0.012-0.004z"></path>
<path fill="#1d1d1b" d="M14.42 33s2.54-6.54 3.21-7c0.61-0.254 1.318-0.401 2.060-0.401 0.389 0 0.769 0.041 1.135 0.118l-0.036-0.006c0.21 0.25-0.12 0.67-0.12 0.67-0.058-0.004-0.125-0.006-0.193-0.006-0.939 0-1.779 0.42-2.344 1.082l-0.004 0.004c-1.040 1.25-3.71 5.54-3.71 5.54z"></path>
<path fill="#1d1d1b" d="M42.17 24.55c0.29 0 2.75-0.090 3.42 0.5s2.91 5.95 2.62 6.2-0.54 0.46-0.67 0.090-2.75-5.5-3-5.54c-1.004-0.123-1.905-0.316-2.775-0.58l0.115 0.030c-0.17-0.16 0.040-0.7 0.29-0.7z"></path>
<path fill="#1d1d1b" d="M29.46 22.84c-0.070-0.11 0.46-0.29 0.71-0.090s1.080 1.55 0.92 1.71-0.55 0.29-0.67 0.17-0.88-1.63-0.96-1.79z"></path>
<path fill="#1d1d1b" d="M34.13 23.59c1.115-1.243 2.257-2.385 3.458-3.463l0.042-0.037c0.16 0 0.37 0 0.21 0.25s-2.84 3.58-3.090 3.54c-0.236-0.067-0.442-0.167-0.627-0.295l0.007 0.005z"></path>
<path fill="#1d1d1b" d="M14 40.050c0.786-3.345 1.962-6.293 3.506-9.005l-0.087 0.165c1.845-3.145 5.164-5.252 8.984-5.37l0.016-0c4.25-0.25 5.79 2.71 5.5 4.37s-2.080 5.63-1.58 6c0.871 0.19 1.872 0.299 2.898 0.299 0.416 0 0.828-0.018 1.235-0.053l-0.053 0.004c0.25-0.080 0.46-0.71 0.37-1s-2.41-4.080-1.29-6.62 5.59-4.25 8.79-2 6.25 11.79 6.050 12.75-0.75 1.33-1.13 1.29-2.33-6.75-3.37-8.83c-0.653-1.296-1.447-2.41-2.384-3.385l0.004 0.005c-0.027 1.318-1.006 2.4-2.275 2.588l-0.015 0.002c-0.215 0.045-0.461 0.070-0.714 0.070-1.092 0-2.072-0.478-2.743-1.236l-0.003-0.004c-0.121 0.364-0.19 0.784-0.19 1.219 0 0.696 0.178 1.351 0.491 1.921l-0.010-0.021c0.79 2 1.63 3.34 0.88 4.25s-7.25 0.79-8.13 0.63-1.17-1.67-0.54-3.13 1.67-3.41 1.75-3.75c0.020-0.219 0.031-0.473 0.031-0.73s-0.011-0.511-0.033-0.763l0.002 0.033s-1.71 2.63-4.46 1.8-2.25-2.88-2.25-2.88c-1.767 0.789-3.247 1.936-4.403 3.358l-0.017 0.022c-1.66 2.25-2.87 7.75-3.25 8-0.234 0.093-0.506 0.147-0.79 0.147s-0.556-0.054-0.805-0.152l0.015 0.005z"></path>
<path fill="#1d1d1b" d="M41.93 31.42c-0.23-0.19-0.87 0.25-0.79 0.5s1.67 2.17 2 3.46 0.33 1.71 0.58 1.79 0.63 0.080 0.67 0c-0.054-1.151-0.277-2.234-0.644-3.247l0.024 0.077c-0.461-1.007-1.080-1.863-1.836-2.576l-0.004-0.004z"></path>
<path fill="#1d1d1b" d="M40.39 32.75c-0.080-0.14-1 0.090-0.87 0.42 0.339 0.626 0.648 1.358 0.886 2.121l0.024 0.089c0 0.62-0.21 0.83 0.13 1 0.236 0.074 0.508 0.118 0.789 0.12h0.001c0-0.007 0-0.016 0-0.024 0-1.367-0.356-2.651-0.98-3.765l0.020 0.039z"></path>
<path fill="#1d1d1b" d="M38.47 33.5c-0.13-0.16-0.66 0-0.54 0.25s0 1.17 0.42 1.38 0.54 0.25 0.58 0.12c-0.055-0.645-0.219-1.239-0.474-1.782l0.014 0.032z"></path>
<path fill="#1d1d1b" d="M22.42 41.46s1-1.62 1.75-1.66 3.42 1.080 8.21 0.91 8.080-1.080 8.46-0.91 1.25 1.33 1.12 1.5-3.5 2-3.5 2-0.62 1.87-1.33 2-2-1.67-2-1.67-2.71 0.090-4 0-1.88 0-1.88 0-0.91 2-1.87 1.88-1.63-2.5-1.63-2.5-2.96-0.46-3.33-1.55z"></path>
<path fill="#e6e4da" d="M26.42 41.090s1.67 0.58 6.17 0.46c0.002 0 0.004 0 0.005 0 2.026 0 4.019-0.138 5.971-0.405l-0.227 0.025s-0.88 3-1.25 3-1.090-1.54-1.42-1.62-1.17 0.2-3.17 0.2-3.46-0.16-3.62-0.12-1.29 1.62-1.46 1.58c-0.566-0.888-0.929-1.955-0.999-3.101l-0.001-0.019z"></path>
<path fill="#1d1d1b" d="M17.84 41.050c0.24-0.1 0.41 0.37 0.41 0.37s-2 5.54-2.29 5.5-0.62 0-0.62-0.29 1.95-5.38 2.5-5.58z"></path>
<path fill="#1d1d1b" d="M19.46 45.17c0.222 0.087 0.413 0.198 0.585 0.334l-0.005-0.004c0.090 0.13-1.41 5.5-1.66 5.5-0.218-0.020-0.418-0.077-0.601-0.165l0.011 0.005s1.59-5.54 1.67-5.67z"></path>
<path fill="#1d1d1b" d="M24 46.71c0.080-0.15 0.8 0 0.75 0.17s-0.5 4.71-0.75 4.79-0.7 0.080-0.7-0.21 0.62-4.46 0.7-4.75z"></path>
<path fill="#1d1d1b" d="M29.84 47l1 0.090-1 5.75s-0.55 0.12-0.63-0.21 0.63-5.63 0.63-5.63z"></path>
<path fill="#1d1d1b" d="M33.5 48.8c-0.070-0.11 1-0.21 1-0.090s0.83 4.75 0.63 4.92-0.46 0.33-0.63 0.21-0.91-4.92-1-5.040z"></path>
<path fill="#1d1d1b" d="M37.25 48.42c0.060-0.16 0.71-0.25 0.71-0.25 0.557 1.391 1.129 3.155 1.597 4.96l0.073 0.33c-0.17 0.21-0.71 0.13-0.71 0.13s-1.71-5.040-1.67-5.17z"></path>
<path fill="#1d1d1b" d="M41.59 45.21c-0.12-0.090 0.54-0.58 0.7-0.46s3.090 3.71 2.8 4-0.46 0.34-0.63 0.17-2.67-3.54-2.87-3.71z"></path>
<path fill="#1d1d1b" d="M45.54 43.3c-0.1-0.080 0.63-0.5 0.75-0.34s1.67 2.5 1.5 2.71-0.29 0.42-0.54 0.17-1.54-2.42-1.71-2.54z"></path>
<path fill="#f2910d" d="M15.88 24.050c0.772-0.41 1.686-0.657 2.656-0.67l0.004-0c0.004 0 0.009 0 0.013 0 0.723 0 1.425 0.091 2.095 0.263l-0.058-0.013s-2.34-2-1.84-2.5 2.17-0.17 2.79-0.080c0.317 0.011 0.607 0.118 0.844 0.293l-0.004-0.003c-0.744-0.984-1.494-1.855-2.295-2.676l0.005 0.006c-0.42-0.25-0.8-1-0.42-1.12 1.354 0.11 2.601 0.467 3.73 1.027l-0.060-0.027c0.81 0.314 1.495 0.65 2.146 1.036l-0.066-0.036s0.5-2.46 0.54-3 0.21-0.67 0.54-0.67 0.46 0.080 0.54 0.29 1 2.92 1.63 3.29 0.75 0.5 0.87 0.34 0.55-1.92 0.92-1.84 0.38 0 0.46 0.21 0.17 1 0.42 0.88c0.307-0.255 0.5-0.636 0.5-1.063 0-0.009-0-0.019-0-0.028v0.001c-0.272-0.539-0.49-1.165-0.622-1.822l-0.008-0.048c0.080-0.29 0.17-1 0.42-0.92 0.967 0.402 1.745 1.099 2.238 1.977l0.012 0.023c0.341 0.56 0.677 1.217 0.963 1.9l0.037 0.1c0.929-1.224 2.151-2.179 3.563-2.769l0.057-0.021c2.5-1.080 3.75-1.21 4.080-0.92 0.087 0.077 0.142 0.19 0.142 0.315s-0.055 0.238-0.142 0.315l-0 0s-1.33 1.83-1.58 2.37c-0.129 0.262-0.242 0.568-0.323 0.887l-0.007 0.033s2.46-0.79 2.54-0.38-0.54 2-0.29 2c0.227-0.023 0.49-0.037 0.757-0.037 0.633 0 1.248 0.075 1.836 0.218l-0.053-0.011c1.17 0.38 2.92 3.29 2.92 3.29l-2.13-7.83s-1.41 2-1.75 2-0.66-0.42-0.66-0.42l1.83-2.62s-1.21-3.75-1.38-3.92-1.58 2.54-1.75 2.5-0.87-0.21-0.83-0.46 2.080-2.91 2-3c-0.339-0.528-0.74-0.98-1.2-1.362l-0.010-0.008c-0.41-0.25-1-0.54-1-0.54s-2.58 5.79-2.83 6.2-0.5 0.55-0.46 0.3c0.398-1.943 0.888-3.618 1.497-5.234l-0.077 0.234c0.341-0.871 0.677-1.585 1.052-2.275l-0.052 0.105s-1.54-1.080-2.25-1.46c-0.288-0.176-0.621-0.317-0.975-0.405l-0.025-0.005s-1.29 7.74-1.5 7.74-0.5 0-0.54-0.16 0.91-7.79 0.79-7.84c-1.058-0.48-2.294-0.759-3.595-0.759-0.468 0-0.927 0.036-1.375 0.106l0.050-0.006c-1.324 0.093-2.557 0.346-3.724 0.741l0.104-0.031c0.544 1.342 1.030 2.945 1.377 4.6l0.033 0.19c0.227 0.857 0.358 1.84 0.358 2.854 0 0.284-0.010 0.565-0.030 0.843l0.002-0.037c-0.12 0.050-0.7 0.25-0.79 0.050s-0.41-2.75-1-5.21-1.37-3-1.37-3c-1.117 0.495-2.076 1.049-2.968 1.693l0.048-0.033c-0.427 0.312-0.767 0.719-0.992 1.191l-0.008 0.019c0.808 0.676 1.448 1.527 1.863 2.497l0.017 0.043c0.376 0.858 0.617 1.854 0.669 2.9l0.001 0.020s-0.42 0.17-0.55 0c-0.361-1.241-0.787-2.306-1.3-3.318l0.050 0.108c-0.41-0.502-0.943-0.888-1.555-1.112l-0.025-0.008-1.42 2.54c0.921 0.217 1.691 0.755 2.202 1.488l0.008 0.012c0.359 0.508 0.718 1.094 1.038 1.702l0.042 0.088s-0.45 0.5-0.58 0.33-0.83-1.83-1.75-2.29c-0.387-0.216-0.85-0.344-1.342-0.344-0.098 0-0.195 0.005-0.29 0.015l0.012-0.001c-1.245 2.802-2.428 6.187-3.35 9.678l-0.11 0.492z"></path>
<path fill="#1d1d1b" d="M31.54 9.71c0.25-0.12 0.8-0.25 0.92 0s0.38 4 0.13 4c-0.094 0.027-0.203 0.043-0.315 0.043s-0.221-0.016-0.323-0.045l0.008 0.002z"></path>
<path fill="#1d1d1b" d="M21.71 31.42c0.23-0.19 0.88 0.25 0.79 0.5s-1.66 2.17-2 3.46-0.33 1.71-0.58 1.79-0.62 0.080-0.67 0c0.054-1.152 0.281-2.234 0.654-3.245l-0.024 0.075c0.459-1.006 1.075-1.862 1.826-2.577l0.003-0.003z"></path>
<path fill="#1d1d1b" d="M23.25 32.75c0.080-0.14 1 0.090 0.88 0.42-0.349 0.629-0.661 1.361-0.898 2.127l-0.022 0.083c0 0.62 0.21 0.83-0.12 1-0.239 0.074-0.514 0.118-0.799 0.12h-0.001c0-0.007-0-0.016-0-0.024 0-1.367 0.356-2.651 0.98-3.765l-0.020 0.039z"></path>
<path fill="#1d1d1b" d="M25.17 33.5c0.14-0.16 0.67 0 0.54 0.25s0 1.17-0.42 1.38-0.54 0.25-0.58 0.12c0.055-0.645 0.219-1.239 0.474-1.782l-0.014 0.032z"></path>
</svg>
