<!-- Generated by IcoMoon.io -->
<svg version="1.1" xmlns="http://www.w3.org/2000/svg" width="64" height="64" viewBox="0 0 64 64">
<path fill="#1d1d1b" d="M57.67 22.4c-2.37-1.25-9.5-0.75-9.5-0.75s1-0.58 3.55-1.95 7-2.88 7.37-3.75-1.5-1-5 0-8.83 2.8-8.83 2.8c1.805-1.208 3.932-2.454 6.132-3.579l0.368-0.171c2.58-1.21 6.66-1.8 7-2.25s0-1.34-2.55-1.34-9.45 1-9.45 1c0.42-0.333 0.897-0.625 1.408-0.853l0.042-0.017c0.8-0.34 5-3.34 5.34-3.63s0.21-0.83-0.67-1.12-3.21 0.46-7.79 2.62-13.62 8.040-20.42 14.59-11.62 12.49-12.25 13.86c-0.164 0.391-0.26 0.845-0.26 1.322 0 0.616 0.159 1.194 0.439 1.696l-0.009-0.018c0.155 0.67 0.747 1.162 1.454 1.162 0.091 0 0.179-0.008 0.266-0.024l-0.009 0.001c1.21 0 3-1 3.67-1s0.45 1 1.54 1.33 2.41-0.12 2.87 0.050 0 0.7-0.21 1.12 0.67 0.92 1.3 0.83 5-3.75 13.45-9.7 21.84-10.39 21.84-10.39 1.29-0.59-1.090-1.84zM20.59 44.4c-0.46-0.58-5.67 0.88-6 0.92s-6.050-3.42-6.42-3.12 0.38 5.080 0.34 5.29c-0.919 0.403-2.031 0.786-3.177 1.084l-0.163 0.036c-0.58 0.21-0.25 0.67-0.16 1.29s4.080 2.17 4.25 2.42 0.54 4.21 0.54 4.21 1.25 0.83 1.58 0.79 3.79-3.58 4.090-3.83 4.7 0.62 5.37 0.33-1.83-3.75-2-4.21 2.21-4.61 1.75-5.21z"></path>
<path fill="#ffe19b" d="M13.84 39.11c3.105-4.893 6.645-9.119 10.667-12.831l0.043-0.039c4.626-4.339 9.671-8.365 15.023-11.969l0.427-0.271c3.58-2.25 8.83-4.79 9.58-5.17s1.42-0.38 1.22-0.26-5.88 3.38-6.42 4-0.38 1.43 0.62 1.33 5.87-0.7 6.45-0.75 1.55-0.2 1.25 0-8.37 3.8-10.79 6-2.75 3.13-1.71 3.25 3.8-1.62 6.88-2.83 7.090-2.57 7.050-2.37-7.62 3.79-8.5 4.62c-0.199 0.172-0.325 0.424-0.325 0.706 0 0.514 0.416 0.93 0.93 0.93 0.037 0 0.073-0.002 0.109-0.006l-0.004 0c2.072-0.217 4.476-0.34 6.91-0.34 0.060 0 0.12 0 0.18 0h-0.009c2 0.13 2.46 0.34 2.34 0.54s-12.63 5.21-19.76 9.8-11.8 8.87-12 8.66-0.25-0.83-1-1-2.63 0.17-2.75-0.16-0.21-1.46-1.13-1.5-2.58 1.12-3.62 1.12-1.83-0.57-1.66-1.46z"></path>
<path fill="#1d1d1b" d="M21.050 32c1.489-1.91 2.988-3.609 4.583-5.213l-0.003 0.003c2-2.13 4.63-3.67 4.84-3.54s0.2 1 0.2 1c-2.085 1.338-3.898 2.796-5.543 4.423l0.003-0.003c-2.37 2.45-3.12 3.5-3.33 3.54-0.024 0.002-0.052 0.003-0.080 0.003-0.251 0-0.483-0.080-0.673-0.215l0.004 0.002z"></path>
<path fill="#1d1d1b" d="M20.72 37c0.12-0.5 2.58-3.63 5.91-6.63s5-4.080 5.21-4 0.42 0.54 0.21 0.67-5.33 3.71-7 6-2.88 4-3.29 4.13c-0.085 0.017-0.183 0.026-0.283 0.026-0.278 0-0.539-0.073-0.765-0.2l0.008 0.004z"></path>
<path fill="#1d1d1b" d="M24.67 37c0.1-0.29 3-2.54 5.59-4.83s3.66-2.92 4-3 0.5 0.54 0.25 0.79-4.55 3.29-6 4.75-2.37 2.83-2.7 2.83-1.18-0.39-1.14-0.54z"></path>
<path fill="#1d1d1b" d="M37.51 27.24c1.174-0.821 2.534-1.65 3.945-2.396l0.215-0.104c0.34 0 0.59 0.33 0.38 0.54s-3.58 2.72-3.88 2.58-0.66-0.62-0.66-0.62z"></path>
<path fill="#1d1d1b" d="M33.92 20.61c-0.13-0.27 6.55-4.91 6.88-4.91s0.58 0.54 0.46 0.7-6.71 4.71-6.88 4.75-0.38-0.37-0.46-0.54z"></path>
<path fill="#fab900" d="M10.3 45c0.23-0.46 2.87 2.41 3.58 2.37s3.59-1.29 3.79-1-1 2.5-1 2.88 1.42 2.75 1.17 2.75-3.25-0.79-3.71-0.42-2.54 3.17-2.66 2.75-0.25-3-0.38-3.12-3-1.67-2.83-2 2.74-0.81 2.74-1.1-0.87-2.79-0.7-3.11z"></path>
</svg>
