<!-- Generated by IcoMoon.io -->
<svg version="1.1" xmlns="http://www.w3.org/2000/svg" width="64" height="64" viewBox="0 0 64 64">
<path fill="#1d1d1b" d="M10.35 35.62s-0.75 0.14-1-1.48-0.58-8.61-0.3-8.87c0.592-0.261 1.286-0.479 2.007-0.62l0.063-0.010s0-7.54 2.67-11.86 5.4-6.090 10.65-7.56c2.111-0.542 4.534-0.853 7.029-0.853 2.904 0 5.709 0.421 8.359 1.206l-0.208-0.053c4.41 1.18 8.7 4.62 9.89 8.8 0.756 2.797 1.288 6.062 1.484 9.417l0.006 0.133c0.95 0.198 1.793 0.509 2.571 0.925l-0.051-0.025c0.17 0.33 0.43 9.12 0 9.38-0.236 0.145-0.522 0.231-0.827 0.231-0.015 0-0.030-0-0.045-0.001l0.002 0s7.86 18 7.59 19-12.93 6.36-30.1 6.23-26.050-5.41-26.36-6.11 6.57-17.88 6.57-17.88z"></path>
<path fill="#6a6a6a" d="M13.24 27.92s-0.6-7.65 1.3-11.91c1.76-3.476 4.411-6.281 7.657-8.18l0.093-0.050c1.915-0.794 4.133-1.314 6.456-1.447l0.055-0.003c0.050 0.16 0.67 10.23 0.66 11.61-0.101 1.481-0.303 2.85-0.604 4.181l0.034-0.181s-4-2.44-8.16-1.38c-3.645 0.958-6.469 3.74-7.472 7.286l-0.018 0.074z"></path>
<path fill="#6a6a6a" d="M30.11 22.18s0.53-3.69 0.54-4.89-0.8-10.82-0.6-10.95c0.282-0.069 0.607-0.109 0.94-0.109s0.658 0.040 0.968 0.115l-0.028-0.006c0.070 0.16 1.070 11.66 1.28 13.22 0.173 0.672 0.272 1.443 0.272 2.237 0 0.071-0.001 0.142-0.002 0.213l0-0.011c-0.488 0.402-1.119 0.646-1.808 0.646-0.581 0-1.122-0.174-1.573-0.473l0.011 0.007z"></path>
<path fill="#6a6a6a" d="M34.8 21.44c-0.592-2.614-1.087-5.806-1.379-9.056l-0.021-0.294c-0.17-3.62-0.51-5.65-0.060-5.83s6.66 0.17 10.42 3.45 4.060 5.61 3.81 5.66-2.52-1-2.64-0.77-0.15 0.8 0.060 0.92 2.69 1.1 2.82 1.26c0.121 0.274 0.218 0.593 0.276 0.925l0.004 0.025c-0.848-0.427-1.844-0.812-2.881-1.102l-0.119-0.028c-0.12 0.17-0.23 0.92 0 1s3 1.3 3 1.3l0.11 0.79s-2.83-1.18-3-1.14-0.36 0.8-0.15 0.92 3.16 1.26 3.25 1.43 0.41 1.36 0.41 1.36l-1.71-0.54s0.31 0.87 0.48 1 1.3 0.42 1.31 0.76c0.119 0.991 0.192 2.147 0.2 3.319l0 0.011c-0.12 0-2.2-6.45-5.21-7.090s-8.98 1.72-8.98 1.72z"></path>
<path fill="#6a6a6a" d="M22.44 22.28c2.21 0 7.19 2.45 9.76 1.84s6.89-2.79 9.51-2.81 4.070 2.48 6.36 7.84 7.14 17.34 7 17.34-8.1-17.89-9.66-20.23-2.66-3-5.86-2.77-6.81 1-6.85 1.41 0 7.17 0.49 7.75 3.060 0.71 6.18 0.51 5-0.33 5.77-0.64c0.647-0.305 1.201-0.638 1.718-1.020l-0.028 0.020 7.79 16.48c-0.901-0.893-1.859-1.731-2.869-2.507l-0.071-0.053c-0.21 0.050-0.31 0.8-0.19 0.88s3.67 3.33 4 3.7c0.613 0.762 1.151 1.627 1.578 2.553l0.032 0.077c-0.12 0.17-0.45 0.55-0.66 0.47s-5-5.71-5.39-5.83-0.45 0.6-0.45 0.6 5.18 5.5 5.060 5.63c-0.322 0.195-0.7 0.386-1.093 0.549l-0.057 0.021s-4.34-5-4.5-4.94-0.69 0.6-0.4 0.81c1.439 1.355 2.77 2.778 4.007 4.281l0.063 0.079c-0.338 0.153-0.738 0.29-1.152 0.39l-0.048 0.010c-1.151-1.333-2.321-2.547-3.552-3.694l-0.028-0.026c-0.25 0-0.61 0.39-0.49 0.55s3.34 3.29 3.22 3.46c-0.336 0.171-0.726 0.3-1.137 0.367l-0.023 0.003s-2.47-2.59-2.65-2.59-0.74 0.31-0.53 0.6 2.39 2.19 2.27 2.28c-0.291 0.091-0.631 0.159-0.982 0.189l-0.018 0.001c-0.13 0-2-2-2.22-2s-0.78 0.19-0.65 0.48 1.83 1.79 1.63 1.92-5.17 1.66-15.76 1.51-14.84-1.85-14.84-1.85c-1.296-1.281-2.672-2.489-4.116-3.612l-0.104-0.078c-0.37 0-0.78 0.6-0.61 0.72 1.043 0.834 1.976 1.684 2.852 2.591l0.008 0.009c-0.16 0-3.27-0.92-4.32-1.1-0.837-0.094-1.601-0.309-2.308-0.629l0.048 0.019c0-0.13 6-14.45 6.27-14.41s4.29 10.070 4.29 10.070c-0.038 0.171-0.059 0.367-0.059 0.568 0 0.968 0.496 1.82 1.248 2.315l0.010 0.006c0.442 0.189 0.956 0.298 1.496 0.298 0.736 0 1.424-0.204 2.012-0.558l-0.017 0.010 15.51 0.080c0.12 0 2.65 1.27 3.69-0.68s0.44-2.67 0.44-2.67 4-11.27 3.76-11.52c-0.52-0.2-1.122-0.326-1.75-0.35l-0.010-0s-2.75 10.32-3 10.33-1.26-0.3-1.68-0.34c-0.105-0.012-0.227-0.019-0.35-0.019s-0.245 0.007-0.365 0.021l0.015-0.001-5.48-7.62s1.1-6-3.28-6-3.14 6-3.14 6-1-0.060-2 1.51-3.39 6.29-3.39 6.29c-0.066-0.004-0.142-0.006-0.22-0.006-0.441 0-0.864 0.076-1.257 0.215l0.026-0.008c-0.66 0.27-1.070 0.49-1.070 0.49s-3.54-8.29-3.46-8.46 0.82-2.15 1.2-2.16 2.93 0.39 3.93 0.41 1.16-0.11 1.2-0.28 0.27-0.8 0.1-0.8-5.11-0.57-5.48-0.57-1.070 2.14-1.36 2.23-1.32 0.25-1.2 0 2.16-5.13 2.29-5.1 7.53 1.070 9.73 0.64 2.76-1.11 3.070-2.16c0.204-1.346 0.321-2.9 0.321-4.481 0-0.742-0.026-1.478-0.076-2.208l0.006 0.098c-1.828-0.741-3.946-1.214-6.161-1.309l-0.039-0.001c-2.79-0.090-4.67-0.13-5.87 1.82s-10.79 27.71-10.96 27.76c-0.346-0.061-0.654-0.162-0.942-0.299l0.022 0.009s4.91-14 6.78-19.26 3.47-11.56 9.47-11.46z"></path>
<path fill="#6a6a6a" d="M28.76 40.3c0.337 0.028 0.729 0.043 1.125 0.043s0.788-0.016 1.176-0.046l-0.051 0.003 2.29-0.090s-0.39 9.67 0 9.75 0.67 0.27 0.66-0.060-0.19-7.75 0.060-7.79 0.75 1.52 0.75 1.52-0.14 6.42 0 6.46 0.88 0.27 0.84 0.060 0-4.75 0-4.75l1.43 2.26-0.79 0.060s-0.080 2 0.17 2c0.106 0.008 0.23 0.013 0.355 0.013s0.249-0.005 0.371-0.014l-0.016 0.001c0.12 0 0.11 1.16 0.11 1.16s-7.26-0.19-9.8-0.13-2.74 0.11-2.74 0.11c-0.087-0.741-0.281-1.417-0.567-2.042l0.017 0.042-0.62-1.28s4.86-7.15 5.23-7.28z"></path>
<path fill="#1d1d1b" d="M30.57 41.13c0.28-0.1 0.79-0.060 0.84 0.1s0.41 8.41 0.17 8.63-0.88 0.14-0.88 0-0.25-8.69-0.13-8.73z"></path>
<path fill="#1d1d1b" d="M28.74 41.26c0.21-0.090 0.7-0.19 0.79 0s0.55 8.61 0.38 8.66-0.87 0.18-0.87 0-0.3-8.66-0.3-8.66z"></path>
<path fill="#1d1d1b" d="M27 44.8c0.060-0.14 0.87-0.4 0.87-0.23 0.136 1.41 0.213 3.049 0.213 4.706 0 0.191-0.001 0.383-0.003 0.574l0-0.029c-0.186 0.041-0.401 0.065-0.62 0.065-0.060 0-0.119-0.002-0.178-0.005l0.008 0s-0.38-4.88-0.29-5.080z"></path>
<path fill="#1d1d1b" d="M25.25 46.8c0-0.17 0.57-0.64 0.65-0.51 0.176 0.833 0.277 1.789 0.277 2.769 0 0.239-0.006 0.478-0.018 0.714l0.001-0.033c-0.23 0.068-0.499 0.118-0.776 0.139l-0.014 0.001s-0.16-2.88-0.12-3.080z"></path>
<path fill="#1d1d1b" d="M41.23 35.62c0.19-0.1 2.79-0.16 4.58-0.37 0.517-0.122 1.126-0.211 1.75-0.249l0.030-0.001c0.21 0 0.48 0.87 0.36 1-1.282 0.389-2.762 0.638-4.291 0.689l-0.029 0.001c-1.46 0-2.29 0-2.29 0s-0.48-0.9-0.11-1.070z"></path>
<path fill="#1d1d1b" d="M42 38.39c0.34-0.090 1.41 1.51 1.41 1.51s-0.19 0.79-0.4 0.63c-0.558-0.485-1.051-1.020-1.481-1.603l-0.019-0.027c-0.080-0.21 0.29-0.46 0.49-0.51z"></path>
<path fill="#1d1d1b" d="M40.41 39.68c0.29-0.1 2.3 1.78 2.22 2s-0.15 0.63-0.28 0.59c-0.899-0.664-1.692-1.356-2.427-2.107l-0.003-0.003c-0.040-0.22 0.37-0.44 0.49-0.48z"></path>
<path fill="#1d1d1b" d="M39.41 41.16s2.55 2 2.47 2.32c-0.090 0.256-0.212 0.478-0.364 0.675l0.004-0.005s-2.93-2.38-2.81-2.6 0.53-0.26 0.7-0.39z"></path>
<path fill="#1d1d1b" d="M14.45 48.4c0.2 0.070 2.81 2.31 2.82 2.72s-0.11 0.63-0.24 0.63c-1.091-0.77-2.047-1.552-2.945-2.394l0.015 0.014c-0.050-0.17 0.14-1.050 0.35-0.97z"></path>
<path fill="#1d1d1b" d="M13.67 50.5s3.83 3.16 3.83 3.37-0.11 0.67-0.23 0.67c-1.536-0.996-2.867-2.006-4.12-3.105l0.040 0.035c-0.040-0.25 0.48-0.97 0.48-0.97z"></path>
<path fill="#1d1d1b" d="M16.27 17c-0.17-0.24 0.44-2.3 1.57-3.91s2.19-2.52 2.65-2.4 0.77 0.61 0.6 0.82c-1.163 0.684-2.090 1.657-2.701 2.821l-0.018 0.039c-0.79 1.85-0.55 3-0.8 3.060-0.032 0.002-0.069 0.003-0.107 0.003-0.455 0-0.873-0.164-1.196-0.435l0.003 0.002z"></path>
<path fill="#1d1d1b" d="M44.85 13.23c0.603 0.011 1.157 0.212 1.608 0.545l-0.008-0.005c0.090 0.25 0.27 0.83-0.11 0.76-0.565-0.166-1.040-0.347-1.497-0.558l0.067 0.028c-0.17-0.060-0.31-0.72-0.060-0.77z"></path>
</svg>
