<!-- Generated by IcoMoon.io -->
<svg version="1.1" xmlns="http://www.w3.org/2000/svg" width="64" height="64" viewBox="0 0 64 64">
<path fill="#1d1d1b" d="M31.74 4.37c7.75-0.1 14.33 4.5 14.58 4.92s-0.16 1.080-0.41 1.25-1.090 0.5-0.84 0.58 4.090-0.25 5 0.17 4.67 3.71 4.75 4.71-0.16 1.080-0.41 1.25c-0.444 0.139-0.958 0.229-1.489 0.25l-0.011 0s2 0.33 2.66 1.5 2.090 3 1.59 3.58c-0.325 0.314-0.768 0.507-1.257 0.507-0.057 0-0.114-0.003-0.17-0.008l0.007 0.001c0.83 1.424 1.669 3.124 2.395 4.882l0.105 0.288c0.33 1.25 0.75 1.75 0.080 1.83s-5.75 0.25-5.75 0.25 6 0.67 6.090 1.090c0.376 1.286 0.695 2.838 0.894 4.427l0.016 0.153c-0.397 1.050-0.903 1.959-1.52 2.778l0.020-0.028s-7.75-0.42-12.41-0.42-7 0-7 0.25 0.33 1 0.75 1 9.25-0.16 9.5 0.090c0.163 0.861 0.257 1.852 0.257 2.865 0 0.164-0.002 0.327-0.007 0.489l0.001-0.024-13.16 1.12s-0.33 0.67 0.080 0.75 15.84-1.16 16.090-0.5 0.41 3.090-0.090 3.34-15.5 0.16-15.58 0.58-0.42 1.58-0.17 1.58 12.25-0.91 12.42-0.25c0.057 0.359 0.090 0.773 0.090 1.194 0 0.822-0.124 1.616-0.355 2.363l0.015-0.057c-0.33 0.42-11.25 1.090-11.25 1.090s0.42 4.75 0.080 5-11.5 1.91-19.5-3.75-12.090-17.84-12.34-18.46c-0.171-0.518-0.318-1.139-0.412-1.777l-0.008-0.063s-2.41-6.5 2.090-14.66 11.84-15.96 24.58-16.13z"></path>
<path fill="#1f4863" d="M32 5.73c5.24-0.46 9.37 2.44 10.25 2.81s1.87 0.81 1.56 1.13-6 1.31-6.060 1.62-0.19 1.63 0 1.69 10.5-0.69 11.44-0.25 4 2.94 3.62 3.12-13.75 0.19-13.94 0.5-0.56 2.32 0 2.57 14.19 0.060 14.63 0.37 1.31 2.31 1.060 2.5-15.87-0.060-16.25 0.38-0.060 2.37 0.31 2.43 16.070 0.13 16.38 0.5 1.62 3.25 1.25 3.38-15.44 0.62-15.56 1 0.060 1.75 0.31 1.87 14.56 0.69 14.87 1.19 1.19 0.63 0.13 0.69-17.31 0.69-32.94 0.37-16.26-0.31-16.26-0.31-0.5-8.19 3.060-13.44 9.19-13 22.14-14.12z"></path>
<path fill="#1d1d1b" d="M36.43 14.17s9.31-0.5 9.5-0.13 0.75 1.060 0.25 1.060-9.75 0.57-9.88 0.38c-0.005-0.075-0.008-0.162-0.008-0.249 0-0.377 0.050-0.742 0.144-1.090l-0.007 0.029z"></path>
<path fill="#1d1d1b" d="M34.74 19.48c0.31 0 1.87-0.19 1.94 0.060s0.18 1.31-0.13 1.25-2.44-0.19-2.44-0.19z"></path>
<path fill="#1d1d1b" d="M32.93 26.54c0.25 0.060 18.75-0.25 19.12 0.060s0.69 0.75 0.38 0.82-19.32 0.37-19.5 0.25 0-1.13 0-1.13z"></path>
<path fill="#1d1d1b" d="M29.74 30.42c0.25 0 7.62-0.38 7.81-0.070s0.75 0.63 0.25 0.82c-2.233 0.238-4.823 0.374-7.444 0.374-0.262 0-0.524-0.001-0.785-0.004l0.040 0c-0.31-0.12 0.13-1.12 0.13-1.12z"></path>
<path fill="#1d1d1b" d="M23.68 9.79c0.663-0.67 1.514-1.153 2.467-1.364l0.033-0.006c1.87-0.57 2.68-0.75 2.93-0.44s0.38 0.81 0.13 0.94-2.44 0.31-3.19 0.81-0.87 0.81-1.31 0.81-1.060-0.75-1.060-0.75z"></path>
<path fill="#1d1d1b" d="M32.050 7.6c0.18-0.060 1.81-0.18 1.94 0.13s0.5 6.62 0.12 6.87-2.56 0.38-2.5-0.12 0.25-6.81 0.44-6.88z"></path>
<path fill="#1d1d1b" d="M23.050 11.54c0.25 0.060 4.69-0.12 4.69 0.13s0.31 0.81-0.19 0.93c-0.836 0.083-1.807 0.131-2.789 0.131-0.669 0-1.332-0.022-1.99-0.065l0.089 0.005c-0.18-0.13 0.19-1.13 0.19-1.13z"></path>
<path fill="#1d1d1b" d="M22 14.48c4.27-0.88 8.19 0.87 9.44 5.5s-0.63 9.69-8.88 9.87-11.51-13.12-0.56-15.37z"></path>
<path fill="#85bfe9" d="M22.18 16.35c2.82-0.73 7.82-0.35 7.56 6.5s-9.13 5.75-10.74 3.75-3.95-8.43 3.18-10.25z"></path>
<path fill="#1d1d1b" d="M22.8 18.42c3.51-0.87 4.94 1.68 4.88 4.25s-3.5 4.33-6.38 2.68-2.56-5.93 1.5-6.93z"></path>
<path fill="#1f4863" d="M23.050 19.6c0.169-0.038 0.363-0.059 0.563-0.059 1.486 0 2.69 1.204 2.69 2.69s-1.204 2.69-2.69 2.69c-0.586 0-1.129-0.188-1.571-0.506l0.008 0.005c-0.75-0.47-1.241-1.291-1.241-2.228 0-1.313 0.966-2.401 2.226-2.591l0.014-0.002z"></path>
<path fill="#1d1d1b" d="M23.43 21.1c1.17-0.16 1.5 0.69 1.25 1.44-0.231 0.466-0.703 0.781-1.25 0.781-0.23 0-0.447-0.056-0.638-0.155l0.008 0.004c-0.246-0.219-0.401-0.537-0.401-0.891 0-0.601 0.446-1.098 1.025-1.179l0.006-0.001z"></path>
<path fill="#1d1d1b" d="M10.24 23c0.31-0.47 1.75 0.75 1.69 1-0.66 1.154-1.126 2.506-1.314 3.945l-0.006 0.055c-0.25 2.25-0.060 2.87-0.25 3.060s-1.81 0.44-1.87 0.060c-0.044-0.407-0.069-0.88-0.069-1.358 0-2.49 0.675-4.823 1.853-6.825l-0.034 0.063z"></path>
<path fill="#1f4863" d="M7.86 35.29c0.5-0.1 14.32 0.25 24.57 0.19s25.060-0.56 25.060-0.38-0.19 1.44-0.63 1.57-19.93 0.25-20.060 0.68-0.060 3.19 0.25 3.32 10.13 0.43 10.13 0.43 0.18 0.63-0.070 0.75-13.5 1-13.5 1.38-0.060 2.56 0.32 2.87 15.75-0.75 15.87-0.43 0.31 0.75 0.060 0.75-15.62 0.87-15.75 1.18-0.060 3.25 0.32 3.44 12.31-0.37 12.37-0.040 0.31 0.81 0 0.87-12.19 1.13-12.19 1.36 0.69 4 0.44 4.12-10.69 1.25-16.69-4.18-9.31-11.63-9.75-13.44-1.37-4.31-0.75-4.44z"></path>
<path fill="#1d1d1b" d="M16.050 46.73c-0.19-0.19-3.31-4-3.81-5.56s-1.13-2.75-0.69-2.94 9.19-1.31 9.56-0.88 0.32 1.88 0.94 2.13 7-0.31 7.13 0.19 0.18 2.060-0.070 2.12-6.68 0.19-7.37-0.12-1.94-2.57-1.94-2.57-3.19 0.070-4.19 0.19-2.060 0.25-1.87 0.38 1.56 3.43 2.75 5.25l1.19 1.81z"></path>
<path fill="#1d1d1b" d="M19.24 43.1c0.19-0.060 0.87-0.37 1.12-0.060s1.75 3.25 1.5 3.5-0.37 0.75-0.87 0.31c-0.648-1.070-1.239-2.307-1.704-3.605l-0.046-0.145z"></path>
<path fill="#1d1d1b" d="M21.36 48.1s6.44-0.5 6.63-0.18 0.56 0.75 0.060 0.87c-1.485 0.134-3.212 0.21-4.956 0.21-0.543 0-1.084-0.007-1.623-0.022l0.079 0.002c-0.19-0.13-0.19-0.88-0.19-0.88z"></path>
<path fill="#1d1d1b" d="M19.43 50c0.22 0 0.81 1.060 1.56 1.75 0.405 0.379 0.772 0.788 1.103 1.226l0.017 0.024s-0.43 0.5-0.68 0.44c-1.062-0.93-2.024-1.91-2.907-2.959l-0.033-0.041c-0.13-0.27 0.62-0.44 0.94-0.44z"></path>
<path fill="#1d1d1b" d="M25.43 52.6c0.68 0.070 4.75-0.18 5 0s0.62 0.82 0.18 0.88c-0.917 0.066-1.987 0.104-3.066 0.104-0.701 0-1.399-0.016-2.092-0.047l0.098 0.004c-0.31-0.12-0.12-0.94-0.12-0.94z"></path>
<path fill="#1d1d1b" d="M30.61 45c0.38-0.060 0.94-0.19 0.94 0.060s0.31 5.19-0.060 5.25-0.63 0.75-0.69-0.12-0.19-5.19-0.19-5.19z"></path>
<path fill="#1d1d1b" d="M31.74 40.17c0.375-0.105 0.805-0.165 1.25-0.165s0.875 0.060 1.284 0.173l-0.034-0.008c0.12 0.25 0.37 1.060 0.12 1.060s-2.56 0.31-2.68 0c-0.020-0.118-0.032-0.255-0.032-0.394 0-0.237 0.034-0.466 0.096-0.683l-0.004 0.017z"></path>
<path fill="#1d1d1b" d="M27.74 36.85c0.37 0 6.94-0.060 6.94 0.19s0.25 0.69-0.13 0.81c-0.98 0.062-2.126 0.097-3.28 0.097s-2.3-0.035-3.436-0.105l0.156 0.008c-0.44-0.12-0.5-1-0.25-1z"></path>
</svg>
