<!-- Generated by IcoMoon.io -->
<svg version="1.1" xmlns="http://www.w3.org/2000/svg" width="64" height="64" viewBox="0 0 64 64">
<path fill="#1d1d1b" d="M18.68 10.74c3.232-1.915 7.061-3.182 11.153-3.524l0.097-0.006c4.25-0.21 8.15 0.79 13.56 3.38s8.4 5.060 10.69 9.31 3.53 7.38 2.28 12.91-1.63 11.090-3.85 14.93-5.93 6.5-11.43 7.88-13.32 2.28-20.070-1.44-11.5-9.25-13.25-16.9-0.31-11.63 1-15.22c2.020-4.802 5.426-8.691 9.713-11.26l0.107-0.060z"></path>
<path fill="#4eae4d" d="M20.55 11.31c2.221-1.251 4.811-2.163 7.563-2.584l0.127-0.016c4-0.47 10.47 1.32 11.15 1.63s1.25 0.5 1 0.69-2.53 2.18-3.34 2.31-3.62-0.56-5.75-0.47-3.56 0.5-4.59 0.5-2.5-1.13-3.5-1.22-3.13-0.59-2.66-0.84z"></path>
<path fill="#85bfe9" d="M18.58 12.87c0.49-0.149 1.054-0.235 1.637-0.235 0.917 0 1.785 0.212 2.557 0.59l-0.034-0.015c1.62 0.88 1.44 1.25 3.65 1.22s3.29-0.4 3.94-0.25 3.41 1.35 5.85 0.88c1.625-0.276 3.069-0.891 4.312-1.772l-0.032 0.022c0.72-0.47 1.15-1.25 1.59-1.19s4.41 2.41 4.34 2.66c-0.435 0.635-1.011 1.144-1.684 1.488l-0.026 0.012c-1.25 0.842-2.214 2.023-2.772 3.41l-0.018 0.050c-0.5 1.47-0.78 5.88-0.12 6.32s2.34-0.19 3 0.31 0.81 2.060 1.91 2.19 1.56-0.69 2.56 0 1 1.21 2.56 1.25 3-0.32 3.090 0c0.035 0.155 0.055 0.334 0.055 0.517 0 0.329-0.064 0.642-0.181 0.929l0.006-0.017c-0.16 0.1-5.44 0.72-6.69 0.79s-1 0.34-1.69 0-1.78-1.63-3.39-1.88-6.53-0.56-7.5-0.56-1.25 0-1.35 0.47 0.1 5.18-0.4 6.72-0.16 4.060 1.65 4.78 3.69 1.090 3.94 1.75 1.13 5 1.91 6.47 1.87 3.15 1.5 3.46c-1.752 0.772-3.785 1.317-5.914 1.533l-0.086 0.007c-0.868 0.113-1.871 0.177-2.89 0.177s-2.022-0.064-3.007-0.189l0.117 0.012s-1.16-6-1.47-6.54c-0.269-0.572-0.426-1.242-0.426-1.949 0-0.138 0.006-0.274 0.018-0.408l-0.001 0.017c0.13-0.41 2.34-4.87 2.060-6s-0.72-2.28-1.75-2.56-2.75 0-5.53 0c-0.117 0.002-0.256 0.003-0.394 0.003-1.748 0-3.459-0.161-5.117-0.469l0.172 0.026c-0.56-0.12-0.88 0-1.13-0.28s-2.28-4-2-4.34 3.13-1.16 3.25-1.82-0.060-2.25 0.66-2.31 3.87 0.38 4.87-0.15 1.13-1.75 1.16-2.82-0.37-3.4-0.84-3.84-5-1.81-6.72-2.72-3.17-1.62-2.98-2.22c1.008-1.43 2.268-2.61 3.725-3.499l0.055-0.031z"></path>
<path fill="#1d1d1b" d="M20.49 15c0.54-0.070 0.59 0.35 0.4 0.72s0 1.72 0.6 1.69c1.756-0.422 3.934-0.795 6.152-1.038l0.248-0.022c2.91 0.143 5.64 0.736 8.181 1.711l-0.181-0.061c0.75 0.41 1.1 2 1.16 2.47-0.798 2.121-1.724 3.944-2.82 5.646l0.070-0.116c-0.28 0.15-3.19-1-5.28-2s-3-1.47-3.090-1.88c-0.095-0.631-0.269-1.2-0.516-1.728l0.016 0.038c-0.19-0.090-3-0.28-4.35-1.090s-2.56-2.13-2.31-2.69c0.407-0.707 0.993-1.27 1.697-1.639l0.023-0.011z"></path>
<path fill="#4eae4d" d="M24.36 17.87c0.826-0.116 1.78-0.183 2.75-0.183 1.595 0 3.148 0.18 4.639 0.519l-0.14-0.027c3.19 0.63 3.69 1.16 3.6 1.94s-1.28 4-1.72 3.84c-2.105-0.703-3.861-1.441-5.55-2.289l0.241 0.109c-0.22-0.32-0.29-1.88-1.22-2.16s-2.88-0.88-3.53-1.13-0.5-0.5-0.35-0.5 1.28-0.12 1.28-0.12z"></path>
<path fill="#4eae4d" d="M47.58 15.21c0.21-0.070 2.94 1.070 4.81 4.63s2.47 7.94 2.25 8.34-0.9 0.44-1.53 0.25-3.11-1.56-3.65-1.56-1.41 0.47-1.78 0-1.5-1.87-2.63-1.87-1.37 0.19-1.56-0.060-0.81-5.53 0.37-6.5 2.22-1.59 2.69-2 0.75-1.13 1.030-1.23z"></path>
<path fill="#4eae4d" d="M35.71 31c0.36 0 5.72-0.4 6.78 0.63s1.94 2.15 2.84 2.12 9.19-0.75 9.19-0.43-0.94 7.5-2.38 11.15c-1.172 2.896-3.075 5.29-5.483 7.028l-0.047 0.032c-1.15 0.66-2.34 0.91-2.43 0.72-0.986-1.709-1.774-3.688-2.261-5.783l-0.029-0.147c-0.68-3.22-0.87-4.72-1.93-5s-3.69-0.9-4.19-1.53c-0.324-0.535-0.528-1.176-0.56-1.861l-0-0.009s0.28-3.88 0.28-4.72 0.030-2.2 0.22-2.2z"></path>
<path fill="#4eae4d" d="M17.43 38.21c1.4 0.576 3.026 0.91 4.73 0.91 0.039 0 0.078-0 0.116-0.001l-0.006 0c3.31 0.060 6.56-0.31 6.91 0.090s0.28 1.78-0.44 3.1c-0.397 0.71-0.797 1.563-1.14 2.444l-0.050 0.146c-0.947-0.878-1.979-1.7-3.069-2.442l-0.091-0.058c-0.213 0.092-0.359 0.3-0.359 0.543 0 0.052 0.007 0.103 0.020 0.151l-0.001-0.004c0.13 0.28 3 2.22 3.13 2.47 0.003 0.096 0.005 0.208 0.005 0.321 0 0.504-0.038 1-0.112 1.483l0.007-0.054c-0.9-0.832-1.879-1.614-2.912-2.323l-0.088-0.057c-0.37-0.060-0.62 0.85-0.5 1s3.53 2.5 4 2.91c0.444 0.725 0.744 1.584 0.838 2.504l0.002 0.026c-0.090 0-3.9-3.090-4.12-3.13s-0.28 1-0.28 1 4.5 3.19 4.65 3.44c0.226 0.551 0.383 1.189 0.438 1.856l0.002 0.024c-1.438-0.28-2.644-0.595-3.82-0.974l0.23 0.064c-1.25-0.47-2.35-0.72-2.35-0.81s-1.17-3.78-2.81-5.38c-0.9-0.769-1.679-1.64-2.331-2.604l-0.029-0.046c-0.178-1.081-0.303-2.364-0.349-3.667l-0.001-0.053c-0.040-0.85-0.41-2.88-0.22-2.88z"></path>
<path fill="#85bfe9" d="M10.52 38.4c0.19-0.37 2.56 0.25 3.69 0.69s1.5 1 1.53 1.87-0.13 4.66 0.65 5.35c1.245 0.872 2.272 1.966 3.043 3.233l0.027 0.047c0.43 0.628 0.773 1.357 0.988 2.139l0.012 0.051c-2.351-1.45-4.318-3.286-5.869-5.44l-0.041-0.060c-3.19-4.13-4.12-7.69-4.030-7.88z"></path>
<path fill="#4eae4d" d="M9.61 36.18c-0.465-1.508-0.733-3.241-0.733-5.036 0-1.641 0.224-3.23 0.643-4.738l-0.029 0.124c1.37-5.69 4-8.72 4.22-8.69s5.4 3 7.5 4 2.22 1 2.37 1.44c0.038 0.331 0.060 0.714 0.060 1.103 0 0.793-0.091 1.565-0.264 2.306l0.013-0.068c-0.18 0.090-3.93-0.090-5 0s-1.39 1.59-1.31 2.19 0.13 0.87-0.12 1.060-3.6 1.090-3.78 2 2.37 5.37 2 5.5-4.57-0.16-5.57-1.19z"></path>
<path fill="#1d1d1b" d="M11.36 25.18c0.297-1.393 0.696-2.613 1.208-3.772l-0.048 0.122c0.5-0.75 0.72-0.91 0.94-0.85s0.84 0.35 0.78 0.53-1.13 2.25-1.41 3.16 0 0.91-0.4 1-0.94 0.030-1.070-0.19z"></path>
<path fill="#1d1d1b" d="M40 15.59c0.16-0.14 2.53-0.72 2.69-0.5s0.34 0.44 0.18 0.56c-0.752 0.385-1.625 0.708-2.54 0.924l-0.080 0.016c-0.2-0.1-0.45-0.85-0.25-1z"></path>
<path fill="#1d1d1b" d="M38.46 22.93c0.15 0.16 1.47 2.28 1.31 2.47s0 0.47-0.34 0.31c-0.655-0.607-1.177-1.347-1.525-2.179l-0.015-0.041c0.11-0.25 0.57-0.56 0.57-0.56z"></path>
<path fill="#1d1d1b" d="M37 24.37c0.637 0.619 1.203 1.303 1.692 2.044l0.028 0.046c0 0.19 0 0.47-0.31 0.38-0.722-0.517-1.337-1.125-1.844-1.817l-0.016-0.023c0-0.16 0.45-0.66 0.45-0.63z"></path>
<path fill="#1d1d1b" d="M49.33 19.65c0.956 0.258 1.791 0.678 2.517 1.233l-0.017-0.013c0 0.19 0.1 0.69-0.15 0.59s-2.54-1-2.63-1.12 0.25-0.66 0.28-0.69z"></path>
<path fill="#1d1d1b" d="M49.11 22c0.080-0.11 4 2.18 4 2.53s0.35 0.59-0.060 0.53c-1.654-0.687-3.050-1.41-4.379-2.234l0.129 0.074c-0.12-0.19 0.2-0.75 0.31-0.9z"></path>
<path fill="#1d1d1b" d="M48.74 24c1.852 0.765 3.445 1.643 4.923 2.675l-0.083-0.055c0.060 0.28 0.28 0.59-0.12 0.56-1.953-0.784-3.578-1.579-5.138-2.475l0.197 0.105c-0.090-0.13 0.090-0.75 0.22-0.81z"></path>
<path fill="#1d1d1b" d="M49.68 35.53c1.117 0.789 2.073 1.707 2.877 2.749l0.023 0.031c-0.090 0.25 0 0.37-0.28 0.28-1.159-0.841-2.179-1.734-3.112-2.711l-0.008-0.009c0.060-0.16 0.34-0.28 0.5-0.34z"></path>
<path fill="#1d1d1b" d="M48.11 37.43c1.226 0.986 2.321 2.021 3.328 3.135l0.022 0.025c0 0.25-0.13 0.47-0.25 0.44-1.262-0.989-2.383-1.97-3.449-3.009l0.009 0.009c0.111-0.233 0.225-0.43 0.351-0.617l-0.011 0.017z"></path>
<path fill="#1d1d1b" d="M47.11 39.46c1.239 1.006 2.336 2.094 3.319 3.281l0.031 0.039c-0.070 0.25 0.060 0.4-0.25 0.37-1.29-1.023-2.441-2.053-3.528-3.148l-0.002-0.002c0.13-0.203 0.272-0.38 0.43-0.54l-0 0z"></path>
<path fill="#1d1d1b" d="M46.33 41.12c1.245 1.021 2.359 2.094 3.384 3.25l0.026 0.030c0 0.25-0.1 0.41-0.22 0.31-1.434-1.032-2.686-2.046-3.878-3.124l0.038 0.034c0.116-0.265 0.356-0.456 0.645-0.499l0.005-0.001z"></path>
<path fill="#1d1d1b" d="M45.71 44.12c1.159 0.796 2.164 1.693 3.044 2.701l0.016 0.019c0 0.22-0.16 0.37-0.25 0.34-1.196-0.831-2.236-1.652-3.224-2.53l0.034 0.030c-0.030-0.19 0.31-0.53 0.38-0.56z"></path>
<path fill="#1d1d1b" d="M45 45.93c0.17 0 3.25 2.69 3 2.94s-0.12 0.37-0.37 0.28c-1.165-0.832-2.188-1.716-3.124-2.684l-0.006-0.006c0.11-0.15 0.33-0.53 0.5-0.53z"></path>
<path fill="#1d1d1b" d="M35.18 43.43c0.090-0.14 1.31 0.31 1.28 0.6s0 0.34-0.16 0.34c-0.568-0.070-1.085-0.225-1.56-0.453l0.030 0.013c0-0.12 0.34-0.4 0.41-0.5z"></path>
<path fill="#1d1d1b" d="M33.14 47.28c0.171-0.076 0.37-0.12 0.58-0.12s0.409 0.044 0.589 0.124l-0.009-0.004c0.47 0.22 1.16 1 1.78 1.1s1.1-0.28 1.25-0.19c0.114 0.064 0.19 0.185 0.19 0.323 0 0.053-0.011 0.103-0.031 0.149l0.001-0.002c-0.1 0.16-0.16 0.31-0.41 0.37-0.169 0.052-0.364 0.082-0.566 0.082-0.342 0-0.664-0.086-0.945-0.237l0.011 0.005c-0.58-0.39-0.94-0.88-1.58-0.88s-0.57 0.12-0.69 0-0.42-0.51-0.17-0.72z"></path>
<path fill="#1d1d1b" d="M26 40.15c0.25 0.16 2.060 1.75 2 2s-0.19 0.5-0.38 0.44c-0.82-0.522-1.527-1.124-2.142-1.81l-0.009-0.010c-0.010-0.24 0.53-0.62 0.53-0.62z"></path>
<path fill="#1d1d1b" d="M24.21 30.43c0.12 0 2.81 4.19 2.59 4.41s-0.34 0.44-0.47 0.31c-0.93-1.24-1.868-2.657-2.725-4.127l-0.115-0.213c0.188-0.194 0.435-0.33 0.712-0.379l0.008-0.001z"></path>
<path fill="#1d1d1b" d="M25.24 30c0-0.12 0.59-0.38 0.78-0.19 0.536 0.783 0.999 1.682 1.344 2.636l0.026 0.084c-0.090 0.18 0 0.47-0.25 0.28-0.685-0.823-1.315-1.743-1.854-2.719l-0.046-0.091z"></path>
<path fill="#1d1d1b" d="M30.74 29.71c0.080-0.11 1-1 1.28-1s1 0 0.91 0.22-1.41 1.91-1.66 1.75c-0.274-0.247-0.466-0.582-0.529-0.96l-0.001-0.010z"></path>
</svg>
