<!-- Generated by IcoMoon.io -->
<svg version="1.1" xmlns="http://www.w3.org/2000/svg" width="64" height="64" viewBox="0 0 64 64">
<path fill="#1d1d1b" d="M26.12 18.11c1.31 0.2 3.94 1.56 7.12 4.44s12.44 12.5 12.69 13.31-0.37 2.5-2.25 4.75-3.12 3.060-3.87 2.69-1.57-0.82-1.57-0.82-5.18 6.19-8.12 7.38-6.44 2.25-10.63-1-5.25-6.38-3.75-10.44 4.88-11.12 4.88-11.12c-0.502-0.368-0.825-0.955-0.825-1.618 0-0.321 0.076-0.624 0.21-0.893l-0.005 0.012c0.74-1.5 4.12-7 6.12-6.69z"></path>
<path fill="#696a9b" d="M26.43 19.61c0.62-0.62 4.69 3.31 9.25 7.94s8 8.060 8 9.060-1.94 3.81-2.68 4.19-0.93 0.75-0.75 0.37 1.38-4.5 1.13-4.69-0.31-0.43-0.56-0.31-1.38 4.5-1.57 4.31-1.62-1.25-1.68-1.56 1.5-3.75 1.25-4c-0.23-0.177-0.506-0.306-0.807-0.368l-0.013-0.002s-1.25 3.81-1.43 3.62-1.13-1-1.13-1 1.19-2.75 0.88-2.94-0.5-0.56-0.75-0.43c-0.385 0.712-0.726 1.542-0.977 2.409l-0.023 0.091s-6.88-5.69-9-7.5-3.5-2.13-3.32-3.57 3.99-5.43 4.18-5.62z"></path>
<path fill="#1d1d1b" d="M24.12 24.67c0.070-0.3 2.25-3 2.62-2.94s0.75 0.38 0.57 0.69-2.070 3.38-2.38 3.25-0.87-0.75-0.81-1z"></path>
<path fill="#92a0d1" d="M21.74 28.42c0.34-0.21 7.88 5.75 10.070 7.63s5.12 4.95 4.81 5.25c-0.337 0.296-0.705 0.582-1.091 0.845l-0.039 0.025s-0.060-1.56-0.43-1.62-0.25-0.25-0.38-0.070 0.15 2.17 0.060 2.38c-0.246 0.311-0.519 0.584-0.82 0.822l-0.010 0.008s-0.080-2.66-0.33-2.75-0.92 0.38-0.84 0.54 0.46 2.88 0.46 2.88l-0.71 0.79s-0.29-3-0.58-3-0.79 0.29-0.67 0.58c0.278 0.967 0.474 2.093 0.548 3.253l0.002 0.047c-1.217 1.203-2.656 2.184-4.25 2.875l-0.090 0.035c-0.447 0.074-0.962 0.117-1.486 0.117-2.562 0-4.887-1.013-6.597-2.66l0.003 0.003c-2.29-2.42-2.92-6-1.5-9.79 1.217-3.193 2.518-5.891 4.015-8.46l-0.145 0.27z"></path>
<path fill="#1d1d1b" d="M23 34.36c0.758-0.401 1.657-0.636 2.61-0.636 2.305 0 4.289 1.376 5.175 3.351l0.014 0.036c1.5 3.58-3.38 9.080-7.38 6.87-3.26-1.79-4.68-6.87-0.42-9.62z"></path>
<path fill="#fab900" d="M23.83 35.82c0.522-0.274 1.141-0.435 1.798-0.435 1.593 0 2.965 0.948 3.582 2.311l0.010 0.025c1 2.48-2.34 6.28-5.1 4.76-1.256-0.643-2.101-1.928-2.101-3.411 0-1.366 0.717-2.564 1.795-3.239l0.016-0.009z"></path>
<path fill="#1d1d1b" d="M24.080 37.9c0.080-0.25 0.62-0.37 0.71-0.080 0.087 0.562 0.137 1.21 0.137 1.87 0 0.426-0.021 0.847-0.061 1.262l0.004-0.053c-0.17 0.21-0.79 0.080-0.88-0.080-0.017-0.28-0.026-0.608-0.026-0.938 0-0.698 0.042-1.387 0.124-2.063l-0.008 0.081z"></path>
<path fill="#1d1d1b" d="M26 37.61c0-0.35 0.92-0.17 0.92 0.080 0.005 0.112 0.009 0.244 0.009 0.377 0 0.686-0.083 1.353-0.24 1.99l0.012-0.057c-0.21 0.21-0.58 0.55-0.71 0.13-0.025-0.356-0.040-0.771-0.040-1.19 0-0.468 0.018-0.932 0.054-1.391l-0.004 0.061z"></path>
<path fill="#1d1d1b" d="M12.29 39.82c0.26-0.29 2-0.17 1.83 0.080-0.415 0.918-0.657 1.99-0.657 3.118 0 1.858 0.655 3.563 1.748 4.896l-0.011-0.014c3 3.58 5.92 4.63 7.71 4.75s4.29 0 4.42 0.21 0.21 1.12 0 1.25c-0.908 0.275-1.951 0.434-3.032 0.434-1.701 0-3.31-0.392-4.742-1.092l0.064 0.028c-3.79-1.83-6.17-4.16-7.25-6.87s-0.54-6.29-0.080-6.79z"></path>
<path fill="#1d1d1b" d="M55.79 28.36c-0.34 0.080-1.5 1.33-4.17 4.83s-13.62 15.81-18.17 19.75-7.83 5.75-10.33 5.34-11.33-4.5-13-8.25-0.67-7.5 0.080-9.75 7.5-14.75 10.17-18.92 10.92-15.75 10.92-15.75-0.47-0.87-0.84-0.67c-1.66 0.92-9.25 12.17-13.75 19.75s-10.7 18.090-9.83 23.42 7.67 9.17 13.58 11.42 10-1.25 16.42-7.090 20.13-22.75 20.33-23.16-1.080-1-1.41-0.92zM32.16 17.94c0.38-0.21 8.17-10.66 8.38-11s-1.090-1.12-1.46-1-8.35 10.84-8.25 11c0.25 0.54 0.96 1.21 1.33 1zM37.16 22.94c0.33-0.12 15.84-17.58 15.84-17.79s-1-1.58-1.46-1.33-15.71 17.64-15.71 18c0.040 0.25 1 1.33 1.33 1.18zM40.33 24.74c0.16 0.16 1 1.080 1.21 0.95s13-14.080 13.16-14.41-1-1.21-1.29-1.25-13.41 14.45-13.080 14.75zM43.33 30.32c0 0.29 1 1.25 1.21 1.17s11.46-11.92 11.62-12.42-1.080-1.54-1.54-1.5-11.29 12.52-11.29 12.79z"></path>
</svg>
