<!-- Generated by IcoMoon.io -->
<svg version="1.1" xmlns="http://www.w3.org/2000/svg" width="64" height="64" viewBox="0 0 64 64">
<path fill="#1d1d1b" d="M31 7.16c0.42-0.27 1.31 0.87 1.18 1.22s-13.4 12.78-17.31 16.34c-3.119 3.012-5.552 6.714-7.057 10.86l-0.063 0.2c-0.75 2.35-1.53 7.85 1.47 12.56s7.090 7.13 10.43 7.72 6.47 0.5 11.63-3.9c6.57-5.919 12.625-11.936 18.377-18.236l0.183-0.204c3.28-3.78 7.81-8.060 8.19-8s1 1.090 0.81 1.25-19.19 19.44-23.090 23.22-9.16 7.9-13.070 7.87-8.81-0.87-12.18-4.59-5.6-7.53-5.35-12.75c0.297-4.764 1.916-9.099 4.49-12.704l-0.050 0.074c2-2.75 18.59-19.15 21.41-20.93z"></path>
<path fill="#1d1d1b" d="M27.9 23c-0.12-0.54 17.82-17 18.28-17s1 1 0.94 1.22-18 16.68-18.34 16.75-0.78-0.72-0.88-0.97z"></path>
<path fill="#1d1d1b" d="M36.060 24.66c0-0.31 18.19-17 18.56-17.1s1 0.94 0.94 1.16-18.25 17.060-18.56 16.97-1-0.81-0.94-1.030z"></path>
<path fill="#1d1d1b" d="M36.22 34.94c0-0.42 15.71-15.35 15.93-15.28s1.13 1 0.91 1.34-15.69 15.13-15.88 15.13-1-0.88-0.96-1.19z"></path>
<path fill="#1d1d1b" d="M11.090 34.75c0.17-0.12 1.63-0.12 1.53 0.22-0.444 1.040-0.701 2.251-0.701 3.521 0 2.754 1.212 5.225 3.131 6.91l0.010 0.009c5 4.43 9.5 4.84 10.53 4.93s1.72 0.25 1.84 0.44 0.19 1.41-0.21 1.5-8.57-0.28-12.57-4.090-4.65-8.25-4.4-10.060 0.56-3.19 0.84-3.38z"></path>
<path fill="#1d1d1b" d="M14.37 36.090c0.27-0.42 5.75-4.75 5.91-5.090s1.34-6.91 2.060-7.37 5.41 4.46 5.81 4.5 7.75 0.25 8.41 0.93-3.060 6.32-3 6.53 3.34 7.94 3 8.47-8.1-1.93-8.41-1.68-4.84 4-5.090 4.12-1.25 0.34-1.38-1.28-0.68-7.22-0.96-7.38-4.22-0.28-5-0.4-2-0.31-1.35-1.35z"></path>
<path fill="#fab900" d="M17.15 35.63c-0.12-0.27 4.88-3.85 4.91-4s0.81-5.71 1.28-5.75 3.94 4.030 4.56 4.12 6.82 0 6.69 0.38-2.75 4.87-2.84 5.28 2.37 6.37 2.18 6.5-5.71-1.69-6.28-1.53-3.84 3.53-4.090 3.37-0.75-6.63-1-7c-0.299-0.42-0.784-0.69-1.332-0.69-0.013 0-0.027 0-0.040 0.001l0.002-0c-0.63-0.12-3.88-0.31-4.040-0.68z"></path>
<path fill="#1d1d1b" d="M23.68 28.31c0.21-0.27 0.82-0.15 0.82 0.16s-0.28 3.94-0.57 4-0.81 0.16-0.87-0.13c0.097-1.481 0.317-2.858 0.654-4.189l-0.034 0.159z"></path>
<path fill="#1d1d1b" d="M28.37 34c0.21-0.1 1.75 0.41 1.78 0.69s0 0.78-0.12 0.78c-0.648-0.118-1.225-0.302-1.766-0.549l0.046 0.019c-0.090-0.16-0.060-0.88 0.060-0.94z"></path>
<path fill="#1d1d1b" d="M28.25 36.22c0.743 0.090 1.419 0.299 2.036 0.606l-0.036-0.016c0.25 0.28 0.53 0.85 0.28 0.94-0.889-0.087-1.706-0.296-2.467-0.611l0.057 0.021c-0.12-0.16-0.12-0.91 0.13-0.94z"></path>
<path fill="#1d1d1b" d="M28.090 38.13c1.104 0.273 2.073 0.657 2.973 1.152l-0.063-0.032c0.12 0.19 0.43 0.84 0.15 0.84-1.209-0.277-2.212-0.576-3.189-0.93l0.189 0.060c-0.15-0.090-0.25-1.060-0.060-1.090z"></path>
</svg>
