<!-- Generated by IcoMoon.io -->
<svg version="1.1" xmlns="http://www.w3.org/2000/svg" width="64" height="64" viewBox="0 0 64 64">
<path fill="#1d1d1b" d="M56.12 25c-0.41 0-1.25 1.83-2.54 4s-9.080 13.52-11.37 16.43-7.75 8.75-11 11-7.7 2.3-12.54 0.090-9-5.63-9.91-9.88 0.4-9.080 5.070-16.64 19.17-24.69 19.29-25-1.12-1-1.54-0.86c-1.5 0.59-15.79 19.92-19.21 25s-6 10-6.16 15.25 4.2 9.090 6.66 11.21 9.25 4.92 13.54 4.46 9.84-4.33 13.84-9.25 17.58-24.63 17.54-24.88c-0.422-0.481-0.999-0.817-1.653-0.928l-0.017-0.002zM32.58 18.23c0.42-0.17 9.13-11.23 9.29-11.67s-1.29-1.25-1.58-1.17-8.88 11.29-9 12c-0.13 0.38 0.87 1 1.29 0.84zM40.25 20.85c0.54 0 12.5-15.29 12.54-15.71s-1.080-1.25-1.46-1.25-12.17 15.26-12.33 15.88c-0.13 0.23 0.71 1.080 1.25 1.080zM45.83 25.48c0.29-0.050 10-12.090 10.080-12.34s-1.080-0.83-1.41-0.91-10.060 11.77-9.92 12.33c0.040 0.17 0.96 0.96 1.25 0.92z"></path>
<path fill="#1d1d1b" d="M19.29 32.56c0-0.42-1.5-1.71-1.79-1.75-0 0-0.001 0-0.001 0-0.436 0-0.79-0.354-0.79-0.79 0-0.014 0-0.028 0.001-0.042l-0 0.002c0-0.67-0.21-4.5 5-7.46s9.58-2.42 11.37-0.84 0.5 2.090 2.71 2.8 5.38 0.58 7.25 4.080 2.54 6.46 1 9.71-3 3.080-3.83 4.87-2 5.21-3.42 5.67-4.12-0.75-5-0.83c-0.369-0.023-0.799-0.036-1.233-0.036-0.901 0-1.789 0.057-2.66 0.167l0.104-0.011c-1.75 0.17-1.83 1-3.29 0.25s-2.46-3.46-4.29-3.79-4 0-4.92-2.54-1-6.54 0.080-7.17 3.67-1.58 3.71-2.29z"></path>
<path fill="#1d1d1b" d="M11.87 40.6c0.24-0.34 1.63-0.37 1.67 0s-0.63 2.58-0.21 3.62c0.572 1.217 1.408 2.226 2.439 2.985l0.021 0.015c1.031 0.808 1.923 1.723 2.683 2.742l0.027 0.038c0.79 1 0.83 1.79 2.79 2.46s2.92 1 4.25 0.87 3.21-0.67 3.33-0.54 0.67 1.080 0.46 1.21c-0.913 0.4-1.977 0.633-3.096 0.633-0.511 0-1.010-0.049-1.494-0.141l0.049 0.008c-2.71-0.38-4.83-0.46-6.33-1.79s-2.21-3.84-4-4.88c-1.366-0.652-2.385-1.845-2.791-3.294l-0.009-0.036c-0.1-0.466-0.158-1.001-0.158-1.55 0-0.84 0.135-1.648 0.383-2.404l-0.015 0.054z"></path>
<path fill="#e6e4da" d="M16.87 36c0.49-0.49 3.75-1.46 4.25-2.79 0.049-0.202 0.076-0.434 0.076-0.673 0-0.977-0.467-1.844-1.189-2.392l-0.007-0.005c-0.5-0.33-1.090-0.62-1-1.21 0.526-2.698 2.503-4.828 5.069-5.567l0.051-0.012c4.38-1.5 6-1.79 7.67-0.12s1.75 2.66 4.17 3.41 3.91 0.38 5.2 2.42 2.17 5.25 1.5 7.42-1.45 3.080-2.12 3.52c-0.698 0.43-1.29 0.955-1.779 1.566l-0.011 0.014c-0.123 0.212-0.237 0.459-0.33 0.718l-0.010 0.032c-0.465-1.027-0.966-1.903-1.537-2.727l0.037 0.057c-0.2 0-0.79 0-0.62 0.3s1.62 2.83 1.71 3.16c-0.211 1.275-0.663 2.414-1.311 3.415l0.021-0.035c-0.55 0.58-2.050 0.54-3.38 0.12-0.807-0.325-1.743-0.514-2.723-0.514-0.316 0-0.628 0.020-0.933 0.058l0.037-0.004c-1.63 0.17-2.75 1-4 0.25s-2-2.66-3.75-3.2-3.55-0.38-4.5-1.92c-0.489-1.037-0.774-2.253-0.774-3.535 0-0.621 0.067-1.227 0.194-1.811l-0.010 0.056z"></path>
<path fill="#1d1d1b" d="M18.75 36.27c0.079-0.060 0.18-0.097 0.289-0.097 0.218 0 0.401 0.145 0.46 0.343l0.001 0.003c-0.070 0.356-0.111 0.766-0.111 1.185s0.040 0.829 0.117 1.225l-0.006-0.040c0.33 1.13 1 1.63 0.79 1.92s-0.79 0.58-1.080 0.29c-0.528-0.682-0.886-1.521-0.998-2.436l-0.002-0.024c-0.009-0.101-0.014-0.219-0.014-0.338 0-0.749 0.206-1.45 0.564-2.050l-0.010 0.018z"></path>
<path fill="#1d1d1b" d="M28.25 25.81c0.411-0.276 0.916-0.441 1.46-0.441 1.458 0 2.64 1.182 2.64 2.64 0 0.257-0.037 0.505-0.105 0.739l0.005-0.019c-0.55 2.29-4.13 3.91-5.46 1.95s-0.38-3.95 1.46-4.87z"></path>
<path fill="#fff" d="M28.67 26.81c0.275-0.175 0.61-0.279 0.969-0.279 1.005 0 1.82 0.815 1.82 1.82 0 0.163-0.021 0.322-0.062 0.472l0.003-0.013c-0.38 1.58-2.84 2.7-3.76 1.35-0.248-0.355-0.397-0.795-0.397-1.27 0-0.943 0.585-1.749 1.412-2.075l0.015-0.005z"></path>
<path fill="#1d1d1b" d="M32.5 40.81c0.22 0.1 0.41-0.54 0.080-0.88-0.634-0.364-1.395-0.579-2.205-0.579-0.569 0-1.114 0.106-1.615 0.299l0.031-0.010c-1.5 0.67-2.83 3-1.75 4.29 0.767 0.921 1.914 1.504 3.197 1.504 0.061 0 0.122-0.001 0.182-0.004l-0.009 0c0.71 0 1.84-0.54 1.5-0.87s-2.87-0.54-2.33-2 2.040-2.17 2.92-1.75z"></path>
<path fill="#1d1d1b" d="M40.21 32.27c-0.3-0.21-2.88-1-3.63 1.12s-0.83 3 0.080 3.79c0.516 0.47 1.205 0.757 1.962 0.757 0.252 0 0.496-0.032 0.728-0.092l-0.020 0.004c0.33-0.21 0.29-0.83 0.080-0.92s-1.79-0.66-1.29-2c0.366-0.823 0.99-1.476 1.768-1.87l0.022-0.010c0.186-0.197 0.3-0.463 0.3-0.755 0-0.009-0-0.017-0-0.026v0.001z"></path>
<path fill="#1d1d1b" d="M38.12 38.85c-0.23-0.23 0.59-0.37 0.71-0.21s0.63 1 0.38 1.34-0.42 0.62-0.59 0.41c-0.165-0.404-0.336-0.917-0.477-1.442l-0.023-0.098z"></path>
<path fill="#1d1d1b" d="M35.5 40.68c0.667 0.755 1.182 1.661 1.487 2.659l0.013 0.051c-0.090 0.42 0 0.88-0.38 0.67-0.63-0.771-1.173-1.65-1.591-2.597l-0.029-0.073c-0.090-0.29 0.33-0.66 0.5-0.71z"></path>
<path fill="#1d1d1b" d="M30.79 33.77c0.24-0.24 0.37-0.5 0.62-0.25s1.67 3.080 1.38 3.41-0.29 0.67-0.58 0.34c-0.577-1.006-1.062-2.169-1.396-3.395l-0.024-0.105z"></path>
<path fill="#1d1d1b" d="M32.71 32.64c-0.17-0.32 0.29-0.54 0.54-0.41s1.5 3 1.21 3.2-0.38 0.63-0.63 0.3c-0.35-0.791-0.731-1.815-1.059-2.863l-0.061-0.227z"></path>
<path fill="#1d1d1b" d="M34 30.48c0.1-0.25 0.62-0.67 0.83-0.46 0.481 0.765 0.854 1.654 1.069 2.603l0.011 0.057c-0.080 0.34-0.58 0.59-0.58 0.59-0.467-0.785-0.914-1.704-1.286-2.66l-0.044-0.13z"></path>
<path fill="#1d1d1b" d="M35.83 28.52s0.29-0.46 0.54-0.38c0.444 0.411 0.758 0.957 0.877 1.572l0.003 0.018c-0.090 0.29 0 0.54-0.38 0.41s-0.96-1.5-1.040-1.62z"></path>
</svg>
