<!-- Generated by IcoMoon.io -->
<svg version="1.1" xmlns="http://www.w3.org/2000/svg" width="64" height="64" viewBox="0 0 64 64">
<path fill="#1d1d1b" d="M5.73 47.64c1.509-1.356 3.399-2.319 5.49-2.709l0.070-0.011c1.31-0.090 3.28 0 4.66-0.87s2.4-2.78 4.84-3 3.63-0.22 4.69-0.38c0.729-0.109 1.383-0.284 2.005-0.522l-0.065 0.022s-0.42-6.87-1.42-13.28-2.8-12.53-2.71-12.75 1.88-0.94 2-0.66c0.104 0.207 0.191 0.447 0.246 0.699l0.004 0.021 14.31-5.090c5.35-1.91 8.15-2.56 8.91-2.56s1.13 0.87 0.84 2.31-1 2.47 0.32 3.72 2.68 1.75 2.5 4.090-1.78 2.44-1 4.1 2.68 2.23 2.58 4.37-1 2.44-4.22 3.41-10.78 2.93-11.78 2.93c-0.1-0.005-0.217-0.007-0.335-0.007-1.112 0-2.169 0.235-3.125 0.657l0.050-0.020c-2.276 0.622-4.187 1.304-6.033 2.11l0.283-0.11c0 0.19 0.44 5.12 0.44 5.12s4-1.31 5.75-0.81 1.22 1.88 3.78 1.66 4.66-1.31 7.6-0.38 3 2.44 5.46 3.16c3.031 0.774 5.509 2.72 6.971 5.315l0.029 0.055c1.56 3.13 1.43 7.54 1.060 8.25s-3 1-3.63 1-17.34-0.9-24.15-0.62-21.82 0.44-23.85 0.4c-0.12 0.013-0.259 0.021-0.4 0.021-1.626 0-3.019-1.003-3.591-2.425l-0.009-0.026c-0.79-1.78-0.82-5.25 1.43-7.19z"></path>
<path fill="#cbe7f5" d="M25.89 15.92c0.21-0.090 10.18-3.81 13.78-5s7.65-2.12 7.65-2.12-0.37 2.87 0.53 3.9 2.88 1.91 2.5 3.72-1.62 3.19-0.71 4.66 2.43 2.47 2.31 3.62-1.75 1.6-2.44 2-11.44 3.22-13.94 3.66c-2.796 0.613-5.106 1.271-7.36 2.048l0.46-0.138z"></path>
<path fill="#1d1d1b" d="M27.89 16.92c0.15 0 0.75-0.34 0.81-0.12 0.269 0.938 0.458 2.031 0.528 3.156l0.002 0.044c-0.16 0.28-0.66 0.5-0.75 0.34-0.279-0.99-0.488-2.156-0.586-3.352l-0.004-0.068z"></path>
<path fill="#1d1d1b" d="M46.64 14.27c0.080-0.17 1.46 0.18 1.46 0.4s0 0.56-0.12 0.56c-0.55-0.014-1.075-0.098-1.574-0.241l0.044 0.011c-0.1-0.14 0.15-0.67 0.19-0.73z"></path>
<path fill="#1d1d1b" d="M46.23 17.11c0.911 0.054 1.763 0.233 2.564 0.52l-0.064-0.020c0 0.16-0.060 0.69-0.19 0.69s-2.5-0.44-2.5-0.44-0.040-0.66 0.19-0.75z"></path>
<path fill="#1d1d1b" d="M45.67 18.92c0.997 0.005 1.952 0.176 2.841 0.489l-0.061-0.019c0.090 0.25 0.19 0.69 0 0.78-1.124-0.116-2.143-0.313-3.129-0.591l0.129 0.031c-0.060-0.060 0.060-0.61 0.22-0.69z"></path>
<path fill="#1d1d1b" d="M45.23 21.27c1.107 0.105 2.124 0.382 3.061 0.805l-0.061-0.024c0 0.22 0.090 0.47-0.060 0.53-1.207-0.158-2.28-0.389-3.319-0.698l0.149 0.038c-0.15-0.090 0.1-0.56 0.23-0.65z"></path>
<path fill="#1d1d1b" d="M44.29 23.14c1.574 0.431 2.904 0.912 4.184 1.483l-0.184-0.073c0 0.15-0.15 0.65-0.25 0.65s-4.15-1.28-4.15-1.37 0.28-0.66 0.4-0.69z"></path>
<path fill="#1d1d1b" d="M43.17 25c1.455 0.338 2.732 0.805 3.931 1.406l-0.101-0.046c-0.060 0.19-0.090 0.53-0.25 0.56s-3.75-1.15-3.9-1.22 0.22-0.7 0.32-0.7z"></path>
<path fill="#e6e4da" d="M8.42 48c1.49-0.7 3.37-1.72 4.81-1.78s2.47 0.13 4-1 2.44-2.43 4.66-2.78 4.090-0.5 4.68-0.59 1-0.19 1-0.19-0.060 0.81 0.16 0.91c0.161 0.030 0.347 0.047 0.537 0.047 0.4 0 0.783-0.076 1.134-0.214l-0.021 0.007c0.32-0.22 0.25-1.53 0.25-1.53 0.967-0.607 2.142-0.968 3.401-0.968 0.211 0 0.419 0.010 0.625 0.030l-0.026-0.002c1.85 0.41 2.75 1.81 4.91 1.69s4.75-1.25 7.25-0.31 1.81 2.040 3.78 2.68 5.16 0.75 6.88 3.88 1.81 7.15 1.47 7.44-6.28 0.25-12.72 0.060-14.38-0.060-22 0.15-14.6 0.47-15 0.35c-0.894-0-1.65-0.587-1.906-1.396l-0.004-0.014c-0.56-1.42-1.12-4.99 2.13-6.47z"></path>
<path fill="#1d1d1b" d="M21.070 43.77c1.59-0.26 2.19 1 1.53 2.12-0.349 0.537-0.945 0.887-1.624 0.887-0.539 0-1.026-0.221-1.376-0.577l-0-0c-0.6-0.84 0.13-2.2 1.47-2.43z"></path>
<path fill="#fff" d="M21.1 44.5c0.8-0.13 1.11 0.52 0.78 1.080-0.182 0.27-0.486 0.444-0.831 0.444-0.272 0-0.518-0.108-0.699-0.285l0 0c-0.35-0.43 0.060-1.13 0.75-1.24z"></path>
<path fill="#1d1d1b" d="M39 42.45c0.72-0.3 2.37-0.43 2.47 0.19s-1.070 1.22-2.13 1-1.2-0.84-0.34-1.19z"></path>
<path fill="#1d1d1b" d="M50.82 46.8c0.227-0.044 0.487-0.068 0.754-0.068 0.876 0 1.688 0.269 2.361 0.728l-0.014-0.009c0.78 0.78-0.66 1.5-1.32 1.5-0.685-0.094-1.286-0.397-1.751-0.841l0.001 0.001c-0.34-0.31-0.56-1.19-0.030-1.31z"></path>
<path fill="#1d1d1b" d="M19.17 51.52c0.094-1.185 0.806-2.184 1.811-2.681l0.019-0.009c1.274-0.791 2.821-1.261 4.477-1.261 0.293 0 0.583 0.015 0.869 0.044l-0.036-0.003c2.59 0.12 2.59 0.69 2.41 1s-0.63 1-0.88 1-2.84-0.84-4.84 0.12-2.13 1.47-2.31 1.85-1.4 0.19-1.52-0.060z"></path>
<path fill="#1d1d1b" d="M14.67 47.89c0.14 0 2.43 1.13 2.34 1.34s-0.25 0.5-0.41 0.5c-0.999-0.363-1.834-0.74-2.635-1.172l0.105 0.051c-0.070-0.13 0.47-0.72 0.6-0.72z"></path>
<path fill="#1d1d1b" d="M12.85 49.36c1.521 0.865 2.828 1.765 4.053 2.762l-0.053-0.042c-0.13 0.15-0.35 0.5-0.47 0.47s-4.18-2.55-4.21-2.66 0.53-0.5 0.68-0.53z"></path>
<path fill="#1d1d1b" d="M10.89 50.3c1.634 1.031 3.041 2.059 4.373 3.172l-0.063-0.051c-0.098 0.192-0.263 0.338-0.464 0.408l-0.006 0.002c-1.742-1.004-3.222-1.995-4.631-3.074l0.101 0.074c0-0.19 0.59-0.56 0.69-0.53z"></path>
<path fill="#1d1d1b" d="M9.070 51.39c0.16 0 3.82 2.81 3.6 3s-0.63 0.44-0.75 0.37c-1.423-0.88-2.647-1.763-3.805-2.724l0.055 0.044c0.246-0.286 0.545-0.519 0.884-0.683l0.016-0.007z"></path>
<path fill="#1d1d1b" d="M26.73 44.23c1.12 0.578 2.080 1.288 2.909 2.129l0.001 0.001c-0.070 0.25-0.19 0.41-0.32 0.37s-3.25-2.060-3.25-2.060c0.193-0.162 0.409-0.308 0.64-0.43l0.020-0.010z"></path>
<path fill="#1d1d1b" d="M28 43.67s0.6-0.4 0.81-0.37c1.067 0.487 1.983 1.028 2.835 1.651l-0.045-0.031c-0.105 0.171-0.27 0.297-0.465 0.349l-0.005 0.001c-1.24-0.541-2.268-1.075-3.255-1.67l0.125 0.070z"></path>
<path fill="#1d1d1b" d="M30.45 42.67c-0.070-0.080 0.53-0.4 0.75-0.44 0.923 0.487 1.708 0.985 2.451 1.536l-0.051-0.036c-0.062 0.117-0.175 0.199-0.308 0.22l-0.002 0c-1.081-0.327-2.023-0.763-2.888-1.308l0.048 0.028z"></path>
<path fill="#1d1d1b" d="M27.35 53.48c-0.17-0.17 1.44-1.4 2.38-1.15s0.72 0.72 1.28 0.84 1-0.090 1.22 0 0.34 0.47 0.22 0.53c-0.261 0.089-0.563 0.14-0.876 0.14-0.168 0-0.332-0.015-0.491-0.043l0.017 0.002c-0.46-0.13-1.37-0.75-1.78-0.63s-0.78 0.91-1.18 0.82c-0.316-0.098-0.583-0.275-0.788-0.508l-0.002-0.002z"></path>
<path fill="#1d1d1b" d="M52.2 50.67c0.31-0.060 3.56 1.85 3.47 2.13s-0.13 0.43-0.28 0.4-3.82-1.53-3.79-1.78 0.29-0.69 0.6-0.75z"></path>
<path fill="#1d1d1b" d="M50.2 52c0.19 0 3.69 2.070 3.56 2.25s-0.91 0.28-1.12 0.25c-1.241-0.582-2.296-1.195-3.293-1.888l0.073 0.048c-0.030-0.21 0.58-0.66 0.78-0.66z"></path>
<path fill="#1d1d1b" d="M35.51 45.33c1.22-0.1 3.69-1.35 6-0.91s5.85 1.63 5.78 4.72c0 0.010 0 0.021 0 0.032 0 2.474-2.006 4.48-4.48 4.48-0.116 0-0.231-0.004-0.345-0.013l0.015 0.001c-2.22-0.12-3.78-1.94-4.94-2.090s-4.78 0.53-5.53-1.91 1.22-4.12 3.5-4.31z"></path>
<path fill="#fff" d="M36.17 46.77c2.070 0 4.18-1.32 6.81-0.47s3.19 2.78 3.060 3.43-1.75 1.79-1.84 1.79c-0.832-0.643-1.781-1.302-2.762-1.914l-0.148-0.086c-0.31 0-0.87 0.44-0.72 0.57s2.43 1.71 2.28 1.8c-0.124 0.020-0.267 0.031-0.412 0.031-0.322 0-0.63-0.055-0.917-0.157l0.019 0.006c-0.59-0.16-2.5-1.69-4.4-1.85s-2.91-0.28-3-1.28 0.75-1.87 2.030-1.87z"></path>
<path fill="#1d1d1b" d="M43.2 48.33c0.23 0 2 1.090 1.94 1.28-0.239 0.289-0.545 0.515-0.895 0.655l-0.015 0.005c-0.13 0-1.84-1-1.78-1.19s0.55-0.75 0.75-0.75z"></path>
</svg>
