<!-- Generated by IcoMoon.io -->
<svg version="1.1" xmlns="http://www.w3.org/2000/svg" width="64" height="64" viewBox="0 0 64 64">
<path fill="#1d1d1b" d="M6.060 25.5c0.21 0 1 0.29 1.46-0.090s0.17-0.37 0.25-1.54c0.356-2.472 0.996-4.702 1.896-6.793l-0.066 0.173c1-2.13 4.92-6.79 10.38-9.34s11.92-2.62 17.83-1.16 12.090 6.62 15.19 11.66 0.46 14.92-1.29 18.88-9.71 8.58-15.71 8.83c-0.111 0.003-0.241 0.004-0.372 0.004-5.106 0-9.668-2.326-12.686-5.977l-0.022-0.028c-2-2.71-3.84-9.46-1.34-14 1.744-3.009 4.949-5 8.62-5 0.004 0 0.007 0 0.011 0h-0.001c1.75-0.13 3.16 1.54 3.54 1.67 0.636-0.013 1.147-0.532 1.147-1.17 0-0.089-0.010-0.175-0.029-0.258l0.002 0.008c-0.2-0.92-3.62-3.58-10.7-0.21s-6.17 10.25-5.77 13.3 2.080 11.2 12.5 13.12c1.238 0.249 2.662 0.392 4.119 0.392 6.253 0 11.892-2.629 15.871-6.842l0.010-0.011c2.25-2.58 5.59-7 5.46-15.62s-2.84-11.25-9.76-16.75-18-5.88-24-3.79-13.6 7.37-15.41 12.37-1.34 8.17-1.13 8.17zM56.19 47.29c-0.38 0-0.67 0.71-1 1.21s-3.75 5.41-7.63 7.58-11 2.88-17.79 1.17-13.38-9.54-16-17.42 0.67-12.75 2.33-15.83 5.59-7.21 10.13-7.63 11.77-0.75 15.080 4.25c1.547 2.106 2.475 4.75 2.475 7.611 0 2.418-0.663 4.682-1.818 6.618l0.033-0.059c-2.37 4.54-8.51 3.76-8.75 4s-0.21 1.67 0.25 1.79c0.011 0 0.024 0 0.037 0 2.617 0 5.085-0.632 7.263-1.752l-0.089 0.042c2.58-1.5 5.75-5.41 4.62-13.54s-8-10.87-14.25-11-12.41 1.58-16.62 8.25c-2.196 3.227-3.506 7.21-3.506 11.498 0 2.204 0.346 4.327 0.986 6.317l-0.041-0.146c1.45 5.25 5.2 13.54 13.33 17.62s17 2 22.71 0 9.71-9.46 9.66-9.71-1.040-0.87-1.41-0.87zM36.85 31.29c0.8-5.71-4.58-5.9-6.79-5.38-5.41 1.29-4.79 6.59-2.71 8.63s8.71 2.46 9.5-3.29zM24.56 35.5c-1.46 0.71-1.21 2.33-0.33 3.79s4.080-0.080 3.67-1.88-1.9-2.61-3.34-1.91zM8.94 34.12c-0.42-1.79-1.94-2.61-3.34-1.91s-1.2 2.33-0.33 3.79 4.080-0.090 3.67-1.88zM49.56 20.46c0-1.88-2-3.16-3.16-2.3-0.615 0.408-1.015 1.098-1.015 1.881 0 0.518 0.175 0.994 0.469 1.375l-0.004-0.005c0.88 1.21 3.75 0.92 3.71-0.95zM15.32 28.31c-0.467 0.31-0.771 0.834-0.771 1.429 0 0.398 0.136 0.764 0.364 1.055l-0.003-0.004c0.66 0.92 2.85 0.69 2.82-0.73s-1.54-2.4-2.41-1.75zM32.81 7.54c-0.64 0.536-1.044 1.335-1.044 2.229 0 0.635 0.204 1.222 0.55 1.7l-0.006-0.008c1 1.75 4.79 1.54 4.59-1.5s-2.9-3.56-4.090-2.42zM58.27 10.33c-0.21-3-2.9-3.55-4.080-2.42-0.64 0.536-1.044 1.335-1.044 2.229 0 0.635 0.204 1.222 0.55 1.7l-0.006-0.008c1 1.75 4.79 1.54 4.58-1.5zM9.35 50.46c-1.41 0.83-1.87 2.54-1.12 4.54s5.17 2.41 5.79-0.75c0.051-0.22 0.081-0.472 0.081-0.731 0-1.856-1.504-3.36-3.36-3.36-0.504 0-0.982 0.111-1.411 0.31l0.021-0.009zM56.4 37.54c-1.25 0.54-1.55 2.54-0.92 3.87s3.92 1 4-1.45-1.96-2.91-3.080-2.42z"></path>
<path fill="#fab900" d="M30.4 27.41c0.93-0.36 3.37-0.12 4.2 1s0.38 3.29 0.38 3.29-0.5-0.87-0.63-0.87-0.66 0.17-0.62 0.33c0.221 0.455 0.407 0.986 0.531 1.54l0.009 0.050c-0.080 0.2-0.62 0.83-0.75 0.66s-1.080-2.79-1.33-2.83-0.79 0-0.75 0.21 1.41 2.87 1.21 3.080-0.75 0.38-0.88 0.080-1-2.66-1.12-2.7-0.92 0.2-0.84 0.5 0.92 2 0.75 2.080c-1.311-0.266-2.301-1.358-2.409-2.699l-0.001-0.011c-0.054-0.217-0.086-0.465-0.086-0.721 0-1.437 0.984-2.644 2.314-2.984l0.021-0.005z"></path>
<path fill="#e6e4da" d="M25.13 36.51c0.15-0.073 0.327-0.115 0.513-0.115 0.633 0 1.151 0.49 1.197 1.111l0 0.004c0.21 0.91-1.43 1.7-1.88 0.95s-0.57-1.59 0.17-1.95z"></path>
<path fill="#cbe7f5" d="M6.17 33.21c0.148-0.069 0.321-0.11 0.504-0.11 0.633 0 1.153 0.486 1.206 1.106l0 0.005c0.21 0.92-1.43 1.71-1.88 1s-0.57-1.63 0.17-2z"></path>
<path fill="#cbe7f5" d="M46.94 19.090c0.57-0.43 1.55 0.21 1.57 1.14s-1.41 1.080-1.84 0.48c-0.149-0.187-0.238-0.427-0.238-0.687 0-0.389 0.201-0.732 0.504-0.93l0.004-0.003z"></path>
<path fill="#ddc07c" d="M15.73 29c0.44-0.33 1.18 0.16 1.2 0.87s-1.070 0.82-1.41 0.36c-0.11-0.142-0.176-0.322-0.176-0.518 0-0.297 0.152-0.558 0.383-0.71l0.003-0.002z"></path>
<path fill="#85bfe9" d="M33.51 8.55c0.64-0.62 2.11-0.34 2.23 1.32 0.001 0.019 0.001 0.040 0.001 0.062 0 0.757-0.613 1.37-1.37 1.37-0.474 0-0.892-0.241-1.138-0.607l-0.003-0.005c-0.183-0.255-0.292-0.574-0.292-0.918 0-0.49 0.221-0.928 0.57-1.22l0.002-0.002z"></path>
<path fill="#92a0d1" d="M54.88 8.93c0.65-0.62 2.12-0.35 2.23 1.32 0.002 0.025 0.002 0.053 0.002 0.082 0 0.751-0.609 1.36-1.36 1.36-0.477 0-0.897-0.245-1.139-0.617l-0.003-0.005c-0.187-0.256-0.299-0.578-0.299-0.925 0-0.487 0.22-0.923 0.567-1.213l0.002-0.002z"></path>
<path fill="#ffe19b" d="M9.94 51.49c0.261-0.121 0.567-0.192 0.89-0.192 1.193 0 2.16 0.967 2.16 2.16 0 0.164-0.018 0.323-0.053 0.476l0.003-0.014c-0.4 2-3.23 1.79-3.71 0.48-0.17-0.307-0.27-0.674-0.27-1.063 0-0.765 0.385-1.44 0.972-1.842l0.008-0.005z"></path>
<path fill="#1d1d1b" d="M36.4 50.16c0.409-0.191 0.888-0.302 1.392-0.302 1.856 0 3.36 1.504 3.36 3.36 0 0.278-0.034 0.547-0.097 0.805l0.005-0.023c-0.62 3.16-5 2.79-5.79 0.75s-0.27-3.75 1.13-4.59z"></path>
<path fill="#ddc07c" d="M37 51.2c0.265-0.126 0.576-0.199 0.904-0.199 1.187 0 2.15 0.963 2.15 2.15 0 0.17-0.020 0.335-0.057 0.494l0.003-0.015c-0.4 2-3.23 1.79-3.71 0.48s-0.22-2.37 0.71-2.91z"></path>
<path fill="#e6e4da" d="M56.8 38.54c0.141-0.062 0.305-0.097 0.478-0.097 0.674 0 1.22 0.546 1.22 1.22 0 0.073-0.006 0.145-0.019 0.215l0.001-0.007c0 1.36-1.84 1.54-2.18 0.81-0.127-0.228-0.201-0.5-0.201-0.79 0-0.556 0.275-1.048 0.696-1.347l0.005-0.003z"></path>
</svg>
