<!-- Generated by IcoMoon.io -->
<svg version="1.1" xmlns="http://www.w3.org/2000/svg" width="64" height="64" viewBox="0 0 64 64">
<path fill="#1d1d1b" d="M8.34 28.73s-1.63-0.91-1.67-1.25-0.33-19.75 0.12-20.16 6-0.25 6-0.090-0.62 20.88-0.79 21.17-1.37 0.21-1.5 0.38-0.29 0.87-0.12 0.87 4.62 0.54 4.66 0.25c0.014-0.125 0.022-0.269 0.022-0.415s-0.008-0.291-0.023-0.433l0.002 0.018c-0.577-0.18-1.074-0.393-1.543-0.651l0.043 0.021c-0.12-0.16 0.13-21.12 0.29-21.33s6-0.29 6 0.080-0.71 21-0.87 21.29-1.67 0.59-1.67 0.71-0.17 0.75 0 0.75 5.88 0 6.33 0 0.92-0.12 0.92-0.12-0.37-3 0.25-3.29c1.014-0.141 2.185-0.221 3.375-0.221 0.266 0 0.53 0.004 0.794 0.012l-0.039-0.001-0.13-1.84s-7.87-0.2-8-0.58-0.37-4.37 0-4.58 4-0.17 3.92-0.29-0.12-0.71-0.12-0.71-1.3-0.34-1.3-0.54-0.41-4.050-0.2-4.13 7.5-0.17 7.58 0.17c0.015 0.307 0.024 0.666 0.024 1.027 0 1.226-0.1 2.429-0.291 3.601l0.017-0.128c-0.21 0-2.63 0-2.63 0l-0.080 0.75 8.080 0.41s0.13-0.46 0-0.46-0.62-0.25-0.91-0.29-0.5 0-0.63-0.16-0.66-1.3-0.54-1.38 0.88-0.46 0.88-0.46-0.84-1.87 0.16-3 1.75-0.75 2.25-0.46c0.37 0.27 0.677 0.603 0.911 0.985l0.008 0.015s1.25-0.7 1.75-0.58c0.33 0.115 0.562 0.423 0.562 0.786 0 0.173-0.053 0.334-0.144 0.467l0.002-0.003c-0.236 0.314-0.589 0.528-0.993 0.579l-0.007 0.001-0.3 1.090s1 0.5 0.84 1-0.92 1.29-1.46 1.21l-1.38-0.21 0.050 0.75s5.7-0.090 5.83 0.41 0.33 5.3-0.29 5.55-7.84-0.55-7.88-0.3 0 1.63 0 1.63 3.54 0.87 3.63 1.17-0.13 2 0 2 8.54 0.12 8.54 0-0.13-0.88-0.13-0.88-2.12-0.37-2.21-0.71-0.91-20.41-0.45-20.75 6.12-0.58 6.12-0.29 0.050 20.63-0.16 20.92c-0.421 0.324-0.902 0.603-1.419 0.815l-0.041 0.015s-0.21 0.79 0 0.84c0.705 0.057 1.526 0.090 2.355 0.090s1.65-0.033 2.462-0.097l-0.107 0.007c-0.050-0.21-0.090-0.55-0.090-0.55s-1.71-0.58-1.75-0.79-0.41-21.040-0.25-21.21 5.71-0.33 5.84 0 0.080 20.92-0.050 21.17c-0.504 0.357-1.082 0.667-1.696 0.902l-0.054 0.018c-0.017 0.419-0.027 0.911-0.027 1.405 0 0.839 0.028 1.672 0.083 2.497l-0.006-0.112c0.908 0.367 1.688 0.786 2.415 1.279l-0.045-0.029c0 0.25-0.42 11.58-0.46 16.12s-0.29 6.29-0.58 6.42-5.080 0.37-5.25 0 0-9.46 0.12-14.83-0.080-7.25 0.13-7.42 1.83-1.12 1.83-1.33-0.040-1.32-0.25-1.32c-0.444-0.017-0.966-0.027-1.49-0.027-1.088 0-2.165 0.043-3.231 0.126l0.141-0.009c-0.080 0.12-0.12 1.33 0.080 1.41s1.84 0.84 1.84 1.17-0.63 21.88-0.79 22.13c-0.762 0.083-1.646 0.131-2.541 0.131-1.163 0-2.308-0.080-3.428-0.236l0.13 0.015c-0.080-0.21 0-21.87 0.17-22.16s2.5-1.21 2.5-1.42 0-1.29 0-1.29-8.37-0.25-8.33-0.13 0.21 1.13 0 1.25-4.17 0.17-4.17 0.38-0.33 0.46 0 0.58 6 0.63 6 0.83 0.13 6-0.12 6.13-16.54 0-16.84-0.25-0.41-6-0.25-6.29 6-0.38 6-0.54 0.17-0.67 0-0.67-3.87-0.080-3.95-0.33c-0.080-0.418-0.141-0.92-0.169-1.43l-0.001-0.030-7.38 0.37 0.050 1c0.955 0.333 1.764 0.698 2.534 1.123l-0.084-0.043c0 0.17 0.46 22 0.17 22.17s-5.62 0.58-5.75-0.12-0.090-21.84-0.090-22.060 1.090-1.050 1.13-1.21 0.080-0.84 0.080-0.84l-4.83-0.29v0.79s2.5 1.050 2.54 1.55 0.13 22.12 0 22.12-5.5 0.42-5.67 0-0.75-22.42-0.62-22.62 1.83-0.8 1.87-1.050-0.16-3.5-0.16-3.5z"></path>
<path fill="#85bfe9" d="M8.67 8.78c0.29 0 2.17-0.17 2.21 0.12 0.027 0.27 0.043 0.584 0.043 0.901 0 0.64-0.063 1.265-0.183 1.87l0.010-0.061c-0.344 0.079-0.739 0.124-1.145 0.124s-0.801-0.045-1.181-0.131l0.036 0.007c-0.080-0.21-0.12-2.79 0.21-2.83z"></path>
<path fill="#85bfe9" d="M8.59 12.61c0.255-0.040 0.549-0.064 0.849-0.064 0.451 0 0.889 0.052 1.31 0.151l-0.039-0.008v2.090s-2.29 0.25-2.29 0-0.080-2 0.17-2.17z"></path>
<path fill="#85bfe9" d="M8.46 15.78c0.257-0.033 0.554-0.052 0.855-0.052 0.479 0 0.948 0.048 1.4 0.14l-0.045-0.008c0 0.17 0 2.58-0.17 2.58h-2.12s0-2.62 0.080-2.66z"></path>
<path fill="#85bfe9" d="M8.54 19.44c0.203-0.020 0.438-0.031 0.676-0.031 0.468 0 0.926 0.044 1.37 0.129l-0.045-0.007c0.076 0.475 0.12 1.023 0.12 1.582 0 0.426-0.025 0.846-0.075 1.258l0.005-0.050c-0.165 0.011-0.357 0.017-0.551 0.017-0.572 0-1.132-0.053-1.675-0.156l0.056 0.009c-0.027-0.278-0.042-0.601-0.042-0.928 0-0.644 0.059-1.274 0.171-1.886l-0.010 0.064z"></path>
<path fill="#85bfe9" d="M8.59 23.11s1.83 0 1.87 0.17c0.013 0.24 0.020 0.521 0.020 0.804 0 0.952-0.084 1.885-0.244 2.792l0.014-0.096c-0.21 0-1.75 0.12-1.79-0.090-0.011-0.269-0.017-0.585-0.017-0.903 0-0.943 0.053-1.874 0.157-2.79l-0.010 0.112z"></path>
<path fill="#85bfe9" d="M15.42 8.94c0.29 0 2.17-0.16 2.21 0.13 0.027 0.27 0.043 0.584 0.043 0.901 0 0.64-0.063 1.265-0.183 1.87l0.010-0.061c-0.344 0.076-0.739 0.12-1.145 0.12s-0.801-0.044-1.181-0.127l0.036 0.007c-0.080-0.21-0.12-2.78 0.21-2.84z"></path>
<path fill="#85bfe9" d="M15.34 12.78c0.258-0.043 0.554-0.067 0.857-0.067 0.448 0 0.884 0.054 1.301 0.155l-0.038-0.008v2.080s-2.29 0.25-2.29 0-0.080-2 0.17-2.16z"></path>
<path fill="#85bfe9" d="M15.21 15.94c0.247-0.031 0.533-0.049 0.824-0.049 0.491 0 0.97 0.050 1.432 0.146l-0.045-0.008c0 0.16 0 2.58-0.17 2.58h-2.12s0-2.61 0.080-2.67z"></path>
<path fill="#85bfe9" d="M15.29 19.61c0.207-0.020 0.449-0.031 0.692-0.031 0.462 0 0.914 0.040 1.354 0.118l-0.047-0.007c0.076 0.475 0.12 1.023 0.12 1.582 0 0.426-0.025 0.846-0.075 1.258l0.005-0.050c-0.177 0.012-0.384 0.020-0.592 0.020-0.558 0-1.104-0.051-1.633-0.148l0.055 0.008c-0.027-0.278-0.042-0.602-0.042-0.929 0-0.644 0.059-1.274 0.172-1.885l-0.010 0.064z"></path>
<path fill="#85bfe9" d="M15.34 23.28s1.83-0.050 1.87 0.16c0.013 0.242 0.021 0.524 0.021 0.809 0 0.951-0.084 1.882-0.245 2.787l0.014-0.096c-0.21 0-1.75 0.13-1.79-0.080-0.011-0.269-0.017-0.585-0.017-0.903 0-0.943 0.053-1.874 0.157-2.79l-0.010 0.112z"></path>
<path fill="#85bfe9" d="M46 8.84c0.29 0 2.16-0.21 2.21 0.080 0.043 0.343 0.068 0.74 0.068 1.143 0 0.553-0.046 1.096-0.136 1.624l0.008-0.057c-0.344 0.081-0.739 0.127-1.145 0.127s-0.801-0.046-1.18-0.133l0.035 0.007c-0.13-0.16-0.24-2.74 0.14-2.79z"></path>
<path fill="#85bfe9" d="M46 12.68c0.32-0.065 0.688-0.102 1.065-0.102s0.745 0.037 1.101 0.108l-0.036-0.006v2.080s-2.29 0.31-2.29 0.1-0.12-2.010 0.16-2.18z"></path>
<path fill="#85bfe9" d="M45.91 15.85c0.332-0.058 0.715-0.091 1.105-0.091s0.773 0.033 1.145 0.096l-0.040-0.006c0 0.16 0.11 2.58-0.1 2.58h-2.13s-0.060-2.54 0.020-2.58z"></path>
<path fill="#85bfe9" d="M46.080 19.51c0.3-0.044 0.647-0.070 1-0.070s0.7 0.025 1.039 0.074l-0.039-0.005c0.095 0.533 0.149 1.146 0.149 1.771 0 0.359-0.018 0.713-0.053 1.063l0.004-0.044c-0.277 0.030-0.598 0.047-0.923 0.047-0.443 0-0.879-0.032-1.305-0.093l0.049 0.006c-0.035-0.322-0.056-0.696-0.056-1.074 0-0.592 0.049-1.172 0.144-1.737l-0.008 0.061z"></path>
<path fill="#85bfe9" d="M46.21 23.17s1.83-0.080 1.88 0.13c0.038 0.406 0.060 0.878 0.060 1.356 0 0.756-0.054 1.5-0.159 2.227l0.010-0.083c-0.2 0.050-1.74 0.17-1.79 0-0.042-0.543-0.066-1.176-0.066-1.815s0.024-1.272 0.071-1.899l-0.005 0.084z"></path>
<path fill="#85bfe9" d="M52.92 8.84c0.29 0 2.16-0.21 2.21 0.080 0.041 0.332 0.064 0.717 0.064 1.108 0 0.566-0.049 1.121-0.142 1.66l0.008-0.058c-0.344 0.081-0.739 0.127-1.145 0.127s-0.801-0.046-1.18-0.133l0.035 0.007c-0.080-0.16-0.19-2.74 0.15-2.79z"></path>
<path fill="#85bfe9" d="M52.92 12.68c0.32-0.065 0.688-0.102 1.065-0.102s0.745 0.037 1.101 0.108l-0.036-0.006v2.080s-2.29 0.31-2.29 0.1-0.080-2.010 0.16-2.18z"></path>
<path fill="#85bfe9" d="M52.87 15.85c0.332-0.058 0.715-0.091 1.105-0.091s0.773 0.033 1.145 0.096l-0.040-0.006c0.025 0.268 0.039 0.579 0.039 0.894 0 0.596-0.050 1.179-0.147 1.747l0.009-0.061h-2.13s-0.060-2.54 0.020-2.58z"></path>
<path fill="#85bfe9" d="M53 19.51c0.36 0 1.92-0.13 2 0 0.101 0.539 0.159 1.16 0.159 1.793 0 0.351-0.018 0.698-0.052 1.040l0.004-0.043c-0.265 0.027-0.572 0.043-0.883 0.043-0.433 0-0.858-0.030-1.275-0.088l0.048 0.006c-0.058-0.413-0.091-0.89-0.091-1.375s0.033-0.962 0.097-1.429l-0.006 0.054z"></path>
<path fill="#85bfe9" d="M53.17 23.17s1.83-0.080 1.88 0.13c0.029 0.353 0.045 0.765 0.045 1.181 0 0.819-0.064 1.622-0.186 2.406l0.011-0.087c-0.2 0.050-1.74 0.17-1.79 0-0.030-0.46-0.047-0.998-0.047-1.539 0-0.736 0.032-1.465 0.094-2.184l-0.007 0.094z"></path>
<path fill="#85bfe9" d="M52.79 54.73c0.29 0.050 2.16 0.26 2.21-0.1 0.063-0.494 0.099-1.065 0.099-1.645s-0.036-1.151-0.106-1.712l0.007 0.067c-0.2-0.16-2.2-0.31-2.29-0.060s-0.25 3.39 0.080 3.45z"></path>
<path fill="#85bfe9" d="M53 50.080c0.32 0.065 0.688 0.102 1.065 0.102s0.745-0.037 1.101-0.108l-0.036 0.006c0-0.16 0-2.080 0-2.080s-2.29-0.3-2.29-0.1-0.12 2 0.16 2.18z"></path>
<path fill="#85bfe9" d="M53.12 46.75c0.332 0.046 0.715 0.072 1.105 0.072s0.773-0.026 1.149-0.077l-0.044 0.005c0-0.15 0.1-2.26-0.11-2.26h-2.13c-0.010 0.249-0.016 0.542-0.016 0.836 0 0.501 0.017 0.998 0.049 1.491l-0.004-0.067z"></path>
<path fill="#85bfe9" d="M53.29 43.67c0.3 0.030 0.648 0.047 1 0.047s0.7-0.017 1.044-0.050l-0.044 0.003c0.093-0.387 0.147-0.831 0.147-1.287 0-0.283-0.021-0.561-0.060-0.834l0.004 0.031c-0.324-0.032-0.7-0.049-1.080-0.049s-0.756 0.018-1.127 0.053l0.047-0.004c-0.042 0.258-0.066 0.556-0.066 0.859 0 0.436 0.049 0.861 0.143 1.269l-0.007-0.038z"></path>
<path fill="#85bfe9" d="M53.53 37.76c0.186 0.014 0.404 0.023 0.623 0.023 0.444 0 0.879-0.034 1.305-0.099l-0.048 0.006c0.021-0.22 0.033-0.476 0.033-0.734 0-0.611-0.067-1.207-0.193-1.781l0.010 0.055c-0.27-0.043-0.582-0.068-0.9-0.068s-0.63 0.025-0.934 0.072l0.034-0.004c-0.020 0.271-0.032 0.588-0.032 0.907 0 0.572 0.037 1.136 0.109 1.688l-0.007-0.065z"></path>
<path fill="#85bfe9" d="M53.34 40.83c0.312 0.031 0.674 0.048 1.040 0.048s0.728-0.017 1.086-0.052l-0.045 0.004c0-0.14 0-2.25-0.18-2.29-0.3-0.039-0.648-0.061-1-0.061s-0.7 0.022-1.041 0.065l0.041-0.004c-0.019 0.221-0.029 0.478-0.029 0.738 0 0.548 0.047 1.085 0.137 1.608l-0.008-0.056z"></path>
<path fill="#85bfe9" d="M45.67 54.48c0.29 0.050 2.16 0.26 2.21-0.1 0.046-0.429 0.072-0.926 0.072-1.429 0-0.656-0.044-1.302-0.13-1.934l0.008 0.074c-0.21-0.16-2.2-0.31-2.29-0.060s-0.21 3.39 0.13 3.45z"></path>
<path fill="#85bfe9" d="M45.84 49.83c0.32 0.065 0.688 0.102 1.065 0.102s0.745-0.037 1.101-0.108l-0.036 0.006v-2.12s-2.28-0.3-2.29-0.1-0.090 2.040 0.16 2.22z"></path>
<path fill="#85bfe9" d="M46 46.5c0.332 0.046 0.715 0.072 1.105 0.072s0.773-0.026 1.149-0.076l-0.044 0.005c0-0.15 0.090-2.26-0.12-2.26l-2.090-0.040c-0.021 0.344-0.034 0.745-0.034 1.15s0.012 0.806 0.036 1.205l-0.003-0.055z"></path>
<path fill="#85bfe9" d="M46.17 43.42c0.3 0.030 0.648 0.046 1 0.046s0.7-0.017 1.044-0.050l-0.044 0.003c0.089-0.393 0.139-0.845 0.139-1.308 0-0.276-0.018-0.547-0.053-0.813l0.003 0.031c-0.325-0.032-0.703-0.049-1.085-0.049s-0.76 0.018-1.133 0.053l0.048-0.004c-0.039 0.25-0.062 0.539-0.062 0.833 0 0.446 0.052 0.88 0.149 1.296l-0.008-0.038z"></path>
<path fill="#85bfe9" d="M46.4 37.51c0.187 0.014 0.404 0.023 0.624 0.023 0.443 0 0.879-0.034 1.304-0.099l-0.048 0.006c0.024-0.227 0.038-0.491 0.038-0.758 0-0.596-0.068-1.177-0.198-1.734l0.010 0.051c-0.269-0.044-0.579-0.069-0.895-0.069s-0.626 0.025-0.928 0.073l0.033-0.004c-0.024 0.289-0.038 0.625-0.038 0.964 0 0.545 0.036 1.082 0.105 1.608l-0.007-0.062z"></path>
<path fill="#85bfe9" d="M46.21 40.58c0.312 0.031 0.674 0.048 1.040 0.048s0.728-0.017 1.086-0.052l-0.045 0.004c0.050-0.14 0.060-2.25-0.18-2.29-0.3-0.039-0.648-0.062-1-0.062s-0.7 0.023-1.040 0.066l0.040-0.004c-0.018 0.221-0.029 0.478-0.029 0.737 0 0.548 0.047 1.086 0.137 1.609l-0.008-0.056z"></path>
<path fill="#85bfe9" d="M16.16 54.36c0.3 0 2.17 0.16 2.21-0.2 0.013-0.232 0.021-0.503 0.021-0.776 0-0.888-0.080-1.758-0.234-2.602l0.013 0.088c-0.22-0.15-2.22-0.2-2.29 0.050s-0.050 3.4 0.28 3.44z"></path>
<path fill="#85bfe9" d="M16.12 49.71c0.209 0.027 0.45 0.043 0.696 0.043 0.506 0 0.997-0.067 1.464-0.192l-0.039 0.009c0-0.16-0.090-2.080-0.090-2.080s-2.3-0.19-2.29 0 0.010 2.060 0.26 2.22z"></path>
<path fill="#85bfe9" d="M16.12 46.37c0.197 0.016 0.425 0.026 0.656 0.026 0.549 0 1.087-0.053 1.606-0.154l-0.053 0.009c0-0.15 0-2.26-0.22-2.25l-2.11 0.080c0.001 0.808 0.045 1.604 0.129 2.389l-0.009-0.099z"></path>
<path fill="#85bfe9" d="M16.15 43.29c0.137 0.007 0.297 0.011 0.459 0.011 0.544 0 1.078-0.044 1.598-0.128l-0.057 0.008c0.060-0.314 0.094-0.676 0.094-1.045s-0.034-0.731-0.1-1.081l0.006 0.036c-0.082-0.002-0.178-0.003-0.275-0.003-0.669 0-1.326 0.052-1.966 0.152l0.071-0.009c-0.019 0.174-0.030 0.376-0.030 0.58 0 0.527 0.073 1.036 0.21 1.519l-0.009-0.039z"></path>
<path fill="#85bfe9" d="M16.11 37.37c0.080 0.003 0.175 0.005 0.27 0.005 0.574 0 1.133-0.060 1.673-0.174l-0.053 0.009c0.006-0.114 0.009-0.248 0.009-0.382 0-0.732-0.098-1.44-0.282-2.114l0.013 0.056c-0.175-0.019-0.378-0.030-0.584-0.030-0.427 0-0.844 0.047-1.244 0.137l0.038-0.007c-0.007 0.147-0.010 0.32-0.010 0.493 0 0.709 0.062 1.404 0.181 2.079l-0.010-0.072z"></path>
<path fill="#85bfe9" d="M16.060 40.46c0.067 0.002 0.146 0.002 0.226 0.002 0.652 0 1.29-0.059 1.909-0.172l-0.065 0.010c0.050-0.14-0.050-2.25-0.28-2.27-0.185-0.016-0.4-0.025-0.617-0.025-0.489 0-0.967 0.045-1.431 0.132l0.048-0.007c-0.004 0.101-0.006 0.219-0.006 0.338 0 0.706 0.079 1.394 0.228 2.054l-0.012-0.062z"></path>
<path fill="#85bfe9" d="M9 54.2c0.29 0 2.17 0.15 2.2-0.21 0.015-0.242 0.024-0.525 0.024-0.81 0-0.877-0.081-1.734-0.237-2.566l0.013 0.086c-0.21-0.14-2.21-0.2-2.29 0.060s-0.010 3.39 0.29 3.44z"></path>
<path fill="#85bfe9" d="M9 49.54c0.214 0.027 0.461 0.043 0.712 0.043 0.504 0 0.993-0.063 1.459-0.182l-0.041 0.009c0-0.17-0.090-2.080-0.090-2.080s-2.3-0.2-2.3 0 0 2.050 0.26 2.21z"></path>
<path fill="#85bfe9" d="M9 46.21c0.185 0.015 0.401 0.023 0.619 0.023 0.559 0 1.106-0.056 1.634-0.162l-0.053 0.009c0-0.14 0-2.25-0.22-2.25l-2.12 0.090c0.003 0.811 0.054 1.606 0.15 2.387l-0.010-0.097z"></path>
<path fill="#85bfe9" d="M9 43.12c0.124 0.006 0.269 0.009 0.415 0.009 0.56 0 1.108-0.047 1.642-0.137l-0.058 0.008c0.060-0.314 0.094-0.676 0.094-1.045s-0.034-0.731-0.1-1.081l0.006 0.036c-0.065-0.001-0.141-0.002-0.218-0.002-0.686 0-1.358 0.055-2.014 0.161l0.072-0.010c-0.019 0.177-0.030 0.383-0.030 0.591 0 0.522 0.069 1.028 0.2 1.509l-0.009-0.040z"></path>
<path fill="#85bfe9" d="M9 37.21c0.060 0.002 0.132 0.002 0.203 0.002 0.593 0 1.173-0.059 1.733-0.172l-0.056 0.009c0.005-0.104 0.008-0.226 0.008-0.349 0-0.747-0.101-1.471-0.291-2.158l0.013 0.057c-0.169-0.017-0.365-0.027-0.564-0.027-0.434 0-0.857 0.046-1.265 0.134l0.039-0.007c-0.003 0.104-0.005 0.226-0.005 0.348 0 0.764 0.067 1.512 0.196 2.239l-0.011-0.077z"></path>
<path fill="#85bfe9" d="M8.93 40.29c0.065 0.001 0.141 0.002 0.218 0.002 0.654 0 1.295-0.059 1.917-0.172l-0.065 0.010c0-0.13 0-2.25-0.28-2.27-0.176-0.013-0.381-0.021-0.589-0.021-0.499 0-0.987 0.044-1.462 0.128l0.050-0.007c-0.003 0.087-0.004 0.19-0.004 0.292 0 0.722 0.078 1.425 0.226 2.102l-0.012-0.065z"></path>
<path fill="#cbe7f5" d="M24.42 14.69s5.17-0.080 5.21 0.090c0.007 0.143 0.011 0.311 0.011 0.48 0 0.744-0.081 1.469-0.234 2.167l0.012-0.067c-0.17 0-5 0-5.13-0.17-0.017-0.219-0.027-0.474-0.027-0.732 0-0.625 0.057-1.237 0.166-1.83l-0.009 0.062z"></path>
<path fill="#ddc07c" d="M36.46 13.94c0.17 0 0.79 0.34 0.5 0.59s-0.87 0.2-0.92 0.45-0.54 0.59 0.25 0.63c0.775-0.077 1.483-0.294 2.123-0.625l-0.032 0.015s-0.63 1.58-0.5 1.75 0.5 0.25 0.58 0.37 0.17 0.58 0 0.63c-0.213 0.073-0.459 0.115-0.714 0.115-0.745 0-1.406-0.357-1.822-0.909l-0.004-0.006c-1.080-1.26-0.75-2.8 0.54-3.010z"></path>
<path fill="#e6e4da" d="M22.75 20.69c0.3-0.4 5.34 0 10.46 0.17s7.75 0.25 7.88 0.5 0.12 2.12-0.13 2.12-7.83-0.66-8-0.33c-0.211 1.026-0.332 2.204-0.332 3.411 0 0.429 0.015 0.854 0.045 1.275l-0.003-0.057c0.21 0.12 3.75 0.66 3.83 0.95 0.023 0.17 0.035 0.366 0.035 0.565s-0.013 0.395-0.038 0.588l0.002-0.023-1-0.75s-0.33 0.37-0.21 0.54 1.42 1.46 1.21 1.58-0.42 0.25-0.58 0.17-1.75-2.12-2-2.17c-0.256 0.004-0.499 0.051-0.725 0.135l0.015-0.005 1.42 2.080c-0.107 0.018-0.23 0.028-0.355 0.028s-0.248-0.010-0.368-0.030l0.013 0.002c-0.13-0.080-1.46-1.75-1.75-1.79-0.037-0.006-0.079-0.009-0.122-0.009-0.138 0-0.268 0.033-0.383 0.091l0.005-0.002 1.17 2s-0.92 0.17-0.92 0.58-0.33 2.8 0.17 2.88 5.91 0.62 6 0.87c0.056 0.183 0.088 0.393 0.088 0.611 0 0.066-0.003 0.132-0.009 0.197l0.001-0.008s-1.080-0.3-1.080-0.050 1 1.88 0.75 2.090-0.59 0.37-0.67 0.21-2-2.55-2-2.55-0.71 0-0.67 0.17 1.71 2.17 1.5 2.27c-0.15 0.021-0.324 0.034-0.5 0.034s-0.35-0.012-0.52-0.036l0.020 0.002c-0.512-0.746-1.044-1.399-1.625-2.005l0.005 0.005c-0.21-0.050-0.54-0.050-0.59 0.16 0.332 0.72 0.696 1.337 1.113 1.913l-0.023-0.033s-4.54-0.090-6.54 0-2.67 0.12-2.67-0.090c-0.070-0.683-0.109-1.476-0.109-2.278 0-0.416 0.011-0.829 0.032-1.24l-0.002 0.057c0.16-0.12 5.87-0.12 5.91-0.37s-0.16-3-0.16-3c-1.432-0.087-2.75-0.251-4.041-0.491l0.201 0.031c-0.12-0.17-0.33-3.75-0.080-3.83s4.37 0 4.46-0.46c0.020-0.386 0.032-0.839 0.032-1.294 0-1.144-0.073-2.271-0.216-3.377l0.014 0.131c-0.17-0.090-7.67-0.17-7.83-0.34-0.117-0.347-0.184-0.747-0.184-1.163 0-0.225 0.020-0.445 0.058-0.66l-0.003 0.023z"></path>
<path fill="#1d1d1b" d="M27.29 28.4c0.080-0.1 0.92-0.21 1 0 0.053 0.401 0.083 0.864 0.083 1.335s-0.030 0.934-0.088 1.389l0.006-0.054c-0.12 0.12-0.75 0.29-0.91 0-0.098-0.488-0.154-1.048-0.154-1.622 0-0.369 0.023-0.733 0.068-1.091l-0.004 0.043z"></path>
</svg>
