<!-- Generated by IcoMoon.io -->
<svg version="1.1" xmlns="http://www.w3.org/2000/svg" width="64" height="64" viewBox="0 0 64 64">
<path fill="#1d1d1b" d="M28 6.3c6.29-1.22 13.47 1.62 19.15 4.93s7.66 6 9.16 9c1.645 3.458 2.606 7.515 2.606 11.796 0 0.624-0.020 1.243-0.061 1.857l0.004-0.084c-0.37 5.31-2.31 8.84-4.68 13.090-2.017 3.827-5.275 6.772-9.23 8.338l-0.12 0.042c-4.28 1.84-7.53 3.65-14.78 2.18s-14.34-4.31-17.62-7.53-6.54-6.59-7.22-15.5 1.53-11.42 3.28-14.22c2.33-3.702 5.175-6.836 8.479-9.409l0.081-0.061c4.060-3.12 7.34-3.73 10.95-4.43z"></path>
<path fill="#acb284" d="M16.43 13.33c-0.19-0.050-0.16-0.41 0.090-0.63 1.649-1.484 3.621-2.646 5.794-3.367l0.116-0.033c1.323-0.513 2.866-0.909 4.467-1.119l0.103-0.011s-0.41 0.6 0.090 0.72 1 0.22 1.16 0-0.090-0.81 0.060-0.84c0.614-0.063 1.327-0.098 2.049-0.098 2.087 0 4.105 0.299 6.013 0.856l-0.151-0.038c3.926 1.078 7.32 2.409 10.533 4.045l-0.313-0.145c0.81 0.41 1.62 1 1.47 1.1-0.398 0.030-0.862 0.047-1.33 0.047s-0.932-0.017-1.392-0.050l0.062 0.004c-0.63 0-3.53-0.81-6.13-0.25s-4.12 1.15-6.73 1.25c-1.972-0.010-3.893-0.206-5.753-0.572l0.193 0.032c-1.090-0.090-4.81-0.71-6.28-0.71s-3.87-0.13-4.12-0.19z"></path>
<path fill="#ddc07c" d="M13.14 16c0.747-0.377 1.638-0.736 2.56-1.025l0.13-0.035c0.214-0.004 0.466-0.006 0.719-0.006 2.295 0 4.547 0.184 6.742 0.538l-0.241-0.032c4.5 0.56 5.16 1.13 9.5 0.63s5.91-1.41 7.94-1.38 4.87 0.72 6.69 0.72 2.31-0.22 2.65-0.13c1.563 1.062 2.835 2.436 3.749 4.041l0.031 0.059c1.28 2.28 0.44 1.75 0.19 1.75h-1.44c-0.678-1.105-1.337-2.044-2.047-2.942l0.047 0.062c-0.22-0.060-0.87 0.1-0.84 0.19s2.090 2.69 1.9 2.78c-0.466 0.086-1.003 0.135-1.551 0.135-0.102 0-0.203-0.002-0.304-0.005l0.015 0c-0.12 0-1.91-3.070-2.12-3.070s-0.75 0.13-0.72 0.29 1.75 2.93 1.59 2.9-0.84 0.13-1 0-1.59-2.47-1.81-2.58-0.91 0-0.84 0.22c0.397 0.623 0.813 1.37 1.188 2.14l0.062 0.14c-0.13 0.090-2.5-0.5-5.070-1-0.944-0.306-2.031-0.482-3.159-0.482-0.83 0-1.638 0.095-2.412 0.276l0.072-0.014c-2.56 0.44-3.15 1.31-9 1.47s-6.34-1.090-11 0.31c-2.355 0.7-4.344 1.475-6.254 2.39l0.254-0.11c-0.54 0.1-1.070 0.32-1.1 0.1 1.108-3.226 2.772-6.001 4.898-8.35l-0.018 0.020z"></path>
<path fill="#acb284" d="M7.68 26c1.606-0.156 3.072-0.63 4.376-1.359l-0.056 0.029c2.267-1.179 4.95-1.871 7.795-1.871 0.072 0 0.144 0 0.216 0.001l-0.011-0c3 0 3.84 1.25 9.34 0s7.66-1.8 10.84-1.22 4.18 1.65 8.5 1.34 5.9-0.81 6.12-0.59c0.506 1.093 0.899 2.364 1.118 3.693l0.012 0.087c-0.19 0.090-2.57 0.19-3.1 0.28s-1.22 0.25-1.22 0.25c-0.645-0.813-1.32-1.539-2.047-2.208l-0.013-0.012c-0.22 0-0.78 0.41-0.69 0.53s2.13 1.82 1.88 1.94c-0.361 0.133-0.813 0.264-1.276 0.366l-0.074 0.014c-0.727-0.866-1.492-1.644-2.315-2.358l-0.025-0.022c-0.28 0-0.59 0.28-0.56 0.41s2.31 2.18 2.15 2.31c-0.548 0.234-1.188 0.419-1.853 0.524l-0.047 0.006c-0.1-0.060-1.13-1.81-1.63-1.81s-0.72 0.19-0.65 0.31 1.28 1.81 1.12 1.84c-0.247 0.040-0.531 0.063-0.82 0.063-0.766 0-1.494-0.159-2.155-0.446l0.035 0.014c-1.423-0.546-3.069-0.862-4.789-0.862-0.271 0-0.541 0.008-0.808 0.023l0.037-0.002c-1.56 0.18-3.31 0.75-7.62 2.65s-5.41 2.28-10 2.1-5.28-0.6-7.82 0.18-4.75 1.8-4.81 1.63c-0.123-0.796-0.193-1.714-0.193-2.648 0-0.575 0.027-1.143 0.079-1.704l-0.005 0.072c0.124-1.311 0.468-2.515 0.998-3.613l-0.027 0.063z"></path>
<path fill="#ddc07c" d="M7.3 35.48c1.984-1.391 4.428-2.255 7.069-2.339l0.021-0.001c3.66 0 4.88 1.090 10.47-0.12s9.22-3.72 12.57-3.94 5.87 1.4 8.28 1.090 6.59-1.84 7.87-2 2.85-0.28 2.94 0c0.311 1.079 0.49 2.318 0.49 3.599 0 0.895-0.087 1.77-0.254 2.616l0.014-0.085c-0.56 3.62-1.59 6.31-1.88 6.5-0.55 0.21-1.2 0.384-1.871 0.492l-0.059 0.008c-0.22 0-0.16 0.28-0.44 0s-4.25-4.85-4.5-4.81-0.78 0.28-0.59 0.59 4.25 4.28 4 4.37c-0.31 0.037-0.669 0.059-1.034 0.059-0.518 0-1.026-0.043-1.52-0.126l0.053 0.007c-0.22-0.12-2.47-3-2.72-3s-0.63 0.13-0.56 0.34 2.060 2.44 1.9 2.54c-1.533-0.032-2.959-0.458-4.19-1.182l0.040 0.022c-1.72-1-3.88-2.53-7-2.47s-4 1.22-7.65 1.16-6.88-1.5-11.63-1.47c-0.343-0.012-0.747-0.020-1.151-0.020-2.031 0-4.020 0.178-5.953 0.519l0.205-0.030c-0.66 0.12-2 0.9-2.19 0.81-0.344-0.91-0.602-1.97-0.724-3.070l-0.005-0.060z"></path>
<path fill="#acb284" d="M8.43 39.83c1.952-0.65 4.2-1.024 6.535-1.024 0.667 0 1.327 0.031 1.979 0.090l-0.084-0.006c4.85 0.31 5.75 1.81 11.35 1.53s8-0.84 9.72-0.72 5.78 3 9.93 3.41 6.22-0.090 6.19 0.25c-0.402 1.022-0.801 1.865-1.249 2.677l0.059-0.117s-3.4 0.22-6.22 0.5-2.71 0.5-3.9 0.35c-1.379-0.366-2.962-0.577-4.595-0.577-0.593 0-1.18 0.028-1.759 0.082l0.074-0.006c-2.396 0.33-5.172 0.522-7.991 0.53h-0.009c-4.25 0.060-6-1.47-9.6-0.78-2.056 0.405-3.884 1.052-5.577 1.925l0.117-0.055c-0.38 0-1.66-1.53-3.070-3.53-0.932-1.277-1.6-2.806-1.891-4.465l-0.009-0.065z"></path>
<path fill="#1d1d1b" d="M21 12.3c0.034-0.064 0.054-0.14 0.054-0.221 0-0.265-0.215-0.48-0.48-0.48-0.037 0-0.073 0.004-0.107 0.012l0.003-0.001c-0.69 0.060-0.85 0.56-0.66 0.75s0.99 0.34 1.19-0.060zM27.54 11.2c-0.6 0.070-0.74 0.57-0.57 0.75s0.9 0.35 1-0.060-0.090-0.73-0.47-0.69zM30.91 11.64c0.14-0.41-0.080-0.73-0.46-0.69-0.6 0.070-0.74 0.57-0.58 0.75s0.86 0.35 1-0.060zM24.72 10.7c0.14-0.4-0.080-0.72-0.46-0.68-0.6 0.060-0.74 0.56-0.57 0.75s0.86 0.34 0.99-0.070zM27.54 12.92c-0.6 0.060-0.74 0.56-0.57 0.75s0.9 0.35 1-0.060-0.090-0.73-0.47-0.69zM32.6 9.64c0.13-0.41-0.080-0.73-0.47-0.69-0.6 0.070-0.73 0.57-0.57 0.75s0.86 0.35 1-0.060zM31.78 13.7c0.16 0.19 0.9 0.35 1-0.060s-0.080-0.73-0.47-0.69c-0.6 0.050-0.73 0.57-0.57 0.75zM34.93 13c0.14-0.41-0.080-0.73-0.46-0.69-0.6 0.060-0.74 0.56-0.57 0.75s0.9 0.36 1.030-0.060zM35.71 10.59c0.14-0.41-0.080-0.73-0.46-0.69-0.6 0.060-0.74 0.56-0.57 0.75s0.9 0.35 1.030-0.040zM37.59 12.31c0.13-0.41-0.080-0.73-0.47-0.69-0.6 0.060-0.73 0.56-0.57 0.75s0.9 0.36 1.040-0.040zM40.24 11.68c0.14-0.4-0.080-0.72-0.46-0.68-0.6 0.060-0.74 0.56-0.57 0.75s0.9 0.36 1.030-0.050zM18.58 17.92c0.78-0.22 1.78 0 3.44-0.22 1.118-0.071 2.162-0.26 3.16-0.555l-0.1 0.026c0.060-0.090 0-0.12-0.25-0.34s-1 0-3.44 0.12-3 0-3.25 0c-0.324 0.103-0.555 0.402-0.555 0.754 0 0.138 0.035 0.267 0.097 0.38l-0.002-0.004c0.18 0.15 0.12 0.060 0.9-0.16zM31.36 18.92c1.16-0.15 2.57-0.15 2.78-0.22s0-0.34-0.21-0.62-0.57-0.090-2 0-2-0.14-2.070 0-0.37 0.78-0.21 1 0.56 0.030 1.71-0.080zM10.61 29.64c0.003-0.942 0.145-1.85 0.407-2.706l-0.017 0.066c0-0.16-0.86-0.19-0.94 0-0.298 0.941-0.469 2.023-0.469 3.146 0 0.587 0.047 1.164 0.137 1.726l-0.008-0.062c0.12 0.15 0.84-0.13 1.060-0.31s-0.1-0.5-0.17-1.86zM17.37 25.64c0.14-0.4-0.080-0.73-0.46-0.69-0.6 0.070-0.74 0.57-0.58 0.75s0.9 0.38 1.040-0.030zM21.53 25.27c0.13-0.41-0.080-0.73-0.47-0.69-0.6 0.060-0.73 0.56-0.57 0.75s0.9 0.37 1.040-0.030zM16.75 27.61c-0.6 0.060-0.74 0.56-0.57 0.75s0.9 0.34 1-0.060-0.050-0.7-0.43-0.66zM14.28 30.3c0.13-0.41-0.080-0.73-0.47-0.69-0.6 0.060-0.73 0.56-0.57 0.75s0.9 0.37 1.040-0.030zM21.78 28.050c0.13-0.41-0.080-0.73-0.47-0.69-0.6 0.060-0.73 0.56-0.57 0.75s0.9 0.37 1.040-0.030zM20.060 30.3c0.13-0.41-0.080-0.73-0.47-0.69-0.6 0.060-0.73 0.56-0.57 0.75s0.9 0.37 1.040-0.030zM23.49 30.45c0.16 0.19 0.9 0.35 1-0.060s-0.080-0.73-0.47-0.69c-0.56 0.1-0.69 0.6-0.53 0.78zM24.36 28.020c0.17 0.18 0.9 0.34 1-0.070s-0.080-0.72-0.46-0.68c-0.56 0.090-0.7 0.59-0.54 0.78zM13.9 27c0.14-0.41-0.080-0.73-0.46-0.69-0.6 0.060-0.74 0.56-0.58 0.75s0.9 0.36 1.040-0.060zM26.49 25.62c0.14-0.41-0.080-0.73-0.46-0.69-0.6 0.070-0.74 0.57-0.57 0.75s0.9 0.37 1.030-0.040zM27.28 28.87c-0.6 0.060-0.74 0.56-0.57 0.75s0.9 0.34 1-0.060-0.050-0.71-0.43-0.67zM29.93 26.68c0.14-0.4-0.080-0.72-0.46-0.68-0.6 0.060-0.74 0.56-0.57 0.75s0.9 0.36 1.030-0.050zM31.69 26.9c-0.6 0.060-0.74 0.56-0.58 0.75s0.9 0.35 1-0.060-0.040-0.71-0.42-0.67zM31.81 23.65c-0.6 0.060-0.73 0.56-0.57 0.75s0.9 0.35 1-0.060-0.040-0.71-0.43-0.67zM35.68 26.25c0.14-0.41-0.080-0.73-0.46-0.69-0.6 0.060-0.74 0.56-0.57 0.75s0.9 0.36 1.030-0.040zM35.56 23.81c0.13-0.41-0.080-0.73-0.47-0.69-0.6 0.060-0.73 0.56-0.57 0.75s0.9 0.36 1.040-0.040zM39.56 23.93c0.13-0.4-0.080-0.72-0.47-0.68-0.6 0.060-0.73 0.56-0.57 0.75s0.93 0.36 1.070 0zM41.65 26.25c0.14-0.41-0.080-0.73-0.46-0.69-0.6 0.060-0.74 0.56-0.57 0.75s0.93 0.36 1.060-0.040zM44.090 24.43c0.14-0.4-0.080-0.72-0.46-0.68-0.6 0.060-0.74 0.56-0.58 0.75s0.95 0.36 1.070-0.050zM53.43 25.43c0.14-0.4-0.080-0.72-0.46-0.68-0.6 0.060-0.74 0.56-0.57 0.75s0.93 0.39 1.060-0.020zM26.36 36.36c-0.22-0.22-0.59 0.090-2.53 0-1.278-0.048-2.485-0.286-3.615-0.686l0.085 0.026s-0.25 0.5 0 0.72c1.138 0.422 2.453 0.683 3.824 0.72l0.016 0c0.381 0.043 0.823 0.067 1.27 0.067s0.889-0.025 1.324-0.072l-0.054 0.005c0.5-0.090-0.1-0.56-0.32-0.78zM42.83 32.67c-1.159-0.023-2.274-0.114-3.367-0.267l0.147 0.017c-2.036 0.021-4.011 0.224-5.926 0.593l0.206-0.033c-0.15 0.070 0 0.85 0 0.85s0.6 0 2.72-0.31c0.549-0.061 1.185-0.096 1.83-0.096s1.281 0.035 1.908 0.102l-0.078-0.007c0.682 0.067 1.474 0.105 2.275 0.105 0.178 0 0.355-0.002 0.532-0.006l-0.026 0c0.31-0.2 0.060-1.040-0.22-0.95zM40.21 36.45c0.22-0.090 0.12-0.5 0.15-0.72s-1-0.15-2.37-0.15-3.27-0.17-3.41-0.1-0.19 0.88 0.060 1c0.355 0.036 0.767 0.057 1.184 0.057 0.598 0 1.187-0.042 1.762-0.124l-0.066 0.008c1.22-0.090 2.48 0.13 2.69 0.030zM49.55 34c-0.226 0.197-0.399 0.45-0.496 0.738l-0.004 0.012c1.616 1.648 3.318 3.192 5.108 4.633l0.112 0.087c0.28 0.1 0.16-0.15 0.34-0.4s-4.88-4.91-5.060-5.070zM51.39 32.38c-0.21 0-0.47 0.36-0.4 0.53 1.307 1.24 2.724 2.399 4.221 3.451l0.119 0.079c0.19 0 0.16-0.22 0.16-0.53-1.23-1.296-2.571-2.463-4.016-3.493l-0.084-0.057zM56.080 31.38c0-0.25-2.25-1.73-2.25-1.44 0 0.060-0.5 0.47-0.53 0.66 0.777 0.519 1.671 0.956 2.622 1.268l0.078 0.022c0.14 0 0.080-0.28 0.080-0.53zM10.84 40.88c-0.6 0.060-0.73 0.56-0.57 0.75s0.9 0.34 1-0.060-0.040-0.75-0.43-0.71zM13 43.27c0.14-0.41-0.080-0.73-0.46-0.69-0.6 0.060-0.74 0.56-0.57 0.75s0.86 0.34 1.030-0.060zM14.95 43.27c-0.6 0.060-0.74 0.56-0.58 0.75s0.9 0.34 1-0.070-0.080-0.72-0.46-0.68zM15.19 40.55c0.14-0.41-0.080-0.73-0.46-0.69-0.6 0.060-0.74 0.56-0.58 0.75s0.85 0.39 1-0.060zM16.29 44.67c-0.6 0.060-0.74 0.56-0.57 0.75s0.9 0.35 1-0.060-0.090-0.73-0.47-0.69zM18.63 43.14c-0.6 0.060-0.73 0.56-0.57 0.75s0.9 0.34 1-0.060-0.060-0.73-0.47-0.69zM18.28 40.83c0.14-0.41-0.080-0.73-0.46-0.69-0.6 0.060-0.74 0.56-0.57 0.75s0.86 0.34 0.99-0.060zM20.28 42.7c-0.6 0.070-0.74 0.57-0.57 0.75s0.9 0.35 1-0.060-0.050-0.73-0.43-0.69zM22.19 41.23c-0.6 0.070-0.74 0.57-0.58 0.75s0.9 0.35 1-0.060-0.040-0.73-0.42-0.69zM23.19 44.67c-0.6 0.060-0.74 0.56-0.58 0.75s0.9 0.35 1-0.060-0.040-0.73-0.42-0.69zM24.75 41.86c-0.6 0.060-0.74 0.56-0.57 0.75s0.9 0.34 1-0.060-0.050-0.73-0.43-0.69zM26.19 43.42c-0.6 0.060-0.74 0.56-0.58 0.75s0.9 0.35 1-0.060-0.040-0.73-0.42-0.69zM29.34 42.36c0.13-0.41-0.080-0.73-0.47-0.69-0.6 0.060-0.73 0.56-0.57 0.75s0.9 0.35 1.040-0.060zM25.84 45.050c-0.6 0.060-0.73 0.56-0.57 0.75s0.9 0.34 1-0.070-0.040-0.73-0.43-0.68zM29.090 45.3c-0.6 0.060-0.73 0.56-0.57 0.75s0.9 0.34 1-0.070-0.040-0.72-0.43-0.68zM29.94 44c-0.6 0.060-0.74 0.56-0.58 0.75s0.9 0.34 1-0.070-0.040-0.68-0.42-0.68zM31.28 42.15c-0.6 0.060-0.74 0.56-0.57 0.75s0.9 0.35 1-0.060-0.050-0.71-0.43-0.67zM32.94 45.15c-0.6 0.060-0.74 0.56-0.58 0.75s0.9 0.35 1-0.060-0.040-0.71-0.42-0.67zM34.22 43.65c-0.6 0.060-0.74 0.56-0.57 0.75s0.9 0.35 1-0.060-0.050-0.71-0.43-0.67zM34.62 40.84c-0.6 0.060-0.73 0.56-0.57 0.75s0.9 0.34 1-0.060-0.050-0.71-0.43-0.67zM36.090 44.15c-0.6 0.060-0.73 0.56-0.57 0.75s0.9 0.35 1-0.060-0.040-0.71-0.43-0.67zM38.090 42.5c0.13-0.41-0.080-0.73-0.47-0.69-0.6 0.060-0.73 0.56-0.57 0.75s0.87 0.36 1.010-0.040zM38.19 43.5c-0.6 0.070-0.74 0.57-0.58 0.75s0.9 0.35 1-0.060-0.070-0.75-0.45-0.71zM40.28 42c-0.6 0.070-0.74 0.57-0.57 0.75s0.9 0.35 1-0.060-0.050-0.75-0.43-0.69zM39.47 44.88c-0.6 0.060-0.74 0.56-0.57 0.75s0.9 0.34 1-0.060-0.050-0.75-0.43-0.71zM41.69 44.72c-0.6 0.070-0.74 0.57-0.58 0.75s0.9 0.35 1-0.060-0.040-0.75-0.42-0.71zM44.19 44.1c-0.6 0.060-0.74 0.56-0.58 0.75s0.9 0.34 1-0.060-0.040-0.79-0.42-0.71zM13.19 45.44c-0.6 0.060-0.74 0.56-0.58 0.75s0.9 0.35 1-0.060-0.040-0.75-0.42-0.71z"></path>
<path fill="#ddc07c" d="M14.8 49s3.59-1.5 5.38-1.5 2.59 1.5 7.5 1.25 9.18-1.16 11.4-0.88 1.53 1.060 5 0.94 6.66-0.91 6.66-0.72-2.1 2.78-2.1 2.78c-0.553-0.504-1.153-0.987-1.782-1.431l-0.058-0.039c-0.16 0-0.63 0.31-0.53 0.44s1.87 1.5 1.75 1.62c-0.5 0.415-1.065 0.781-1.67 1.078l-0.050 0.022c-0.090-0.1-1.91-2.47-2.090-2.53s-0.72 0.15-0.72 0.25 2.37 2.56 2.18 2.72-0.25 0.18-0.37 0.15-0.59-0.81-0.84-0.84c-0.026-0.001-0.058-0.001-0.089-0.001-0.248 0-0.49 0.022-0.726 0.065l0.025-0.004c-0.579-0.639-1.189-1.221-1.84-1.756l-0.030-0.024c-0.25-0.060-0.63 0-0.56 0.22s1.53 1.87 1.34 1.87c-0.187 0.017-0.405 0.026-0.625 0.026s-0.438-0.010-0.653-0.028l0.028 0.002c-0.15-0.040-1.33-1.68-1.65-1.68s-0.69 0-0.69 0.13 0.84 1.59 0.84 1.59c-1.386-0.292-2.979-0.459-4.611-0.459-0.334 0-0.666 0.007-0.996 0.021l0.047-0.002c-2.66 0.19-3.47 0.44-4.91 0.44s-2.34-0.060-3.12 0c-0.679 0.038-1.313 0.127-1.928 0.265l0.078-0.015c-0.435 0.122-0.955 0.22-1.488 0.276l-0.043 0.004c-3.118-0.839-5.822-2.308-8.085-4.271l0.025 0.021z"></path>
<path fill="#acb284" d="M26.83 54.42c1.453-0.404 3.122-0.636 4.845-0.636 0.276 0 0.551 0.006 0.824 0.018l-0.039-0.001c3 0.18 3.37 0.59 5.68 0.65s3.69 0.13 3.69 0.13c-1.477 0.763-3.195 1.312-5.010 1.551l-0.080 0.009c-0.613 0.061-1.326 0.096-2.046 0.096-1.588 0-3.136-0.17-4.627-0.492l0.143 0.026c-1.311-0.398-2.431-0.857-3.497-1.405l0.117 0.055z"></path>
</svg>
