<!-- Generated by IcoMoon.io -->
<svg version="1.1" xmlns="http://www.w3.org/2000/svg" width="64" height="64" viewBox="0 0 64 64">
<path fill="#1d1d1b" d="M18.64 32.84c-0.050 0.25-0.090 5.7 0 6.080s0.62 0.080 0.79-0.25c0.072-0.849 0.112-1.837 0.112-2.835s-0.041-1.986-0.121-2.963l0.008 0.128c-0.040-0.29-0.77-0.33-0.79-0.16zM53.26 22.13c0.83-1 1.38-7.13-1-11.79s-7.12-5.92-13.46-6.88-13.58-1.58-19.16 1.17c-4.346 2.123-7.626 5.863-9.095 10.416l-0.035 0.124c-1 3.17-0.33 6.87 0.25 7.5 0.425 0.341 0.97 0.547 1.564 0.547 0.065 0 0.13-0.003 0.194-0.007l-0.008 0c1.746 1.358 3.708 2.643 5.772 3.767l0.228 0.113c4.67 2.66 9.25 8.12 9.25 8.12-2 1-3.83 3.79-4.58 6.13s-0.67 8.7-0.67 8.7-1.71 0.21-2 0.71c-0.099 1.068-0.155 2.31-0.155 3.565s0.056 2.497 0.167 3.723l-0.012-0.158c0.17 1 2.79 3 12.63 3.41s13.5-1.41 14-2.25 0.42-5.54 0.21-7.25-1.54-1.66-1.54-1.66c-0.035-3.42-0.599-6.696-1.615-9.767l0.065 0.227c-0.823-3.002-3.127-5.323-6.058-6.155l-0.062-0.015c1.447-2.5 3.236-4.623 5.334-6.39l0.036-0.029c1.935-1.776 4.178-3.257 6.633-4.348l0.157-0.062c0.17-0.050 2.13-0.46 2.96-1.46zM30.72 32.75c0.21 1 0.46 1.21 0.46 1.21l-1.88 0.5c-2.053-3.221-4.768-5.844-7.97-7.73l-0.11-0.060c-5.5-3.21-7.79-4.92-7.79-4.92 0.588-1.846 2.254-3.174 4.241-3.25l0.009-0c0.284-0.026 0.613-0.041 0.947-0.041 2.133 0 4.124 0.607 5.81 1.658l-0.047-0.027c0.16 0.25 0.54 0.62 0.79 0.62s2.21 2.54 3.83 5.75 2.33 4.63 2.33 4.63c-0.396 0.32-0.648 0.805-0.648 1.35 0 0.11 0.010 0.217 0.030 0.321l-0.002-0.011zM33.72 29.84c-0.056-0.006-0.121-0.009-0.186-0.009-0.362 0-0.701 0.096-0.994 0.264l0.010-0.005s-1.33-3.42-3-6.71c-0.847-1.666-1.694-3.070-2.628-4.408l0.078 0.118c1.478-1.888 3.757-3.091 6.317-3.091 0.040 0 0.080 0 0.119 0.001l-0.006-0c0.080-0.003 0.174-0.005 0.268-0.005 2.345 0 4.437 1.085 5.8 2.78l0.011 0.014s-1.87 4.21-2.79 6.71-1.88 4.59-1.88 4.59c-0.316-0.095-0.708-0.182-1.109-0.244l-0.051-0.006zM49.13 22.34c-3.135 1.589-5.789 3.669-7.974 6.169l-0.026 0.031c-1.313 1.567-2.628 3.307-3.854 5.113l-0.146 0.227-1.13-0.25c0.2-0.363 0.318-0.796 0.318-1.256 0-0.597-0.198-1.148-0.533-1.591l0.005 0.007c-0.12-0.14 3.13-7.29 4-9.5s1.92-3.45 3.54-3.45 3.59 0.12 4.75 1.41c0.632 0.778 1.015 1.78 1.015 2.872 0 0.077-0.002 0.153-0.006 0.229l0-0.011zM13.26 30.42c-0.027 0.89-0.043 1.936-0.043 2.986 0 2.937 0.121 5.845 0.358 8.721l-0.025-0.377c0.25 0.63 0.5 0.17 0.75 0s-0.12-11-0.29-11.37-0.5-0.21-0.75 0.040zM52.72 29c-0.080 0.17 0.29 11.13 0.33 11.38s0.34 0.21 0.71 0.080 0.080-11.080 0-11.42c-0.11-0.183-0.307-0.303-0.533-0.303-0.209 0-0.393 0.103-0.506 0.261l-0.001 0.002zM45.59 31.84s0.17 4.54 0.3 4.83 0.83 0.12 1 0c0.028-0.532 0.043-1.155 0.043-1.782 0-1.059-0.045-2.107-0.132-3.144l0.009 0.135c-0.13-0.25-0.92-0.090-1.22-0.040z"></path>
<path fill="#696a9b" d="M32.59 31.38c0.242-0.121 0.528-0.192 0.831-0.192 0.837 0 1.548 0.545 1.796 1.299l0.004 0.013c0.12 1-0.21 1.17-0.21 1.17-0.492-0.083-1.060-0.13-1.638-0.13-0.025 0-0.050 0-0.075 0h0.004c-0.363 0.017-0.705 0.078-1.030 0.178l0.030-0.008c-0.32-0.253-0.524-0.642-0.524-1.078 0-0.555 0.331-1.034 0.806-1.249l0.009-0.003z"></path>
<path fill="#e7413e" d="M11.84 20.71c-0.044-0.392-0.070-0.847-0.070-1.308 0-2.645 0.835-5.095 2.255-7.101l-0.026 0.038c2.87-4.38 6.58-7.13 13-7.84s14.41 0.92 17.66 1.92c3.211 0.862 5.708 3.289 6.652 6.393l0.018 0.067c0.447 1.472 0.704 3.164 0.704 4.916 0 0.94-0.074 1.863-0.217 2.764l0.013-0.099c-0.12 0.5-0.17 0.75-0.37 0.79s-0.59 0.17-0.55 0-0.75-3.12-0.75-3.12-2.5-6.25-2.79-6.38-0.83 0.21-0.66 0.42 2.5 5.58 2.5 5.58c-0.436-0.341-0.926-0.671-1.438-0.967l-0.062-0.033c-0.238-0.113-0.518-0.213-0.809-0.284l-0.031-0.006c-0.707-1.334-1.419-2.466-2.206-3.54l0.056 0.080c-0.25 0-0.88 0.25-0.71 0.46 0.621 0.842 1.215 1.798 1.733 2.8l0.057 0.12c-0.16 0-0.62 0-1 0-0.093-0.012-0.201-0.019-0.31-0.019s-0.217 0.007-0.323 0.020l0.013-0.001c-0.526-0.924-1.035-1.701-1.586-2.446l0.046 0.066c-0.17 0-0.71 0.080-0.55 0.29s1.17 2.21 1.17 2.21c-0.2-0.027-0.431-0.043-0.665-0.043s-0.465 0.016-0.691 0.046l0.026-0.003c-0.471 0.154-0.875 0.397-1.212 0.712l0.002-0.002c-1.862-1.623-4.313-2.613-6.995-2.613-0.294 0-0.585 0.012-0.873 0.035l0.038-0.002c-3.115 0.29-5.836 1.775-7.737 3.985l-0.013 0.015c-1.736-1.107-3.852-1.765-6.122-1.765-0.62 0-1.229 0.049-1.823 0.144l0.066-0.009c-4.42 0.84-5.42 3.71-5.42 3.71z"></path>
<path fill="#1d1d1b" d="M48.8 12.29s0.71-0.33 0.79-0.2 1.67 4.2 1.38 4.41-0.67 0.21-0.79 0c-0.5-1.16-0.973-2.563-1.337-4.009l-0.043-0.201z"></path>
<path fill="#1d1d1b" d="M14.93 14.21c0.476-1.623 1.407-2.988 2.645-3.988l0.015-0.012c2-1.71 2.67-1.79 3-1.71s0.46 0.75 0.46 0.75c-1.273 0.49-2.349 1.245-3.203 2.202l-0.007 0.008c-0.713 0.769-1.257 1.704-1.567 2.74l-0.013 0.050c-0.17 0.17-1.26 0-1.33-0.040z"></path>
<path fill="#92a0d1" d="M24.26 51s-0.29-6.41 0.83-9.7 3.46-6.46 10.17-6.25 7.83 6.7 8.13 8c0.373 2.299 0.642 5.041 0.746 7.824l0.004 0.126c-0.13 0.17-2.13 1.71-10.42 1.42s-9.46-1.42-9.46-1.42z"></path>
<path fill="#1d1d1b" d="M29.43 38.090c3-2.29 12.12-1.090 11.21 6.2s-9.3 9-12.42 4.8-1.96-8.63 1.21-11z"></path>
<path fill="#e7413e" d="M30 39c2.59-1.94 10.32-0.92 9.54 5.29s-7.87 7.61-10.54 4.070-1.66-7.36 1-9.36z"></path>
<path fill="#1d1d1b" d="M30.85 40.2c2-1.49 7.93-0.71 7.33 4.060s-6.070 5.85-8.12 3.13c-0.754-0.859-1.214-1.992-1.214-3.232 0-1.618 0.783-3.054 1.991-3.948l0.013-0.009z"></path>
<path fill="#fab900" d="M32.51 40.67c1.14-0.32 2.92-0.21 3.67 1 0.459 0.907 0.729 1.977 0.729 3.11 0 0.18-0.007 0.358-0.020 0.534l0.001-0.023c-0.13-0.080-1.38-1.12-1.59-1s-0.41 0.25-0.33 0.42 1.5 1.12 1.46 1.29c-0.128 0.223-0.281 0.414-0.458 0.579l-0.002 0.001c-0.562-0.576-1.177-1.095-1.838-1.553l-0.042-0.027c-0.25 0-0.5 0.42-0.29 0.58s1.54 1.42 1.46 1.59-0.54 0.46-0.67 0.37-1.2-1.46-1.41-1.41-0.67 0-0.5 0.29 1 1.41 1 1.41c-0.209 0.054-0.45 0.085-0.698 0.085-1.28 0-2.367-0.826-2.756-1.974l-0.006-0.020c-0.26-0.492-0.412-1.076-0.412-1.695 0-1.686 1.131-3.108 2.676-3.549l0.026-0.006z"></path>
<path fill="#1d1d1b" d="M32.34 41.71c0.19-0.090 0.71 0.13 0.59 0.46s-0.88 0.37-1.090 1.33 0.050 1.38-0.16 1.42-0.67 0.17-0.79 0c-0.068-0.225-0.108-0.484-0.108-0.752 0-0.425 0.099-0.827 0.275-1.183l-0.007 0.016c0.275-0.568 0.722-1.015 1.274-1.283l0.016-0.007z"></path>
<path fill="#696a9b" d="M22.39 52.090c0.070-0.37 3 1.79 10.58 1.75s12.33-1.67 12.42-1.42c0.191 1.555 0.31 3.377 0.33 5.223l0 0.027c-0.13 0-0.88-2.46-1.13-2.5s-0.62 0.12-0.58 0.33c0.384 0.797 0.752 1.752 1.044 2.74l0.036 0.14c-0.12 0.21-0.91 0.54-0.91 0.54s-1.42-4.75-1.79-4.79-0.88 0-0.84 0.21 1.79 4.75 1.54 4.83-0.66 0.17-0.66 0.17-1.67-4.25-1.84-4.3-0.83 0.13-0.79 0.34 1.79 4 1.63 4-0.84 0.12-0.84 0.12c-0.585-1.605-1.145-2.895-1.767-4.148l0.107 0.238c-0.17 0-0.84 0.080-0.75 0.29l1.37 3.58s-1.12 0.21-1.16 0.080c-0.371-1.313-0.797-2.432-1.307-3.503l0.057 0.133c-0.21 0-0.75 0.080-0.67 0.29 0.374 0.883 0.718 1.941 0.973 3.033l0.027 0.137c-2.699-0.036-5.313-0.217-7.885-0.535l0.345 0.035c-4.38-0.46-7.21-1.67-7.38-1.92-0.116-1.141-0.182-2.466-0.182-3.807 0-0.462 0.008-0.922 0.023-1.38l-0.002 0.067z"></path>
</svg>
