<!-- Generated by IcoMoon.io -->
<svg version="1.1" xmlns="http://www.w3.org/2000/svg" width="64" height="64" viewBox="0 0 64 64">
<path fill="#1d1d1b" d="M10.64 22.93c-0.888-0.87-1.963-1.553-3.159-1.981l-0.061-0.019c-0.984-0.162-1.865-0.487-2.657-0.95l0.037 0.020c-0.1-0.19-0.16-0.66 0.12-0.85 2.187-2.067 4.877-3.624 7.866-4.468l0.134-0.032c5.1-1.4 7.31-1.12 7.91-0.93 0.577 0.206 1.062 0.425 1.526 0.678l-0.056-0.028s2.18-2.22 8.43-2.25 9.070 2.69 9.070 2.69 3.81-2.81 4.2-3.010c0.169-0.103 0.373-0.164 0.592-0.164 0.368 0 0.696 0.173 0.906 0.442l0.002 0.002c0.38 1.257 0.68 2.744 0.841 4.272l0.009 0.108c0.633-0.005 1.248-0.063 1.846-0.17l-0.066 0.010c0-0.090-0.59-4-0.34-4.090s3.53 0.25 3.56 0.59 0 1 0.12 1.72c0.054 0.409 0.141 0.778 0.262 1.131l-0.012-0.041 1.88-0.12c0.127-1.24 1.144-2.205 2.396-2.25l0.004-0c2.22-0.25 3.63 1.62 3.28 3.84s-2.65 2-3.18 1.85c-0.318-0.088-0.593-0.24-0.822-0.442l0.002 0.002-1.64 1.51c0.429 0.738 0.833 1.352 1.264 1.943l-0.044-0.063c0.4 0.5 0.72 0.59 0.65 0.87s-2 3.63-2.37 3.5c-0.816-0.816-1.512-1.751-2.059-2.777l-0.031-0.063c-0.57-1-0.94-1.75-0.94-1.75l-1.35 1.25c0.575 1.566 1.188 2.884 1.894 4.144l-0.074-0.144c1.060 1.89 1.42 2.090 1.18 2.39s-4.62 0.31-5.68 0.35-2 0-2 0-0.56 2.5-4.25 4.32c-1.819 0.988-3.956 1.638-6.228 1.807l-0.052 0.003s-0.5 4.81-1.72 5.62-4.35 0.79-4.35 0.79c-0.023 0.581-0.036 1.264-0.036 1.949 0 1.172 0.039 2.335 0.115 3.487l-0.008-0.157c0.18 2.22 0.75 3.75-1 4.47s-7.79 0.43-9.54 0.21-3.81-1.35-3.5-3.15 3.88-12.56 3.88-12.56c-3.006-0.719-5.655-1.838-8.058-3.318l0.118 0.068c-3.030-2.11-2.45-6.33 1.19-10.26z"></path>
<path fill="#92a0d1" d="M8.17 19.15c0.050-0.28 3.31-2.19 6.25-3.13s4.94-0.78 4.78-0.59c-1.901 1.223-3.553 2.497-5.090 3.897l0.030-0.027c-1.69 1.78-2.22 2.53-2.31 2.41s-1.13-1.6-2.13-1.78-1.56-0.6-1.53-0.78z"></path>
<path fill="#696a9b" d="M17.45 18.86c3.040-2.584 6.834-4.369 11.010-4.985l0.12-0.015c4.65-0.56 8.12 0.1 10.72 2.69s3.62 7.16 3.71 8.72c0.006 0.124 0.010 0.268 0.010 0.414 0 0.922-0.139 1.812-0.396 2.65l0.017-0.064c-0.607-0.977-1.237-1.823-1.929-2.612l0.019 0.022c-0.22 0-0.56 0.22-0.56 0.43s2.060 3 1.94 3.29-0.6 1.43-0.78 1.46-2.16-3.59-2.33-3.65-0.59 0-0.62 0.19 2.22 4 2.22 4-1 0.78-1.1 0.72-2.25-4-2.44-4-0.71 0.25-0.68 0.37 2.43 3.94 2.31 4.060-1.16 0.69-1.22 0.57-2.44-4-2.62-4-0.72 0.4-0.69 0.5 2.44 3.71 2.25 3.84-0.94 0.41-1 0.28-2.27-3.13-2.41-3.13-0.81 0.38-0.78 0.54 2.16 2.81 2 2.9c-0.272 0.094-0.588 0.161-0.915 0.189l-0.015 0.001c-0.695-1.074-1.387-2.001-2.132-2.879l0.032 0.039c-0.18 0-0.68 0.18-0.68 0.28s1.68 2.56 1.59 2.65c-0.337 0.105-0.732 0.183-1.139 0.218l-0.021 0.002c-0.543-0.974-1.099-1.808-1.713-2.594l0.033 0.044c-0.18 0-1 0.28-0.9 0.41s1.5 2.22 1.31 2.31c-1.606 0.252-3.458 0.395-5.344 0.395-1.143 0-2.273-0.053-3.39-0.156l0.143 0.011c-4.5-0.38-8.44-2-10-3.31s-2.080-2.58-0.82-4.76c2.093-3.052 4.465-5.693 7.137-7.995l0.053-0.045z"></path>
<path fill="#e7413e" d="M40.86 15.65c0.15-0.16 3.15-2.22 3.15-2 0.228 3.021 0.967 5.815 2.133 8.374l-0.063-0.154c1.84 4.12 3.060 5.93 3 6s-3.94 0.12-3.94 0.12c0.012-0.255 0.019-0.555 0.019-0.855 0-2.442-0.455-4.777-1.284-6.926l0.045 0.132c-0.761-1.816-1.794-3.371-3.065-4.695l0.005 0.005z"></path>
<path fill="#85bfe9" d="M46.7 17.43c0.287-0.097 0.617-0.153 0.96-0.153 0.202 0 0.398 0.019 0.589 0.056l-0.019-0.003c0.13 0.13 0.22 0.66 0.75 1.88s0.69 1.65 0.69 1.65l-1.44 0.94c-0.783-1.251-1.325-2.73-1.525-4.317l-0.005-0.053z"></path>
<path fill="#f2910d" d="M49.050 13.71c0-0.22 1.4-0.1 1.46 0 0.331 1.815 0.754 3.391 1.288 4.914l-0.068-0.224c0.805 1.78 1.65 3.289 2.604 4.718l-0.074-0.118c0 0.19-0.9 1.62-1 1.53-1.353-1.642-2.443-3.561-3.171-5.65l-0.039-0.13c-0.444-1.444-0.796-3.154-0.989-4.912l-0.011-0.128z"></path>
<path fill="#85bfe9" d="M52.33 16.46c0-0.16 1.25-0.13 1.25-0.13 0.049 0.377 0.18 0.716 0.375 1.009l-0.005-0.009 0.44 0.63s-1.060 1.12-1.22 1c-0.537-0.533-0.869-1.271-0.869-2.087 0-0.146 0.011-0.289 0.031-0.429l-0.002 0.016z"></path>
<path fill="#cbe7f5" d="M56.45 14.36c0.020-0.001 0.044-0.001 0.068-0.001 0.978 0 1.77 0.792 1.77 1.77 0 0.197-0.032 0.387-0.092 0.564l0.004-0.012c-0.129 0.726-0.755 1.27-1.508 1.27-0.528 0-0.994-0.268-1.269-0.675l-0.003-0.005c-1.030-1.16-0.94-3.060 1.030-2.91z"></path>
<path fill="#f2910d" d="M29 36.74c0.050-0.080 2.56-0.31 2.56-0.31s-1 3.72-1.12 3.84c-0.644 0.22-1.385 0.347-2.156 0.347-0.11 0-0.22-0.003-0.329-0.008l0.015 0.001c-0.007-0.115-0.012-0.25-0.012-0.385 0-1.297 0.389-2.503 1.056-3.508l-0.015 0.023z"></path>
<path fill="#e7413e" d="M19.48 36.61c0.904 0.208 1.941 0.327 3.007 0.327 0.152 0 0.304-0.002 0.455-0.007l-0.022 0.001c2.13 0 3.63-0.19 3.63-0.19-0.385 0.924-0.682 1.999-0.842 3.118l-0.008 0.072c-0.15 1.53-0.28 2.34-0.28 2.34-0.769-0.928-1.561-1.763-2.403-2.544l-0.017-0.016c-0.18 0-0.47 0.72-0.4 0.84s2.75 2.75 2.78 2.91 0.060 2.19 0.15 2.81 0.19 1.5 0.19 1.5-3.5-3.62-3.65-3.62-0.44 0.81-0.44 0.81 4.28 4.15 4.28 4.4 0.16 1.25-0.060 1.25c-0.086 0.018-0.184 0.028-0.285 0.028s-0.199-0.010-0.294-0.030l0.009 0.002c-0.12-0.060-4.31-4.37-4.5-4.4s-0.59 0.5-0.53 0.68 3.88 3.69 3.69 3.75c-0.187 0.015-0.405 0.024-0.625 0.024s-0.438-0.009-0.653-0.026l0.028 0.002c-1.034-1.040-2.123-2.022-3.264-2.941l-0.076-0.059c-0.22 0-0.69 0.68-0.63 0.78s2.53 2.25 2.53 2.25c-1.555-0.013-3.062-0.183-4.516-0.496l0.146 0.026c-1.22-0.41-1.31-1.060-1.22-1.47s3.6-11.73 3.82-12.12z"></path>
<path fill="#1d1d1b" d="M23.64 38.68c-0.080-0.070 0.25-0.66 0.37-0.6s1.070 0.78 1 1.1-0.19 0.59-0.29 0.56-0.89-0.91-1.080-1.060z"></path>
<path fill="#1d1d1b" d="M22.55 42c0-0.24 2.21 2 2.21 2.13s0.16 1.21 0 1.18c-0.892-0.703-1.686-1.44-2.417-2.236l-0.013-0.014c-0.16-0.2 0.22-0.91 0.22-1.060z"></path>
<path fill="#1d1d1b" d="M18.3 21.36c0.586 0.992 1.192 2.188 1.726 3.422l0.084 0.218c-0.1 0.19-0.47 0.53-0.63 0.34-0.697-1.026-1.383-2.212-1.984-3.447l-0.076-0.173c0.239-0.2 0.542-0.331 0.874-0.36l0.006-0z"></path>
<path fill="#1d1d1b" d="M19.86 19.71c0-0.11 0.72-0.44 0.9-0.41 0.913 1.413 1.753 3.040 2.432 4.747l0.068 0.193c-0.115 0.262-0.372 0.441-0.67 0.441-0.014 0-0.028-0-0.041-0.001l0.002 0c-0.13-0.070-2.69-4.82-2.69-4.97z"></path>
<path fill="#1d1d1b" d="M22.73 17.86c0-0.1 0.82-0.5 1.13-0.37 0.878 1.338 1.666 2.874 2.284 4.494l0.056 0.166c-0.060 0.21-0.84 0.59-1.060 0.37s-2.53-4.31-2.41-4.66z"></path>
<path fill="#1d1d1b" d="M26 17.8c0.19-0.12 0.72-0.4 0.85-0.28 0.534 0.983 1.026 2.135 1.41 3.335l0.040 0.145c-0.1 0.22-0.69 0.59-0.88 0.44s-1.42-3.64-1.42-3.64z"></path>
<path fill="#1d1d1b" d="M32.42 14.9c0.020-0 0.043-0 0.066-0 1.077 0 2.106 0.206 3.050 0.58l-0.056-0.020c1.41 0.44 2.070 0.84 2.1 1.060s-0.22 1-0.35 1c-0.664-0.325-1.491-0.663-2.34-0.953l-0.16-0.047c-1.12-0.31-2.25-0.25-2.4-0.44s-0.13-1.080 0.090-1.18z"></path>
</svg>
