<!-- Generated by IcoMoon.io -->
<svg version="1.1" xmlns="http://www.w3.org/2000/svg" width="64" height="64" viewBox="0 0 64 64">
<path fill="#1d1d1b" d="M27.6 6.26c7.77-1 16.37 1.38 23.75 7.44s8.19 11.94 7.25 21.5-4.6 15.25-12.19 19.56-21.87 5.32-30.41-3.62-10-12.56-10.84-20.63 6.13-22.060 22.44-24.25z"></path>
<path fill="#e7413e" d="M28.88 7.86c5.64-0.93 12.69 1.25 17.66 4.4s7.93 7 9.18 10.41 1.41 5.88 1 10.5c-0.276 4.599-1.513 8.851-3.511 12.639l0.081-0.169c-1.462 2.519-3.334 4.633-5.548 6.322l-0.052 0.038c-0.741 0.553-1.582 1.054-2.473 1.464l-0.087 0.036s-3.34-3.75-3.5-3.78-0.69 0.25-0.56 0.41 3.37 3.69 3.25 3.81c-0.476 0.178-1.053 0.341-1.646 0.458l-0.074 0.012s-3-3.16-3.1-3.16-0.62 0.19-0.56 0.38 2.85 2.87 2.66 3-8.47 2-14.13 0.34-9.14-5-13.35-9.1-7.5-11.5-6.92-17.87 4.67-12.8 9.21-15.59c3.556-2.31 7.776-3.921 12.313-4.533l0.157-0.017z"></path>
<path fill="#1d1d1b" d="M34.87 12.49c0.82-0.31 4.12-1 5.17-0.080s1.45 2.88 0.080 3.58-5.46 1.25-6.17 0.75-1.62-1.54-1.37-1.95c0.518-0.989 1.303-1.778 2.261-2.286l0.029-0.014z"></path>
<path fill="#a42116" d="M37.58 12.91c1.34 0 2.080 0.38 2.16 0.83s-0.5 1.13-1.33 1.42c-0.721 0.23-1.551 0.362-2.412 0.362-0.384 0-0.761-0.026-1.131-0.077l0.043 0.005c-0.297-0.276-0.536-0.608-0.702-0.981l-0.008-0.019c0.884-0.858 2.057-1.424 3.359-1.538l0.021-0.002z"></path>
<path fill="#1d1d1b" d="M41.16 21.16c0.43 0.060 0.25 1 1 1.5s1.21 1 1 1.46c-0.718 1.186-1.815 2.081-3.119 2.528l-0.041 0.012c-1.8 0.54-2.8 0.29-3.25-0.71s0.41-2.5 1.66-3.46 1.79-1.49 2.75-1.33z"></path>
<path fill="#a42116" d="M40.29 22.58c0.35-0.080 0.12 0.58 0.79 1s1 0.25 0.62 0.71c-0.652 0.675-1.487 1.17-2.425 1.403l-0.035 0.007c-0.66 0-1.2-0.16-0.87-0.87s1.33-2.13 1.92-2.25z"></path>
<path fill="#1d1d1b" d="M44.080 31c0.52-0.29 1.71 0.12 2.25-0.34s0.41-1.25 1.080-1.41 1.33 0.5 2.33 0.66 1.71 0 1.88 0.67-0.29 2.25-0.13 2.92 0.38 1.66 0.38 1.66-1.33 2-1.92 2-1-0.25-1.25 0.17 0.21 1.33-0.62 1.33c-0.015 0-0.033 0-0.050 0-0.881 0-1.723-0.169-2.495-0.476l0.046 0.016c-0.451-0.172-0.982-0.315-1.532-0.404l-0.048-0.006c-0.71-0.17-2-1.17-1.8-1.67s1.8-1.42 1.54-2.12-0.66-2.42 0.34-3z"></path>
<path fill="#f2910d" d="M45.66 32.45c0.5-0.21 1.33 0.5 1.83 0.13s0.55-1.38 1.13-1.34 1.29 0 1.12 0.34-1 1-0.66 1.75 0.83 1.62 0.62 1.91-1-0.33-1.66 0.38-0.55 1.33-1 1.29-2.7-0.71-2.5-1 1-0.71 1.090-1.46-0.26-1.87 0.030-2z"></path>
<path fill="#1d1d1b" d="M40.79 39.83c0.358-0.28 0.815-0.449 1.311-0.449 0.292 0 0.57 0.058 0.823 0.164l-0.014-0.005c0.54 0.41 0.58 0.87 1.46 0.91s1.71-0.62 1.79-0.5 0.54 0.5 0.13 0.79-1.17 0.92-1.75 0.8-1.21-0.84-1.84-0.88-0.75 0.42-1.46 0.38-0.54-1.040-0.45-1.21z"></path>
<path fill="#1d1d1b" d="M46.83 44.62c0.244-0.13 0.534-0.206 0.842-0.206 0.979 0 1.778 0.773 1.818 1.743l0 0.004c0.3 1.63-0.91 2.54-2.75 2s-1.95-2.71 0.090-3.54z"></path>
<path fill="#a42116" d="M47.37 45.54c0.082-0.028 0.176-0.044 0.275-0.044 0.486 0 0.88 0.394 0.88 0.88 0 0.087-0.013 0.171-0.036 0.25l0.002-0.006c-0.2 0.75-1.29 0.42-1.62 0.25s-0.33-1.040 0.5-1.33z"></path>
<path fill="#1d1d1b" d="M48.62 39.74c0.53-0.17 4 3.25 3.83 3.59s0 0.71-0.5 0.5-3.95-2.83-3.95-3.21c0.059-0.383 0.292-0.702 0.614-0.877l0.006-0.003z"></path>
<path fill="#1d1d1b" d="M50.54 38.29c0.080-0.26 0.45-0.67 0.7-0.46s2.8 2.71 2.63 3-0.21 0.66-0.58 0.41c-0.994-0.903-1.895-1.867-2.712-2.9l-0.038-0.050z"></path>
<path fill="#1d1d1b" d="M52.58 36.29s0.080-0.67 0.37-0.63 2 1.29 1.92 1.75 0.080 0.67-0.21 0.67-1.92-1.71-2.080-1.79z"></path>
<path fill="#1d1d1b" d="M53.79 33.37c-0.18 0 0.12-0.75 0.25-0.75s1.29 1.12 1.29 1.67 0.21 0.7-0.090 0.62-1.24-1.54-1.45-1.54z"></path>
<path fill="#1d1d1b" d="M50.83 22.58c1.070-0.42 2.21-0.46 2.75 0.87 0.119 0.249 0.189 0.541 0.189 0.849 0 1.105-0.895 2-2 2-0.067 0-0.132-0.003-0.197-0.010l0.008 0.001c-1.54-0.13-2.25-1.090-2.13-2 0.008-0.832 0.59-1.527 1.368-1.708l0.012-0.002z"></path>
<path fill="#f2910d" d="M51.22 23.45c0.53-0.21 1.1-0.23 1.36 0.43 0.057 0.122 0.090 0.264 0.090 0.414 0 0.552-0.448 1-1 1-0.032 0-0.063-0.001-0.094-0.004l0.004 0c-0.76-0.060-1.12-0.54-1-1 0-0.003-0-0.006-0-0.009 0-0.397 0.269-0.731 0.634-0.83l0.006-0.001z"></path>
<path fill="#1d1d1b" d="M20.87 12.16c0.26-0.090 0.75-0.75 1.54-0.58s0.63 0.62 2.21 0.58 1.83-0.5 2.17-0.33 0.54 0.16 0.29 0.41c-0.186 0.239-0.444 0.416-0.74 0.498l-0.010 0.002c-0.454 0.274-1.003 0.437-1.589 0.437-0.325 0-0.639-0.050-0.933-0.142l0.022 0.006c-1.25-0.46-1.21-0.88-1.75-0.63s-0.46 0.46-0.75 0.42-0.59-0.63-0.46-0.67z"></path>
<path fill="#1d1d1b" d="M25.49 16.49c2-0.53 3.13-0.2 3.8 0.34s0.75 1 1.54 1.54c0.628 0.439 1.034 1.159 1.034 1.973 0 0.643-0.253 1.227-0.665 1.658l0.001-0.001c-1.257 0.977-2.857 1.567-4.595 1.567-1.033 0-2.018-0.208-2.915-0.586l0.049 0.018c-2.87-1.25-2.2-3.59-1.41-4.42 0.847-0.927 1.908-1.643 3.106-2.073l0.054-0.017z"></path>
<path fill="#f2910d" d="M25.62 17.62c0.5-0.21 1.17 0.87 2.12 0.92s0.71-0.59 1.5 0.37 1.17 1.38 0.88 1.92c-0.864 0.808-2.029 1.304-3.309 1.304-0.607 0-1.188-0.112-1.724-0.315l0.033 0.011c-2.17-1-2-1.71-1.58-2.38 0.528-0.776 1.228-1.397 2.049-1.816l0.031-0.014z"></path>
<path fill="#1d1d1b" d="M16 25.33c0.77-0.43 3.090-1 3.55-0.38s-0.050 1.79-0.71 2.34-1.29 1.5-2.54 1.16-1.59-0.46-1.67-1c-0.001-0.024-0.002-0.053-0.002-0.082 0-0.916 0.56-1.702 1.357-2.033l0.015-0.005z"></path>
<path fill="#a42116" d="M16.66 26c0.437-0.225 0.954-0.356 1.501-0.356 0.148 0 0.293 0.010 0.436 0.028l-0.017-0.002c0.37 0.17 0.41 0.46-0.17 0.92s-1.25 1.33-1.92 1.2-1.66-1 0.17-1.79z"></path>
<path fill="#1d1d1b" d="M26.54 30.66c0.215-0.101 0.467-0.16 0.733-0.16 0.972 0 1.76 0.788 1.76 1.76 0 0.269-0.060 0.523-0.168 0.751l0.005-0.011c-0.71 2-3.79 2.92-4.83 2s-1.040-2.55 2.5-4.34z"></path>
<path fill="#f2910d" d="M26.45 31.54c0.48-0.24 1.79 0.080 1.46 1.12s-2.17 2-2.83 1.79-1.34-1.58 1.37-2.91z"></path>
<path fill="#1d1d1b" d="M37 33.080c0.6-0.26 2.66 0 2.62 1.33s-1.62 1.92-2.62 1.5-2.13-1.91 0-2.83z"></path>
<path fill="#a42116" d="M37.42 33.91c0.26-0.11 1.13 0 1.12 0.56-0.068 0.402-0.413 0.704-0.829 0.704-0.116 0-0.226-0.023-0.327-0.066l0.005 0.002c-0.46-0.18-0.89-0.82 0.030-1.2z"></path>
<path fill="#1d1d1b" d="M20.87 47.87c0.22-0.21 1 1 2 1 0.67-0.105 1.215-0.554 1.456-1.157l0.004-0.013c0.16-0.33 0.16-0.58 0.45-0.62s0.5 0 0.38 0.37-0.33 1.54-1 2c-0.408 0.236-0.898 0.374-1.42 0.374s-1.012-0.139-1.434-0.382l0.014 0.007c-0.95-0.62-1.080-1-0.45-1.58z"></path>
<path fill="#1d1d1b" d="M25.080 45.33c0-0.27 0.29-0.21 1.080-0.21s1.21 0.21 1.17 0c-0.207-0.779-0.585-1.452-1.093-2.003l0.003 0.003c-0.58-0.42-1-0.54-0.87-0.83s0.33-0.63 0.58-0.67 2.88 0.25 2.75 0-0.7-1.33-0.37-1.62 1.25-0.83 1.54-0.66 0.75 0.66 1 0.5 0.46-0.25 0.46-0.46-0.46-1.25 0.080-1.54 1.79-0.46 1.92 0 0.41 2.37 0.62 2.29c0.361-0.185 0.78-0.331 1.22-0.415l0.030-0.005c0.412 0.213 0.893 0.362 1.401 0.418l0.019 0.002c0.79 0 1.92 0.37 1.92 0.71s-0.17 0.87 0.12 1.12 1.83 0.29 2.54 1.42c0.489 0.598 0.785 1.371 0.785 2.212 0 0.464-0.090 0.906-0.253 1.312l0.008-0.024c-0.54 1.33-1 1.83-1.66 1.79-0.393-0.087-0.845-0.136-1.308-0.136-0.099 0-0.198 0.002-0.296 0.007l0.014-0.001c-0.83 0.090-0.75 0.13-1.16-0.2s0-0.75-1.21-0.38-0.63 0.71-1.75 0.42-1.54-0.63-2-0.46-2.87 2-3.33 1.5c-0.256-0.247-0.467-0.539-0.622-0.862l-0.008-0.018s-0.080-1.87-0.5-2c-0.533-0.101-1.162-0.173-1.804-0.199l-0.026-0.001c-0.473-0.167-0.838-0.535-0.997-0.999l-0.003-0.011z"></path>
<path fill="#a42116" d="M28.83 43.7c0-0.33 1-0.41 1.080-0.66s0.29-1 0.46-1c0.58-0.23 1.073-0.482 1.54-0.773l-0.040 0.023c0.29-0.25 0.42-0.62 0.71-0.5s0.5 1.13 1.12 0.84c0.364-0.255 0.812-0.413 1.296-0.43l0.004-0c0.79-0.080 2.13 0.25 2 0.42s-0.45 1.37-0.16 1.58 2.87 1 3.12 1.38c0.064 0.222 0.1 0.478 0.1 0.742 0 0.393-0.081 0.767-0.227 1.106l0.007-0.018c-0.16 0.284-0.371 0.521-0.624 0.706l-0.006 0.004s-1.84-1.12-2.34-0.92c-0.398 0.185-0.908 0.385-1.43 0.558l-0.11 0.032-1.75-0.13c-0.060-0.004-0.129-0.006-0.199-0.006-0.455 0-0.889 0.094-1.282 0.264l0.021-0.008c-0.38 0.17-1.29 1-1.67 0.71-0.424-0.287-0.71-0.751-0.75-1.284l-0-0.006c0.040-0.5-0.87-2.33-0.87-2.63z"></path>
<path fill="#1d1d1b" d="M30.45 43.91s0.59-0.46 0.71-0.21 1.92 2.090 1.54 2.3c-0.288 0.164-0.63 0.269-0.994 0.29l-0.006 0s-1.16-2.090-1.25-2.38z"></path>
<path fill="#1d1d1b" d="M32.45 43.45s0.21-0.37 0.46-0.37 2.88 2.21 2.58 2.37c-0.256 0.139-0.56 0.22-0.883 0.22-0.069 0-0.138-0.004-0.205-0.011l0.008 0.001c-0.672-0.683-1.313-1.403-1.917-2.154l-0.043-0.056z"></path>
<path fill="#1d1d1b" d="M30.33 53.2c0.389-0.281 0.875-0.449 1.4-0.449 0.152 0 0.3 0.014 0.445 0.041l-0.015-0.002c0.46 0.25 0.71 0.62 1.13 0.41s0.7-0.71 1.16-0.5 0.34 0.34 0.79 0.42c0.357 0.038 0.771 0.059 1.19 0.059s0.833-0.022 1.241-0.063l-0.051 0.004c0.29-0.080 0.29 0.67 0.17 0.75-0.351 0.134-0.758 0.212-1.182 0.212-0.041 0-0.083-0.001-0.124-0.002l0.006 0c-0.763-0.059-1.47-0.208-2.14-0.438l0.060 0.018c-0.37-0.12-0.87 0.79-1.67 0.54s-0.45-0.58-0.91-0.41-0.71 0.5-1.17 0.25c-0.216-0.134-0.357-0.37-0.357-0.639 0-0.072 0.010-0.141 0.029-0.206l-0.001 0.005z"></path>
<path fill="#1d1d1b" d="M43.58 49.29c-0.23-0.35 0.58-0.67 1-0.42s2.16 2.29 2 2.5-0.2 0.58-0.66 0.37c-0.875-0.727-1.644-1.531-2.314-2.414l-0.026-0.036z"></path>
<path fill="#1d1d1b" d="M26.37 25.91c0.39-0.23 1.080 0.54 2.17 0.42s1.12-0.71 1.95-0.5 1.5 0.54 1.42 0.75 0 0.37-0.29 0.37-1.25-0.37-1.75-0.16-0.46 0.41-1.42 0.37-1.25-0.5-1.75-0.33-0.66 0.41-0.91 0 0.080-0.63 0.58-0.92z"></path>
<path fill="#1d1d1b" d="M47.54 17.37c0.141-0.081 0.31-0.128 0.49-0.128 0.466 0 0.858 0.319 0.969 0.751l0.002 0.007c0.13 0.62-0.87 1.2-1.54 0.87s-0.38-1.25 0.080-1.5z"></path>
<path fill="#1d1d1b" d="M18.79 16.79c0.137-0.075 0.301-0.12 0.475-0.12 0.474 0 0.871 0.33 0.974 0.773l0.001 0.007c0.13 0.63-0.87 1.21-1.54 0.88s-0.37-1.33 0.090-1.54z"></path>
<path fill="#1d1d1b" d="M19.54 37.45c0.137-0.075 0.299-0.119 0.473-0.119 0.477 0 0.877 0.335 0.976 0.782l0.001 0.007c0.13 0.62-0.87 1.21-1.54 0.87s-0.37-1.29 0.090-1.54z"></path>
<path fill="#1d1d1b" d="M18.62 44.58c0.139-0.078 0.306-0.125 0.483-0.125 0.476 0 0.874 0.333 0.975 0.778l0.001 0.007c0.12 0.63-0.88 1.21-1.54 0.88s-0.38-1.29 0.080-1.54z"></path>
<path fill="#1d1d1b" d="M10.12 30.7c0.070-0.42 1.71 0.13 2.29 0s0.88-0.37 1 0.050 0.42 0.7 0.17 0.83c-0.439 0.11-0.943 0.173-1.462 0.173-0.073 0-0.146-0.001-0.218-0.004l0.011 0c-0.193-0.021-0.418-0.033-0.645-0.033s-0.452 0.012-0.672 0.036l0.027-0.002c-0.54 0.16-0.54-0.75-0.5-1.050z"></path>
<path fill="#1d1d1b" d="M12.12 36.29c0.24-0.24 2.12-0.21 2.33 0.25s0.46 0.87-0.16 0.91-2.42 0.13-2.46-0.080c-0.002-0.033-0.003-0.071-0.003-0.11 0-0.361 0.11-0.697 0.297-0.976l-0.004 0.006z"></path>
</svg>
