<!-- Generated by IcoMoon.io -->
<svg version="1.1" xmlns="http://www.w3.org/2000/svg" width="64" height="64" viewBox="0 0 64 64">
<path fill="#1d1d1b" d="M8.050 35.76c1.091-5.916 2.737-11.169 4.93-16.127l-0.18 0.457c3.59-8.19 8.8-16.18 9.61-16.51s6.93-0.32 7.060 0 0.49 8.86 0.49 8.86c0.477-0.069 1.029-0.108 1.589-0.108 0.7 0 1.385 0.061 2.052 0.178l-0.071-0.010s-0.18-8.94 0.19-9.13 8.050-0.35 8.56 0 6.65 13.68 6.65 13.68 0.92-1.2 1.54-1.28 3.68-0.26 3.88 0.050 2.7 6.76 2.9 7.5-0.17 10.2-0.25 10.68-1.54 1.22-1.54 1.22c0.203 0.937 0.319 2.013 0.319 3.116 0 2.203-0.463 4.298-1.298 6.193l0.039-0.099c-2.1 4.48-4 5.89-4 5.89 0.019 0.258 0.030 0.558 0.030 0.861 0 0.556-0.036 1.104-0.106 1.642l0.007-0.063c-0.18 0.56-7.28 8-18.84 8.070s-18.58-6.5-18.53-7.26c0.15-0.779 0.396-1.472 0.73-2.112l-0.020 0.042c-1.317-1.069-2.392-2.38-3.168-3.872l-0.032-0.068-1.29-2.56c-0.047 0.005-0.101 0.008-0.156 0.008-0.713 0-1.312-0.487-1.482-1.147l-0.002-0.011c-0.59-2.288-0.952-4.925-1-7.639l-0-0.031c0.21-0.28 1.080-0.18 1.39-0.42z"></path>
<path fill="#e6e4da" d="M15.050 20.050s3.41-7.57 5.050-10.23 2.72-4.49 3.15-4.56 4.75 0 4.82 0.27 0 7.32 0 7.32-1.24 0.9-1.22 1.52v0.63c-4.541 1.448-8.446 3.16-12.13 5.219l0.33-0.169z"></path>
<path fill="#e6e4da" d="M35.82 5.5c0.39-0.4 4.87-0.41 5.32 0s7 14.42 7.11 14.67c0.001 0.053 0.002 0.115 0.002 0.178 0 0.446-0.037 0.883-0.108 1.308l0.006-0.046c-1.747-2.381-4.178-4.168-7.001-5.082l-0.099-0.028c-4.4-1.16-5.4-0.95-5.4-1.14s0.050-9.73 0.17-9.86z"></path>
<path fill="#e6e4da" d="M29.060 14.14c0.703-0.279 1.517-0.44 2.369-0.44 0.131 0 0.26 0.004 0.389 0.011l-0.018-0.001c0.097-0.008 0.21-0.013 0.325-0.013 0.734 0 1.423 0.198 2.014 0.543l-0.019-0.010c0.13 0.24 0.070 15.84-0.24 15.91s-4 0.39-4.12 0-0.94-15.68-0.7-16z"></path>
<path fill="#e6e4da" d="M51 18s1.68-0.35 2.060 0c0.809 1.635 1.635 3.646 2.333 5.715l0.107 0.365c0 0.19-0.3 10-0.3 10s-15.6 3.66-15.79 3.42-0.79-2-0.48-2.18 10-7.89 10.21-8.27 0.64-5.26 0.76-5.64 1.1-3.41 1.1-3.41z"></path>
<path fill="#ddc07c" d="M27.18 16.85c0.15 0 0.82 12 0.82 12l-1.24-1.72s-0.45 0.34-0.41 0.51 1.77 2.88 1.77 3-0.39 0.36-0.61 0.56c-0.092 0.082-0.193 0.158-0.301 0.225l-0.009 0.005c-0.675-1.018-1.359-1.902-2.101-2.734l0.021 0.024c-0.18 0-0.47 0.3-0.43 0.37 0.613 0.8 1.242 1.717 1.827 2.665l0.083 0.145c-0.060 0.11-0.85 0.83-0.85 0.83-0.529-0.831-1.086-1.553-1.7-2.221l0.010 0.011c-0.21 0-0.5 0.36-0.45 0.44s1.69 2.38 1.65 2.49-0.53 0.7-0.53 0.7c-0.614-0.855-1.231-1.605-1.892-2.313l0.012 0.013c-0.14 0-0.49 0.41-0.42 0.51s1.81 2.34 1.82 2.4-0.41 0.76-0.45 0.91-0.050 0.21-0.050 0.21c-0.848-1.182-1.678-2.212-2.56-3.194l0.030 0.034c-0.14 0-0.45 0.24-0.41 0.36s2.58 3.76 2.58 3.76c-0.319 0.055-0.698 0.095-1.083 0.109l-0.017 0.001c-0.060 0-2.69-3.37-2.76-3.34s-0.53 0.39-0.53 0.47 2.31 3 2.23 3c-0.434 0.068-0.936 0.108-1.446 0.108-0.135 0-0.27-0.003-0.403-0.008l0.019 0.001c-0.17-0.1-1.65-2.32-1.76-2.32s-0.49 0.31-0.45 0.41 1.21 2 1.15 2-3.89-0.32-5.81-0.57-2.91-0.61-2.89-0.84 1.090-7.19 3.11-10.19 6-5.42 8.37-6.55c1.699-0.837 3.711-1.61 5.797-2.206l0.263-0.064z"></path>
<path fill="#e6e4da" d="M31.53 31.47c3.47 0 6.22 2.75 6.4 7s-2.84 6.59-6.56 6.75c-0.020 0-0.044 0-0.068 0-3.148 0-5.73-2.425-5.98-5.509l-0.001-0.021c-0.17-2.44 0.090-8.13 6.21-8.22z"></path>
<path fill="#1d1d1b" d="M31.1 33c2.5-0.53 4 2.51 3.34 4.59s-4.92 2.38-5.65 0.3 0.35-4.44 2.31-4.89z"></path>
<path fill="#ddc07c" d="M31.22 33.88c1.83-0.39 3 1.84 2.45 3.36s-3.6 1.74-4.14 0.22c-0.123-0.298-0.194-0.644-0.194-1.006 0-1.2 0.783-2.217 1.865-2.569l0.019-0.005z"></path>
<path fill="#1d1d1b" d="M17.36 24.38c0.499-0.227 1.082-0.358 1.696-0.358 1.428 0 2.689 0.714 3.445 1.805l0.009 0.014c0.342 0.527 0.545 1.172 0.545 1.865 0 1.534-0.998 2.835-2.381 3.288l-0.024 0.007c-2.39 0.92-5 0-5.39-2-0.104-0.333-0.164-0.715-0.164-1.112 0-1.552 0.918-2.889 2.24-3.498l0.024-0.010z"></path>
<path fill="#e6e4da" d="M17.73 25.080c0.392-0.177 0.849-0.28 1.331-0.28 1.124 0 2.116 0.562 2.712 1.419l0.007 0.011c0.27 0.415 0.431 0.924 0.431 1.469 0 1.206-0.785 2.229-1.872 2.585l-0.019 0.005c-1.88 0.73-3.92 0-4.24-1.58-0.085-0.265-0.134-0.571-0.134-0.887 0-1.217 0.724-2.264 1.765-2.735l0.019-0.008z"></path>
<path fill="#ddc07c" d="M43.17 19.36c-2.13-1.076-4.602-1.916-7.2-2.394l-0.17-0.026c-0.12 0.25-0.4 13.89-0.4 13.89 0.577 0.195 1.076 0.438 1.537 0.736l-0.027-0.016c0.667 0.703 1.195 1.546 1.534 2.48l0.016 0.050 3.86-3c-0.081 0.007-0.176 0.011-0.271 0.011-1.497 0-2.763-0.988-3.183-2.347l-0.006-0.024c-0.099-0.325-0.156-0.698-0.156-1.084 0-1.562 0.933-2.907 2.272-3.506l0.024-0.010c0.499-0.226 1.082-0.357 1.696-0.357 1.43 0 2.694 0.713 3.455 1.803l0.009 0.014c0.331 0.546 0.526 1.205 0.526 1.911 0 0.077-0.002 0.154-0.007 0.23l0.001-0.010c0.3-0.24 0.49-0.41 0.51-0.43 0.12-0.19 0.69-2.89 0.69-2.89-1.029-2.148-2.651-3.873-4.654-5.001l-0.056-0.029z"></path>
<path fill="#e6e4da" d="M41.32 24.83c-1.058 0.479-1.782 1.526-1.782 2.741 0 0.314 0.048 0.616 0.137 0.9l-0.006-0.021c0.31 1.46 2.1 2.19 3.86 1.7l2-1.58c0.158-0.338 0.25-0.733 0.25-1.15 0-0.537-0.153-1.038-0.417-1.462l0.007 0.012c-0.606-0.863-1.597-1.42-2.717-1.42-0.482 0-0.94 0.103-1.354 0.288l0.021-0.008z"></path>
<path fill="#e6e4da" d="M8.68 37.4c1-0.14 5.55 1 9.060 1.13s5.91 0.070 5.91 0.16 0.12 1.62 0.12 1.62-13.94 3.070-14.1 2.95-1.52-5.79-0.99-5.86z"></path>
<path fill="#e6e4da" d="M39.5 39c0.31 0 14.38-2.89 14.48-2.64 0.035 0.532 0.055 1.154 0.055 1.78s-0.020 1.248-0.060 1.864l0.004-0.084c-0.022 0.702-0.227 1.351-0.57 1.907l0.010-0.017s-14-1-14-1.090 0.080-1.72 0.080-1.72z"></path>
<path fill="#e6e4da" d="M39.31 41.81c0.15 0 13.59 1.39 13.56 1.57s-1 2.12-1.35 2.78c-0.256 0.452-0.559 0.84-0.909 1.179l-0.001 0.001c-0.159-0.931-0.395-1.757-0.709-2.544l0.029 0.084c-0.18 0-0.84 0.17-0.74 0.42s0.68 2.86 0.69 3c-0.212 0.311-0.442 0.583-0.698 0.828l-0.002 0.002c-0.124-0.088-0.229-0.19-0.317-0.306l-0.003-0.004c-0.070-0.12-0.9-4.33-1-4.39s-0.82-0.29-0.81 0 0.76 3.7 0.63 3.67-1.68-1.23-1.68-1.23 0-2.69-0.3-2.87-0.79-0.36-0.79-0.24 0.11 2.35 0.11 2.35l-1.24-1s0.13-1.38-0.060-1.5-1-0.38-1-0.29-0.16 1-0.16 1-3.29-1.87-3.33-2c0.001-0.182 0.030-0.358 0.083-0.522l-0.003 0.012z"></path>
<path fill="#e6e4da" d="M14.76 50.59c-0.957-1.025-1.816-2.165-2.549-3.389l-0.051-0.092c-0.65-1.36-1.080-2.54-0.87-2.64s12.71-2.88 12.82-2.79c0.187 0.318 0.385 0.706 0.56 1.105l0.030 0.075c-0.519 0.549-1.074 1.050-1.667 1.505l-0.033 0.025c0-0.12-0.84-1.45-1-1.41s-0.46 0.16-0.43 0.29 0.82 1.57 0.82 1.57-0.77 0.8-0.87 0.68c-0.524-0.858-1.025-1.582-1.562-2.277l0.042 0.057c-0.13 0-0.46 0.41-0.46 0.41 0.426 0.671 0.828 1.447 1.163 2.258l0.037 0.102c-0.278 0.231-0.589 0.444-0.92 0.625l-0.030 0.015c-0.6-0.976-1.236-1.823-1.943-2.605l0.013 0.015c-0.25 0-0.81 0.18-0.77 0.46s1.71 2.71 1.61 2.78l-0.8 0.54s-2-3.11-2.15-3.11c-0.312 0.116-0.579 0.248-0.831 0.402l0.021-0.012s2.060 3.33 2.060 3.43c-0.214 0.195-0.445 0.385-0.686 0.563l-0.024 0.017c-0.894-1.407-1.773-2.614-2.72-3.763l0.050 0.063c-0.15 0.1-0.68 0.29-0.61 0.42s2.45 4 2.45 4z"></path>
<path fill="#ddc07c" d="M25.77 44.53s1.61 2.4 5.7 2.19c2.606-0.202 4.898-1.401 6.522-3.211l0.008-0.009 7.090 4.29c2.050 1.24 3.3 2.84 3.28 3.31s-6.030 7.9-17.24 8.35-15.81-5.68-15.73-6.45 9.77-8.74 10.37-8.47z"></path>
<path fill="#1d1d1b" d="M31.36 47.66c0.026-0.001 0.056-0.002 0.086-0.002 1.359 0 2.46 1.101 2.46 2.46 0 0.347-0.072 0.678-0.202 0.977l0.006-0.016c-0.77 2.080-4.15 1.9-5 0.23-0.129-0.301-0.204-0.651-0.204-1.019 0-1.458 1.182-2.64 2.64-2.64 0.076 0 0.15 0.003 0.224 0.009l-0.010-0.001z"></path>
<path fill="#92a0d1" d="M31.31 48.46c0.015-0.001 0.034-0.001 0.052-0.001 0.922 0 1.67 0.748 1.67 1.67 0 0.235-0.049 0.459-0.136 0.662l0.004-0.011c-0.52 1.41-2.81 1.28-3.36 0.15-0.086-0.202-0.136-0.437-0.136-0.684 0-0.989 0.801-1.79 1.79-1.79 0.041 0 0.081 0.001 0.121 0.004l-0.005-0z"></path>
<path fill="#1d1d1b" d="M31.32 53.76c0.016-0.001 0.035-0.001 0.055-0.001 1.105 0 2 0.895 2 2 0 0.278-0.057 0.543-0.159 0.784l0.005-0.013c-0.62 1.68-3.36 1.54-4 0.18-0.102-0.24-0.161-0.52-0.161-0.813 0-1.182 0.958-2.14 2.14-2.14 0.042 0 0.085 0.001 0.126 0.004l-0.006-0z"></path>
<path fill="#e7413e" d="M31.27 54.54c0.010-0 0.022-0.001 0.034-0.001 0.674 0 1.22 0.546 1.22 1.22 0 0.17-0.035 0.332-0.097 0.478l0.003-0.008c-0.247 0.45-0.717 0.75-1.258 0.75-0.495 0-0.932-0.252-1.189-0.635l-0.003-0.005c-0.061-0.146-0.096-0.315-0.096-0.492 0-0.724 0.587-1.31 1.31-1.31 0.027 0 0.053 0.001 0.080 0.002l-0.004-0z"></path>
<path fill="#1d1d1b" d="M38.52 46.58c0.016-0.001 0.035-0.001 0.054-0.001 1.105 0 2 0.895 2 2 0 0.278-0.057 0.543-0.159 0.784l0.005-0.013c-0.62 1.69-3.36 1.54-4 0.19-0.104-0.243-0.165-0.526-0.165-0.824 0-1.182 0.958-2.14 2.14-2.14 0.044 0 0.088 0.001 0.131 0.004l-0.006-0z"></path>
<path fill="#e6e4da" d="M38.47 47.37c0.014-0.001 0.029-0.001 0.045-0.001 0.668 0 1.21 0.542 1.21 1.21 0 0.17-0.035 0.332-0.098 0.479l0.003-0.008c-0.247 0.45-0.717 0.75-1.258 0.75-0.495 0-0.932-0.252-1.189-0.635l-0.003-0.005c-0.061-0.146-0.097-0.315-0.097-0.493 0-0.718 0.582-1.3 1.3-1.3 0.031 0 0.061 0.001 0.091 0.003l-0.004-0z"></path>
<path fill="#1d1d1b" d="M25.27 46.75c0.021-0.001 0.045-0.001 0.069-0.001 1.105 0 2 0.895 2 2 0 0.282-0.058 0.551-0.164 0.794l0.005-0.013c-0.63 1.68-3.37 1.53-4 0.18-0.101-0.24-0.159-0.519-0.159-0.812 0-1.187 0.963-2.15 2.15-2.15 0.035 0 0.070 0.001 0.104 0.002l-0.005-0z"></path>
<path fill="#e6e4da" d="M25.22 47.54c0.015-0.001 0.032-0.001 0.050-0.001 0.668 0 1.21 0.542 1.21 1.21 0 0.174-0.037 0.339-0.103 0.489l0.003-0.008c-0.247 0.45-0.717 0.75-1.258 0.75-0.495 0-0.932-0.252-1.189-0.635l-0.003-0.005c-0.064-0.149-0.101-0.322-0.101-0.503 0-0.718 0.582-1.3 1.3-1.3 0.032 0 0.064 0.001 0.096 0.003l-0.004-0z"></path>
<path fill="#1d1d1b" d="M23.21 51.7c0.021-0.001 0.045-0.001 0.069-0.001 1.105 0 2 0.895 2 2 0 0.282-0.058 0.551-0.164 0.794l0.005-0.013c-0.63 1.68-3.36 1.53-4 0.18-0.104-0.243-0.165-0.526-0.165-0.823 0-1.182 0.958-2.14 2.14-2.14 0.040 0 0.080 0.001 0.12 0.003l-0.006-0z"></path>
<path fill="#e6e4da" d="M23.16 52.49c0.014-0.001 0.029-0.001 0.045-0.001 0.668 0 1.21 0.542 1.21 1.21 0 0.17-0.035 0.332-0.098 0.479l0.003-0.008c-0.243 0.453-0.714 0.757-1.256 0.757-0.492 0-0.927-0.251-1.181-0.632l-0.003-0.005c-0.064-0.148-0.101-0.321-0.101-0.502 0-0.718 0.582-1.3 1.3-1.3 0.029 0 0.057 0.001 0.085 0.003l-0.004-0z"></path>
<path fill="#1d1d1b" d="M40.37 51.45c0.016-0.001 0.035-0.001 0.054-0.001 1.105 0 2 0.895 2 2 0 0.278-0.057 0.543-0.159 0.784l0.005-0.013c-0.62 1.69-3.36 1.54-4 0.19-0.104-0.243-0.165-0.526-0.165-0.824 0-1.182 0.958-2.14 2.14-2.14 0.044 0 0.088 0.001 0.131 0.004l-0.006-0z"></path>
<path fill="#e6e4da" d="M40.32 52.24c0.014-0.001 0.029-0.001 0.045-0.001 0.668 0 1.21 0.542 1.21 1.21 0 0.17-0.035 0.332-0.098 0.479l0.003-0.008c-0.245 0.455-0.719 0.759-1.263 0.759-0.512 0-0.961-0.269-1.214-0.673l-0.004-0.006c-0.054-0.138-0.086-0.297-0.086-0.464 0-0.718 0.582-1.3 1.3-1.3 0.037 0 0.074 0.002 0.111 0.005l-0.005-0z"></path>
<path fill="#1d1d1b" d="M18.81 21.91c0.696-0.681 1.527-1.227 2.45-1.593l0.050-0.017c2-0.95 2.22-1.14 2.32-1 0.117 0.217 0.199 0.471 0.229 0.74l0.001 0.010c0 0.12-1.55 0.5-2.6 1.17-0.521 0.294-0.96 0.672-1.313 1.121l-0.007 0.009s-1.1-0.25-1.13-0.44z"></path>
<path fill="#1d1d1b" d="M22.47 9.55c0.158-0.038 0.339-0.060 0.525-0.060 1.281 0 2.32 1.039 2.32 2.32 0 0.246-0.038 0.484-0.11 0.707l0.005-0.016c-0.52 2-3.49 2.070-4.23 1.050-0.271-0.409-0.433-0.912-0.433-1.452 0-1.205 0.804-2.221 1.904-2.544l0.019-0.005z"></path>
<path fill="#ddc07c" d="M22.59 10.19c0.127-0.035 0.272-0.054 0.422-0.054 0.917 0 1.66 0.743 1.66 1.66 0 0.184-0.030 0.361-0.085 0.526l0.003-0.012c-0.28 0.729-0.974 1.237-1.787 1.237-0.485 0-0.928-0.181-1.265-0.479l0.002 0.002c-0.197-0.296-0.314-0.659-0.314-1.050 0-0.86 0.569-1.588 1.351-1.827l0.014-0.004z"></path>
<path fill="#1d1d1b" d="M39.68 9.33c0.161-0.040 0.346-0.063 0.536-0.063 1.281 0 2.32 1.039 2.32 2.32 0 0.247-0.039 0.486-0.11 0.709l0.005-0.016c-0.52 2-3.49 2.070-4.23 1.050-0.272-0.41-0.435-0.913-0.435-1.454 0-1.202 0.8-2.216 1.896-2.541l0.019-0.005z"></path>
<path fill="#ddc07c" d="M39.81 10c0.123-0.033 0.264-0.051 0.41-0.051 0.922 0 1.67 0.748 1.67 1.67 0 0.183-0.029 0.358-0.084 0.523l0.003-0.012c-0.293 0.709-0.979 1.198-1.779 1.198-0.465 0-0.892-0.165-1.224-0.441l0.003 0.003c-0.202-0.299-0.323-0.668-0.323-1.065 0-0.847 0.548-1.566 1.309-1.821l0.014-0.004z"></path>
<path fill="#1d1d1b" d="M50.79 22.2c0.068-0.017 0.147-0.026 0.228-0.026 0.206 0 0.397 0.062 0.556 0.169l-0.004-0.002c0.070 0.13-0.26 3.76-0.26 3.76s-1 0.11-1.070 0c0.127-1.486 0.321-2.819 0.589-4.126l-0.039 0.226z"></path>
</svg>
