<!-- Generated by IcoMoon.io -->
<svg version="1.1" xmlns="http://www.w3.org/2000/svg" width="64" height="64" viewBox="0 0 64 64">
<path fill="#1d1d1b" d="M4.59 12.82c1.816-0.503 3.994-0.915 6.223-1.154l0.187-0.016c1.078-0.119 2.329-0.187 3.595-0.187 0.758 0 1.511 0.024 2.257 0.072l-0.102-0.005c0.744-1.422 2.083-2.445 3.678-2.745l0.032-0.005c2.67-0.46 13.33 0 17.42 0s7.25 0.58 7.62 1.080c0.28 0.506 0.487 1.095 0.586 1.719l0.004 0.031c1.318-0.266 2.833-0.418 4.383-0.418 0.217 0 0.433 0.003 0.648 0.009l-0.032-0.001c3.62 0 9.29-0.38 9.37 3.16s-3.33 21-3.33 21 0.41 4.79-0.17 7.13-1.5 4.12-2 4.16-3.87-0.25-3.87-0.25-2 8.67-2.46 8.88-18.92 0.12-25.25 0.080-7.42-0.29-7.59-0.58-2.080-9.13-2.080-9.13-5.21 0.71-5.42 0.3-2.99-11.59-2.74-11.88c0.503-0.324 1.082-0.605 1.694-0.813l0.056-0.017s-3.3-17.17-3.59-17.79-0.25-2.17 0.88-2.63z"></path>
<path fill="#e7413e" d="M46.63 13h7s4.87 0.29 5 1.21-1.38 10.99-1.79 14.79c-0.135 2.031-0.615 3.916-1.382 5.646l0.042-0.106c-1.694-0.641-3.785-1.258-5.931-1.731l-0.319-0.059c-1.448-0.252-2.722-0.599-3.945-1.050l0.155 0.050s0.84-6.67 1-10.54 0.17-8.21 0.17-8.21z"></path>
<path fill="#1d1d1b" d="M50.090 23.24c1.88-0.45 6 0.33 5.62 5s-5.58 5.46-7.58 3.37-2.080-7.41 1.96-8.37z"></path>
<path fill="#fab900" d="M50.31 24.13c0.288-0.082 0.62-0.13 0.962-0.13 2.005 0 3.63 1.625 3.63 3.63 0 0.194-0.015 0.384-0.045 0.57l0.003-0.021c-0.074 2.002-1.715 3.597-3.728 3.597-0.918 0-1.758-0.331-2.408-0.881l0.005 0.005c-1.62-1.68-1.73-5.99 1.58-6.77z"></path>
<path fill="#1d1d1b" d="M50.62 25.35c0.194-0.055 0.417-0.087 0.648-0.087 1.359 0 2.46 1.101 2.46 2.46 0 0.129-0.010 0.256-0.029 0.381l0.002-0.014c-0.051 1.357-1.163 2.438-2.528 2.438-0.619 0-1.186-0.222-1.626-0.591l0.004 0.003c-1.1-1.14-1.15-4.060 1.070-4.59z"></path>
<path fill="#ffe19b" d="M50.84 26.22c0.119-0.032 0.257-0.050 0.398-0.050 0.895 0 1.62 0.725 1.62 1.62 0 0.085-0.007 0.168-0.019 0.249l0.001-0.009c-0.034 0.896-0.768 1.609-1.669 1.609-0.409 0-0.783-0.147-1.074-0.391l0.003 0.002c-0.69-0.75-0.72-2.68 0.74-3.030z"></path>
<path fill="#e7413e" d="M5.63 13.86c1.59-0.441 3.443-0.748 5.348-0.857l0.072-0.003c2.54-0.21 5-0.25 5.080 0s1.71 18.82 1.58 19c-2.422 0.511-5.27 0.869-8.177 0.996l-0.113 0.004c-0.25-0.14-4.12-17.76-3.79-19.14z"></path>
<path fill="#1f4863" d="M19.13 23.74s-1-11-0.92-11.25 0.46-1.84 3.090-2.17 8.33-0.12 13.62 0.080 9.21 0.75 9.38 1.25 0.25 9 0.16 12.25-0.71 7.67-1 7.67h-3.66c-0.946-0.776-2.104-1.329-3.374-1.563l-0.046-0.007c-2.13-0.42-3.25-0.59-3.25-0.59s0.79-5.12-2.75-7.58c-1.242-0.898-2.796-1.437-4.476-1.437-1.319 0-2.56 0.332-3.645 0.917l0.041-0.020c-1.219 0.676-2.264 1.491-3.164 2.444l-0.006 0.006z"></path>
<path fill="#e6e4da" d="M19.3 25.32c0.16-0.12 1.87-2.58 4-3.37 0.783-0.311 1.69-0.491 2.639-0.491 0.449 0 0.889 0.040 1.316 0.118l-0.045-0.007c-0.726 0.386-1.211 1.137-1.211 2.002 0 0.027 0 0.055 0.001 0.082l-0-0.004c0.17 1.38 1.75 1.63 2.59 1.38s0.87-1 0.58-1.17-0.92 0.38-1.29 0.38-1.13-1-0.59-1.54c0.319-0.324 0.763-0.525 1.254-0.525 0.105 0 0.207 0.009 0.307 0.027l-0.011-0.002c1.476 0.66 2.56 1.965 2.904 3.547l0.006 0.033c0.54 2.54 0.17 3.33 0.17 3.33s-2.83-0.11-3.17-0.11c-0.404 0.123-0.736 0.249-1.058 0.393l0.058-0.023s-0.33-0.87-0.45-0.79-0.55 1.38-1.71 1.13-1.84-2.090-0.71-2.34l1.12-0.22s-0.080-0.66-0.58-0.66-1.87 0.21-2 1.46 0 1.91 0.83 2.41c0.555 0.305 1.215 0.489 1.917 0.5l0.003 0-0.62 1.14s-5.75 0.29-5.84 0.16-0.41-6.84-0.41-6.84z"></path>
<path fill="#85bfe9" d="M7.67 35.15c0.16-0.25 4.58-0.66 7.67-1.12 2.798-0.293 6.046-0.461 9.332-0.461 0.133 0 0.266 0 0.399 0.001l-0.021-0s-1.050 4.83-1.25 5-5.8 1.43-6.050 1.54 0.71 3.21 0.5 3.25-8.33 0.88-8.45 0.75-2.34-8.62-2.13-8.96z"></path>
<path fill="#85bfe9" d="M47.71 41.74s0.21-2.71 0.5-2.75 6 1.080 6 1.33-0.41 2.68-0.66 2.68c-0.451-0.122-1.030-0.241-1.619-0.329l-0.091-0.011c-0.17 0.090-0.63 1.46-0.46 1.59 0.752 0.301 1.622 0.483 2.533 0.5l0.007 0c0.637-1.371 1.144-2.964 1.442-4.63l0.018-0.12c0.165-0.612 0.26-1.314 0.26-2.038 0-0.531-0.051-1.050-0.148-1.553l0.008 0.051c-2.726-1.004-6.077-1.953-9.515-2.666l-0.485-0.084c-1.58-0.296-3.398-0.466-5.256-0.466-0.205 0-0.41 0.002-0.615 0.006l0.031-0.001 0.79 4.66c2.030 0.635 3.729 1.314 5.365 2.102l-0.235-0.102c0.92 0.63 0.62 2.42 0.5 2.88-0.115 0.383-0.258 0.714-0.433 1.025l0.013-0.025 3.71 0.37 0.080-1.67z"></path>
<path fill="#696a9b" d="M28.75 31c0.94-0.65 4.46 0.12 5.55 0.16 1.15 0.105 2.197 0.463 3.112 1.018l-0.032-0.018c0.17 0.25 1.080 7.17 1.29 7.34s5.38 1.66 5.58 2.21-1.33 3.080-2.2 3.91c-0.439 0.434-0.916 0.832-1.425 1.187l-0.035 0.023c-0.635-1.142-1.297-2.123-2.033-3.043l0.033 0.043c-0.25 0-1 0.17-0.8 0.54s2.13 2.75 2 2.92c-0.357 0.218-0.77 0.413-1.203 0.566l-0.047 0.014c-0.803-1.127-1.581-2.105-2.405-3.041l0.035 0.041c-0.17 0-0.88 0.21-0.79 0.37 0.67 0.909 1.333 1.945 1.926 3.024l0.074 0.146c-0.214 0.151-0.465 0.265-0.736 0.327l-0.014 0.003s-2.63-3.46-2.79-3.42-0.71 0.33-0.59 0.5c0.82 0.917 1.59 1.922 2.281 2.984l0.059 0.096c-0.501 0.154-1.106 0.287-1.727 0.373l-0.063 0.007c-0.775-1.118-1.57-2.098-2.432-3.013l0.012 0.013c-0.25 0-0.71 0.42-0.63 0.58 0.679 0.81 1.338 1.707 1.938 2.646l0.062 0.104c-0.12 0.13-0.91 0.5-0.83 1 0.241 0.991 0.462 2.239 0.614 3.508l0.016 0.162c-0.367 0.020-0.797 0.031-1.23 0.031s-0.863-0.011-1.29-0.033l0.060 0.002c0.208-1.072 0.386-2.401 0.492-3.749l0.008-0.13c-0.13-0.12-5.13-1.21-8-3.92s-3-4.79-2.75-4.91 5.83-1.59 5.91-1.84 1.21-5.87 1.46-6.5c0.361-0.877 0.883-1.621 1.536-2.226l0.004-0.004z"></path>
<path fill="#92a0d1" d="M15.5 45.82c0.2-0.070 3.34-0.5 3.34-0.5 0.721 1.003 1.59 1.846 2.584 2.517l0.036 0.023c1.821 1.147 3.923 2.203 6.127 3.054l0.253 0.086 0.58 0.2c0.084 0.737 0.133 1.59 0.133 2.455 0 0.121-0.001 0.242-0.003 0.363l0-0.018c-0.13 0-2.25 0.080-2.25 0.080-0.478-1.269-1.013-2.354-1.639-3.376l0.049 0.086c-0.29-0.080-0.79 0.13-0.71 0.25s1.13 2.96 1.13 2.96h-1.25s-1.75-3.67-2-3.71-1 0.080-0.84 0.25 2 3.37 1.71 3.41-1.33 0.090-1.33 0.090-1.58-3-1.75-3-0.71 0.25-0.67 0.37c0.358 0.708 0.714 1.565 1.009 2.449l0.041 0.141c-0.040 0-0.088 0-0.136 0-1.027 0-2.039-0.066-3.032-0.193l0.118 0.012c-0.12-0.12-1.62-7.96-1.5-8z"></path>
<path fill="#92a0d1" d="M34.42 51.32c2.066-0.38 3.911-1.047 5.597-1.969l-0.097 0.049c1.827-1.070 3.374-2.403 4.645-3.969l0.025-0.031c1.74 0.057 3.392 0.222 5.009 0.49l-0.219-0.030c0 0.21-0.38 2.38-0.38 2.38s-0.54-1.34-0.7-1.29-0.84 0.37-0.67 0.54c0.424 0.72 0.791 1.552 1.058 2.427l0.022 0.083c0 0.21-0.41 1.54-0.41 1.54s-1.55-2.67-1.67-2.67-0.83 0.25-0.71 0.46 2 3.38 2 3.63-0.17 1.5-0.17 1.5l-0.41-0.090s-2.46-4.37-2.63-4.37c-0.286 0.11-0.534 0.249-0.758 0.416l0.008-0.006 2.34 4.090h-1.25c-0.715-1.355-1.395-2.476-2.131-3.556l0.081 0.126c-0.16 0-0.75 0.25-0.75 0.42s1.79 2.91 1.63 3c-0.056 0.001-0.122 0.002-0.188 0.002-0.388 0-0.772-0.019-1.151-0.055l0.048 0.004s-1.13-2.29-1.38-2.29-0.92 0.13-0.83 0.29l1 2h-1s-0.63-1.54-0.88-1.58-0.91 0.13-0.83 0.25 0.54 1.38 0.37 1.38c-0.409 0.018-0.889 0.028-1.371 0.028-0.996 0-1.982-0.043-2.956-0.126l0.127 0.009c-0.236-0.914-0.387-1.971-0.419-3.058l-0.001-0.022z"></path>
<path fill="#1d1d1b" d="M51.070 27.14c0.061-0.018 0.132-0.029 0.205-0.029 0.409 0 0.74 0.331 0.74 0.74 0 0.053-0.005 0.104-0.016 0.154l0.001-0.005c-0.018 0.411-0.356 0.737-0.769 0.737-0.187 0-0.359-0.067-0.492-0.178l0.001 0.001c-0.33-0.38-0.34-1.26 0.33-1.42z"></path>
<path fill="#1d1d1b" d="M7.3 15.28c0.29-0.13 3.83-0.63 4-0.29 0.266 1.222 0.418 2.626 0.418 4.066 0 0.195-0.003 0.389-0.008 0.582l0.001-0.028c-1.044 0.293-2.244 0.462-3.482 0.462-0.077 0-0.153-0.001-0.229-0.002l0.012 0c-0.31-1.353-0.562-2.989-0.701-4.657l-0.009-0.133z"></path>
<path fill="#1d1d1b" d="M12.46 14.9c0.25 0 2.38-0.5 2.46-0.12s0.25 0.75 0 0.79c-0.724 0.157-1.556 0.248-2.409 0.25h-0.002c-0.13-0.12-0.050-0.92-0.050-0.92z"></path>
<path fill="#1d1d1b" d="M12.67 16.78c0.25 0 2.38-0.5 2.46-0.13s0.25 0.75 0 0.8c-0.725 0.153-1.56 0.243-2.415 0.25h-0.005c-0.12-0.13-0.040-0.92-0.040-0.92z"></path>
<path fill="#e6e4da" d="M8.46 16.24c0.516-0.111 1.109-0.175 1.717-0.175 0.1 0 0.199 0.002 0.298 0.005l-0.014-0c0.080 0.13 0.29 2.63 0.29 2.63s-1.87 0.45-1.91 0.29-0.38-2.75-0.38-2.75z"></path>
<path fill="#1d1d1b" d="M8.25 21.36c0.17 0 7.17-1 7.25-0.83s0.25 0.62 0.050 0.75-7.21 1.17-7.3 1-0.2-0.88 0-0.92z"></path>
<path fill="#1d1d1b" d="M8.55 23.15c0.16 0 7.16-1 7.25-0.83s0.25 0.63 0 0.75-7.21 1.17-7.29 1-0.17-0.87 0.040-0.92z"></path>
<path fill="#1d1d1b" d="M8.84 25.2c0.17 0 7.16-1.050 7.25-0.84s0.25 0.63 0 0.75-7.21 1.17-7.29 1-0.17-0.87 0.040-0.91z"></path>
<path fill="#1d1d1b" d="M10.050 28c0.282-0.196 0.632-0.314 1.009-0.314 0.784 0 1.45 0.507 1.687 1.211l0.004 0.013c0.039 0.137 0.061 0.294 0.061 0.456 0 0.955-0.775 1.73-1.73 1.73-0.285 0-0.554-0.069-0.791-0.191l0.010 0.005c-0.598-0.257-1.010-0.841-1.010-1.521 0-0.581 0.3-1.091 0.753-1.385l0.006-0.004z"></path>
<path fill="#fab900" d="M10.56 28.63c0.141-0.098 0.315-0.156 0.503-0.156 0.394 0 0.727 0.256 0.845 0.61l0.002 0.006c0.018 0.067 0.029 0.143 0.029 0.222 0 0.48-0.389 0.87-0.87 0.87-0.142 0-0.275-0.034-0.394-0.094l0.005 0.002c-0.297-0.131-0.501-0.423-0.501-0.762 0-0.292 0.15-0.548 0.378-0.696l0.003-0.002z"></path>
<path fill="#1d1d1b" d="M14.13 27.53c0.283-0.199 0.635-0.317 1.015-0.317 0.789 0 1.459 0.514 1.692 1.225l0.004 0.013c0.028 0.116 0.043 0.249 0.043 0.386 0 0.961-0.779 1.74-1.74 1.74-0.278 0-0.541-0.065-0.774-0.181l0.010 0.005c-0.573-0.27-0.963-0.843-0.963-1.507 0-0.563 0.28-1.060 0.708-1.36l0.005-0.004z"></path>
<path fill="#fab900" d="M14.64 28.21c0.142-0.098 0.317-0.156 0.506-0.156 0.395 0 0.731 0.255 0.852 0.609l0.002 0.006c0.018 0.067 0.029 0.143 0.029 0.222 0 0.48-0.389 0.87-0.87 0.87-0.142 0-0.275-0.034-0.394-0.094l0.005 0.002c-0.3-0.129-0.507-0.423-0.507-0.765 0-0.29 0.149-0.545 0.374-0.694l0.003-0.002z"></path>
<path fill="#1d1d1b" d="M25 16.65c0.151-0.072 0.328-0.114 0.515-0.114 0.674 0 1.22 0.546 1.22 1.22 0 0.086-0.009 0.171-0.026 0.252l0.001-0.008c-0.175 0.545-0.677 0.932-1.269 0.932-0.388 0-0.737-0.166-0.98-0.431l-0.001-0.001c-0.54-0.64-0.41-1.3 0.54-1.85z"></path>
<path fill="#1d1d1b" d="M27.17 13.4c0.090-0.22 1.17-0.75 1.71-0.12s0.29 1.37-0.29 1.5-1.79-0.42-1.42-1.38z"></path>
<path fill="#1d1d1b" d="M41 17.28c0.142-0.353 0.225-0.762 0.225-1.19s-0.083-0.837-0.233-1.212l0.008 0.022c-0.5-1.45-2.42-1.37-2.42-1.37-1.87-1.63-3.25-0.88-3.54 0s0.75 2.67 0.75 2.67c-0.001 0.030-0.002 0.065-0.002 0.101 0 0.567 0.173 1.093 0.468 1.529l-0.006-0.010c0.337 0.5 0.848 0.86 1.444 0.997l0.016 0.003c0.405 0.356 0.853 0.686 1.328 0.976l0.042 0.024c0.34 0.13 1.59 0.71 2.38-0.12s-0.46-2.42-0.46-2.42zM36.63 14.4c-0.118 0.172-0.243 0.322-0.38 0.46l0-0s-0.75-0.86-0.25-1.33 1.3 0.37 1.3 0.37c-0.264 0.123-0.487 0.292-0.668 0.498l-0.002 0.002zM40.84 19.2c-0.34 0.37-1.38-0.38-1.38-0.38 0.208-0.038 0.391-0.127 0.542-0.252l-0.002 0.002c0.18-0.157 0.343-0.32 0.495-0.494l0.005-0.006s0.67 0.75 0.34 1.13z"></path>
<path fill="#e6e4da" d="M38.71 14.61c0.939 0.068 1.674 0.846 1.674 1.796 0 0.044-0.002 0.087-0.005 0.13l0-0.006c-0.109 0.832-0.813 1.468-1.667 1.468-0.452 0-0.862-0.178-1.164-0.469l0.001 0.001c-1.17-1.17-0.67-3.17 1.16-2.92z"></path>
<path fill="#1d1d1b" d="M38 22.2c0.52-0.43 1.92-0.46 2.13 0.5 0.034 0.109 0.054 0.235 0.054 0.365 0 0.696-0.564 1.26-1.26 1.26-0.119 0-0.234-0.016-0.343-0.047l0.009 0.002c-1.13-0.17-1.040-1.71-0.59-2.080z"></path>
<path fill="#e6e4da" d="M38.53 22.71c0.22-0.18 0.83-0.19 0.91 0.22 0.015 0.048 0.024 0.103 0.024 0.16 0 0.298-0.242 0.54-0.54 0.54-0.051 0-0.101-0.007-0.148-0.020l0.004 0.001c-0.48-0.070-0.45-0.73-0.25-0.9z"></path>
<path fill="#1d1d1b" d="M48.46 14c0.11-0.14 0.84-0.13 0.84 0s0.080 2.25 0.080 2.25c0.451 0.122 0.97 0.192 1.504 0.192 0.217 0 0.431-0.012 0.642-0.034l-0.026 0.002c0.84-0.16 1.17-0.33 1.42 0.17 0.188 0.461 0.347 1.004 0.452 1.567l0.008 0.053c0.194-0.231 0.483-0.376 0.805-0.376 0.040 0 0.080 0.002 0.119 0.007l-0.005-0c0.62 0 0.83 0.080 1 0 0.35-0.151 0.792-0.308 1.245-0.439l0.085-0.021s0.25 0.75 0.080 0.87c-0.384 0.212-0.831 0.372-1.304 0.456l-0.026 0.004c-0.25 0-1.21 0-1.37 0.21s-0.090 0.67-0.090 0.88 0.5 0.33 0.88 0.7 0.41 0.59 0.25 0.67c-0.53-0.054-1.012-0.218-1.436-0.469l0.016 0.009c-0.251-0.193-0.458-0.429-0.614-0.699l-0.006-0.011c-0.17-0.25-0.25-0.62-0.63-0.87s0-0.17-0.37-0.25-0.88-0.17-1 0.17c-0.117 0.474-0.383 0.874-0.745 1.157l-0.005 0.003c-0.333 0.192-0.621 0.4-0.885 0.635l0.005-0.005c0.124-0.005 0.269-0.008 0.415-0.008 0.814 0 1.605 0.094 2.365 0.272l-0.070-0.014c1.58 0.33 3.92 0.54 4 0.71-0.025 0.334-0.085 0.644-0.178 0.939l0.008-0.029s-7.62-0.87-7.79-1.080c-0.005-0.288-0.007-0.628-0.007-0.968 0-2.343 0.122-4.657 0.361-6.936l-0.024 0.285z"></path>
<path fill="#a42116" d="M49.5 17.36c0.213 0.025 0.46 0.039 0.71 0.039s0.497-0.014 0.74-0.041l-0.030 0.003c0.67-0.080 1.13-0.37 1.33-0.16 0.152 0.211 0.258 0.465 0.299 0.741l0.001 0.009c-0.25-0.070-0.538-0.11-0.835-0.11s-0.585 0.040-0.858 0.116l0.023-0.005c-0.405 0.237-0.714 0.601-0.876 1.036l-0.005 0.014c-0.16 0.33-0.25 0.58-0.54 0.71s0.040-2.35 0.040-2.35z"></path>
<path fill="#1d1d1b" d="M9.3 36c0.695-0.167 1.493-0.263 2.313-0.263 0.182 0 0.363 0.005 0.542 0.014l-0.025-0.001c0.307 0.993 0.515 2.145 0.578 3.334l0.002 0.036c-0.831 0.221-1.789 0.358-2.777 0.38l-0.014 0c-0.393-1.026-0.62-2.214-0.62-3.454 0-0.016 0-0.032 0-0.048v0.002z"></path>
<path fill="#e7413e" d="M10.050 36.75c0.393-0.093 0.844-0.146 1.307-0.146 0.092 0 0.184 0.002 0.276 0.006l-0.013-0.001c0.188 0.547 0.323 1.183 0.378 1.841l0.002 0.029c-0.462 0.124-0.995 0.2-1.544 0.21l-0.006 0c-0.232-0.573-0.376-1.236-0.4-1.93l-0-0.010z"></path>
<path fill="#1d1d1b" d="M13.13 35.57c0.698-0.168 1.499-0.264 2.323-0.264 0.193 0 0.384 0.005 0.574 0.016l-0.026-0.001c0.311 0.996 0.522 2.15 0.588 3.342l0.002 0.038c-0.835 0.217-1.797 0.351-2.788 0.37l-0.012 0c-0.407-1.038-0.648-2.239-0.66-3.495l-0-0.005z"></path>
<path fill="#ffe19b" d="M13.89 36.29c0.392-0.093 0.841-0.146 1.303-0.146 0.094 0 0.187 0.002 0.28 0.007l-0.013-0.001c0.169 0.545 0.283 1.177 0.319 1.829l0.001 0.021c-0.462 0.124-0.995 0.2-1.544 0.21l-0.006 0c-0.215-0.568-0.34-1.225-0.34-1.911 0-0.003 0-0.006 0-0.010v0.001z"></path>
<path fill="#1d1d1b" d="M17.94 35.52c0.232-0.161 0.519-0.258 0.829-0.258 0.648 0 1.198 0.423 1.389 1.008l0.003 0.010c0.022 0.094 0.035 0.203 0.035 0.314 0 0.79-0.64 1.43-1.43 1.43-0.22 0-0.428-0.050-0.614-0.138l0.009 0.004c-0.478-0.221-0.804-0.696-0.804-1.248 0-0.462 0.229-0.871 0.58-1.119l0.004-0.003z"></path>
<path fill="#f2910d" d="M18.36 36.090c0.117-0.086 0.264-0.137 0.422-0.137 0.322 0 0.594 0.211 0.686 0.502l0.001 0.005c0.013 0.052 0.021 0.111 0.021 0.172 0 0.392-0.318 0.71-0.71 0.71-0.113 0-0.22-0.026-0.315-0.074l0.004 0.002c-0.239-0.109-0.403-0.346-0.403-0.621 0-0.231 0.115-0.435 0.291-0.558l0.002-0.001z"></path>
<path fill="#1d1d1b" d="M21.44 35.31c0.232-0.161 0.519-0.258 0.829-0.258 0.648 0 1.198 0.423 1.389 1.008l0.003 0.010c0.022 0.094 0.035 0.203 0.035 0.314 0 0.79-0.64 1.43-1.43 1.43-0.22 0-0.428-0.050-0.614-0.138l0.009 0.004c-0.478-0.221-0.804-0.696-0.804-1.248 0-0.462 0.229-0.871 0.58-1.119l0.004-0.003z"></path>
<path fill="#fab900" d="M21.86 35.88c0.116-0.081 0.259-0.129 0.414-0.129 0.324 0 0.599 0.211 0.694 0.504l0.001 0.005c0.012 0.048 0.018 0.104 0.018 0.16 0 0.392-0.318 0.71-0.71 0.71-0.112 0-0.218-0.026-0.313-0.072l0.004 0.002c-0.239-0.109-0.403-0.346-0.403-0.621 0-0.231 0.115-0.435 0.291-0.558l0.002-0.001z"></path>
<path fill="#1d1d1b" d="M10.73 40.56c0.232-0.161 0.519-0.258 0.829-0.258 0.648 0 1.198 0.423 1.389 1.008l0.003 0.010c0.022 0.094 0.035 0.203 0.035 0.314 0 0.79-0.64 1.43-1.43 1.43-0.22 0-0.428-0.050-0.614-0.138l0.009 0.004c-0.478-0.221-0.804-0.696-0.804-1.248 0-0.462 0.229-0.871 0.58-1.119l0.004-0.003z"></path>
<path fill="#ffe19b" d="M11.15 41.13c0.116-0.081 0.259-0.129 0.414-0.129 0.324 0 0.599 0.211 0.694 0.504l0.001 0.005c0.012 0.048 0.018 0.104 0.018 0.16 0 0.392-0.318 0.71-0.71 0.71-0.112 0-0.218-0.026-0.313-0.072l0.004 0.002c-0.239-0.109-0.403-0.346-0.403-0.621 0-0.231 0.115-0.435 0.291-0.558l0.002-0.001z"></path>
<path fill="#1d1d1b" d="M14.52 40.15c0.233-0.162 0.522-0.26 0.834-0.26 0.647 0 1.197 0.418 1.393 0.999l0.003 0.010c0.022 0.094 0.035 0.203 0.035 0.314 0 0.79-0.64 1.43-1.43 1.43-0.22 0-0.428-0.050-0.614-0.138l0.009 0.004c-0.477-0.221-0.802-0.696-0.802-1.247 0-0.457 0.224-0.862 0.568-1.111l0.004-0.003z"></path>
<path fill="#cbe7f5" d="M14.94 40.71c0.116-0.081 0.259-0.129 0.414-0.129 0.324 0 0.599 0.211 0.694 0.504l0.001 0.005c0.012 0.048 0.018 0.104 0.018 0.16 0 0.392-0.318 0.71-0.71 0.71-0.112 0-0.218-0.026-0.313-0.072l0.004 0.002c-0.239-0.109-0.403-0.346-0.403-0.621 0-0.231 0.115-0.435 0.291-0.558l0.002-0.001z"></path>
<path fill="#1d1d1b" d="M42.14 34.52c0.233-0.161 0.521-0.258 0.831-0.258 0.65 0 1.202 0.422 1.396 1.007l0.003 0.010c0.022 0.094 0.035 0.203 0.035 0.314 0 0.79-0.64 1.43-1.43 1.43-0.22 0-0.428-0.050-0.614-0.138l0.009 0.004c-0.482-0.219-0.81-0.697-0.81-1.251 0-0.461 0.227-0.868 0.576-1.117l0.004-0.003z"></path>
<path fill="#f2910d" d="M42.57 35.090c0.116-0.082 0.261-0.131 0.417-0.131 0.321 0 0.594 0.207 0.692 0.496l0.002 0.005c0.011 0.046 0.017 0.099 0.017 0.154 0 0.398-0.322 0.72-0.72 0.72-0.108 0-0.209-0.024-0.301-0.066l0.004 0.002c-0.239-0.109-0.403-0.346-0.403-0.621 0-0.231 0.115-0.435 0.291-0.558l0.002-0.001z"></path>
<path fill="#1d1d1b" d="M45.89 35.27c0.233-0.161 0.521-0.258 0.831-0.258 0.65 0 1.202 0.422 1.396 1.007l0.003 0.010c0.022 0.094 0.035 0.203 0.035 0.314 0 0.79-0.64 1.43-1.43 1.43-0.22 0-0.428-0.050-0.614-0.138l0.009 0.004c-0.482-0.219-0.81-0.697-0.81-1.251 0-0.461 0.227-0.868 0.576-1.117l0.004-0.003z"></path>
<path fill="#fab900" d="M46.32 35.84c0.116-0.082 0.261-0.131 0.417-0.131 0.321 0 0.594 0.207 0.692 0.496l0.002 0.005c0.011 0.046 0.017 0.099 0.017 0.154 0 0.398-0.322 0.72-0.72 0.72-0.108 0-0.209-0.024-0.301-0.066l0.004 0.002c-0.239-0.109-0.403-0.346-0.403-0.621 0-0.231 0.115-0.435 0.291-0.558l0.002-0.001z"></path>
<path fill="#1d1d1b" d="M49.77 36.34c0.118-0.085 0.266-0.136 0.425-0.136 0.323 0 0.597 0.21 0.694 0.501l0.002 0.005c0.011 0.046 0.017 0.099 0.017 0.154 0 0.398-0.322 0.72-0.72 0.72-0.108 0-0.209-0.024-0.301-0.066l0.004 0.002c-0.243-0.107-0.409-0.346-0.409-0.624 0-0.229 0.113-0.432 0.287-0.555l0.002-0.001z"></path>
<path fill="#1d1d1b" d="M52.69 37c0.116-0.081 0.259-0.129 0.414-0.129 0.324 0 0.599 0.211 0.694 0.504l0.001 0.005c0.012 0.048 0.018 0.104 0.018 0.16 0 0.392-0.318 0.71-0.71 0.71-0.112 0-0.218-0.026-0.313-0.072l0.004 0.002c-0.239-0.109-0.403-0.346-0.403-0.621 0-0.231 0.115-0.435 0.291-0.558l0.002-0.001z"></path>
<path fill="#fab900" d="M48.88 40c1.717 0.258 3.223 0.607 4.682 1.059l-0.222-0.059c0 0.12-0.13 0.91-0.25 0.87s-1.79-0.5-1.88-0.33-0.41 2.54-0.54 2.54c-0.158-0.026-0.299-0.068-0.432-0.125l0.012 0.005 0.25-2.63c-0.744-0.070-1.424-0.2-2.079-0.389l0.079 0.019c0.129-0.389 0.258-0.707 0.403-1.015l-0.023 0.055z"></path>
<path fill="#1d1d1b" d="M29 32.57c0.12-0.12 0.92-0.12 0.92 0.13-0.131 1.189-0.381 2.272-0.742 3.304l0.032-0.104c-0.21 0.090-0.75 0.090-0.79-0.2 0.113-1.167 0.318-2.231 0.611-3.257l-0.031 0.127z"></path>
<path fill="#1d1d1b" d="M40.71 42.86c0.14 0 0.59 0.59 0.46 0.88-0.076 0.176-0.204 0.318-0.366 0.408l-0.004 0.002-0.71-0.7c0.179-0.226 0.383-0.42 0.611-0.584l0.009-0.006z"></path>
</svg>
