<!-- Generated by IcoMoon.io -->
<svg version="1.1" xmlns="http://www.w3.org/2000/svg" width="64" height="64" viewBox="0 0 64 64">
<path fill="#1d1d1b" d="M32.050 6.080c4-0.25 8 2.41 14.41 7.060s7.9 7.5 7.9 8.66-0.87 2.53-0.22 3.66 3.16 3.15 3.25 6.72-1.81 8-4 12.59-3.090 6.69-6.28 9.16-7.060 3.4-11.53 3.84-10.25 0.090-14.25-2c-4.402-2.687-8.070-6.134-10.923-10.195l-0.077-0.115c-2.28-3.46-3.53-9.46-3.72-15s3-10.35 5.94-13.75c2.901-3.338 6.32-6.131 10.149-8.281l0.191-0.099c2.678-1.293 5.807-2.107 9.111-2.248l0.049-0.002z"></path>
<path fill="#e6e4da" d="M31.58 7.61c3.64-0.67 6.91 2.1 11.25 5s9.41 8.47 9.34 9.13-1.090 2.26-0.17 3.78 2.68 3.56 2.93 5.12c0.124 0.709 0.195 1.525 0.195 2.357 0 0.127-0.002 0.255-0.005 0.381l0-0.019s-2.69-2.12-2.78-2.090-0.53 0.47-0.31 0.62 3 2.070 3 2.41c-0.032 0.636-0.132 1.234-0.294 1.807l0.014-0.057c-0.1 0.090-3.41-2.16-3.53-2.16s-0.63 0.35-0.44 0.66 3.72 2.19 3.72 2.47c-0.11 0.61-0.319 1.154-0.612 1.642l0.012-0.022c-0.946-0.795-1.994-1.566-3.089-2.268l-0.121-0.072c-0.19 0.13-0.5 0.59-0.38 0.75s3.41 2.19 3.34 2.41-0.56 1.34-0.56 1.34c-0.795-0.714-1.659-1.41-2.559-2.057l-0.091-0.063c-0.16 0-0.5 0.65-0.38 0.81 0.989 0.651 1.847 1.308 2.655 2.022l-0.025-0.022c0 0.25-2.13 4.53-3.13 6.56-1.198 2.225-2.942 4.020-5.057 5.246l-0.063 0.034c-2.19 1.25-4.25 2-8.57 2.32-0.874 0.072-1.893 0.113-2.921 0.113-1.845 0-3.658-0.132-5.432-0.387l0.203 0.024c-0.561-0.050-1.072-0.138-1.568-0.265l0.068 0.015s-1.38-3.47-3.32-3.75c-0.808-0.102-1.744-0.16-2.693-0.16-0.58 0-1.154 0.022-1.723 0.064l0.076-0.005c-2.058-1.609-3.863-3.382-5.451-5.338l-0.049-0.062c-2-2.72-4.12-9.1-4.31-12.25-0.050-0.537-0.078-1.161-0.078-1.791 0-3.834 1.051-7.422 2.88-10.493l-0.052 0.094c4.335-7.19 11.493-12.303 19.902-13.823l0.178-0.027z"></path>
<path fill="#1d1d1b" d="M48.3 19c0.879 0.706 1.617 1.543 2.196 2.488l0.024 0.042c0 0.22-0.060 0.59-0.31 0.44s-2.35-2.35-2.35-2.35 0.14-0.62 0.44-0.62z"></path>
<path fill="#1d1d1b" d="M47.24 21.050c1.157 0.852 2.148 1.843 2.973 2.962l0.027 0.038c0 0.31-0.13 0.47-0.25 0.44s-3.19-2.72-3.29-2.84 0.41-0.47 0.54-0.6z"></path>
<path fill="#1d1d1b" d="M46 35.14c2-0.42 3.34 1.72 3.43 4.16s-2.4 4-4.87 4.34-3.28-2-3.060-3.84 1.17-3.97 4.5-4.66z"></path>
<path fill="#fff" d="M46 36.080c1.2-0.26 2.59 0.66 2.71 2.6s-0.56 2.68-2.090 3.5-3.060 0.93-3.78-0.16c-0.222-0.502-0.351-1.088-0.351-1.705 0-2.098 1.499-3.846 3.484-4.231l0.027-0.004z"></path>
<path fill="#1d1d1b" d="M39 49.18c0.068-0.009 0.146-0.015 0.225-0.015 0.955 0 1.73 0.775 1.73 1.73 0 0.154-0.020 0.304-0.058 0.447l0.003-0.012c-0.218 1.377-1.396 2.417-2.817 2.417-0.217 0-0.429-0.024-0.632-0.070l0.019 0.004c-1.67-0.25-2.39-3.68 1.53-4.5z"></path>
<path fill="#fff" d="M38.89 50c1.1-0.28 1.72 0.9 1.1 2s-2.16 1.43-2.69 0.68-0.38-2.22 1.59-2.68z"></path>
<path fill="#fff" d="M19.86 52.14c0.285-0.050 0.612-0.078 0.947-0.078 0.918 0 1.786 0.213 2.558 0.593l-0.034-0.015c1.28 0.85 2 2.38 1.66 2.38-1.209-0.394-2.244-0.847-3.225-1.388l0.095 0.048c-1.22-0.6-2.22-1.54-2-1.54z"></path>
<path fill="#1d1d1b" d="M20.33 41.36c0 0.28 2.53 3.91 2.41 4s-0.19 0.35-0.38 0.22c-0.993-1.121-1.919-2.356-2.741-3.663l-0.069-0.117c0.225-0.164 0.482-0.311 0.754-0.43l0.026-0.010z"></path>
<path fill="#1d1d1b" d="M18.27 42.27c1.046 1.174 1.987 2.484 2.782 3.888l0.058 0.112c-0.090 0.22 0 0.31-0.28 0.28-1.188-1.156-2.258-2.422-3.195-3.785l-0.055-0.085c0.060-0.13 0.47-0.47 0.69-0.41z"></path>
<path fill="#1d1d1b" d="M16.86 43.64c0.27 0 2.66 3.16 2.47 3.38-0.112 0.153-0.291 0.251-0.493 0.251-0.013 0-0.026-0-0.038-0.001l0.002 0c-0.987-0.925-1.871-1.936-2.648-3.028l-0.042-0.062c0-0.18 0.47-0.54 0.75-0.54z"></path>
<path fill="#1d1d1b" d="M29.89 40.11c0.116-0.024 0.248-0.037 0.384-0.037 1.105 0 2 0.895 2 2 0 0.228-0.038 0.447-0.108 0.651l0.004-0.014c-0.53 1.68-2.28 1.65-3.34 0.75-0.409-0.352-0.666-0.871-0.666-1.449 0-0.99 0.753-1.804 1.718-1.9l0.008-0.001z"></path>
<path fill="#fff" d="M30 40.84c0.074-0.016 0.159-0.024 0.247-0.024 0.696 0 1.26 0.564 1.26 1.26s-0.564 1.26-1.26 1.26c-0.361 0-0.686-0.152-0.916-0.395l-0.001-0.001c-0.254-0.221-0.413-0.545-0.413-0.906 0-0.621 0.472-1.133 1.078-1.194l0.005-0z"></path>
<path fill="#1d1d1b" d="M15.39 34c0.75-0.27 2.53-0.34 3.22 0.94s-1.37 3.5-2.59 3.75c-0.163 0.055-0.351 0.087-0.547 0.087-0.924 0-1.682-0.707-1.763-1.61l-0.001-0.007c0.030-1.020 0.75-2.8 1.68-3.16z"></path>
<path fill="#fff" d="M15.67 34.77c0.201-0.083 0.435-0.132 0.679-0.132 0.608 0 1.146 0.298 1.477 0.756l0.004 0.005c0.47 0.86-0.92 2.35-1.74 2.52-0.11 0.037-0.237 0.058-0.368 0.058-0.613 0-1.118-0.459-1.191-1.052l-0.001-0.006c0.020-0.72 0.47-1.92 1.14-2.15z"></path>
<path fill="#1d1d1b" d="M26.46 21.080c2.68-0.34 5.68 0.16 6.4 4s-1.69 7.41-6.25 7-6.090-3.34-5.75-6.65 3.88-4.13 5.6-4.35z"></path>
<path fill="#fff" d="M26.6 22.88c1.8-0.22 3.82 0.11 4.3 2.71s-1.13 5-4.19 4.7-4.090-2.24-3.86-4.47 2.6-2.82 3.75-2.94z"></path>
<path fill="#1d1d1b" d="M17 20.71c0.12-0.050 0.9 0.43 0.78 0.62-1.366 0.839-2.395 2.111-2.906 3.622l-0.014 0.048c-0.75 2.56-0.72 3.12-0.94 3.16s-0.75-0.070-0.75-0.16c0.282-1.338 0.627-2.489 1.054-3.599l-0.054 0.16c0.5-1.32 1.94-3.56 2.83-3.85z"></path>
<path fill="#1d1d1b" d="M39.080 17.11c1.34-0.33 2.88 1 2.47 3.35s-3.5 2-4.53 0.78-0.35-3.53 2.060-4.13z"></path>
<path fill="#fff" d="M39.080 18c0.86-0.22 1.84 0.66 1.58 2.14s-2.24 1.3-2.9 0.5-0.22-2.24 1.32-2.64z"></path>
</svg>
