<!-- Generated by IcoMoon.io -->
<svg version="1.1" xmlns="http://www.w3.org/2000/svg" width="64" height="64" viewBox="0 0 64 64">
<path fill="#1d1d1b" d="M15.69 55.54c0.078-0.242 0.122-0.521 0.122-0.811 0-0.727-0.282-1.389-0.744-1.881l0.001 0.002c-0.43-0.436-1.027-0.706-1.688-0.706-0.375 0-0.73 0.087-1.046 0.243l0.014-0.006s-1.88-2-2.6-0.65 0.79 2.69 0.79 2.69c-0.138 0.256-0.219 0.561-0.219 0.885 0 0.583 0.262 1.104 0.676 1.453l0.003 0.002c0.462 0.33 1.039 0.527 1.661 0.527 0.336 0 0.659-0.058 0.959-0.164l-0.020 0.006s2.37 1.6 3 0.44-0.91-2.030-0.91-2.030zM10.85 53.82s-0.91-1.090-0.53-1.56 1.56 0.47 1.56 0.47-0.97 1.090-1.030 1.090zM15.79 57.2c-0.32 0.22-1.16-0.38-1.16-0.38l0.44-0.69c0.28 0.16 1.030 0.87 0.72 1.070z"></path>
<path fill="#1d1d1b" d="M27 33.1c0.050-0.53-3.81-2.25-3.87-7.18s2.37-9 8.31-10.19 8.5-0.13 8.94-0.56 0.75-2.75-2.75-4.82-14.16-3.35-22.47 4.57-7.44 16.46-6.59 19.87c1.234 4.92 4.084 9.042 7.942 11.869l0.058 0.041c4.84 3.34 7.53 4.43 11.78 5.090s8.75-1.41 11.19-3.060 3-3.41 2.93-4.16-0.9-1.94-1.46-1.78-5.13 2.22-9.22 1-5.35-4-5.32-6 0.41-3.5 0.53-4.69z"></path>
<path fill="#1d1d1b" d="M7.79 8.7c0.23-0.080 1.71 0.12 1.78 0s0.25-2.16 0.72-2.1 0.53 1.72 0.87 1.78 1.66-0.090 1.75 0.25-1.090 1.35-1.060 1.5 0.25 0.88 0 1-1.25-0.28-1.28-0.18-1.32 1.68-1.57 1.56-0.5-0.16-0.46-0.34 0.62-2.17 0.62-2.17l-1.5-0.8c-0.16-0.1-0.060-0.44 0.13-0.5z"></path>
<path fill="#1d1d1b" d="M7.16 18.73c0.76-0.47 1.28 0 1.13 0.84-0.087 0.402-0.439 0.699-0.861 0.699-0.195 0-0.375-0.064-0.521-0.171l0.002 0.002c-0.136-0.156-0.22-0.361-0.22-0.585 0-0.338 0.188-0.631 0.465-0.782l0.005-0.002z"></path>
<path fill="#1d1d1b" d="M37.29 4.82c0.204-0.093 0.443-0.147 0.695-0.147 0.944 0 1.71 0.766 1.71 1.71 0 0.045-0.002 0.089-0.005 0.133l0-0.006c-0.092 0.916-0.859 1.626-1.792 1.626-0.466 0-0.89-0.177-1.21-0.467l0.002 0.001c-0.314-0.315-0.508-0.749-0.508-1.229 0-0.734 0.454-1.361 1.096-1.617l0.012-0.004z"></path>
<path fill="#ffe19b" d="M37.58 5.55c0.112-0.053 0.244-0.083 0.383-0.083 0.508 0 0.92 0.412 0.92 0.92 0 0.026-0.001 0.051-0.003 0.077l0-0.003c-0.067 0.493-0.485 0.869-0.991 0.869-0.248 0-0.475-0.090-0.65-0.24l0.001 0.001c-0.167-0.17-0.27-0.403-0.27-0.66 0-0.401 0.251-0.743 0.604-0.878l0.006-0.002z"></path>
<path fill="#1d1d1b" d="M47 12c0.19 0 0-2.84 0.34-3s1.28 1.78 1.62 1.75 1.63-0.78 2-0.56-0.32 2.43-0.25 2.59 1 1.41 0.65 1.66-1.87-0.32-2-0.22-0.84 1.44-1.15 1.4-0.35-2-0.69-2.090-2.060-0.28-2.16-0.66 1.46-0.87 1.64-0.87z"></path>
<path fill="#1d1d1b" d="M54.13 17.23c0.073-0.008 0.158-0.012 0.244-0.012 1.392 0 2.52 1.128 2.52 2.52 0 0.092-0.005 0.183-0.015 0.273l0.001-0.011c-0.22 2.15-3 2.25-4.16 1-0.338-0.399-0.543-0.919-0.543-1.488 0-1.15 0.84-2.103 1.94-2.28l0.013-0.002z"></path>
<path fill="#ffe19b" d="M54.32 18.26c0.037-0.004 0.081-0.006 0.125-0.006 0.757 0 1.37 0.613 1.37 1.37 0 0.041-0.002 0.081-0.005 0.121l0-0.005c-0.12 1.17-1.61 1.22-2.26 0.56-0.177-0.215-0.284-0.494-0.284-0.797 0-0.623 0.452-1.141 1.047-1.242l0.007-0.001z"></path>
<path fill="#1d1d1b" d="M34.75 21.67c1-0.45 3.16 0 2.57 2.060s-3.32 1.56-3.82 0.47c-0.066-0.19-0.104-0.409-0.104-0.637 0-0.873 0.56-1.616 1.34-1.889l0.014-0.004z"></path>
<path fill="#ffe19b" d="M35 22.34c0.62-0.27 1.88 0 1.53 1.22-0.189 0.494-0.658 0.838-1.208 0.838-0.439 0-0.826-0.219-1.059-0.553l-0.003-0.004c-0.040-0.114-0.063-0.245-0.063-0.382 0-0.517 0.332-0.956 0.795-1.116l0.008-0.003z"></path>
<path fill="#1d1d1b" d="M45.66 29.13s1.38-2.75 1.81-2.81 0.47 3 0.47 3 1.94 0.16 1.88 0.47-1.57 1.060-1.57 1.060 0.54 2.19 0.25 2.35-1.4-1.66-1.4-1.66-2.13 1.090-2.31 0.84 0.46-2.12 0.46-2.12-1.5-0.53-1.46-0.78 1.65-0.16 1.87-0.35z"></path>
<path fill="#1d1d1b" d="M35.44 34.13c0.074-0.017 0.158-0.027 0.245-0.027 0.619 0 1.12 0.501 1.12 1.12 0 0.124-0.020 0.243-0.057 0.355l0.002-0.008c-0.208 0.41-0.627 0.687-1.11 0.687-0.349 0-0.665-0.144-0.89-0.377l-0-0c-0.59-0.68 0.13-1.59 0.69-1.75z"></path>
<path fill="#1d1d1b" d="M50 37.13c1-0.26 2.53-0.28 2.94 1.5s-1.66 2.54-3.31 2.13-1.94-3.030 0.37-3.63z"></path>
<path fill="#ffe19b" d="M50.26 37.92c0.57-0.14 1.43-0.15 1.65 0.85s-0.91 1.42-1.86 1.23c-0.53-0.055-0.94-0.5-0.94-1.040 0-0.577 0.468-1.045 1.045-1.045 0.037 0 0.074 0.002 0.109 0.006l-0.005-0z"></path>
<path fill="#1d1d1b" d="M8.6 46c0.191-0.139 0.431-0.223 0.69-0.223 0.646 0 1.17 0.519 1.18 1.162v0.001c0 1.090-1.47 1.34-2 0.9-0.221-0.221-0.358-0.526-0.358-0.864 0-0.398 0.191-0.751 0.485-0.974l0.003-0.002z"></path>
<path fill="#1d1d1b" d="M34.54 54.1c0.191-0.071 0.412-0.112 0.642-0.112 1.049 0 1.9 0.851 1.9 1.9 0 0.075-0.004 0.148-0.013 0.221l0.001-0.009c-0.246 1.020-1.151 1.765-2.229 1.765-0.474 0-0.914-0.144-1.279-0.39l0.008 0.005c-1.5-1.16-0.97-2.88 0.97-3.38z"></path>
<path fill="#ffe19b" d="M34.7 55c0.090-0.029 0.194-0.046 0.301-0.046 0.552 0 1 0.448 1 1 0 0.016-0 0.033-0.001 0.049l0-0.002c-0.129 0.535-0.603 0.926-1.168 0.926-0.251 0-0.483-0.077-0.676-0.208l0.004 0.003c-0.75-0.58-0.47-1.48 0.54-1.72z"></path>
<path fill="#1d1d1b" d="M49.22 52.2c0.070-0.1 1.6-2.82 2-3s0.41-0.16 0.5 0c0.024 0.424 0.037 0.92 0.037 1.42s-0.013 0.996-0.040 1.489l0.003-0.069s1 0 1 0.28-1.060 1.16-1.060 1.16 0.31 1.94 0 2.090c-0.077 0.029-0.166 0.046-0.259 0.046-0.161 0-0.311-0.051-0.433-0.138l0.002 0.002-0.43-1.090c-0.634 0.342-1.372 0.639-2.144 0.852l-0.076 0.018c-0.16-0.12-0.6-0.41-0.38-0.59 0.278-0.371 0.537-0.79 0.758-1.232l0.022-0.048s-2.12-0.19-2.18-0.44-0.070-0.6 0.090-0.66 2.59-0.090 2.59-0.090z"></path>
<path fill="#cbe7f5" d="M11.75 54s1.16-1.81 2.5-0.81 0 3-0.090 2.94c-1.043-0.412-1.881-1.159-2.398-2.106l-0.012-0.024z"></path>
<path fill="#cbe7f5" d="M11.5 55.17s1 1 1.32 1.21l0.28 0.22c-0.157 0.033-0.337 0.053-0.522 0.053-0.364 0-0.711-0.075-1.025-0.209l0.017 0.007c-0.63-0.35-0.070-1.28-0.070-1.28z"></path>
<path fill="#1d1d1b" d="M12.63 53.88s0.56-0.56 0.91-0.53c0.206 0.017 0.384 0.123 0.499 0.278l0.001 0.002-0.63 0.38-0.56 0.34c-0.060-0.18-0.135-0.335-0.225-0.479l0.005 0.009z"></path>
<path fill="#e6e4da" d="M38.29 13.87c0.24-0.060-1-2.1-2.86-2.81-1.454-0.457-3.126-0.721-4.859-0.721-1.555 0-3.060 0.212-4.489 0.609l0.118-0.028c-3.533 0.972-6.609 2.575-9.249 4.698l0.049-0.038c-2.020 1.749-3.653 3.887-4.791 6.304l-0.049 0.116c-1.358 2.195-2.163 4.857-2.163 7.706 0 0.103 0.001 0.206 0.003 0.309l-0-0.015c0.157 3.8 1.414 7.279 3.459 10.158l-0.039-0.058c1.656 2.355 3.645 4.343 5.923 5.949l0.076 0.051c0.579 0.444 1.237 0.836 1.939 1.146l0.061 0.024s-0.42-1.27-0.22-1.35c0.092-0.031 0.198-0.049 0.309-0.049 0.18 0 0.35 0.048 0.496 0.132l-0.005-0.003c0.046 0.614 0.128 1.175 0.245 1.723l-0.015-0.083c0.13 0.070 0.61 0.44 0.61 0.38-0.126-0.798-0.209-1.734-0.23-2.686l-0-0.024c0.1-0.13 1-0.1 1.080 0.1s0 2.71 0.080 2.8c0.186 0.163 0.401 0.301 0.634 0.404l0.016 0.006c0.060 0-0.1-1.81 0-1.81s0.77 0.060 0.83 0.19 0 1.85 0.090 2c1.259 0.663 2.75 1.052 4.333 1.052 0.348 0 0.691-0.019 1.029-0.055l-0.042 0.004c2.78-0.106 5.342-0.952 7.52-2.346l-0.060 0.036c1.67-1 2.71-2.31 2.6-2.59s-0.14-0.35-0.29-0.37-6.37 2.37-10.43 0.27-5.25-4.85-5.41-6.31 0.6-4.61 0.5-4.84-3.84-3.14-4-6.58 0.31-6.37 3.060-9.27c2.302-2.316 5.365-3.873 8.782-4.264l0.068-0.006c1.85-0.020 5.2 0.16 5.29 0.14z"></path>
<path fill="#1d1d1b" d="M24.1 13.19c0.157-0.057 0.338-0.090 0.527-0.090 0.77 0 1.412 0.551 1.552 1.28l0.002 0.010c0.011 0.072 0.017 0.155 0.017 0.239 0 0.955-0.775 1.73-1.73 1.73-0.271 0-0.528-0.063-0.757-0.174l0.010 0.005c-1.64-0.57-0.83-2.57 0.38-3z"></path>
<path fill="#fff" d="M24.31 14c0.075-0.027 0.162-0.043 0.252-0.043 0.371 0 0.68 0.266 0.747 0.618l0.001 0.005c0.005 0.033 0.007 0.072 0.007 0.111 0 0.458-0.372 0.83-0.83 0.83-0.13 0-0.253-0.030-0.362-0.083l0.005 0.002c-0.79-0.29-0.4-1.25 0.18-1.44z"></path>
<path fill="#1d1d1b" d="M17.47 17.31c0.77-0.54 3.15-0.46 3.36 1.42s-1.83 3.35-3.4 2.27c-0.539-0.432-0.881-1.091-0.881-1.829 0-0.756 0.359-1.429 0.915-1.857l0.006-0.004z"></path>
<path fill="#fff" d="M18 18.11c0.44-0.32 1.82-0.27 1.94 0.82 0.010 0.060 0.015 0.129 0.015 0.2 0 0.735-0.595 1.33-1.33 1.33-0.253 0-0.49-0.071-0.691-0.193l0.006 0.003c-0.309-0.251-0.504-0.631-0.504-1.057 0-0.452 0.221-0.853 0.56-1.1l0.004-0.003z"></path>
<path fill="#1d1d1b" d="M14.12 21.52c0.14-0.13 0.79 0 0.75 0.37-0.419 1.615-0.946 3.015-1.599 4.342l0.059-0.132c-0.31 0.27-0.75 0.4-0.92 0 0.218-1.729 0.826-3.283 1.733-4.617l-0.023 0.037z"></path>
<path fill="#1d1d1b" d="M14.27 28.77c1.34-0.56 4.25 0 3.77 3.44s-3.86 2.52-4.75 1.14-1.21-3.66 0.98-4.58z"></path>
<path fill="#fff" d="M14.59 29.61c0.94-0.39 3 0 2.64 2.41s-2.7 1.76-3.32 0.8-0.85-2.56 0.68-3.21z"></path>
<path fill="#1d1d1b" d="M19.37 37.67c1.34-0.57 4.25 0 3.77 3.43s-3.85 2.52-4.75 1.15-1.21-3.67 0.98-4.58z"></path>
<path fill="#fff" d="M19.69 38.51c0.94-0.39 3 0 2.64 2.41s-2.69 1.76-3.32 0.8-0.85-2.57 0.68-3.21z"></path>
<path fill="#1d1d1b" d="M27.66 45.87c0.145-0.071 0.315-0.113 0.495-0.113 0.63 0 1.14 0.51 1.14 1.14 0 0.036-0.002 0.072-0.005 0.107l0-0.005c0 0.9-0.67 1.58-1.61 1.25-0.502-0.174-0.856-0.642-0.856-1.194 0-0.544 0.345-1.007 0.827-1.184l0.009-0.003z"></path>
<path fill="#fff" d="M27.87 46.5c0.068-0.034 0.148-0.054 0.233-0.054 0.293 0 0.53 0.237 0.53 0.53 0 0.019-0.001 0.038-0.003 0.056l0-0.002c0 0.42-0.32 0.75-0.76 0.59-0.237-0.080-0.404-0.301-0.404-0.56s0.167-0.48 0.4-0.559l0.004-0.001z"></path>
</svg>
