<!-- Generated by IcoMoon.io -->
<svg version="1.1" xmlns="http://www.w3.org/2000/svg" width="64" height="64" viewBox="0 0 64 64">
<path fill="#1d1d1b" d="M36.25 6.48c0.75-0.15 1.93 0.94 2.75 1.52s4 2.63 4.18 4.13-0.84 3.62 1 4.75 4.25 2.81 4.25 4.25-1 4.34 0.38 5.34 2.34 1.1 2.94 3-1 5.6-1.1 6.19c0.025 0.67 0.32 1.267 0.778 1.688l0.002 0.002c0.556 0.572 0.898 1.353 0.898 2.215 0 0.666-0.205 1.285-0.555 1.796l0.007-0.011c-1.28 2-2.72 3.28-2.44 3.91 0.193 0.521 0.305 1.122 0.305 1.75s-0.112 1.229-0.316 1.786l0.012-0.036c-0.53 1-4.22 4.43-6.19 6.060s-2.16 2-2.87 2.19c-1.281 0.287-2.752 0.452-4.262 0.452-3.411 0-6.627-0.84-9.45-2.325l0.111 0.053c-6.37-3.47-11.12-8-13.4-14.84s-1.88-11.060-0.32-15.78 5.66-9.38 9.25-12.41 11.19-5.16 14.040-5.68z"></path>
<path fill="#e6e4da" d="M36.37 7.86c0.19 0 3.41 3.28 4.19 3.75s1 0.78 1 1.37c-0.136 0.674-0.214 1.448-0.214 2.241 0 0.267 0.009 0.532 0.026 0.795l-0.002-0.036c0.060 0.43 0.147 0.812 0.264 1.18l-0.014-0.050c-0.581 0.596-0.94 1.411-0.94 2.31v0c0 1.5 0.35 2.31 1.38 2.44 0.032 0.001 0.070 0.002 0.108 0.002 0.807 0 1.528-0.365 2.009-0.938l0.003-0.004c0.301-0.332 0.537-0.729 0.683-1.167l0.007-0.023s1.56 1.13 1.69 1.88-0.82 4.43 0 5.12 3.44 2.75 3.5 3.53c-0.033 0.85-0.169 1.654-0.398 2.419l0.018-0.069c-0.961 0.033-1.8 0.529-2.303 1.27l-0.007 0.010c-0.748 1.013-1.219 2.271-1.279 3.636l-0.001 0.014c0 0.91-0.28 1.82 0.53 3s1.19 1.29 1.53 1.47 0.85 0.41 0.85 0.41c-0.601 0.707-1.151 1.496-1.621 2.335l-0.039 0.075c0 0.37 0.47 2.18 0.28 2.78-0.184 0.436-0.46 0.802-0.805 1.086l-0.005 0.004s-0.13-0.78-1.25-0.62c-0.913 0.111-1.683 0.64-2.123 1.387l-0.007 0.013c-0.15 0.44 0.66 2.16 0.35 2.56-1.017 1.312-2.409 2.289-4.013 2.775l-0.057 0.015c-1.12 0.171-2.412 0.269-3.727 0.269-0.754 0-1.501-0.032-2.239-0.095l0.096 0.007c-0.84-0.090-1.59-0.12-1.59-0.12-0.755-1.575-1.643-2.933-2.683-4.157l0.023 0.027c-1.090-0.93-2.81-0.76-3.59-0.76-0.858 0.122-1.848 0.191-2.855 0.191-0.072 0-0.144-0-0.216-0.001l0.011 0c-2.911-2.526-5.27-5.605-6.928-9.082l-0.072-0.168c-1.424-2.795-2.259-6.095-2.259-9.59 0-2.014 0.277-3.963 0.795-5.811l-0.036 0.151c1.41-5.15 6.090-10 9.5-12.56 3.566-2.331 7.717-4.148 12.16-5.215l0.27-0.055z"></path>
<path fill="#fff" d="M42.25 18.2c0.554 0.301 1.032 0.633 1.471 1.009l-0.011-0.009c-0.137 0.489-0.383 0.91-0.711 1.251l0.001-0.001c-0.44 0.31-1 0.66-1.32 0.22s-0.060-2.38 0.57-2.47z"></path>
<path fill="#1d1d1b" d="M30.59 20.29c2.5-0.36 4.59 1.72 5.44 4.94 0.11 0.403 0.173 0.867 0.173 1.345 0 2.685-1.997 4.904-4.586 5.252l-0.027 0.003c-0.264 0.041-0.569 0.064-0.88 0.064-2.639 0-4.887-1.676-5.737-4.021l-0.013-0.042c-1.030-2.72 0.5-6.83 5.63-7.54z"></path>
<path fill="#fff" d="M30.56 22c1.44-0.090 3.25 0.72 3.72 3.44s-1 4.28-2.63 4.53-3.94 0-4.72-2.41 0.070-5.39 3.63-5.56z"></path>
<path fill="#1d1d1b" d="M21.31 19.11c0.23-0.070 0.72 0.75 0.72 0.75-1.172 0.944-2.105 2.136-2.726 3.5l-0.024 0.060c-1 2.28-1 3.41-1.22 3.53s-0.88 0.060-0.88-0.090c0.134-1.491 0.592-2.852 1.304-4.043l-0.024 0.043c1.16-1.97 1.88-3.47 2.85-3.75z"></path>
<path fill="#1d1d1b" d="M19.25 33.54c1.52-0.46 2.12 1.070 2.060 2.1-0.092 0.966-0.899 1.716-1.882 1.716-0.244 0-0.477-0.046-0.691-0.13l0.013 0.004c-1.29-0.56-2.35-2.81 0.5-3.69z"></path>
<path fill="#fff" d="M19.28 34.45c0.53-0.31 1.22 0.34 1.060 1.060-0.043 0.467-0.432 0.83-0.906 0.83-0.159 0-0.308-0.041-0.438-0.112l0.005 0.002c-0.63-0.23-1-1.030 0.28-1.78z"></path>
<path fill="#fff" d="M49.060 33.51c0.21-0.13 0.44 0.28 0.31 0.66s-0.94 1.28-0.59 2.34 1.34 1.91 1.43 2.75 0.16 1-0.060 1.44-0.31 0.81-0.56 0.81c-1.092-0.164-1.976-0.912-2.334-1.91l-0.006-0.020c-0.47-1.58-0.57-4.58 1.81-6.070z"></path>
<path fill="#fff" d="M44.46 49.48c0.321-0.385 0.801-0.628 1.338-0.628 0.057 0 0.114 0.003 0.169 0.008l-0.007-0.001c0.16 0.090 0.29 0 0.22 0.25-0.302 0.561-0.655 1.044-1.063 1.473l0.003-0.003c-0.31 0.28-0.47 0.65-0.59 0.43-0.106-0.256-0.168-0.553-0.168-0.865 0-0.237 0.036-0.466 0.102-0.682l-0.004 0.016z"></path>
<path fill="#fff" d="M24.71 51.33c0.519-0.236 1.125-0.374 1.764-0.374 0.801 0 1.552 0.217 2.197 0.595l-0.020-0.011c1.31 1 2.72 3.22 2.35 3.29-1.479-0.156-2.805-0.711-3.898-1.553l0.018 0.013c-1.81-1.29-2.5-1.81-2.41-1.96z"></path>
<path fill="#1d1d1b" d="M25.25 40.79c0.25 0.19 1.75 3 1.56 3.19s-0.19 0.31-0.35 0.22c-0.681-0.871-1.295-1.856-1.798-2.903l-0.042-0.097c0.090-0.2 0.63-0.41 0.63-0.41z"></path>
<path fill="#1d1d1b" d="M23.37 41.79c0.729 1.071 1.372 2.298 1.869 3.597l0.041 0.123c-0.16 0.16-0.35 0.41-0.44 0.32-0.759-1.095-1.488-2.35-2.118-3.663l-0.072-0.167c0.177-0.133 0.401-0.213 0.644-0.213 0.027 0 0.054 0.001 0.080 0.003l-0.004-0z"></path>
<path fill="#1d1d1b" d="M20.53 42.61c0-0.21 1-0.32 1.15-0.19 0.616 1.047 1.205 2.272 1.692 3.548l0.058 0.172c-0.060 0.15-0.090 0.4-0.34 0.28-0.921-1.115-1.769-2.362-2.497-3.685l-0.063-0.125z"></path>
</svg>
