<!-- Generated by IcoMoon.io -->
<svg version="1.1" xmlns="http://www.w3.org/2000/svg" width="64" height="64" viewBox="0 0 64 64">
<path fill="#1d1d1b" d="M39.49 5.77c0.61-0.14 3.56 2.81 4 4.47s-0.75 5.25 0.060 7.31 2.47 2.28 1.72 6-1.81 5.63-0.94 7.66 2.19 3 1.78 5.28-2.090 6-1.22 8 2.94 3.66 2.5 7.25-1 5.16-3.43 5.94c-1.261 0.343-2.709 0.541-4.203 0.541-3.054 0-5.916-0.825-8.375-2.263l0.079 0.042c-4.32-2.75-8.35-5.63-11.19-11.78s-3.91-7.88-3.66-14.31 4.91-12.79 8-15.94c4.023-3.877 9.051-6.737 14.654-8.152l0.226-0.048z"></path>
<path fill="#e6e4da" d="M38.83 7.52c0.44 0 3.28 2 3.19 4.22s-1.72 5.5-0.5 7.31 2.16 2.69 1.78 4.95-2.090 5.22-0.91 8.12 2.19 3.32 1.72 5.35-2.87 5.5-1.34 7.87 2.62 3.44 2.5 5.85-0.22 4.090-1.44 4.43c-1.37 0.316-2.943 0.498-4.559 0.5h-0.001c-0.063 0.005-0.137 0.008-0.211 0.008-0.471 0-0.915-0.118-1.304-0.325l0.015 0.007s0-1.62-1.090-2.19c-1.009-0.675-1.887-1.42-2.673-2.252l-0.007-0.008c-1.1-0.87-2.1-1.81-3.53-1.65s-2.57 1-2.91 0.9-3.66-3.75-6.13-8.78c-1.764-3.239-2.801-7.093-2.801-11.19 0-1.033 0.066-2.050 0.194-3.048l-0.012 0.118c0.44-5.66 5.44-11.16 8.19-13.6s9.68-6.37 11.83-6.59z"></path>
<path fill="#1d1d1b" d="M34.58 20.36c1.44-0.29 4.53-0.78 6.19 3.22 0.363 0.711 0.576 1.55 0.576 2.439 0 2.452-1.62 4.526-3.848 5.211l-0.039 0.010c-2.46 0.66-6.16 0.76-7.46-3.81s1.86-6.5 4.58-7.070z"></path>
<path fill="#fff" d="M35.46 22.080c0.152-0.024 0.328-0.037 0.506-0.037 1.783 0 3.249 1.356 3.423 3.093l0.001 0.014c0.058 0.251 0.091 0.539 0.091 0.834 0 1.7-1.098 3.143-2.624 3.658l-0.027 0.008c-2.090 0.65-3.94 0-4.65-2.6s0.15-4.53 3.28-4.97z"></path>
<path fill="#1d1d1b" d="M25.33 19.83c0.22 0 0.88 0.44 0.75 0.63-0.984 1.082-1.828 2.316-2.489 3.657l-0.041 0.093c-1 2.12-0.91 3.19-1.19 3.31s-1.18 0.19-1.15-0.060c0.377-1.524 0.881-2.856 1.52-4.107l-0.050 0.107c0.81-1.56 2.12-3.46 2.65-3.63z"></path>
<path fill="#1d1d1b" d="M25.58 31.86c1.54 0.050 3.47 0.75 3.35 3.35s-1.85 4-4.13 3.4c-1.495-0.326-2.597-1.639-2.597-3.208 0-0.281 0.035-0.554 0.102-0.815l-0.005 0.023c0.241-1.566 1.579-2.751 3.194-2.751 0.030 0 0.060 0 0.090 0.001l-0.004-0z"></path>
<path fill="#fff" d="M25.77 33.55c0.951 0.108 1.683 0.908 1.683 1.879 0 0.318-0.079 0.618-0.218 0.882l0.005-0.010c-0.6 1.31-2.44 2-3.44 0.81s-0.69-3.56 1.97-3.56z"></path>
<path fill="#1d1d1b" d="M30.68 40.93c0.31 0 1.87 4 1.78 4.22s-0.19 0.37-0.32 0.28c-0.77-1.173-1.53-2.537-2.194-3.955l-0.086-0.205c0.236-0.145 0.509-0.261 0.799-0.336l0.021-0.005z"></path>
<path fill="#1d1d1b" d="M28.33 41.86c0.11 0.23 2.41 4.44 2.28 4.54-0.079 0.074-0.185 0.12-0.302 0.12-0.003 0-0.006 0-0.008-0h0c-0.12 0-2.78-4.28-2.56-4.47s0.56-0.25 0.59-0.19z"></path>
<path fill="#1d1d1b" d="M25.8 42.8c1.068 1.429 2.019 3.053 2.778 4.781l0.062 0.159c-0.12 0.22-0.68 0.37-0.68 0.37-0.906-1.331-1.851-2.904-2.713-4.528l-0.137-0.282c0.188-0.21 0.418-0.379 0.677-0.495l0.013-0.005z"></path>
<path fill="#fff" d="M28.61 51.52c0.507-0.466 1.186-0.752 1.932-0.752 0.34 0 0.665 0.059 0.968 0.168l-0.020-0.006c1.108 0.513 2.038 1.24 2.769 2.136l0.011 0.014c0.472 0.654 1.092 1.174 1.811 1.518l0.029 0.012c0.41 0.25 0.88 0.85 0.69 1.070s-1.84-0.32-4.16-1.6c-1.54-0.809-2.859-1.658-4.096-2.609l0.066 0.049z"></path>
</svg>
