<!-- Generated by IcoMoon.io -->
<svg version="1.1" xmlns="http://www.w3.org/2000/svg" width="64" height="64" viewBox="0 0 64 64">
<path fill="#1d1d1b" d="M32.3 56.84c-0.75 0-1.52 0-2.27-0.11-9-0.89-13.39-3.060-18.22-9-4.35-5.31-5.060-13-5.17-16.84-0.017-0.32-0.027-0.694-0.027-1.071 0-5.173 1.871-9.91 4.973-13.57l-0.025 0.030c4.37-5.050 7.91-8.63 21.33-9.14 4.7-0.18 10.6 0.52 16.72 6.49 7.21 7 7.57 12.29 7.75 18.31 0.007 0.21 0.011 0.457 0.011 0.705 0 6.209-2.468 11.842-6.476 15.971l0.005-0.006c-3.15 3.070-9.75 8.23-18.6 8.23z"></path>
<path fill="#e6e4da" d="M19.47 12.31c0.828-0.74 1.796-1.348 2.854-1.776l0.066-0.024c1.001-0.495 2.174-0.804 3.415-0.85l0.015-0c0.119 0.297 0.188 0.642 0.188 1.002 0 0.073-0.003 0.145-0.008 0.217l0.001-0.009c-0.090 0.15-2.080 0.6-3.49 1.29s-2 1.26-2.28 1.2-1-0.87-0.76-1.050z"></path>
<path fill="#e6e4da" d="M28.94 9.33c0.799-0.099 1.724-0.155 2.662-0.155 0.175 0 0.35 0.002 0.524 0.006l-0.026-0c1 0 2 0.12 2 0.39s0 0.75-0.24 0.81-2.1-0.090-2.76 0c-0.636 0.102-1.37 0.161-2.117 0.161-0.061 0-0.121-0-0.182-0.001l0.009 0c-0.080-0.060-0.11-1.12 0.13-1.21z"></path>
<path fill="#e6e4da" d="M38.14 10.38c0.796 0.141 1.495 0.331 2.167 0.578l-0.087-0.028c0.57 0.18 2.37 1.050 2.37 1.32s-0.33 0.87-0.48 0.81c-0.652-0.552-1.421-0.991-2.261-1.275l-0.049-0.014c-0.726-0.032-1.412-0.129-2.075-0.285l0.075 0.015c-0.050-0.090 0.070-1.050 0.34-1.12z"></path>
<path fill="#e6e4da" d="M45.51 14.050c1.16 0.507 2.105 0.992 3.019 1.525l-0.139-0.075c0.667 0.325 1.198 0.843 1.531 1.481l0.009 0.019c0 0.18-0.18 0.66-0.33 0.66s-2.11-1.68-2.86-2c-0.708-0.224-1.284-0.448-1.844-0.702l0.104 0.042c0.171-0.373 0.341-0.685 0.53-0.983l-0.020 0.034z"></path>
<path fill="#e6e4da" d="M52 19.55c0.556 0.67 1.013 1.448 1.332 2.294l0.018 0.056c0.24 0.63 0.49 1.29 0.18 1.38s-0.87 0-0.93-0.12c-0.134-0.755-0.407-1.428-0.793-2.021l0.013 0.021c-0.48-0.45-1-0.84-0.87-1.090 0.228-0.317 0.595-0.521 1.010-0.521 0.014 0 0.028 0 0.042 0.001l-0.002-0z"></path>
<path fill="#e6e4da" d="M51.85 24.81c0.2-0.22 1.38-0.15 1.41 0.090s0 1.93 0.33 2.23 0.94 0.6 0.91 1 0.060 0.66-0.15 0.75-1-0.3-1.33-0.36-0.51-0.45-0.66-0.72-0.81-2.65-0.51-2.99z"></path>
<path fill="#e6e4da" d="M53.38 32.27c0-0.45 1.84-0.27 1.93 0.12s-0.15 4.54-0.51 4.6-1.72 0.18-1.72-0.060 0.3-4.48 0.3-4.66z"></path>
<path fill="#e6e4da" d="M52.12 39.54c0.15-0.21 1-0.6 1.38-0.3s0.24 1.21-0.18 2-1.080 1.76-1.47 1.82-1.23-0.27-1-0.57 0.63-1 0.9-1.47 0.19-1.2 0.37-1.48z"></path>
<path fill="#e6e4da" d="M48.45 45.83c0.078-0.023 0.167-0.037 0.26-0.037 0.301 0 0.569 0.143 0.739 0.365l0.002 0.002c0.15 0.33-0.15 0.78-0.36 1-0.713 0.77-1.492 1.46-2.334 2.069l-0.046 0.032c-0.9 0.58-1.11 0.82-1.32 0.76s-0.81-0.24-0.51-0.67 1.62-1.23 2.16-1.8 1.26-1.55 1.41-1.72z"></path>
<path fill="#e6e4da" d="M41.12 51.84c0.31-0.18 1.050 1 0.66 1.35-1.187 0.707-2.568 1.242-4.039 1.527l-0.081 0.013c-1.68 0.27-2.28 0.27-2.37 0.090s-0.12-1.15 0.18-1.24 2-0.48 3-0.78 2.44-0.8 2.65-0.96z"></path>
<path fill="#e6e4da" d="M23.77 51.78c0.693 0.499 1.511 0.874 2.396 1.072l0.044 0.008c1.23 0.18 2.46 0.36 2.49 0.63s-0.060 1.21-0.27 1.27c-1.214-0.013-2.367-0.258-3.422-0.692l0.062 0.022c-1.87-0.63-2.17-0.9-2.14-1.14s0.69-1.23 0.84-1.17z"></path>
<path fill="#e6e4da" d="M15.66 46.13c0.56 0 1 1.44 2 2.19s1.9 0.72 1.83 1.11-0.57 1.36-1 1.39-1.49-1.020-2.65-1.82-1.72-1.62-1.54-1.86c0.402-0.365 0.847-0.698 1.321-0.988l0.039-0.022z"></path>
<path fill="#e6e4da" d="M9.34 37.44c0-0.19 1.6-0.84 1.78-0.51s-0.27 1.44 0.27 2.7 1.2 1.54 1 2c-0.285 0.428-0.765 0.705-1.31 0.705-0.077 0-0.154-0.006-0.228-0.016l0.008 0.001c-0.559-0.682-1.011-1.479-1.313-2.346l-0.017-0.054c-0.143-0.532-0.225-1.143-0.225-1.773 0-0.249 0.013-0.495 0.038-0.737l-0.003 0.030z"></path>
<path fill="#e6e4da" d="M8.5 29.92c-0.001-0.050-0.001-0.108-0.001-0.166 0-1.1 0.184-2.157 0.522-3.142l-0.020 0.068c0.48-1.5 0.69-1.9 0.91-2s1.32 0 1.41 0.58-0.66 1.77-0.78 3 0 1.69-0.21 1.81-1.74 0.070-1.83-0.15z"></path>
<path fill="#e6e4da" d="M11 20.82c0.52-1.369 1.195-2.552 2.023-3.61l-0.023 0.030c0.593-0.714 1.462-1.182 2.441-1.24l0.009-0c0.27 0.15 0.75 0.69 0.45 0.9-0.921 0.498-1.687 1.171-2.277 1.981l-0.013 0.019c-0.78 1.23-0.9 2.080-1.14 2.2-0.021 0-0.046 0.001-0.070 0.001-0.505 0-0.986-0.103-1.423-0.29l0.024 0.009z"></path>
<path fill="#e6e4da" d="M14.94 24.24c0.225-1.097 0.592-2.070 1.087-2.963l-0.027 0.053c0.439-0.883 1.013-1.632 1.703-2.254l0.007-0.006c0.27 0 0.78 0.24 0.66 0.42-0.769 0.759-1.398 1.657-1.848 2.654l-0.022 0.056c-0.48 1.38-0.48 1.95-0.66 2.16s-0.78-0.18-0.9-0.12z"></path>
<path fill="#e6e4da" d="M13.76 32.63c0.25-0.17 0.69 0.15 0.6 0.33-0.271 0.313-0.439 0.721-0.45 1.168l-0 0.002c0.060 0.57 0.3 0.69 0.15 0.76s-0.81 0-0.9-0.16c-0.069-0.187-0.109-0.404-0.109-0.63 0-0.594 0.275-1.123 0.705-1.468l0.004-0.003z"></path>
<path fill="#e6e4da" d="M15.66 32.51c0.021-0.001 0.046-0.002 0.071-0.002 0.312 0 0.6 0.102 0.833 0.275l-0.004-0.003c0.15 0.18 0.15 0.57-0.090 0.63-0.085 0.014-0.182 0.023-0.282 0.023-0.222 0-0.435-0.041-0.63-0.117l0.012 0.004c-0.15-0.090-0.18-0.81 0.090-0.81z"></path>
<path fill="#e6e4da" d="M17.4 34.13c0.070-0.090 0.54-0.060 0.54 0-0.021 0.452-0.118 0.875-0.279 1.265l0.009-0.025c-0.24 0.57-0.45 0.84-0.63 0.9s-0.6-0.12-0.51-0.24 0.45-0.72 0.6-1 0.12-0.69 0.27-0.9z"></path>
<path fill="#e6e4da" d="M14.15 35.91c0.080-0.11 0.48-0.15 0.48-0.15s0 0.81 0.37 0.81 1.11 0 1.2 0.090 0.3 0.15 0.060 0.33c-0.288 0.178-0.637 0.284-1.011 0.284-0.255 0-0.499-0.049-0.722-0.139l0.013 0.005c-0.282-0.18-0.467-0.491-0.467-0.846 0-0.139 0.028-0.271 0.079-0.391l-0.002 0.007z"></path>
<path fill="#e6e4da" d="M18.9 42.82c0.311 1.051 0.877 1.946 1.627 2.647l0.003 0.003c1.56 1.53 1.95 1.53 1.92 1.77s-0.12 0.39-0.36 0.42c-1.107-0.493-2.029-1.229-2.728-2.143l-0.012-0.017c-1.080-1.33-1.26-2.23-1.11-2.41 0.185-0.136 0.409-0.232 0.652-0.269l0.008-0.001z"></path>
<path fill="#e6e4da" d="M20.32 42.58c0-0.1 0.42-0.33 0.63-0.15 0.345 0.679 0.765 1.263 1.261 1.771l-0.001-0.001c1 1 1.32 0.91 1.35 1.21s0.060 0.57-0.21 0.57c-0.868-0.466-1.604-1.062-2.211-1.77l-0.009-0.010c-0.413-0.432-0.702-0.985-0.807-1.602l-0.003-0.018z"></path>
<path fill="#e6e4da" d="M22.39 42c-0.070-0.11 0.39-0.45 0.51-0.33 0.192 0.44 0.444 0.817 0.752 1.142l-0.002-0.002c0.48 0.39 0.69 0.48 0.69 0.6-0.080 0.206-0.181 0.385-0.304 0.545l0.004-0.005s-0.72-0.63-1.050-1c-0.234-0.274-0.435-0.587-0.59-0.925l-0.010-0.025z"></path>
<path fill="#e6e4da" d="M27.68 38.67c0.25 0 0.84 0.27 0.66 0.54s-0.78 0.090-0.78 0.73 0.21 0.72 0.060 0.93-0.54 0.33-0.66 0.21-0.6-0.84-0.39-1.32c0.17-0.525 0.581-0.929 1.098-1.087l0.012-0.003z"></path>
<path fill="#e6e4da" d="M30.3 38.76c0.42 0 0.81 0.51 0.45 0.69s-0.75 0.28-0.9 0.060c-0.038-0.069-0.060-0.152-0.060-0.24 0-0.282 0.228-0.51 0.51-0.51v0z"></path>
<path fill="#e6e4da" d="M28.16 42.58c0.17 0.090-0.24 0.54 0.24 1s0.94 0.12 1 0.42 0.15 0.63 0 0.67c-0.122 0.038-0.262 0.060-0.408 0.060-0.412 0-0.783-0.177-1.041-0.459l-0.001-0.001c-0.369-0.347-0.598-0.839-0.598-1.384 0-0.115 0.010-0.228 0.030-0.338l-0.002 0.011c0.12-0.19 0.62-0.070 0.78 0.020z"></path>
<path fill="#e6e4da" d="M30.24 42.58c0-0.15 0.51-0.12 0.6-0.36s0.060-1.44 0.15-1.47 0.66-0.15 0.75 0.090c0.008 0.083 0.013 0.179 0.013 0.277 0 0.526-0.138 1.020-0.381 1.448l0.008-0.015c-0.33 0.57-0.45 0.66-0.66 0.66s-0.45-0.48-0.48-0.63z"></path>
<path fill="#e6e4da" d="M37.27 45.44c-2.34 1.29-1.080 3.18 0.18 3.15 1.135-0.153 2.002-1.115 2.002-2.281 0-0.031-0.001-0.063-0.002-0.094l0 0.004c0.050-1.080-1.62-1.090-2.18-0.78zM38.65 46.85c-0.27 0.87-0.93 1.23-1.56 0.81s-0.3-1.47 0.72-1.68c0.63-0.13 1.11 0.020 0.84 0.87z"></path>
<path fill="#e6e4da" d="M49.93 31.73c0.29 0.070 2 0.84 2 1s0.090 0.69-0.3 0.69c-0.729-0.209-1.361-0.553-1.898-1.006l0.008 0.006c-0.080-0.12 0.070-0.72 0.19-0.69z"></path>
<path fill="#e6e4da" d="M49.45 33.59c0.12 0 2.43 1 2.4 1.36s-0.060 0.81-0.18 0.78c-0.967-0.408-1.795-0.864-2.57-1.392l0.050 0.032c0-0.18 0.060-0.75 0.3-0.78z"></path>
<path fill="#e6e4da" d="M49 36.78c0.811 0.422 1.511 0.911 2.139 1.478l-0.009-0.008c0 0.21 0 0.6-0.3 0.51-0.794-0.361-1.477-0.772-2.107-1.25l0.027 0.020c0-0.12 0.13-0.78 0.25-0.75z"></path>
<path fill="#e6e4da" d="M41.84 33.92c-0.11-0.1 0.24-0.48 1.2-0.72s1.6-0.33 1.66-0.12 0.090 0.66-0.060 0.72c-0.086-0.011-0.186-0.017-0.287-0.017-0.402 0-0.781 0.095-1.117 0.263l0.014-0.007c-0.57 0.39-0.66 0.54-0.87 0.57s-0.48-0.61-0.54-0.69z"></path>
<path fill="#e6e4da" d="M40.1 36.21c0.12-0.090 0.81 0 0.78 0.18s-0.6 0.36-0.42 1.29 0.48 1.23 0.42 1.41-0.57 0.3-0.69 0.24c-0.301-0.399-0.498-0.893-0.539-1.431l-0.001-0.009c0.009-0.618 0.174-1.196 0.459-1.697l-0.009 0.017z"></path>
<path fill="#e6e4da" d="M46.86 36.090c0.090-0.16 0.6-0.15 0.69 0s0.66 2.43 0.36 2.46-0.81 0.060-0.78-0.090-0.36-2.22-0.27-2.37z"></path>
<path fill="#e6e4da" d="M44.76 40.9c0.27 0 0.75 0.18 1.23 0s0.51-0.57 0.78-0.57 0.45 0.090 0.39 0.21c-0.272 0.469-0.668 0.84-1.144 1.073l-0.016 0.007c-0.75 0.36-1.050 0.42-1.26 0.21s-0.16-0.9 0.020-0.93z"></path>
<path fill="#e6e4da" d="M41.6 40.42c0.17 0.080 0 0.66 0.54 0.87s0.84 0 0.9 0.15 0.3 0.69 0.060 0.78c-0.175 0.039-0.376 0.062-0.582 0.062-0.443 0-0.862-0.104-1.234-0.289l0.016 0.007c-0.39-0.33-0.57-1-0.39-1.23s0.57-0.41 0.69-0.35z"></path>
<path fill="#e6e4da" d="M19.93 23.37c-0.080-0.17 0.27-1 1.2-1.62s1.32-0.87 1.65-0.72 0.6 0.54 0.48 0.6-1.2 0.42-1.53 1-0.12 0.9-0.6 1.050c-0.103 0.032-0.221 0.050-0.343 0.050-0.336 0-0.639-0.138-0.857-0.36l-0-0z"></path>
<path fill="#e6e4da" d="M19.47 25.51c0.15-0.11 1.51-0.090 1.54 0.12s-0.42 1.26-0.090 1.62 0.75 0.24 0.72 0.6-0.6 1-0.84 0.9c-0.529-0.17-0.971-0.483-1.296-0.894l-0.004-0.006c-0.24-0.45-0.39-2.070-0.030-2.34z"></path>
<path fill="#e6e4da" d="M25.61 20.64c0.42 0 1.59 0.72 1.59 1.17s-0.090 0.66-0.27 0.66-1-0.42-1.38-0.48-0.66 0-0.63-0.3 0.18-1.080 0.69-1.050z"></path>
<path fill="#e6e4da" d="M28.76 23.67c0.14-0.24 1.21-0.21 1.3 0 0.079 0.276 0.124 0.593 0.124 0.92s-0.045 0.644-0.13 0.945l0.006-0.024c-0.093 0.16-0.264 0.266-0.459 0.266-0.125 0-0.241-0.044-0.332-0.117l0.001 0.001c-0.15-0.15-0.72-1.66-0.51-1.99z"></path>
<path fill="#e6e4da" d="M29.61 27.37c0.18 0.060 0.84 0.33 0.51 0.6-0.522 0.429-1.104 0.836-1.716 1.195l-0.064 0.035c-0.66 0.36-0.75 0.48-0.9 0.45s-0.54-0.39-0.39-0.48 1-0.78 1.47-1.080z"></path>
<path fill="#e6e4da" d="M22.93 29.14c0.24 0 0.72 0.72 1.38 0.78s1.15-0.12 1.15 0.070-0.060 0.69-0.39 0.84c-0.298 0.109-0.642 0.172-1 0.172s-0.702-0.063-1.021-0.178l0.021 0.007c-1-0.27-1.2-0.48-1.14-0.72s0.7-0.97 1-0.97z"></path>
<path fill="#e6e4da" d="M35.92 19.4c-0.021-0.099-0.033-0.212-0.033-0.328 0-0.487 0.209-0.926 0.541-1.231l0.001-0.001c0.72-0.57 1.2-0.69 1.5-0.54s0.42 0.72 0.21 0.78-0.72-0.21-1.080 0.3-0.060 0.78-0.3 1c-0.125 0.077-0.276 0.123-0.437 0.123-0.148 0-0.286-0.038-0.407-0.105l0.004 0.002z"></path>
<path fill="#e6e4da" d="M36.55 21.39c0.080-0.26 0.81-0.27 0.9-0.15s0 0.63 0.42 0.87 0.66 0 0.66 0.3 0.060 0.45-0.18 0.54c-0.107 0.024-0.231 0.038-0.357 0.038-0.4 0-0.767-0.139-1.056-0.371l0.003 0.003c-0.248-0.282-0.399-0.654-0.399-1.061 0-0.060 0.003-0.118 0.010-0.176l-0.001 0.007z"></path>
<path fill="#e6e4da" d="M40.22 17.54c0.2-0.23 0.75-0.090 0.93 0.42s-0.45 0.69-0.81 0.54-0.34-0.72-0.12-0.96z"></path>
<path fill="#e6e4da" d="M40 21.36c0.261-0.047 0.493-0.142 0.697-0.274l-0.007 0.005c0.21-0.18 0.12-0.51 0.45-0.36s0.51 0.36 0.45 0.66-0.51 0.51-0.87 0.69-0.51 0.33-0.63 0.12-0.17-0.81-0.090-0.84z"></path>
<path fill="#e6e4da" d="M46.11 18.8c0.14 0.14 2.55 1.57 2.52 1.84s0 0.48-0.45 0.42c-0.931-0.445-1.732-0.989-2.437-1.637l0.007 0.006c-0.030-0.15 0.25-0.75 0.36-0.63z"></path>
<path fill="#e6e4da" d="M45.42 20.64c0.2-0.21 2.49 1.56 2.37 1.86-0.102 0.186-0.289 0.314-0.508 0.33l-0.002 0c-0.934-0.565-1.716-1.099-2.47-1.671l0.070 0.051c0-0.12 0.36-0.39 0.54-0.57z"></path>
</svg>
