<!-- Generated by IcoMoon.io -->
<svg version="1.1" xmlns="http://www.w3.org/2000/svg" width="64" height="64" viewBox="0 0 64 64">
<path fill="#1d1d1b" d="M34 7c5-0.34 8.5 0 15.75 7s7.94 12 8.13 18.25c0.007 0.212 0.011 0.462 0.011 0.713 0 6.129-2.438 11.689-6.396 15.763l0.005-0.005c-4.060 4-11.43 9.13-20.9 8.19s-13.6-3.27-18.24-8.91-6.19-14-6.29-17.45 1.69-9.060 6.070-14.12 8-8.43 21.86-9.43z"></path>
<path fill="#e6e4da" d="M30.57 9.24c4.19-0.41 8.29-0.53 11.88 1.31s8.94 8 9.81 9.060c0.523 0.625 0.955 1.35 1.262 2.137l0.018 0.053s-1.75 1.2-1.090 4.25 1.81 4.31 2.31 4.72c0.316 0.251 0.679 0.463 1.071 0.62l0.029 0.010s0.31 6.43-1.38 9.87-6.48 9.53-10.78 11.16-11.88 5.060-19.7 1.43-10.14-7.060-13-12.86-3.11-11.64-1.71-15.85 5.91-9.75 9.57-12.25 8.53-3.35 11.71-3.66z"></path>
<path fill="#fff" d="M54 23c0.18 0 0.78 1.78 1.25 3.66 0.192 0.591 0.302 1.272 0.302 1.978 0 0.293-0.019 0.582-0.056 0.865l0.004-0.033c-0.896-0.722-1.564-1.694-1.9-2.81l-0.010-0.040c-0.45-1.76 0.17-3.62 0.41-3.62z"></path>
<path fill="#1d1d1b" d="M46.42 15.65c1.080 0.639 1.999 1.421 2.767 2.334l0.013 0.016c-0.060 0.22 0.090 0.81-0.22 0.59s-2.75-2.090-2.81-2.25c-0.005-0.033-0.008-0.072-0.008-0.111 0-0.23 0.099-0.436 0.257-0.579l0.001-0.001z"></path>
<path fill="#1d1d1b" d="M46.32 18.86c1.284 0.969 2.419 1.999 3.454 3.122l0.016 0.018c0.001 0.016 0.002 0.035 0.002 0.055 0 0.202-0.068 0.389-0.183 0.538l0.002-0.002s-3.41-2.93-3.5-3.060 0.21-0.67 0.21-0.67z"></path>
<path fill="#1d1d1b" d="M45.82 21.24c1.25 0.86 2.345 1.767 3.352 2.762l-0.002-0.002c0 0.28-0.1 0.66-0.19 0.69s-3.72-2.28-3.66-2.56 0.32-0.98 0.5-0.89z"></path>
<path fill="#1d1d1b" d="M38.29 18c0.294-0.134 0.638-0.212 1.001-0.212 1.364 0 2.47 1.106 2.47 2.47 0 0.018-0 0.036-0.001 0.054l0-0.003c-0.048 1.763-1.489 3.174-3.259 3.174-0.376 0-0.738-0.064-1.074-0.181l0.023 0.007c-1.56-0.85-1.78-4.31 0.84-5.31z"></path>
<path fill="#fff" d="M38.52 18.78c0.203-0.092 0.441-0.146 0.69-0.146 0.944 0 1.71 0.766 1.71 1.71 0 0.012-0 0.025-0 0.037l0-0.002c-0.047 1.211-1.040 2.175-2.258 2.175-0.266 0-0.521-0.046-0.757-0.13l0.016 0.005c-1.060-0.54-1.22-2.94 0.6-3.65z"></path>
<path fill="#1d1d1b" d="M15.2 20.8c0.12 0 1.19 0.53 1.090 0.63-0.919 0.952-1.627 2.114-2.043 3.408l-0.017 0.062c-0.5 1.87-0.28 2.59-0.59 2.62s-1 0-1.070-0.19c0.111-1.226 0.402-2.356 0.848-3.403l-0.028 0.073c0.53-1.2 1.47-3.070 1.81-3.2z"></path>
<path fill="#1d1d1b" d="M24.57 20.71c2.58-0.65 6.82 0.72 7.44 5.69s-5.12 7.5-9.15 5-5.86-8.79 1.71-10.69z"></path>
<path fill="#fff" d="M24.94 22.57c0.254-0.055 0.546-0.087 0.846-0.087 2.219 0 4.032 1.737 4.154 3.926l0 0.011c0.42 3.37-3.47 5.080-6.2 3.41s-3.92-5.97 1.2-7.26z"></path>
<path fill="#1d1d1b" d="M14.86 33.36c0.55-0.24 2.090 0 2.15 2.070s-1.31 3.22-2.81 2.84-2.28-3.62 0.66-4.91z"></path>
<path fill="#fff" d="M15 34.49c0.63-0.2 1.35 0.53 1.25 1.44s-0.9 1.93-1.87 1.56c-0.448-0.3-0.739-0.804-0.739-1.376 0-0.809 0.582-1.481 1.349-1.623l0.010-0.002z"></path>
<path fill="#1d1d1b" d="M30 39.9c1.38-0.74 2.78-0.29 3.13 1.21 0.073 0.224 0.115 0.482 0.115 0.75 0 1.381-1.119 2.5-2.5 2.5-0.009 0-0.018-0-0.027-0h0.001c-1.21-0.087-2.158-1.090-2.158-2.314 0-0.963 0.587-1.789 1.422-2.14l0.015-0.006z"></path>
<path fill="#fff" d="M30.48 40.8c0.201-0.155 0.457-0.248 0.734-0.248 0.668 0 1.21 0.542 1.21 1.21 0 0.035-0.001 0.069-0.004 0.102l0-0.004c0.002 0.026 0.002 0.056 0.002 0.086 0 0.867-0.703 1.57-1.57 1.57-0.214 0-0.417-0.043-0.603-0.12l0.010 0.004c-1.030-0.5-1.090-1.82 0.22-2.6z"></path>
<path fill="#1d1d1b" d="M20.76 42.52c0.13 0.13 0 0.69 0.75 1.31s1.13 0.63 1.060 0.85-0.12 0.47-0.34 0.47c-0.586-0.211-1.087-0.532-1.5-0.94l0 0c-0.5-0.47-1-1.5-0.75-1.6 0.221-0.057 0.476-0.090 0.738-0.090 0.015 0 0.030 0 0.044 0h-0.002z"></path>
<path fill="#1d1d1b" d="M18.64 42.77c0.325 0.828 0.786 1.536 1.362 2.132l-0.002-0.002c1 1 1.63 1.21 1.53 1.43s-0.37 0.53-0.59 0.44c-0.787-0.608-1.481-1.264-2.105-1.982l-0.015-0.018c-0.6-0.69-1.22-1.69-1.070-1.84s0.89-0.16 0.89-0.16z"></path>
<path fill="#1d1d1b" d="M16.73 43.050c0.592 1.098 1.215 2.040 1.912 2.922l-0.032-0.042c1.090 1.22 1.65 1.34 1.59 1.53-0.048 0.213-0.235 0.37-0.459 0.37-0.004 0-0.008-0-0.011-0h0.001c-0.31 0-1.66-1.22-2.62-2.34s-1.47-1.94-1.29-2.090c0.262-0.145 0.565-0.265 0.884-0.344l0.026-0.005z"></path>
<path fill="#1d1d1b" d="M39.11 47.43c1.44-0.090 2.090 0.56 1.71 2.22s-1.75 1.5-2.62 1-1.72-3.070 0.91-3.22z"></path>
<path fill="#fff" d="M39.17 48.24c0.523 0.036 0.933 0.469 0.933 0.998 0 0.161-0.038 0.313-0.106 0.448l0.003-0.006c-0.15 0.273-0.436 0.456-0.765 0.456s-0.615-0.182-0.763-0.451l-0.002-0.005c-0.070-0.133-0.111-0.291-0.111-0.458 0-0.485 0.346-0.89 0.805-0.981l0.006-0.001z"></path>
<path fill="#1d1d1b" d="M44.82 35.52c2.51-0.59 3.72 0.19 4.41 2.84s-1.78 4.54-3.72 4.94-2.87 0.25-3.94-2.19-0.21-4.78 3.25-5.59z"></path>
<path fill="#fff" d="M44.54 36.46c0.83-0.26 2.63-0.85 3.35 1.12s0.62 3.19-1 4.19-2.32 1.23-3.89-0.16-1.83-4.090 1.54-5.15z"></path>
<path fill="#1d1d1b" d="M52.76 32c0.84 0.713 1.555 1.537 2.134 2.456l0.026 0.044c0 0.25-0.16 0.62-0.28 0.56-0.891-0.719-1.68-1.496-2.388-2.343l-0.022-0.027c0.030-0.23 0.31-0.69 0.53-0.69z"></path>
<path fill="#1d1d1b" d="M51.32 33.49c0 0.2 3 3.22 3 3.5s-0.090 0.66-0.21 0.59c-1.178-1.085-2.263-2.217-3.274-3.415l-0.046-0.055c0.070-0.11 0.53-0.71 0.53-0.62z"></path>
<path fill="#1d1d1b" d="M51.17 36.4c0.99 0.908 1.882 1.889 2.68 2.945l0.040 0.055c0 0.22-0.16 0.75-0.32 0.68s-3-2.9-3-3 0.43-0.72 0.6-0.68z"></path>
</svg>
