<!-- Generated by IcoMoon.io -->
<svg version="1.1" xmlns="http://www.w3.org/2000/svg" width="64" height="64" viewBox="0 0 64 64">
<path fill="#1d1d1b" d="M41.48 6.070c0.66 0 1.31 0.63 0.88 1.13s-1.94 0.65-1.75 2.090 0.65 3.56-0.69 5-2.53 1.37-2.84 2.59 1 3.060 0.31 4.44-2.13 1.75-2.85 3.68 1.070 2.68 1 4-1.090 3.54-1.21 4.5c-0.075 0.253-0.118 0.544-0.118 0.846 0 0.953 0.433 1.805 1.113 2.37l0.005 0.004c1.25 0.94 3 1.44 3.060 3.13s-0.78 2.94 0 4.65c0.456 1.157 1.262 2.095 2.285 2.706l0.025 0.014c0.69 0.44 1.56 0.38 1.66 2.13s-0.19 2.65 0.5 3.84c0.477 0.916 1.016 1.707 1.634 2.427l-0.014-0.017c0.13 0 0.81-0.44 1.19 0.060s-0.31 2.28-0.72 2.34-10.78 0.19-16.84-5.18-8.32-12.34-9.57-17.62 1.32-12.2 3.46-15.97 6.79-8.63 11-10.66 6.89-2.5 8.48-2.5z"></path>
<path fill="#e6e4da" d="M38.77 8.22c0.19 0-0.2 0.83 0 1.81 0.135 0.352 0.213 0.76 0.213 1.185 0 0.934-0.375 1.78-0.983 2.395l0-0c-1.29 1.52-3.16 2-3.060 3.88s1.060 2.56 0.060 3.79-3 2.72-3.080 4.72 1.37 2.23 1.44 3.39-1.36 3.61-1.15 5.31c0.074 1.43 0.752 2.688 1.782 3.533l0.008 0.007c1.090 1 2.42 1.14 2.44 2.25s-1.25 2.93 0.25 5.25 3.58 3 3.77 3.68-0.12 2.61 0.4 3.61c0.4 0.689 0.715 1.488 0.9 2.335l0.010 0.055c-1.228-0.046-2.392-0.197-3.52-0.444l0.13 0.024c-0.11-0.21 0-2.82-1.77-3.57s-3.070-0.89-3.82-1.45-1.16-1.090-2.27-1.070-2.18 0.36-2.68 0.32-2-1.63-4.5-6.82c-1.819-3.508-2.919-7.646-3-12.034l-0-0.026c0.080-2.25 1.85-7.15 3.43-9.85 1.679-2.918 3.755-5.398 6.19-7.467l0.040-0.033c2.501-1.996 5.41-3.619 8.564-4.718l0.206-0.062z"></path>
<path fill="#1d1d1b" d="M34 12.66c0.32 0 0.85 0.66 0.29 1s-0.91 0.18-1.1-0.13 0.010-0.9 0.81-0.87z"></path>
<path fill="#1d1d1b" d="M27.51 18.45c0.21-0.060 0.66 0.090 0.57 0.34-0.944 1.164-1.789 2.476-2.485 3.877l-0.055 0.123c-0.81 2-0.9 3.28-1.21 3.34s-1.1-0.12-1.070-0.25c0.494-1.491 0.971-2.689 1.507-3.855l-0.097 0.235c0.78-1.75 2.33-3.66 2.84-3.81z"></path>
<path fill="#1d1d1b" d="M25.29 31.2c0.136-0.029 0.291-0.045 0.451-0.045 1.265 0 2.29 1.025 2.29 2.29 0 0.132-0.011 0.262-0.033 0.388l0.002-0.014c0.003 0.042 0.004 0.090 0.004 0.139 0 1.359-1.101 2.46-2.46 2.46-0.513 0-0.988-0.157-1.383-0.425l0.009 0.005c-1.56-0.87-2.17-3.9 1.12-4.8z"></path>
<path fill="#fff" d="M25.2 32.2c0.172-0.1 0.38-0.16 0.601-0.16 0.668 0 1.21 0.542 1.21 1.21 0 0.056-0.004 0.112-0.011 0.166l0.001-0.006c0.060 1.32-0.5 2-2.16 1.38s-1.050-2.090 0.36-2.59z"></path>
<path fill="#1d1d1b" d="M29.51 40c0.1 0 2.13 3.12 2 3.43s-0.25 0.66-0.4 0.41-2.47-3.16-2.35-3.41c0.174-0.237 0.441-0.398 0.745-0.43l0.005-0z"></path>
<path fill="#1d1d1b" d="M27.54 40.85c0.13 0 2.66 3.35 2.47 3.63s-0.37 0.5-0.47 0.43c-0.921-1.073-1.813-2.253-2.628-3.489l-0.081-0.131c0.205-0.172 0.439-0.319 0.691-0.432l0.019-0.008z"></path>
<path fill="#1d1d1b" d="M25.86 42c0.985 1.114 1.884 2.351 2.66 3.669l0.060 0.111c0 0.19-0.32 0.37-0.41 0.34-1.027-1.12-2.011-2.333-2.921-3.603l-0.079-0.117c0.178-0.198 0.414-0.34 0.681-0.398l0.009-0.002z"></path>
<path fill="#fff" d="M28.83 50.2c0.050-0.12 1.75-0.72 2.25-0.35s0.81 1.19 2.18 1.53 2.6 0.63 3.13 1.32 0.94 1.9 0.72 2c-1.817-0.374-3.43-0.99-4.903-1.823l0.083 0.043c-1.361-0.692-2.51-1.605-3.447-2.705l-0.013-0.016z"></path>
</svg>
