<!-- Generated by IcoMoon.io -->
<svg version="1.1" xmlns="http://www.w3.org/2000/svg" width="64" height="64" viewBox="0 0 64 64">
<path fill="#1d1d1b" d="M11.54 32.64s-1.69-6.12-1-10.43c0.29-2.433 1.357-4.575 2.943-6.213l-0.003 0.003s1.52-5.79 10.68-8.79 24.25-1.44 27 10.79 1 15.62 1 15.62c1.417 0.451 2.425 1.755 2.425 3.294 0 0.388-0.064 0.762-0.182 1.11l0.007-0.024c-1 3.31-5.68 3.25-5.68 3.25-0.898 1.238-1.793 2.323-2.75 3.351l0.020-0.021c-0.631 0.702-1.375 1.287-2.207 1.729l-0.043 0.021s5.31 4.31 6.12 6.44-0.37 3.94-0.93 4.12-2.19 1.13-7.25 0.82-5.13-0.63-7.5-0.13c-1.481 0.338-3.181 0.531-4.926 0.531-0.797 0-1.585-0.040-2.361-0.119l0.098 0.008c-1.38-0.32-5.25-1.82-6.75-1.94s-4.77-0.060-4.84-1.060 1.19-3.29 2.59-5.17c0.754-1.063 1.666-1.956 2.713-2.666l0.037-0.024c-1.963-1.333-3.52-3.127-4.536-5.231l-0.034-0.079s-3.87 1.060-6.060-3.25 1.42-5.94 1.42-5.94z"></path>
<path fill="#7b5207" d="M12.91 31.58s-2.31-6.75-0.68-9.94 1.77-3.5 1.77-3.5 2.81-6.43 8.68-8.37 14.32-3.63 21.42 0.75 7.13 18.87 7.060 19.69-0.25 0.87-0.25 0.87c-0.017-3.975-1.201-7.671-3.227-10.766l0.047 0.076c-3.44-5.25-7.57-8.81-15.44-8.68s-14.69 6.29-15.19 7.56-0.94 2.12-0.94 2.12-0.87-1.31-1.060-1.31-0.69 0.25-0.56 0.63 1.060 1.37 1.060 1.62c-0.057 0.355-0.144 0.671-0.261 0.972l0.011-0.032s-1.5-1.38-1.75-1.19-0.25 1-0.25 1 1.44 1.5 1.38 1.69c-0.512 1.176-0.907 2.543-1.119 3.97l-0.011 0.090c-0.070 1.010-0.317 1.945-0.71 2.8l0.021-0.050z"></path>
<path fill="#fcd396" d="M13.29 34.52s0.81 2.31 1.25 3.37c0.245 0.566 0.421 1.222 0.497 1.909l0.003 0.031c-1.409-0.159-2.576-1.053-3.12-2.285l-0.010-0.025c-0.81-2.13 1.090-2.75 1.38-3z"></path>
<path fill="#fcd396" d="M51.16 35.21s-0.31 1.25-0.68 2.62c-0.174 0.734-0.432 1.381-0.769 1.977l0.019-0.037s2.87-0.19 3.25-1.88c0.031-0.139 0.048-0.299 0.048-0.463 0-1.108-0.8-2.028-1.855-2.215l-0.014-0.002z"></path>
<path fill="#fcd396" d="M33.16 13.64c5.13 0 11.070 2.82 14.19 10.19s2.44 14.81-2.060 18.94-8.56 6.62-16.19 5.44-10.69-5.44-13-10.69-1.1-23.75 17.060-23.88z"></path>
<path fill="#fab900" d="M22.23 48c0.54-0.4 3.81 2.94 11.18 2.19s8.44-2.69 8.75-2.69 5.44 3.81 6.13 5.37 0.56 2.63 0.25 2.69c-0.132 0.015-0.285 0.024-0.44 0.024s-0.308-0.009-0.458-0.026l0.018 0.002s-3.18-5.19-3.81-5.25-0.81 0.13-0.69 0.44 3.32 5 3.13 5.060-0.75 0.56-1.13 0.31-2.87-4.12-3.16-4.12-1 0.18-0.94 0.37 2.88 3.94 2.63 4.060c-0.389 0.084-0.835 0.132-1.293 0.132-0.052 0-0.103-0.001-0.155-0.002l0.008 0s-2.5-3.69-2.88-3.69-0.62 0.63-0.62 0.63 2.19 3.25 1.94 3.25c-1.535-0.4-3.298-0.63-5.114-0.63-0.027 0-0.053 0-0.080 0h0.004c-2.5 0.13-4.44 1.13-6.63 0.88s-4.87-2-7.020-2.11-4.19-0.12-4.25-0.37 0.63-3.52 4.63-6.52z"></path>
<path fill="#1d1d1b" d="M21.23 21.83c-0.46 0 5.81-1.25 6.12-0.87s0.56 0.87 0.060 0.87-5.25 1.17-5.68 1.060-0.44-1.060-0.5-1.060z"></path>
<path fill="#1d1d1b" d="M39.85 21.21c0.25 0 5.5 0.75 5.56 1.18s0.44 0.57-0.18 0.63c-2.063-0.214-3.895-0.524-5.687-0.94l0.306 0.060c-0.44-0.14 0-0.93 0-0.93z"></path>
<path fill="#1d1d1b" d="M23.66 23.71c3.44-0.82 8.25-0.44 8.070 5.68s-7.38 7.13-10.82 4.69-3.56-8.87 2.75-10.37z"></path>
<path fill="#fff" d="M23.89 24.57c2.91-0.69 7-0.37 6.83 4.82s-6.25 6-9.16 4-3.020-7.55 2.33-8.82z"></path>
<path fill="#1d1d1b" d="M38.41 23.89c3-1.58 7.94 0.13 8.13 5.69s-6.060 6.75-9.19 4.19-3.75-7.31 1.060-9.88z"></path>
<path fill="#fff" d="M38.81 24.81c2.46-1.31 6.57 0.1 6.72 4.7s-5 5.59-7.6 3.47-3.1-6.050 0.88-8.17z"></path>
<path fill="#1d1d1b" d="M24.54 28.14c0.91-0.7 2.5-0.43 2.56 0.75 0.013 0.080 0.021 0.173 0.021 0.267 0 0.939-0.761 1.7-1.7 1.7-0.25 0-0.488-0.054-0.702-0.151l0.011 0.004c-1.57-0.57-0.73-2.13-0.19-2.57z"></path>
<path fill="#1d1d1b" d="M40.1 28.14c0.91-0.7 2.5-0.43 2.56 0.75 0.015 0.085 0.024 0.183 0.024 0.284 0 0.933-0.757 1.69-1.69 1.69-0.255 0-0.497-0.057-0.714-0.158l0.010 0.004c-1.56-0.57-0.75-2.13-0.19-2.57z"></path>
<path fill="#1d1d1b" d="M31.79 36.39c0.27 0.060 3.87 2.19 4.37 1.88s0.13-1.75-0.5-2.25-0.56-0.19-0.62-0.5c-0.009-0.031-0.014-0.067-0.014-0.104 0-0.221 0.179-0.4 0.4-0.4 0.019 0 0.038 0.001 0.056 0.004l-0.002-0c1.114 0.258 1.959 1.166 2.118 2.295l0.002 0.015c0.31 1.88-0.81 2.44-2.31 2.060-1.585-0.56-2.955-1.344-4.154-2.329l0.023 0.019c-0.16-0.25 0.32-0.75 0.63-0.69z"></path>
<path fill="#1d1d1b" d="M26 41.27c0.43-0.060 2.12 2.12 6.43 1.94 1.791-0.026 3.508-0.298 5.133-0.784l-0.133 0.034c0.417 0.084 0.73 0.438 0.75 0.868l0 0.002c-0.060 0.19-2.87 1.38-7.12 1-4.47-0.39-5.69-2.060-5.81-2.31s0.29-0.69 0.75-0.75z"></path>
</svg>
