<!-- Generated by IcoMoon.io -->
<svg version="1.1" xmlns="http://www.w3.org/2000/svg" width="64" height="64" viewBox="0 0 64 64">
<path fill="#1d1d1b" d="M24.45 6.54c3.91-1.31 8.63-2.060 15.47 0.38s10.87 5.5 14.44 10.37 4.15 11 3.75 17.6c-0.267 6.129-2.638 11.658-6.404 15.928l0.024-0.028c-3.81 4.6-8.25 8.6-17.47 7.78s-15.56-4.57-21.060-9.93-6.59-8.85-7.34-15.47 3.78-14.63 7-18.81c2.977-3.607 6.912-6.325 11.417-7.772l0.173-0.048z"></path>
<path fill="#696a9b" d="M26.7 7.79c1.456-0.371 3.128-0.585 4.85-0.585 1.358 0 2.686 0.133 3.97 0.386l-0.129-0.021c2.525 0.691 4.721 1.578 6.782 2.684l-0.172-0.084s-10.24 1.75-10.3 2.060-0.28 1 0.13 1 10.81-2.56 11.4-2.41c1.941 0.789 3.606 1.681 5.162 2.724l-0.102-0.064c2.070 1.34 2.1 1.75 2.1 1.75s-5.91-0.91-17.63 1.66-18 4.15-19.65 4.53c-1.177 0.254-2.181 0.554-3.152 0.92l0.152-0.050c1.355-2.809 2.885-5.228 4.651-7.45l-0.061 0.080c3.137-3.417 7.22-5.919 11.833-7.094l0.167-0.036z"></path>
<path fill="#1d1d1b" d="M23 11.45c0.23-0.12 0.91 0 0.53 0.28s-4.84 4.66-5.090 4.53-1-0.59-0.72-0.78 4.76-3.75 5.28-4.030z"></path>
<path fill="#92a0d1" d="M9.79 24c0.1-0.080 9.35-2.65 15.91-4.22 5.112-1.295 11.171-2.281 17.373-2.757l0.377-0.023c6.28-0.53 7.72-0.5 8.28-0.25 0.965 1.035 1.758 2.247 2.32 3.58l0.030 0.080c-0.16 0.090-13.75 2-13.94 2.37s-0.28 0.78 0 0.81 13.86-2.3 14.15-1.95 2.35 3.12 2.25 8.75-0.68 8.84-1.93 11.68c-1.007 2.165-2.081 4.012-3.299 5.749l0.079-0.119s-3.53-3.7-3.72-3.7-0.69 0.1-0.47 0.44 3.81 3.63 3.66 3.84c-0.253 0.455-0.511 0.844-0.796 1.212l0.016-0.022c-0.157 0.051-0.338 0.080-0.526 0.080-0.093 0-0.185-0.007-0.274-0.021l0.010 0.001c-1.148-1.377-2.312-2.62-3.542-3.793l-0.018-0.017c-0.25 0-0.69 0.41-0.65 0.56s3 3 2.71 3.1-9.090-0.47-13.46 0.44-6.88 1.38-8.79 2.18-2 1-2.15 1-2.72-1.28-4.31-2.090-2.080-1.49-1.88-1.71 1.63-1.31 6.31-2.22 5.69-0.66 5.75-0.87 0.13-0.75-0.22-0.85c-3.084 0.121-6.004 0.617-8.781 1.444l0.251-0.064c-1.644 0.554-3.070 1.273-4.371 2.16l0.061-0.039c-2.483-2.117-4.595-4.571-6.294-7.308l-0.076-0.132c-2.29-4-2.32-10.4-1.91-12.46 0.347-1.833 0.998-3.465 1.905-4.92l-0.035 0.060z"></path>
<path fill="#1d1d1b" d="M10.73 27.86c0.26-0.23 1.19-0.22 1 0.34s-1.22 2.5-1 4 0.72 2.25 0.63 2.38c-0.19 0.132-0.408 0.246-0.639 0.333l-0.021 0.007c-0.593-0.891-0.947-1.986-0.947-3.164 0-0.097 0.002-0.194 0.007-0.29l-0.001 0.014c0.058-1.332 0.41-2.57 0.993-3.667l-0.023 0.047z"></path>
<path fill="#1d1d1b" d="M14.61 28.26c1.376-0.694 3.031-1.372 4.741-1.927l0.259-0.073c2.47-0.81 3.81-1.22 4-1s0.47 1.1 0.15 1.22c-2.165 0.157-4.171 0.671-6.016 1.485l0.116-0.046c-2.72 1.34-2.85 1.56-3.070 1.44s-0.37-0.97-0.18-1.1z"></path>
<path fill="#1d1d1b" d="M15.48 33.86c0.1-0.25 2.31-1 2.53-0.63s0.5 0.5 0.19 0.72c-0.73 0.422-1.582 0.727-2.49 0.865l-0.040 0.005c-0.22-0.15-0.25-0.82-0.19-0.96z"></path>
<path fill="#1d1d1b" d="M14 42.17c0.14-0.23 5.63-2.5 5.81-2.22s0.29 0.53 0.16 0.78c-1.492 0.827-3.284 1.658-5.137 2.368l-0.303 0.102c-0.24 0-0.64-0.88-0.53-1.030z"></path>
<path fill="#1d1d1b" d="M30.61 28.64c3.71-1.3 13.25-0.57 18.25 1s5.28 3.87 4.68 5.93-2.81 4.66-10.71 4.82-14 0.090-17.19-2.72-4.16-5.85 4.97-9.030z"></path>
<path fill="#696a9b" d="M33.11 29.45c3.81-1 4.72 1 9.81 1.31s7.94 1.24 8.75 2.24 1.33 3.7-2.34 4.76-8.57 1-14 0.85-8.13-1.35-9.41-3.070 0.080-4.22 7.19-6.090z"></path>
<path fill="#1d1d1b" d="M34.080 33.42c0.53-0.32 2.5 3 2.31 3.28-0.163 0.232-0.429 0.382-0.731 0.382-0.096 0-0.189-0.015-0.276-0.044l0.006 0.002c-0.25-0.15-2.35-2.81-2.1-3.12 0.216-0.218 0.481-0.389 0.775-0.495l0.015-0.005z"></path>
<path fill="#1d1d1b" d="M36.64 32.57c0.12-0.11 0.65-0.4 0.9-0.15s2.69 3.5 2.54 3.72-0.38 0.4-0.6 0.34-3.030-3.72-2.84-3.91z"></path>
<path fill="#1d1d1b" d="M41 32.29c0-0.15 0.69-0.28 0.84-0.18s2.5 2.75 2.35 3.060-0.56 0.47-0.72 0.37c-0.85-0.967-1.663-2.027-2.402-3.141l-0.068-0.109z"></path>
<path fill="#1d1d1b" d="M50 42.36s2.57 1.93 2.5 2.21-0.21 0.75-0.43 0.66-2.81-2.090-2.68-2.23c0.145-0.267 0.352-0.483 0.603-0.636l0.007-0.004z"></path>
<path fill="#1d1d1b" d="M51.23 41.14c0-0.13 0.31-0.63 0.56-0.63s2 1.19 1.94 1.44-0.090 0.59-0.34 0.59c-0.835-0.351-1.551-0.823-2.163-1.403l0.003 0.003z"></path>
<path fill="#1d1d1b" d="M53.83 38.73c0.050-0.11 0.84 0.060 0.84 0.31s0 0.72-0.13 0.72c-0.374-0.058-0.711-0.177-1.015-0.348l0.015 0.008c-0.12-0.13 0.25-0.63 0.29-0.69z"></path>
<path fill="#696a9b" d="M25.33 54c-0.19-0.13 4.71-2.060 10-2.72s13.22 0 13.19 0.28c-0.669 0.868-1.512 1.57-2.479 2.061l-0.041 0.019c-0.575 0.349-1.238 0.645-1.939 0.854l-0.061 0.016c-0.404-0.564-0.841-1.058-1.324-1.504l-0.006-0.006c-0.22 0-0.59 0-0.63 0.22s1.5 1.59 1.29 1.78c-0.47 0.259-1.037 0.522-1.622 0.747l-0.098 0.033s-1.78-2.69-2.22-2.65-0.75 0.21-0.69 0.37 2.3 2.5 2.090 2.64c-0.43 0.216-0.938 0.342-1.475 0.342-0.041 0-0.081-0.001-0.121-0.002l0.006 0c-0.523-0.872-1.091-1.628-1.729-2.319l0.009 0.009c-0.22 0-1.090 0.22-1 0.37s1.88 2.070 1.53 2.22c-0.776 0.119-1.67 0.187-2.581 0.187-1.574 0-3.1-0.203-4.554-0.585l0.125 0.028c-2.154-0.424-4.060-1.258-5.718-2.422l0.048 0.032z"></path>
</svg>
