<!-- Generated by IcoMoon.io -->
<svg version="1.1" xmlns="http://www.w3.org/2000/svg" width="64" height="64" viewBox="0 0 64 64">
<path fill="#1d1d1b" d="M29.050 6c6.52-1.18 10.29 0.21 15.080 2.67s7.71 4.83 11.63 11.54 2.87 15.79 1.12 22.11-4.21 9.83-9.54 12.45-11.34 5.3-21.42 2.34-14.66-8.17-17.92-13.38-2.78-13.73-1.24-19.96 7.37-15.040 22.29-17.77z"></path>
<path fill="#85bfe9" d="M12.34 17.27c-0.12-0.36 4-5.91 12-8.25s11.38-1.37 13.88-0.7 3.5 1.41 3.41 1.62-0.21 0.42-0.5 0.38-3.5-1.46-5.33-0.75-1.75 1.25-3.13 1.33-3.62 0.080-4.12 0.37-0.71 0.84-0.5 1.090 3.17 0 3.21 0.37 0.5 3.29 1.91 3.34 4.34-0.92 5.42-0.8 3.92 4.3 6 4.21 6.92-1.46 7.62-1.16 2.88 2.83 3.59 10.33-0.8 12.25-0.88 12.12-5-4.66-5.25-4.62-0.75 0.67-0.58 0.92 5.63 4.41 5.58 4.79-1.5 3.91-1.7 3.83-2.84-2.69-3.21-2.46-0.71 0.67-0.63 0.79 3.46 2.25 3.38 2.5c-0.255 0.429-0.516 0.798-0.802 1.145l0.012-0.015c-1.045-0.982-2.174-1.911-3.361-2.763l-0.099-0.067c-0.21 0.080-0.75 0.54-0.59 0.75s3.34 3 3.34 3-3.75-0.84-4.71-0.38-3.25 4.81-3.83 5.42-1.92 2-2.92 2.21-8.42 1.29-14.67-1.34-10.5-4.79-14.37-10.91-2.84-13-2.63-13.13 5.17-1.25 5.5-2 1-3 1.46-4.21 1.5-4.41 1.080-5.080-3.5-1.63-3.58-1.88z"></path>
<path fill="#1d1d1b" d="M16.88 17.15c-0.13-0.18 1.42-1.83 3-3s3.17-2.38 3.58-2 0.71 0.71 0.38 1c-1.636 0.592-3.023 1.534-4.123 2.742l-0.007 0.008c-1.54 2-1.62 2.37-1.87 2.33s-0.84-0.91-0.96-1.080z"></path>
<path fill="#cbe7f5" d="M32.92 12.23c0.18-0.35 1.46 0.42 2 0.17s1.25-1.29 2.2-1 3.25 0.79 3.88 0.5c0.343-0.143 0.625-0.373 0.826-0.664l0.004-0.006s0.54-0.79 0.79-0.75c2.054 0.916 3.825 2.017 5.422 3.323l-0.042-0.033c2.58 2 3.21 2.71 2.87 2.84-1.361 0.378-2.989 0.684-4.656 0.859l-0.134 0.011c-0.185 0.024-0.4 0.038-0.617 0.038-0.6 0-1.175-0.106-1.708-0.299l0.035 0.011c-0.5-0.21-3.33-3.62-4.92-3.67-0.141-0.008-0.305-0.013-0.47-0.013-0.976 0-1.914 0.158-2.792 0.45l0.062-0.018c-1.090 0.29-1.21 0.75-1.71 0.42s-1.2-1.83-1.040-2.17z"></path>
<path fill="#cbe7f5" d="M11.38 19c0.16-0.14 2.79 1.050 2.75 1.38-0.713 2.877-1.44 5.213-2.279 7.494l0.159-0.494c-0.25 0.16-4.59 1.37-4.5 1.12s1.41-7.23 3.87-9.5z"></path>
<path fill="#1d1d1b" d="M13.34 34.27c1.657-1.264 3.757-2.026 6.034-2.026 0.252 0 0.502 0.009 0.749 0.028l-0.033-0.002c3.13 0.46 3.83 1.3 5 0.75s2.79-2.7 4-2.79 3.42 0.29 5.88 0.38 5.83 0 6.2 0.37c0.288 0.488 0.458 1.075 0.458 1.702 0 0.316-0.043 0.622-0.124 0.912l0.006-0.024c-0.29 0.66-2 1.66-2.17 2.2s-0.12 1.38 0.25 1.38 2.54-1 3.38-0.79 2.12 1.54 3.33 1.75 2.080-0.21 2.37 0.25-0.080 2.25-0.29 2.87c-0.288 1.019-0.962 1.846-1.85 2.33l-0.020 0.010c-1.090 0.41-4 0.79-4.29 1.12-0.319 0.37-0.574 0.805-0.741 1.282l-0.009 0.028c-0.21 0.46-1 2-2.21 2.29-0.666 0.174-1.431 0.274-2.22 0.274-0.232 0-0.463-0.009-0.691-0.026l0.030 0.002c-1.172-0.224-2.179-0.497-3.154-0.837l0.154 0.047s-2.38-2.93-3.040-3.14-3.46-0.090-4.42-1.13-1.62-5.58-2.58-5.79c-0.391-0.047-0.843-0.075-1.301-0.075-0.958 0-1.888 0.118-2.777 0.341l0.078-0.017c-0.358 0.057-0.771 0.090-1.191 0.090-1.119 0-2.185-0.232-3.151-0.65l0.051 0.020c-1.29-0.5-1.54-0.54-1.63-0.92s-0.42-1.75-0.080-2.21z"></path>
<path fill="#cbe7f5" d="M15.59 34.73c0.18-0.61 2.13-1.37 4.5-0.87s3.33 1.75 5.33 1.16 2.84-2.62 4.25-2.75 5.67 0.55 6.92 0.59 2.71-0.34 2.79 0-1.080 1.14-1.38 1.87-0.67 2.59-0.3 3.17c0.335 0.519 0.866 0.886 1.486 0.998l0.014 0.002c0.38 0 2.63-0.84 3.34-0.5 0.74 0.453 1.602 0.886 2.501 1.248l0.119 0.042c1.25 0.42 2 0.080 2 0.54-0.213 0.779-0.653 1.436-1.243 1.915l-0.007 0.005c-0.54 0.33-4.71 0.41-5 0.87s-1 3.38-2.080 3.5-3 0.25-3.5-0.12-2.71-3.42-3.13-3.42-4.66-0.17-4.75-0.87c-0.448-2.134-1.052-4.003-1.824-5.782l0.074 0.192c-1.067-0.509-2.319-0.806-3.641-0.806-0.183 0-0.364 0.006-0.544 0.017l0.025-0.001c-0.986 0.189-2.121 0.297-3.28 0.297-0.183 0-0.365-0.003-0.546-0.008l0.027 0.001c-1.86-0.12-2.27-0.87-2.15-1.29z"></path>
<path fill="#1d1d1b" d="M15 41.57c0.23-0.18 2.87-0.21 2.91 0.16s0.25 0.75 0 0.88c-0.473 0.106-1.016 0.167-1.573 0.167-0.401 0-0.795-0.032-1.18-0.092l0.043 0.005c-0.28-0.21-0.36-1-0.2-1.12z"></path>
<path fill="#1d1d1b" d="M18.51 49c-0.17-0.16 0.79-0.75 1.62-0.58 0.487 0.167 1.048 0.263 1.631 0.263 0.13 0 0.258-0.005 0.386-0.014l-0.017 0.001c1-0.080 2.13-0.38 2.25-0.13s0.38 0.84 0.090 0.92c-0.548 0.105-1.178 0.166-1.822 0.166-0.299 0-0.594-0.013-0.886-0.038l0.038 0.003c-0.362-0.1-0.777-0.158-1.206-0.158-0.281 0-0.556 0.025-0.823 0.072l0.028-0.004c-0.42 0.17-0.5 0.59-0.83 0.34s-0.3-0.69-0.46-0.84z"></path>
<path fill="#1d1d1b" d="M32.13 52.11c0.52-0.229 1.127-0.362 1.765-0.362 0.157 0 0.312 0.008 0.465 0.024l-0.019-0.002c0.13 0.17 0.38 0.71 0.080 0.92s-1.41 0.79-1.83 0.54c-0.291-0.203-0.479-0.536-0.479-0.913 0-0.073 0.007-0.144 0.020-0.214l-0.001 0.007z"></path>
<path fill="#cbe7f5" d="M45.59 53.65c-0.33 0.080-1.33-0.42-1.080-0.63s2.29-3.29 2.75-3.33 3.41 0.33 3.25 0.63c-0.804 0.657-1.705 1.264-2.658 1.784l-0.092 0.046c-0.92 0.54-2.17 1.5-2.17 1.5z"></path>
<path fill="#1d1d1b" d="M20.51 25.4c0.14-0.090 1.41 0.5 2.21 0.42s1.25-0.42 1.29 0 0.080 0.7-0.090 0.79c-0.478 0.116-1.027 0.183-1.591 0.183-0.2 0-0.399-0.008-0.595-0.025l0.026 0.002c-0.521-0.004-1.010-0.141-1.435-0.378l0.015 0.008c-0.080-0.13-0.040-0.88 0.17-1z"></path>
<path fill="#1d1d1b" d="M40.38 26.94c0 0.17 1.88 0 1.92 0.33s0.080 0.59-0.33 0.67c-0.228 0.048-0.489 0.075-0.758 0.075-0.386 0-0.758-0.057-1.11-0.162l0.027 0.007c-0.25-0.21 0.25-0.96 0.25-0.92z"></path>
<path fill="#1d1d1b" d="M51.050 22.9c0.27-0.2 3.12 2.17 3.17 2.46s0.2 0.66-0.17 0.66c-1.321-0.564-2.46-1.235-3.499-2.029l0.039 0.029c0.031-0.431 0.2-0.819 0.462-1.122l-0.002 0.002z"></path>
<path fill="#1d1d1b" d="M50.22 26.44s4.37 3.42 4.29 3.79-0.090 0.63-0.34 0.5-4.25-3.21-4.29-3.33c0.063-0.36 0.182-0.683 0.348-0.975l-0.008 0.015z"></path>
<path fill="#1d1d1b" d="M50 30.11c0.12 0 4.62 3.29 4.66 3.71s0.13 0.91-0.080 0.87c-1.788-1.136-3.311-2.233-4.769-3.407l0.099 0.077c-0.063-0.157-0.1-0.34-0.1-0.53 0-0.265 0.070-0.513 0.194-0.727l-0.004 0.007z"></path>
<path fill="#1d1d1b" d="M50 33.48c0.14-0.22 4.5 3.5 4.5 3.79s0.58 1-0.13 0.67c-1.69-1.085-3.161-2.238-4.515-3.514l0.015 0.014c-0.012-0.078-0.020-0.167-0.020-0.259 0-0.254 0.055-0.495 0.154-0.712l-0.004 0.011z"></path>
<path fill="#1d1d1b" d="M27.34 19.9c0.060-0.11 3.46 0.25 3.5-0.25 0.050-0.84 0.259-1.621 0.596-2.328l-0.016 0.038c1.075-0.174 2.315-0.273 3.577-0.273 0.606 0 1.207 0.023 1.802 0.068l-0.079-0.005c2.080 0.17 3.66 0.75 3.79 1.17s-0.46 1.080 0.25 1.41 2.66 0.75 2.75 1.25-1 3.54-1.46 3.59c-0.426-0.082-0.916-0.129-1.418-0.129-0.697 0-1.373 0.091-2.017 0.261l0.055-0.012c-1.58 0.54-4.5 1-5.12 0.13s-2-3.34-2.33-3.3-2.84 1-3.17 0.67c-0.415-0.651-0.675-1.437-0.71-2.281l-0-0.009z"></path>
<path fill="#cbe7f5" d="M33.34 19.070c0.27-0.14 5.17-0.050 5.29 0.25s0.75 1.5 1.17 1.7 2 0.42 2 0.75 0.080 0.8-0.21 0.84l-4.79 0.54c-1.17 0.12-1.54 0.58-2 0.080s-1.21-2.71-1.63-2.91c-0.273-0.094-0.471-0.336-0.5-0.627l-0-0.003c-0.040-0.25 0.42-0.5 0.67-0.62z"></path>
</svg>
