<!-- Generated by IcoMoon.io -->
<svg version="1.1" xmlns="http://www.w3.org/2000/svg" width="64" height="64" viewBox="0 0 64 64">
<path fill="#1d1d1b" d="M8.92 22.87s-0.16-2.21 1.42-2.59c0.976-0.185 2.098-0.291 3.245-0.291 0.223 0 0.446 0.004 0.667 0.012l-0.032-0.001c0.812-3.835 2.936-7.075 5.871-9.302l0.039-0.028c3.503-2.894 8.039-4.649 12.985-4.649 1.543 0 3.046 0.171 4.491 0.495l-0.136-0.026c6.53 1.21 10.91 8.13 11.37 9.42s1.16 4.37 1.16 4.37 3.12 0 3.71 0.88c0.343 0.522 0.57 1.149 0.629 1.825l0.001 0.015s3 0.38 3.42 1.080 0.54 11.3 0.25 12-2.5 1.5-2.71 1.5-0.83 0-0.83 0-0.25 1.54-1 2-5.12 0.62-5.12 0.62c0.002 0.077 0.004 0.169 0.004 0.26 0 1.76-0.516 3.399-1.405 4.775l0.021-0.035c-1.54 2.17-7.41 10.3-9.79 11.75s-7.33 0.71-8.29 0.42-7.37-6.62-9.29-8.62c-1.386-1.376-2.479-3.044-3.179-4.905l-0.031-0.094c-0.080-0.63-0.29-2.71-0.29-2.71s-2.75 0.17-4.080 0.080c-1.092-0.048-2.078-0.464-2.846-1.125l0.006 0.005c-0.188-1.038-0.307-2.246-0.33-3.478l-0-0.022s-2.25 0.080-2.58-1-0.55-11.18-0.27-11.63c0.527-0.662 1.332-1.083 2.236-1.083 0.243 0 0.478 0.030 0.703 0.087l-0.020-0.004z"></path>
<path fill="#a42116" d="M7.84 24.66c0.16-0.35 1.080-0.21 1.13 0s-0.050 10.34-0.21 10.34-0.75 0.21-0.92-0.080c-0.091-1.533-0.143-3.325-0.143-5.13s0.052-3.597 0.154-5.376l-0.011 0.246z"></path>
<path fill="#a42116" d="M11.22 22c0.323-0.185 0.71-0.294 1.123-0.294 0.316 0 0.618 0.064 0.892 0.18l-0.015-0.006c0.756 0.131 1.43 0.408 2.019 0.802l-0.019-0.012c0.33 0.37 1 0.67 1 0.54-0.005-0.682-0.067-1.346-0.18-1.991l0.010 0.072c-0.076-0.285-0.189-0.535-0.336-0.76l0.006 0.010s2.28-6.54 7.37-9.54c2.903-1.725 6.401-2.745 10.136-2.745 2.092 0 4.109 0.32 6.006 0.913l-0.142-0.038c5.080 1.5 8.71 9 9.21 10.66s0.37 4.55 0.58 4.67c0.356 0.084 0.766 0.132 1.186 0.132 0.051 0 0.101-0.001 0.151-0.002l-0.007 0c0.014-0.926 0.090-1.822 0.224-2.699l-0.014 0.109c0.13 0 2.25 0.25 2.42 1.67s-0.080 9.21-0.080 9.21l-1.63-1s-0.25 1.080 0 1.21 1.25 0.58 1.29 0.75 0 1.25 0 1.25-2-1.34-2.080-1.21-0.42 0.62-0.21 0.83 2.25 1.84 2.29 2.21c0.017 0.138 0.027 0.298 0.027 0.46s-0.010 0.322-0.029 0.479l0.002-0.019c-0.749-0.713-1.565-1.37-2.434-1.958l-0.066-0.042c-0.29 0-0.41 0.46-0.33 0.66s1.58 1.55 1.42 1.67c-0.594 0.085-1.279 0.134-1.976 0.134-0.114 0-0.227-0.001-0.34-0.004l0.017 0s-0.37-11.75-0.58-11.88c-0.155-0.011-0.336-0.018-0.518-0.018-0.525 0-1.037 0.054-1.531 0.156l0.049-0.008c-0.036 0.002-0.078 0.004-0.12 0.004-0.163 0-0.322-0.020-0.474-0.056l0.014 0.003s-3.080-2.95-3.38-2.83c-0.226 0.111-0.379 0.339-0.379 0.603 0 0.038 0.003 0.075 0.009 0.111l-0.001-0.004c0.080 0.17 2.67 2.42 2.67 2.42l-1 0.080c-0.691-0.631-1.437-1.248-2.213-1.825l-0.077-0.055c-0.201 0.041-0.36 0.186-0.419 0.376l-0.001 0.004c0 0.12 1.87 1.5 1.58 1.5-0.089 0.004-0.194 0.006-0.299 0.006-1.76 0-3.373-0.634-4.622-1.685l0.011 0.009c-2.55-1.91-3-2.16-3.25-2.87s-0.55-1-0.92-1.13c-0.055-0.008-0.119-0.013-0.184-0.013-0.618 0-1.136 0.428-1.274 1.004l-0.002 0.009c-0.33 0.88-2.37 2.83-6 4.5-2.261 1.019-4.89 1.677-7.654 1.828l-0.056 0.002c-0.016 0-0.035 0-0.053 0-0.468 0-0.921-0.058-1.355-0.168l0.038 0.008s0.16-2-0.090-2.13-0.75 0.090-0.75 0.21 0.46 11.71 0.13 12.42-2.5 0.79-3.46 0.83c-0.046 0.005-0.1 0.007-0.154 0.007-0.594 0-1.112-0.321-1.392-0.8l-0.004-0.008c-0.080-0.21-0.62-16.17 0.22-16.91z"></path>
<path fill="#1d1d1b" d="M12.76 23.82c0.14-0.090 0.54 0.090 0.54 0.38s0.12 5.75-0.17 5.92-0.58 0.12-0.62-0.050 0-6.070 0.25-6.25z"></path>
<path fill="#1d1d1b" d="M12.59 32.24c0.13 0 0.46-0.17 0.46 0s0 5.54 0 5.67-0.33 0.21-0.42 0-0.040-5.67-0.040-5.67z"></path>
<path fill="#1d1d1b" d="M14.13 29.7c0-0.12 0.59-0.25 0.63 0s0.12 7.75 0 7.75-0.42 0-0.5-0.17-0.17-7.37-0.13-7.58z"></path>
<path fill="#1d1d1b" d="M18.92 18.74c-0.13-0.18 0.5-1.67 1.84-3.29s2.080-2.63 2.54-2.54 0.75 0.12 0.58 0.29-2.29 2.67-2.83 3.5-0.83 2.12-1 2.25c-0.098 0.024-0.21 0.038-0.326 0.038-0.3 0-0.579-0.093-0.809-0.251l0.005 0.003z"></path>
<path fill="#1d1d1b" d="M43.51 22.28c1.247 0.876 2.328 1.865 3.27 2.975l0.020 0.025c0 0.21-0.33 0.63-0.46 0.54s-3.12-2.58-3.25-2.75 0.17-0.7 0.42-0.79z"></path>
<path fill="#1d1d1b" d="M44.050 21.28s0.12-0.54 0.46-0.5c1.222 0.896 2.278 1.914 3.184 3.056l0.026 0.034c-0.030 0.155-0.075 0.292-0.135 0.421l0.005-0.011s-3.29-2.75-3.54-3z"></path>
<path fill="#1d1d1b" d="M44.8 19.7c-0.11-0.070 0.33-0.71 0.54-0.67 0.98 0.765 1.83 1.63 2.555 2.595l0.025 0.035c0 0.25-0.12 0.62-0.25 0.58s-2.67-2.42-2.87-2.54z"></path>
<path fill="#1d1d1b" d="M45.38 17.82s0.13-0.54 0.29-0.54c0.375 0.108 0.669 0.385 0.797 0.742l0.003 0.008c0 0.38 0 0.71-0.13 0.67s-0.79-0.83-0.96-0.88z"></path>
<path fill="#1d1d1b" d="M50.84 26c0.039-0.029 0.088-0.046 0.141-0.046 0.124 0 0.226 0.094 0.239 0.215l0 0.001c0.069 0.531 0.108 1.146 0.108 1.77s-0.039 1.239-0.116 1.842l0.007-0.072c-0.25 0.33-0.5 0.29-0.58 0-0.014-0.265-0.022-0.575-0.022-0.886 0-0.997 0.081-1.975 0.236-2.928l-0.014 0.104z"></path>
<path fill="#a42116" d="M55 25c0.14-0.21 1 0.33 1 0.33s0.21 9.5 0 9.75-1.62 1.13-1.62 0.79 0.42-10.63 0.62-10.87z"></path>
<path fill="#ffe19b" d="M18.26 30.28c0-0.26 5.54-0.33 7.75-1.54s6.75-4.29 6.75-4.29 4 3 5.33 3.71c1.555 0.528 3.346 0.835 5.207 0.84h0.003c0.71 0 3-0.16 3-0.16s0.38 13.16-0.21 14.2-9.71 12-10.37 12.38-5.42 0.21-5.79 0-8.92-8-10-9.46c-0.642-0.73-1.164-1.586-1.521-2.523l-0.019-0.057c-0.050-0.18-0.17-12.68-0.13-13.1z"></path>
<path fill="#1d1d1b" d="M25.42 31.57c0.181-0.049 0.39-0.077 0.605-0.077 1.215 0 2.222 0.896 2.394 2.063l0.002 0.013c0.004 0.054 0.006 0.116 0.006 0.179 0 1.364-1.106 2.47-2.47 2.47-0.439 0-0.852-0.115-1.209-0.316l0.012 0.006c-0.697-0.421-1.156-1.175-1.156-2.036 0-1.112 0.766-2.046 1.8-2.301l0.016-0.003z"></path>
<path fill="#85bfe9" d="M25.69 32.66c0.091-0.023 0.195-0.036 0.302-0.036 0.64 0 1.17 0.474 1.257 1.090l0.001 0.007c0.004 0.041 0.007 0.088 0.007 0.135 0 0.724-0.587 1.31-1.31 1.31-0.234 0-0.453-0.061-0.644-0.169l0.007 0.003c-0.4-0.214-0.668-0.629-0.668-1.106 0-0.619 0.45-1.133 1.041-1.233l0.007-0.001z"></path>
<path fill="#1d1d1b" d="M38.22 31.7c0.186-0.052 0.4-0.082 0.621-0.082 1.213 0 2.216 0.9 2.377 2.069l0.001 0.013c0.004 0.050 0.006 0.108 0.006 0.167 0 1.364-1.106 2.47-2.47 2.47-0.459 0-0.889-0.125-1.257-0.343l0.011 0.006c-0.672-0.424-1.111-1.162-1.111-2.002 0-1.112 0.769-2.045 1.805-2.294l0.016-0.003z"></path>
<path fill="#85bfe9" d="M38.48 32.79c0.080-0.018 0.171-0.028 0.265-0.028 0.634 0 1.159 0.464 1.254 1.071l0.001 0.007c0.002 0.028 0.003 0.060 0.003 0.093 0 0.724-0.587 1.31-1.31 1.31-0.232 0-0.451-0.060-0.64-0.167l0.007 0.003c-0.358-0.224-0.592-0.616-0.592-1.063 0-0.606 0.431-1.112 1.004-1.226l0.008-0.001z"></path>
<path fill="#1d1d1b" d="M26.8 44.050c0.43-0.1 2.27 2 6.56 1.45 1.811-0.152 3.485-0.554 5.050-1.172l-0.12 0.042c0.416 0.077 0.739 0.402 0.809 0.814l0.001 0.006c0 0.19-2.76 1.59-7 1.53-4.48-0.060-5.82-1.63-6-1.87s0.27-0.71 0.7-0.8z"></path>
</svg>
