<!-- Generated by IcoMoon.io -->
<svg version="1.1" xmlns="http://www.w3.org/2000/svg" width="64" height="64" viewBox="0 0 64 64">
<path fill="#1d1d1b" d="M9.86 27.93c-1.759-1.95-3.262-4.179-4.427-6.602l-0.073-0.168c-1.9-4.050-1.92-6.3-1.5-6.46s6.52 0.11 9.3 0.13 4 0 4-0.16-0.41-4.6-0.76-7-0.69-4-0.49-4.060c3.114 0.234 6 0.947 8.672 2.068l-0.182-0.068c5 1.83 6 3.61 6 3.61 2.662-2.059 5.71-3.816 8.984-5.129l0.256-0.091c4.85-1.7 6.76-1.46 6.93-1.17s-2.28 11.39-1.86 11.51c2.364-0.028 4.627-0.425 6.745-1.135l-0.155 0.045c2.73-0.89 7-3 7.45-3s0.82 3.52-1.060 7.85-2.33 4.92-2.16 5c1.591-0.405 2.943-0.87 4.244-1.43l-0.184 0.070c1.41-0.59 2.15-0.68 2.32-0.18 0.070 0.552 0.11 1.191 0.11 1.839 0 3.243-1.002 6.251-2.714 8.733l0.034-0.052c-3.21 4.26-4.62 4.48-4.74 4.65s0 1.070 3.090 1.71 4.65 0.59 4.61 1.26c-0.719 3.147-2.644 5.751-5.25 7.351l-0.050 0.029c-4.090 2.44-4.34 2.44-4.25 2.77s0.14 7 0 7.51-1.53 1.39-3.73 1c-2.163-0.411-4.090-1.073-5.879-1.968l0.129 0.058c-0.453-0.306-0.849-0.635-1.209-0.999l-0.001-0.001s-3.68 1.94-4.55 2.28c-0.464 0.188-1.006 0.338-1.569 0.425l-0.041 0.005s0 2.82-0.11 3c-0.163 0.151-0.383 0.244-0.624 0.244-0.088 0-0.173-0.012-0.253-0.035l0.007 0.002c-0.236-0.040-0.508-0.064-0.785-0.064s-0.549 0.023-0.814 0.068l0.029-0.004c-0.15 0.039-0.322 0.061-0.5 0.061s-0.35-0.022-0.514-0.064l0.014 0.003c-0.237-0.022-0.512-0.034-0.79-0.034s-0.553 0.012-0.825 0.036l0.035-0.002c-0.46 0-1.58 0-1.66-0.28s-0.23-2.7-0.23-2.7c-1.673-0.127-3.216-0.56-4.615-1.243l0.075 0.033c-0.91-0.496-1.683-1.117-2.332-1.851l-0.008-0.009c-1.286 1.265-2.937 2.163-4.781 2.52l-0.059 0.010c-2.65 0.31-4.070 0-4-0.22s2.11-6.82 1.61-6.78-9.17 0.41-9.88 0.41-1.5-0.81-1.21-1.44 4-6.76 5.41-8.18 2.19-2.3 2.19-2.3c-1.605-0.696-3.471-1.231-5.418-1.515l-0.122-0.015c-2.74-0.31-4.16-1.22-4-1.55 1.228-2.051 2.674-3.812 4.342-5.334l0.018-0.016c1.98-1.63 3.76-2.98 3.76-2.98z"></path>
<path fill="#85bfe9" d="M5.86 16.34c0.3-0.3 13.5 0.060 13.54-0.19s-1.88-11.15-1.5-11.15c3.449 1.023 6.433 2.284 9.238 3.83l-0.238-0.12c2.63 1.68 2.76 2.3 3.47 2.26s4-3.19 8.43-4.88 5.92-1.8 5.92-1.63-1.44 7.31-1.72 8.64-0.44 2.74-0.15 2.82c0.239 0.007 0.52 0.011 0.802 0.011 2.654 0 5.222-0.369 7.655-1.059l-0.197 0.048c3.93-1.11 6.74-2.66 6.79-2.37-1.066 3.518-2.299 6.526-3.775 9.389l0.145-0.309c-1.19 1.83-1.67 3.41-1.42 3.54s1.66-0.31 4.35-1.12 3-0.94 3-0.81c0.002 0.075 0.002 0.164 0.002 0.253 0 2.749-0.822 5.305-2.234 7.437l0.031-0.050c-1.643 2.203-3.471 4.124-5.505 5.805l-0.055 0.045c0.296 1.123 1.019 2.041 1.979 2.589l0.021 0.011c1.17 0.53 5.7 1.2 5.66 1.45-1.101 2.556-2.942 4.619-5.25 5.968l-0.060 0.032c-3.51 1.81-3.93 2-4 2.32s0.18 7.26-0.11 7.3c-1.844-0.15-3.546-0.473-5.179-0.955l0.179 0.045c-1.41-0.49-2-0.94-2-1.060 1.076-1.308 2.021-2.79 2.775-4.38l0.055-0.13c0.373-0.87 0.656-1.882 0.803-2.937l0.007-0.063s4.57 0.22 5-3-1.89-3.81-2.55-3.92c-0.397-0.094-0.854-0.152-1.324-0.16l-0.006-0s1.16-10.3-2.33-16-7.21-8.71-14.76-8.4-11.59 4.29-13.44 12-1.36 12.14-1.36 12.14-3.69 0.15-3.58 4.72 4.93 3.65 4.93 3.65c-0.001 0.042-0.001 0.091-0.001 0.141 0 1.399 0.411 2.703 1.118 3.797l-0.017-0.027c1.22 1.86 1.77 2.56 1.77 2.56s-4.88 1.86-4.92 1.58 1.25-4.54 1.080-5-1-1.36-1.3-1.36-9.71 0.41-9.8 0 2.090-3.76 4.27-6.51 3.25-3.81 3.21-4.18-1.51-2.11-4.72-2.58-4.48-0.42-4.4-0.54c1.591-2.038 3.348-3.824 5.288-5.392l0.062-0.048c1.007-0.551 1.847-1.283 2.506-2.16l0.014-0.020c-1.637-1.824-3.11-3.858-4.359-6.037l-0.091-0.173c-1.77-3.33-1.87-5.53-1.75-5.66z"></path>
<path fill="#1d1d1b" d="M20.53 12c-0.309-1.209-0.6-2.742-0.806-4.302l-0.024-0.218c1.416 0.391 2.634 0.861 3.793 1.435l-0.123-0.055c0 0.17 0 0.88-0.12 0.88-0.597-0.173-1.328-0.327-2.075-0.43l-0.085-0.010c0 0.12 0.34 2 0.3 2.070s-0.78 0.74-0.86 0.63z"></path>
<path fill="#1d1d1b" d="M36 9.5c0.947-0.811 2.018-1.524 3.169-2.099l0.091-0.041c1.2-0.43 1-0.63 1.2-0.43s0.47 0.87 0.34 1c-1.168 0.402-2.159 0.844-3.103 1.361l0.103-0.052c-0.95 0.63-1 1-1.23 0.92s-0.45-0.49-0.57-0.66z"></path>
<path fill="#e6e4da" d="M16.48 41.42c0.359 1.422 0.609 3.082 0.697 4.785l0.003 0.065c-0.12 0-2.36-0.27-2.38-1.89 0.056-1.237 0.704-2.311 1.666-2.951l0.014-0.009z"></path>
<path fill="#e6e4da" d="M48.49 41.46c0.13-0.14 2.37 0 2 1.93s-2.79 2.61-2.84 2.35c0.216-0.957 0.44-1.737 0.7-2.499l-0.050 0.169c0.28-1.17-0.060-1.7 0.19-1.95z"></path>
<path fill="#e6e4da" d="M31.2 17.22c4 0 8.84 0.22 12.63 6.83s3.37 11.85 2.34 17.76-2.67 9.44-3.69 10.57c-0.398 0.473-0.817 0.898-1.266 1.288l-0.014 0.012c-0.718-0.574-1.523-1.105-2.376-1.559l-0.084-0.041c-0.21 0.080-0.5 0.38-0.41 0.54s2 1.52 1.92 1.65-1.16 0.88-1.28 0.75c-0.733-0.635-1.538-1.255-2.378-1.83l-0.092-0.060c-0.16 0-0.66 0.38-0.57 0.55s2.37 1.64 2.13 1.81-1.57 0.76-1.74 0.63-1.93-1.93-2.090-1.93-0.62 0.25-0.5 0.46 1.43 1.77 1.43 1.77c-1.109 0.141-2.392 0.222-3.694 0.222-1.569 0-3.11-0.117-4.616-0.343l0.17 0.021c-3.7-0.68-6.31-4.76-7.5-9.11s-1.19-13.61 0.1-18.73 3.56-11.2 11.58-11.26z"></path>
<path fill="#e6e4da" d="M30.23 58.37c0.12-0.12 1.25 0.080 2.37 0s1.66-0.060 1.66 0.060 0.14 1.83 0 1.87c-0.262 0.085-0.563 0.134-0.876 0.134-0.232 0-0.457-0.027-0.674-0.078l0.020 0.004c-0.385-0.205-0.842-0.325-1.327-0.325-0.061 0-0.121 0.002-0.181 0.006l0.008-0c-0.41 0.080-0.66 0.38-0.79 0.21-0.136-0.493-0.214-1.059-0.214-1.643 0-0.083 0.002-0.167 0.005-0.249l-0 0.012z"></path>
<path fill="#1d1d1b" d="M22.94 23.31c0.33-0.12 3-1.73 9.41-1.7s10.060 1.75 10.15 2.25 0 2.45-0.35 2.45-2.34-1.39-9.69-1.31-9.46 1.83-9.87 1.55-0.85-2.82 0.35-3.24z"></path>
<path fill="#85bfe9" d="M23.36 24c0.25-0.52 3.27-1.69 9.33-1.41s8.9 1.3 8.9 1.64 0.21 0.87 0 0.87c-2.386-0.715-5.127-1.126-7.965-1.126-0.427 0-0.853 0.009-1.275 0.028l0.060-0.002c-3.209 0.128-6.25 0.583-9.171 1.336l0.301-0.066c-0.34-0.1-0.26-1.14-0.18-1.27z"></path>
<path fill="#1d1d1b" d="M35.14 28c2.79-1.14 8-0.31 7.81 5.38s-7.13 6.49-9.48 3.31-1.23-7.52 1.67-8.69z"></path>
<path fill="#fff" d="M35.58 28.89c2.28-0.94 6.54-0.26 6.41 4.41s-5.86 5.33-7.79 2.7-1-6.14 1.38-7.11z"></path>
<path fill="#1d1d1b" d="M23.74 27.85c2.57-1.050 7.35-0.29 7.2 4.95s-6.57 6-8.74 3.060-1.13-6.92 1.54-8.010z"></path>
<path fill="#fff" d="M24.15 28.68c2.1-0.86 6-0.24 5.9 4.070s-5.39 4.91-7.17 2.51-0.88-5.68 1.27-6.58z"></path>
<path fill="#1d1d1b" d="M25.51 31.85c0.134-0.065 0.292-0.104 0.459-0.104 0.591 0 1.070 0.479 1.070 1.070s-0.479 1.070-1.070 1.070c-0.307 0-0.583-0.129-0.779-0.336l-0-0.001c-0.162-0.193-0.261-0.444-0.261-0.718 0-0.421 0.232-0.787 0.575-0.979l0.006-0.003z"></path>
<path fill="#1d1d1b" d="M37.27 32.29c0.133-0.063 0.288-0.1 0.452-0.1 0.591 0 1.070 0.479 1.070 1.070s-0.479 1.070-1.070 1.070c-0.308 0-0.586-0.13-0.782-0.339l-0.001-0.001c-0.16-0.192-0.258-0.442-0.258-0.715 0-0.423 0.235-0.792 0.582-0.982l0.006-0.003z"></path>
<path fill="#1d1d1b" d="M21.92 37.74c0.809 0.705 1.841 1.174 2.977 1.288l0.023 0.002c0.195 0.015 0.423 0.024 0.652 0.024 0.864 0 1.7-0.122 2.491-0.349l-0.064 0.016c0.2 0.050 0.21 0.65 0.2 0.81-0.747 0.32-1.616 0.506-2.529 0.506-0.435 0-0.861-0.042-1.272-0.123l0.042 0.007c-1.179-0.14-2.215-0.664-3-1.44l0 0c-0.090-0.17 0.36-0.74 0.48-0.74z"></path>
<path fill="#1d1d1b" d="M36.72 39.58c0.489 0.161 1.051 0.254 1.635 0.254s1.146-0.093 1.673-0.264l-0.038 0.011c1.032-0.348 1.926-0.848 2.706-1.482l-0.016 0.012c0.21 0 0.45 0.52 0.5 0.67-0.878 0.894-2.009 1.537-3.277 1.812l-0.043 0.008c-0.407 0.116-0.875 0.183-1.359 0.183-0.692 0-1.353-0.137-1.955-0.386l0.034 0.012c-0.17-0.080 0.020-0.79 0.14-0.83z"></path>
<path fill="#1d1d1b" d="M29.78 39.79c0-0.13 0.73-0.3 0.78-0.1s-0.13 6.38 1.57 6.34 1.14-6.36 1.3-6.45c0.119-0.023 0.255-0.037 0.395-0.037s0.276 0.013 0.408 0.039l-0.013-0.002s1 7.59-2 7.55-2.43-7.26-2.44-7.34z"></path>
<path fill="#1d1d1b" d="M22.15 49.3c-0.005-0.088-0.008-0.19-0.008-0.294 0-0.515 0.072-1.013 0.207-1.484l-0.009 0.038c0.25-0.55 1-1.17 1.16-1.13s0.5 0.45 0.37 0.62-0.86 0.58-0.9 1.080 0 1.37-0.11 1.42c-0.269-0.004-0.516-0.097-0.713-0.252l0.003 0.002z"></path>
<path fill="#1d1d1b" d="M39.070 46.51s0.53-0.63 0.7-0.63c0.684 0.278 1.218 0.808 1.493 1.472l0.007 0.018c0.38 1 0.39 1.94 0.1 2s-0.79 0.13-0.79 0 0.41-1.24 0-1.91c-0.4-0.436-0.91-0.765-1.486-0.944l-0.024-0.006z"></path>
<path fill="#1d1d1b" d="M24.38 48.58c0.21 0.060 2.22 1.43 6.91 1.27 2.836-0.158 5.493-0.713 7.985-1.611l-0.195 0.061c0.108 0.231 0.17 0.502 0.17 0.787 0 0.015-0 0.030-0.001 0.046l0-0.002c0 0.16-3.35 1.85-8.12 1.76s-6.94-1.23-7-1.4 0.13-0.95 0.25-0.91z"></path>
</svg>
