<!-- Generated by IcoMoon.io -->
<svg version="1.1" xmlns="http://www.w3.org/2000/svg" width="64" height="64" viewBox="0 0 64 64">
<path fill="#1d1d1b" d="M16.2 19.62s-4.46-5.17-4.59-5.080c-0.683 0.481-1.495 0.831-2.372 0.994l-0.038 0.006c-1.128-0.255-1.983-1.18-2.129-2.326l-0.001-0.014c-0.37-1.66-2.21-8.75-1.29-9.75s10.46 2.8 11.42 3.75 0 2.75 0 2.75l4.41 5s1.17-0.79 1.67-0.54c0.864 0.729 1.642 1.494 2.358 2.315l0.022 0.025s7.2-5.67 14.12-8.34 12.54-3.5 16.62 1.29 1.3 11.84-0.91 16.3-7.49 9.16-7.49 9.16 8.37 4.75 8.87 6c0.196 0.405 0.31 0.881 0.31 1.383 0 0.774-0.272 1.485-0.725 2.043l0.005-0.006c-0.8 1-1.67 1.88-1.67 1.88s3.37 3 3.33 3.91-3.29 3.84-6.83 6.84-5.46 3.83-6.13 3.33c-0.914-1.101-1.767-2.327-2.513-3.623l-0.067-0.127s-2.54 1.46-4.5 0.25-4.75-9.71-4.75-9.71c-2.585 2.394-5.704 4.251-9.155 5.371l-0.175 0.049c-6.090 2-12 2.12-15.92-2s-0.8-12.46 1.57-16.38 8.090-10.21 8.090-10.21c-0.652-0.795-1.286-1.679-1.859-2.605l-0.061-0.105c-0.043-0.159-0.068-0.342-0.068-0.53 0-0.492 0.169-0.945 0.451-1.304l-0.003 0.005z"></path>
<path fill="#ffe19b" d="M9.070 13.45c-0.17-0.37-2.33-8.7-2-8.83s8.67 3.38 8.54 3.83-1.12 1.75-3.25 3.3c-0.919 0.772-2.021 1.359-3.23 1.686l-0.060 0.014z"></path>
<path fill="#1d1d1b" d="M8.61 6.91c0-0.21 0.54-0.21 0.63 0 0.309 0.872 0.573 1.912 0.746 2.984l0.014 0.106c-0.13 0.17-0.46 0.42-0.67 0.17-0.299-0.921-0.55-2.022-0.708-3.154l-0.012-0.106z"></path>
<path fill="#fab900" d="M12.82 13.45c-0.070-0.11 0.46-0.41 1.46-1.25s1.33-1.29 1.46-1.25 4.41 5.17 4.41 5.34c-0.238 0.541-0.576 0.999-0.996 1.366l-0.004 0.004c-0.58 0.59-1.29 1.25-1.45 1.090s-4.7-5.090-4.88-5.3z"></path>
<path fill="#f2910d" d="M17.82 20.62c-0.13-0.16 1.88-1 2.75-2.17s1.43-2.16 1.83-2.12 11.13 11.080 11.090 11.46c-0.842 1.285-1.835 2.383-2.974 3.309l-0.026 0.021c-1.38 1.21-1.92 1.58-2 1.5s-10.38-11.62-10.67-12z"></path>
<path fill="#1d1d1b" d="M20.49 21.83c-0.19 0 0.5-0.58 0.62-0.5s6.13 6.87 6 7.17-0.45 0.79-0.7 0.66-5.71-7.29-5.92-7.33z"></path>
<path fill="#1f4863" d="M12.15 40.87s0.21-0.79 1.67-1.83 5.71-3.34 7.67-5c1.013-0.839 1.852-1.847 2.483-2.987l0.027-0.053s-4.58-5.46-4.88-5.38-0.83 0.67-0.7 0.71 3.080 3.17 3 3.54-0.13 0.54-0.34 0.42-3.010-3.29-3.18-3.29c-0.337 0.34-0.634 0.721-0.885 1.133l-0.015 0.027c-0.050 0.13 3.95 4.25 4 4.5s-0.5 0.5-0.5 0.5l-4.090-4.33-1.21 1.42 3.71 4.25s-0.41 0.41-0.54 0.41-3.76-3.91-3.76-3.91-1 1.25-1.12 1.5c-0.104 0.153-0.216 0.288-0.34 0.41l-0 0s2.71 2.8 2.71 2.92-0.33 0.42-0.33 0.42l-2.88-2.63s-0.5 1-0.62 1.21 2 2.29 1.92 2.42-0.21 0.41-0.34 0.46-2.12-1.88-2.21-1.71-0.91 2.5-1.080 3-0.62 1.87-0.32 2c0.045 0.001 0.098 0.001 0.151 0.001 0.705 0 1.398-0.047 2.078-0.139l-0.079 0.009z"></path>
<path fill="#85bfe9" d="M13.53 40.75s0-0.59 0.37-0.8c2.749-1.438 5.11-2.971 7.312-4.697l-0.102 0.077c3-2.42 3.54-3.38 3.67-3.33s1.62 1.62 1.62 1.62-1.5 2.21-1.62 2.25c-1.723 1.141-3.732 2.28-5.818 3.284l-0.312 0.136c-1.488 0.686-3.213 1.198-5.023 1.449l-0.097 0.011z"></path>
<path fill="#1f4863" d="M27 18.080l1-0.88c1.064 1.089 2.179 2.112 3.348 3.073l0.072 0.057c0.16-0.080 0.33-0.5 0.33-0.5s-2.75-3.080-2.64-3.29 1.090-1.13 1.42-1 2.21 3 2.46 3 0.58-0.46 0.41-0.67c-0.629-0.832-1.223-1.771-1.737-2.759l-0.053-0.111c0.24-0.18 0.514-0.361 0.798-0.527l0.042-0.023 1.83 2.21s0.67-0.25 0.46-0.41c-0.533-0.65-0.995-1.391-1.355-2.188l-0.025-0.062c0.13-0.090 2-1.38 2.34-1.25s1.29 2 1.41 2 0.63-0.17 0.5-0.38c-0.437-0.579-0.852-1.234-1.212-1.921l-0.038-0.079c0.528-0.407 1.137-0.745 1.793-0.985l0.047-0.015c0.25 0 2.12 3 2.37 3s0.54-0.37 0.46-0.5l-1.92-3.080c0.421-0.224 0.917-0.434 1.432-0.601l0.068-0.019c0.13 0 1.71 2.95 1.88 2.87s0.58-0.29 0.46-0.54c-0.506-0.774-1.006-1.676-1.443-2.613l-0.057-0.137c0.886-0.423 1.917-0.769 2.994-0.986l0.086-0.014c0.585 0.185 1.001 0.722 1.001 1.357 0 0.17-0.030 0.332-0.084 0.483l0.003-0.010c-0.3 0.88-3.38 6.25-3.38 6.25s-0.62-2-2.33-1.83c-1.933 0.018-3.629 1.015-4.617 2.519l-0.013 0.021c-1 1.75-2 3.46-2.37 4.12s-0.67 1.34-1 1.3c-1.663-1.549-3.211-3.14-4.676-4.806l-0.064-0.074z"></path>
<path fill="#85bfe9" d="M32.61 23.7c0.962-1.925 1.906-3.532 2.942-5.072l-0.102 0.162c1.29-1.67 2.91-2.5 3.91-2.42 0.833 0.19 1.554 0.587 2.132 1.132l-0.002-0.002-4.090 6.16c-0.171-0.083-0.372-0.132-0.585-0.132-0.277 0-0.535 0.083-0.75 0.225l0.005-0.003c-0.738 0.48-1.371 1.043-1.909 1.687l-0.011 0.013z"></path>
<path fill="#85bfe9" d="M8.57 42.54c0.060-0.21 1.63 0.33 2.54 0.33s2-0.080 2-0.080c0.143 2.227 0.968 4.237 2.266 5.85l-0.016-0.020c1.359 1.358 2.843 2.591 4.434 3.681l0.106 0.069c-0.16 0.080-6 1.080-8.83-1.5-1.737-1.459-2.833-3.632-2.833-6.061 0-0.809 0.122-1.59 0.348-2.325l-0.015 0.056z"></path>
<path fill="#cbe7f5" d="M14.45 42.5c1.384-0.215 2.629-0.638 3.764-1.241l-0.064 0.031c1.88-0.92 3.34-1.75 3.34-1.75s-0.63 3 2.91 6 4.050 3.080 4.050 3.080c-1.124 0.701-2.465 1.425-3.85 2.070l-0.24 0.1c-0.884 0.395-1.927 0.739-3.008 0.979l-0.112 0.021s-3.88-1.5-5.54-4.5-1.25-4.79-1.25-4.79z"></path>
<path fill="#cbe7f5" d="M22.53 39.16s1.67-0.91 3.17-1.91c0.867-0.549 1.618-1.112 2.321-1.728l-0.021 0.018c0.845 2.099 2.089 3.879 3.65 5.321l0.010 0.009c1.073 0.98 2.31 1.804 3.661 2.423l0.089 0.036s-2.25 1.92-3.37 3c-0.76 0.672-1.608 1.278-2.516 1.792l-0.074 0.038s-4-2.62-5.25-4.37c-0.831-1.326-1.42-2.89-1.662-4.565l-0.008-0.065z"></path>
<path fill="#fff" d="M29 34.7c1.406-1.023 2.645-2.103 3.782-3.282l0.008-0.008c2-2.080 3.46-3.41 3.46-3.41 1.784 1.206 3.339 2.523 4.74 3.989l0.010 0.011c1.133 1.258 2.047 2.738 2.668 4.364l0.032 0.096s-2.13 2.16-3.8 3.54c-1.031 0.866-2.172 1.715-3.363 2.495l-0.137 0.085c-1.878-0.883-3.47-2.075-4.778-3.527l-0.012-0.013c-1.149-1.196-2.042-2.647-2.586-4.259l-0.024-0.081z"></path>
<path fill="#cbe7f5" d="M37 27.25c0.862-1.039 1.723-2.196 2.524-3.398l0.096-0.152 1.25-2c2.59 0.027 4.888 1.254 6.366 3.152l0.014 0.018c2.66 3.38 2.87 5.21 2.87 5.21l-2.42 2.83c-0.573-1.655-1.164-3.029-1.839-4.353l0.089 0.193c-0.25-0.090-0.83 0.33-0.7 0.45s1.66 4.25 1.66 4.25l-0.71 0.67c-0.683-1.778-1.355-3.233-2.107-4.64l0.107 0.22c-0.2 0-1 0.38-0.91 0.5s2.12 4.42 2 4.59-0.79 1-0.79 1c-1.059-2.219-2.359-4.127-3.905-5.806l0.015 0.016c-1.006-1.115-2.202-2.037-3.541-2.718l-0.069-0.032z"></path>
<path fill="#cbe7f5" d="M42.070 20.54s2-3 3-4.92 1.29-2.54 1.29-2.54 4.13 0.42 6.29 3.33c1.096 1.345 1.999 2.905 2.633 4.596l0.037 0.114s-0.75 1.92-1 2.63c-0.132 0.442-0.316 0.827-0.55 1.175l0.010-0.015s-1.42-3.62-1.78-3.62-0.67 0.54-0.54 0.62 2 3.42 1.83 3.59c-0.249 0.342-0.497 0.735-0.721 1.142l-0.029 0.058s-1.75-3.37-1.87-3.41-0.88 0.16-0.63 0.46 1.96 3.58 1.78 3.95-0.82 1.38-0.82 1.38c-0.702-2.567-2.172-4.724-4.144-6.271l-0.026-0.020c-3.22-2.25-4.76-2.25-4.76-2.25z"></path>
<path fill="#85bfe9" d="M47 12.12c2.194 0.031 4.166 0.952 5.578 2.418l0.002 0.002c1.439 1.39 2.606 3.050 3.421 4.901l0.039 0.099s1.75-4.25 0.080-7.71-5.79-3.84-6.46-4c-0.061-0.001-0.134-0.002-0.207-0.002-0.869 0-1.716 0.092-2.533 0.266l0.079-0.014c0.412 0.543 0.66 1.231 0.66 1.977 0 0.008 0 0.016-0 0.024v-0.001c-0.117 0.763-0.348 1.449-0.677 2.076l0.017-0.036z"></path>
<path fill="#fab900" d="M34.86 46.12c2.205-1.504 4.109-2.969 5.926-4.532l-0.086 0.072c2.66-2.33 6.080-5.25 6.080-5.25l6.62 4.59-5.87-0.8s-0.42 0.84-0.17 0.88 7.21 1.21 7.29 1.42c0.032 0.145 0.051 0.312 0.051 0.483 0 0.275-0.048 0.539-0.136 0.783l0.005-0.016c-0.12 0-7-1.46-7.17-1.34-0.1 0.127-0.16 0.29-0.16 0.467 0 0.087 0.015 0.171 0.042 0.249l-0.002-0.005c0.080 0.17 6.67 1.38 6.58 1.58-0.181 0.302-0.372 0.564-0.585 0.806l0.005-0.006s-5.080-1-5.33-0.88-0.42 0.71-0.21 0.83 4.75 0.88 4.66 1-0.7 0.75-0.7 0.75c-1.15-0.27-2.596-0.516-4.066-0.683l-0.184-0.017c-0.17 0.12-0.38 0.75-0.25 0.83s3.87 0.58 3.66 0.79l-1 1c-0.791-0.23-1.759-0.432-2.749-0.568l-0.111-0.012c-0.25 0.080-0.42 1-0.25 1.080s2.080 0.5 2.080 0.5-3.5 3-5.33 4.25-3.8 1.63-4.35 1.13-4.37-9.3-4.29-9.38z"></path>
<path fill="#1d1d1b" d="M37 46.83c-0.14-0.1 0.42-0.5 0.58-0.25 0.692 1.315 1.33 2.862 1.827 4.472l0.053 0.198c-0.13 0.33-0.34 0.62-0.63 0.54s-1.63-4.79-1.83-4.96z"></path>
<path fill="#ffe19b" d="M44.4 55.58c1.954-1.365 3.638-2.678 5.253-4.070l-0.083 0.070c3-2.75 4-3.67 4.13-3.63s2.37 2.3 2.25 2.55c-0.439 0.475-0.903 0.91-1.395 1.311l-0.025 0.019s-1.25-1.75-1.42-1.71-0.79 0.33-0.62 0.46c0.479 0.542 0.896 1.157 1.228 1.821l0.022 0.049c-0.090 0.13-0.71 0.8-0.71 0.8-0.497-0.716-1.003-1.343-1.55-1.93l0.010 0.010c-0.13 0-0.63 0.46-0.5 0.58s1.5 1.67 1.37 1.88-2.37 2.12-3.5 3-2.12 1.87-2.41 1.75c-0.774-0.862-1.455-1.834-2.012-2.881l-0.038-0.079z"></path>
</svg>
