<!-- Generated by IcoMoon.io -->
<svg version="1.1" xmlns="http://www.w3.org/2000/svg" width="64" height="64" viewBox="0 0 64 64">
<path fill="#1d1d1b" d="M53.16 46.58c-2.46-2-6.63-1.46-6.63-1.46 0-0.017 0.001-0.036 0.001-0.056 0-1.093-0.682-2.026-1.643-2.398l-0.018-0.006c-0.726-0.368-1.57-0.633-2.461-0.746l-0.039-0.004s-0.25-3.37-3.090-3.5c-1.981 0.025-3.809 0.662-5.309 1.729l0.029-0.019s0.13-1.71-0.29-1.91c-0.21-0.066-0.451-0.105-0.701-0.105-0.18 0-0.356 0.020-0.525 0.058l0.016-0.003s-0.87 0.090-0.87 0 0.25-1.37 0-1.58c-0.502-0.159-1.079-0.25-1.677-0.25-0.012 0-0.023 0-0.034 0h0.002l-0.22 4.17c-1.532-1.544-3.654-2.5-6-2.5-0.028 0-0.056 0-0.084 0l0.004-0c-2.287 0.136-4.217 1.535-5.115 3.502l-0.015 0.038c-0.122 0.447-0.237 1.012-0.32 1.588l-0.010 0.082c-0.156-0.012-0.338-0.019-0.522-0.019-0.968 0-1.892 0.191-2.736 0.536l0.048-0.017c-1.14 0.544-2.029 1.46-2.527 2.587l-0.013 0.033c-0.109 0.455-0.172 0.978-0.172 1.515 0 0.054 0.001 0.109 0.002 0.163l-0-0.008s-2.29 1-3 2.62c-0.271 0.53-0.431 1.156-0.431 1.819 0 1.491 0.804 2.794 2.002 3.5l0.019 0.010c2.29 1.25 3.16 1.42 4 1.42 1.258-0.118 2.38-0.295 3.479-0.535l-0.189 0.035c0.825 0.406 1.795 0.644 2.821 0.644 0.151 0 0.301-0.005 0.449-0.015l-0.020 0.001c1.87-0.13 3.42-1.55 5-1.5s2.83 0.95 4.54 0.95c1.561-0.13 3.004-0.468 4.358-0.986l-0.108 0.036c0.78 0.754 1.843 1.219 3.015 1.219 0.097 0 0.192-0.003 0.287-0.009l-0.013 0.001c1.116-0.069 2.14-0.402 3.030-0.937l-0.030 0.017c0.12 0 2.29 1.17 3.71 0.83 0.766-0.155 1.44-0.473 2.011-0.918l-0.011 0.008s6.17 0.7 7.21-1.92 1.25-5.67-1.21-7.71zM27.66 33.87c-0.018 0.259-0.029 0.561-0.029 0.865 0 0.8 0.072 1.584 0.211 2.344l-0.012-0.080c0.12 0.29 0.7-0.050 0.91-0.17 0.070-0.451 0.11-0.971 0.11-1.5s-0.040-1.049-0.117-1.557l0.007 0.057c-0.080-0.5-0.74-0.080-1.080 0.040zM34.66 31.66s-0.21 3.17-0.17 3.38 0.8 0.5 0.92 0.29c0.073-0.6 0.114-1.295 0.114-2s-0.042-1.4-0.122-2.083l0.008 0.083c-0.17-0.25-0.41 0.080-0.71 0.33zM25.62 14.21c0.104-0.607 0.163-1.305 0.163-2.018 0-0.099-0.001-0.198-0.003-0.297l0 0.015c0.229-1.224 0.654-2.315 1.245-3.294l-0.025 0.044c0.17-0.33-0.25-0.29-0.46-0.25-0.613 0.658-1.064 1.476-1.283 2.384l-0.007 0.036c-0.55 1.54-0.75 3.17-0.55 3.17s0.79 0.33 0.92 0.21zM25.83 28.71c0.12 0 0.79-0.59 1-0.88s0.080-0.87 0.080-1.33 0.79-0.5 0.79-0.5l0.67 1.5 1.080 0.12 0.13 1.17c-0.156 0.389-0.287 0.849-0.373 1.325l-0.007 0.045c-0.024 0.126-0.038 0.272-0.038 0.42 0 0.718 0.324 1.359 0.835 1.787l0.004 0.003c0.42 0.5 0.79 2.090 1.13 2.17s1.62-1 2.29-2.17 0.21-3 0.33-3 0-1.33 0-1.33c0.336-0.116 0.627-0.258 0.897-0.43l-0.017 0.010c0.45-0.29 1.12-1 1.25-1 0.382 0.528 0.718 1.131 0.979 1.772l0.021 0.058c0.080 0.29 0.25 0.21 0.62 0.17s2.13-5.54 2.090-6.25-2.17-2.17-2.17-2.17c0.054-0.717 0.085-1.552 0.085-2.395s-0.031-1.678-0.091-2.506l0.007 0.111c-0.21-2.62-1.75-8.58-4.75-8.79s-4.59 2.67-5.67 6.17c-0.456 1.621-0.718 3.482-0.718 5.404 0 0.71 0.036 1.412 0.106 2.103l-0.007-0.087c-1.097 0.656-2.037 1.316-2.926 2.036l0.046-0.036c-0.21 0.29-0.16 0.66 0.38 2.12 0.635 1.733 1.292 3.177 2.041 4.564l-0.091-0.184z"></path>
<path fill="#cbe7f5" d="M31.62 40c0.12 0 0.75 0.2 0.75 0.33s0 5.46 0.91 6.21 1.3 0.33 1.55 0.12c0.669-0.395 1.464-0.651 2.313-0.709l0.017-0.001c1 0 0.92 3.13 1.42 3.21s3.37-0.25 5 1.34c0.517 0.57 0.833 1.331 0.833 2.165s-0.316 1.595-0.835 2.168l0.002-0.003c-0.5 0.21-1.63-0.5-2-0.38s-0.79 1.050-1 1.17c-0.56 0.345-1.239 0.55-1.966 0.55-0.217 0-0.429-0.018-0.636-0.053l0.022 0.003c-1.13-0.29-4-1.12-3.59-3.12s1.25-2.13 1.62-2 0.71 0.29 0.71 0.080 0-0.63-0.16-0.71c-0.256-0.072-0.551-0.113-0.855-0.113s-0.599 0.041-0.878 0.118l0.023-0.005c-0.5 0.21-2.090 2.17-1.59 3.42 0.204 0.625 0.549 1.157 0.998 1.578l0.002 0.002c-0.901 0.431-1.959 0.682-3.075 0.682-0.149 0-0.298-0.005-0.445-0.013l0.020 0.001c-2-0.13-3.91-1.17-4.87-1s-3.090 1.2-3.84 1.16-3.16-0.16-3.33-2c-0.013-0.104-0.020-0.224-0.020-0.346 0-1.548 1.172-2.822 2.677-2.983l0.013-0.001c0.084-0.007 0.182-0.011 0.281-0.011 0.72 0 1.388 0.221 1.94 0.599l-0.012-0.008c0 0.13-0.090 0.42 0.45 0.25s1-0.54 0.92-0.79-2.5-1.46-1.29-3.21 3.5-1.54 4-1 1 1.12 1.5 0.87 1.5-1.5 1.91-3.91 0.51-3.66 0.51-3.66z"></path>
<path fill="#1d1d1b" d="M25.62 52.16c0.34-0.17 2 0.38 3.080-0.54 0.639-0.545 1.128-1.247 1.41-2.047l0.010-0.033c0.12 0.5 0.21 0.58 0.12 1-0.196 0.553-0.405 1.018-0.646 1.463l0.026-0.053s1.66 2.75 1.41 2.92-0.25 0.46-0.5 0.13c-0.493-0.945-1.001-1.749-1.565-2.51l0.035 0.050c-0.174 0.029-0.327 0.104-0.451 0.211l0.001-0.001c0.362 0.625 0.7 1.355 0.971 2.116l0.029 0.094c-0.17 0-0.42 0.16-0.67-0.050-0.42-0.573-0.835-1.227-1.205-1.909l-0.045-0.091c-0.3 0.034-0.648 0.053-1 0.053s-0.7-0.019-1.042-0.056l0.042 0.004c-0.43-0.12-0.26-0.62-0.010-0.75z"></path>
<path fill="#1d1d1b" d="M30.33 51.79l0.45-0.63s1.59 2.25 1.46 2.55-0.080 0.37-0.25 0.37c-0.568-0.675-1.114-1.422-1.61-2.206l-0.050-0.084z"></path>
<path fill="#1d1d1b" d="M31 50.29l0.34-0.63s1.5 1.92 1.45 2.3-0.12 0.66-0.29 0.54-1.5-2.21-1.5-2.21z"></path>
<path fill="#1d1d1b" d="M31.87 49s0.25-0.75 0.41-0.75 1.25 1.37 1.17 1.62c-0.069 0.191-0.153 0.356-0.255 0.508l0.005-0.008z"></path>
<path fill="#85bfe9" d="M34.16 41.12c1.12-0.84 2.476-1.427 3.95-1.654l0.050-0.006c0.127-0.017 0.274-0.027 0.423-0.027 1.101 0 2.078 0.53 2.691 1.348l0.006 0.009c0.21 0.42 0.38 1.12 0.25 1.21s-0.79 0-1.16 0.12c-0.198 0.046-0.361 0.17-0.458 0.337l-0.002 0.003s-0.54-1.71-0.79-1.75c-0.016-0.001-0.034-0.002-0.052-0.002-0.171 0-0.327 0.061-0.449 0.163l0.001-0.001c0.281 0.556 0.549 1.218 0.764 1.904l0.026 0.096c-0.080 0.13-0.38 0.92-0.46 0.71s-1.21-2.54-1.5-2.5-0.71 0.21-0.62 0.42c0.736 1.275 1.534 2.378 2.429 3.392l-0.019-0.022c0.34 0.090 0.5-0.5 0.5-0.5 0.278-0.713 0.9-1.235 1.657-1.368l0.013-0.002c1.42-0.38 3.21-0.050 3.83 1.33s0.21 2.58 0.42 2.75 0.71 0.37 0.79 0.25c0.097-0.377 0.185-0.845 0.244-1.323l0.006-0.057s3.88-0.45 5.67 1.38c0.979 1.097 1.577 2.552 1.577 4.146 0 0.509-0.061 1.003-0.176 1.476l0.009-0.043c-0.152 0.57-0.364 1.068-0.635 1.528l0.015-0.028c-0.99-1.156-2.023-2.201-3.125-3.17l-0.035-0.030c-0.25 0-0.62 0.41-0.45 0.58s3 3 2.75 3-0.5 0.21-0.63 0.17-2.67-2.96-2.8-2.84-0.67 0.34-0.46 0.5 2.37 2.59 2.37 2.59l-1.12-0.090c-0.662-0.821-1.316-1.554-2.004-2.254l0.004 0.004c-0.17 0-0.79 0.17-0.63 0.34s1.84 2 1.46 2.16-1.41-0.33-1.71-0.29-0.54 0.42-0.75 0.54c-0.274 0.213-0.623 0.341-1.001 0.341-0.193 0-0.378-0.033-0.55-0.095l0.011 0.004s2.63-2.37 1.5-4.71c-0.697-1.412-1.784-2.541-3.121-3.271l-0.039-0.019s-1.17-2-1.5-2.12-0.71 0-0.59 0.080c0.412 0.545 0.789 1.162 1.102 1.815l0.028 0.065c-0.321-0.151-0.698-0.281-1.091-0.372l-0.039-0.008h-0.58s-1-2.17-1.83-2.46l-1-0.37s-1.33-2.84-1.46-2.88-0.63 0.17-0.54 0.34l1.25 2.45-0.58-0.080s-1-2-1.21-2-0.54 0.42-0.41 0.54c0.312 0.468 0.568 1.010 0.739 1.588l0.011 0.042c-0.13 0-0.88 0.71-0.92 0.42s-0.72-2.67-0.050-3.8z"></path>
<path fill="#1d1d1b" d="M42.49 45.46c0.17-0.13 0.42-0.5 0.54-0.3s1.25 2.3 1 2.38-0.8 0.25-0.88 0-0.66-2.080-0.66-2.080z"></path>
<path fill="#1d1d1b" d="M44 45.29s0.54-0.38 0.63-0.080 0.7 1.75 0.54 1.87c-0.074 0.037-0.161 0.059-0.253 0.059-0.186 0-0.352-0.089-0.456-0.228l-0.001-0.001c-0.13-0.2-0.46-1.62-0.46-1.62z"></path>
<path fill="#1d1d1b" d="M50.78 50.33c0.13-0.12 0.38-0.58 0.5-0.54s1.92 1.92 1.88 2.21-0.080 0.46-0.21 0.46-2.17-2.13-2.17-2.13z"></path>
<path fill="#85bfe9" d="M29.24 41.16c-1.086-1.023-2.486-1.724-4.040-1.945l-0.040-0.005c-2.13-0.090-4 0.33-4.71 1.25-0.54 0.765-0.99 1.646-1.309 2.587l-0.021 0.072s0.66 0 1.71 1.46 1.62 2.17 1.62 2.17l0.46-0.46s-1.29-2.29-1.13-2.54c0.068-0.174 0.235-0.295 0.43-0.295 0.025 0 0.049 0.002 0.073 0.006l-0.003-0c0.21 0 1.090 2.41 1.21 2.33s0.34-0.17 0.38-0.29-1-2.38-0.88-2.54 0.42-0.42 0.63-0.25c0.368 0.666 0.732 1.461 1.039 2.283l0.041 0.127s0.71-0.21 0.63-0.33c-0.362-0.776-0.666-1.682-0.865-2.627l-0.015-0.084c0.087-0.081 0.204-0.131 0.333-0.131 0.079 0 0.154 0.019 0.22 0.052l-0.003-0.001c0.31 0.69 0.649 1.588 0.944 2.507l0.056 0.203s1 0.12 1-0.050c-0.39-0.883-0.76-1.949-1.046-3.047l-0.034-0.153c0.12-0.090 0.87-0.25 1-0.090s0.91 3.25 1.080 3.34 0.83 0.79 0.83 0.37-1.16-3.83-1.16-3.83c0.061-0.070 0.15-0.115 0.25-0.115s0.189 0.044 0.25 0.114l0 0c0.2 0.29 0.91 2.33 1 2.12s0.070-2.21 0.070-2.21z"></path>
<path fill="#85bfe9" d="M22 47.33s-1.66-2.67-3.33-3c-0.211-0.024-0.455-0.037-0.703-0.037-1.455 0-2.802 0.468-3.897 1.261l0.019-0.013c-0.519 0.45-0.88 1.070-0.998 1.772l-0.002 0.018c0.389-0.106 0.835-0.167 1.296-0.167 0.656 0 1.283 0.124 1.859 0.349l-0.035-0.012c1.79 0.62 2.090 1.62 2.090 1.62l-0.88 0.34c-0.697-0.659-1.633-1.070-2.666-1.090l-0.004-0c-2.055 0.021-3.807 1.297-4.528 3.097l-0.012 0.033c-0.076 0.271-0.119 0.582-0.119 0.904 0 1.574 1.042 2.905 2.474 3.34l0.025 0.006c0.8 0.158 1.72 0.249 2.661 0.249 0.677 0 1.343-0.047 1.995-0.138l-0.075 0.009s-1.76-2.87 0.53-4.87c1.041-1.012 2.465-1.636 4.034-1.636 0.094 0 0.187 0.002 0.28 0.007l-0.013-0.001s-0.67-1.46 0-2.040z"></path>
<path fill="#e7413e" d="M31.49 8.16c1.070-0.25 3.38 0.8 3.92 4.88s0.21 8-0.5 9.92-1.63 3.29-1.91 3.29c-0.219 0.010-0.477 0.015-0.735 0.015-0.799 0-1.585-0.053-2.355-0.155l0.090 0.010c-1.21-2.473-1.918-5.382-1.918-8.455 0-0.192 0.003-0.382 0.008-0.573l-0.001 0.028c0.15-4.66 1.99-8.62 3.4-8.96z"></path>
<path fill="#1d1d1b" d="M31.16 9.66c0.063-0.077 0.158-0.126 0.264-0.126 0.188 0 0.34 0.152 0.34 0.34 0 0.045-0.009 0.089-0.025 0.128l0.001-0.002c-0.080 0.5-0.58 2.37-0.79 2.33s-0.46-0.080-0.5-0.21c0.195-0.951 0.44-1.775 0.747-2.568l-0.037 0.108z"></path>
<path fill="#fab900" d="M24.78 22.87c0.060-0.26 1.55-1.25 1.63-1 0.262 0.831 0.496 1.844 0.655 2.881l0.015 0.119c-0.080 0.13-1.17 1.38-1.34 1.13-0.367-0.876-0.697-1.922-0.936-3.003l-0.024-0.127z"></path>
<path fill="#fab900" d="M37.33 21.37c-0.254 1.106-0.528 2.025-0.854 2.92l0.054-0.17c-0.41 1.090-0.45 1.21-0.45 1.21s0.75 1.29 0.87 1.17 1-2.21 1.25-3c0.128-0.282 0.241-0.616 0.323-0.962l0.007-0.038z"></path>
<path fill="#fab900" d="M30.41 27.87c0.368-0.029 0.797-0.045 1.23-0.045s0.862 0.016 1.286 0.049l-0.056-0.003c0 0.17 0 1.13-0.17 1.090s-2.29-0.17-2.29-0.17z"></path>
<path fill="#f2910d" d="M30.66 29.5c0.48-0.45 2.42-0.38 2.080 1-0.229 0.907-0.695 1.685-1.328 2.288l-0.002 0.002c-0.164-0.556-0.392-1.040-0.683-1.48l0.013 0.020c-0.229-0.254-0.37-0.592-0.37-0.963 0-0.327 0.109-0.628 0.292-0.87l-0.003 0.004z"></path>
<path fill="#1d1d1b" d="M31 13.54c0.214-0.073 0.46-0.115 0.717-0.115 1.203 0 2.19 0.928 2.283 2.107l0.001 0.008c0.17 1.75-1.7 4.25-3.54 2.75s-1.76-3.79 0.54-4.75z"></path>
<path fill="#fab900" d="M31.27 14.69c0.137-0.055 0.296-0.087 0.462-0.087 0.679 0 1.234 0.533 1.268 1.204l0 0.003c0.090 1-0.94 2.34-2 1.51-0.435-0.256-0.722-0.721-0.722-1.254 0-0.637 0.411-1.178 0.982-1.373l0.010-0.003z"></path>
<path fill="#1d1d1b" d="M29.64 19.16c0.27-0.23 0.71-0.14 0.83 0.44s-0.66 0.63-0.87 0.42c-0.103-0.106-0.167-0.251-0.167-0.411 0-0.179 0.080-0.34 0.206-0.448l0.001-0.001z"></path>
<path fill="#1d1d1b" d="M31.66 19.48c0.27-0.23 0.71-0.15 0.83 0.43s-0.66 0.63-0.87 0.42c-0.103-0.105-0.166-0.248-0.166-0.407 0-0.178 0.080-0.336 0.205-0.443l0.001-0.001z"></path>
<path fill="#1d1d1b" d="M33.24 18.75c0.27-0.23 0.71-0.15 0.84 0.44s-0.67 0.62-0.88 0.41c-0.103-0.105-0.166-0.248-0.166-0.407 0-0.178 0.080-0.336 0.205-0.443l0.001-0.001z"></path>
<path fill="#1d1d1b" d="M34.45 17.12c0.27-0.23 0.71-0.14 0.83 0.44s-0.66 0.63-0.87 0.42c-0.103-0.106-0.167-0.251-0.167-0.411 0-0.179 0.080-0.34 0.206-0.448l0.001-0.001z"></path>
<path fill="#1d1d1b" d="M32.49 21.12c0.549 0.191 1.018 0.492 1.4 0.88l0 0c0 0.14 0 0.54-0.15 0.52-0.609-0.255-1.129-0.533-1.618-0.853l0.038 0.023c-0.060-0.13 0.25-0.53 0.33-0.57z"></path>
<path fill="#1d1d1b" d="M31.58 22.33c0.1 0 1.83 1.19 1.81 1.46s-0.080 0.46-0.29 0.44c-0.8-0.409-1.489-0.882-2.111-1.43l0.011 0.010c0-0.15 0.58-0.48 0.58-0.48z"></path>
<path fill="#1d1d1b" d="M30.49 23.44c0.080-0.050 2.21 1.45 2.11 1.62s-0.27 0.4-0.48 0.42c-0.773-0.453-1.433-1.001-1.992-1.641l-0.008-0.009c-0.020-0.17 0.23-0.31 0.37-0.39z"></path>
</svg>
