<!-- Generated by IcoMoon.io -->
<svg version="1.1" xmlns="http://www.w3.org/2000/svg" width="64" height="64" viewBox="0 0 64 64">
<path fill="#1d1d1b" d="M20.3 35.76c-0.051-0.719-0.080-1.558-0.080-2.403 0-3.675 0.548-7.221 1.567-10.563l-0.067 0.256c1.865-5.785 4.53-10.81 7.919-15.252l-0.089 0.122c2.090-2.92 3.45-3.54 4.84-3.33s5.54 5.92 8 13.12 2.12 16.42 2.12 17.42 0 1.58 0 1.58 4.87-0.66 6 4.92 0.25 10.5-1.58 13.67-4.71 3.46-5 3 1-5.17-0.21-8.34-2.13-3.41-2.13-3.41c-0.378 1.147-0.842 2.14-1.406 3.064l0.036-0.064c-0.523 0.154-1.125 0.245-1.747 0.25h-0.003s0.080 2.080-0.13 2.12-3.54 0-3.54 0-0.71 6.67-1.25 7.13-3.66 0.5-3.66 0-1.13-7.050-1.13-7.050-1.87-0.16-1.92-0.37-0.37-2.21-0.37-2.21c-0.545-0.059-1.042-0.207-1.496-0.432l0.026 0.012c-0.25-0.25-2.17-3-2.17-3-1.247 1.52-2.13 3.384-2.49 5.429l-0.010 0.071c-0.25 2.79 1.63 5.91 1.46 6.2s-3 0.71-6-3.91-3.5-9-2.29-12.88 4.39-5.32 6.8-5.15z"></path>
<path fill="#e7413e" d="M28.22 13.13c0.17-0.21 4.54-7.080 5.75-7s4.75 6.63 4.5 6.75c-1.272-0.338-2.733-0.532-4.238-0.532-0.37 0-0.737 0.012-1.101 0.035l0.050-0.002c-1.795 0.074-3.494 0.343-5.12 0.787l0.16-0.037z"></path>
<path fill="#a42116" d="M26.84 14.8c1.895-0.817 4.102-1.293 6.42-1.293 0.102 0 0.204 0.001 0.305 0.003l-0.015-0c3.75 0.080 5.42 0.83 5.63 1.080 1.287 2.571 2.324 5.555 2.96 8.686l0.040 0.234c0.261 1.417 0.41 3.047 0.41 4.712 0 0.042-0 0.083-0 0.125v-0.006s-1.12-1.46-1.37-1.34-0.38 0.67-0.38 0.67c0.634 0.535 1.206 1.094 1.735 1.692l0.015 0.017c0 0.21 0.13 2 0.13 2s-2.13-2.71-2.38-2.58-0.54 0.46-0.41 0.62 2.71 2.92 2.83 3.21c0.030 0.274 0.047 0.593 0.047 0.915s-0.017 0.641-0.050 0.954l0.003-0.039s-3.25-3.46-3.42-3.46-0.62 0.42-0.29 0.63c1.281 1.261 2.482 2.592 3.601 3.99l0.069 0.090c0 0.21-0.13 2.25-0.13 2.25s-3.5-4.12-3.66-4.080-0.42 0.42-0.34 0.58 3.88 4.13 3.88 4.5c-0.115 0.781-0.262 1.457-0.448 2.116l0.028-0.116s-3.71-4.75-3.83-4.71-0.54 0.34-0.46 0.5 4.080 5 4 5.38c-0.089 0.606-0.279 1.152-0.553 1.645l0.013-0.025c-0.17 0.090-3.62-4.54-3.79-4.54s-0.42 0.46-0.42 0.46c1.177 1.468 2.372 3.125 3.484 4.84l0.146 0.24c-0.090 0.25-0.46 1-0.46 1s-3.040-3.83-3.18-3.87-0.58 0.5-0.42 0.67c1.156 1.214 2.251 2.518 3.262 3.889l0.078 0.111c-0.090 0.21-0.5 1.46-0.5 1.46h-0.63c-0.638-0.971-1.296-1.817-2.015-2.607l0.015 0.017c-0.25 0-0.54 0.42-0.54 0.59s1.71 2 1.54 2.080-2.46 0.080-2.46 0.080 0.5-8.62 0.090-9.29c-0.377-0.745-1.137-1.247-2.014-1.247-0.144 0-0.284 0.013-0.42 0.039l0.014-0.002c-1.8 0.326-3.406 0.861-4.901 1.589l0.111-0.049c-1 0.55-0.75 2.46-0.63 3.21 0.32 1.551 0.589 3.46 0.748 5.4l0.012 0.18c-0.324 0.040-0.699 0.063-1.080 0.063s-0.756-0.023-1.124-0.068l0.044 0.004c-0.18-0.12-3.67-3.91-4.18-10.87-0.048-0.739-0.076-1.601-0.076-2.47 0-5.305 1.023-10.371 2.882-15.012l-0.096 0.272c1.43-3.62 2.13-5.12 2.13-5.12z"></path>
<path fill="#e7413e" d="M29.43 40.42c0.12-0.62 4.21-1.29 4.37-0.79s-1.21 17.83-1.46 18-0.83 0.46-1 0.13-2.12-16.3-1.91-17.34z"></path>
<path fill="#f2910d" d="M27.55 49.59c0.21 0 0.79-0.21 0.88 0s0.21 1.33 0.080 1.29-0.87 0.17-1-0.080c-0.008-0.118-0.012-0.256-0.012-0.395 0-0.287 0.019-0.57 0.056-0.847l-0.003 0.032z"></path>
<path fill="#f2910d" d="M35.22 49.55c0.177-0.012 0.384-0.018 0.592-0.018 0.572 0 1.132 0.050 1.676 0.147l-0.057-0.008c0 0.17 0 1.34-0.13 1.34-0.189 0.010-0.409 0.015-0.632 0.015-0.588 0-1.167-0.038-1.735-0.112l0.067 0.007c0-0.12 0.22-1.37 0.22-1.37z"></path>
<path fill="#e7413e" d="M44.55 38.26c1.171 0.28 2.202 0.724 3.131 1.315l-0.041-0.025c1 0.71 1.54 5.12 1.54 5.12s-2.63-1.67-2.75-1.67-0.38 0.79-0.13 0.91c1.12 0.57 2.062 1.138 2.961 1.764l-0.081-0.054c0.018 0.342 0.029 0.742 0.029 1.145s-0.010 0.803-0.031 1.201l0.002-0.056c-0.723-0.535-1.544-1.022-2.413-1.424l-0.087-0.036c-0.13 0.17-0.13 0.75 0.12 0.88 0.861 0.467 1.602 1.023 2.25 1.67l-0-0c0.003 0.088 0.004 0.191 0.004 0.295 0 0.574-0.045 1.136-0.132 1.685l0.008-0.061-0.090 0.38s-1.75-1.25-2-1.17-0.5 0.42-0.25 0.67 2 1.37 1.88 1.62c-0.333 0.949-0.815 1.767-1.428 2.469l0.008-0.009c-0.444 0.419-0.951 0.779-1.503 1.063l-0.037 0.017s0.88-5.66-0.62-8.16-2.38-2.67-2.38-2.67c0.416-1.030 0.843-2.336 1.195-3.673l0.055-0.247c0.58-2.29 0.79-2.95 0.79-2.95z"></path>
<path fill="#e7413e" d="M20.14 37.3c0.124 1.723 0.43 3.324 0.901 4.853l-0.041-0.153c0.71 2.3 1 3 1 3s-1.54 0.58-2.67 3.87c-0.378 0.977-0.598 2.108-0.598 3.291 0 0.846 0.112 1.666 0.323 2.445l-0.015-0.066s-2.5-1.46-3.83-7.17 0.88-9.49 4.93-10.070z"></path>
<path fill="#1d1d1b" d="M18.43 40.3l0.37 0.83c-0.503 0.2-0.924 0.515-1.245 0.914l-0.005 0.006c-0.46 0.62-0.21 1.58-0.41 1.66s-0.75 0.13-0.84 0c-0.005-0.083-0.008-0.181-0.008-0.279 0-0.697 0.143-1.361 0.4-1.963l-0.012 0.033c0.335-0.663 0.981-1.126 1.741-1.199l0.009-0.001z"></path>
<path fill="#1d1d1b" d="M32.050 17.71c2.27-0.81 6 0.5 6.34 5.38s-5.25 8.25-8.46 5.29-3.13-8.79 2.12-10.67z"></path>
<path fill="#ddc07c" d="M33.050 19c0.040-0.002 0.088-0.003 0.135-0.003 1.509 0 2.769 1.064 3.071 2.482l0.004 0.021c0.185 0.886 0.291 1.905 0.291 2.948 0 0.064-0 0.128-0.001 0.192l0-0.010c-0.638-1.28-1.303-2.371-2.048-3.4l0.048 0.070c-0.25 0-0.79 0.33-0.67 0.5 0.765 1.106 1.502 2.375 2.137 3.701l0.073 0.169c-0.452 1.119-1.53 1.895-2.789 1.895-0.329 0-0.646-0.053-0.942-0.151l0.021 0.006c-2.58-0.75-3.62-4.080-3-5.87s1.96-2.42 3.67-2.55z"></path>
<path fill="#1d1d1b" d="M31.39 20.67c0.042-0.015 0.090-0.023 0.14-0.023 0.243 0 0.44 0.197 0.44 0.44 0 0.001 0 0.002 0 0.003v-0c0 0.25-0.92 0.92-0.92 1.5s0.21 0.75-0.12 0.87-1.13 0.050-1.13-0.2c-0.002-0.048-0.003-0.104-0.003-0.16 0-0.598 0.142-1.162 0.393-1.662l-0.010 0.021c0.287-0.397 0.709-0.681 1.197-0.788l0.013-0.002z"></path>
<path fill="#1d1d1b" d="M32.51 22.67c0-0.18 0.58-0.54 0.83-0.25s1.66 2.58 1.42 2.84-0.42 0.54-0.67 0.37c-0.621-0.853-1.154-1.83-1.551-2.874l-0.029-0.086z"></path>
<path fill="#1d1d1b" d="M32.050 24c0.25-0.090 1.13 1.75 1 1.88s-0.58 0.33-0.79 0.17c-0.381-0.399-0.692-0.87-0.909-1.39l-0.011-0.030c0.179-0.268 0.418-0.482 0.7-0.625l0.010-0.005z"></path>
<path fill="#1d1d1b" d="M32.31 15c0.011-0.001 0.025-0.002 0.038-0.002 0.271 0 0.49 0.219 0.49 0.49 0 0.085-0.022 0.165-0.059 0.234l0.001-0.003c-0.102 0.165-0.282 0.274-0.487 0.274-0.184 0-0.348-0.087-0.452-0.223l-0.001-0.001c-0.033-0.067-0.052-0.147-0.052-0.23 0-0.292 0.231-0.53 0.521-0.54h0.001z"></path>
<path fill="#1d1d1b" d="M35.12 15.050c0.015-0.002 0.032-0.002 0.049-0.002 0.271 0 0.49 0.219 0.49 0.49 0 0.085-0.022 0.165-0.060 0.235l0.001-0.003c-0.102 0.165-0.282 0.274-0.487 0.274-0.184 0-0.348-0.087-0.452-0.223l-0.001-0.001c-0.036-0.070-0.057-0.152-0.057-0.24 0-0.288 0.23-0.523 0.517-0.53h0.001z"></path>
<path fill="#1d1d1b" d="M37.53 16.74c0.015-0.002 0.032-0.002 0.049-0.002 0.271 0 0.49 0.219 0.49 0.49 0 0.085-0.022 0.165-0.060 0.235l0.001-0.003c-0.102 0.165-0.282 0.274-0.487 0.274-0.184 0-0.348-0.087-0.452-0.223l-0.001-0.001c-0.033-0.068-0.052-0.147-0.052-0.231 0-0.288 0.226-0.524 0.51-0.539l0.001-0z"></path>
<path fill="#1d1d1b" d="M39.1 19.49c0.015-0.002 0.032-0.002 0.049-0.002 0.271 0 0.49 0.219 0.49 0.49 0 0.085-0.022 0.165-0.060 0.235l0.001-0.003c-0.104 0.165-0.286 0.274-0.492 0.274-0.185 0-0.35-0.087-0.457-0.222l-0.001-0.001c-0.033-0.067-0.052-0.147-0.052-0.23 0-0.292 0.231-0.529 0.521-0.54h0.001z"></path>
<path fill="#1d1d1b" d="M39.64 22.55c0.015-0.002 0.032-0.002 0.049-0.002 0.271 0 0.49 0.219 0.49 0.49 0 0.085-0.022 0.165-0.060 0.235l0.001-0.003c-0.102 0.165-0.282 0.274-0.487 0.274-0.184 0-0.348-0.087-0.452-0.223l-0.001-0.001c-0.033-0.068-0.052-0.147-0.052-0.231 0-0.288 0.226-0.524 0.51-0.539l0.001-0z"></path>
<path fill="#1d1d1b" d="M39.56 25.41c0.015-0.002 0.032-0.003 0.050-0.003 0.265 0 0.48 0.215 0.48 0.48 0 0.085-0.022 0.166-0.061 0.235l0.001-0.002c-0.098 0.17-0.279 0.282-0.486 0.282-0.186 0-0.351-0.091-0.453-0.23l-0.001-0.002c-0.033-0.067-0.053-0.146-0.053-0.23 0-0.29 0.233-0.526 0.522-0.53h0z"></path>
<path fill="#1d1d1b" d="M37.89 28.7c0.015-0.002 0.032-0.002 0.049-0.002 0.271 0 0.49 0.219 0.49 0.49 0 0.085-0.022 0.165-0.060 0.235l0.001-0.003c-0.104 0.15-0.276 0.247-0.47 0.247s-0.366-0.097-0.469-0.246l-0.001-0.002c-0.023-0.057-0.036-0.122-0.036-0.191 0-0.281 0.218-0.51 0.494-0.529l0.002-0z"></path>
<path fill="#1d1d1b" d="M34.83 30.090c0.011-0.001 0.025-0.002 0.038-0.002 0.271 0 0.49 0.219 0.49 0.49 0 0.085-0.022 0.165-0.059 0.234l0.001-0.003c-0.098 0.17-0.279 0.282-0.486 0.282-0.186 0-0.351-0.091-0.453-0.23l-0.001-0.002c-0.033-0.067-0.052-0.147-0.052-0.23 0-0.292 0.231-0.529 0.521-0.54h0.001z"></path>
<path fill="#1d1d1b" d="M30.76 30.28c0.015-0.002 0.032-0.002 0.049-0.002 0.271 0 0.49 0.219 0.49 0.49 0 0.085-0.022 0.165-0.060 0.235l0.001-0.003c-0.102 0.165-0.282 0.274-0.487 0.274-0.184 0-0.348-0.087-0.452-0.223l-0.001-0.001c-0.033-0.068-0.052-0.147-0.052-0.231 0-0.288 0.226-0.524 0.51-0.539l0.001-0z"></path>
<path fill="#1d1d1b" d="M27.66 28.090c0.015-0.002 0.032-0.002 0.049-0.002 0.271 0 0.49 0.219 0.49 0.49 0 0.085-0.022 0.165-0.060 0.235l0.001-0.003c-0.098 0.17-0.279 0.282-0.486 0.282-0.186 0-0.351-0.091-0.453-0.23l-0.001-0.002c-0.033-0.068-0.052-0.147-0.052-0.231 0-0.288 0.226-0.524 0.51-0.539l0.001-0z"></path>
<path fill="#1d1d1b" d="M26 24.84c0.015-0.002 0.032-0.002 0.049-0.002 0.271 0 0.49 0.219 0.49 0.49 0 0.085-0.022 0.165-0.060 0.235l0.001-0.003c-0.098 0.17-0.279 0.282-0.486 0.282-0.186 0-0.351-0.091-0.453-0.23l-0.001-0.002c-0.033-0.068-0.052-0.147-0.052-0.231 0-0.288 0.226-0.524 0.51-0.539l0.001-0z"></path>
<path fill="#1d1d1b" d="M26.18 20.82c0.015-0.002 0.032-0.002 0.049-0.002 0.271 0 0.49 0.219 0.49 0.49 0 0.085-0.022 0.165-0.060 0.235l0.001-0.003c-0.102 0.165-0.282 0.274-0.487 0.274-0.184 0-0.348-0.087-0.452-0.223l-0.001-0.001c-0.033-0.068-0.052-0.147-0.052-0.231 0-0.288 0.226-0.524 0.51-0.539l0.001-0z"></path>
<path fill="#1d1d1b" d="M27.93 17.68c0.015-0.002 0.032-0.002 0.049-0.002 0.271 0 0.49 0.219 0.49 0.49 0 0.085-0.022 0.165-0.060 0.235l0.001-0.003c-0.104 0.15-0.276 0.247-0.47 0.247s-0.366-0.097-0.469-0.246l-0.001-0.002c-0.023-0.057-0.036-0.122-0.036-0.191 0-0.281 0.218-0.51 0.494-0.529l0.002-0z"></path>
<path fill="#1d1d1b" d="M30.14 16c0.015-0.002 0.032-0.002 0.049-0.002 0.271 0 0.49 0.219 0.49 0.49 0 0.085-0.022 0.165-0.060 0.235l0.001-0.003c-0.104 0.15-0.276 0.247-0.47 0.247s-0.366-0.097-0.469-0.246l-0.001-0.002c-0.023-0.057-0.036-0.122-0.036-0.191 0-0.281 0.218-0.51 0.494-0.529l0.002-0z"></path>
</svg>
