<!-- Generated by IcoMoon.io -->
<svg version="1.1" xmlns="http://www.w3.org/2000/svg" width="64" height="64" viewBox="0 0 64 64">
<path fill="#1d1d1b" d="M21.83 26.32l-2.75-2.25s-3.91 4.33-4.91 5-2 0.83-3.8-0.54-7.83-8.21-7.83-9.63 7.71-9.5 9.33-11.25 3-4 5.3-3.37 10.37 6.91 10.83 7.91 0 2.59-1.79 4.63-4.55 4.58-4.55 4.58l2.8 2.34s5.25-5.84 5.7-6.42 3.050-2.5 5.21-0.92 11.090 9.21 11.63 9.6c0.922 0.556 1.529 1.552 1.529 2.69 0 0.772-0.28 1.479-0.743 2.025l0.004-0.005c-1.87 2.62-7.46 8.33-7.33 8.41s2.66 2.5 2.66 2.5 5.38-6.79 6-7.37c0.673-0.745 1.642-1.211 2.72-1.211 0.906 0 1.736 0.33 2.375 0.875l-0.005-0.004c2.529 1.872 4.751 3.895 6.754 6.12l0.036 0.040c0.38 0.67 1 1.71-0.71 4s-11.87 14.54-12.5 15.12-2 1.090-3.87 0.050c-2.807-2.004-5.27-4.028-7.588-6.205l0.038 0.035c-0.37-0.42-1.2-0.71-0.25-2.21s5.13-6.54 5.17-6.79c-0.829-1.135-1.761-2.121-2.802-2.978l-0.028-0.022c-1.652 2.281-3.419 4.286-5.358 6.11l-0.022 0.020c-2.080 1.8-2.79 2.37-4.21 2.12s-6.080-4.46-6.080-4.46l-0.83 0.88c1.613 1.667 2.701 3.85 2.995 6.278l0.005 0.052c0.25 3.62-1 6-1.33 6s-7.92-6.21-7.92-6.21-2.71 2.75-3.21 3.21l-0.67 0.58s1.38 2.63-1.33 3.46-3.67-1.11-3.5-2.54 2-2.21 2.41-2.29c0.158-0.023 0.34-0.036 0.525-0.036s0.367 0.013 0.545 0.039l-0.020-0.002 2.62-5.28s-5.79-5.1-5.87-5.72 0.87-1.5 3.16-1.59 8.050 1.75 8.050 1.75l1.16-1.79s-3.21-2.87-3.79-3.46c-0.4-0.406-0.647-0.964-0.647-1.579 0-0.397 0.103-0.769 0.283-1.093l-0.006 0.011c0.5-1.25 6.41-9.21 6.41-9.21z"></path>
<path fill="#cbe7f5" d="M4.54 18.82c-0.080-0.38 1.79-2.42 2-2.29s1.84 1.37 1.67 1.58-2.040 2.71-2.21 2.58c-0.548-0.548-1.031-1.161-1.436-1.827l-0.024-0.043z"></path>
<path fill="#cbe7f5" d="M6.58 21.36c0.754-0.99 1.621-1.841 2.595-2.555l0.035-0.025c0.16 0.12 2.66 2.41 2.58 2.71-0.747 1.193-1.572 2.228-2.501 3.161l0.001-0.001c-0.17-0.080-2.71-3.25-2.71-3.29z"></path>
<path fill="#cbe7f5" d="M9.92 25.19c0.903-1.096 1.855-2.076 2.881-2.975l0.029-0.025c0.21 0.090 3 2.71 2.88 3s-2 3.090-3.17 2.59c-1.056-0.678-1.931-1.544-2.6-2.557l-0.020-0.033z"></path>
<path fill="#cbe7f5" d="M7.29 15.36c-0.070-0.2 2.080-2.54 2.38-2.46s1.87 1.25 1.7 1.54-2.080 2.88-2.37 2.75c-0.624-0.556-1.184-1.154-1.687-1.8l-0.023-0.030z"></path>
<path fill="#cbe7f5" d="M10.58 11.82c0.753-0.876 1.544-1.667 2.391-2.395l0.029-0.025c0.17 0.090 1.79 1.46 1.62 1.63s-2.16 2.71-2.33 2.58c-0.602-0.562-1.161-1.146-1.685-1.76l-0.025-0.030z"></path>
<path fill="#cbe7f5" d="M13.62 8.44s1.88-2.5 2.59-2.44 2.33 0.87 2.16 1.080c-0.957 1.063-1.937 2.043-2.965 2.969l-0.036 0.031c-0.63-0.534-1.201-1.069-1.743-1.633l-0.007-0.007z"></path>
<path fill="#cbe7f5" d="M9.92 18.11c0 0.27 2.16-3 2.37-2.87s3.17 2.12 3 2.41c-0.867 1.2-1.81 2.251-2.853 3.195l-0.017 0.015c-0.090-0.17-2.5-2.79-2.5-2.75z"></path>
<path fill="#cbe7f5" d="M13.25 21.28c0.17-0.17 3-2.79 3-2.79s3.080 2.41 3 2.75c-0.845 1.197-1.763 2.245-2.778 3.189l-0.012 0.011c-0.17-0.080-3.21-3.16-3.21-3.16z"></path>
<path fill="#cbe7f5" d="M13 14.4c0.735-0.95 1.543-1.783 2.434-2.519l0.026-0.021c1.085 0.777 2.036 1.612 2.901 2.53l0.009 0.010c-0.698 0.921-1.419 1.737-2.196 2.496l-0.004 0.004c-1.186-0.816-2.22-1.637-3.195-2.522l0.025 0.022z"></path>
<path fill="#cbe7f5" d="M16.25 10.78c-0.050-0.14 3.21-3.25 3.21-3.25 1.189 0.793 2.22 1.586 3.195 2.44l-0.035-0.030c-0.12 0.13-3.25 3.71-3.5 3.55s-2.83-2.59-2.87-2.71z"></path>
<path fill="#cbe7f5" d="M16.71 17.78s2.37-2.75 2.5-2.71 3.25 2.62 3.12 2.83c-0.75 0.946-1.513 1.791-2.325 2.585l-0.005 0.005c-1.222-0.877-2.295-1.766-3.304-2.723l0.014 0.013z"></path>
<path fill="#cbe7f5" d="M20 14.19c0.080-0.12 3.46-3.79 3.58-3.79s2.79 1.6 2.42 2.84c-0.731 1.459-1.665 2.703-2.783 3.754l-0.007 0.006c-0.13-0.060-3.21-2.81-3.21-2.81z"></path>
<path fill="#fab900" d="M19.71 23c-0.25-0.1 0.91-1.17 1.12-1.090 1.015 0.773 1.904 1.624 2.689 2.564l0.021 0.026c-0.31 0.397-0.638 0.75-0.993 1.074l-0.007 0.006s-2.62-2.47-2.83-2.58z"></path>
<path fill="#e7413e" d="M18.46 34.11c1.27-1.7 8-9.92 10.5-12.75s4.21-4.12 5.58-3.58 9.92 8.22 10.75 8.83 2 1.71 1.21 3.25-7.5 8.25-7.5 8.25c-0.231-0.715-0.516-1.334-0.863-1.911l0.023 0.041c-0.16 0-0.54 0.45-0.54 0.45 0.287 0.601 0.543 1.31 0.732 2.047l0.018 0.083c-0.080 0.17-1 1.17-1 1.17-0.221-0.932-0.478-1.726-0.79-2.492l0.040 0.112c-0.12 0-0.46 0.46-0.46 0.46s0.8 2.42 0.59 2.62-1.090 1.21-1.090 1.21l-0.75-2.21s-0.75 0.25-0.62 0.46c0.27 0.664 0.514 1.46 0.692 2.281l0.018 0.099c-0.091 0.191-0.202 0.356-0.332 0.502l0.002-0.002-1-2.46-0.55 0.58c0.323 0.686 0.636 1.516 0.888 2.372l0.032 0.128c-0.256 0.38-0.502 0.706-0.765 1.018l0.015-0.018-0.87-2.37s-0.55 0.16-0.5 0.41 0.83 2.29 0.66 2.54-0.54 0.88-0.54 0.88c-0.313-0.974-0.693-1.814-1.153-2.601l0.033 0.061c-0.21 0-0.59 0.33-0.55 0.46s1.13 2.5 0.92 2.7c-0.232 0.194-0.491 0.376-0.763 0.536l-0.027 0.014c-0.225-0.923-0.496-1.717-0.828-2.477l0.038 0.097c-0.17 0-0.75 0-0.67 0.17 0.264 0.742 0.455 1.604 0.537 2.498l0.003 0.042c-0.16 0-1-0.33-4.16-2.83s-8.3-7.38-8.42-8.090 1.080-2.080 1.46-2.58z"></path>
<path fill="#e6e4da" d="M9.92 43.36c0.070-0.001 0.153-0.001 0.236-0.001 2.103 0 4.126 0.337 6.021 0.96l-0.136-0.039c2.75 0.83 3.71 1.41 5 3.25 1.008 1.766 1.715 3.835 1.992 6.038l0.008 0.082c0 0.63 0 1.38-0.25 1.29s-1.17-0.62-1.13-0.75 0.25-3.12 0-3.41c-0.239-0.21-0.513-0.391-0.809-0.531l-0.021-0.009c-0.001 1.087-0.078 2.156-0.224 3.202l0.014-0.121-0.62-0.63c0.009-0.172 0.014-0.374 0.014-0.577 0-0.661-0.052-1.31-0.153-1.943l0.009 0.070c-0.17-0.13-0.58-0.42-0.71-0.38s0 2.21-0.21 2.13-3.91-3.63-5.62-5.3-3.62-3.16-3.41-3.33z"></path>
<path fill="#92a0d1" d="M13.83 49.86c0.2-0.11 1.59 1.17 1.25 1.54-1.095 1.273-2.226 2.429-3.426 3.51l-0.034 0.030c-0.2 0-0.58 0-0.41-0.25s2.33-4.69 2.62-4.83z"></path>
<path fill="#e6e4da" d="M9.21 55.61c0.088-0.017 0.19-0.027 0.294-0.027 0.895 0 1.62 0.725 1.62 1.62 0 0.041-0.002 0.082-0.005 0.122l0-0.005c-0.2 0.87-2.2 1.62-2.91 0.54s0.37-2.040 1-2.25z"></path>
<path fill="#92a0d1" d="M20.5 42.61c0.15-0.15 1.87 1.29 1.62 1.54s-0.58 0.63-0.75 0.59-0.91-0.67-1.25-0.8 0.17-1.12 0.38-1.33z"></path>
<path fill="#1d1d1b" d="M29.62 23.24c-0.21-0.43 2.67-3.17 3-3s0.79 0.080 0.59 0.45c-0.853 1.166-1.773 2.19-2.784 3.116l-0.016 0.014c-0.29 0-0.74-0.5-0.79-0.58z"></path>
<path fill="#1d1d1b" d="M33.83 29.11c-0.17-0.51 4-4.83 4.25-4.83s2.5 1.66 2.29 2.16-4.16 4.88-4.45 4.8c-0.812-0.599-1.504-1.303-2.071-2.102l-0.019-0.028z"></path>
<path fill="#1d1d1b" d="M37.58 32.24c0-0.19 4.21-5.13 4.54-5s2.25 1.54 2.090 1.87-4 5.25-4.29 5.17c-0.901-0.573-1.672-1.249-2.328-2.025l-0.012-0.015z"></path>
<path fill="#92a0d1" d="M38 25.65c0.23-0.070 1.17 0.88 1 1s-2.75 3.35-3 3.25-1.13-0.79-1-0.9c0.959-1.227 1.941-2.32 2.992-3.343l0.008-0.007z"></path>
<path fill="#92a0d1" d="M39 32c-0.26-0.070 3.12-3.54 3.33-3.5s0.92 0.5 0.79 0.66c-1.065 1.418-2.13 2.67-3.264 3.855l0.014-0.015c-0.16-0.1-0.75-0.93-0.87-1z"></path>
<path fill="#1d1d1b" d="M32 31.15c0.55-0.2 4.38 3.17 4.33 3.59s-6.5 8.5-7.12 9.080-1.46 0.87-1.79 0.62-4.42-3.62-4.13-4.44 8.080-8.6 8.71-8.85z"></path>
<path fill="#92a0d1" d="M32.21 32.070c0.18-0.18 3 2.62 3 2.79s-6.79 8.54-7.090 8.58-3.79-3.12-3.66-3.5 7.33-7.45 7.75-7.87z"></path>
<path fill="#1d1d1b" d="M25.87 39.82c0.17-0.080 3.38-4.17 3.55-4.13s0.45 0.21 0.29 0.38-3.42 4.54-3.59 4.46-0.25-0.71-0.25-0.71z"></path>
<path fill="#1d1d1b" d="M26.79 41s2.83-3.17 3-3.17 0.46 0.37 0.33 0.54c-0.934 1.234-1.848 2.319-2.814 3.355l0.023-0.026c-0.12-0.050-0.33-0.55-0.54-0.7z"></path>
<path fill="#fab900" d="M40 39.86c0.2-0.1 2.71 2.25 2.58 2.5s-0.5 0.92-0.62 0.83c-0.979-0.787-1.852-1.619-2.651-2.518l-0.019-0.022c0.212-0.296 0.446-0.555 0.705-0.786l0.005-0.004z"></path>
<path fill="#cbe7f5" d="M47.87 38.78c-0.1-0.16 2.92-4 3.8-4s2.45 1.41 2.45 1.41-3.45 5-3.66 4.92c-0.945-0.754-1.789-1.517-2.586-2.326l-0.004-0.004z"></path>
<path fill="#cbe7f5" d="M51.42 41.61c1.23-1.713 2.474-3.216 3.81-4.631l-0.020 0.021c0.21 0 1.79 1.41 1.71 1.62-1.188 1.791-2.369 3.34-3.64 4.809l0.050-0.059c-0.709-0.538-1.334-1.115-1.899-1.747l-0.011-0.013z"></path>
<path fill="#cbe7f5" d="M54.17 43.94c0.2-0.29 3.58-4.62 3.58-4.62s2.29 1.42 2 2.21c-1.042 1.635-2.197 3.054-3.496 4.326l-0.004 0.004c-0.080-0.040-2.080-1.92-2.080-1.92z"></path>
<path fill="#cbe7f5" d="M47 39.94c1.080 0.647 1.991 1.453 2.734 2.399l0.016 0.021c-0.816 1.11-1.649 2.089-2.545 3.005l0.005-0.005c-1.096-0.715-2.049-1.456-2.938-2.266l0.018 0.016c0.869-1.171 1.757-2.205 2.713-3.173l-0.003 0.003z"></path>
<path fill="#cbe7f5" d="M48 46c0.895-1.111 1.807-2.106 2.779-3.040l0.011-0.010c0.17 0.090 1.79 1.34 1.67 1.55s-2.59 3.37-2.75 3.2z"></path>
<path fill="#cbe7f5" d="M50.5 48.24s2.75-3.38 2.87-3.34c0.77 0.621 1.443 1.311 2.029 2.071l0.021 0.029c-0.845 1.277-1.723 2.391-2.685 3.426l0.015-0.016c-0.13-0.050-2.080-2.050-2.25-2.17z"></path>
<path fill="#cbe7f5" d="M49.67 49.49c0.832 0.622 1.568 1.278 2.242 1.992l0.008 0.008c-0.090 0.16-1.55 2.46-1.88 2.29s-2.67-1.88-2.54-2c0.695-0.827 1.404-1.574 2.156-2.277l0.014-0.013z"></path>
<path fill="#cbe7f5" d="M46.62 52.82c0.964 0.675 1.81 1.371 2.597 2.127l-0.007-0.007c-0.090 0.17-1.34 1.75-2 2.5s-1.21 1.050-2.13 0.56-1.83-1.21-1.71-1.5 3.25-3.68 3.25-3.68z"></path>
<path fill="#cbe7f5" d="M41.67 46.86c0-0.21 2-2.71 2.29-2.62s2.54 1.87 2.37 2.080-2 2.5-2.29 2.5c-0.901-0.568-1.679-1.216-2.363-1.953l-0.007-0.007z"></path>
<path fill="#cbe7f5" d="M44.87 49.32c0.72-0.883 1.473-1.673 2.281-2.403l0.019-0.017c0.16 0.090 1.75 1.5 1.66 1.71s-1.83 2.39-2.080 2.29c-0.695-0.518-1.308-1.036-1.888-1.588l0.008 0.008z"></path>
<path fill="#cbe7f5" d="M44 50.65c0.33 0.090 1.91 1.29 1.75 1.5s-2.84 3.63-3.17 3.54-1.54-0.87-1.46-1.12 2.88-3.92 2.88-3.92z"></path>
<path fill="#cbe7f5" d="M40.67 47.94c0.16 0.090 2.75 2.050 2.54 2.25s-2.75 3.75-3.090 3.67-2.5-1.5-2.2-2.25c0.893-1.383 1.799-2.58 2.782-3.708l-0.032 0.038z"></path>
</svg>
