<!-- Generated by IcoMoon.io -->
<svg version="1.1" xmlns="http://www.w3.org/2000/svg" width="64" height="64" viewBox="0 0 64 64">
<path fill="#1d1d1b" d="M17.79 22.85s1.34-3.47 6.22-6.13 9.59-2.59 13.44-2.15 6.12 2.37 8.090 5.69c1.029 1.518 1.764 3.32 2.080 5.263l0.010 0.077s6.41 0.81 10 2.91 2.28 4.65 1.57 6.060-2.35 3.59-6.72 4.69l-5.72 1.43c-1.117 2.835-3.135 5.115-5.695 6.537l-0.065 0.033c-4.22 2.15-9.72 3.65-15.75 0.93s-8.41-9-8.41-9c-3.333-0.484-6.307-1.724-8.84-3.541l0.060 0.041c-3.8-2.97-5.18-5.43-3.060-8.62s8.85-4 12.79-4.22z"></path>
<path fill="#ddc07c" d="M21.6 21.6c-0.25 0-0.65-0.31-0.59-0.5s4.59-4.47 9.56-5.1 6.88 1.53 8.53 2.4 3.5 1.25 3.53 1.53 0 0.41-0.4 0.53-4.070-0.56-6.35-0.46-3.28 1.12-4.72 1.56c-0.956 0.209-2.054 0.328-3.18 0.328-0.73 0-1.448-0.050-2.151-0.147l0.081 0.009c-1.56-0.15-4.31-0.15-4.31-0.15z"></path>
<path fill="#ffe19b" d="M19.51 23.22c0.777-0.281 1.673-0.444 2.608-0.444 0.293 0 0.582 0.016 0.867 0.047l-0.035-0.003c2.090 0.15 4.060 0.94 6.81 0.5s4.4-1.88 6.56-1.91 3.38 0.41 5.090 0.41 2-0.31 2.35-0.1c0.712 0.906 1.276 1.968 1.632 3.121l0.018 0.069c0.47 1.38 0.47 2.19 0.32 2.28-0.338 0.155-0.733 0.246-1.15 0.246-0.134 0-0.266-0.009-0.395-0.028l0.015 0.002c-0.38-0.15-0.57-1.25-3.85-1-1.264 0.149-2.739 0.239-4.234 0.25l-0.016 0c-1.19 0-1.56-1.060-5-0.62s-3.87 1.34-5.68 0.65-1.19-2-3.82-1.62-3.15 0.75-3.4 0.65 1.060-2.4 1.31-2.5z"></path>
<path fill="#e6e4da" d="M18.41 27.070c0.33-0.1 3.16-1 4.19-0.44s2.16 2.25 4.38 2.060 3.090-1.56 5.93-1.12 2.91 0.62 4.19 0.59 3-0.65 4.47 0 1.53 0.88 2.22 0.84 1.78-0.53 2-0.34 0.72 2.19 0.5 2.38-0.91 1.090-9.13 1.060c-0.304 0.004-0.663 0.005-1.022 0.005-5.121 0-10.147-0.402-15.050-1.176l0.543 0.071c-2.87-0.43-4.25-0.71-4.34-1.31s0.31-2.37 1.12-2.62z"></path>
<path fill="#ffe19b" d="M16.51 24.44c0.13 0 0 0.5-0.1 0.88s-0.56 1.28-0.56 1.28-1.84 0.16-2.37 1.060-0.25 2.34 2.65 3.34c4.623 1.699 9.962 2.682 15.53 2.682 0.144 0 0.288-0.001 0.431-0.002l-0.022 0c8.28 0.13 11.38 0.35 14.59-0.84s4.32-2.66 3.91-3.37-1-1-1-1.13 0.19-0.31 0.69-0.34c2.407 0.209 4.601 0.97 6.502 2.156l-0.062-0.036c2.090 1.56 1.53 3.41 0.060 4.75s-3.76 3.2-10.41 3.79c-3.154 0.227-6.835 0.356-10.545 0.356s-7.391-0.129-11.037-0.384l0.491 0.028c-5.361-0.389-10.336-1.591-14.952-3.487l0.322 0.117c-3.53-1.35-5.28-3.75-4.53-6.19s5.16-4.59 10.41-4.66z"></path>
<path fill="#ffe19b" d="M18.91 39.57c0.050-0.26 4.1 0.81 11.44 1s14.53-0.28 14.56-0.060c-0.184 0.748-0.532 1.398-1.004 1.935l0.004-0.005c-1.652 0.618-3.562 1.014-5.552 1.099l-0.038 0.001c-2.090 0-0.94-0.91-6-1-2.257-0.032-4.442-0.227-6.576-0.574l0.256 0.034c-0.217-0.040-0.466-0.063-0.72-0.063-0.811 0-1.567 0.232-2.207 0.633l0.017-0.010c-0.94 0.5-1.22 0.81-1.53 0.69s-2.83-2.62-2.65-3.68z"></path>
<path fill="#ddc07c" d="M23.070 44.44s-0.19-0.9 1.91-0.93 3.59 0.28 6 0.21c0.271-0.031 0.584-0.049 0.902-0.049 0.974 0 1.908 0.168 2.776 0.477l-0.058-0.018c0.63 0.22 0.5 0.78 3.090 0.75s4.91-0.69 4.85-0.41c-0.902 0.805-1.946 1.477-3.085 1.971l-0.075 0.029c-0.569 0.262-1.231 0.428-1.928 0.46l-0.011 0c-0.57-0.649-1.161-1.24-1.788-1.791l-0.022-0.019c-0.22-0.060-1 0.22-0.9 0.35s1.9 1.56 1.68 1.71c-0.307 0.152-0.669 0.241-1.051 0.241-0.112 0-0.223-0.008-0.332-0.023l0.013 0.001c-0.13-0.12-2.13-2.56-2.35-2.62s-0.69 0.13-0.69 0.22 2.37 2.62 2.25 2.65c-0.307 0.080-0.677 0.147-1.056 0.187l-0.034 0.003c-0.1 0-2.29-2.47-2.38-2.44s-0.78 0.28-0.72 0.44 1.47 1.84 1.28 1.94c-1.959-0.083-3.785-0.58-5.416-1.405l0.076 0.035c-2.68-1.25-3-1.65-2.93-1.97z"></path>
<path fill="#1d1d1b" d="M28.41 19.19c-0.060-0.22-0.9-0.25-1.59-0.12-0.64 0.124-1.201 0.398-1.666 0.785l0.006-0.005c-0.060 0.12 0.38 0.53 0.57 0.56s0.28-0.12 0.87-0.44 1.56-0.15 1.81-0.28 0.070-0.28 0-0.5zM32.73 18.41c0.021-0 0.045-0 0.069-0 0.592 0 1.176 0.036 1.749 0.107l-0.069-0.007c0.37-0.070 0.22-0.19 0.28-0.47s-0.16-0.28-1.13-0.41c-0.281-0.072-0.603-0.113-0.935-0.113s-0.654 0.041-0.962 0.119l0.027-0.006c-0.16 0.13 0 0.75 0.15 0.85s0.22 0.060 0.82-0.070zM31.85 24.85c0.070 0.033 0.152 0.052 0.238 0.052 0.251 0 0.465-0.163 0.54-0.388l0.001-0.004c0.1-0.38-0.050-0.71-0.65-0.44s-0.38 0.65-0.13 0.78zM34.26 23.69c-0.56 0.16-0.63 0.72-0.38 0.91s0.47 0.19 0.82-0.13c0.091-0.084 0.148-0.205 0.148-0.338 0-0.254-0.206-0.46-0.46-0.46-0.046 0-0.090 0.007-0.132 0.019l0.003-0.001zM36.8 23.77c0.102-0.085 0.166-0.212 0.166-0.354 0-0.254-0.206-0.46-0.46-0.46-0.052 0-0.102 0.009-0.149 0.025l0.003-0.001c-0.56 0.16-0.62 0.72-0.37 0.91s0.47 0.19 0.81-0.12zM36.8 25.31c0.25 0.19 0.47 0.19 0.81-0.13 0.089-0.084 0.144-0.203 0.144-0.334 0-0.254-0.206-0.46-0.46-0.46-0.041 0-0.080 0.005-0.117 0.015l0.003-0.001c-0.55 0.16-0.61 0.72-0.36 0.91zM39.26 23.14c0.091-0.084 0.148-0.205 0.148-0.338 0-0.254-0.206-0.46-0.46-0.46-0.046 0-0.090 0.007-0.132 0.019l0.003-0.001c-0.56 0.16-0.62 0.72-0.37 0.91s0.48 0.18 0.83-0.13zM40.72 24.6c0.091-0.084 0.148-0.205 0.148-0.338 0-0.254-0.206-0.46-0.46-0.46-0.046 0-0.090 0.007-0.132 0.019l0.003-0.001c-0.56 0.15-0.63 0.72-0.38 0.9s0.49 0.19 0.84-0.12zM39.030 24.86c-0.56 0.16-0.63 0.72-0.38 0.91s0.47 0.18 0.82-0.13c0.087-0.084 0.141-0.201 0.141-0.331 0-0.254-0.206-0.46-0.46-0.46-0.036 0-0.070 0.004-0.104 0.012l0.003-0.001zM42.4 23.16c0.089-0.084 0.144-0.203 0.144-0.334 0-0.254-0.206-0.46-0.46-0.46-0.041 0-0.080 0.005-0.117 0.015l0.003-0.001c-0.57 0.16-0.63 0.72-0.38 0.91s0.49 0.18 0.83-0.13zM43.74 24.66c0.091-0.084 0.148-0.205 0.148-0.338 0-0.254-0.206-0.46-0.46-0.46-0.046 0-0.090 0.007-0.132 0.019l0.003-0.001c-0.56 0.16-0.62 0.72-0.37 0.91s0.48 0.21 0.83-0.13zM42.070 25.66c0.091-0.084 0.148-0.205 0.148-0.338 0-0.254-0.206-0.46-0.46-0.46-0.046 0-0.090 0.007-0.132 0.019l0.003-0.001c-0.56 0.16-0.62 0.72-0.37 0.91s0.49 0.21 0.83-0.11zM44.26 25.36c-0.56 0.16-0.63 0.72-0.38 0.91s0.47 0.18 0.82-0.13c0.073-0.081 0.117-0.189 0.117-0.306 0-0.254-0.206-0.46-0.46-0.46-0.027 0-0.054 0.002-0.080 0.007l0.003-0zM20.41 28.16c-0.293 0.096-0.5 0.366-0.5 0.686 0 0.002 0 0.003 0 0.005v-0c0.070 0.19 0.38 0.16 1.13 0.25 0.97 0.158 2.144 0.28 3.336 0.337l0.074 0.003c0.34-0.060 0.21-0.060 0.18-0.28-1.218-0.448-2.644-0.799-4.12-0.989l-0.1-0.011zM28.32 30.66c0.25 0.1 0.25 0.13 1.78 0.22 0.45 0.052 0.972 0.081 1.5 0.081s1.050-0.029 1.563-0.087l-0.063 0.006c0.22-0.090 0-0.34-0.060-0.53s-0.53 0-1.53-0.060c-0.911-0.169-1.968-0.274-3.046-0.29l-0.014-0c-0.16 0.070-0.38 0.57-0.13 0.66zM41.79 30c-0.299 0.019-0.648 0.030-1 0.030s-0.701-0.011-1.047-0.032l0.047 0.002c-0.13 0-0.44 0.66-0.31 0.79 0.254 0.028 0.548 0.044 0.847 0.044 0.539 0 1.065-0.053 1.575-0.153l-0.051 0.008c0.841-0.028 1.637-0.107 2.418-0.235l-0.108 0.015c0.19-0.090-0.15-0.43-0.28-0.56-0.198-0.015-0.428-0.024-0.66-0.024-0.505 0-1 0.042-1.482 0.121l0.052-0.007zM15.6 29l0.25-0.9c-0.19 0-0.9 0.15-0.78 0.4 0.146 0.178 0.322 0.325 0.521 0.435l0.009 0.005zM14 32.13c0.31-0.16 0.15-0.19 0-0.41s-2-0.4-2.71-1.43 0.68-2.19 0.78-2.35-0.53-0.26-0.72-0.15c-0.699 0.322-1.176 1.016-1.176 1.823 0 0.388 0.11 0.75 0.301 1.056l-0.005-0.008c0.73 1.72 3.16 1.63 3.53 1.47zM8 30.44c-0.090-0.81 0.56-1.4 0.62-1.62s-0.080-0.22-0.62-0.22c-0.503 0.522-0.83 1.219-0.88 1.991l-0 0.009c-0.12 1.31 1.29 1.66 1.39 1.72s0.5-0.13 0.69-0.31-0.16-0.16-0.44-0.32c-0.455-0.24-0.759-0.709-0.76-1.25v-0zM16.25 35.38c-1.426-0.258-2.684-0.842-3.738-1.674l0.018 0.014c-0.22 0-0.69 0.66-0.69 0.94s0.57 0.5 2.85 1.22c1.485 0.488 3.277 0.914 5.116 1.196l0.194 0.025c0.31 0 0.37-0.81 0.34-0.91-1.069-0.291-2.44-0.574-3.834-0.783l-0.216-0.027zM35.87 36.47c-4.78-0.060-8.47-0.8-9-0.75-0.32 0-0.29 1 0 1.070s1.19 0.28 7.6 0.59 7.4-0.22 7.53-0.28 0.090-0.47 0-0.69-1.3 0.13-6.090 0.060zM54.6 31.82c-0.31 0-2.34 1.69-4.47 2.56s-4.15 0.6-4.37 0.88-0.060 0.81 0.37 0.87c1.894-0.194 3.632-0.647 5.251-1.325l-0.121 0.045c1.49-0.596 2.759-1.454 3.808-2.528l0.002-0.002c0.060-0.13-0.16-0.47-0.47-0.5zM38 45.35c-0.015-0.001-0.033-0.001-0.051-0.001-0.23 0-0.449 0.044-0.651 0.125l0.012-0.004c-0.16 0.13 0.62 0.82 0.62 0.82 0.369-0.026 0.71-0.127 1.014-0.287l-0.014 0.007c0.23-0.22-0.67-0.63-0.93-0.66z"></path>
</svg>
