<!-- Generated by IcoMoon.io -->
<svg version="1.1" xmlns="http://www.w3.org/2000/svg" width="64" height="64" viewBox="0 0 64 64">
<path fill="#1d1d1b" d="M51.68 14c-6.090-7.43-12.79-9.43-16.68-9.43s-11.080 0.88-15.13 3.17-9.33 7.63-11.37 11.5c-1.797 3.277-2.855 7.18-2.855 11.33 0 1.847 0.209 3.645 0.606 5.371l-0.031-0.161c0.961 4.134 2.852 7.731 5.445 10.699l-0.025-0.029s-3.5 5.71-0.75 8.37c1.402 1.438 3.358 2.329 5.522 2.329 1.269 0 2.466-0.306 3.521-0.849l-0.043 0.020s3.34 2.84 11.050 3.090 11.33-1.92 16-6 9.12-8.54 10.83-17.38-0.010-14.62-6.090-22.030zM50.47 47.53c-5.29 6.54-10.54 8.75-14 9.79s-10.17 0.17-12.080-0.54c-1.147-0.411-2.124-1.050-2.918-1.868l-0.002-0.002s3.65-5.56-1.21-9c-4-2.84-7.080-0.34-7.080-0.34-2.81-3.092-4.69-7.075-5.172-11.479l-0.008-0.091c-0.54-6.79 0.79-12.17 3.37-15.62s7.59-11.75 22.59-12c3.54-0.060 8.37 1.25 13.21 5.37s8.38 9.74 8.83 15.74-0.24 13.51-5.53 20.040zM55.47 8.32c0.070-0.213 0.11-0.458 0.11-0.712 0-1.303-1.057-2.36-2.36-2.36-0.268 0-0.526 0.045-0.767 0.127l0.017-0.005c-1.087 0.27-1.88 1.238-1.88 2.391 0 0.506 0.153 0.977 0.415 1.368l-0.006-0.009c0.68 0.88 4 1.66 4.47-0.8z"></path>
<path fill="#85bfe9" d="M52.64 6.41c0.148-0.050 0.318-0.079 0.494-0.079 0.695 0 1.286 0.446 1.502 1.068l0.003 0.011c0.013 0.072 0.021 0.154 0.021 0.238 0 0.762-0.618 1.38-1.38 1.38-0.234 0-0.455-0.058-0.648-0.161l0.007 0.004c-1.5-0.63-0.88-2.050 0-2.46z"></path>
<path fill="#1d1d1b" d="M37.59 10.45c1-0.73 2.13 0.54 2.13 1.25s-1.25 1.29-1.92 0.92c-0.424-0.217-0.708-0.651-0.708-1.151 0-0.413 0.194-0.78 0.496-1.016l0.003-0.002z"></path>
<path fill="#1d1d1b" d="M46.64 14.66c1-0.34 2.58 0.12 2.54 2.16s-2.79 1.75-3.42 0.75c-0.217-0.309-0.346-0.692-0.346-1.106 0-0.814 0.502-1.512 1.213-1.799l0.013-0.005z"></path>
<path fill="#e6e4da" d="M47 15.54c0.087-0.027 0.187-0.043 0.29-0.043 0.552 0 1 0.448 1 1 0 0.050-0.004 0.1-0.011 0.149l0.001-0.006c0 1-1.41 0.89-1.73 0.38-0.106-0.156-0.169-0.349-0.169-0.556 0-0.415 0.252-0.77 0.612-0.922l0.007-0.002z"></path>
<path fill="#1d1d1b" d="M26.43 49.7c1-0.34 2.58 0.12 2.54 2.17s-2.79 1.75-3.42 0.75c-0.201-0.307-0.321-0.683-0.321-1.087 0-0.816 0.488-1.517 1.188-1.828l0.013-0.005z"></path>
<path fill="#e6e4da" d="M26.76 50.58c0.075-0.020 0.16-0.031 0.249-0.031 0.552 0 1 0.448 1 1 0 0.046-0.003 0.092-0.009 0.137l0.001-0.005c0 1-1.41 0.89-1.73 0.38-0.101-0.153-0.16-0.341-0.16-0.543 0-0.427 0.267-0.791 0.643-0.935l0.007-0.002z"></path>
<path fill="#ddc07c" d="M14.090 47c1.89-1.17 5-0.37 5.88 0.92s0.75 4 0.5 4.79c-0.175 0.527-0.495 0.967-0.913 1.285l-0.006 0.005s-1-4-1.33-4.080-0.83 0-0.83 0.2 1.37 4.46 1.16 4.63c-0.179 0.13-0.382 0.254-0.596 0.359l-0.024 0.011s-1.34-4.54-1.59-4.58-0.83 0.38-0.7 0.5 1.54 4.42 1.29 4.46-0.67 0.12-0.75 0-1.46-4.25-1.63-4.25-1 0.33-0.87 0.5 1.21 3.42 1 3.46c-1.468-0.475-2.537-1.766-2.679-3.325l-0.001-0.015c-0.042-0.241-0.066-0.518-0.066-0.8 0-1.685 0.847-3.172 2.139-4.059l0.017-0.011z"></path>
<path fill="#1d1d1b" d="M19.26 49.53c0.29-0.16 0.88-0.25 0.83-0.080s-0.090 1.87-0.090 1.87c-0.031 0.008-0.067 0.013-0.104 0.013-0.177 0-0.329-0.107-0.395-0.26l-0.001-0.003c-0.102-0.432-0.187-0.957-0.236-1.493l-0.004-0.047z"></path>
<path fill="#1d1d1b" d="M48.51 29.12c-0.5-6.63-5-8.55-5-8.55s1.58-3.57-1.42-5.57-6.090 1.16-6.090 1.16c-4.75-1.25-9.33-0.84-13.54 2.37-4.268 3.517-6.975 8.795-7 14.706v0.004c0.090 5.42 3.54 10.17 9.54 13.54s13.8 1.42 17.76-1.41 6.24-9.63 5.75-16.25zM38.76 45.37c-4.67 1.87-12.54 1.7-16.83-2.84s-5.46-10.080-3.34-15.46 8.34-11.16 16.67-9.45c-0.057 0.239-0.090 0.513-0.090 0.795 0 1.556 1.001 2.879 2.395 3.358l0.025 0.007c3 1 4.63 0.21 4.63 0.21s4.5 2.25 4.58 8.92-3.37 12.58-8.040 14.46z"></path>
<path fill="#cbe7f5" d="M38.68 16c0.264-0.093 0.569-0.147 0.886-0.147 0.917 0 1.729 0.449 2.229 1.139l0.005 0.008c0.84 1.29-0.41 3.13-0.83 3.38s-1.42-0.17-1.42-0.17-0.29-2.090-0.55-2.21-1-0.12-0.83 0.090 0.33 1.95 0.16 1.87c-0.635-0.533-1.064-1.294-1.159-2.155l-0.001-0.015c0.068-0.869 0.682-1.578 1.496-1.787l0.014-0.003z"></path>
<path fill="#1d1d1b" d="M40 17.45c-0.070-0.26 0.67-0.42 0.75-0.080s0.33 1.66 0.080 1.87-0.75 0.21-0.79 0-0.040-1.62-0.040-1.79z"></path>
<path fill="#1d1d1b" d="M31.51 22.57c-0.090-0.13-0.17-3.16 0.17-3.16s0.87-0.25 1 0.12c0.045 0.371 0.071 0.8 0.071 1.236 0 0.655-0.059 1.297-0.171 1.92l0.010-0.065c-0.25 0.12-0.91 0.2-1.080-0.050z"></path>
<path fill="#1d1d1b" d="M26.090 20.53c0-0.13 0.71-0.41 0.92-0.25 0.51 0.781 0.912 1.688 1.157 2.658l0.013 0.062c-0.13 0.21-0.46 0.58-0.71 0.42-0.571-0.83-1.041-1.789-1.36-2.814l-0.020-0.076z"></path>
<path fill="#1d1d1b" d="M22.68 23.66s2.33 0.71 2.33 1c-0.049 0.301-0.165 0.568-0.333 0.795l0.003-0.005c-1.045-0.304-1.931-0.644-2.781-1.047l0.111 0.047c-0.010-0.080 0.38-0.67 0.67-0.79z"></path>
<path fill="#1d1d1b" d="M19.89 28.66c0.2 0 2.83 0.5 2.91 0.79s0.13 0.92-0.12 0.92c-1.15-0.135-2.169-0.329-3.162-0.585l0.162 0.035c-0.25-0.12 0.21-1.16 0.21-1.16z"></path>
<path fill="#1d1d1b" d="M20.050 33.2c0.457-0.14 0.982-0.221 1.526-0.221 0.434 0 0.856 0.051 1.26 0.148l-0.037-0.007c0.090 0.2 0.25 0.75 0.090 0.87-0.781 0.185-1.677 0.291-2.599 0.291-0.053 0-0.106-0-0.159-0.001l0.008 0c-0.14-0.080-0.21-0.91-0.090-1.080z"></path>
<path fill="#1d1d1b" d="M22.22 39.87c0.55-0.877 1.259-1.602 2.094-2.154l0.026-0.016c0.21 0.12 0.55 0.37 0.46 0.67s-1.75 2.33-2.080 2.29-0.33-0.66-0.5-0.79z"></path>
<path fill="#1d1d1b" d="M28.18 42.74c-0.45 0 1.21-3.54 1.41-3.5s0.8 0.080 0.71 0.42c-0.367 1.297-0.793 2.406-1.305 3.465l0.055-0.125c-0.25 0.2-0.66-0.26-0.87-0.26z"></path>
<path fill="#1d1d1b" d="M33.14 39.57c0.15-0.15 1.080-0.5 1.16-0.16 0.216 1.126 0.34 2.42 0.34 3.744 0 0.002 0 0.005 0 0.007v-0c-0.17 0.080-1 0.12-1-0.090-0.247-1.019-0.425-2.217-0.497-3.443l-0.003-0.057z"></path>
<path fill="#1d1d1b" d="M38.55 37.070c-0.17-0.17 0.46-0.87 0.67-0.83s2.71 1.58 2.71 2-0.25 0.87-0.54 0.92c-1.072-0.643-2.001-1.333-2.856-2.104l0.016 0.014z"></path>
<path fill="#1d1d1b" d="M40.51 30.12c0-0.17 3.75 0 3.88 0.37 0.051 0.104 0.081 0.226 0.081 0.355s-0.030 0.251-0.083 0.36l0.002-0.005c-0.307 0.019-0.666 0.030-1.028 0.030-1.007 0-1.995-0.084-2.956-0.244l0.104 0.014c-0.21-0.18-0.040-0.63 0-0.88z"></path>
<path fill="#1d1d1b" d="M38.39 25c0.12-0.080 2.16-2 2.41-1.83 0.314 0.199 0.559 0.482 0.705 0.818l0.005 0.012c-0.717 0.645-1.524 1.213-2.395 1.678l-0.065 0.032c-0.241-0.215-0.457-0.448-0.651-0.698l-0.009-0.012z"></path>
<path fill="#1d1d1b" d="M28.93 25c2.7-1.15 10-0.33 10 6.46s-8.75 9-11.92 5.16-3.67-9.3 1.92-11.62z"></path>
<path fill="#fab900" d="M29.64 26.59c2-0.86 7.48-0.25 7.45 4.83s-6.54 6.71-8.91 3.87-2.72-6.92 1.46-8.7z"></path>
</svg>
