<!-- Generated by IcoMoon.io -->
<svg version="1.1" xmlns="http://www.w3.org/2000/svg" width="64" height="64" viewBox="0 0 64 64">
<path fill="#1d1d1b" d="M17.86 29c0-0.21 2.83-8.84 2.83-8.84s-0.6-4.9-0.36-5c0.264-0.047 0.569-0.074 0.879-0.074 0.074 0 0.148 0.002 0.221 0.005l-0.011-0s-0.34-2.91 0-3.050c0.368-0.104 0.791-0.165 1.227-0.165 0.273 0 0.54 0.023 0.8 0.069l-0.028-0.004c0 0.17-0.090 1.38 0 1.3s3.2-7.6 5.66-8.92 5.62-1.050 6.92 1.38 3.39 7.65 3.39 7.65 0-1.54 0.16-1.59 2.38 0.060 2.43 0.35-0.050 2.58-0.050 2.58 1.68 0.33 1.73 0.66-0.66 7.19-0.66 7.19 2.24 4.1 2.36 5.31-2.2 8.15-3.18 11.64-2.28 7.44-2.28 7.44l2.52-0.86c0.2-1.132 0.502-2.139 0.905-3.093l-0.035 0.093c0.884-0.722 1.677-1.468 2.416-2.265l0.014-0.015c1.38-1.37 1.49-1.92 1.49-1.92s-0.68-7.52-0.39-7.74c0.344-0.168 0.745-0.282 1.167-0.319l0.013-0.001s-0.26-1.74 0-1.91c0.3-0.034 0.649-0.053 1.002-0.053 0.708 0 1.398 0.078 2.062 0.225l-0.063-0.012c0 0.13 0.37-1.47 0.79-1.52s2.21 0.46 3.58 4.060 1.49 12.4-0.080 16.84-3.72 6.9-7.44 7.89-6.15 0.76-6.78 0.57-1.22-0.38-1.19-0.84 0.2-1.67 0.2-1.67h-2.79c-0.249 0.893-0.553 1.663-0.924 2.393l0.034-0.073c-0.325 0.084-0.699 0.133-1.084 0.133-0.118 0-0.235-0.005-0.351-0.014l0.015 0.001c-0.006 1.19-0.137 2.345-0.38 3.459l0.020-0.109c-0.24 0.17-5.95 0.46-6.16 0.14-0.266-1.045-0.498-2.33-0.647-3.64l-0.013-0.14s-1.54 0.090-1.63-0.12-1-2.89-1-2.89l-3-0.16c0.26 0.898 0.413 1.929 0.42 2.996v0.004c-0.19 0.46-4.93 0.89-8.56-0.67s-5.77-3.25-6.3-10-0.17-14.38 0.53-17.36 1.49-3.25 1.95-3.18c0.388 0.055 0.695 0.348 0.769 0.724l0.001 0.006c0 0.29 0.12 1.080 0.12 1.080s2.45-0.33 2.5 0.090c0.003 0.105 0.005 0.228 0.005 0.352 0 0.479-0.027 0.951-0.080 1.415l0.005-0.057s1.7-0.18 1.77 0.62 0.070 9.71 0.070 9.71c0.846 0.975 1.759 1.847 2.748 2.628l0.042 0.032c0.76 0.4 0.67 0.11 0.76 0.4s1 4.47 1.26 4.63c0.938 0.192 2.113 0.362 3.307 0.47l0.133 0.010s-5.020-13.090-5.76-18.27z"></path>
<path fill="#e6e4da" d="M32 4.94c2.33 0 3.41 2.57 5 6.23s6.54 16.77 6.57 17.9-8 26-8.24 26-0.49 0.060-0.5-0.15 2.63-12.58 2.56-13.58-3.84-13.44-4.32-14.010-3.23-0.61-3.63-0.22-2.84 15.38-2.74 16 2.87 11.34 2.54 11.43c-0.227 0.101-0.492 0.16-0.77 0.16-0.138 0-0.273-0.014-0.402-0.042l0.013 0.002c-0.34-0.16-7.69-23.45-7.91-25.28s2.8-10.88 4.6-14.85 4.060-9.62 7.23-9.59z"></path>
<path fill="#1d1d1b" d="M27.6 12.9c0.31-0.47 2.22-1.23 4.55-1.21 0.083-0.003 0.18-0.005 0.278-0.005 1.425 0 2.763 0.373 3.922 1.026l-0.040-0.021c0.090 0.16 2.82 7.92 2.45 8.1s-3.75-1.18-7.33-0.95-6.38 1.1-6.6 0.94 2.17-6.94 2.77-7.88z"></path>
<path fill="#cbe7f5" d="M32.1 12.65c0.049-0.001 0.107-0.002 0.165-0.002 1.246 0 2.419 0.315 3.443 0.871l-0.038-0.019c0.26 0.33 2 5.74 1.67 5.79-1.791-0.547-3.85-0.862-5.983-0.862-0.105 0-0.209 0.001-0.313 0.002l0.016-0c-3.2 0.22-4.8 1.27-4.81 1s1.83-6 2.16-6.14c1.035-0.406 2.235-0.642 3.489-0.642 0.071 0 0.141 0.001 0.212 0.002l-0.011-0z"></path>
<path fill="#1d1d1b" d="M28.6 10c0.080-0.25 1.53-3.3 1.91-3.35s0.78-0.32 0.54 0.11-1.41 3.080-1.65 3.24-0.8 0-0.8 0z"></path>
<path fill="#1d1d1b" d="M23.69 22.81s0.95 0 0.92 0.19-1.61 4.59-1.82 4.8-0.62 0.27-0.75 0.11 1.65-5.1 1.65-5.1z"></path>
<path fill="#1d1d1b" d="M22.47 31c0-0.3 0.66-0.23 0.83 0.060s1.21 4.21 1 4.3-0.57 0.44-0.71 0-1.12-4.13-1.12-4.36z"></path>
<path fill="#e7413e" d="M30.9 28.69c0.14-0.17 0.92 0 1 0.14s2.35 7.72 2.18 7.73-1.4-0.92-1.4-0.8-0.26 0.85-0.090 1 1.78 1.19 1.92 1.61 0.79 2.64 0.79 2.64c-0.673-0.713-1.388-1.368-2.148-1.968l-0.042-0.032c-0.12 0.090-0.36 0.43-0.19 0.59s2.23 2.060 2.12 2.44c-0.061 0.178-0.113 0.39-0.147 0.608l-0.003 0.022c-0.654-0.508-1.389-0.998-2.159-1.433l-0.091-0.047c-0.13 0.090-0.37 0.47-0.15 0.68s2.21 1.51 2.22 1.76-0.21 1.43-0.21 1.43c-0.517-0.234-1.123-0.43-1.753-0.56l-0.057-0.010c0 0.12-0.3 1-0.050 1.16s1.53 0.84 1.53 0.84-1.34 8.33-1.59 8.38-1.37 0.21-1.5 0-2.68-11.64-2.65-12 2.23-13.87 2.47-14.18z"></path>
<path fill="#1d1d1b" d="M39.28 25.77c0.906 0.558 1.68 1.221 2.339 1.987l0.011 0.013c-0.053 0.212-0.151 0.397-0.282 0.552l0.002-0.002s-2.55-1.76-2.6-1.93 0.49-0.45 0.53-0.62z"></path>
<path fill="#1d1d1b" d="M37.59 27.78c0-0.28 3.54 2.94 3.55 3.11s0 0.58-0.19 0.5c-1.495-0.944-2.784-1.893-4.002-2.923l0.052 0.043c-0.070-0.29 0.55-0.51 0.59-0.73z"></path>
<path fill="#1d1d1b" d="M36.82 29.89c1.477 1.065 2.768 2.232 3.919 3.526l0.021 0.024c0.050 0.29 0.050 0.29-0.12 0.38-1.569-0.97-2.926-2.060-4.136-3.296l-0.004-0.004c-0.050-0.37 0.2-0.46 0.32-0.63z"></path>
<path fill="#1d1d1b" d="M36.85 32.64c1.288 0.948 2.422 1.955 3.458 3.057l0.012 0.013c0 0.16 0.1 0.37-0.070 0.42-1.446-0.942-2.699-1.893-3.88-2.925l0.040 0.035c-0.040-0.17 0.36-0.6 0.44-0.6z"></path>
<path fill="#1d1d1b" d="M37.15 35.51c0.935 0.687 1.756 1.372 2.534 2.103l-0.014-0.013c0 0.13 0 0.71-0.15 0.67-1.023-0.674-1.915-1.388-2.736-2.176l0.007 0.006c0-0.16 0.36-0.59 0.36-0.59z"></path>
<path fill="#f2910d" d="M48.1 32.27c0.18-0.1 1.91-0.27 1.87-0.1-0.62 2.051-1.248 3.729-1.968 5.358l0.118-0.298c-0.057-0.789-0.089-1.71-0.089-2.638 0-0.817 0.025-1.628 0.074-2.433l-0.005 0.11z"></path>
<path fill="#f2910d" d="M49.080 30.36s-0.34-0.36 0.070-0.46c0.207-0.023 0.447-0.036 0.69-0.036s0.483 0.013 0.719 0.038l-0.029-0.003s0 0.67-0.19 0.72c-0.467-0.047-0.895-0.139-1.303-0.272l0.043 0.012z"></path>
<path fill="#a42116" d="M45 44.11c1.969-1.998 3.673-4.266 5.049-6.741l0.081-0.159c1.85-3.76 2.4-6.24 2.61-6.29s1.32 2.46 1.38 5.92 0.24 8.080-0.71 11.070c-0.7 1.957-1.856 3.606-3.344 4.877l-0.016 0.013s-2.63-4.42-2.88-4.41-0.75 0.1-0.62 0.35 2.85 4.58 2.68 4.75c-0.349 0.191-0.756 0.364-1.181 0.497l-0.049 0.013s-2-3.86-2.24-3.85-0.87 0.23-0.78 0.36 2.22 3.59 2.020 3.76c-0.161 0.112-0.354 0.19-0.563 0.219l-0.007 0.001-1.79-2.61s-0.66 0.23-0.53 0.43 1.53 2.25 1.24 2.38-3 0.55-3 0.26 2.65-10.67 2.65-10.84z"></path>
<path fill="#1d1d1b" d="M48.44 46.76c0.976 1.081 1.853 2.286 2.596 3.579l0.054 0.101c0 0.17-0.48 0.55-0.65 0.48-0.82-1.047-1.654-2.234-2.426-3.463l-0.103-0.177c-0.090-0.28 0.49-0.39 0.53-0.52z"></path>
<path fill="#1d1d1b" d="M49.48 45.36c0-0.21 0.45-0.43 0.66-0.4 0.824 0.916 1.571 1.934 2.212 3.022l0.048 0.088c0 0.2 0.14 0.66-0.24 0.5-0.972-0.962-1.853-2.011-2.632-3.137l-0.048-0.073z"></path>
<path fill="#1d1d1b" d="M50.72 43.61s0.4-0.72 0.53-0.6 2.060 2.11 2 2.4 0 0.71-0.23 0.64-2.17-2.32-2.3-2.44z"></path>
<path fill="#1d1d1b" d="M51.82 41.29c0-0.13 0.060-0.75 0.31-0.76s1.24 1 1.33 1.25 0.070 0.87-0.050 0.84-1.59-1.33-1.59-1.33z"></path>
<path fill="#f2910d" d="M29 56.8c0.999-0.078 2.163-0.122 3.338-0.122 0.497 0 0.991 0.008 1.484 0.024l-0.072-0.002c0 0.17 0 2.63-0.34 2.72-0.733 0.086-1.583 0.134-2.444 0.134-0.548 0-1.091-0.020-1.629-0.059l0.072 0.004c-0.070-0.17-0.64-2.69-0.41-2.7z"></path>
<path fill="#f2910d" d="M11.53 27.72c0.15-0.16 1.17-0.12 1.21 0s0.16 1.12 0 1.21-1.33 0.25-1.34 0.080c0.020-0.474 0.066-0.918 0.139-1.353l-0.009 0.063z"></path>
<path fill="#f2910d" d="M11.48 30.090c0-0.29 2.37-0.070 2.38 0.1s0.44 6.57 0.23 6.45c-1.177-1.882-2.081-4.074-2.586-6.415l-0.024-0.135z"></path>
<path fill="#a42116" d="M9.86 31.85c0-0.39 0.87 5.48 3.19 7.87 1.241 1.316 2.629 2.471 4.143 3.447l0.087 0.053s2.58 8.14 2.41 8-1.78-2.41-2-2.45-0.57 0.39-0.53 0.52 2.73 3.46 2.86 3.75 0.41 1.15 0.29 1.24-0.41 0.18-0.5 0c-1.188-1.685-2.383-3.159-3.667-4.55l0.027 0.030c-0.33-0.080-0.58 0-0.66 0.18s3.47 4.49 3.22 4.49c-0.105 0.010-0.227 0.016-0.35 0.016-0.319 0-0.63-0.039-0.927-0.111l0.027 0.005c-0.17-0.12-2.57-3.51-2.73-3.58s-0.83 0.35-0.7 0.56 2.51 2.88 2.26 2.89c-2.566-0.268-4.698-1.888-5.692-4.125l-0.018-0.045c-1.6-3.74-0.9-16.48-0.74-18.19z"></path>
</svg>
