<!-- Generated by IcoMoon.io -->
<svg version="1.1" xmlns="http://www.w3.org/2000/svg" width="64" height="64" viewBox="0 0 64 64">
<path fill="#1d1d1b" d="M56.6 44.16c-0.696-1.927-2.31-3.367-4.301-3.803l-0.039-0.007c0.011-0.109 0.018-0.236 0.018-0.364 0-0.373-0.054-0.733-0.154-1.073l0.007 0.027c-0.22-0.84-3.91-4.66-3.91-4.66s1.54-5 0.63-7.090-2.34-6.41-8.090-7.69-9.47 0.13-9.47 0.13 0.18-8.28 0.12-10.13-0.87-2.4-2.15-2.5-13.41-0.18-15.41-0.060-2.13 1.44-2.16 2.060 0 7.38 0.25 9.69c0.005 1.392 1.029 2.544 2.364 2.748l0.015 0.002c0.47 0.090 5 0.060 5 0.060l0.94 12.57s-0.75 0-1.44 0c-0.639 0.077-1.22 0.228-1.767 0.447l0.047-0.017c-0.394-0.796-0.84-1.482-1.355-2.109l0.015 0.019c-0.41-0.28-2.94 2.38-2.94 2.38-0.454 0.363-0.854 0.76-1.209 1.196l-0.011 0.014c-0.16 0.31 1.78 2.1 1.78 2.1l-0.72 0.84c-1.765 0.325-3.26 1.291-4.267 2.642l-0.013 0.018c-1.084 1.653-1.728 3.679-1.728 5.855 0 1.401 0.267 2.74 0.754 3.968l-0.026-0.073c1.080 3.202 3.988 5.495 7.452 5.649l0.018 0.001c3.37 0.35 26.19-0.46 29.91-0.43s7.15 0.15 9.87-1.63 3.44-7.31 1.97-10.78zM25.72 23.78c-0.71 1.1-1.060 2.1-1.18 2.070-0.188-1.090-0.296-2.346-0.296-3.627 0-0.297 0.006-0.592 0.017-0.886l-0.001 0.042c0.581-0.067 1.253-0.105 1.935-0.105s1.354 0.038 2.016 0.113l-0.081-0.007c-0.878 0.741-1.667 1.526-2.386 2.372l-0.024 0.028z"></path>
<path fill="#ffe19b" d="M14.26 34.88c0.12-0.1 0.87-1.13 1.15-1s1 1 0.94 1.19-1 1.22-1.13 1.12c-0.324-0.386-0.64-0.813-0.929-1.259l-0.031-0.051z"></path>
<path fill="#fab900" d="M13.47 35.63c0.29 0.19 1.19 1.28 1.1 1.44s-0.31 0.53-0.47 0.43c-0.521-0.385-0.974-0.816-1.37-1.297l-0.010-0.013c0.040-0.12 0.66-0.62 0.75-0.56z"></path>
<path fill="#cbe7f5" d="M16.19 19.94c-1.12 0-2.15 0-2.28-1.25-0.107-1.226-0.168-2.654-0.168-4.095 0-0.769 0.017-1.533 0.052-2.293l-0.004 0.108c0.319-0.052 0.686-0.082 1.060-0.082s0.741 0.030 1.099 0.087l-0.039-0.005c-0.021 0.563-0.033 1.225-0.033 1.889 0 1.281 0.045 2.552 0.133 3.811l-0.009-0.17c0.15 0.060 0.87 0.22 0.93 0s-0.12-5.65 0.070-5.69c0.401-0.035 0.868-0.056 1.34-0.056s0.939 0.020 1.4 0.060l-0.060-0.004c0.031 0.361 0.049 0.781 0.049 1.205s-0.018 0.844-0.053 1.259l0.004-0.054c-0.12 0-1.9 0.060-1.9 0.060s-0.13 0.88 0 0.94 1.84 0.060 1.84 0.060-0.22 2.22 0 2.28 0.82 0.16 0.78 0c-0.020-0.237-0.031-0.513-0.031-0.792 0-0.504 0.037-0.999 0.108-1.483l-0.007 0.055c0.337-0.040 0.727-0.063 1.123-0.063 0.575 0 1.138 0.048 1.686 0.142l-0.059-0.008c0 0.18-0.22 2 0 2.060s0.84 0.12 0.81 0c-0.046-0.314-0.072-0.676-0.072-1.045s0.026-0.731 0.077-1.086l-0.005 0.041c0.16 0 1.28 0.18 1.28 0s0.16-1.13 0-1.16l-1.31-0.13s0.25-4.9 0-5-0.94-0.1-0.94 0.090-0.060 4.98-0.060 4.98h-2.44v-5.22s-0.91-0.13-0.91 0.060c0.022 0.266 0.035 0.577 0.035 0.89s-0.013 0.623-0.037 0.93l0.003-0.040c-0.090 0.060-2.81 0.13-2.81 0.13 0.007-0.097 0.011-0.21 0.011-0.323 0-0.296-0.026-0.585-0.075-0.866l0.004 0.030c-0.1 0-1.070-0.090-1.070 0.060s0.070 1.070 0 1.1-1.9 0.060-1.9 0.060v-2.16s-0.29-0.84 0.59-0.87 6.59 0.22 10.12 0.22 4.66 0 4.85 0.22c0.062 1.293 0.097 2.809 0.097 4.332 0 2.17-0.072 4.323-0.213 6.458l0.015-0.29c-0.18 0.090-6 0.060-6.18 0.21s0.87 14.29 0.62 14.38c-0.317 0.072-0.682 0.113-1.056 0.113-0.256 0-0.507-0.019-0.752-0.056l0.028 0.003c-0.060-0.12-0.75-14-1.090-14.12-0.45-0.017-0.979-0.027-1.51-0.027-1.105 0-2.2 0.043-3.284 0.126l0.144-0.009z"></path>
<path fill="#1d1d1b" d="M26.38 12.28s0.75-0.18 0.78 0c0.045 0.642 0.071 1.39 0.071 2.145s-0.026 1.503-0.077 2.245l0.006-0.1c-0.15 0.060-0.94 0.18-0.94 0s0.1-4.13 0.16-4.29z"></path>
<path fill="#e6e4da" d="M30.54 22.16c1.88-1.21 6.31-1.56 9.53-0.88 2.6 0.703 4.764 2.26 6.226 4.345l0.024 0.035c0.78 1.12 1 4.090 0.84 5.090-0.070 0.558-0.2 1.065-0.385 1.544l0.015-0.044c-0.848-1.32-1.704-2.463-2.633-3.54l0.033 0.040c-0.18 0.1-0.62 0.25-0.5 0.41s2.72 3.69 2.69 3.84-0.19 0.82-0.31 0.78c-0.094-0.007-0.204-0.011-0.315-0.011s-0.221 0.004-0.33 0.012l0.014-0.001c-0.879-1.273-1.73-2.372-2.634-3.423l0.044 0.053c-0.19 0-0.69 0.16-0.59 0.31s2.15 3.19 2.15 3.19l-0.87-0.090c-0.603-0.909-1.202-1.695-1.846-2.441l0.026 0.030c-0.15 0-0.81 0.37-0.75 0.47 0.468 0.569 0.913 1.203 1.311 1.869l0.039 0.071c-0.1 0.060-2.91 0.060-2.91 0.060s-0.12-3.1-3-3.53-3.53 0.37-4.37 1.12-0.44 2.6-0.44 2.6-5.78 0-5.94-0.1c-0.093-0.637-0.145-1.372-0.145-2.12 0-1.368 0.177-2.695 0.51-3.958l-0.024 0.108c0.877-2.434 2.46-4.436 4.498-5.814l0.041-0.026z"></path>
<path fill="#1d1d1b" d="M31.57 23.5c0.28 0 0.56 0.69 0.47 0.85-0.975 0.574-1.788 1.317-2.424 2.197l-0.016 0.023c-0.94 1.46-0.84 1.78-1.060 1.87-0.096 0.021-0.207 0.033-0.32 0.033-0.19 0-0.372-0.034-0.541-0.097l0.011 0.003c0.257-1.020 0.645-1.916 1.153-2.73l-0.023 0.040c0.709-0.947 1.635-1.693 2.707-2.173l0.044-0.017z"></path>
<path fill="#1d1d1b" d="M44.88 27.41s0.41-0.53 0.59-0.41c0.378 0.372 0.677 0.822 0.871 1.324l0.009 0.026c0 0.22-0.34 0.68-0.5 0.59-0.365-0.444-0.689-0.947-0.95-1.485l-0.020-0.045z"></path>
<path fill="#1f4863" d="M32.85 34.1c-0.25 0.080-0.47-0.63-0.41-1 0.231-1.127 1.214-1.963 2.393-1.963 0.334 0 0.653 0.067 0.943 0.189l-0.016-0.006c2.37 0.87 2.65 2.65 2.31 2.75s-5.070-0.070-5.22 0.030z"></path>
<path fill="#85bfe9" d="M18.79 35.82c0.4-0.17 13.65-0.13 19.72-0.16 0.725-0.029 1.576-0.045 2.431-0.045 2.19 0 4.355 0.107 6.49 0.316l-0.271-0.021c0.31 0.090 2.66 3.12 2.38 3.16-0.261 0.014-0.567 0.022-0.875 0.022-0.629 0-1.25-0.033-1.861-0.099l0.076 0.007c-0.413-0.828-0.809-1.513-1.24-2.171l0.050 0.081c-0.12 0-1.060-0.13-1 0s1.41 2.16 1.19 2.16c-0.201 0.021-0.434 0.033-0.67 0.033s-0.469-0.012-0.699-0.035l0.029 0.002c-0.445-0.878-0.903-1.624-1.414-2.33l0.034 0.050c-0.19 0-1 0-0.94 0.25s1.38 2.060 1.16 2.090-1.44 0-1.44 0c-0.337-0.823-0.702-1.524-1.123-2.186l0.033 0.056c-0.16 0-1 0-1 0.13s1.28 2 1.12 2.060-1.12 0-1.12 0c-0.284-0.766-0.621-1.425-1.023-2.038l0.023 0.038c-0.22-0.060-0.91 0-0.94 0.19s0.84 1.87 0.69 1.94-6.82-0.070-10.63-0.070-10.97-0.25-11.75-0.25-0.71-0.090-0.62-0.25c0.99-1.028 2.031-1.987 3.127-2.88l0.064-0.050z"></path>
<path fill="#e7413e" d="M12.32 40.5c0.4-0.12 16.9 0 21.81-0.060s14.72-0.060 17.22 0.69 4 3.25 4.090 6.31-0.31 5.47-3.28 6.81-18.34 1-25.9 1.16-13 1-15.44-1.53c-1.585-1.751-2.555-4.085-2.555-6.645 0-0.656 0.064-1.297 0.185-1.917l-0.010 0.063c0.5-2.1 1.94-4.28 3.88-4.88z"></path>
<path fill="#a42116" d="M14.35 42.13c2-0.63 30.87-0.5 33.62-0.22 2.866 0.128 5.175 2.35 5.438 5.167l0.002 0.023c0.28 3.12-0.56 5.62-3.25 6.28s-22.5 1-29 0.84-9.060-0.37-10.22-3.94 0.38-7.21 3.41-8.15z"></path>
<path fill="#e7413e" d="M16.91 43.25c2.87-0.21 5.63 2.53 5.25 6.22s-5.5 4.91-8.060 3.1-3.91-8.82 2.81-9.32z"></path>
<path fill="#e7413e" d="M31.85 42.85c2.87-0.22 5.62 2.53 5.25 6.22s-5.5 4.93-8.1 3.090-3.87-8.81 2.85-9.31z"></path>
<path fill="#e7413e" d="M46.35 42.72c2.87-0.21 5.62 2.53 5.25 6.22s-5.5 4.91-8.060 3.060-3.91-8.78 2.81-9.28z"></path>
<path fill="#1d1d1b" d="M16.35 46.75c1.12-0.38 2.16-0.22 2.44 1.13 0.011 0.073 0.017 0.157 0.017 0.242 0 0.983-0.797 1.78-1.78 1.78-0.33 0-0.64-0.090-0.905-0.247l0.008 0.005c-1.47-0.66-0.78-2.56 0.22-2.91z"></path>
<path fill="#1d1d1b" d="M30.63 47c0.7-1 1.64-1.42 2.64-0.49 0.303 0.319 0.49 0.751 0.49 1.226 0 0.93-0.714 1.694-1.623 1.773l-0.007 0.001c-1.6 0.23-2.13-1.69-1.5-2.51z"></path>
<path fill="#1d1d1b" d="M48.51 47.15c0.23 1.17-0.070 2.17-1.44 2.27-0.004 0-0.008 0-0.013 0-0.983 0-1.78-0.797-1.78-1.78 0-0.413 0.14-0.792 0.376-1.094l-0.003 0.004c0.88-1.36 2.65-0.43 2.86 0.6z"></path>
</svg>
