<!-- Generated by IcoMoon.io -->
<svg version="1.1" xmlns="http://www.w3.org/2000/svg" width="64" height="64" viewBox="0 0 64 64">
<path fill="#fff" d="M26.65 24.45c-0.658 1.453-1.551 2.689-2.644 3.714l-0.006 0.006h0.54c0.287-0.383 0.617-0.713 0.987-0.991l0.013-0.009c0.26-0.195 0.554-0.384 0.862-0.551l0.038-0.019 0.4-2c-0.057-0.052-0.119-0.101-0.184-0.146l-0.006-0.004z"></path>
<path fill="#1d1d1b" d="M10.74 15.33s2-3.71 5.17-4 7.5 0.71 9.080 2.75 1 6.54 1 6.54l1.46 0.38c0.35-0.528 0.942-0.872 1.614-0.872 0.243 0 0.475 0.045 0.689 0.127l-0.013-0.004c0.823 0.128 1.446 0.832 1.446 1.681 0 0.249-0.054 0.486-0.15 0.7l0.004-0.011c-0.194 0.429-0.512 0.774-0.909 0.994l-0.011 0.006-1 4.29s0.83 0.46 1 0.92c0.108 0.332 0.183 0.717 0.209 1.116l0.001 0.014s2.41 0.25 3.41 0.33 2.3 0.21 2.3 0.21c0.029-1.035 0.468-1.962 1.159-2.629l0.001-0.001c0.666-0.59 1.536-0.963 2.492-1l0.008-0 1.75-11.87c-0.815-0.628-1.335-1.604-1.335-2.701 0-0.063 0.002-0.126 0.005-0.188l-0 0.009c0.112-1.187 1.103-2.109 2.31-2.109 0.34 0 0.663 0.073 0.954 0.205l-0.015-0.006c0.54 0.282 0.977 0.694 1.282 1.196l0.008 0.014 6-1.63c0.175-1.027 0.973-1.825 1.986-1.998l0.014-0.002c0.156-0.038 0.336-0.059 0.52-0.059 1.276 0 2.31 1.034 2.31 2.31 0 0.014-0 0.028-0 0.041v-0.002c0 1.38-1.71 2.17-1.71 2.17l0.67 7.46c0.393 0.17 0.727 0.41 0.998 0.708l0.002 0.002c0.169 0.313 0.286 0.678 0.329 1.067l0.001 0.014c0.095-0.001 0.208-0.002 0.32-0.002 1.196 0 2.371 0.092 3.517 0.268l-0.128-0.016c0.13 0.21-1.33 7.67-1.46 8s-1.21 0.37-1.37 0.17-1-5.38-1-5.38-3.58 0.21-3.58 0.42c-0.119 1.727-0.357 3.32-0.71 4.87l0.040-0.21c-0.25 0.3-1.21 0.21-1.21 0.21s-2.12-6.62-2-6.87 0-0.59 0.54-0.67 2.75 0 2.75 0c0-0.001 0-0.003 0-0.004 0-0.672 0.144-1.309 0.402-1.885l-0.012 0.029c0.336-0.334 0.739-0.602 1.186-0.782l0.024-0.009-0.5-7.31s-1.25 0.13-1.56-0.53-0.28-0.84-0.28-0.84l-5.47 1.53c0.007 0.075 0.010 0.163 0.010 0.251 0 0.72-0.249 1.382-0.665 1.905l0.005-0.006c-0.503 0.505-1.177 0.84-1.928 0.909l-0.012 0.001-1.69 11.25c0.998 0.349 1.792 1.063 2.24 1.977l0.010 0.023c0.242 0.793 0.382 1.704 0.382 2.648 0 0.067-0.001 0.135-0.002 0.202l0-0.010c1.595 1.675 3.118 3.468 4.537 5.344l0.113 0.156c0.59 0.795 1.152 1.695 1.639 2.64l0.051 0.11s3.34 0.54 4.66 5.16c0.256 0.787 0.403 1.693 0.403 2.633 0 2.649-1.17 5.025-3.023 6.638l-0.011 0.009c-1.65 1.44-3.87 1.85-8.090 1.85s-11.75 0.12-20.59-0.1-12.22-0.69-14.29-3c-1.299-1.503-2.090-3.476-2.090-5.634 0-1.52 0.393-2.949 1.082-4.19l-0.022 0.044c1.102-1.958 2.786-3.478 4.815-4.345l0.065-0.025c0.523-0.224 1.133-0.399 1.768-0.495l0.042-0.005s3.41-5.69 4.5-6.69c0.855-0.9 1.99-1.526 3.266-1.735l0.034-0.005c0.898-0.1 1.941-0.158 2.997-0.16h0.003c0.202-0.548 0.548-1.004 0.992-1.335l0.008-0.005c0.375-0.318 0.829-0.558 1.327-0.685l0.023-0.005 0.81-3.94c-0.422-0.209-0.763-0.528-0.994-0.919l-0.006-0.011c-0.136-0.254-0.243-0.549-0.306-0.859l-0.004-0.021-1.57-0.25c-0.597 2.502-2.064 4.591-4.057 5.978l-0.033 0.022c-3.38 2.19-7.94 0.88-9.5 0.19-1.695-1.014-3.028-2.48-3.855-4.231l-0.025-0.059c-0.248-0.656-0.391-1.414-0.391-2.205s0.143-1.549 0.406-2.249l-0.015 0.044c0.301-0.703 0.666-1.309 1.102-1.856l-0.012 0.016-1-0.75c-0.41 0.248-0.905 0.394-1.435 0.394s-1.025-0.146-1.448-0.401l0.013 0.007c-1.41-0.94-1.070-2.41-0.32-3.38s3.1-1.72 3.85-0.69c0.326 0.467 0.522 1.047 0.522 1.672 0 0.194-0.019 0.383-0.055 0.567l0.003-0.019z"></path>
<path fill="#cbe7f5" d="M7 13.33c1.29-0.23 1.66 0.44 1.53 1.41-0.001 0.767-0.623 1.388-1.39 1.388-0.326 0-0.626-0.112-0.863-0.3l0.003 0.002c-1.38-0.75-0.010-2.37 0.72-2.5z"></path>
<path fill="#e6e4da" d="M12.21 15.93s2.13-2.57 3.53-2.94 2.94-0.31 3.22 1.47c0.007 0.159 0.011 0.345 0.011 0.532 0 1.463-0.246 2.869-0.698 4.178l0.027-0.090z"></path>
<path fill="#e6e4da" d="M10.87 19.11s4.68 3.94 4.62 4.070-2.78 2.28-4.87 0.68 0-4.59 0.25-4.75z"></path>
<path fill="#cbe7f5" d="M10.71 16.64c0.21 0 5.81 2.66 5.81 3s-0.65 1.88-1.060 1.82c-1.739-1.37-3.287-2.741-4.754-4.194l0.004 0.004c-0.28-0.27-0.28-0.66 0-0.63z"></path>
<path fill="#1d1d1b" d="M11.24 20.52c0.27-0.18 0.53 0.41 0.6 0.53s-0.19 0.44 0.060 1 0.65 0.75 0.59 0.94-0.25 0.43-0.37 0.43c-0.536-0.299-0.957-0.749-1.213-1.293l-0.007-0.017c-0.043-0.143-0.068-0.308-0.068-0.478 0-0.425 0.154-0.814 0.41-1.114l-0.002 0.002z"></path>
<path fill="#1d1d1b" d="M14 15.8c0.377-0.54 0.846-0.988 1.39-1.328l0.020-0.012c0.153-0.070 0.332-0.111 0.521-0.111 0.376 0 0.714 0.162 0.948 0.42l0.001 0.001c0.090 0.28-0.38 0.78-0.38 0.78-0.124-0.059-0.269-0.094-0.422-0.094-0.216 0-0.417 0.069-0.581 0.186l0.003-0.002c-0.37 0.38-0.44 0.79-0.65 0.75s-0.85-0.46-0.85-0.59z"></path>
<path fill="#cbe7f5" d="M21.18 14.14c1.377 0.191 2.467 1.22 2.746 2.549l0.004 0.021c0.5 2.12 0.84 4.62-0.94 7.22s-3.4 3.18-5.12 3.31c-0.279 0.032-0.603 0.050-0.931 0.050-0.884 0-1.737-0.131-2.541-0.376l0.062 0.016c-0.41-0.19-0.72-0.66-0.37-0.79 2.193-1.030 3.946-2.693 5.061-4.752l0.029-0.058c1.75-3.33 1.82-6.94 2-7.19z"></path>
<path fill="#1d1d1b" d="M21.24 18.89s0.85 0.1 0.88 0.25c-0.129 1.251-0.462 2.395-0.967 3.442l0.027-0.062c-0.69 1.37-1.22 2-1.5 2s-0.66 0-0.66-0.22 1.1-1.5 1.6-2.62c0.237-0.765 0.453-1.707 0.605-2.67l0.015-0.12z"></path>
<path fill="#cbe7f5" d="M42.37 11.21c0.68-0.23 1.59 0.34 1.62 1.5s-1.15 2.060-2 1.5-0.84-2.6 0.38-3z"></path>
<path fill="#cbe7f5" d="M53.090 8.74c0.68-0.1 1.31 0.94 1.060 1.75s-1.56 1.15-2 0.59-0.15-2.19 0.94-2.34z"></path>
<path fill="#cbe7f5" d="M53.59 20.58c0.49-0.070 1 0.56 0.9 1s-1.5 0.44-1.65 0.28c-0.069-0.121-0.11-0.266-0.11-0.42 0-0.475 0.385-0.86 0.859-0.86v0z"></path>
<path fill="#e7413e" d="M49.84 23.3s3-0.34 5.25-0.47 3.31-0.25 3.28 0-0.66 3.72-0.88 3.66-0.34-3-0.69-3.060c-2.098 0.035-4.122 0.259-6.083 0.656l0.213-0.036c0 0.22 0 2.56-0.31 2.59s-0.78-3.030-0.78-3.34z"></path>
<path fill="#cbe7f5" d="M37.34 30.3c0.165-1.364 1.316-2.411 2.711-2.411 0.024 0 0.048 0 0.072 0.001l-0.004-0c2.15 0.1 2.68 2.75 2.18 2.94-0.219 0.010-0.477 0.016-0.735 0.016-1.502 0-2.957-0.199-4.341-0.573l0.116 0.027z"></path>
<path fill="#85bfe9" d="M17.090 38c0.31-0.35 3.31-5.38 5.56-6.13s12.53 0.070 15.75 0.38 3.78 0.25 4.84 1.69 3.35 4.62 3.1 4.65c-0.047 0.004-0.101 0.006-0.156 0.006-0.213 0-0.417-0.035-0.608-0.1l0.013 0.004c-0.16-0.060-2.82-3.5-3.070-3.53s-1 0.28-0.87 0.5 2.78 2.81 2.59 2.84c-0.206 0.029-0.443 0.045-0.685 0.045s-0.479-0.017-0.712-0.048l0.027 0.003c-0.16-0.090-2.16-2.81-2.35-2.88s-1.090 0.22-0.93 0.44 2.37 2.35 2.18 2.44c-0.172 0.050-0.37 0.079-0.575 0.079s-0.403-0.029-0.59-0.082l0.015 0.004c-0.579-0.792-1.153-1.486-1.764-2.145l0.014 0.015c-0.28-0.060-1 0.19-0.85 0.47s1.32 1.53 1.16 1.53z"></path>
<path fill="#1d1d1b" d="M20 36.39c0.873-1.235 1.746-2.314 2.682-3.335l-0.022 0.025c0.12 0 0.59 0.13 0.59 0.31-0.679 1.21-1.434 2.255-2.293 3.205l0.013-0.015c-0.039 0.003-0.084 0.004-0.13 0.004-0.306 0-0.595-0.072-0.851-0.199l0.011 0.005z"></path>
<path fill="#e7413e" d="M20.12 39.55c1.964-0.068 4.271-0.106 6.588-0.106 5.533 0 11.015 0.22 16.437 0.652l-0.715-0.046c5.75 0.66 7.84 1.22 9.44 4s0.56 7.5-1.88 9.1-17.9 1.21-24.31 1-12.59-0.15-14.94-2.1-2.31-5.31-0.74-7.66 3.59-4.46 10.12-4.84z"></path>
<path fill="#a42116" d="M15.71 41.43c2.15-0.55 15.91-0.38 21.19-0.32s10.65-0.11 12.94 1.47 2.16 4.25 1.75 6.42-1.32 3.87-6.1 4.22-20 0.5-25.78 0-7.53-1.010-8.71-3.58-0.32-6.93 4.71-8.21z"></path>
<path fill="#e7413e" d="M17.34 42.49c0.134-0.014 0.291-0.022 0.448-0.022 2.579 0 4.67 2.091 4.67 4.67 0 0.504-0.080 0.99-0.228 1.445l0.009-0.033c-1 3.72-6.5 4.69-9 2.25s-2.31-7.75 4.1-8.31z"></path>
<path fill="#e7413e" d="M31.8 42.58c0.133-0.014 0.288-0.021 0.445-0.021 2.585 0 4.68 2.095 4.68 4.68 0 0.5-0.078 0.982-0.224 1.434l0.009-0.033c-1 3.72-6.5 4.69-9 2.25s-2.31-7.75 4.090-8.31z"></path>
<path fill="#e7413e" d="M45.87 42.58c0.134-0.014 0.291-0.022 0.448-0.022 2.579 0 4.67 2.091 4.67 4.67 0 0.504-0.080 0.99-0.228 1.445l0.009-0.033c-1 3.72-6.5 4.69-9 2.25s-2.31-7.75 4.1-8.31z"></path>
<path fill="#1d1d1b" d="M15.9 45.64c0.322-0.199 0.713-0.316 1.131-0.316 1.075 0 1.969 0.779 2.148 1.803l0.002 0.013c0.53 1.82-2.060 3-3.41 1.63-0.425-0.369-0.692-0.91-0.692-1.513 0-0.662 0.322-1.249 0.817-1.613l0.006-0.004z"></path>
<path fill="#1d1d1b" d="M30.4 45.77c0.324-0.202 0.717-0.322 1.138-0.322 1.076 0 1.969 0.783 2.14 1.81l0.002 0.013c0.53 1.81-2.060 3-3.41 1.62-0.421-0.369-0.686-0.907-0.686-1.508 0-0.659 0.319-1.244 0.811-1.608l0.005-0.004z"></path>
<path fill="#1d1d1b" d="M44.71 45.64c0.324-0.202 0.718-0.322 1.14-0.322 1.077 0 1.972 0.782 2.148 1.809l0.002 0.013c0.53 1.82-2.060 3-3.4 1.63-0.431-0.369-0.702-0.913-0.702-1.521 0-0.657 0.317-1.24 0.806-1.605l0.005-0.004z"></path>
</svg>
