<!-- Generated by IcoMoon.io -->
<svg version="1.1" xmlns="http://www.w3.org/2000/svg" width="64" height="64" viewBox="0 0 64 64">
<path fill="#1d1d1b" d="M12.52 11.79c2.75-1 8.54 0.54 14.63 1 2.019 0.231 4.359 0.362 6.73 0.362s4.711-0.132 7.013-0.388l-0.283 0.026c4.12-0.38 8.39-2.3 12.39-0.59s6.13 12 6.63 17.46 0.5 11.54-1 16.080-3.25 6.59-3.55 6.59-15.81-4.67-22.14-4.63-17.58 4-18.75 4.38-4 0.91-4.83-0.13c-3.077-4.331-5.006-9.668-5.248-15.441l-0.002-0.059c-0.21-8.080 2.58-17.58 3.66-19.58s3.42-4.58 4.75-5.080z"></path>
<path fill="#a42116" d="M11.94 14.16s10.25 18.71 10.060 19.17c-1.568 1.93-3.204 3.658-4.961 5.255l-0.039 0.035c-0.080-0.21 2.79-5.54 2.79-5.79-1.702-3.886-3.541-7.2-5.645-10.319l0.145 0.229c-2.79-4.080-4-5.37-4-5.75s1.32-2.91 1.65-2.83z"></path>
<path fill="#1f4863" d="M9.56 18.87c0.15-0.12 6.25 9.92 6.25 9.92-0.405 0.81-0.643 1.765-0.643 2.775 0 0.401 0.037 0.794 0.109 1.174l-0.006-0.039c0.208 1.267 0.617 2.404 1.197 3.432l-0.027-0.052-5.88 8.92c-0.79 1.21-1.54 2.38-1.7 2.21-1.894-3.63-3.005-7.928-3.005-12.485 0-0.181 0.002-0.362 0.005-0.542l-0 0.027c0.41-6.55 2.66-14.51 3.7-15.34z"></path>
<path fill="#e6e4da" d="M16.48 29.87c0.551 0.701 1.039 1.497 1.429 2.346l0.031 0.074c-0.080 0.29-1.080 2.37-1.080 2.37-0.419-0.625-0.69-1.38-0.749-2.195l-0.001-0.015c-0.003-0.081-0.005-0.177-0.005-0.273 0-0.825 0.137-1.618 0.39-2.358l-0.015 0.051z"></path>
<path fill="#1f4863" d="M13.27 13.41s0.46-0.92 3-0.79 8.59 2 16.42 1.87c5.354-0.061 10.556-0.423 15.669-1.069l-0.669 0.069c0.718-0.086 1.55-0.134 2.393-0.134 0.154 0 0.307 0.002 0.46 0.005l-0.023-0s-4.33 8.79-5.83 11.88c-0.97 1.762-1.94 3.874-2.764 6.059l-0.116 0.351c-0.080 0.67-0.12 1.67-0.12 1.67-1.409-0.261-3.031-0.41-4.687-0.41-0.001 0-0.002 0-0.003 0h0c-2.37 0-4.080 0-4.080 0s3.23-5.91-1.19-10.42-9.73-2.080-11.080-1.33c-0.842 0.529-1.52 1.249-1.985 2.1l-0.015 0.030s-5.34-9.67-5.38-9.88z"></path>
<path fill="#e6e4da" d="M19.31 24.16c1.26-1.785 3.249-2.983 5.525-3.158l0.025-0.002c3.62-0.16 6.62 1.5 7.62 4.92 0.21 0.86 0.331 1.848 0.331 2.864 0 1.482-0.257 2.904-0.728 4.224l0.027-0.088s-4.59 0.21-5.13 0.25l-1 0.080c-0.614-1.262-1.236-2.327-1.928-3.34l0.058 0.090c-0.25-0.090-0.8 0.080-0.63 0.37s1.71 2.88 1.46 2.92c-0.199 0.012-0.431 0.018-0.665 0.018s-0.466-0.007-0.697-0.020l0.032 0.001c-0.074-1.258-0.455-2.414-1.068-3.412l0.018 0.032c-1-1.54-3.25-5.75-3.25-5.75z"></path>
<path fill="#a42116" d="M47 39.62c-0.12-0.21-3.54-5.17-3.71-6s3.92-10.5 5.46-13.29 3.25-6.42 3.56-6.33c0.709 0.586 1.295 1.293 1.731 2.093l0.019 0.037c0 0.12-7.83 13.62-8.41 15.41-0.186 0.617-0.293 1.326-0.293 2.060 0 1.002 0.2 1.958 0.561 2.829l-0.018-0.049c0.46 1.11 1.1 3.24 1.1 3.24z"></path>
<path fill="#1f4863" d="M47.27 32.29c0.67-1.75 7.67-14.84 7.88-14.55 1.81 3.932 2.866 8.532 2.866 13.379 0 0.968-0.042 1.927-0.125 2.874l0.009-0.123c-0.309 5.064-1.068 9.792-2.244 14.351l0.114-0.521s-4.21-4.91-6.12-7.7-3.21-5.55-2.38-7.71z"></path>
<path fill="#e7413e" d="M23.23 34.79c0.17 0 4.46-0.46 9.83-0.46s8.55 0.66 8.84 0.83 10.83 14.29 10.54 14.54-10.92-3.58-18.38-3.62-18.12 3.62-19 3.92c-1.046 0.413-2.259 0.71-3.523 0.835l-0.057 0.005c-0.33-0.17-1.17-1-1-1.29s4-5.59 6.63-8.59c1.953-2.195 3.951-4.209 6.053-6.11l0.067-0.060z"></path>
<path fill="#1d1d1b" d="M10.4 24.49c0.86-0.4 1.79 0.46 1.91 1.21s-1.31 2.040-2.12 1.3c-0.322-0.29-0.524-0.709-0.524-1.175 0-0.559 0.29-1.050 0.728-1.331l0.006-0.004z"></path>
<path fill="#1d1d1b" d="M11.4 30.24c0.41-0.51 1.79 0.050 2.080 0.84 0.025 0.097 0.040 0.208 0.040 0.322 0 0.735-0.595 1.33-1.33 1.33-0.103 0-0.203-0.012-0.299-0.034l0.009 0.002c-1.13-0.16-1.17-1.62-0.5-2.46z"></path>
<path fill="#1d1d1b" d="M9.19 37c0.6-0.5 2.080 0.13 2.12 1.17-0.075 0.827-0.764 1.469-1.604 1.469-0.141 0-0.277-0.018-0.407-0.052l0.011 0.002c-0.483-0.256-0.806-0.755-0.806-1.33 0-0.526 0.271-0.989 0.681-1.257l0.006-0.004z"></path>
<path fill="#1d1d1b" d="M8.52 31.66c0.44-0.2 1.42 0.5 1.21 1.17-0.118 0.362-0.453 0.618-0.848 0.618-0.219 0-0.419-0.079-0.574-0.21l0.001 0.001c-0.37-0.37-0.7-1.16 0.21-1.58z"></path>
<path fill="#1d1d1b" d="M20.19 16.24c0.29-0.12 1.25 0.3 1 1s-1.21 0.46-1.54 0.090 0.16-0.92 0.54-1.090z"></path>
<path fill="#1d1d1b" d="M30.77 18.54c0.29-0.13 1.25 0.29 1 0.95s-1.21 0.46-1.54 0.090 0.17-0.88 0.54-1.040z"></path>
<path fill="#1d1d1b" d="M43.23 15.7c0.29-0.13 1.25 0.29 1 1s-1.21 0.46-1.54 0.080 0.17-0.91 0.54-1.080z"></path>
<path fill="#1d1d1b" d="M44.81 19.080c0.29-0.13 1.25 0.29 1 1s-1.2 0.45-1.54 0.080 0.17-0.92 0.54-1.080z"></path>
<path fill="#1d1d1b" d="M37.27 27.12c0.29-0.13 1.25 0.29 1 1s-1.21 0.46-1.54 0.080 0.17-0.91 0.54-1.080z"></path>
<path fill="#1d1d1b" d="M40.86 26.74c0.29-0.12 1.25 0.3 1 1s-1.21 0.46-1.55 0.090 0.17-0.92 0.55-1.090z"></path>
<path fill="#1d1d1b" d="M54.23 29.87c0.29-0.13 1.25 0.29 1 1s-1.21 0.46-1.54 0.080 0.17-0.95 0.54-1.080z"></path>
<path fill="#1d1d1b" d="M51.27 28.37c0.29-0.13 1.25 0.29 1 1s-1.21 0.46-1.54 0.080 0.17-0.91 0.54-1.080z"></path>
<path fill="#1d1d1b" d="M50.27 33c0.29-0.13 1.25 0.29 1 1s-1.21 0.46-1.54 0.080 0.17-0.96 0.54-1.080z"></path>
<path fill="#1d1d1b" d="M38.4 30.29c0.29-0.13 1.25 0.29 1 0.95s-1.21 0.46-1.54 0.090 0.14-0.88 0.54-1.040z"></path>
<path fill="#1d1d1b" d="M24.9 16.33c0.67-0.11 1.5 0.21 1.41 1.12s-1.29 1-1.87 0.71c-0.272-0.182-0.448-0.487-0.448-0.834 0-0.52 0.397-0.947 0.904-0.995l0.004-0z"></path>
<path fill="#1d1d1b" d="M28.81 15.32c0.79-0.12 1.76 0.24 1.66 1.32s-1.52 1.23-2.2 0.84c-0.293-0.223-0.48-0.572-0.48-0.965 0-0.601 0.438-1.1 1.013-1.194l0.007-0.001z"></path>
<path fill="#ffe19b" d="M29 16c0.3 0 0.67 0.090 0.64 0.51s-0.58 0.46-0.85 0.31c-0.11-0.085-0.18-0.217-0.18-0.365 0-0.23 0.168-0.42 0.388-0.454l0.003-0z"></path>
<path fill="#1d1d1b" d="M53.72 24.61c0.79-0.12 1.77 0.25 1.67 1.32s-1.52 1.23-2.21 0.84c-0.293-0.223-0.48-0.572-0.48-0.965 0-0.601 0.438-1.1 1.013-1.194l0.007-0.001z"></path>
<path fill="#cbe7f5" d="M53.93 25.33c0.3 0 0.67 0.1 0.63 0.51s-0.58 0.46-0.84 0.31c-0.11-0.085-0.18-0.217-0.18-0.365 0-0.23 0.168-0.42 0.388-0.454l0.003-0z"></path>
<path fill="#1d1d1b" d="M53.39 37.61c0.79-0.12 1.77 0.25 1.67 1.32s-1.52 1.23-2.21 0.84c-0.293-0.223-0.48-0.572-0.48-0.965 0-0.601 0.438-1.1 1.013-1.194l0.007-0.001z"></path>
<path fill="#ffe19b" d="M53.59 38.33c0.3 0 0.68 0.1 0.64 0.51s-0.58 0.46-0.84 0.31c-0.111-0.085-0.182-0.217-0.182-0.367 0-0.227 0.164-0.415 0.379-0.453l0.003-0z"></path>
<path fill="#1d1d1b" d="M24.77 29.41c-0.060-0.13 0.63-0.42 0.75-0.25 0.536 0.881 1.016 1.899 1.386 2.968l0.034 0.112c-0.13 0.21-0.54 0.46-0.71 0.25s-1.42-3-1.46-3.080z"></path>
<path fill="#1d1d1b" d="M26.86 29.79s0.7-0.34 0.75-0.21 1 2.58 0.83 2.71-0.67 0.25-0.75 0.12-0.83-2.62-0.83-2.62z"></path>
<path fill="#1d1d1b" d="M29.94 27.79c0.126-0.032 0.27-0.051 0.419-0.051 0.966 0 1.75 0.784 1.75 1.75 0 0.273-0.062 0.531-0.174 0.761l0.005-0.010c-0.67 1.59-2.63 1.75-3.21 0.46s-0.37-2.7 1.21-2.91z"></path>
<path fill="#fff" d="M30 28.38c0.049-0.007 0.105-0.011 0.162-0.011 0.696 0 1.26 0.564 1.26 1.26s-0.564 1.26-1.26 1.26c-0.413 0-0.78-0.199-1.010-0.506l-0.002-0.003c-0.37-0.89-0.15-1.86 0.85-2z"></path>
<path fill="#1d1d1b" d="M25.46 23.73c0.129-0.85 0.855-1.495 1.731-1.495 0.499 0 0.949 0.209 1.268 0.544l0.001 0.001c1.24 1.19 0.69 3.080-0.73 3.16s-2.64-0.66-2.27-2.21z"></path>
<path fill="#fff" d="M26.050 23.85c0.141-0.554 0.635-0.957 1.223-0.957 0.696 0 1.26 0.564 1.26 1.26 0 0.58-0.391 1.068-0.924 1.215l-0.009 0.002c-0.96 0.050-1.81-0.46-1.55-1.52z"></path>
<path fill="#1d1d1b" d="M40.36 21.91c0.074-0.255 0.116-0.547 0.116-0.85 0-0.51-0.12-0.992-0.334-1.419l0.008 0.018c-0.328-0.637-0.963-1.075-1.704-1.12l-0.006-0s-2.25-2-3.42-0.92-0.21 3.17-0.21 3.17c-0.053 0.218-0.083 0.469-0.083 0.726 0 0.769 0.269 1.475 0.717 2.030l-0.005-0.006c0.386 0.491 0.98 0.804 1.648 0.804 0.168 0 0.331-0.020 0.487-0.057l-0.014 0.003s2.34 1.71 3.55 0.71-0.75-3.090-0.75-3.090zM36.23 19c-0.341 0.226-0.61 0.534-0.784 0.897l-0.006 0.013s-0.58-1.41 0.33-1.79c0.14-0.065 0.305-0.103 0.478-0.103 0.386 0 0.729 0.189 0.94 0.48l0.002 0.003c-0.37 0.154-0.686 0.321-0.984 0.514l0.024-0.014zM40.56 24.080c-0.41 0.37-1.7-0.38-1.7-0.38 0.317-0.090 0.594-0.231 0.836-0.415l-0.006 0.005c0.46-0.34 0.54-0.54 0.54-0.54s0.77 0.99 0.33 1.37z"></path>
<path fill="#cbe7f5" d="M35.9 20.7s1.71-2.29 3.29-1.16-0.29 3.080-0.58 3.25c-0.17 0.078-0.373 0.15-0.584 0.204l-0.026 0.006s-1.23 0.080-2.1-2.3z"></path>
<path fill="#1d1d1b" d="M53.060 42.79c0.66 0.713 1.355 1.367 2.093 1.971l0.037 0.029 0.29-0.46s-1.83-2.13-2-2c-0.154 0.138-0.292 0.289-0.414 0.452l-0.006 0.008z"></path>
<path fill="#1d1d1b" d="M53.9 41.91s0.21-0.67 0.41-0.62 1.84 1.45 1.8 1.7-0.21 0.59-0.34 0.5-1.87-1.58-1.87-1.58z"></path>
<path fill="#1d1d1b" d="M55.27 41s0.25-0.5 0.38-0.5 0.79 0.5 0.83 0.75c-0.026 0.281-0.116 0.536-0.254 0.757l0.004-0.007z"></path>
<path fill="#1d1d1b" d="M31.15 35.2c3-1.15 7.54 0.5 7.54 5.75s-8.29 6.42-10.38 3.5-1.91-7.45 2.84-9.25z"></path>
<path fill="#85bfe9" d="M31.46 36.14c2.46-1 6.19 0.41 6.19 4.72s-6.81 5.27-8.52 2.87-1.58-6.090 2.33-7.59z"></path>
<path fill="#1d1d1b" d="M28.9 40.45c-0.007-0.067-0.011-0.145-0.011-0.224 0-0.582 0.208-1.115 0.554-1.53l-0.003 0.004c0.71-1 1.54-1.41 1.87-1.25 0.197 0.106 0.33 0.306 0.34 0.539l0 0.001c-0.714 0.148-1.312 0.557-1.704 1.121l-0.006 0.009c-0.287 0.425-0.48 0.935-0.539 1.485l-0.001 0.015c-0.188-0.037-0.356-0.096-0.511-0.175l0.011 0.005z"></path>
<path fill="#1d1d1b" d="M30.9 39c0.18-0.1 0.83 0.17 0.79 0.29-0.529 0.289-0.904 0.802-0.999 1.409l-0.001 0.011c-0.21 1.17 0 1.63 0.42 1.92s0.58 0.25 0.45 0.41-0.41 0.46-0.66 0.38c-0.682-0.457-1.135-1.212-1.17-2.075l-0-0.005c0.155-0.917 0.573-1.717 1.171-2.342l-0.002 0.002z"></path>
<path fill="#1d1d1b" d="M35.19 39.7s0-0.41 0.29-0.37c0.697 0.354 1.167 1.066 1.167 1.888 0 0.297-0.061 0.58-0.172 0.836l0.005-0.014c-0.371 1.151-1.421 1.974-2.667 2l-0.003 0c-0.004 0-0.008 0-0.013 0-0.349 0-0.69-0.029-1.023-0.085l0.036 0.005s-0.080-0.54 0.080-0.54 2.38 0 2.84-1.38c0.075-0.218 0.119-0.468 0.119-0.729 0-0.628-0.251-1.196-0.659-1.611l0 0z"></path>
<path fill="#1d1d1b" d="M32.94 40s0.58-2.83 0.92-2.87 0.75 0 0.7 0.25-0.83 2.83-0.83 2.83c0.225 0.185 0.367 0.463 0.367 0.774 0 0.247-0.090 0.473-0.238 0.648l0.001-0.001c-0.203 0.309-0.548 0.51-0.939 0.51-0.49 0-0.906-0.314-1.058-0.752l-0.002-0.008c-0.13-0.68 0.54-1.51 1.080-1.38z"></path>
<path fill="#1d1d1b" d="M21.9 37.87c1-0.4 2.21-0.29 2.46 1 0.005 0.051 0.007 0.11 0.007 0.17 0 1.105-0.895 2-2 2-0.292 0-0.57-0.063-0.82-0.175l0.013 0.005c-0.47-0.303-0.777-0.824-0.777-1.417 0-0.726 0.461-1.345 1.106-1.579l0.012-0.004z"></path>
<path fill="#f2910d" d="M22.18 38.48c0.59-0.23 1.31-0.17 1.45 0.59 0.003 0.030 0.004 0.066 0.004 0.101 0 0.641-0.519 1.16-1.16 1.16-0.172 0-0.335-0.037-0.482-0.104l0.007 0.003c-0.265-0.182-0.437-0.484-0.437-0.826 0-0.414 0.252-0.769 0.61-0.921l0.007-0.002z"></path>
<path fill="#1d1d1b" d="M41.93 38.19c0.59-0.24 1.31-0.17 1.45 0.59 0.002 0.029 0.004 0.062 0.004 0.096 0 0.641-0.519 1.16-1.16 1.16-0.175 0-0.342-0.039-0.491-0.109l0.007 0.003c-0.258-0.183-0.424-0.481-0.424-0.818 0-0.413 0.25-0.767 0.608-0.92l0.007-0.002z"></path>
<path fill="#1d1d1b" d="M39.72 36.15c0.59-0.24 1.31-0.18 1.45 0.59 0.002 0.029 0.004 0.062 0.004 0.096 0 0.641-0.519 1.16-1.16 1.16-0.175 0-0.342-0.039-0.491-0.109l0.007 0.003c-0.258-0.183-0.424-0.481-0.424-0.818 0-0.413 0.25-0.767 0.608-0.92l0.007-0.002z"></path>
<path fill="#1d1d1b" d="M17.54 42.56c0.73-0.29 1.62-0.21 1.8 0.73 0.002 0.031 0.004 0.068 0.004 0.105 0 0.795-0.645 1.44-1.44 1.44-0.204 0-0.398-0.042-0.573-0.119l0.009 0.004c-0.335-0.223-0.552-0.599-0.552-1.026 0-0.507 0.307-0.942 0.744-1.13l0.008-0.003z"></path>
<path fill="#ddc07c" d="M17.82 43.15c0.33-0.13 0.74-0.090 0.82 0.34 0.001 0.015 0.002 0.032 0.002 0.049 0 0.364-0.296 0.66-0.66 0.66-0.099 0-0.192-0.022-0.276-0.060l0.004 0.002c-0.152-0.102-0.251-0.273-0.251-0.467 0-0.238 0.148-0.441 0.357-0.522l0.004-0.001z"></path>
<path fill="#1d1d1b" d="M21 42c0.73-0.29 1.62-0.21 1.8 0.73 0.002 0.031 0.004 0.068 0.004 0.105 0 0.795-0.645 1.44-1.44 1.44-0.204 0-0.398-0.042-0.573-0.119l0.009 0.004c-0.335-0.223-0.552-0.599-0.552-1.026 0-0.507 0.307-0.942 0.744-1.13l0.008-0.003z"></path>
<path fill="#ffe19b" d="M21.32 42.57c0.33-0.13 0.74-0.1 0.82 0.33 0.002 0.018 0.003 0.038 0.003 0.059 0 0.364-0.296 0.66-0.66 0.66-0.099 0-0.193-0.022-0.277-0.061l0.004 0.002c-0.152-0.102-0.251-0.273-0.251-0.467 0-0.238 0.148-0.441 0.357-0.522l0.004-0.001z"></path>
<path fill="#1d1d1b" d="M15 46.15c0.72-0.29 1.61-0.22 1.79 0.73 0.002 0.031 0.004 0.068 0.004 0.105 0 0.795-0.645 1.44-1.44 1.44-0.204 0-0.398-0.042-0.573-0.119l0.009 0.004c-0.339-0.221-0.56-0.597-0.56-1.026 0-0.512 0.315-0.95 0.762-1.131l0.008-0.003z"></path>
<path fill="#ffe19b" d="M15.24 46.74c0.33-0.14 0.73-0.1 0.82 0.33 0.001 0.016 0.002 0.035 0.002 0.053 0 0.364-0.296 0.66-0.66 0.66-0.102 0-0.2-0.023-0.286-0.065l0.004 0.002c-0.144-0.103-0.238-0.269-0.238-0.458 0-0.236 0.147-0.439 0.354-0.521l0.004-0.001z"></path>
<path fill="#1d1d1b" d="M19.13 45.19c0.72-0.29 1.61-0.21 1.79 0.73 0.002 0.031 0.004 0.068 0.004 0.105 0 0.795-0.645 1.44-1.44 1.44-0.204 0-0.398-0.042-0.573-0.119l0.009 0.004c-0.333-0.224-0.549-0.599-0.549-1.024 0-0.509 0.309-0.946 0.75-1.133l0.008-0.003z"></path>
<path fill="#f2910d" d="M19.4 45.78c0.33-0.13 0.74-0.1 0.82 0.33 0.002 0.018 0.003 0.038 0.003 0.059 0 0.364-0.296 0.66-0.66 0.66-0.099 0-0.193-0.022-0.277-0.061l0.004 0.002c-0.146-0.105-0.239-0.274-0.239-0.464 0-0.235 0.142-0.437 0.346-0.524l0.004-0.001z"></path>
<path fill="#1d1d1b" d="M23.75 44c0.73-0.29 1.61-0.21 1.8 0.73 0.002 0.031 0.004 0.068 0.004 0.105 0 0.795-0.645 1.44-1.44 1.44-0.204 0-0.398-0.042-0.573-0.119l0.009 0.004c-0.335-0.223-0.552-0.599-0.552-1.026 0-0.507 0.307-0.942 0.744-1.13l0.008-0.003z"></path>
<path fill="#ddc07c" d="M24 44.57c0.33-0.13 0.73-0.1 0.82 0.33 0.002 0.018 0.003 0.038 0.003 0.059 0 0.364-0.296 0.66-0.66 0.66-0.099 0-0.193-0.022-0.277-0.061l0.004 0.002c-0.152-0.102-0.251-0.273-0.251-0.467 0-0.238 0.148-0.441 0.357-0.522l0.004-0.001z"></path>
<path fill="#1d1d1b" d="M42.36 45.12c0.12 0 0-1.13 0-1.13s-1.75 0.090-1.75-0.25-0.34-2.45 0-2.45 6 0.5 6 0.83-0.17 2.25-0.42 2.29-2.33-0.25-2.33-0.12-0.13 0.83-0.13 0.83 1 0.21 1 0.71-1 1-2.33 0.62-1.21-1.21-0.040-1.33z"></path>
<path fill="#f2910d" d="M41.44 43.16c-0.2-0.070-0.21-0.92 0-1s4.25 0.29 4.33 0.59-0.25 0.91-0.25 0.91-3.96-0.46-4.080-0.5z"></path>
</svg>
