<!-- Generated by IcoMoon.io -->
<svg version="1.1" xmlns="http://www.w3.org/2000/svg" width="64" height="64" viewBox="0 0 64 64">
<path fill="#1d1d1b" d="M12.55 39s1.54-10.42 2-10.88c0.341-0.305 0.738-0.558 1.172-0.74l0.028-0.010s1.25-10.22 2.67-13.68 6.46-7.46 13.42-8 11.21 3.25 13.5 8.12 3.46 14.13 3.46 14.13 1 0.21 1.7 3.46 1.75 9 1.75 9 2.92 0.2 3.17 2.7 0.29 10.75-0.080 11.34-10 3.66-24.59 4-20.91-3.25-21.75-4.92-0.79-12.12-0.16-13.080 3.71-1.44 3.71-1.44z"></path>
<path fill="#cbe7f5" d="M14.13 39.77c-0.5-0.29 1.87-10.77 2.58-10.83s1 0.75 1.13 2.080 0.080 9.88 0 9.88c-1.396-0.249-2.641-0.641-3.81-1.171l0.1 0.041z"></path>
<path fill="#92a0d1" d="M19.8 41.69c0-0.17-0.050-10.25-0.17-12 0.001-0.021 0.001-0.046 0.001-0.070 0-0.927-0.478-1.743-1.201-2.214l-0.010-0.006c-0.203-0.179-0.459-0.301-0.743-0.339l-0.007-0.001s1.58-11.2 2.92-13.33c2.766-3.66 7.11-6.001 12.001-6.001 0.056 0 0.112 0 0.168 0.001l-0.009-0c6.42 0 9.63 3.58 11.55 8s2.41 12.54 2.41 12.54-1.91 0.54-2 1.37 0.67 12.17 0.54 12.21-1.33 0.29-1.33 0.29c-1.132-1.474-2.252-2.778-3.437-4.018l0.017 0.018c-0.25 0-0.79 0.41-0.62 0.62 0.898 1.011 1.774 2.112 2.589 3.261l0.081 0.12c-0.309 0.064-0.695 0.121-1.087 0.157l-0.043 0.003c-0.17 0-2.080-2.46-2.25-2.46s-0.75 0.17-0.67 0.38 2.13 2.21 1.92 2.25-4.17 0.33-4.17 0.33-1.66-12.2-2.16-12.53-3.63-0.46-3.84 0.21-1.37 12.25-1.58 12.37c-2.071-0.035-4.070-0.23-6.018-0.573l0.228 0.033c-1.63-0.31-3.080-0.62-3.080-0.62z"></path>
<path fill="#cbe7f5" d="M31.75 32c0.13-0.12 0.88-0.17 0.92 0s1.38 10.71 1.13 10.87-2.92 0.3-3 0 0.79-10.68 0.95-10.87z"></path>
<path fill="#cbe7f5" d="M47 30.35c0-0.21 0.88-0.25 1.090-0.080 0.778 2.825 1.518 6.405 2.056 10.052l0.064 0.528c-0.21 0.17-2.79 1-2.79 0.59s-0.42-10.92-0.42-11.090z"></path>
<path fill="#1d1d1b" d="M21.17 16.44c0.082-1.29 0.59-2.447 1.385-3.346l-0.005 0.006c1.37-1.58 1.91-1.95 2.16-1.83 0.237 0.222 0.385 0.536 0.385 0.886 0 0.040-0.002 0.080-0.006 0.119l0-0.005c-0.090 0.12-1.75 0.92-2.25 2.21s-0.46 2.29-0.59 2.37-0.91-0.33-1.080-0.41z"></path>
<path fill="#1d1d1b" d="M29.21 14.77c3.22-1.77 11.46-0.12 10.5 7.58s-11.33 7.5-13.37 3.25-2.13-8.080 2.87-10.83z"></path>
<path fill="#fab900" d="M30 16.32c2.45-1.35 8.75-0.1 8 5.79s-8.66 5.73-10.22 2.48-1.63-6.17 2.22-8.27z"></path>
<path fill="#1d1d1b" d="M28.5 21.48c-0.048-0.204-0.076-0.438-0.076-0.679 0-0.703 0.235-1.35 0.631-1.868l-0.005 0.007c0.504-0.889 1.368-1.523 2.389-1.707l0.021-0.003c0.176 0.067 0.299 0.235 0.299 0.431 0 0.124-0.049 0.237-0.129 0.319l0-0c-0.25 0.21-1.58 0.58-1.92 1.42s-0.33 1.66-0.5 1.87-0.71 0.21-0.71 0.21z"></path>
<path fill="#1d1d1b" d="M29.67 23.060c-0.17-0.12 0.71-0.66 0.88-0.58s2.29 2.5 2 2.79-0.29 0.38-0.46 0.29-2.25-2.37-2.42-2.5z"></path>
<path fill="#1d1d1b" d="M31.34 21.52c-0.17-0.12 0.71-0.67 0.87-0.58s2.29 2.5 2 2.79-0.29 0.37-0.45 0.29-2.26-2.37-2.42-2.5z"></path>
<path fill="#1d1d1b" d="M33.090 19.85c-0.17-0.12 0.71-0.66 0.87-0.58s2.29 2.5 2 2.79-0.29 0.38-0.45 0.29-2.26-2.35-2.42-2.5z"></path>
<path fill="#1d1d1b" d="M29.050 11.6c0.119-0.061 0.26-0.096 0.409-0.096 0.508 0 0.92 0.412 0.92 0.92 0 0.095-0.014 0.186-0.041 0.273l0.002-0.007c-0.21 0.79-1.54 1-1.84 0.41-0.066-0.139-0.105-0.303-0.105-0.475 0-0.452 0.265-0.841 0.648-1.022l0.007-0.003z"></path>
<path fill="#1d1d1b" d="M33.8 10.73c0.118-0.059 0.258-0.094 0.406-0.094 0.508 0 0.92 0.412 0.92 0.92 0 0.091-0.013 0.178-0.038 0.261l0.002-0.007c-0.21 0.79-1.54 1-1.84 0.42-0.068-0.14-0.108-0.305-0.108-0.48 0-0.451 0.267-0.84 0.651-1.017l0.007-0.003z"></path>
<path fill="#1d1d1b" d="M38.3 12.56c0.119-0.061 0.26-0.096 0.409-0.096 0.508 0 0.92 0.412 0.92 0.92 0 0.095-0.014 0.186-0.041 0.273l0.002-0.007c-0.21 0.79-1.54 1-1.84 0.41-0.066-0.139-0.105-0.303-0.105-0.475 0-0.452 0.265-0.841 0.648-1.022l0.007-0.003z"></path>
<path fill="#1d1d1b" d="M41.75 16.9c0.123-0.066 0.27-0.104 0.425-0.104 0.508 0 0.92 0.412 0.92 0.92 0 0.102-0.016 0.199-0.047 0.291l0.002-0.006c-0.21 0.79-1.55 1-1.84 0.42-0.074-0.146-0.118-0.318-0.118-0.5 0-0.451 0.267-0.84 0.651-1.017l0.007-0.003z"></path>
<path fill="#1d1d1b" d="M42.13 23.1c0.119-0.061 0.26-0.096 0.409-0.096 0.508 0 0.92 0.412 0.92 0.92 0 0.095-0.014 0.186-0.041 0.273l0.002-0.006c-0.21 0.79-1.54 1-1.83 0.41-0.069-0.141-0.11-0.308-0.11-0.483 0-0.448 0.263-0.834 0.643-1.014l0.007-0.003z"></path>
<path fill="#1d1d1b" d="M38.38 28c0.118-0.059 0.258-0.094 0.406-0.094 0.508 0 0.92 0.412 0.92 0.92 0 0.091-0.013 0.178-0.038 0.261l0.002-0.006c-0.21 0.79-1.54 1-1.83 0.42-0.069-0.141-0.11-0.308-0.11-0.483 0-0.448 0.263-0.834 0.643-1.014l0.007-0.003z"></path>
<path fill="#1d1d1b" d="M26.5 29c0.121-0.063 0.265-0.1 0.418-0.1 0.508 0 0.92 0.412 0.92 0.92 0 0.093-0.014 0.182-0.039 0.267l0.002-0.006c-0.21 0.79-1.55 1-1.84 0.42-0.069-0.141-0.11-0.308-0.11-0.483 0-0.448 0.263-0.834 0.643-1.014l0.007-0.003z"></path>
<path fill="#1d1d1b" d="M22.84 25.060c0.119-0.061 0.26-0.096 0.409-0.096 0.508 0 0.92 0.412 0.92 0.92 0 0.095-0.014 0.186-0.041 0.273l0.002-0.006c-0.21 0.79-1.54 1-1.83 0.41-0.069-0.141-0.11-0.308-0.11-0.483 0-0.448 0.263-0.834 0.643-1.014l0.007-0.003z"></path>
<path fill="#1d1d1b" d="M22.3 19.85c0.119-0.061 0.26-0.096 0.409-0.096 0.508 0 0.92 0.412 0.92 0.92 0 0.095-0.014 0.186-0.041 0.273l0.002-0.006c-0.21 0.79-1.54 1-1.84 0.41-0.066-0.139-0.105-0.303-0.105-0.475 0-0.452 0.265-0.841 0.648-1.022l0.007-0.003z"></path>
<path fill="#1d1d1b" d="M24.5 14.23c0.121-0.063 0.265-0.1 0.418-0.1 0.508 0 0.92 0.412 0.92 0.92 0 0.093-0.014 0.182-0.039 0.267l0.002-0.007c-0.21 0.79-1.55 1-1.84 0.42-0.069-0.141-0.11-0.308-0.11-0.483 0-0.448 0.263-0.834 0.643-1.014l0.007-0.003z"></path>
<path fill="#1d1d1b" d="M21 33.9c0-0.18 1-0.42 1-0.17 0.044 0.747 0.069 1.621 0.069 2.5s-0.025 1.753-0.075 2.62l0.006-0.12c-0.12 0.080-0.83 0.16-0.91 0s-0.090-4.58-0.090-4.83z"></path>
<path fill="#1d1d1b" d="M41.090 37s0.41-0.92 0.58-0.83c1.061 1.145 2.048 2.396 2.932 3.721l0.068 0.109c-0.086 0.337-0.231 0.631-0.424 0.886l0.004-0.006s-3.080-3.78-3.16-3.88z"></path>
<path fill="#1d1d1b" d="M42.3 35.23c0.12-0.13 0.45-0.79 0.7-0.71s1.46 1.42 1.42 1.75-0.12 0.67-0.29 0.58-1.83-1.62-1.83-1.62z"></path>
<path fill="#696a9b" d="M11.21 41.73c0.34-0.17 4.59 0.83 7.84 1.62 3.667 1.090 7.88 1.716 12.24 1.716 0.267 0 0.534-0.002 0.8-0.007l-0.040 0.001c5.057-0.054 9.97-0.474 14.77-1.234l-0.57 0.074c2.88-0.42 6.67-1.38 6.8-1.21 0.143 0.69 0.26 1.532 0.326 2.389l0.004 0.071s-0.75-0.88-1-0.75-0.75 0.54-0.58 0.66c0.548 0.524 1.053 1.082 1.514 1.676l0.026 0.034v5c0.004 0.073 0.005 0.159 0.005 0.245 0 0.341-0.031 0.675-0.091 0.999l0.005-0.034s-2.71 0.87-3.63 1.21c-0.586 0.203-1.287 0.377-2.008 0.491l-0.072 0.009s-1-1.5-1.21-1.5-0.88 0-0.79 0.2 1.12 1.3 0.79 1.38c-0.338 0.059-0.741 0.102-1.151 0.119l-0.020 0.001c-0.541-0.963-1.12-1.794-1.77-2.564l0.020 0.024c-0.21 0-0.79 0.71-0.79 0.71s1.75 2 1.46 2.17c-0.285 0.076-0.612 0.12-0.95 0.12-0.018 0-0.035-0-0.053-0h0.003s-1.080-1.83-1.38-1.79c-0.3 0.080-0.563 0.193-0.804 0.338l0.014-0.008s1 1.75 0.79 1.8-0.87 0.080-0.87 0.080-0.58-0.79-0.71-0.79-0.54 0-0.62 0.12 0.12 0.79 0.12 0.79-3.33 0.38-8.25 0.42-7.38-0.21-7.38-0.21c-0.697-0.923-1.392-1.738-2.13-2.511l0.010 0.011c-0.21 0-0.88-0.12-0.79 0.13 0.343 0.515 0.701 1.127 1.027 1.758l0.052 0.112c-0.541-0.069-1.022-0.171-1.488-0.307l0.068 0.017c-0.662-1.185-1.364-2.205-2.148-3.155l0.028 0.035c-0.075-0.011-0.161-0.017-0.249-0.017-0.208 0-0.408 0.036-0.593 0.101l0.012-0.004c0.504 0.817 0.978 1.766 1.367 2.756l0.043 0.124c-0.21 0-1.37-0.3-1.37-0.3-0.337-0.583-0.697-1.087-1.101-1.553l0.011 0.013c-0.113-0.023-0.242-0.035-0.375-0.035s-0.262 0.013-0.388 0.038l0.013-0.002s0.5 1.13 0.34 1.13c-1.603-0.307-2.947-0.653-4.259-1.071l0.259 0.071c-0.84-0.34-1.13-0.42-1.25-0.67s-0.54-10.71 0.12-11.040z"></path>
<path fill="#1d1d1b" d="M14.5 45.44c0.387-0.22 0.851-0.35 1.345-0.35 1.422 0 2.593 1.076 2.744 2.458l0.001 0.012c0.33 1.54-0.5 3.77-3.54 3-1.197-0.316-2.064-1.388-2.064-2.663 0-1.068 0.609-1.994 1.499-2.45l0.015-0.007z"></path>
<path fill="#cbe7f5" d="M15 46.4c0.236-0.134 0.518-0.213 0.818-0.213 0.869 0 1.584 0.66 1.671 1.506l0.001 0.007c0.21 0.95-0.3 2.31-2.16 1.87-0.749-0.184-1.295-0.85-1.295-1.643 0-0.67 0.39-1.249 0.955-1.522l0.010-0.004z"></path>
<path fill="#1d1d1b" d="M23.75 47.6c0.385-0.216 0.846-0.343 1.336-0.343 1.425 0 2.599 1.077 2.753 2.461l0.001 0.013c0.33 1.54-0.5 3.76-3.54 3-1.195-0.321-2.059-1.394-2.059-2.67 0-1.068 0.607-1.994 1.494-2.453l0.015-0.007z"></path>
<path fill="#cbe7f5" d="M24.26 48.57c0.236-0.134 0.518-0.213 0.818-0.213 0.869 0 1.584 0.66 1.671 1.506l0.001 0.007c0.21 0.94-0.3 2.3-2.16 1.86-0.751-0.178-1.301-0.843-1.301-1.637 0-0.671 0.393-1.249 0.961-1.519l0.010-0.004z"></path>
<path fill="#1d1d1b" d="M35.63 47.73c0.385-0.217 0.846-0.345 1.336-0.345 1.42 0 2.59 1.073 2.743 2.452l0.001 0.012c0.34 1.55-0.5 3.77-3.54 3-1.185-0.328-2.040-1.396-2.040-2.664 0-1.064 0.602-1.988 1.485-2.448l0.015-0.007z"></path>
<path fill="#cbe7f5" d="M36.13 48.7c0.236-0.133 0.519-0.212 0.819-0.212 0.871 0 1.587 0.658 1.68 1.504l0.001 0.008c0.2 0.94-0.31 2.3-2.17 1.86-0.742-0.189-1.282-0.852-1.282-1.64 0-0.665 0.384-1.24 0.942-1.516l0.010-0.004z"></path>
<path fill="#1d1d1b" d="M46.050 46.65c0.387-0.221 0.85-0.351 1.344-0.351 1.42 0 2.589 1.077 2.735 2.459l0.001 0.012c0.33 1.54-0.5 3.77-3.54 3-1.193-0.318-2.058-1.389-2.058-2.661 0-1.070 0.611-1.997 1.502-2.451l0.016-0.007z"></path>
<path fill="#cbe7f5" d="M46.55 47.61c0.236-0.133 0.519-0.212 0.819-0.212 0.871 0 1.587 0.658 1.68 1.504l0.001 0.008c0.2 1-0.31 2.31-2.17 1.86-0.751-0.178-1.301-0.843-1.301-1.637 0-0.671 0.393-1.249 0.961-1.519l0.010-0.004z"></path>
<path fill="#1d1d1b" d="M50.21 45.56c-0.12-0.080 0.42-0.58 0.67-0.41 0.703 0.694 1.322 1.471 1.84 2.317l0.030 0.053c-0.12 0.080-0.37 0.54-0.5 0.46s-1.91-2.33-2.040-2.42z"></path>
</svg>
