<!-- Generated by IcoMoon.io -->
<svg version="1.1" xmlns="http://www.w3.org/2000/svg" width="64" height="64" viewBox="0 0 64 64">
<path fill="#1d1d1b" d="M6.9 48.93s-2.080 0.070-2.25-1.75-0.33-4.67 3.59-8 6.66-3.34 10.5-9.42 5.58-16.83 6.83-19.58 1.83-6.92 7.33-7.18 6.34 4.75 7.42 9.17 3.42 14.33 7.92 19.91 8.5 7.76 10.25 12.92 0.58 6.42 0.16 6.5-4.41 0.33-4.41 0.33c0.106 0.467 0.166 1.002 0.166 1.552 0 0.217-0.009 0.433-0.028 0.645l0.002-0.028c-0.19 0.31-4.37 0.87-7.060 0.81s-4.38-0.25-4.38-0.62-0.18-1.75-0.18-1.75l-1.82 0.12s0.44 2.5-0.060 3.25c-0.574 0.626-1.353 1.057-2.229 1.188l-0.021 0.002c-0.24 0.034-0.52 0.056-0.805 0.060l-0.005 0s0.5 2.81 0.19 3.31-4.070 0.69-7.88 0.63-5.62-0.13-5.69-0.75c0.052-1.246 0.166-2.411 0.342-3.557l-0.022 0.177s-3.070-0.18-3.38-1c-0.093-0.689-0.146-1.486-0.146-2.295 0-0.621 0.031-1.235 0.093-1.841l-0.006 0.076h-2.19c0.026 0.14 0.041 0.301 0.041 0.465 0 0.258-0.037 0.507-0.106 0.743l0.005-0.019c-0.19 0.37-4.69 0.62-8 0.31s-4.38-1.25-4.38-1.56 0.21-2.82 0.21-2.82z"></path>
<path fill="#cbe7f5" d="M7.94 47.3s-1.31-0.12-1.25-0.56 0.75-5.56 4.19-7.060 8.5-1.88 10.81-4.38 3.69-8.75 3.94-11.5 0-9.12 1.19-12.44 2-6.86 6.69-6.87c7.48 0 7.25 27.56 10.62 29.75 1.537 1.11 3.329 1.987 5.26 2.531l0.12 0.029c2.697 1.662 4.834 4.001 6.207 6.784l0.043 0.096c1.87 4.37 1.5 6.43 1.5 6.43l-2.94 0.25c-0.346-2.758-2.676-4.87-5.499-4.87-0.021 0-0.043 0-0.064 0h0.003c-5.070-0.13-5.76 5.87-5.76 5.87s-2.25 0.63-2.13 0.19-0.31-14.87-1.060-17.62-2.38-3.57-3.060-3.69-1.13 1.44-1 1.62 1.93 0 2.31 5.82 1.31 16.87 0.62 17.37-4.81 1.060-9.060 0.81-5.56-0.31-6.060-1.43 0.94-17.63 1.5-19.88 1.5-2.56 2.25-2.75c0.424-0.083 0.739-0.452 0.739-0.894 0-0.106-0.018-0.208-0.052-0.302l0.002 0.006c-0.13-0.31-1.19-0.37-2.19-0.12s-2.69 1.69-3.19 7.31-0.94 12.5-1.12 12.5-3.32-0.25-3.32-0.25 0.57-6-4.56-6.25-5.68 3.5-5.68 3.5z"></path>
<path fill="#e7413e" d="M13.44 45.43c1.631 0.033 2.941 1.363 2.941 2.999 0 0.021-0 0.043-0.001 0.064l0-0.003c0 1.56 0.13 2.87-0.25 3-0.597 0.073-1.288 0.115-1.988 0.115-0.865 0-1.715-0.063-2.546-0.186l0.094 0.011c-2.18-0.25-2.56 0-2.56-0.88s-0.37-5.37 4.31-5.12z"></path>
<path fill="#e7413e" d="M48.69 47.18c3.060-0.2 4 5 3.44 5.31-1.032 0.289-2.218 0.454-3.442 0.454-0.218 0-0.434-0.005-0.649-0.016l0.030 0.001c-2 0.060-3 0-3.13-0.94s-0.060-4.56 3.75-4.81z"></path>
<path fill="#1f4863" d="M24 23.68c0.25 0 0.31 3.62-1.070 7s-3.5 5.12-4.81 5.5c-0.866 0.227-1.873 0.381-2.908 0.429l-0.032 0.001s4.25-2.87 6.13-6.87 2.69-6.060 2.69-6.060z"></path>
<path fill="#1f4863" d="M42.65 25c0.77 2.363 1.695 4.4 2.812 6.312l-0.082-0.152c1.63 2.63 3.69 3.75 3.25 4s-3.31-0.86-4.63-3.36c-0.865-1.767-1.371-3.845-1.371-6.041 0-0.267 0.007-0.532 0.022-0.795l-0.002 0.037z"></path>
<path fill="#1d1d1b" d="M27.38 16.43c-0.060-0.31 0.38-10.5 5.5-10.63s5.25 11.38 4.75 11.56-2-0.93-5.62-0.62-4.44 0.69-4.63-0.31z"></path>
<path fill="#1f4863" d="M28.69 15.49c-0.32-0.19 0.63-8.75 4.38-8.38s3.75 8.25 3.19 8.38-2.070-0.44-3.94-0.38-3.19 0.63-3.63 0.38z"></path>
<path fill="#1d1d1b" d="M36.51 20.36c0.3-0.25 2.25 0.82 2.18 1.38s0.13 0.81-0.18 0.75c-0.981-0.32-1.834-0.765-2.595-1.327l0.025 0.017c-0.12-0.32 0.19-0.5 0.57-0.82z"></path>
<path fill="#1d1d1b" d="M35.63 23.55c0.18-0.18 2.94 1.44 3 1.88s0.38 1-0.060 0.93-3.44-1.62-3.5-2 0.37-0.62 0.56-0.81z"></path>
<path fill="#1d1d1b" d="M34.88 26.11c0.31 0.070 4.19 1.82 4.060 2.25s0.25 0.75-0.31 0.63-4.19-1.75-4.19-2.25c-0-0.004-0-0.010-0-0.015 0-0.284 0.182-0.525 0.436-0.614l0.005-0.001z"></path>
<path fill="#1d1d1b" d="M29.32 34.080c0.35-0.26 1 0.25 2.66 0.32s2.75 0 2.75 0 0.12 0.62 0 0.81c-0.69 0.183-1.481 0.288-2.298 0.288-0.138 0-0.275-0.003-0.412-0.009l0.019 0.001c-1.028-0.035-2.005-0.193-2.935-0.461l0.085 0.021c-0.050-0.111-0.079-0.241-0.079-0.378 0-0.225 0.079-0.431 0.211-0.593l-0.001 0.002z"></path>
<path fill="#1d1d1b" d="M29.35 39c0.35-0.27 1 0.25 2.66 0.31s2.75 0 2.75 0 0.12 0.63 0 0.81c-0.68 0.184-1.461 0.29-2.266 0.29-0.149 0-0.297-0.004-0.445-0.011l0.021 0.001c-1.025-0.037-1.998-0.191-2.928-0.451l0.088 0.021c-0.056-0.114-0.088-0.249-0.088-0.391 0-0.221 0.079-0.423 0.209-0.581l-0.001 0.002z"></path>
<path fill="#1d1d1b" d="M29.26 44.65c0.35-0.27 1 0.25 2.65 0.31s2.75 0 2.75 0 0.13 0.62 0 0.81c-0.675 0.184-1.449 0.291-2.249 0.291-0.152 0-0.302-0.004-0.452-0.011l0.021 0.001c-1.028-0.035-2.005-0.193-2.935-0.461l0.085 0.021c-0.050-0.11-0.080-0.239-0.080-0.375 0-0.223 0.079-0.427 0.211-0.587l-0.001 0.002z"></path>
<path fill="#1d1d1b" d="M49.82 38.65c0.12 0.15 2.41 2.090 2.34 2.37s-0.18 0.41-0.28 0.34c-0.923-0.676-1.728-1.331-2.498-2.025l0.028 0.025c-0.060-0.15 0.41-0.71 0.41-0.71z"></path>
<path fill="#1d1d1b" d="M47.35 39.33c0.28 0 4.22 3.19 4.16 3.57s-0.16 0.62-0.32 0.62-4.43-3.31-4.4-3.59 0.56-0.6 0.56-0.6z"></path>
<path fill="#1d1d1b" d="M46.29 41.93c1.111 0.59 2.065 1.296 2.901 2.121l-0.001-0.001c-0.12 0.16 0.29 0.38-0.37 0.35-1.154-0.411-2.151-0.995-3.013-1.731l0.013 0.011c-0.060-0.19 0.31-0.68 0.47-0.75z"></path>
<path fill="#e7413e" d="M26.11 57.26c0.070-0.1 2.46 0.21 5.21 0.12 1.362-0.129 2.945-0.203 4.545-0.203 0.202 0 0.404 0.001 0.606 0.004l-0.031-0c0.146 0.58 0.23 1.245 0.23 1.93 0 0.201-0.007 0.399-0.021 0.596l0.002-0.026c-1.378 0.204-2.969 0.32-4.587 0.32-0.497 0-0.992-0.011-1.483-0.033l0.070 0.002c-2.7-0.090-4.54 0-4.75-0.29-0.034-0.227-0.053-0.49-0.053-0.757 0-0.594 0.096-1.166 0.274-1.701l-0.011 0.038z"></path>
</svg>
