<!-- Generated by IcoMoon.io -->
<svg version="1.1" xmlns="http://www.w3.org/2000/svg" width="64" height="64" viewBox="0 0 64 64">
<path fill="#1d1d1b" d="M14.56 33.45c-3.68-6.72-2.75-13.25-1.17-18s7.42-10.45 14.67-11.71 12.94-0.66 19.080 5.88 4.86 17.62 3.71 20.46-2.85 7.79-7.41 10.58c-2.506 1.599-5.45 2.767-8.606 3.319l-0.144 0.021v1.92s2 0.12 2.3 0.67c0.16 0.728 0.252 1.564 0.252 2.421 0 0.084-0.001 0.168-0.003 0.251l0-0.012s11.76-6.17 11.76-6.42-0.29-3.67 0-4 2-0.55 3.67-0.55 3.33 1.050 3.33 1.51 0.79 15.29 0.41 15.62c-0.495 0.251-1.073 0.416-1.685 0.459l-0.015 0.001s-0.71 5-1.88 4.92-2.83-4.46-2.83-4.46-1.17 0.16-1.25-0.25-0.36-6.080-0.36-6.080l-10.87 5.62s0.25 2.83-0.13 3-10.45 1-10.75 0.13c-0.197-0.872-0.317-1.879-0.33-2.91l-0-0.010s-4.87-2.83-6.92-3.83-3-1.37-3-1.37c0.041 0.561 0.064 1.215 0.064 1.875s-0.023 1.314-0.069 1.962l0.005-0.087c-0.16 0.33-1 0.37-1 0.37s-1 4.63-2.79 4.75-3.5-4.2-3.5-4.2-1.1-0.43-1.1-0.64-0.67-15.83-0.42-16.080 1.61-1.17 4.42-1.13 3.79 1.21 3.87 1.71 0.17 5.5 0.17 5.5l9.23 4.34s-0.080-2.38 0.75-2.8c0.541-0.214 1.167-0.339 1.822-0.339 0.105 0 0.209 0.003 0.312 0.009l-0.014-0.001-0.12-2s-7.96-0.38-13.46-10.42z"></path>
<path fill="#e6e4da" d="M31.1 5.54c6-0.57 11.79 1.080 15.59 6.080s3.87 15.29 1.62 20-5.37 9.25-10.71 10.38-13.54 0.34-17.54-4.33-6.83-11.29-6-16.79 5.13-14.22 17.040-15.34z"></path>
<path fill="#1d1d1b" d="M25.19 17.58c1.49-1.29 5.87-2.29 8.5-2.63s4.7 0.88 4.29 4-1.63 10.5-3.63 11.92-5.21 0.91-5.83 0.21-3.46-8-3.79-9.34-0.73-3.12 0.46-4.16z"></path>
<path fill="#92a0d1" d="M27.19 18.12c0.59-0.34 7.5-2 8.29-1.38s0 3.55 0 3.55-0.83-0.46-1-0.34-0.63 0.5-0.33 0.67 1.080 0.29 1.080 0.5c-0.052 0.383-0.126 0.721-0.222 1.050l0.013-0.049s-2.17-1.17-2.33-0.84-0.25 0.38-0.090 0.55 2.34 0.75 2.3 1.080-0.13 0.79-0.13 0.79c-0.823-0.381-1.82-0.749-2.847-1.043l-0.153-0.037c-0.080 0.12-0.33 0.66-0.21 0.79s2.92 1 2.88 1.29-0.21 0.92-0.21 0.92c-0.841-0.449-1.833-0.873-2.864-1.211l-0.136-0.039c-0.080 0.16-0.33 0.54-0.080 0.71s3.080 1.25 3 1.45-0.17 0.8-0.34 0.75-2.91-1.37-3.16-1.2-0.38 0.62-0.17 0.75c1.26 0.462 2.318 0.95 3.331 1.511l-0.121-0.061c0 0.21 0 0.63-0.17 0.67s-2.79-1-2.92-0.92-0.33 0.5 0 0.71 2.71 0.71 2.5 0.92c-0.548 0.324-1.204 0.522-1.905 0.54l-0.005 0c-0.8 0-1.17 0.17-2.3-2.46-0.999-2.226-1.861-4.843-2.451-7.561l-0.049-0.269c0-0.91-0.080-1.29 0.8-1.79z"></path>
<path fill="#1d1d1b" d="M28.89 7.54c0.060-0.17 0.84-0.25 1 0 0.367 1.3 0.634 2.821 0.746 4.385l0.004 0.075c-0.16 0.21-0.54 0.42-0.62 0.25-0.395-1.24-0.786-2.825-1.088-4.441l-0.042-0.269z"></path>
<path fill="#1d1d1b" d="M34.1 7.12c0.111-0.072 0.247-0.115 0.393-0.115 0.252 0 0.474 0.128 0.605 0.322l0.002 0.003c0.023 0.29 0.036 0.628 0.036 0.969 0 1.209-0.163 2.381-0.467 3.494l0.022-0.093c-0.25 0.090-0.63 0.090-0.67-0.080-0.026-0.493-0.040-1.070-0.040-1.651 0-1.003 0.044-1.996 0.129-2.977l-0.009 0.127z"></path>
<path fill="#1d1d1b" d="M41.64 10.74c0.32-0.21 0.92 0.75 0.59 1s-2.84 2.5-3 2.46-0.59-0.12-0.42-0.29 2.71-3.080 2.83-3.17z"></path>
<path fill="#1d1d1b" d="M39.94 19.12c0-0.13 4.91-1.25 5.12-1s0.58 0.79 0.17 0.92c-1.448 0.345-3.249 0.651-5.081 0.851l-0.209 0.019c-0.17-0.080 0.060-0.62 0-0.79z"></path>
<path fill="#1d1d1b" d="M40.1 23.29c0.16-0.080 6.29 0.29 6.29 0.58s0.25 0.58-0.12 0.62c-2.224-0.058-4.344-0.235-6.428-0.524l0.298 0.034c-0.2-0.13-0.37-0.55-0.040-0.71z"></path>
<path fill="#1d1d1b" d="M40 28.080c0.16-0.060 4.62 1.33 4.5 1.66s-0.21 0.59-0.42 0.59c-1.777-0.474-3.274-1-4.719-1.624l0.219 0.084c-0.27-0.25 0.15-0.63 0.42-0.71z"></path>
<path fill="#1d1d1b" d="M37.23 32.080c0.15-0.11 4.46 4.41 4.29 4.62s-0.5 0.59-0.75 0.5-4.42-4.46-4.25-4.66c0.203-0.183 0.438-0.337 0.693-0.453l0.017-0.007z"></path>
<path fill="#1d1d1b" d="M30.23 34.33c1.68-1 5 0.080 4.33 3.21-0.289 1.379-1.495 2.4-2.939 2.4-0.858 0-1.633-0.361-2.179-0.938l-0.001-0.001c-0.449-0.537-0.722-1.235-0.722-1.996 0-1.129 0.6-2.118 1.498-2.666l0.014-0.008z"></path>
<path fill="#f2910d" d="M30.76 35.29c0.268-0.159 0.59-0.253 0.934-0.253 1.022 0 1.85 0.828 1.85 1.85 0 0.143-0.016 0.282-0.047 0.416l0.002-0.012c-0.154 0.907-0.935 1.589-1.874 1.589-0.541 0-1.029-0.226-1.375-0.589l-0.001-0.001c-0.289-0.345-0.465-0.793-0.465-1.282 0-0.726 0.387-1.362 0.966-1.712l0.009-0.005z"></path>
<path fill="#1d1d1b" d="M24.23 31.87c0.26-0.050 0.62 0.12 0.54 0.46-0.981 1.344-2.063 2.518-3.264 3.558l-0.026 0.022c-0.25 0-0.75-0.17-0.63-0.46s2.92-3.45 3.38-3.58z"></path>
<path fill="#1d1d1b" d="M17.14 28.54c0.070-0.39 4.67-2.050 4.88-1.84s0.46 0.71 0.21 0.84-4.59 1.95-4.75 1.91-0.38-0.66-0.34-0.91z"></path>
<path fill="#1d1d1b" d="M15.81 21.62c2.156 0.256 4.051 0.607 5.903 1.068l-0.323-0.068c0.17 0.16 0.3 0.46 0.050 0.54s-5.88-0.63-5.88-0.63 0.040-0.79 0.25-0.91z"></path>
<path fill="#1d1d1b" d="M17.56 16c0.16-0.060 4.54 1.45 4.54 1.7s-0.25 0.75-0.41 0.71-4.25-1.41-4.42-1.5 0.040-0.79 0.29-0.91z"></path>
<path fill="#1d1d1b" d="M22.64 10.62c0-0.15 0.71-0.71 0.92-0.58s3.25 3.66 3 4-0.58 0.59-0.71 0.46-3.16-3.67-3.21-3.88z"></path>
<path fill="#ddc07c" d="M29.23 44.080c0.11-0.080 1 0.16 2.37 0.29s1.88-0.29 2 0c0.061 0.251 0.096 0.539 0.096 0.835s-0.035 0.584-0.102 0.86l0.005-0.025c-0.12 0-1.79-0.17-2.75-0.13s-1.54 0.21-1.58 0-0.27-1.67-0.040-1.83z"></path>
<path fill="#e6e4da" d="M9.35 39.45c0.23-0.34 1.79-0.62 3-0.58s2 0.58 2.13 0.92 0.42 12.75 0 12.83c-0.086-0.002-0.188-0.003-0.291-0.003-0.958 0-1.895 0.092-2.802 0.268l0.092-0.015c-1 0.33-1.71 0.62-1.71 0.62s-0.67-13.66-0.42-14.040z"></path>
<path fill="#1d1d1b" d="M10.56 40.2c0.31-0.3 1-0.25 1.080 0s0.21 3.21-0.080 3.5-1.080 0.29-1.080 0c-0.028-0.391-0.044-0.848-0.044-1.308 0-0.772 0.045-1.534 0.133-2.283l-0.009 0.091z"></path>
<path fill="#f2910d" d="M10.44 55c0-0.43 1.25-0.71 2.29-0.66s1.58 0.25 1.58 0.5-1 3.45-1.62 3.58-2.25-2.8-2.25-3.42z"></path>
<path fill="#ddc07c" d="M16.44 46.24c0.24-0.18 9.29 4.090 9.29 4.3 0.069 0.658 0.109 1.422 0.109 2.196 0 0.399-0.011 0.796-0.031 1.19l0.002-0.055c-0.17 0.080-0.71-0.25-0.71-0.25 0.008-0.169 0.013-0.366 0.013-0.565 0-0.726-0.063-1.438-0.184-2.129l0.011 0.074c-0.21-0.080-1-0.080-1 0.090s0.37 2.33 0.16 2.25-1.2-0.55-1.2-0.71 0.2-1.42 0-1.5-0.92-0.46-0.88-0.25 0 1.29 0 1.29-5.66-2.25-5.66-2.5c-0.020-0.357-0.032-0.774-0.032-1.194 0-0.788 0.041-1.566 0.12-2.332l-0.008 0.096z"></path>
<path fill="#e6e4da" d="M27.48 47.79c0.15-0.24 7.83-0.42 7.91 0 0.097 0.741 0.152 1.599 0.152 2.469 0 0.331-0.008 0.66-0.024 0.987l0.002-0.046c-0.13-0.080-1-1-1.13-0.83s-0.41 0.58-0.29 0.71 1.54 1.080 1.59 1.41 0.080 1.38 0.080 1.38-1.54-1.87-1.77-1.79-0.54 0.58-0.38 0.75c0.78 0.814 1.53 1.681 2.234 2.585l0.056 0.075c0.13 0.3 0.34 1.46 0.090 1.5-0.138 0.034-0.297 0.054-0.46 0.054s-0.322-0.020-0.474-0.056l0.014 0.003c-0.12-0.080-2-2.91-2.17-2.91s-0.58 0.25-0.54 0.37c0.513 0.731 1.006 1.566 1.432 2.44l0.048 0.11c-0.194 0.050-0.416 0.079-0.645 0.079s-0.451-0.029-0.663-0.083l0.019 0.004c-0.436-0.76-0.889-1.414-1.391-2.026l0.021 0.026c-0.21 0-0.92 0.29-0.8 0.5s0.8 1.42 0.63 1.46-2.58 0.33-2.88 0-0.83-8.96-0.66-9.17z"></path>
<path fill="#1d1d1b" d="M28.81 48.87c0.22-0.11 0.71-0.25 0.79 0.080s0.34 3 0 3.090-0.54 0.41-0.7 0.080-0.34-3.12-0.090-3.25z"></path>
<path fill="#ddc07c" d="M37.6 50.2c0.29-0.080 10.92-6.12 11-5.87 0.093 0.962 0.145 2.079 0.145 3.208 0 0.366-0.006 0.731-0.017 1.095l0.001-0.053c-2.092 1.316-4.565 2.651-7.125 3.829l-0.415 0.171c0-0.21 0.16-2.29 0-2.38s-0.66-0.16-0.66 0 0.21 2.71 0 2.75-1 0.75-1 0.5c0.001-0.087 0.002-0.189 0.002-0.291 0-0.895-0.063-1.776-0.184-2.638l0.011 0.099c-0.12 0-1 0.29-1 0.54s0.38 2.63 0.13 2.79c-0.27 0.159-0.598 0.326-0.936 0.475l-0.064 0.025s-0.18-4.16 0.11-4.25z"></path>
<path fill="#e6e4da" d="M50.48 39.74c0.23-0.36 1.62-0.080 2.62 0.13 0.501 0.080 0.952 0.226 1.368 0.432l-0.028-0.012s0.16 10.7 0 10.54-1-1.17-1.25-1.17-0.5 0.71-0.42 0.88 1.58 1.12 1.63 1.37c0.010 0.112 0.016 0.243 0.016 0.375s-0.006 0.263-0.017 0.392l0.001-0.017s-1.75-1.46-1.92-1.37-0.42 0.7-0.21 0.87c0.831 0.625 1.566 1.281 2.243 1.992l0.007 0.008c0 0.21 0 0.5-0.29 0.38s-1.88-1.54-2.23-1.46c-0.253 0.096-0.43 0.337-0.43 0.619 0 0.091 0.018 0.177 0.051 0.256l-0.002-0.004c0.252 0.238 0.526 0.459 0.817 0.656l0.023 0.014s-1.55 0.54-1.71 0.21-0.48-14.75-0.27-15.090z"></path>
<path fill="#f2910d" d="M51.19 56c0-0.33 1.54-0.21 1.91-0.25 0.289 0.004 0.551 0.113 0.751 0.291l-0.001-0.001s-0.71 3.13-1.12 3.17-1.5-2.8-1.54-3.21z"></path>
</svg>
