<!-- Generated by IcoMoon.io -->
<svg version="1.1" xmlns="http://www.w3.org/2000/svg" width="64" height="64" viewBox="0 0 64 64">
<path fill="#1d1d1b" d="M53.94 48.87c0.42-0.42 0.63-12.79 0.21-14s-7.15-5.25-7.15-5.25-0.37-2.87-0.66-5.080-1.65-6.42-5.34-13.54-7.45-9.46-8.29-9.42c-2.091 0.376-3.903 1.372-5.288 2.788l-0.002 0.002c-3.562 3.683-6.416 8.076-8.328 12.943l-0.092 0.267c-1.223 3.38-1.93 7.28-1.93 11.345 0 0.026 0 0.052 0 0.079v-0.004c-2.34 1.34-7.25 4.71-7.75 5.59s0.41 14.71 0.45 14.91 2.8 0.3 5.21-1.12c1.978-1.371 3.69-2.924 5.179-4.673l0.031-0.037s1.54 3 1.88 3.58 1.41 0.84 1.41 0.84 0.38 1.41 0.54 1.75 1.13 0.37 1.13 0.37 0.87 3 0.92 3.13c0.458 0.12 0.986 0.195 1.53 0.21l0.010 0c-0.439 0.589-0.726 1.316-0.789 2.106l-0.001 0.014c0 1.080 1.25 1.75 2.87 2.21 1.037 0.341 1.85 1.112 2.241 2.096l0.009 0.024c0.178 0.167 0.419 0.27 0.683 0.27 0.070 0 0.138-0.007 0.203-0.021l-0.007 0.001c0.41 0 0.5-0.88 1.87-1.79s3.13-0.46 4.42-2-0.63-3.5-0.63-3.5c0.115 0.013 0.248 0.020 0.384 0.020 0.369 0 0.726-0.055 1.062-0.157l-0.026 0.007c0.29-0.17 0.1-2.83 0.1-2.83 0.807-0.019 1.58-0.127 2.321-0.315l-0.071 0.015c0.34-0.2 0.13-2.5 0.13-2.5 0.377-0.054 0.715-0.185 1.010-0.376l-0.010 0.006c0.404-0.613 0.743-1.319 0.983-2.069l0.017-0.061c0.683 0.958 1.561 1.734 2.58 2.28l0.040 0.020c1.9 1.16 6.52 2.29 6.94 1.87zM17.3 52.1c-0.15 0-0.4-2-0.78-2s-1 1.66-1.060 1.91c-0.024-0-0.052-0-0.080-0-0.735 0-1.455 0.066-2.153 0.191l0.073-0.011c-0.25 0.16 0 0.41 0.13 0.6s1.56 0.31 1.62 0.4c-0.299 0.77-0.591 1.399-0.917 2.007l0.047-0.097c-0.060 0.19 0.31 0.31 0.66 0.37s1.16-1.21 1.16-1.21 0.34 1 0.44 1.28 0.62 0.15 0.84 0 0-1.88 0-2.1 1.35-0.15 1.35-0.15 0.28-0.44 0.15-0.75-1.32-0.41-1.48-0.44zM9.24 55.26c0.142-0.339 0.282-0.759 0.395-1.19l0.015-0.070c0-0.004 0-0.010 0-0.015 0-0.324-0.19-0.604-0.465-0.733l-0.005-0.002c-0.25-0.060-0.66 0.91-0.66 0.91s-0.43-0.44-0.68-0.34 0 1 0 1c-0.277-0.105-0.598-0.174-0.933-0.19l-0.007-0c-0.19 0.060-0.16 0.28-0.16 0.47s0.82 0.62 0.82 0.62-1.070 0.44-1.25 0.54 0.5 0.75 0.62 0.81 1-0.72 1-0.72 0.13 0.84 0.13 1.060 0.31 0.13 0.56 0.16 0.38-1.13 0.38-1.13c0.389 0.177 0.842 0.32 1.315 0.405l0.035 0.005c0.37 0 0.28-0.31 0.28-0.75s-1.39-0.84-1.39-0.84zM49.18 52.82s0.12-1.16 0.16-1.35-0.16-0.21-0.47-0.21-1.47 1.59-1.57 1.74-1.57-0.12-1.68 0c-0.078 0.139-0.125 0.306-0.125 0.484 0 0.117 0.020 0.229 0.057 0.333l-0.002-0.007c0.13 0.22 0.85 0.34 0.94 0.47s-0.81 1.81-0.81 2.090 1.25 0 1.5-0.12c0.218-0.236 0.389-0.52 0.495-0.834l0.005-0.017s0.72 1 1.060 1 0.6-0.18 0.6-0.43-0.6-1-0.47-1.13c0.127-0.17 0.25-0.363 0.358-0.565l0.012-0.025c0.323-0.132 0.711-0.253 1.111-0.341l0.049-0.009c0.37-0.12 0.22-0.53 0.090-0.75s-1.31-0.33-1.31-0.33zM56.34 50.82c-2.66 0.41-4.41 2.31-3.88 4.78 0.252 1.5 1.516 2.636 3.055 2.69l0.005 0c0.41 0 0.63-0.38 0.53-0.88s-1.25-1-0.78-2.9c0.325-1.157 1.34-2.003 2.563-2.070l0.007-0c0.31-0.12 0.34-0.34-0.1-0.93s-0.63-0.78-1.4-0.66zM9.090 22c-0.032 0.201-0.050 0.432-0.050 0.667 0 0.395 0.051 0.779 0.147 1.144l-0.007-0.031c0.25 0.34 1.5-0.78 1.5-0.78s1.37 0.68 1.69 0.5-0.28-1.25-0.28-1.25 0.87-0.57 0.93-1-1.37-0.4-1.59-0.4-0.63-1.75-1-1.66-0.45 1.63-0.69 1.63c-0.41 0-1.59 0.18-1.62 0.56s0.97 0.62 0.97 0.62zM11 11.35c0.1 0.060-0.31 1.81 0.22 1.84s1.34-1.25 1.5-1.34 2 0.78 2.38 0.47-0.88-1.56-0.88-1.56 1.16-1 0.88-1.35-1.5 0-1.69 0.13-1.35-1.6-1.69-1.38-0.25 1.5-0.28 1.72-1.54 0.28-1.63 0.66 1.090 0.75 1.19 0.81zM47.22 10.88c0.060 0.13-0.72 1.56-0.47 1.78s1.81-0.84 1.94-0.9 1.31 1.56 1.77 1.24-0.37-1.66-0.37-1.66 1.4-0.34 1.4-0.72-1.56-0.75-1.56-0.75-0.060-1.62-0.38-1.66-1.21 1.29-1.31 1.35-1.91-0.5-2 0 0.91 1.2 0.97 1.32zM57.27 7.76c-0.060-0.16 0.38-2.25 0-2.44s-1.59 1.4-1.72 1.53-2.31-0.71-2.43-0.47c-0.25 0.47 1.59 1.19 1.62 1.53s-1 1.6-0.62 2 1.65-0.56 1.87-0.47 1.13 1.22 1.41 1.070-0.13-1.5-0.1-1.6 1.1-0.18 1.1-0.47-1.060-0.53-1.13-0.68zM54.86 22.91c-0.63-0.12-1.21 1.71-1.59 1.79s-1.71-0.95-1.83-0.5 1.080 1.59 1.17 1.75-1.34 1.21-1.090 1.63 1.5-0.33 1.75-0.29 0.67 2 1.13 1.75 0.17-1.92 0.42-2.090 1.25 0 1.41-0.58-1.25-0.83-1.37-1 0.62-2.37 0-2.46z"></path>
<path fill="#cbe7f5" d="M11.23 35.25c0.18-0.42 5.71-4.13 5.79-3.88 0.154 2.446 0.481 4.716 0.975 6.922l-0.055-0.292c0.71 2.42 1.33 4 1.21 4s-2.75-3-3-2.87-0.71 0.71-0.58 0.92 2.66 2.75 2.5 3-1.070 1.15-1.070 1.15c-0.737-1.22-1.473-2.264-2.273-3.255l0.043 0.055c-0.2 0-0.91 0.75-0.75 1s2.25 2.58 2.050 2.91c-0.193 0.28-0.401 0.526-0.629 0.749l-0.001 0.001c-0.607-0.817-1.236-1.538-1.917-2.207l-0.003-0.003c-0.16 0-0.79 0.55-0.62 0.84s1.79 1.71 1.42 2-2.71 1.54-2.71 1.25-0.61-11.71-0.38-12.29z"></path>
<path fill="#cbe7f5" d="M47.27 31.87c0.044 0.556 0.068 1.203 0.068 1.857 0 2.016-0.236 3.976-0.683 5.855l0.034-0.171c-0.92 2.92-1.25 3.59-1.25 3.59 0.892 1.007 1.875 1.899 2.947 2.674l0.053 0.036c1.092 0.556 2.37 0.917 3.723 0.999l0.027 0.001s0.13-10.59 0-10.75-4.54-3.88-4.92-4.090z"></path>
<path fill="#1d1d1b" d="M49.61 38.83c0.25 0.080 1.21 0.67 1.29 1s0 1-0.17 1c-0.608-0.292-1.129-0.657-1.582-1.092l0.002 0.002c-0.080-0.33 0.46-0.91 0.46-0.91z"></path>
<path fill="#1d1d1b" d="M48.61 40.79c0-0.31 2.54 1.66 2.58 2s0 1.080-0.12 1-2.84-1.79-2.84-2.17 0.38-0.79 0.38-0.83z"></path>
<path fill="#1d1d1b" d="M47.82 42.7c1.211 0.707 2.256 1.522 3.178 2.458l0.002 0.002c0 0.29 0.17 0.75-0.2 0.75-1.302-0.683-2.425-1.471-3.434-2.383l0.014 0.013c-0.11-0.25 0.31-0.84 0.44-0.84z"></path>
<path fill="#e7413e" d="M23.9 46.25s-3.46-6.13-4.25-10.46-1.080-9.79 0.35-14.46c0.877-3.23 2.086-6.055 3.628-8.661l-0.088 0.161c2.29-1.379 5.055-2.194 8.010-2.194 0.306 0 0.61 0.009 0.911 0.026l-0.042-0.002c5 0.25 6.29 1.34 6.62 1.54 2.474 3.99 4.366 8.638 5.41 13.597l0.050 0.283c0.343 1.967 0.539 4.233 0.539 6.544 0 2.013-0.149 3.991-0.436 5.924l0.027-0.219s-1.29-1.79-1.54-1.71-0.67 0.38-0.46 0.63c0.633 0.715 1.223 1.502 1.746 2.336l0.044 0.074c-0.126 0.48-0.283 0.896-0.478 1.289l0.018-0.039c-0.667-0.987-1.325-1.842-2.029-2.654l0.029 0.034c-0.17 0-0.79 0.12-0.67 0.46s2.42 3.16 2.42 3.58c-0.267 0.995-0.726 1.859-1.339 2.59l0.008-0.010c-0.38 0.21-3.13 0.71-3.3 1.090s-0.29 1.25 0 1.33 2.46 0 2.46 0.29 0.080 1.17 0 1.21c-2.525 0.453-5.431 0.712-8.397 0.712-0.17 0-0.339-0.001-0.509-0.003l0.026 0c-5.12 0-7.37 0-7.5-0.21s-0.41-1.25-0.25-1.21 2.25 0.33 3.34 0.38 1.41 0 1.5-0.13c-0.046-0.506-0.141-0.971-0.283-1.416l0.013 0.046s-4.83-0.34-5.58-0.75z"></path>
<path fill="#1d1d1b" d="M39.15 40.45c0-0.24 0.62-0.41 0.79-0.33 0.794 0.833 1.479 1.78 2.027 2.811l0.033 0.069c0 0.34-0.29 0.8-0.58 0.63-0.836-0.934-1.587-1.975-2.223-3.091l-0.047-0.089z"></path>
<path fill="#1d1d1b" d="M37.57 41.2c0.2 0.090 2.79 2.67 2.62 2.92s-0.71 0.67-0.83 0.54-2.63-2.46-2.54-2.79 0.75-0.67 0.75-0.67z"></path>
<path fill="#1d1d1b" d="M35.19 42.58c1.202 0.852 2.254 1.783 3.196 2.815l0.014 0.015c0 0.21-0.42 0.67-0.67 0.59-1.207-0.803-2.258-1.682-3.204-2.664l-0.006-0.006c0.050-0.25 0.48-0.79 0.67-0.75z"></path>
<path fill="#1d1d1b" d="M33.32 44.25c0.21-0.22 3.16 2 3.080 2.29s0 0.66-0.46 0.58c-1.245-0.532-2.317-1.204-3.267-2.014l0.017 0.014c0-0.21 0.58-0.83 0.63-0.87z"></path>
<path fill="#1d1d1b" d="M22.27 19c0.166-1.113 0.385-2.086 0.669-3.031l-0.039 0.151c0.18-1.014 0.566-1.914 1.114-2.691l-0.014 0.021c0.17-0.080 1-0.29 1-0.080-0.464 0.94-0.902 2.061-1.249 3.222l-0.041 0.158c-0.25 1.37-0.12 1.79-0.37 2-0.314 0.144-0.679 0.234-1.064 0.25l-0.006 0z"></path>
<path fill="#cbe7f5" d="M24.86 10.29c0.16-0.38 4.79-6.75 7.33-6.88s5.67 6.79 5.33 6.84c-1.379-0.603-2.985-0.953-4.673-0.953-0.673 0-1.334 0.056-1.977 0.163l0.070-0.010c-4.46 0.55-6.080 0.84-6.080 0.84z"></path>
<path fill="#1d1d1b" d="M27.86 8.5c-0.28-0.12 2.5-3.25 3-3.3s0.42 0.38 0.54 0.75-1.21 1.21-1.75 1.88-0.5 0.83-0.79 0.92c-0.366-0.004-0.71-0.096-1.012-0.256l0.012 0.006z"></path>
<path fill="#1d1d1b" d="M24.52 20.25c3.29-3.17 9.75-4.3 13.67-1s5.13 7.46 3.92 12.37-6.25 7.63-11.92 6.5c-4.285-0.671-7.699-3.777-8.812-7.834l-0.018-0.076c-0.139-0.647-0.219-1.391-0.219-2.153 0-3.076 1.297-5.849 3.373-7.802l0.006-0.005z"></path>
<path fill="#fab900" d="M25.26 21c2.95-2.85 8.77-3.87 12.29-0.87 2.429 1.906 3.976 4.842 3.976 8.14 0 1.070-0.163 2.103-0.465 3.073l0.020-0.073c-1.080 4.43-5.63 6.87-10.72 5.86-3.858-0.611-6.93-3.408-7.934-7.061l-0.016-0.069c-0.131-0.594-0.206-1.276-0.206-1.976 0-2.77 1.173-5.266 3.050-7.018l0.006-0.005z"></path>
<path fill="#1d1d1b" d="M27.65 23.49c1.88-1.82 5.58-2.46 7.83-0.55 1.539 1.214 2.517 3.078 2.517 5.171 0 0.674-0.101 1.324-0.29 1.935l0.012-0.047c-0.69 2.82-3.58 4.37-6.83 3.73-2.454-0.394-4.407-2.173-5.050-4.496l-0.010-0.044c-0.078-0.368-0.123-0.79-0.123-1.223 0-1.765 0.746-3.356 1.94-4.474l0.003-0.003z"></path>
<path fill="#85bfe9" d="M28.9 24.79c0.776-0.735 1.827-1.187 2.983-1.187 0.94 0 1.81 0.299 2.52 0.806l-0.013-0.009c1.089 0.853 1.783 2.169 1.783 3.646 0 0.483-0.074 0.949-0.212 1.387l0.009-0.033c-0.49 2-2.52 3.060-4.79 2.61-1.723-0.275-3.096-1.521-3.553-3.149l-0.007-0.031c-0.059-0.267-0.093-0.575-0.093-0.89 0-1.243 0.527-2.363 1.37-3.148l0.003-0.002z"></path>
<path fill="#1d1d1b" d="M31.59 18.83c0.116-0.038 0.249-0.059 0.387-0.059 0.712 0 1.29 0.578 1.29 1.29 0 0.158-0.028 0.309-0.080 0.448l0.003-0.009c-0.33 0.95-1.92 0.91-2.29 0.45-0.188-0.227-0.303-0.52-0.303-0.841 0-0.613 0.418-1.128 0.984-1.277l0.009-0.002z"></path>
<path fill="#f2910d" d="M31.78 19.51c0.052-0.018 0.111-0.028 0.173-0.028 0.304 0 0.55 0.246 0.55 0.55 0 0.067-0.012 0.132-0.034 0.192l0.001-0.004c-0.14 0.41-0.82 0.39-1 0.2-0.078-0.097-0.125-0.221-0.125-0.356 0-0.267 0.183-0.491 0.431-0.553l0.004-0.001z"></path>
<path fill="#1d1d1b" d="M36.82 20.91c0.116-0.038 0.249-0.059 0.387-0.059 0.712 0 1.29 0.578 1.29 1.29 0 0.158-0.028 0.309-0.080 0.448l0.003-0.009c-0.33 1-1.92 0.92-2.29 0.46-0.193-0.228-0.31-0.525-0.31-0.849 0-0.615 0.421-1.132 0.99-1.279l0.009-0.002z"></path>
<path fill="#f2910d" d="M37 21.59c0.052-0.018 0.111-0.028 0.173-0.028 0.304 0 0.55 0.246 0.55 0.55 0 0.067-0.012 0.132-0.034 0.192l0.001-0.004c-0.14 0.41-0.82 0.4-1 0.2-0.078-0.097-0.125-0.221-0.125-0.356 0-0.267 0.183-0.491 0.431-0.553l0.004-0.001z"></path>
<path fill="#1d1d1b" d="M39.48 26.16c0.119-0.040 0.256-0.063 0.398-0.063 0.712 0 1.29 0.578 1.29 1.29 0 0.159-0.029 0.311-0.081 0.452l0.003-0.009c-0.34 1-1.92 0.92-2.3 0.46-0.188-0.228-0.302-0.522-0.302-0.844 0-0.614 0.416-1.131 0.983-1.284l0.009-0.002z"></path>
<path fill="#f2910d" d="M39.68 26.84c0.052-0.018 0.111-0.028 0.173-0.028 0.304 0 0.55 0.246 0.55 0.55 0 0.067-0.012 0.132-0.034 0.192l0.001-0.004c-0.117 0.207-0.335 0.344-0.585 0.344-0.157 0-0.302-0.054-0.416-0.145l0.001 0.001c-0.078-0.097-0.125-0.221-0.125-0.356 0-0.267 0.183-0.491 0.431-0.553l0.004-0.001z"></path>
<path fill="#1d1d1b" d="M38.11 31.7c0.116-0.038 0.249-0.059 0.387-0.059 0.712 0 1.29 0.578 1.29 1.29 0 0.158-0.028 0.309-0.080 0.448l0.003-0.009c-0.33 1-1.92 0.92-2.29 0.46-0.188-0.228-0.302-0.522-0.302-0.844 0-0.614 0.416-1.131 0.983-1.284l0.009-0.002z"></path>
<path fill="#f2910d" d="M38.31 32.38c0.048-0.015 0.104-0.024 0.162-0.024 0.304 0 0.55 0.246 0.55 0.55 0 0.066-0.012 0.129-0.033 0.188l0.001-0.004c-0.14 0.41-0.82 0.4-1 0.2-0.077-0.096-0.123-0.22-0.123-0.354 0-0.27 0.188-0.496 0.44-0.555l0.004-0.001z"></path>
<path fill="#1d1d1b" d="M33.4 34.43c0.116-0.038 0.249-0.059 0.387-0.059 0.712 0 1.29 0.578 1.29 1.29 0 0.158-0.028 0.309-0.080 0.448l0.003-0.009c-0.33 1-1.91 0.92-2.29 0.46-0.188-0.228-0.302-0.522-0.302-0.844 0-0.614 0.416-1.131 0.983-1.284l0.009-0.002z"></path>
<path fill="#f2910d" d="M33.6 35.11c0.053-0.019 0.115-0.030 0.179-0.030 0.298 0 0.54 0.242 0.54 0.54 0 0.072-0.014 0.141-0.040 0.204l0.001-0.004c-0.14 0.41-0.82 0.4-1 0.2-0.077-0.096-0.123-0.22-0.123-0.354 0-0.27 0.188-0.496 0.44-0.555l0.004-0.001z"></path>
<path fill="#1d1d1b" d="M28.23 33.58c0.119-0.040 0.256-0.063 0.398-0.063 0.712 0 1.29 0.578 1.29 1.29 0 0.159-0.029 0.311-0.081 0.452l0.003-0.009c-0.34 1-1.92 0.91-2.3 0.45-0.184-0.226-0.295-0.518-0.295-0.836 0-0.612 0.413-1.127 0.976-1.282l0.009-0.002z"></path>
<path fill="#f2910d" d="M28.43 34.26c0.052-0.018 0.111-0.028 0.173-0.028 0.304 0 0.55 0.246 0.55 0.55 0 0.067-0.012 0.132-0.034 0.192l0.001-0.004c-0.117 0.207-0.335 0.344-0.585 0.344-0.157 0-0.302-0.054-0.416-0.145l0.001 0.001c-0.078-0.097-0.125-0.221-0.125-0.356 0-0.267 0.183-0.491 0.431-0.553l0.004-0.001z"></path>
<path fill="#1d1d1b" d="M24.63 30.27c0.119-0.041 0.257-0.064 0.399-0.064 0.707 0 1.28 0.573 1.28 1.28 0 0.159-0.029 0.312-0.082 0.453l0.003-0.009c-0.33 1-1.91 0.92-2.29 0.46-0.188-0.227-0.303-0.52-0.303-0.841 0-0.613 0.418-1.128 0.984-1.277l0.009-0.002z"></path>
<path fill="#f2910d" d="M24.83 30.94c0.050-0.016 0.107-0.026 0.166-0.026 0.304 0 0.55 0.246 0.55 0.55 0 0.070-0.013 0.138-0.037 0.199l0.001-0.004c-0.14 0.41-0.82 0.39-1 0.19-0.077-0.096-0.123-0.22-0.123-0.354 0-0.27 0.188-0.496 0.44-0.555l0.004-0.001z"></path>
<path fill="#1d1d1b" d="M23.67 25.7c0.116-0.038 0.249-0.059 0.387-0.059 0.712 0 1.29 0.578 1.29 1.29 0 0.158-0.028 0.309-0.080 0.448l0.003-0.009c-0.33 1-1.91 0.92-2.29 0.46-0.188-0.228-0.302-0.522-0.302-0.844 0-0.614 0.416-1.131 0.983-1.284l0.009-0.002z"></path>
<path fill="#f2910d" d="M23.87 26.38c0.053-0.019 0.115-0.030 0.179-0.030 0.298 0 0.54 0.242 0.54 0.54 0 0.072-0.014 0.141-0.040 0.204l0.001-0.004c-0.14 0.41-0.82 0.4-1 0.2-0.077-0.096-0.123-0.22-0.123-0.354 0-0.27 0.188-0.496 0.44-0.555l0.004-0.001z"></path>
<path fill="#1d1d1b" d="M26.19 20.89c0.116-0.038 0.249-0.059 0.387-0.059 0.712 0 1.29 0.578 1.29 1.29 0 0.158-0.028 0.309-0.080 0.448l0.003-0.009c-0.33 1-1.91 0.91-2.29 0.46-0.188-0.228-0.302-0.522-0.302-0.844 0-0.614 0.416-1.131 0.983-1.284l0.009-0.002z"></path>
<path fill="#f2910d" d="M26.39 21.57c0.052-0.018 0.111-0.028 0.173-0.028 0.304 0 0.55 0.246 0.55 0.55 0 0.067-0.012 0.132-0.034 0.192l0.001-0.004c-0.15 0.41-0.82 0.39-1 0.2-0.078-0.097-0.125-0.221-0.125-0.356 0-0.267 0.183-0.491 0.431-0.553l0.004-0.001z"></path>
<path fill="#f2910d" d="M26.37 50.47c0-0.25 3.12 0.13 6.81 0s5.72-0.37 5.78-0.25-0.060 1.94-0.060 1.94-1.22-0.53-6-0.16-5.85 0.6-6 0.47c-0.227-0.574-0.412-1.247-0.523-1.944l-0.007-0.056z"></path>
<path fill="#ffe19b" d="M28.52 53.41c0.12-0.060 1.85-0.12 1.85-0.12-0.043 0.134-0.068 0.287-0.068 0.447 0 0.489 0.233 0.925 0.594 1.2l0.004 0.003c0.87 0.75 1.59 0.66 1.75 1s0.090 0.69 0.37 0.75c0.053 0.018 0.114 0.028 0.177 0.028 0.183 0 0.346-0.084 0.452-0.217l0.001-0.001c0.15-0.18 0.31-1 0.81-1s1.66 0.32 2.060-0.4c0.168-0.368 0.265-0.799 0.265-1.253 0-0.186-0.017-0.369-0.048-0.546l0.003 0.019c0.132-0.015 0.285-0.024 0.44-0.024s0.308 0.009 0.458 0.026l-0.018-0.002c0.28 0.060 1.37 1.59 0.59 2.5s-3.21 1.12-4.47 2.090c-0.464 0.337-0.873 0.695-1.247 1.087l-0.003 0.004c-0.451-0.963-1.276-1.687-2.284-1.993l-0.026-0.007c-1.88-0.68-2.25-0.87-2.28-1.4s0.1-1.91 0.62-2.19z"></path>
<path fill="#fab900" d="M31.37 53.22c1.057-0.162 2.276-0.255 3.518-0.255 0.17 0 0.339 0.002 0.508 0.005l-0.025-0c0.28 0.13 0.59 0.91 0.25 1.13s-1.53 0.41-1.88 0.75-0.31 0.5-0.47 0.44c-0.524-0.218-0.977-0.493-1.379-0.827l0.009 0.007c-0.47-0.47-0.66-1.15-0.53-1.25z"></path>
<path fill="#e6e4da" d="M55.93 51.6c0.24-0.090 0.5 0.19 0.22 0.44-0.937 0.511-1.647 1.341-1.991 2.34l-0.009 0.030c-0.31 1.44 0.56 2.38 0.34 2.56s-1.47-0.78-1.22-2.46c0.304-1.389 1.317-2.485 2.632-2.902l0.028-0.008z"></path>
</svg>
