<!-- Generated by IcoMoon.io -->
<svg version="1.1" xmlns="http://www.w3.org/2000/svg" width="64" height="64" viewBox="0 0 64 64">
<path fill="#1d1d1b" d="M16 18.6s4.38-12 4.71-12.21c0.291-0.145 0.629-0.247 0.986-0.289l0.014-0.001s-0.21-2.59 0.21-2.67 4.62-0.21 4.71 0.25 0.080 2.37 0.080 2.37 0.54-0.33 0.62 0-0.41 7-0.12 7.17c0.218 0.109 0.473 0.184 0.741 0.209l0.009 0.001s0.12-0.83 0.33-0.83 7.42-0.17 7.54 0 0 0.46 0.17 0.5 0.54 0.21 0.63 0.080-0.17-7 0.080-7c0.106-0.010 0.23-0.016 0.355-0.016s0.249 0.006 0.371 0.017l-0.016-0.001s-0.54-2.38-0.13-2.42 3.46-0.16 3.59 0.17c0.109 0.599 0.187 1.311 0.219 2.036l0.001 0.034s0.67-0.12 0.84 0 5.71 10.5 5.75 10.25-0.17-0.87 0.12-1 3.59-0.38 3.67 0.080 0.080 3 0.080 3 1.59-0.33 1.63 0 0.91 22.42 0.5 25-1.84 9.46-7.17 12.42-8 3.12-8 3.12c-0.347 0.649-0.919 1.14-1.61 1.374l-0.020 0.006c-1.556 0.164-3.361 0.258-5.188 0.258-1.518 0-3.020-0.065-4.505-0.192l0.193 0.013c-0.454-0.3-0.801-0.728-0.994-1.232l-0.006-0.018s-6.16-0.62-9.83-4.080-5.79-7.25-6.13-11.88-0.080-24.58 0.38-24.75c0.176-0.038 0.378-0.059 0.585-0.059s0.409 0.022 0.604 0.063l-0.019-0.003s-0.25-2.58 0-2.58 3.25-0.29 3.29 0-0.17 2.58 0 2.62c0.202 0.072 0.447 0.138 0.699 0.185l0.031 0.005z"></path>
<path fill="#85bfe9" d="M22.77 5.89c-0.12 0-0.29-1.54 0-1.59s3-0.2 2.92 0.090 0.29 1.41 0 1.5-2.69-0.040-2.92 0z"></path>
<path fill="#e6e4da" d="M22.1 7.55c0.759-0.087 1.637-0.137 2.528-0.137 0.314 0 0.626 0.006 0.937 0.018l-0.045-0.001c-0.080 0.17-0.17 7.17 0.13 7.29s1.91 0.5 1.91 0.5l-1.29 7.080s-1-1.45-1.17-1.41-0.54 0.29-0.41 0.37 1.31 1.79 1.31 1.79v1.13l-1.090 0.33c-0.692-1.084-1.39-2.020-2.148-2.904l0.028 0.034c-0.21 0-0.79 0.25-0.63 0.46s1.84 2.66 1.84 2.66l-1 0.59c-0.722-0.991-1.487-1.864-2.323-2.663l-0.007-0.007c-0.25 0-0.58 0.25-0.46 0.46s2.21 2.37 2 2.5-0.58 0.54-0.58 0.54c-0.77-0.941-1.575-1.784-2.439-2.562l-0.021-0.018c-0.17 0.080-0.37 0.83-0.37 0.83l2.25 2.25-0.55 0.46c-1.719-0.523-3.040-1.862-3.531-3.553l-0.009-0.037c-0.75-2.87-0.62-2.62-0.62-2.62s5.51-13.29 5.76-13.38z"></path>
<path fill="#92a0d1" d="M12.9 18.43s-0.42-1.58-0.13-1.54 1.46-0.29 1.5 0 0.13 1.54-0.080 1.58c-0.084 0.002-0.182 0.003-0.28 0.003-0.355 0-0.707-0.016-1.055-0.047l0.045 0.003z"></path>
<path fill="#85bfe9" d="M38.31 5.85s-0.12-1 0.090-1c0.243-0.042 0.524-0.066 0.81-0.066s0.566 0.024 0.839 0.070l-0.029-0.004c0 0.12 0.17 1.2 0 1.2s-1.71-0.2-1.71-0.2z"></path>
<path fill="#e6e4da" d="M38.52 7.68h2.33l5.67 10.83c-0.652-0.549-1.373-1.082-2.126-1.569l-0.084-0.051c-0.12 0-0.5 0.41-0.29 0.54 0.747 0.533 1.401 1.108 1.993 1.742l0.007 0.008c0 0.16 0 1.37-0.25 1.54s-2.5-2.25-2.63-2.21-0.33 0.54-0.33 0.54c0.971 0.799 1.843 1.63 2.652 2.52l0.018 0.020c-0.14 0.505-0.304 0.936-0.501 1.349l0.021-0.049c-0.944-0.925-1.948-1.799-3.002-2.612l-0.078-0.058c-0.17 0.080-0.46 0.46-0.38 0.63s3 2.58 2.88 2.87c-0.19 0.288-0.411 0.535-0.664 0.746l-0.005 0.004c-0.955-1.105-1.935-2.111-2.972-3.055l-0.028-0.025c-0.21 0-0.75 0.58-0.46 0.71 1.12 0.882 2.104 1.85 2.973 2.916l0.027 0.034-0.62 0.46s-2.8-3-3-3-0.5 0.67-0.33 0.75 1.66 1.79 1.66 1.79c-0.486-0.241-1.055-0.453-1.648-0.606l-0.063-0.014c-0.46 0-0.75 0-0.75 0l-1.94-9.58s2-0.55 2-1-0.080-6.17-0.080-6.17z"></path>
<path fill="#92a0d1" d="M48.81 16.22c0-0.13 1.84-0.17 1.88 0.13s0.080 1.79-0.090 1.83-1.83 0-1.83 0 0.080-1.75 0.040-1.96z"></path>
<path fill="#ddc07c" d="M12.31 20c0.513-0.067 1.106-0.105 1.707-0.105 0.346 0 0.688 0.013 1.028 0.037l-0.045-0.003s0.13 4.21 0.92 5.5c0.926 1.25 1.911 2.351 2.986 3.357l0.014 0.013c-0.931 1.316-1.626 2.87-1.985 4.548l-0.015 0.082c-0.1 0.663-0.157 1.427-0.157 2.205 0 0.544 0.028 1.082 0.082 1.611l-0.006-0.066s-1.5 0.67-3 1.46c-0.877 0.434-1.6 0.85-2.297 1.303l0.087-0.053s0.37-19.59 0.68-19.89z"></path>
<path fill="#ddc07c" d="M47.65 20.14c0.2 0 3.66 0 3.75 0.21s0.6 16.65 0.66 18.65c0.025 0.291 0.039 0.629 0.039 0.971 0 0.688-0.058 1.363-0.169 2.020l0.010-0.071c-0.751-0.594-1.602-1.121-2.51-1.546l-0.080-0.034c-0.591-0.216-1.086-0.441-1.56-0.7l0.060 0.030s0.46-4.75-0.45-7.79-1.3-3.5-2.21-4.38c-0.364-0.358-0.759-0.686-1.18-0.98l-0.030-0.020c1.1-0.877 2.007-1.943 2.682-3.156l0.028-0.054c0.399-0.902 0.731-1.957 0.945-3.055l0.015-0.095z"></path>
<path fill="#e6e4da" d="M29.44 14.14c0.23-0.36 4.91-0.21 5.12 0s1.090 5.37 1.090 5.37-1-1-1.13-0.87-0.29 0.58-0.17 0.66c0.581 0.394 1.089 0.822 1.547 1.297l0.003 0.003c0 0.2 0.2 1.080 0.2 1.080-0.408-0.392-0.856-0.747-1.335-1.059l-0.035-0.021c-0.13 0-0.29 0.75-0.13 0.91 0.581 0.517 1.113 1.049 1.613 1.611l0.017 0.019c0.080 0.21 0.58 2.12 0.58 2.12s-2-2.46-2.25-2.37-0.37 0.83-0.25 1 2.59 2.5 2.63 2.67 0.33 1.66 0.33 1.66-2.92-3.37-3.12-3.22c-0.159 0.162-0.258 0.385-0.258 0.631 0 0.104 0.017 0.203 0.050 0.296l-0.002-0.006c0.080 0.37 3.46 3.71 3.62 4.080s0.59 2.83 0.59 2.83-4.15-5.4-4.38-5.19c-0.136 0.214-0.218 0.475-0.218 0.755 0 0.13 0.017 0.255 0.050 0.375l-0.002-0.010c0.090 0.13 4.59 5.42 4.67 5.67 0.060 0.249 0.106 0.547 0.129 0.85l0.001 0.020-1.13-0.3s-4.37-5.25-4.54-5.16-0.29 0.66-0.21 0.83 3.58 4.080 3.33 4.080c-0.308-0.001-0.609-0.030-0.9-0.085l0.030 0.005c-0.13 0-2.58-2.54-2.71-2.54-0.183 0.159-0.298 0.391-0.298 0.651 0 0.078 0.010 0.153 0.030 0.225l-0.001-0.006c0.482 0.569 0.972 1.085 1.49 1.571l0.010 0.009c-0.493-0.042-1.068-0.066-1.648-0.066-0.769 0-1.527 0.042-2.274 0.124l0.092-0.008c-1.333 0.069-2.579 0.23-3.793 0.478l0.163-0.028s3.060-20.44 3.4-20.94z"></path>
<path fill="#e6e4da" d="M25.19 26.8c0.3-0.14-0.75 8.3-0.75 8.3-1.202 0.193-2.257 0.454-3.276 0.792l0.146-0.042c-1.46 0.5-3 1-3 1s0.17-4.3 1.79-6.5 4.38-3.21 5.090-3.55z"></path>
<path fill="#1d1d1b" d="M22.19 30.14c0.23-0.12 0.66 0.33 0.54 0.66s-0.92 0.63-1.21 1.71-0.080 1.79-0.29 1.79-0.63 0.090-0.71 0c-0.031-0.207-0.049-0.447-0.049-0.69 0-0.466 0.065-0.917 0.188-1.344l-0.008 0.034c0.309-0.876 0.842-1.608 1.53-2.152l0.010-0.008z"></path>
<path fill="#e6e4da" d="M39.060 26.3c0.21 0 5 1.090 6.17 5 0.554 1.855 0.874 3.987 0.874 6.193 0 0.491-0.016 0.979-0.047 1.463l0.003-0.066c-0.867-0.671-1.855-1.257-2.911-1.715l-0.089-0.035c-1.008-0.369-1.82-0.723-2.608-1.117l0.148 0.067z"></path>
<path fill="#ddc07c" d="M12 41.22c0-0.13 10.71-5.54 20.71-4.92s18.89 7.63 18.89 7.63l-1 4s-8.5-6.93-12.25-8.75c-1.829-0.802-3.961-1.269-6.202-1.269-2.683 0-5.21 0.669-7.423 1.85l0.085-0.041c-3.87 2.28-11.29 7.79-11.29 7.79-0.961-1.696-1.527-3.725-1.527-5.886 0-0.142 0.002-0.283 0.007-0.424l-0.001 0.020z"></path>
<path fill="#1d1d1b" d="M14.77 40.64c0.25-0.128 0.546-0.203 0.86-0.203 1.060 0 1.92 0.86 1.92 1.92 0 0.268-0.055 0.524-0.154 0.756l0.005-0.013c-0.213 0.858-0.976 1.483-1.886 1.483-0.703 0-1.319-0.374-1.66-0.935l-0.005-0.009c-0.112-0.274-0.177-0.592-0.177-0.926 0-0.858 0.431-1.616 1.088-2.069l0.008-0.005z"></path>
<path fill="#85bfe9" d="M15.16 41.52c0.136-0.074 0.299-0.118 0.472-0.118 0.552 0 1 0.448 1 1 0 0.152-0.034 0.295-0.094 0.424l0.003-0.006c-0.089 0.468-0.495 0.818-0.983 0.818-0.383 0-0.716-0.216-0.884-0.532l-0.003-0.005c-0.060-0.145-0.095-0.313-0.095-0.489 0-0.453 0.23-0.853 0.58-1.088l0.005-0.003z"></path>
<path fill="#1d1d1b" d="M49.87 43.47c0.032 0.117 0.051 0.251 0.051 0.39 0 0.834-0.676 1.51-1.51 1.51-0.322 0-0.621-0.101-0.866-0.273l0.005 0.003c-0.515-0.254-0.862-0.775-0.862-1.377 0-0.663 0.422-1.228 1.012-1.44l0.011-0.003c0.096-0.016 0.207-0.026 0.32-0.026 0.821 0 1.527 0.495 1.835 1.203l0.005 0.013z"></path>
<path fill="#85bfe9" d="M49.13 43.63c0.008 0.042 0.012 0.090 0.012 0.139 0 0.458-0.372 0.83-0.83 0.83s-0.83-0.372-0.83-0.83c0-0.346 0.212-0.643 0.513-0.767l0.005-0.002c0.058-0.012 0.125-0.019 0.194-0.019 0.426 0 0.79 0.267 0.934 0.642l0.002 0.007z"></path>
<path fill="#e6e4da" d="M20.19 45.1s5.25-5.8 12.41-5.5 12.13 5.66 12.13 5.66-1.46 1.42-2.83 2.79c-0.774 0.787-1.667 1.454-2.652 1.972l-0.058 0.028s0.12-4.2-0.38-5.58-1.87-1.54-3.29-1.54-7.29 0-8 0.12-1.5 1-1.58 3c0.001 0.101 0.002 0.219 0.002 0.339 0 1.291-0.092 2.561-0.269 3.804l0.017-0.142c-2.416-0.923-4.343-2.671-5.473-4.893l-0.027-0.057z"></path>
<path fill="#1d1d1b" d="M22.52 44.72c0.13 0 0.54 1.21 1 1.83s1.17 0.84 1.29 1.050c0.029 0.079 0.046 0.17 0.046 0.266 0 0.183-0.062 0.352-0.167 0.486l0.001-0.002c-0.875-0.232-1.624-0.686-2.208-1.298l-0.002-0.002c-0.58-0.66-1.21-1.54-1-1.83 0.261-0.286 0.626-0.473 1.035-0.5l0.005-0z"></path>
<path fill="#ddc07c" d="M18.48 46.3c1.055 1.289 2.131 2.447 3.274 3.535l0.016 0.015c1.091 0.892 2.388 1.58 3.805 1.982l0.075 0.018s0 5.12-0.3 5.16c-2.616-0.448-4.928-1.507-6.863-3.025l0.033 0.025c-1.614-1.32-2.951-2.909-3.958-4.707l-0.042-0.083c1.166-0.979 2.458-1.94 3.804-2.824l0.156-0.096z"></path>
<path fill="#1d1d1b" d="M18.56 49.050c0.19 0 0.42 0.34 0.38 0.59-0.424 0.62-0.934 1.143-1.522 1.567l-0.018 0.013c-0.21 0-0.67-0.17-0.55-0.46 0.481-0.664 1.046-1.229 1.688-1.695l0.022-0.015z"></path>
<path fill="#1d1d1b" d="M20 50.93c0.15-0.080 0.75 0.33 0.67 0.54-0.461 0.715-0.986 1.332-1.582 1.873l-0.008 0.007c-0.12-0.090-0.62-0.21-0.5-0.42 0.471-0.761 0.939-1.414 1.446-2.033l-0.026 0.033z"></path>
<path fill="#1d1d1b" d="M22 52.51c0.15-0.22 0.88 0.13 0.71 0.46-0.36 0.732-0.763 1.361-1.226 1.941l0.016-0.021c-0.12 0-0.62 0-0.54-0.25s0.98-2 1.040-2.13z"></path>
<path fill="#e6e4da" d="M27.85 44.64c0.43-0.43 8.84-0.090 9.13 0.25s0.21 13.37-0.080 13.46-8.71 0.33-9.090-0.13-0.12-13.42 0.040-13.58z"></path>
<path fill="#1d1d1b" d="M30.6 46.47c0.477-0.356 1.079-0.571 1.731-0.571 1.245 0 2.307 0.782 2.723 1.881l0.007 0.020c0.88 2.46-1.25 4.050-3.33 3.67-1.282-0.288-2.225-1.416-2.225-2.764 0-0.906 0.426-1.713 1.088-2.231l0.006-0.005z"></path>
<path fill="#92a0d1" d="M31.34 47.41c0.278-0.209 0.63-0.336 1.011-0.336 0.727 0 1.347 0.459 1.586 1.104l0.004 0.012c0.069 0.172 0.108 0.372 0.108 0.581 0 0.889-0.721 1.61-1.61 1.61-0.156 0-0.307-0.022-0.45-0.064l0.011 0.003c-0.751-0.16-1.306-0.818-1.306-1.606 0-0.53 0.252-1.002 0.642-1.301l0.004-0.003z"></path>
<path fill="#1d1d1b" d="M31.11 53.91c0.338-0.249 0.762-0.399 1.222-0.399 0.903 0 1.671 0.578 1.954 1.385l0.004 0.014c0.073 0.199 0.115 0.43 0.115 0.67 0 1.105-0.895 2-2 2-0.172 0-0.34-0.022-0.499-0.063l0.014 0.003c-0.95-0.167-1.663-0.986-1.663-1.971 0-0.675 0.335-1.272 0.847-1.634l0.006-0.004z"></path>
<path fill="#e7413e" d="M31.64 54.58c0.2-0.151 0.452-0.241 0.725-0.241 0.518 0 0.96 0.325 1.132 0.783l0.003 0.008c0.048 0.122 0.075 0.263 0.075 0.411 0 0.641-0.519 1.16-1.16 1.16-0.109 0-0.214-0.015-0.313-0.043l0.008 0.002c-0.537-0.113-0.935-0.583-0.935-1.146 0-0.38 0.181-0.718 0.462-0.932l0.003-0.002z"></path>
<path fill="#ddc07c" d="M39.060 51.6c1.534-0.628 2.856-1.443 4.020-2.437l-0.020 0.017c2.13-1.75 2.92-2.67 3-2.71s3.54 2.79 3.58 3.21-2 3.58-4.71 5.17c-1.631 1.033-3.512 1.898-5.508 2.498l-0.162 0.042c-0.153-1.232-0.24-2.658-0.24-4.105 0-0.593 0.015-1.182 0.044-1.767l-0.003 0.082z"></path>
<path fill="#1d1d1b" d="M40.15 52.6c0.073-0.191 0.255-0.324 0.468-0.324 0.054 0 0.107 0.009 0.156 0.025l-0.004-0.001c0.25 0.13 1.63 2.050 1.38 2.38-0.237 0.259-0.576 0.421-0.953 0.421-0.016 0-0.033-0-0.049-0.001l0.002 0c-0.387-0.713-0.727-1.543-0.978-2.41l-0.022-0.090z"></path>
<path fill="#1d1d1b" d="M42.56 51.51c0-0.17 0.34-0.33 0.5-0.33s1.63 1.58 1.38 1.83c-0.221 0.196-0.466 0.375-0.728 0.528l-0.022 0.012s-1.090-1.83-1.13-2.040z"></path>
<path fill="#1d1d1b" d="M44.81 49.55c0-0.2 0.46-0.5 0.59-0.41s1.79 1.91 1.62 2.25-0.29 0.46-0.58 0.54-1.63-2.13-1.63-2.38z"></path>
<path fill="#1d1d1b" d="M22.66 9.35c0.13-0.090 0.62 0.090 0.62 0.25-0.431 1.245-0.883 2.285-1.404 3.284l0.064-0.134c-0.16 0.1-1 0-1-0.12 0.565-1.284 1.14-2.361 1.784-3.39l-0.064 0.11z"></path>
</svg>
