<!-- Generated by IcoMoon.io -->
<svg version="1.1" xmlns="http://www.w3.org/2000/svg" width="64" height="64" viewBox="0 0 64 64">
<path fill="#1d1d1b" d="M8.38 40.93c-0.069-0.758-0.108-1.64-0.108-2.53 0-3.951 0.774-7.721 2.18-11.167l-0.071 0.198c2.94-6.95 5.57-10 8.54-10.56 0.431-0.064 0.928-0.1 1.433-0.1 1.831 0 3.549 0.478 5.038 1.317l-0.052-0.027c0.26 0.24 1 0.89 1 0.89 1.855-1.983 4.369-3.331 7.19-3.694l0.060-0.006c1.9-0.22 5 1.36 5 1.36 1.858 0.078 3.593 0.523 5.161 1.265l-0.081-0.035c2.16 1.16 2.33 2.070 2.33 2.070s3.93 1.050 6.42 6 2.39 16.090 2.39 16.090 2.67 0.21 3 0.9-0.19 8.78-0.39 9.16-10.56 6.13-20.19 7-16.36 0-23-2.73-7.23-4.53-7.45-5.39-0.78-7.38-0.44-8.27c0.441-0.811 1.154-1.427 2.014-1.732l0.026-0.008z"></path>
<path fill="#1d1d1b" d="M6.65 13.050c-0.11-0.29 2.29-0.41 2.32-0.59s0.16-2.24 0.41-2.31 0.4-0.12 0.53 0 0.54 2 0.64 2 1.63 0.1 1.67 0.38-1.13 1-1.13 1 0.5 1.26 0 1.44-1.080-0.29-1.17-0.16-1.14 1.32-1.42 1.19-0.22-1.75-0.26-2-1.48-0.68-1.59-0.95z"></path>
<path fill="#1d1d1b" d="M18.56 5.19c0.88-0.33 2.58 0.27 2.22 1.6-0.327 0.811-1.107 1.372-2.018 1.372-0.386 0-0.749-0.101-1.063-0.278l0.011 0.006c-0.82-0.58-0.59-2.16 0.85-2.7z"></path>
<path fill="#cbe7f5" d="M18.81 5.94c0.42-0.16 1.23 0.13 1.050 0.76-0.14 0.395-0.51 0.673-0.945 0.673-0.19 0-0.368-0.053-0.519-0.145l0.004 0.003c-0.4-0.23-0.28-1.030 0.41-1.29z"></path>
<path fill="#1d1d1b" d="M26.89 8.85c0.185-0.085 0.402-0.135 0.631-0.135 0.831 0 1.509 0.659 1.539 1.482l0 0.003c0.26 1.3-2.37 1.82-2.79 1-0.184-0.255-0.294-0.573-0.294-0.917 0-0.631 0.37-1.175 0.904-1.428l0.010-0.004z"></path>
<path fill="#cbe7f5" d="M27.23 9.53c0.45-0.18 0.9 0 1 0.65s-1.12 0.86-1.32 0.48c-0.088-0.121-0.141-0.274-0.141-0.438 0-0.31 0.188-0.576 0.456-0.69l0.005-0.002z"></path>
<path fill="#1d1d1b" d="M45.66 8.13c0.13 0 0.59-2 0.83-2.070s0.59-0.19 0.69 0c0.117 0.576 0.213 1.278 0.267 1.991l0.004 0.059s1.68-0.15 1.73 0.19-1.18 0.96-1.18 1.090 0.19 1.21 0 1.22-1.37-0.46-1.61-0.35-1.42 1.61-1.64 1.49-0.8-0.3-0.65-0.46 1-2.12 1-2.12c-0.569-0.047-1.096-0.164-1.593-0.344l0.043 0.014c-0.1-0.15-0.18-0.52 0-0.59s1.9-0.070 2.11-0.12z"></path>
<path fill="#1d1d1b" d="M52.7 16.24c0.8 0.079 1.419 0.749 1.419 1.563 0 0.302-0.085 0.584-0.233 0.824l0.004-0.007c-0.51 1-2.67 1.050-3 0.13-0.11-0.223-0.175-0.486-0.175-0.764 0-0.972 0.788-1.76 1.76-1.76 0.079 0 0.157 0.005 0.234 0.015l-0.009-0.001z"></path>
<path fill="#cbe7f5" d="M52.55 17.070c0.384 0.036 0.681 0.357 0.681 0.747 0 0.145-0.041 0.281-0.113 0.396l0.002-0.003c-0.24 0.5-1.28 0.51-1.44 0.060-0.053-0.107-0.085-0.234-0.085-0.368 0-0.464 0.376-0.84 0.84-0.84 0.041 0 0.080 0.003 0.119 0.008l-0.005-0z"></path>
<path fill="#e6e4da" d="M10.29 40.52c-0.051-0.653-0.080-1.413-0.080-2.181 0-2.829 0.394-5.566 1.131-8.16l-0.051 0.21c1.45-4.68 4.060-9.73 6.48-11.17s5.23-1.34 8.51 1.78 4.59 11 4.87 13.82 0.41 10.81 0.29 10.88-2.72 0.67-8.72-0.92-10.66-2.17-12.43-4.26z"></path>
<path fill="#1d1d1b" d="M14.79 25.48c-0.14-0.2 0.55-1.47 1.69-2.91s2.050-2.11 2.36-2 0.64 0.72 0.52 0.82c-1.076 0.597-1.952 1.437-2.573 2.45l-0.017 0.030c-0.77 1.51-0.64 2.19-0.92 2.21-0.419-0.101-0.779-0.311-1.059-0.599l-0.001-0z"></path>
<path fill="#1d1d1b" d="M28.41 36.27s0.9 0.58 0.79 0.84-0.2 0.35-0.29 0.36-1-0.36-1-0.48 0.34-0.77 0.5-0.72z"></path>
<path fill="#1d1d1b" d="M27.47 38c0.911 0.629 1.699 1.341 2.386 2.143l0.014 0.017c0 0.22 0 0.53-0.16 0.57-1.010-0.598-1.885-1.26-2.677-2.007l0.007 0.007c-0.040-0.13 0.34-0.68 0.43-0.73z"></path>
<path fill="#1d1d1b" d="M26.32 40.080c1.188 0.975 2.256 1.983 3.25 3.059l0.020 0.021c0 0.28 0 0.63-0.19 0.6-1.296-0.967-2.443-1.974-3.504-3.064l-0.006-0.006c0.117-0.234 0.261-0.435 0.431-0.611l-0.001 0.001z"></path>
<path fill="#1d1d1b" d="M25.050 41.43c0.22 0 3 3.35 3 3.35s-0.86 0.32-1 0.2c-0.914-0.958-1.788-1.981-2.605-3.051l-0.065-0.089c0.12-0.1 0.67-0.41 0.67-0.41z"></path>
<path fill="#1d1d1b" d="M24.77 44.32c-0.545-0.8-1.087-1.494-1.669-2.152l0.019 0.022c-0.16 0-0.59 0.060-0.58 0.25 0.426 0.803 0.911 1.495 1.469 2.12l-0.009-0.010c0.16 0.080 0.8-0.23 0.77-0.23z"></path>
<path fill="#e6e4da" d="M9.82 42.11c3.304 1.677 7.159 3.129 11.183 4.154l0.397 0.086c3.588 0.938 7.708 1.477 11.953 1.477 2.082 0 4.134-0.13 6.148-0.381l-0.24 0.025c4.417-0.592 8.42-1.793 12.123-3.527l-0.254 0.107c1.11-0.43 1.67-0.93 2.21-0.93s2.8 0.42 2.79 0.67-1.25 2.44-5.69 4.21c-5.474 2.436-11.862 3.854-18.58 3.854-1.292 0-2.571-0.052-3.836-0.155l0.166 0.011c-10.37-0.82-15-4.4-17.25-5.5s-2.76-1.21-2.7-1.39-0.19-1.68 0-1.91c0.452-0.291 0.972-0.559 1.517-0.778l0.063-0.022z"></path>
<path fill="#1d1d1b" d="M38.15 48.31c0.365-0.161 0.791-0.255 1.239-0.255 0.595 0 1.151 0.165 1.625 0.453l-0.014-0.008c1.070 0.72 0.4 1.6-0.56 1.9-0.319 0.132-0.689 0.209-1.077 0.209-0.623 0-1.201-0.198-1.672-0.535l0.009 0.006c-0.232-0.185-0.38-0.467-0.38-0.785 0-0.492 0.356-0.901 0.824-0.985l0.006-0.001z"></path>
<path fill="#f2910d" d="M38.91 48.88c0.16-0.070 0.345-0.11 0.541-0.11 0.258 0 0.499 0.071 0.706 0.194l-0.006-0.004c0.47 0.32 0.18 0.69-0.23 0.82-0.137 0.057-0.296 0.090-0.463 0.090-0.269 0-0.518-0.086-0.721-0.233l0.004 0.002c-0.095-0.081-0.155-0.201-0.155-0.335 0-0.202 0.136-0.372 0.322-0.424l0.003-0.001z"></path>
<path fill="#1d1d1b" d="M48.51 45.83c0.54-0.443 1.237-0.712 1.998-0.712 0.296 0 0.583 0.041 0.855 0.117l-0.022-0.005c1.23 0.41 0.82 1.44 0 2-0.48 0.373-1.090 0.598-1.753 0.598-0.347 0-0.679-0.062-0.987-0.174l0.020 0.006c-0.386-0.144-0.656-0.51-0.656-0.939 0-0.387 0.219-0.722 0.54-0.888l0.006-0.003z"></path>
<path fill="#f2910d" d="M49.4 46.18c0.23-0.193 0.53-0.31 0.857-0.31 0.129 0 0.254 0.018 0.372 0.052l-0.009-0.002c0.52 0.18 0.35 0.62 0 0.85-0.206 0.164-0.469 0.262-0.756 0.262-0.149 0-0.291-0.027-0.422-0.075l0.008 0.003c-0.156-0.070-0.263-0.224-0.263-0.403 0-0.159 0.085-0.299 0.211-0.376l0.002-0.001z"></path>
<path fill="#1d1d1b" d="M27.47 48.68c0.369-0.162 0.798-0.257 1.25-0.257 0.606 0 1.172 0.17 1.654 0.465l-0.014-0.008c1.070 0.72 0.4 1.6-0.56 1.9-0.318 0.13-0.686 0.205-1.073 0.205-0.624 0-1.203-0.197-1.676-0.531l0.009 0.006c-0.243-0.184-0.398-0.473-0.398-0.799 0-0.484 0.344-0.888 0.802-0.98l0.006-0.001z"></path>
<path fill="#f2910d" d="M28.23 49.26c0.16-0.072 0.346-0.114 0.543-0.114 0.258 0 0.498 0.072 0.703 0.197l-0.006-0.003c0.46 0.31 0.17 0.69-0.24 0.82-0.132 0.053-0.285 0.084-0.445 0.084-0.277 0-0.532-0.091-0.738-0.246l0.003 0.002c-0.084-0.080-0.136-0.193-0.136-0.318 0-0.199 0.132-0.367 0.313-0.421l0.003-0.001z"></path>
<path fill="#1d1d1b" d="M18.55 47c0.372-0.167 0.805-0.265 1.262-0.265 0.602 0 1.164 0.169 1.641 0.463l-0.014-0.008c1.070 0.72 0.4 1.6-0.55 1.91-0.316 0.131-0.684 0.207-1.069 0.207-0.627 0-1.207-0.201-1.679-0.542l0.008 0.006c-0.238-0.185-0.39-0.471-0.39-0.792 0-0.478 0.335-0.877 0.783-0.976l0.007-0.001z"></path>
<path fill="#f2910d" d="M19.32 47.57c0.16-0.070 0.345-0.11 0.541-0.11 0.258 0 0.499 0.071 0.706 0.194l-0.006-0.004c0.46 0.32 0.17 0.69-0.24 0.82-0.137 0.057-0.296 0.090-0.463 0.090-0.269 0-0.518-0.086-0.721-0.233l0.004 0.002c-0.094-0.081-0.153-0.2-0.153-0.333 0-0.205 0.14-0.377 0.33-0.426l0.003-0.001z"></path>
<path fill="#1d1d1b" d="M11.58 43.86c0.031-0.001 0.067-0.002 0.104-0.002 0.823 0 1.556 0.39 2.022 0.996l0.004 0.006c0.61 0.84-0.14 1.32-0.94 1.28-0.033 0.002-0.072 0.003-0.111 0.003-0.783 0-1.473-0.394-1.884-0.995l-0.005-0.008c-0.093-0.131-0.149-0.295-0.149-0.472 0-0.453 0.367-0.82 0.82-0.82 0.049 0 0.098 0.004 0.144 0.013l-0.005-0.001z"></path>
<path fill="#f2910d" d="M12 44.51c0.021-0.001 0.045-0.002 0.070-0.002 0.342 0 0.647 0.156 0.849 0.4l0.002 0.002c0.26 0.37-0.070 0.57-0.41 0.56-0.008 0-0.018 0-0.028 0-0.339 0-0.639-0.169-0.82-0.427l-0.002-0.003c-0.032-0.052-0.051-0.115-0.051-0.182 0-0.193 0.157-0.35 0.35-0.35 0.015 0 0.029 0.001 0.043 0.003l-0.002-0z"></path>
<path fill="#ddc07c" d="M8.39 46.53c3.339 1.983 7.195 3.684 11.26 4.904l0.37 0.096c7.12 2 11.91 2.84 19.45 1.57 5.495-0.98 10.4-2.563 14.985-4.714l-0.365 0.154c0.92-0.46 2-1.48 2.1-1.27s0.35 3.21 0.11 3.37c-0.175 0.109-0.381 0.186-0.601 0.219l-0.009 0.001c0.009-0.162 0.014-0.352 0.014-0.543 0-0.589-0.049-1.166-0.143-1.728l0.008 0.061c-0.16-0.060-0.92 0.3-0.91 0.49 0.095 0.508 0.15 1.092 0.15 1.689 0 0.151-0.004 0.302-0.010 0.452l0.001-0.021c-0.15 0.13-1.11 0.84-1.12 0.62s0-2.19-0.15-2.18-0.68 0.19-0.73 0.35 0.14 2 0.050 2.15-0.61 0.26-0.61 0.26c-0.014-0.74-0.076-1.452-0.181-2.15l0.011 0.090c-0.1 0-0.93 0.24-0.89 0.42s0.17 2 0.17 2l-0.83 0.23c0.009-0.151 0.014-0.327 0.014-0.504 0-0.528-0.045-1.046-0.132-1.55l0.008 0.054c-0.15 0-0.93 0.21-0.92 0.33 0.004 0.14 0.007 0.304 0.007 0.469 0 0.709-0.046 1.407-0.136 2.092l0.009-0.081c-3.383 1.529-7.308 2.594-11.429 2.988l-0.151 0.012c-6.5 0.69-14.22 0.82-20.52-1.1s-8.27-4.28-8.57-5.11c-0.223-0.919-0.352-1.975-0.352-3.060 0-0.373 0.015-0.742 0.045-1.108l-0.003 0.048z"></path>
<path fill="#1d1d1b" d="M10.54 48.7c0.090 0 0.82 0.12 1 0.42s0.38 3.11 0 3.070c-0.454-0.094-0.839-0.342-1.107-0.686l-0.003-0.004c-0.1-0.19-0.17-2.72 0.11-2.8z"></path>
<path fill="#cbe7f5" d="M39.41 18.32c2.32-0.32 6.69 2.15 6.59 6.23s-4.27 6.2-8.89 2.81-2.11-8.36 2.3-9.040z"></path>
<path fill="#1d1d1b" d="M39.61 19.48c1.82-0.28 5.24 1.69 5.16 4.88s-3.35 4.87-7 2.21-1.59-6.57 1.84-7.090z"></path>
<path fill="#696a9b" d="M39.78 20.47c0.019-0 0.041-0 0.063-0 2.092 0 3.799 1.652 3.886 3.723l0 0.008c-0.060 2.45-2.57 3.72-5.34 1.69s-1.24-5.020 1.39-5.42z"></path>
<path fill="#1d1d1b" d="M39.42 21.45c0.17-0.14 0.71-0.13 0.73 0.21-0.342 1.101-0.801 2.059-1.377 2.933l0.027-0.043c-0.12 0-0.57-0.25-0.55-0.34 0.365-1.081 0.761-1.993 1.221-2.866l-0.051 0.106z"></path>
<path fill="#1d1d1b" d="M41.28 21.64c0.16-0.11 0.5 0.060 0.6 0.24-0.384 1.469-0.921 2.757-1.61 3.945l0.040-0.075c-0.19-0.050-0.76-0.17-0.74-0.27 0.602-1.569 1.177-2.834 1.814-4.061l-0.104 0.221z"></path>
<path fill="#1d1d1b" d="M42.57 23.070c0.080-0.060 0.58 0.19 0.52 0.38-0.257 0.857-0.576 1.6-0.969 2.295l0.029-0.055c-0.19 0-0.57-0.1-0.55-0.25 0.279-0.914 0.608-1.699 1.005-2.442l-0.035 0.072z"></path>
<path fill="#92a0d1" d="M33.080 22.88c-0.039 0.254-0.061 0.547-0.061 0.846 0 2.212 1.224 4.139 3.031 5.139l0.030 0.015c1.741 0.915 3.775 1.544 5.929 1.764l0.071 0.006c-1.056 1.025-2.202 1.971-3.421 2.821l-0.089 0.059c-2.161-0.833-3.995-1.737-5.735-2.782l0.165 0.092c-1.11-0.85-1.13-0.69-1.11-0.85s-0.15-1-0.32-2.46-0.3-1.64-0.28-1.73 1.71-2.8 1.79-2.92z"></path>
<path fill="#696a9b" d="M32.79 32.1c0.797 0.394 1.475 0.803 2.115 1.261l-0.045-0.031c0.42 0.26 1.12 0.51 0.94 0.8s-2.72 3.43-2.8 3.34-0.43-5.27-0.21-5.37z"></path>
<path fill="#fff" d="M41.2 33.69s0.86 1.64 0.44 5.39-1.43 6.18-1.17 6.29c0.042 0.001 0.091 0.001 0.14 0.001 0.805 0 1.579-0.136 2.299-0.386l-0.049 0.015c0.394-1.748 0.619-3.755 0.619-5.815 0-0.364-0.007-0.727-0.021-1.087l0.002 0.052c-0.080-1.954-0.407-3.801-0.951-5.553l0.041 0.153c-0.16-0.1-1.35 0.94-1.35 0.94z"></path>
<path fill="#fff" d="M27.82 19.81s2.58-2.61 5.13-3c0.237-0.035 0.51-0.055 0.788-0.055 1.352 0 2.594 0.469 3.573 1.253l-0.011-0.009-1.47 0.61c-0.531-0.26-1.155-0.411-1.815-0.411s-1.284 0.152-1.84 0.422l0.025-0.011c-1.386 0.507-2.548 1.347-3.429 2.426l-0.011 0.014z"></path>
<path fill="#e6e4da" d="M47.43 22.66c2.218 1.463 3.808 3.723 4.368 6.364l0.012 0.066c0.552 2.648 1.020 5.91 1.299 9.226l0.021 0.314s-3.13-3.91-3.24-3.81-0.54 0.41-0.5 0.56 3.7 4.19 3.71 4.53c0 0.013 0 0.029 0 0.045 0 0.264-0.029 0.521-0.085 0.769l0.004-0.023-0.65 0.19s-3.41-3.51-3.5-3.48-0.48 0.43-0.4 0.65 3.21 3.33 3.060 3.47c-0.296 0.167-0.649 0.332-1.014 0.471l-0.056 0.019c-0.779-0.882-1.583-1.689-2.432-2.445l-0.028-0.025c-0.15 0-0.69 0.39-0.53 0.6 0.726 0.735 1.413 1.514 2.055 2.331l0.045 0.059c-0.184 0.124-0.394 0.238-0.615 0.331l-0.025 0.009c-0.702-0.717-1.46-1.373-2.269-1.964l-0.051-0.036c-0.19 0.070-0.51 0.47-0.41 0.65s2 1.74 1.79 1.94c-0.675 0.314-1.498 0.624-2.346 0.876l-0.134 0.034c-0.361 0.104-0.801 0.195-1.251 0.255l-0.049 0.005c0.511-1.787 0.806-3.839 0.806-5.96 0-0.835-0.046-1.659-0.134-2.471l0.009 0.1c-0.131-1.848-0.401-3.556-0.804-5.213l0.044 0.213c1.001-1.047 1.908-2.202 2.696-3.44l0.054-0.090c0.525-0.874 0.836-1.928 0.836-3.055 0-0.093-0.002-0.186-0.006-0.278l0.001 0.013c-0.072-0.698-0.17-1.311-0.3-1.913l0.020 0.113z"></path>
<path fill="#1d1d1b" d="M50.3 31.86s1.68 1.57 1.73 2 0.2 0.87 0 0.94c-0.75-0.39-1.368-0.938-1.829-1.603l-0.011-0.017c-0.014-0.114-0.021-0.246-0.021-0.38 0-0.335 0.048-0.658 0.137-0.964l-0.006 0.024z"></path>
</svg>
