<!-- Generated by IcoMoon.io -->
<svg version="1.1" xmlns="http://www.w3.org/2000/svg" width="64" height="64" viewBox="0 0 64 64">
<path fill="#1d1d1b" d="M19 34.29c-1.155-2.404-1.83-5.226-1.83-8.205 0-2.069 0.326-4.063 0.928-5.931l-0.038 0.137c2.5-7.5 7.81-12.060 10.75-13.37s6.69-2.5 7.87-1.38 6.72 16.65 6.72 16.65l4.13-0.59s0.080-2.6 3.29-2.6 4 3.75 3.12 5-3.66 1.38-4.21 1.21l-0.95-0.21c-1.218 0.73-2.253 1.443-3.241 2.213l0.071-0.053c0 0.17 6 14.92 5.87 15.67-0.44 1.082-1.156 1.975-2.062 2.618l-0.018 0.012c-0.75 0.5-4.71 3.29-11.71 2.45-5.199-0.744-9.783-2.95-13.437-6.184l0.027 0.024c-1.442-1.384-2.7-2.944-3.742-4.649l-0.058-0.101-1.75 1.1 5.63 9.63s6.5-0.38 11 3.25 4.41 7.37 4.12 7.66-29.62 0.36-29.7 0.090-0.42-2.92 2.45-5.73c2.060-1.829 4.46-3.334 7.084-4.401l0.166-0.059s-3.37-7.92-3.58-8c-1.516-0.265-2.748-1.275-3.319-2.631l-0.011-0.029c-0.166-0.374-0.263-0.81-0.263-1.269 0-1.4 0.899-2.589 2.15-3.024l0.022-0.007c0.266-0.060 0.571-0.095 0.883-0.095 0.924 0 1.778 0.302 2.468 0.813l-0.011-0.008c0.201 0.175 0.369 0.384 0.494 0.618l0.006 0.012z"></path>
<path fill="#cbe7f5" d="M35 6.77c0.56-0.060 7.090 16.67 7.090 16.67s-1.46-0.13-1.42 0-0.12 0.66 0.080 0.66 1.59 0.13 1.63 0.3 1.5 3.75 1.5 3.75c-0.74-0.405-1.615-0.794-2.524-1.112l-0.126-0.038c-0.080 0.12-0.29 0.54 0 0.75s2.77 1.35 2.88 1.56 1.92 4 1.92 4-5-3.67-5.050-3.5-0.37 0.75-0.2 0.83 5.37 3.59 5.54 3.88 2.16 4.79 2 4.75-7.38-5.27-7.5-5.17-0.42 0.88-0.25 1 8 5 8.21 5.38c0.321 0.633 0.617 1.379 0.846 2.154l0.024 0.096c-0.070 0.231-0.238 0.412-0.455 0.498l-0.005 0.002c-0.16 0-8.83-5.75-9.080-5.67s-0.58 0.63-0.42 0.75 8.88 5.42 8.67 5.63-2.29 1.25-2.29 1.25-7.070-4.55-7.29-4.55-0.63 0.34-0.5 0.46 7.12 4.38 6.91 4.5c-0.569 0.253-1.238 0.47-1.932 0.618l-0.068 0.012c-0.233 0.055-0.502 0.087-0.777 0.087-0.078 0-0.156-0.003-0.233-0.008l0.011 0.001s-4.75-3.67-4.95-3.67-0.8 0.34-0.5 0.55 4.58 3.16 4.37 3.25c-0.188 0.006-0.408 0.009-0.63 0.009-3.449 0-6.711-0.804-9.607-2.236l0.127 0.057c-5-2.42-10.35-8.33-11.56-13.71-0.23-1.175-0.362-2.526-0.362-3.907 0-4.704 1.528-9.051 4.114-12.572l-0.041 0.059c3.25-4.080 8.21-6.95 11.85-7.37z"></path>
<path fill="#1d1d1b" d="M29.65 11.14c0.35-0.090 0.67 1 0.54 1.25s-2.46 1.13-3.25 3-0.75 2.34-0.91 2.59-0.8 0.37-0.92 0.12c0.058-1.387 0.533-2.653 1.303-3.688l-0.013 0.018c1.13-1.79 2.33-3.040 3.25-3.29z"></path>
<path fill="#e6e4da" d="M43.9 23c0.090-0.19 4.33-0.63 4.46-0.88s0.29-3 3.080-2.29 1.67 4 0.34 4.38-2.84-0.42-3.17-0.21c-0.965 0.704-2.069 1.406-3.218 2.038l-0.162 0.082c-0.555-0.898-1.010-1.935-1.311-3.037l-0.019-0.083z"></path>
<path fill="#e6e4da" d="M14.61 34.44c0.322-0.193 0.71-0.308 1.125-0.308s0.803 0.114 1.135 0.313l-0.010-0.006c0.87 0.5 1 0.83 0.92 0.91s-0.92 0.59-0.8 0.75 0.17 0.75 0.46 0.55 1.79-1.63 2-1.42 0.83 0.83 0.54 1-2.33 1.5-2.21 1.75 5.84 9.54 5.55 9.67-3 0.54-3 0.54l-3.59-8.090s0.71-0.41 0.67-0.62 0-0.59-0.17-0.54c-0.464 0.282-1.017 0.463-1.61 0.499l-0.010 0.001c-0.63-0.090-2.5-1-2.38-2.67s0.71-2.080 1.38-2.33z"></path>
<path fill="#1d1d1b" d="M16.15 35.39c0.24 0-0.080 0.5-0.21 0.63s-1 0.42-0.83 1 0.83 0.54 1 1 0.25 0.62 0 0.62-1.88 0.29-2.13-1.29 1.17-2.16 2.17-1.96z"></path>
<path fill="#e7413e" d="M12.28 56.89c-0.54-0.1 1-3.79 5.54-5.79s6.25-2.46 12-1.12 7.71 7 7.42 7.29c-0.53 0.126-1.139 0.198-1.764 0.198-0.483 0-0.955-0.043-1.414-0.126l0.048 0.007c-0.080-0.16-2.62-3.41-3-3.5s-0.79 0.090-0.63 0.29c0.837 0.937 1.645 1.957 2.39 3.025l0.070 0.105c-0.16 0-1.21 0-1.21 0-0.745-0.95-1.534-1.794-2.392-2.564l-0.018-0.016c-0.25 0-0.75 0.33-0.54 0.5s2 2 1.83 2-1.080 0-1.080 0c-0.575-0.64-1.176-1.225-1.814-1.768l-0.026-0.022c-0.21 0-0.58 0.25-0.54 0.42s1.29 1.25 1 1.37-15.25-0.19-15.87-0.3z"></path>
<path fill="#1d1d1b" d="M32.44 53.14c-0.15-0.22 0.46-0.54 0.75-0.41 1.080 1.062 2.032 2.249 2.833 3.539l0.047 0.081c-0.13 0.21-0.63 0.42-0.75 0.29s-2.79-3.37-2.88-3.5z"></path>
<path fill="#1d1d1b" d="M15.78 55c-0.15-0.090 0.2-1 0.75-1.63s0.66-0.83 1-0.79 0.79 0.17 0.62 0.46-1 0.75-1.12 1.29-0.090 0.63-0.25 0.71c-0.135 0.056-0.292 0.089-0.456 0.089-0.198 0-0.386-0.048-0.551-0.132l0.007 0.003z"></path>
<path fill="#1d1d1b" d="M20.86 51.73c0.3-0.171 0.658-0.271 1.040-0.271 1.050 0 1.922 0.759 2.098 1.759l0.002 0.013c0.41 1.83-2.88 3.37-4 1.75-0.324-0.354-0.522-0.828-0.522-1.348 0-0.884 0.573-1.634 1.368-1.898l0.014-0.004z"></path>
<path fill="#fab900" d="M21.3 52.57c0.163-0.093 0.359-0.148 0.568-0.148 0.569 0 1.043 0.41 1.141 0.951l0.001 0.007c0.22 1-1.56 1.82-2.14 0.95-0.173-0.194-0.279-0.45-0.279-0.732 0-0.467 0.291-0.866 0.701-1.026l0.008-0.003z"></path>
<path fill="#1d1d1b" d="M25.44 50.56c0.298-0.187 0.661-0.297 1.049-0.297 0.512 0 0.979 0.192 1.333 0.509l-0.002-0.002c0.41 0.54-0.090 1.46-0.92 1.92s-2 0-2.17-0.59c-0.047-0.123-0.074-0.266-0.074-0.414 0-0.513 0.322-0.951 0.776-1.123l0.008-0.003z"></path>
<path fill="#fab900" d="M26.36 50.89c0.61-0.13 1 0.17 0.75 0.59s-1.080 0.79-1.42 0.5-0.29-0.88 0.67-1.090z"></path>
</svg>
