<!-- Generated by IcoMoon.io -->
<svg version="1.1" xmlns="http://www.w3.org/2000/svg" width="64" height="64" viewBox="0 0 64 64">
<path fill="#1d1d1b" d="M21.34 6.14c2.52-0.31 4.41 2 3.28 5.34s-4.71 8-5.37 12.78 0.28 7.56 1.25 9.22c0.707 1.155 1.48 2.157 2.347 3.067l-0.007-0.007s2.25-7.56 9.63-7.65 8.37 7.18 8.37 7.18 2.69-1.28 2.94-6.62-0.56-10.79-2.78-14.83-3.41-6.090-3.28-6.62 1-2 6.1-1.080 11.73 6.28 14.44 11.7 2.29 14.2 1.33 20-5 13-8.62 16.38-7.84 3.29-9.67 2.46c-1.646-1.018-3.061-2.207-4.284-3.572l-0.016-0.018c-1.476 0.565-3.184 0.891-4.968 0.891-0.275 0-0.548-0.008-0.82-0.023l0.038 0.002c-0.008 0-0.018 0-0.027 0-1.767 0-3.426-0.464-4.862-1.276l0.049 0.026s-3 4.58-8.33 4-9.58-6-11.75-10.88c-1.687-3.786-2.67-8.203-2.67-12.85 0-1.325 0.080-2.631 0.235-3.914l-0.015 0.154c0.67-6 4.5-12.79 6.5-15.58s5.34-7.6 10.96-8.28z"></path>
<path fill="#f2910d" d="M21.63 8.070c2 0.17 1.63 2.71 0.3 5.17s-3.88 5.92-4.59 10.88c-0.161 0.838-0.253 1.801-0.253 2.786 0 2.974 0.838 5.752 2.291 8.111l-0.038-0.067c0.843 1.37 1.856 2.538 3.028 3.522l0.022 0.018c-0.227 1.341-0.357 2.886-0.357 4.462 0 1.010 0.053 2.008 0.157 2.99l-0.011-0.122c0.411 2.478 1.255 4.696 2.457 6.672l-0.047-0.082s-2.59 3.29-6.41 3.16-8-4-10.55-10.91-2.75-13.090-1.41-18.17c1.746-5.599 4.485-10.439 8.043-14.551l-0.043 0.051c2.78-2.92 5.41-4.080 7.41-3.92z"></path>
<path fill="#1d1d1b" d="M16.93 10.91c0.473-0.476 1.111-0.787 1.82-0.839l0.009-0.001c1.12-0.2 2-0.16 2 0s0 0.84-0.21 0.84c-0.244-0.068-0.524-0.108-0.814-0.108-0.458 0-0.894 0.099-1.286 0.276l0.020-0.008c-0.79 0.5-1.33 1-1.46 0.88-0.086-0.185-0.137-0.401-0.137-0.63 0-0.146 0.021-0.287 0.059-0.421l-0.003 0.011z"></path>
<path fill="#1d1d1b" d="M14.76 15.57c1.74-0.3 2.46 0.88 2.29 2.8s-3.29 2.79-4.5 1.29 0.29-3.75 2.21-4.090z"></path>
<path fill="#ffe19b" d="M14.71 16.32c1.2-0.21 1.69 0.6 1.58 1.92-0.214 0.814-0.944 1.405-1.811 1.405-0.5 0-0.954-0.196-1.29-0.516l0.001 0.001c-0.83-1.030 0.2-2.58 1.52-2.81z"></path>
<path fill="#1d1d1b" d="M9.55 27.78c1.11-1.37 5.58-1.46 5.5 3.59s-5.67 4.12-6.58 1.91c-0.239-0.57-0.377-1.232-0.377-1.927 0-1.391 0.556-2.653 1.458-3.574l-0.001 0.001z"></path>
<path fill="#f2910d" d="M10.15 28.75c0.78-1 3.92-1 3.86 2.51s-4 2.89-4.62 1.35c-0.166-0.399-0.262-0.862-0.262-1.348 0-0.978 0.39-1.864 1.022-2.513l-0.001 0.001z"></path>
<path fill="#1d1d1b" d="M11.63 40.2c1.51-1.78 6.17-1.46 6.42 3.37s-5.5 5.46-6.92 2.5-0.62-4.54 0.5-5.87z"></path>
<path fill="#e7413e" d="M12.28 41c1.13-1.33 4.62-1.090 4.81 2.52s-4.090 4.13-5.18 1.92-0.47-3.44 0.37-4.44z"></path>
<path fill="#1d1d1b" d="M14.34 50.91c0.524 0.886 1.295 1.577 2.219 1.988l0.031 0.012c1.46 0.54 2.13-0.34 2.42-0.25s0.5 0.75 0.29 0.91c-0.47 0.408-1.089 0.657-1.765 0.657-0.626 0-1.203-0.213-1.661-0.571l0.006 0.005c-1.79-1.25-2.41-1.84-2.33-2.13s0.79-0.62 0.79-0.62z"></path>
<path fill="#a42116" d="M32 30.66c2.71-0.16 5.87 0.79 6.83 4.5s0.67 10.16-0.58 13.46-3.29 4.16-7 4.080-5.46-1.46-6.5-4.38-0.71-11 0.54-13.62 3.76-3.88 6.71-4.040z"></path>
<path fill="#1d1d1b" d="M30.47 32c2.19-0.31 5.5-0.42 6.91 3.71s-0.16 12.29-1.080 12.45-2.21-2.090-5.5-1.92-3.29 1.88-4.25 1.76-1.33-6.12-0.87-9.54 2.12-6.090 4.79-6.46z"></path>
<path fill="#e7413e" d="M32 33c2.71 0 3.66 1.54 4.16 3.54 0.268 0.989 0.422 2.123 0.422 3.294 0 0.072-0.001 0.145-0.002 0.217l0-0.011s-0.83-1.54-1.080-1.46-0.5 0.29-0.34 0.5 1.42 1.54 1.42 2c-0.017 0.366-0.060 0.709-0.127 1.044l0.007-0.044c-0.624-0.898-1.281-1.686-2.001-2.411l0.001 0.001c-0.256 0.12-0.429 0.376-0.429 0.672 0 0.042 0.003 0.083 0.010 0.123l-0.001-0.004c0.080 0.33 2.37 2.87 2.37 3.21s-0.12 1.16-0.12 1.16-2.42-3.21-2.71-3.080-0.58 0.54-0.42 0.79c0.885 1.095 1.752 2.319 2.541 3.596l0.089 0.154c-0.017 0.167-0.094 0.314-0.21 0.42l-0 0-0.5-0.25s-2.25-3.5-2.54-3.5-0.71 0.21-0.63 0.5 1.34 2.12 1.34 2.12l-1.25-0.34c-0.21 0-0.46-1-0.67-1.080s-0.87 0.12-0.75 0.33c0.090 0.196 0.151 0.424 0.17 0.663l0 0.007c-0.173-0.028-0.373-0.044-0.576-0.044-0.563 0-1.097 0.123-1.577 0.344l0.023-0.010c-1 0.5-1.54 1-1.71 0.75-0.126-1.197-0.198-2.586-0.198-3.992 0-1.574 0.090-3.127 0.265-4.654l-0.017 0.187c0.38-2.54 2.040-4.83 5.040-4.74z"></path>
<path fill="#1d1d1b" d="M31.43 34c0.348 0.027 0.62 0.316 0.62 0.668 0 0.001 0 0.001 0 0.002v-0c0 0.25-1.87 0-2.21 1.45s-0.12 3.5-0.37 3.55-1 0.2-1.17 0c-0.036-0.353-0.056-0.764-0.056-1.179 0-1.091 0.141-2.15 0.405-3.158l-0.019 0.086c0.52-0.864 1.453-1.434 2.519-1.434 0.099 0 0.197 0.005 0.293 0.014l-0.012-0.001z"></path>
<path fill="#f2910d" d="M39.8 8.49c0.2-0.44 5.46-1 11 3.5 4.696 3.662 7.692 9.314 7.71 15.667v0.003c0 5.33-0.29 12.37-3.29 17.71s-5.17 8-6.38 9-1.84 1.25-1.84 1.040-1-4.13-1.34-4.25-0.83 0-0.75 0.12 1.35 4.34 1.090 4.42-0.83 0.46-1 0.21-1.25-4.46-1.46-4.5-1 0-0.83 0.33 1.5 4.080 1.25 4.13c-0.42-0.054-0.801-0.159-1.159-0.311l0.029 0.011s-1.080-3.5-1.33-3.5-0.79 0-0.71 0.34c0.26 0.752 0.479 1.649 0.619 2.573l0.011 0.087c-0.17 0-1.5-1-2.13-1.45s-1.41-1-1.25-1.25c1.776-2.129 2.891-4.865 2.999-7.857l0.001-0.023c0.38-5.12 0.38-6.29 0.38-6.29s3.2-1.38 3.66-6.38 0.84-9.87-0.75-14.2-4.7-8.75-4.53-9.13z"></path>
<path fill="#1d1d1b" d="M43.13 10c0.68-0.11 4 1.17 4.13 1.63s0.17 0.7-0.21 0.66-2-0.91-2.79-1.12-1.38-1.17-1.13-1.17z"></path>
<path fill="#1d1d1b" d="M48.68 17.62c1.14-0.77 4-0.13 4.080 2.95s-3.25 3.43-4.67 1.63c-0.431-0.545-0.691-1.242-0.691-2 0-1.050 0.499-1.983 1.273-2.575l0.008-0.006z"></path>
<path fill="#ffe19b" d="M49.13 18.5c0.223-0.094 0.483-0.148 0.755-0.148 1.105 0 2 0.895 2 2 0 0.052-0.002 0.104-0.006 0.155l0-0.007c0.005 0.049 0.008 0.107 0.008 0.165 0 0.944-0.766 1.71-1.71 1.71-0.601 0-1.129-0.31-1.434-0.778l-0.004-0.007c-0.294-0.368-0.471-0.84-0.471-1.354 0-0.706 0.336-1.334 0.856-1.732l0.005-0.004z"></path>
<path fill="#1d1d1b" d="M48.43 29c1.43-1.31 5.87-0.5 5.62 3s-3.71 3.71-5.67 1.79c-0.692-0.566-1.131-1.419-1.131-2.375 0-0.979 0.459-1.85 1.174-2.41l0.007-0.005z"></path>
<path fill="#f2910d" d="M49.15 29.89c1-0.89 4-0.34 3.81 2s-2.51 2.51-3.84 1.21c-0.458-0.382-0.748-0.954-0.748-1.593 0-0.653 0.302-1.235 0.774-1.614l0.004-0.003z"></path>
<path fill="#1d1d1b" d="M45.68 41c2-0.75 5.25 0.5 4.79 4.37-0.194 1.901-1.786 3.371-3.722 3.371-1.122 0-2.129-0.494-2.815-1.277l-0.004-0.004c-1.55-2.090-1.38-5.34 1.75-6.46z"></path>
<path fill="#e7413e" d="M46 42c1.46-0.54 3.8 0.36 3.47 3.16-0.147 1.371-1.297 2.43-2.696 2.43-0.809 0-1.535-0.355-2.032-0.917l-0.002-0.003c-0.446-0.509-0.718-1.179-0.718-1.913 0-1.273 0.818-2.356 1.957-2.75l0.020-0.006z"></path>
<path fill="#1d1d1b" d="M51 37.78c0.060-0.3 0.71-0.33 0.83-0.080s1.35 3.3 1.17 3.62-0.88 0.46-1 0.3c-0.39-1.072-0.737-2.362-0.977-3.69l-0.023-0.15z"></path>
<path fill="#1d1d1b" d="M53.26 37.24c0.17-0.17 0.83-0.42 1-0.29s1.16 3 0.83 3.42-0.71 0.5-0.87 0.33c-0.448-1.005-0.784-2.172-0.952-3.392l-0.008-0.068z"></path>
<path fill="#1d1d1b" d="M55.22 36.41c0.11-0.22 0.54-0.42 0.71-0.25s0.54 1.41 0.37 1.54-0.71 0.5-0.79 0.25c-0.127-0.439-0.229-0.962-0.286-1.499l-0.004-0.041z"></path>
<path fill="#1d1d1b" d="M46.59 50.66c0.12-0.24 0.88-0.29 0.92-0.17s1.12 3 0.87 3.25-0.58 0.5-0.7 0.33c-0.45-0.976-0.826-2.117-1.072-3.306l-0.018-0.104z"></path>
<path fill="#1d1d1b" d="M48.59 50.16c0-0.13 0.63-0.29 0.75-0.13 0.219 0.588 0.368 1.268 0.419 1.976l0.001 0.024c-0.080 0.13-0.54 0.59-0.67 0.38-0.242-0.656-0.418-1.419-0.497-2.211l-0.003-0.039z"></path>
</svg>
