<!-- Generated by IcoMoon.io -->
<svg version="1.1" xmlns="http://www.w3.org/2000/svg" width="64" height="64" viewBox="0 0 64 64">
<path fill="#1d1d1b" d="M12.53 30.15c-0.017-0.264-0.027-0.573-0.027-0.884 0-0.644 0.043-1.278 0.125-1.899l-0.008 0.073c0.16 0 3.16 0.090 3.16 0s-0.2-4.25 0.17-4.46c1.321-0.203 2.901-0.35 4.505-0.408l0.075-0.002v-2.5s-3.87 0.16-3.91-0.17-0.63-5.42-0.25-5.54 6-0.38 6 0.080 0.16 4.59 0.16 4.59 4-0.34 4.17 0 0.080 3.37 0.5 3.41 6.92 0.29 6.92 0c-0.006-0.183-0.010-0.398-0.010-0.615 0-1.032 0.080-2.046 0.234-3.035l-0.014 0.11c0.2-0.16 4.91-0.21 4.91-0.21-0.024-0.422-0.038-0.915-0.038-1.412 0-0.911 0.047-1.812 0.137-2.699l-0.009 0.111c0.2-0.29 6.41-0.33 6.41 0.050-0.035 1.873-0.169 3.674-0.396 5.446l0.026-0.246c-0.17 0-4.92 0.090-4.92 0.090v1.12s7.54 0.21 7.62 0.59-0.2 5.54 0 5.54 3.75 0 3.79 0.37 0 3.5 0 3.5 4 0.090 4.12 0.54-0.29 13.21-0.75 13.42c-0.543 0.065-1.172 0.103-1.809 0.103-1.040 0-2.057-0.099-3.041-0.289l0.1 0.016c-0.12-0.25 0-8.5-0.21-8.58s-2.54 0-2.54 0 0.25 9-0.080 9.33-5.38 0.25-5.38 0.25 0.38 3.46 0.13 3.54-10.090 0.59-10.090 0.21-0.080-5 0.3-5.21 7.25-0.2 7.2-0.41 0-1.84-0.12-1.88-15.69 0.17-15.69 0.42c-0.040 0.269-0.063 0.579-0.063 0.895s0.023 0.626 0.067 0.93l-0.004-0.035c0.13 0 7.17 0.17 7.21 0.29 0.060 0.756 0.094 1.636 0.094 2.525s-0.034 1.769-0.101 2.641l0.007-0.116c-1.356 0.076-2.943 0.12-4.54 0.12s-3.184-0.044-4.759-0.13l0.219 0.010c-0.34-0.21-0.46-4.090-0.46-4.090s-5.54-0.58-5.58-0.87 0-8.34-0.17-8.46c-0.251-0.061-0.539-0.096-0.835-0.096s-0.584 0.035-0.86 0.101l0.025-0.005c0 0.13 0.17 8 0 8.080s-6 0.67-6 0-0.42-13.4-0.050-13.66c1.264-0.297 2.748-0.508 4.267-0.587l0.063-0.003z"></path>
<path fill="#c8db89" d="M10.12 32.32c0.725-0.171 1.569-0.286 2.435-0.319l0.025-0.001s0.12 11 0 11-2.38 0.33-2.46 0-0.12-10.47 0-10.68z"></path>
<path fill="#c8db89" d="M14.58 29c0.165-0.070 0.358-0.111 0.56-0.111s0.395 0.041 0.57 0.114l-0.010-0.004c0 0.12 0.080 5.58 0 5.58s-1.080 0.21-1.13 0-0.12-5.47 0.010-5.58z"></path>
<path fill="#c8db89" d="M18.24 15.78c0.18-0.12 2.25-0.13 2.34 0.12 0.058 0.364 0.091 0.783 0.091 1.21s-0.033 0.846-0.096 1.256l0.006-0.046c-0.349 0.019-0.758 0.030-1.17 0.030s-0.821-0.011-1.227-0.032l0.057 0.002c-0.086-0.382-0.135-0.82-0.135-1.27s0.049-0.888 0.142-1.31l-0.007 0.040z"></path>
<path fill="#c8db89" d="M41.080 16c0.25-0.022 0.54-0.035 0.834-0.035 0.617 0 1.221 0.056 1.807 0.165l-0.061-0.009c0.018 0.224 0.028 0.485 0.028 0.748 0 0.516-0.039 1.022-0.115 1.517l0.007-0.055c-0.375 0.038-0.81 0.060-1.25 0.060s-0.875-0.022-1.304-0.065l0.054 0.004c-0.022-0.348-0.035-0.755-0.035-1.165s0.013-0.817 0.038-1.22l-0.003 0.055z"></path>
<path fill="#8ec480" d="M22.24 20.57c0.612-0.098 1.317-0.154 2.035-0.154 0.283 0 0.564 0.009 0.843 0.026l-0.038-0.002c0.006 1.314 0.111 2.599 0.309 3.853l-0.019-0.143c0.16 0 10.37-0.080 10.41-0.29s0.21-3.25 0.34-3.37c0.376-0.072 0.808-0.113 1.25-0.113s0.874 0.041 1.293 0.119l-0.043-0.007c0 0.16-0.13 2.41 0.080 2.46s7.17 0.25 7.25 0.41-0.17 9.21-0.17 9.21-1.54-1.67-1.66-1.5-0.5 0.67-0.34 0.75c0.738 0.607 1.393 1.262 1.98 1.975l0.020 0.025c0.020 0.25 0.031 0.541 0.031 0.835s-0.011 0.585-0.034 0.873l0.002-0.038c-0.742-0.698-1.544-1.355-2.391-1.953l-0.069-0.047c-0.090 0.12-0.34 0.66-0.21 0.79s2.67 2.5 2.67 2.66 0 1.46 0 1.46c-0.733-0.581-1.561-1.171-2.419-1.718l-0.121-0.072c-0.12 0-0.46 0.88-0.29 0.92 1.062 0.53 1.978 1.126 2.817 1.811l-0.027-0.021c0 0.25 0.090 1.46 0.090 1.46s-2.71-1.78-2.83-1.78-0.21 0.87-0.21 0.87c1.136 0.708 2.115 1.423 3.039 2.202l-0.039-0.032c0.014 0.187 0.022 0.405 0.022 0.625s-0.008 0.438-0.024 0.654l0.002-0.029c-0.748-0.568-1.592-1.109-2.479-1.581l-0.101-0.049c-0.13 0.13-0.38 0.67-0.17 0.75s1.88 1.42 1.71 1.46c-0.52 0.078-1.119 0.123-1.729 0.123-0.359 0-0.715-0.015-1.066-0.046l0.046 0.003c0-0.16 0-3.58-0.17-3.62s-8.080-0.21-9.91-0.13-9.63 0.5-9.75 0.8 0.12 2.75 0 2.75c-1.546-0.030-3.034-0.153-4.493-0.363l0.193 0.023c-0.12-0.16-0.5-18.75-0.12-18.87s4.54-0.25 4.54-0.38-0.010-3.47-0.050-3.59z"></path>
<path fill="#1d1d1b" d="M21.62 27.65c1.090-0.199 2.346-0.313 3.627-0.313 0.734 0 1.458 0.037 2.173 0.11l-0.090-0.007c0.112 1.102 0.176 2.382 0.176 3.677 0 0.729-0.020 1.454-0.060 2.173l0.004-0.1c-1.105 0.119-2.386 0.186-3.684 0.186-0.713 0-1.421-0.020-2.123-0.061l0.097 0.004c-0.104-1.122-0.163-2.426-0.163-3.745 0-0.677 0.016-1.351 0.047-2.020l-0.003 0.095z"></path>
<path fill="#fab900" d="M23.58 29.19c0.287-0.076 0.616-0.12 0.955-0.12s0.668 0.044 0.982 0.126l-0.027-0.006c0 0.13 0.29 2.17 0 2.3-0.354 0.098-0.76 0.154-1.179 0.154-0.29 0-0.574-0.027-0.849-0.078l0.028 0.004c-0.009-0.193-0.014-0.418-0.014-0.645 0-0.611 0.038-1.214 0.112-1.805l-0.007 0.071z"></path>
<path fill="#1d1d1b" d="M35.28 27.28c1.092-0.199 2.349-0.313 3.632-0.313 0.735 0 1.462 0.037 2.178 0.11l-0.090-0.007c0.118 1.114 0.186 2.407 0.186 3.715 0 0.716-0.020 1.427-0.060 2.133l0.004-0.098c-1.093 0.112-2.363 0.176-3.647 0.176-0.726 0-1.447-0.020-2.162-0.061l0.099 0.005c-0.112-1.166-0.176-2.521-0.176-3.891 0-0.622 0.013-1.241 0.039-1.857l-0.003 0.088z"></path>
<path fill="#fab900" d="M37.24 28.82c0.288-0.081 0.618-0.128 0.96-0.128s0.672 0.047 0.986 0.134l-0.026-0.006c0 0.12 0.29 2.17 0 2.29-0.352 0.1-0.756 0.158-1.173 0.158-0.292 0-0.578-0.028-0.855-0.082l0.028 0.005c-0.009-0.198-0.014-0.429-0.014-0.662 0-0.602 0.034-1.195 0.101-1.779l-0.007 0.071z"></path>
<path fill="#1d1d1b" d="M19 25.9c0 0.26 1-0.21 1 0s0.21 4.090 0.090 4.17-1 0.21-1 0-0.090-4.25-0.090-4.17z"></path>
<path fill="#c8db89" d="M48 28.65c0.12-0.12 2-0.25 2 0.090s0 5.79-0.21 5.79c-0.173 0.010-0.376 0.016-0.58 0.016-0.529 0-1.050-0.038-1.558-0.113l0.058 0.007c-0.050-0.12 0.16-5.7 0.29-5.79z"></path>
<path fill="#c8db89" d="M52.37 32.82c0.2-0.070 1.83-0.13 1.87 0.080s-0.54 10.42-0.71 10.5c-0.188 0.023-0.405 0.036-0.625 0.036s-0.437-0.013-0.651-0.038l0.026 0.002s-0.040-10.54 0.090-10.58z"></path>
<path fill="#c8db89" d="M23.83 45.94c0.564-0.027 1.224-0.042 1.888-0.042 1.342 0 2.669 0.063 3.979 0.185l-0.168-0.013v2.25l-5.71-0.13c-0.037-0.324-0.059-0.7-0.059-1.081 0-0.412 0.025-0.818 0.073-1.217l-0.005 0.048z"></path>
<path fill="#c8db89" d="M34.12 46.15c1.486-0.14 3.213-0.22 4.958-0.22 0.366 0 0.732 0.004 1.097 0.011l-0.055-0.001c0 0.17 0.16 1.84 0 1.92s-6.12 0.14-6.12 0.14 0-1.81 0.12-1.85z"></path>
</svg>
