<!-- Generated by IcoMoon.io -->
<svg version="1.1" xmlns="http://www.w3.org/2000/svg" width="64" height="64" viewBox="0 0 64 64">
<path fill="#1d1d1b" d="M60.060 48.5c-0.080-1.134-0.472-2.163-1.092-3.017l0.012 0.017c-1.13-1.75-4.17-3.37-7.88-1.42s-2.1 6.050-2.1 6.050c-0.906 0.358-1.676 0.748-2.405 1.197l0.065-0.037c-1.6 0.92-1.66 1.71-1.66 1.71l-1.63-0.21v-2.25c0.208 0.010 0.451 0.015 0.696 0.015 0.916 0 1.814-0.078 2.687-0.229l-0.093 0.013c0.34-0.25 0.29-5.13 0-6s-3.75-3.75-3.75-3.75 0-5.34-0.12-5.88-2.69-2.71-2.79-2.79-0.19-15.13-0.23-17.92-0.38-3.83-0.88-4.41-4.83-6.42-7-6.59-3.66 1.54-4.58 2.63-4.58 5.66-5 7.12-0.62 20.25-0.62 20.25c-1.017 0.202-1.92 0.578-2.72 1.098l0.030-0.018c-0.92 0.75-0.5 8.25-0.5 8.25-0.727 0.745-1.385 1.562-1.962 2.438l-0.038 0.062c-0.54 1-0.46 5.38-0.17 5.59 0.863 0.178 1.857 0.283 2.875 0.29h0.006c0.024 0.406 0.067 0.777 0.129 1.142l-0.009-0.062c0.175 0.463 0.38 0.862 0.624 1.233l-0.014-0.023-1.090 0.17c-0.136-0.637-0.497-1.174-0.993-1.535l-0.007-0.005c-0.592-0.5-1.357-0.813-2.194-0.84l-0.006-0c-0.164-0.382-0.362-0.711-0.597-1.010l0.007 0.010c-0.595-0.564-1.273-1.050-2.011-1.436l-0.050-0.024c0.829-0.652 1.555-1.375 2.189-2.173l0.021-0.027c0.5-0.84-0.090-3.8-3.25-4.75-0.619-0.187-1.33-0.294-2.067-0.294-2.043 0-3.893 0.827-5.234 2.164l0-0c-1.5 1.42-1.75 5.5-1.75 5.5-0.356 0.758-0.696 1.672-0.967 2.614l-0.033 0.136c-0.45 1.63 1.42 4.13 1.42 4.13 0.048 1.347 0.562 2.565 1.386 3.507l-0.006-0.007c1.37 1.45 4.62 0.91 4.62 0.91 0.596 0.147 1.284 0.237 1.991 0.25l0.009 0c0.97-0.094 1.861-0.328 2.689-0.682l-0.059 0.022c0.37-0.13 1.58 1 3.41 1.29 0.176 0.009 0.383 0.013 0.591 0.013 1.444 0 2.833-0.235 4.131-0.67l-0.092 0.027c0.54-0.12 0.5 0.090 1.62 0.46 0.207 0.039 0.446 0.062 0.689 0.062 0.715 0 1.384-0.194 1.959-0.532l-0.018 0.010c0.46-0.12 0.87 0.21 1.75 0.29s1.37-0.95 1.5-0.91c0.372 0.3 0.7 0.628 0.99 0.988l0.010 0.012c0.25 0.29 0.5 0.2 1-0.21 0.421-0.399 0.754-0.887 0.971-1.433l0.009-0.027c0.37 0.459 0.931 0.75 1.561 0.75 0.007 0 0.013-0 0.020-0h-0.001c0.92-0.080 3.38 0.79 4.58 0.75 1.046-0.098 2.009-0.335 2.91-0.695l-0.070 0.025c0.75-0.2 2.41 0.38 3.25 0.55 0.078 0.003 0.169 0.004 0.26 0.004 0.875 0 1.718-0.141 2.506-0.4l-0.057 0.016c1.16-0.21 3 0.67 5.12 0.71 1.388-0.054 2.613-0.705 3.434-1.702l0.006-0.008c0.436 0.339 0.991 0.543 1.593 0.543 0.041 0 0.082-0.001 0.123-0.003l-0.006 0c1.12 0 3-1 4.2-5.080 0.188-0.517 0.296-1.114 0.296-1.736 0-1.729-0.839-3.262-2.132-4.214l-0.014-0.010zM6.060 40.67c0.21 0.080 2-1.46 4.21-1.79 0.155-0.011 0.336-0.017 0.519-0.017 1.531 0 2.964 0.422 4.188 1.157l-0.037-0.021c0.238-0.456 0.425-0.986 0.534-1.543l0.006-0.037c-0.090-0.25-1.71-1.5-5-1.21-1.987 0.13-3.774 0.894-5.183 2.091l0.013-0.011c-0.17 0.17 0.58 1.29 0.79 1.38zM49 42.29c0.21 0.090 2-1.46 4.21-1.79 0.136-0.008 0.295-0.013 0.455-0.013 1.537 0 2.974 0.425 4.201 1.163l-0.037-0.021c0.253-0.471 0.448-1.018 0.555-1.595l0.005-0.035c-0.080-0.25-1.7-1.5-5-1.21-1.984 0.138-3.766 0.905-5.173 2.101l0.013-0.011c-0.17 0.2 0.58 1.33 0.77 1.41zM20.1 26.54c0.25-0.12 0-8.66 0-8.83s-1.18-0.19-1.33 0c-0.29 0.46 0.13 8.63 0.25 8.79s0.83 0.17 1.080 0.040zM43.1 31c0.17-0.080 0.38-10 0.21-10.46s-1.090-0.38-1.29-0.080c-0.080 0.12-0.25 10.25-0.13 10.5s1.050 0.12 1.21 0.040z"></path>
<path fill="#e6e4da" d="M25.31 11.75c-0.15-0.15 4.13-7 6.080-6.92s6.5 7 6.090 7.17-1.75-1.37-6.21-0.83-5.71 0.83-5.96 0.58z"></path>
<path fill="#1d1d1b" d="M27.85 9.67c0.6-0.985 1.35-1.815 2.228-2.484l0.022-0.016c0.38 0 0.79 0.29 0.67 0.54-0.654 0.914-1.337 1.717-2.080 2.46l-0 0c-0.13-0.040-0.84-0.29-0.84-0.5z"></path>
<path fill="#696a9b" d="M24.27 13.75c0.23-0.28 1.37-1.25 6-1.33s7.33 1 7.37 1.12 0.34 19.34 0.5 19.54 2.59 1.92 2.71 2.42c0.089 0.626 0.14 1.349 0.14 2.084 0 0.439-0.018 0.873-0.054 1.302l0.004-0.056c-1.125-0.773-2.093-1.665-2.92-2.675l-0.020-0.025c-0.58-1-1.46-6.55-1.5-9.84s-0.13-9.16-4.79-9.46-5.4 4.17-5.71 8.38-0.71 11.33-0.88 11.54-5 4.21-5 3.92 0-5.38 0.42-5.63 2.83-0.54 2.88-0.91 0.060-19.42 0.85-20.38z"></path>
<path fill="#cbe7f5" d="M31.23 18.42c1.21 0 3.71 1.33 3.66 5.91s0.25 18.75 0.25 18.75c-0.574-0.343-1.237-0.639-1.936-0.853l-0.064-0.017c-0.13 0.12-0.59 0.62-0.38 0.75 0.91 0.37 1.693 0.803 2.417 1.315l-0.037-0.025c0.080 0.29 0.2 1.38 0.080 1.38s-2.38-1.71-2.5-1.55-0.46 0.75-0.25 0.88 2.62 1.46 2.71 1.92 0.12 1.16 0.12 1.16-3.12-2.5-3.33-2.25-0.58 0.5-0.38 0.67c1.401 0.93 2.611 1.847 3.761 2.833l-0.051-0.043c-0.048 0.242-0.15 0.455-0.292 0.633l0.002-0.003c-1.072-0.84-2.282-1.681-3.54-2.453l-0.17-0.097c-0.12 0.13-0.58 0.42-0.33 0.63s2.83 2.25 2.71 2.29-4 0.13-5.25 0-1.88-0.83-1.92-1.71 0.46-16.21 0.71-20.37 0.17-9.88 4.010-9.75z"></path>
<path fill="#1d1d1b" d="M29.35 20.13c0.436-0.513 1.081-0.837 1.803-0.837 0.831 0 1.561 0.429 1.982 1.078l0.006 0.009c1.090 1.66 0.8 5.95 0.46 6.12s-4.5 0.42-4.91-0.21-0.21-5.29 0.66-6.16z"></path>
<path fill="#ffe19b" d="M31.19 20.29c0.79-0.050 1.45 0.71 1.54 2.67s0 2.58-0.090 2.58-2.58 0.29-2.83 0-0.5-5.12 1.38-5.25z"></path>
<path fill="#1d1d1b" d="M35.060 13.46c0.42-0.050 2.17 0.58 2.13 0.83s0 0.54-0.13 0.54-2.29-0.37-2.29-0.62-0.040-0.71 0.29-0.75z"></path>
<path fill="#1d1d1b" d="M35.060 15c0.42-0.050 2.17 0.58 2.13 0.83s0 0.55-0.13 0.55-2.29-0.38-2.29-0.63-0.040-0.75 0.29-0.75z"></path>
<path fill="#1d1d1b" d="M35.81 16.79c0.42-0.050 1.38 0.38 1.33 0.63s0 0.54-0.12 0.54-1.5-0.17-1.5-0.42-0.040-0.71 0.29-0.75z"></path>
<path fill="#cbe7f5" d="M24.69 39.46l-0.050 7.67s-0.58-0.92-2.75-0.55-2.91 1.3-3 1.63 0.090 1.46-0.080 1.46c-0.308-0.034-0.577-0.080-0.84-0.14l0.050 0.010s-0.38-3 0-3.91 5.79-5.75 6.67-6.17z"></path>
<path fill="#cbe7f5" d="M37.19 38.71c0.19-0.17 5.33 4.25 6 4.71s1.45 1.25 1.5 1.71c0.028 0.436 0.044 0.946 0.044 1.459 0 0.895-0.049 1.779-0.144 2.648l0.010-0.108c-0.16 0-0.79-0.090-0.79-0.090s0.080-1.71-0.12-1.87c-0.854-0.443-1.864-0.703-2.936-0.703-0.23 0-0.458 0.012-0.682 0.035l0.028-0.002c-0.91 0.061-1.644 0.74-1.788 1.619l-0.002 0.011c0 0.25 0.13 1.37 0 1.37s-1 0.080-1 0-0.46-10.5-0.12-10.79z"></path>
<path fill="#85bfe9" d="M19.94 49.5s-0.17-1.080 0.080-1.29c0.648-0.366 1.422-0.582 2.247-0.582 0.043 0 0.087 0.001 0.13 0.002l-0.006-0c1.13 0 1.59 0.2 1.59 0.45s0 1.59-0.13 1.67-3.5-0.25-3.91-0.25z"></path>
<path fill="#85bfe9" d="M39.48 49.25s-0.090-1.29 0.21-1.42c0.254-0.029 0.549-0.045 0.847-0.045 0.766 0 1.507 0.108 2.209 0.309l-0.056-0.014c0.031 0.201 0.049 0.434 0.049 0.67s-0.018 0.469-0.052 0.695l0.003-0.025z"></path>
<path fill="#696a9b" d="M25.19 50.92c0.16 0 1 0.46 1.29 0.58 0.187 0.082 0.423 0.167 0.664 0.238l0.046 0.012-0.090 1-1.87-0.16z"></path>
<path fill="#696a9b" d="M35.6 51.79s0.92 0 1.25-0.46c0.173-0.223 0.304-0.487 0.377-0.775l0.003-0.015 0.79 0.21v1.46h-2.42z"></path>
<path fill="#fab900" d="M39.31 50.25c0.195-0.013 0.423-0.021 0.652-0.021 0.833 0 1.643 0.099 2.418 0.285l-0.070-0.014c0.057 0.45 0.090 0.971 0.090 1.5s-0.033 1.050-0.096 1.561l0.006-0.061c-0.576 0.405-1.080 0.842-1.535 1.325l-0.005 0.005c-0.34 0.46-0.13 0.63-0.34 0.46-0.478-0.415-0.858-0.93-1.109-1.513l-0.011-0.027c-0.030-0.523-0.047-1.134-0.047-1.75s0.017-1.227 0.051-1.834l-0.004 0.084z"></path>
<path fill="#fab900" d="M20.77 50.71c0.318-0.032 0.687-0.051 1.060-0.051s0.742 0.018 1.106 0.054l-0.046-0.004c0.71 0 1.3 0.29 1.38 0.79 0.004 0.079 0.006 0.171 0.006 0.264 0 0.888-0.201 1.729-0.561 2.48l0.015-0.035c-0.38 0.46-0.84 1.080-0.88 0.92-0.515-0.588-1.058-1.121-1.638-1.612l-0.022-0.018c-0.17-0.137-0.31-0.303-0.416-0.492l-0.004-0.008s-0.5-1.79 0-2.29z"></path>
<path fill="#1d1d1b" d="M39.89 50.92l0.5 0.080 0.13 2.42s-0.67 0-0.63-0.17 0-2.33 0-2.33z"></path>
<path fill="#1d1d1b" d="M41 50.79l0.5 0.090 0.12 2.41s-0.66 0-0.62-0.16 0-2.34 0-2.34z"></path>
<path fill="#1d1d1b" d="M22.69 51.29l0.5 0.090 0.12 2.41s-0.67 0-0.62-0.16 0-2.34 0-2.34z"></path>
<path fill="#1d1d1b" d="M21.52 51.25c0.21 0 0.5-0.080 0.54 0.13s0.21 1.54 0 1.54c-0.231-0.031-0.44-0.090-0.635-0.176l0.015 0.006z"></path>
<path fill="#e6e4da" d="M25 53.58l2 0.13c-0.044 0.209-0.069 0.449-0.069 0.695 0 0.883 0.325 1.691 0.863 2.309l-0.004-0.004c1.21 1.71 1.75 2 1.71 2.29-0.135 0.404-0.488 0.699-0.915 0.749l-0.005 0.001c-0.5 0.080-1.21-0.79-2.29-0.42-0.585 0.211-1.312 0.415-2.057 0.57l-0.113 0.020c-0.717-0.398-1.572-0.633-2.482-0.633-0.063 0-0.125 0.001-0.188 0.003l0.009-0c-1.090 0.21-2.71 1-4.8 0.42s-2-1.17-3.2-0.84c-0.694 0.245-1.496 0.397-2.329 0.42l-0.011 0c-0.33 0-0.58 0-0.46-0.080 0.282-0.381 0.499-0.828 0.624-1.313l0.006-0.027c-0.080-0.12-0.33-0.54-0.46-0.33-0.324 0.544-0.792 0.974-1.351 1.242l-0.019 0.008c-0.63 0.17-2.8 0.25-3.88-1.12-0.479-0.529-0.772-1.235-0.772-2.009 0-0.619 0.187-1.194 0.509-1.672l-0.007 0.011c0.54-0.5 1.5-1.080 1.54-1.21s-0.62-0.58-0.62-0.58-1.38-0.080-1.42 0.13-0.83 2.12-1 2c-0.505-0.583-0.813-1.35-0.813-2.188 0-0.053 0.001-0.106 0.004-0.159l-0 0.007c0.102-0.792 0.32-1.511 0.638-2.172l-0.018 0.042c0.289 0.657 0.803 1.171 1.442 1.453l0.018 0.007c1 0.29 1.13 0.17 1.13 0.17s-2.34-2-1.84-4.25 1.63-4.37 3.9-4.67 5.5 0.55 5.42 2.38c-0.223 1.493-1.22 2.709-2.562 3.24l-0.028 0.010c-0.85 0.049-1.647 0.181-2.412 0.389l0.082-0.019c-0.545 0.265-0.961 0.723-1.165 1.284l-0.005 0.016c0.335 0.153 0.726 0.281 1.134 0.364l0.036 0.006c0.17 0-0.13-0.87 1.42-0.87s3.45 0.62 3.66 1.79c0.013 0.113 0.021 0.244 0.021 0.376 0 0.697-0.209 1.346-0.569 1.886l0.008-0.013s0.83 1 1.33 1 0.92-0.71 1.17-1c0.221-0.371 0.405-0.8 0.531-1.253l0.009-0.037s1.54 0.7 1.46 1.41-0.5 1.21-0.42 1.34 1 0.54 1.3 0.29c0.388-0.3 0.882-0.481 1.417-0.481 0.428 0 0.829 0.115 1.174 0.317l-0.011-0.006c1 0.71 1 1.87 1.21 2s1.41-0.54 2-1.79c0.215-0.467 0.394-1.012 0.511-1.58l0.009-0.050z"></path>
<path fill="#ffe19b" d="M28.14 52h1.5c-0.222 0.384-0.353 0.844-0.353 1.335s0.131 0.951 0.36 1.348l-0.007-0.013c0.79 1.37 1.54 1.62 1.63 2s2.33-1 2.41-2.38c0.018-0.13 0.029-0.28 0.029-0.433 0-0.575-0.148-1.115-0.407-1.584l0.009 0.017 1 0.13s1.16 2.66 0.080 4-3.16 2.25-3.45 2.58-0.55-1.12-1.67-2.41c-0.833-0.814-1.35-1.949-1.35-3.205 0-0.495 0.080-0.972 0.229-1.417l-0.009 0.032z"></path>
<path fill="#fab900" d="M31.23 51.46c0.046-0.005 0.099-0.008 0.152-0.008 0.79 0 1.43 0.64 1.43 1.43 0 0.209-0.045 0.408-0.126 0.587l0.004-0.009c-0.324 0.882-0.778 1.642-1.348 2.299l0.008-0.009c-0.686-0.649-1.115-1.564-1.12-2.579v-0.001c0.065-0.712 0.442-1.324 0.992-1.705l0.008-0.005z"></path>
<path fill="#e6e4da" d="M35.85 53.46h1.92c0.274 0.79 0.717 1.461 1.287 1.998l0.003 0.002c1 1 0.83 1.63 1.25 1.92s0.83 0.33 1 0c0.093-0.835 0.425-1.578 0.925-2.176l-0.005 0.006c0.363-0.45 0.76-0.847 1.195-1.198l0.015-0.012 1.66 0.29s1 1.42 1.67 1.42c0.444-0.052 0.826-0.282 1.077-0.616l0.003-0.004s-1.62-0.75-1.16-1.88c0.926-1.497 2.558-2.479 4.42-2.479 0.275 0 0.545 0.022 0.809 0.063l-0.029-0.004c2.325 0.418 4.132 2.225 4.545 4.516l0.005 0.034c0.004 0.066 0.007 0.142 0.007 0.22 0 1.83-1.329 3.35-3.075 3.647l-0.022 0.003c-2.16 0.33-4.58-0.83-6.12-0.46s-0.92 0.63-2.13 0.5-1.91-0.66-3.12-0.62-2.92 1-3.5 0.87c-0.833-0.38-1.804-0.619-2.825-0.66l-0.015-0c-1.12 0.12-1.66 0.2-1.66 0.2s-0.84-0.33-0.79-0.45 2.33-1 2.5-2.67 0.16-2.46 0.16-2.46z"></path>
<path fill="#e6e4da" d="M50.23 49.63c-0.311-0.496-0.495-1.099-0.495-1.744 0-0.797 0.281-1.529 0.75-2.102l-0.005 0.006c1.41-1.5 4.79-1.79 6.52-0.79s2.58 5.46 2.37 6.58c-0.159 0.734-0.56 1.357-1.114 1.795l-0.007 0.005s0.12 0.58 0.33 0.62 1-0.58 1.34-1.25c0.245-0.789 0.407-1.702 0.449-2.646l0.001-0.024c0.645 0.674 1.042 1.59 1.042 2.598 0 0.524-0.107 1.023-0.301 1.477l0.009-0.025c-0.599 1.598-1.556 2.944-2.777 3.989l-0.013 0.011c-0.432 0.166-0.931 0.271-1.452 0.29l-0.008 0s2.090-3.17-0.29-6c-1.265-1.727-3.286-2.835-5.565-2.835-0.276 0-0.549 0.016-0.817 0.048l0.032-0.003z"></path>
</svg>
