<!-- Generated by IcoMoon.io -->
<svg version="1.1" xmlns="http://www.w3.org/2000/svg" width="64" height="64" viewBox="0 0 64 64">
<path fill="#1d1d1b" d="M27.69 16.72c-0.109-0.383-0.172-0.822-0.172-1.276 0-0.224 0.015-0.444 0.045-0.659l-0.003 0.025c0.704-1.315 1.652-2.41 2.794-3.262l0.026-0.018c1.020-0.748 2.242-1.286 3.567-1.522l0.053-0.008c0.316 0.085 0.582 0.261 0.778 0.498l0.002 0.002s7.38-2.53 12.41 1 6.34 6.060 6.34 10.75-3.31 8.59-3.31 8.59c0.005 0.096 0.008 0.209 0.008 0.322 0 0.797-0.15 1.56-0.423 2.261l0.015-0.042c-0.86 1.063-1.936 1.915-3.165 2.497l-0.055 0.023c-1 0.38-1.47 0.25-1.57 0.19s-1-0.37-1-0.37-0.84-0.28-1 0.060-5.62 11.72-5.9 11.94-5.070 6.65-5.47 6.62-0.66-0.34-0.56-0.56 4.090-7.060 4-7.16c-0.142-0.171-0.228-0.394-0.228-0.636 0-0.131 0.025-0.256 0.071-0.37l-0.002 0.007c0.19-0.5 5.16-9.75 5.16-9.75-1.296-0.061-2.517-0.262-3.686-0.588l0.116 0.028c-0.844-0.328-1.573-0.739-2.233-1.237l0.023 0.017s-8.63 9.44-8.88 9.47c-0.010 0.001-0.021 0.001-0.033 0.001-0.166 0-0.318-0.057-0.439-0.152l0.002 0.001s-9.72 10.15-9.94 10.12-0.71-0.56-0.65-0.72 8.43-10.75 8.4-10.81-0.72-0.91-0.62-1.1 4-5.18 5.59-6.84c0.828-0.866 1.618-1.792 2.353-2.761l0.057-0.079c-0.495-0.478-0.956-0.98-1.386-1.509l-0.024-0.031c-0.207-0.262-0.403-0.557-0.573-0.867l-0.017-0.033s-8.85 8.53-9 8.56-0.5-0.22-0.5-0.22-7.1 6.81-7.38 6.78-1-0.47-0.84-0.62 6.72-7.44 6.72-7.44-0.53-0.69-0.41-1 5.38-5.5 6.56-6.72 2.85-2.81 2.85-2.81c-0.099-0.654-0.155-1.409-0.155-2.177 0-0.966 0.089-1.911 0.259-2.828l-0.015 0.095c0.264-1.39 0.765-2.625 1.465-3.722l-0.025 0.042z"></path>
<path fill="#cbe7f5" d="M29.31 15.12c0.505-0.842 1.177-1.533 1.975-2.045l0.025-0.015c0.576-0.392 1.237-0.729 1.938-0.981l0.062-0.019c0.169 3.336 1.329 6.371 3.19 8.852l-0.030-0.042c3.19 4.32 6.78 8 8.63 8.69s4.18 1 4.090 1.16c-0.533 0.994-1.201 1.84-1.992 2.553l-0.008 0.007c-0.623 0.523-1.426 0.851-2.304 0.88l-0.006 0c-2.941-2.016-5.515-4.133-7.892-6.452l0.012 0.012c-3.56-3.35-6.229-7.607-7.64-12.403l-0.050-0.197z"></path>
<path fill="#fab900" d="M35.41 12.060c1.326-0.53 2.862-0.838 4.47-0.838 2.016 0 3.919 0.483 5.599 1.341l-0.070-0.032c5.18 2.5 6.28 8.81 6.28 8.81s-1.22-1.5-1.44-1.44-0.44 0.41-0.34 0.5c0.611 0.613 1.184 1.266 1.715 1.952l0.035 0.048c0.060 0.25 0 1 0.060 1.41 0.002 0.051 0.004 0.11 0.004 0.17 0 0.251-0.023 0.497-0.067 0.735l0.004-0.025c-0.854-1.101-1.715-2.079-2.632-3.002l0.002 0.002c-0.22 0-0.59 0.46-0.44 0.59 1.012 0.97 1.946 2.002 2.802 3.096l0.048 0.064c-0.167 0.594-0.413 1.113-0.732 1.578l0.012-0.018c-0.12 0-2.69-3.82-2.84-3.88s-0.72 0.38-0.66 0.5 3 3.85 3 4.13-0.66 0.68-0.75 0.72-2.66-4.13-2.84-4.19-0.72 0.25-0.66 0.44 3 3.93 2.81 4.090c-0.224 0.12-0.491 0.19-0.774 0.19-0.002 0-0.004 0-0.007 0h0s-2.65-4-2.84-4-0.94 0.56-0.75 0.72 2.56 3 2.28 3c-2.608-1.605-4.813-3.582-6.619-5.886l-0.041-0.054c-2.5-3.34-5.030-8.59-4.62-10.72z"></path>
<path fill="#85bfe9" d="M28.63 18.44c1.568 3.807 3.86 7.030 6.728 9.63l0.022 0.020c5.060 4.72 6.65 6 6.56 6.1-0.554 0.079-1.194 0.124-1.845 0.124s-1.291-0.045-1.917-0.132l0.072 0.008c-1.133-0.037-2.183-0.359-3.090-0.896l0.030 0.016s1.16-1.090 1.060-1.19-0.9-0.78-0.9-0.78-10.1 11.1-10.25 11-1.85-1.28-1.75-1.44 10.060-11.9 10-12.090-0.56-0.72-0.65-0.62-1.25 1.53-1.25 1.53c-1.24-1.272-2.252-2.774-2.964-4.435l-0.036-0.095c-0.98-2.44-0.35-6.57 0.18-6.75z"></path>
<path fill="#1d1d1b" d="M32.19 15.84c-1 0.28-1.78 1.85-1 2.6 0.275 0.3 0.669 0.487 1.107 0.487 0.75 0 1.371-0.55 1.482-1.269l0.001-0.008c0.22-1.5-0.66-2.080-1.59-1.81zM32.77 17.44c-0.033 0.225-0.224 0.395-0.455 0.395-0.137 0-0.26-0.060-0.344-0.155l-0-0c-0.22-0.23 0-0.71 0.32-0.79s0.56 0.11 0.48 0.55zM35.25 21.65c-0.691 0.058-1.231 0.634-1.231 1.335 0 0.354 0.137 0.676 0.361 0.915l-0.001-0.001c0.59 0.69 2.090 0.94 2.31-0.56s-0.81-1.76-1.44-1.69zM35 23.53c-0.37-0.19-0.18-0.94 0.25-1 0.016-0.002 0.033-0.002 0.052-0.002 0.304 0 0.55 0.246 0.55 0.55 0 0.015-0.001 0.030-0.002 0.044l0-0.002c-0.049 0.275-0.286 0.481-0.572 0.481-0.102 0-0.198-0.026-0.281-0.073l0.003 0.002zM39.070 26.28c-1.32 0.31-1 1.72-0.25 2.34 0.183 0.196 0.443 0.319 0.732 0.319 0.552 0 1-0.448 1-1 0-0.114-0.019-0.224-0.054-0.326l0.002 0.007c-0.028-0.746-0.639-1.34-1.389-1.34-0.004 0-0.008 0-0.011 0h0.001zM39.72 27.84c-0.074 0.071-0.174 0.115-0.284 0.115-0.138 0-0.261-0.068-0.335-0.173l-0.001-0.001c-0.19-0.19-0.22-0.72 0.18-0.66 0.23 0.030 0.63 0.53 0.47 0.72zM44.44 30.53c-0.031-0.003-0.068-0.006-0.105-0.006-0.552 0-1 0.448-1 1 0 0.162 0.039 0.316 0.107 0.451l-0.003-0.006c0.209 0.324 0.569 0.535 0.977 0.535 0.342 0 0.65-0.148 0.862-0.384l0.001-0.001c0.57-0.56 0.060-1.54-0.81-1.59zM39.85 13c-0.966 0.079-1.859 0.3-2.69 0.642l0.059-0.022c-0.090 0.1 0.16 0.88 0.34 0.91s0.6-0.31 2-0.66c0.357-0.078 0.767-0.122 1.187-0.122 0.567 0 1.116 0.081 1.634 0.233l-0.041-0.010c0.016-0.136 0.025-0.295 0.025-0.455s-0.009-0.319-0.026-0.474l0.002 0.019c-0.12-0.16-0.99-0.19-2.49-0.060zM29.6 22c-0.1-0.16-0.88 0-0.94 0.12-0.059 0.258-0.094 0.555-0.094 0.86s0.034 0.602 0.099 0.887l-0.005-0.027c0.251 0.8 0.591 1.496 1.018 2.128l-0.018-0.029c0.090 0.12 0.87-0.28 1-0.53s-0.22-0.41-0.66-1.35c-0.254-0.572-0.401-1.239-0.401-1.94 0-0.042 0-0.084 0.002-0.126l-0 0.006z"></path>
<path fill="#85bfe9" d="M26.63 26.44c0.16 0 1 1.37 0.84 1.43s-8.31 8.41-8.5 8.35-1.31-1-1.19-1.22 8.6-8.5 8.85-8.56z"></path>
<path fill="#b2b2b3" d="M23.35 42.69l0.46 0.43s-4.56 5.32-4.68 5.28 4.15-5.65 4.22-5.71z"></path>
<path fill="#85bfe9" d="M41.25 36c0-0.15 0.69 0 0.69 0s-4.94 10.4-5.16 10.4-0.78-0.21-0.78-0.34 5.22-9.97 5.25-10.060z"></path>
<path fill="#b2b2b3" d="M35.69 47.4c0.22 0 0.47 0.13 0.37 0.19s-1.43 1.78-1.53 1.78c0.411-0.786 0.796-1.43 1.212-2.052l-0.051 0.082z"></path>
</svg>
