<!-- Generated by IcoMoon.io -->
<svg version="1.1" xmlns="http://www.w3.org/2000/svg" width="64" height="64" viewBox="0 0 64 64">
<path fill="#1d1d1b" d="M15.25 20.59s1.37-8.69 9.5-12.44 14.18-2.090 19.060 2.63c2.671 2.476 4.418 5.916 4.687 9.764l0.003 0.046s1.19-0.62 1.5-0.31c0.788 0.95 1.266 2.181 1.266 3.524 0 0.146-0.006 0.291-0.017 0.435l0.001-0.019c0 2.43-0.81 3.81-1.25 4.12-0.728 0.339-1.602 0.659-2.505 0.91l-0.125 0.030c-0.185 0.654-0.441 1.225-0.767 1.749l0.017-0.029c-0.366 0.67-0.802 1.246-1.309 1.749l-0.001 0.001s2.63 7.56 2.5 8-1.94 1-1.94 1 5.25 14.37 5 14.94-3.060 1.43-3.37 1.12-5.69-15.41-5.69-15.41c-0.124 0.051-0.267 0.081-0.418 0.081-0.516 0-0.95-0.349-1.080-0.823l-0.002-0.008-2-4.71c-0.539 0.191-1.18 0.352-1.84 0.452l-0.060 0.008-1.91 0.35s0.25 4 0.12 4.090c-0.164 0.075-0.356 0.122-0.557 0.13l-0.003 0s0.56 13.43 0.44 13.59c-0.52 0.083-1.119 0.13-1.73 0.13-0.448 0-0.889-0.025-1.324-0.075l0.053 0.005c-0.38-0.090-0.5-13.59-0.6-13.72s-0.87-0.43-0.87-0.56 0-3.47-0.090-3.53c-0.324-0.068-0.721-0.125-1.124-0.158l-0.036-0.002s-1.94 4.63-2.38 5.22c-0.377 0.371-0.895 0.6-1.466 0.6-0.012 0-0.024-0-0.036-0h0.002s-4.78 13.37-5.12 13.53-3.41-0.63-3.47-0.94 4.72-14 4.72-14-1.090-0.69-1-1.31 0.66-5.84 0.66-5.84c-1.587-0.86-2.885-2.068-3.825-3.529l-0.025-0.041c-1.22-2.22-1.060-2.4-1.060-2.4s-2.56-0.66-2.75-1.82-0.47-5.56 0-6.090 2.22-0.44 2.22-0.44z"></path>
<path fill="#fab900" d="M16.5 20.56s2.31-6.12 5.91-9c2.688-2.279 6.195-3.664 10.026-3.664 0.795 0 1.576 0.060 2.339 0.175l-0.086-0.011c3.94 0.772 7.257 2.998 9.438 6.083l0.032 0.047c1.65 2.59 2.5 7.090 2.25 7.28-0.171 0.119-0.372 0.206-0.59 0.248l-0.010 0.002s-3.19-6.19-3.4-6.16-0.88 0.38-0.66 0.66c1.061 1.594 2.18 3.494 3.201 5.454l0.169 0.356c-0.29 0.107-0.655 0.214-1.028 0.298l-0.062 0.012s-2.53-4.25-2.75-4.31-0.56 0.25-0.5 0.41 2.63 4.15 2.41 4.22-1.35 0.25-1.35 0.25-1.9-2.94-2-2.94-0.75 0.4-0.69 0.59 2.25 2.44 2 2.56c-0.475 0.147-1.075 0.29-1.687 0.397l-0.093 0.013c-0.372-0.765-0.735-1.4-1.133-2.011l0.043 0.071c-0.13 0-0.88 0.38-0.81 0.47 0.352 0.495 0.685 1.058 0.97 1.65l0.030 0.070c-0.1 0.060-2.57 0.72-9 0.41s-9.22-1-11-1.78-1.97-1.85-1.97-1.85z"></path>
<path fill="#cbe7f5" d="M14.56 22.47c0.18-0.13 2.22 1.56 5.47 2.18 2.839 0.775 6.098 1.221 9.462 1.221 0.749 0 1.492-0.022 2.23-0.066l-0.102 0.005c4.61-0.072 9.036-0.728 13.248-1.897l-0.368 0.087c1.91-0.66 4.19-1.94 4.47-1.5 0.194 0.545 0.306 1.174 0.306 1.829 0 0.347-0.031 0.686-0.092 1.015l0.005-0.034c-0.142 0.899-0.535 1.687-1.103 2.314l0.003-0.004c-0.12 0.16-9.090 2.75-14.87 2.78s-12.41-0.65-15.53-2.12-3.1-1.47-3.13-1.69-0.28-3.94 0-4.12z"></path>
<path fill="#1d1d1b" d="M24.84 26.090c-0.745 0.085-1.318 0.711-1.318 1.471 0 0.43 0.184 0.818 0.477 1.088l0.001 0.001c0.286 0.273 0.675 0.44 1.102 0.44 0.645 0 1.2-0.381 1.454-0.93l0.004-0.010c0.44-0.96-0.56-2.080-1.72-2.060zM25.72 27.84c-0.115 0.245-0.36 0.412-0.644 0.412-0.188 0-0.359-0.073-0.486-0.192l0 0c-0.131-0.119-0.212-0.29-0.212-0.481 0-0.349 0.275-0.634 0.621-0.649l0.001-0c0.48-0.010 0.94 0.48 0.72 0.91z"></path>
<path fill="#1d1d1b" d="M17.81 24.56c-0.757 0.072-1.345 0.704-1.345 1.474 0 0.429 0.182 0.815 0.474 1.085l0.001 0.001c0.287 0.269 0.674 0.433 1.099 0.433 0.644 0 1.199-0.378 1.457-0.924l0.004-0.010c0.5-0.97-0.56-2.080-1.69-2.060zM18.69 26.31c-0.115 0.245-0.36 0.412-0.644 0.412-0.188 0-0.359-0.073-0.486-0.192l0 0c-0.13-0.119-0.212-0.29-0.212-0.48 0-0.359 0.291-0.65 0.65-0.65 0.001 0 0.001 0 0.002 0h-0c0.44-0.010 0.91 0.48 0.69 0.91z"></path>
<path fill="#1d1d1b" d="M34.080 27.090c-0.263-0.435-0.733-0.721-1.271-0.721-0.668 0-1.233 0.443-1.417 1.050l-0.003 0.011c-0.045 0.141-0.071 0.303-0.071 0.472 0 0.889 0.721 1.61 1.61 1.61 0.025 0 0.050-0.001 0.074-0.002l-0.004 0c1.060 0.030 1.6-1.42 1.080-2.42zM32.89 28.65c-0.004 0-0.008 0-0.012 0-0.392 0-0.71-0.318-0.71-0.71 0-0.075 0.012-0.147 0.033-0.215l-0.001 0.005c0.087-0.27 0.336-0.462 0.629-0.462 0.235 0 0.442 0.123 0.559 0.309l0.002 0.003c0.22 0.42-0.020 1.080-0.5 1.070z"></path>
<path fill="#1d1d1b" d="M40.53 26.23c-0.271-0.292-0.657-0.474-1.085-0.474-0.773 0-1.408 0.593-1.474 1.348l-0 0.006c-0.004 0.044-0.007 0.095-0.007 0.147 0 0.895 0.725 1.62 1.62 1.62 0.137 0 0.271-0.017 0.398-0.049l-0.011 0.002c1.030-0.21 1.27-1.73 0.56-2.6zM39.69 28c-0.049 0.012-0.105 0.019-0.163 0.019-0.392 0-0.71-0.318-0.71-0.71 0-0.024 0.001-0.048 0.004-0.072l-0 0.003c0.009-0.358 0.301-0.644 0.66-0.644 0.211 0 0.398 0.099 0.519 0.252l0.001 0.001c0.26 0.38 0.16 1.060-0.31 1.15z"></path>
<path fill="#1d1d1b" d="M44.44 25.71c-0.002 0.031-0.004 0.067-0.004 0.103 0 0.817 0.663 1.48 1.48 1.48 0.333 0 0.64-0.11 0.887-0.295l-0.004 0.003c0.406-0.296 0.667-0.77 0.667-1.305s-0.261-1.009-0.663-1.302l-0.005-0.003c-0.88-0.63-2.18 0.21-2.36 1.32zM46.32 25.17c0.179 0.131 0.294 0.339 0.294 0.575s-0.115 0.444-0.291 0.574l-0.002 0.001c-0.099 0.065-0.221 0.103-0.351 0.103-0.359 0-0.65-0.291-0.65-0.65 0-0.015 0.001-0.030 0.002-0.045l-0 0.002c0.050-0.49 0.62-0.86 1-0.56z"></path>
<path fill="#85bfe9" d="M18.12 29.87c0-0.080 2.57 1.91 8.66 2s8.41 0.16 12.69-0.62c2.349-0.377 4.411-0.889 6.404-1.552l-0.284 0.082-2.090 3.12c-0.19 0.29 1.090 2.79 1 2.79s-1.44-0.75-1.56-0.54-0.35 0.66-0.19 0.75 1.81 0.69 1.94 0.75c0.155 0.208 0.29 0.445 0.392 0.699l0.008 0.021s-2.22-0.72-2.31-0.68-0.19 0.81 0 0.87c0.969 0.221 1.794 0.478 2.591 0.792l-0.121-0.042c0.090 0.16 0.34 0.53 0.22 0.56-0.696-0.216-1.55-0.411-2.424-0.546l-0.106-0.014c-0.1 0.16-0.16 0.53 0 0.66s2.46 0.59 2.4 0.78c-0.974 0.335-2.17 0.647-3.396 0.875l-0.164 0.025s-3-7.15-3.25-7.28-1.53 0.35-1.47 0.5 0.56 1.19 0.56 1.32c-1.278 0.511-2.758 0.845-4.304 0.928l-0.036 0.002c-2 0.13-4.13 0.22-4.13 0.22s0.47-1 0.35-1.12-1.5-0.66-1.63-0.47-2.060 6.62-2.47 6.69c-0.843-0.009-1.646-0.17-2.387-0.456l0.047 0.016c-0.482-0.14-0.899-0.367-1.255-0.664l0.005 0.004c0-0.090 1.5-7.56 1.38-7.75s-1.6-0.81-1.72-0.56-0.47 1.22-0.47 1.22c-1.246-0.843-2.23-1.987-2.859-3.33l-0.021-0.050z"></path>
<path fill="#b2b2b3" d="M22.56 42.87c0.2 0 0.94 0.25 0.91 0.35s-4.69 12.65-4.81 12.65c-0.331-0.056-0.608-0.118-0.879-0.194l0.059 0.014s4.53-12.85 4.72-12.82z"></path>
<path fill="#85bfe9" d="M31.66 37.72c0.070-0.24 1.34-0.13 1.43 0.090s0 3.28 0 3.28-1.37 0.13-1.4 0-0.070-3.28-0.030-3.37z"></path>
<path fill="#b2b2b3" d="M32.44 42.47h0.31s0.62 9.62 0.5 9.75-0.56 0.060-0.56 0.060-0.25-9.72-0.25-9.81z"></path>
<path fill="#b2b2b3" d="M43.41 42c0.16-0.090 0.71-0.47 0.84-0.35s4.78 12.85 4.66 13c-0.213 0.139-0.473 0.222-0.753 0.222-0.024 0-0.047-0.001-0.070-0.002l0.003 0c-0.090-0.12-4.75-12.87-4.68-12.87z"></path>
<path fill="#1d1d1b" d="M18.31 20.15c0.373-1.437 0.954-2.697 1.717-3.823l-0.027 0.043c0.752-1.234 1.634-2.293 2.648-3.209l0.012-0.011c0.18 0 0.84 0.88 0.72 0.91-1.162 0.834-2.103 1.902-2.766 3.141l-0.024 0.049c-1 1.9-1.34 3.28-1.46 3.31-0.316-0.079-0.591-0.221-0.824-0.413l0.004 0.003z"></path>
</svg>
