<!-- Generated by IcoMoon.io -->
<svg version="1.1" xmlns="http://www.w3.org/2000/svg" width="64" height="64" viewBox="0 0 64 64">
<path fill="#1d1d1b" d="M12.58 15.71c-0.25-0.12-0.5-2.29-0.88-2.33s-0.95 2-0.95 2-1.92 0.17-2 0.54 1.71 1.21 1.71 1.33-1.050 1.13-0.75 1.55 1.7-0.46 1.87-0.46 1.67 1.46 2 1.29-0.46-2-0.5-2.13 1.37-1 1.37-1.25-1.62-0.41-1.87-0.54zM20.58 10.38c0.17-1.25-0.65-2.58-2.080-2.29-1.88 0.37-2.38 2.29-1.55 3.080s3.46 0.46 3.63-0.79zM55.2 10.63c0.17-1.25-0.64-2.58-2.080-2.29-1.87 0.37-2.37 2.29-1.54 3.080s3.42 0.46 3.62-0.79zM38.3 28.35c1.016-0.007 1.838-0.833 1.838-1.85 0-0.252-0.051-0.493-0.142-0.712l0.005 0.012c-0.8-1.74-2.78-1.78-3.36-0.79s0.36 3.47 1.66 3.34zM35.84 36.51c-1.91 0.13-2.65 2-1.92 2.86s3.37 0.89 3.7-0.32c0.082-0.202 0.129-0.436 0.129-0.681 0-1.027-0.833-1.86-1.86-1.86-0.017 0-0.034 0-0.052 0.001l0.002-0zM10.49 52.83c-0.85 1.72 0.36 3.28 1.5 3.11s2.47-2.46 1.58-3.36c-0.342-0.434-0.867-0.711-1.458-0.711-0.696 0-1.302 0.384-1.617 0.951l-0.005 0.009zM43.33 19.13c0.12 0.17 1.58-1.29 1.79-1.46s1.58 0.63 1.83 0.46-0.5-1.75-0.58-1.92 1.13-1.12 1.13-1.41-1.63-0.17-1.8-0.34-1-2.54-1.41-2.5-0.69 3.36-0.79 3.42c-0.38 0.21-2.3 1.25-2.21 1.5s1.71 0.29 1.83 0.38 0.080 1.74 0.21 1.87zM30.83 33.92c1-1 0-8 0-8.12s5.54-6 5-6.84-6.58-1.37-6.79-1.5-1.88-6.62-3-6.62-4.42 6.79-4.58 7c0 0-5.050-0.71-5.55 0.12s3.92 6 3.92 6-3.83 7.34-2.75 8.63 6.83-2.67 7.42-2.5 5.29 4.79 6.33 3.83zM11 44.17c0.13-0.12 1.38 0.75 1.67 0.54s-0.21-1.45-0.21-1.58 1.38-0.92 1.29-1.12-1.79-0.38-1.79-0.38-0.75-2.42-1.080-2.42-1 2-1 2.17c0 0-1.71 0.17-1.71 0.5s1.46 0.75 1.46 0.92-0.38 2.12-0.38 2.12c0.193 0.118 0.415 0.217 0.651 0.285l0.019 0.005c0.24 0.090 0.91-0.91 1.080-1.040zM34.42 44.88c-0.21-0.71-4.25-1-4.25-1s-1.21-4.62-2.42-4.54-3.45 4.42-3.62 4.83c0 0-4.42-0.29-4.75 0.54s4 4.25 4 4.59-2.13 4.75-1.38 5.54 4.71-2.46 5.090-2.5 5 2.080 5.75 1.42-1.59-4.46-1.55-4.76 3.29-3.41 3.080-4.12zM55.91 30.8c-0.21-0.88-6-1.38-6-1.38s-2-4.21-3.2-4.12-3.71 4.62-3.84 4.79c0 0-5.33 1.37-5.33 2.29s4.080 3.62 4.080 3.62-0.62 6.46 0.38 7 5.5-3.83 5.71-3.83 5.88 3.29 6.17 3-0.71-6-0.75-6.13 2.99-4.37 2.78-5.24zM40.91 49.46c-0.497 0.743-0.894 1.606-1.146 2.528l-0.014 0.062s-2 1-2 1.21 1.79 0.37 1.83 0.62-0.37 1.54-0.12 1.83 1.2-0.87 1.41-1 1.59 0.8 1.79 0.67-0.37-1.54-0.37-1.71 1.83-1.080 1.71-1.37-2-0.29-2.13-0.38-0.58-2.66-0.96-2.46z"></path>
<path fill="#ffe19b" d="M18.54 9c0.71-0.14 1.11 0.51 1 1.13s-1.38 0.78-1.79 0.39-0.14-1.37 0.79-1.52z"></path>
<path fill="#ffe19b" d="M53.16 9.22c0.036-0.005 0.077-0.008 0.119-0.008 0.503 0 0.91 0.407 0.91 0.91 0 0.081-0.011 0.159-0.030 0.234l0.001-0.006c-0.080 0.62-1.38 0.78-1.79 0.39s-0.13-1.34 0.79-1.52z"></path>
<path fill="#cbe7f5" d="M39.2 26c0.041 0.101 0.064 0.218 0.064 0.34 0 0.512-0.413 0.927-0.924 0.93h-0c-0.62 0.060-1.090-1.16-0.8-1.66s1.26-0.43 1.66 0.39z"></path>
<path fill="#cbe7f5" d="M35.77 37.39c0.011-0 0.023-0.001 0.036-0.001 0.503 0 0.91 0.407 0.91 0.91 0 0.123-0.024 0.24-0.068 0.347l0.002-0.006c-0.16 0.6-1.47 0.6-1.83 0.16s0.010-1.35 0.95-1.41z"></path>
<path fill="#ffe19b" d="M11.21 53.34c0.157-0.288 0.457-0.481 0.802-0.481 0.291 0 0.55 0.136 0.716 0.349l0.002 0.002c0.44 0.44-0.22 1.57-0.78 1.66s-1.16-0.69-0.74-1.53z"></path>
<path fill="#ffe19b" d="M19 19c0.11-0.4 2.54 0.38 3.29 0.17s1.37-1.42 1.67-2 1.54-3.17 1.83-3.17 1.54 4.75 2 5.080 5.62 1 5.67 1.17-4.26 4.55-4.3 4.75 0.25 6.41 0.090 6.33-3.38-3-4.55-3.080-5.37 2.45-5.5 2.16 3-6.71 2.84-7-3.040-4.15-3.040-4.41z"></path>
<path fill="#1d1d1b" d="M22.87 20.59c0-0.13 1.42-2 1.71-1.79s0.46 0.46 0.29 0.71c-0.399 0.594-0.837 1.112-1.326 1.576l-0.004 0.004c-0.17 0-0.71-0.29-0.67-0.5z"></path>
<path fill="#1d1d1b" d="M24.79 23.34c0.741 0.883 1.44 1.863 2.062 2.896l0.058 0.104c-0.080 0.21-0.16 0.37-0.29 0.37-0.889-0.855-1.696-1.78-2.419-2.77l-0.041-0.060c-0.040-0.25 0.5-0.29 0.63-0.54z"></path>
<path fill="#1d1d1b" d="M25.2 22.59c-0.060-0.12 0.42-0.38 0.67-0.33 0.699 0.655 1.294 1.41 1.766 2.243l0.024 0.047c-0.043 0.207-0.13 0.389-0.252 0.543l0.002-0.003s-2.040-2.21-2.21-2.5z"></path>
<path fill="#1d1d1b" d="M26.79 21.3c-0.080-0.11 0.58-0.46 0.79-0.38s1.17 1.34 1.080 1.63-0.16 0.46-0.37 0.5-1.38-1.59-1.5-1.75z"></path>
<path fill="#f2910d" d="M23 45.84c0.060-0.2 2 0.12 2.16-0.080s2-3.59 2.21-3.55 1.21 3.21 1.33 3.25 2.8 0.25 2.84 0.55-2.25 2.54-2.17 2.87c0.309 0.697 0.594 1.531 0.807 2.392l0.023 0.108c-0.16 0-3-1.25-3.29-1.080-0.579 0.308-1.251 0.539-1.962 0.655l-0.038 0.005c-0.12-0.12 0.54-2.62 0.5-2.83s-2.41-2.13-2.41-2.29z"></path>
<path fill="#1d1d1b" d="M26.75 46.8c0.566 0.522 1.017 1.159 1.317 1.875l0.013 0.035c0 0.25-0.21 0.55-0.33 0.46-0.547-0.597-1.057-1.25-1.514-1.941l-0.036-0.059c0-0.080 0.42-0.29 0.55-0.37z"></path>
<path fill="#1d1d1b" d="M27.79 45.76c0.569 0.519 1.021 1.157 1.317 1.875l0.013 0.035c0 0.25-0.21 0.54-0.33 0.46-0.543-0.596-1.050-1.249-1.504-1.941l-0.036-0.059c0-0.080 0.41-0.29 0.54-0.37z"></path>
<path fill="#fab900" d="M40.62 32.67c-0.26-0.26 3.42-0.83 3.58-1.080s2.25-3.54 2.5-3.5 1.71 3.12 1.92 3.17 5 0.41 5 0.66-2.5 3.84-2.5 4.090c0.134 0.813 0.21 1.751 0.21 2.706 0 0.015 0 0.031-0 0.046v-0.002c-1.176-0.671-2.156-1.305-3.099-1.988l0.099 0.068c0.051-0.174 0.081-0.374 0.081-0.58 0-0.017-0-0.035-0.001-0.052l0 0.003c-0.605-0.805-1.262-1.512-1.984-2.146l-0.016-0.014c-0.16 0-0.66 0.33-0.5 0.46 0.567 0.654 1.066 1.393 1.471 2.188l0.029 0.062c-0.080 0.12-3.71 3.5-3.91 3.2s0.58-4.66 0.41-5-3.040-2.040-3.29-2.29z"></path>
<path fill="#1d1d1b" d="M47.54 33.46s0.54-0.41 0.71-0.33c0.67 0.89 1.257 1.904 1.715 2.986l0.035 0.094c-0.090 0.25-0.63 0.42-0.63 0.42s-1.67-3.080-1.83-3.17z"></path>
<path fill="#1d1d1b" d="M49.62 32.84c-0.080-0.24 0.5-0.17 0.67 0s0.71 1.29 0.54 1.42-0.5 0.5-0.58 0.37-0.55-1.54-0.63-1.79z"></path>
</svg>
