<!-- Generated by IcoMoon.io -->
<svg version="1.1" xmlns="http://www.w3.org/2000/svg" width="64" height="64" viewBox="0 0 64 64">
<path fill="#1d1d1b" d="M7.68 26.92c2.476-1.111 5.569-2.251 8.744-3.202l0.576-0.148c1.552-0.415 3.472-0.786 5.43-1.036l0.23-0.024s2.28-5.090 3.59-7.66 2.16-4.28 3.6-4.43 4.31 4.43 5.71 6.84 2.6 4.41 2.6 4.41 9.72 0.9 13.22 1.060 4.78 0.25 5.15 1.19-8 7-9.68 8.31c-0.989 0.777-1.868 1.596-2.674 2.482l-0.016 0.018s1.78 6.4 2.94 11.060 1.65 6.41 1.12 7.31-2.16 0.41-3.56-0.37-7.56-4.78-9.88-6.1-3.18-1.21-3.34-1.18-8.81 4.62-11.56 6.15-4.26 1.57-4.88 1.4-0.31-1.78-0.090-3 3.69-13.6 3.69-13.78c-2.081-2.030-4.371-3.865-6.828-5.465l-0.172-0.105c-2.6-1.65-3.54-2.050-3.76-2.23s-0.66-1.29-0.16-1.5z"></path>
<path fill="#fab900" d="M10.87 27.45c0.21-0.35 6.44-2.38 9.22-3s3.28-0.56 3.43-0.69 2.82-5.59 4.19-8.12 1.88-3.16 2.1-3.16c1.702 2.218 3.416 4.737 4.986 7.353l0.205 0.367c1.27 2.25 1.52 2.8 1.71 2.8s9.35 0.81 12.5 1 4.63 0.41 4.5 0.63-5.47 4.12-8 6.31-3.71 2.98-3.65 3.35 1.53 6.38 1.43 6.31c-0.97-0.549-2.12-1.088-3.312-1.541l-0.178-0.059c-0.12 0.12-0.65 0.84-0.4 1.090s4.12 2 4.12 2.19 0.32 1.69 0.32 1.69-5.25-3-5.47-3-0.88 0.56-0.72 0.78 6.31 3.56 6.47 3.78c0.246 0.441 0.44 0.953 0.554 1.494l0.006 0.036c-0.090 0-7.72-4.5-8-4.44s-0.75 0.94-0.66 1 8.91 5.19 9.070 5.44 0.87 2 0.68 2-7.59-4.34-10.4-5.9-3.47-1.79-4-1.75c-4.646 2.034-8.411 3.957-12.057 6.063l0.587-0.313c-2.16 1.31-3 1.56-3.070 1.4s2.44-10.060 3-12.5 0.79-2.87 0.16-3.65c-1.599-1.592-3.393-2.989-5.344-4.15l-0.126-0.070c-2.6-1.62-3.95-2.59-3.85-2.74z"></path>
<path fill="#1d1d1b" d="M27.060 21c-0.33-0.33 2.18-4.69 2.31-4.69s0.81 0.16 0.87 0.41c-0.62 1.846-1.296 3.406-2.085 4.897l0.085-0.177c-0.444-0.072-0.842-0.227-1.193-0.448l0.013 0.008z"></path>
</svg>
