<!-- Generated by IcoMoon.io -->
<svg version="1.1" xmlns="http://www.w3.org/2000/svg" width="64" height="64" viewBox="0 0 64 64">
<path fill="#1d1d1b" d="M13.37 24c0.14 0-1.62-6.5 0.84-10.83s5.79-8.81 14.71-10.17 16.62 2.29 19.25 5.5 3.25 9.33 3.33 11.66 0 4.17 0 4.17 3.12 0.17 3.080 5.5-2.25 5.83-2.25 5.83 3.79 4.88 3.83 8.59-2.54 6.54-2.95 7c-0.34 0.352-0.741 0.644-1.185 0.859l-0.025 0.011s0.62 5.17-2.21 6.71-8.79 1.66-9.5 1.58c-0.87-0.172-1.611-0.376-2.331-0.627l0.12 0.036c-1.773 0.89-3.851 1.448-6.050 1.539l-0.030 0.001c-2.148-0.159-4.092-0.915-5.7-2.101l0.030 0.021s-4.58 1.83-8.17 0.83c-3.056-0.781-5.456-3.032-6.431-5.936l-0.019-0.064c-0.84-2.54-0.5-3.45-0.5-3.45-1.613-1.577-2.755-3.628-3.199-5.929l-0.011-0.071c-0.46-3.46 1.12-7.13 2.12-8.88 0.45-0.888 1.023-1.645 1.706-2.286l0.004-0.004s-1.21-1-1.37-4.17 1.62-5.12 2.91-5.32z"></path>
<path fill="#fff" d="M17 23.2c-0.328-1.235-0.554-2.672-0.628-4.149l-0.002-0.050c0.062-0.289 0.097-0.62 0.097-0.96s-0.035-0.671-0.103-0.991l0.006 0.031c-0.342-0.358-0.707-0.686-1.097-0.983l-0.023-0.017s1.71-6 6.5-8.87 10.42-3.39 15.83-2.35 9.75 5.14 10.75 7.55c0.606 1.568 0.97 3.382 1 5.277l0 0.013s-1.83 0.41-1.79 0.62c0.098 1.050 0.154 2.27 0.154 3.503 0 0.484-0.009 0.966-0.026 1.446l0.002-0.070c-4.416 1.2-9.486 1.889-14.717 1.889-0.525 0-1.048-0.007-1.57-0.021l0.077 0.002c-0.048 0-0.104 0-0.161 0-5.085 0-10.010-0.683-14.689-1.961l0.39 0.091z"></path>
<path fill="#1f4863" d="M51.42 26c0.77-0.41 1.54 1 1.62 1.33 0.017 0.175 0.027 0.379 0.027 0.585s-0.010 0.41-0.029 0.611l0.002-0.026c-0.137-0.069-0.299-0.109-0.47-0.109-0.487 0-0.898 0.326-1.028 0.771l-0.002 0.008c-0.101 0.3-0.159 0.645-0.159 1.004 0 0.792 0.283 1.517 0.753 2.081l-0.004-0.005c0.222 0.132 0.489 0.209 0.775 0.209 0.122 0 0.241-0.014 0.356-0.041l-0.010 0.002s-0.75 2-1.42 2.12-1.66-1.42-1.75-3.29 0.54-4.84 1.34-5.25z"></path>
<path fill="#1f4863" d="M12 27s0.66-1.38 1.29-1.63 2.58 1 2.17 4.38-1.67 4-2.25 3.87-1.21-1.88-1.21-1.88c0.177 0.16 0.412 0.258 0.67 0.258 0.551 0 0.999-0.446 1-0.997v-0c0.159-0.54 0.25-1.159 0.25-1.801 0-0.528-0.062-1.042-0.179-1.534l0.009 0.045c-0.424-0.439-1.018-0.711-1.676-0.711-0.026 0-0.052 0-0.078 0.001l0.004-0z"></path>
<path fill="#fff" d="M16.37 26.2c4.299 1.236 9.238 1.947 14.342 1.947 1.009 0 2.011-0.028 3.006-0.083l-0.138 0.006c9.67-0.62 15.71-1.37 15.71-1.37s-1 4.29-0.25 5.91c0.537 1.081 1.147 2.014 1.85 2.865l-0.020-0.025s4 7.91 3.38 10.16-3.080 4.39-3.080 4.39c-0.756-1.509-1.83-2.759-3.14-3.7l-0.030-0.020c-2-1.29-3.92-2.62-3.92-2.62s1.8-3 2.88-3.67c0.413-0.234 0.907-0.373 1.433-0.373 0.581 0 1.123 0.169 1.579 0.46l-0.012-0.007c0.38 0.38 0.54 0.5 0.67 0.34 0.16-0.237 0.264-0.524 0.29-0.834l0-0.006c-0.727-0.653-1.632-1.121-2.634-1.324l-0.036-0.006c-1.17-0.24-2.25 1.12-3.17 2.33s-1.5 1.92-1.5 1.92-2.58-2.49-5.16-5.33-4.42-3.67-6.34-3.63-3.91 3.79-6.66 5.79-4.42 3.13-4.42 3.13-3.92-4.21-4.88-4.29-3 1.16-2.87 1.45 0.58 1.090 0.83 1 1.75-1.16 2.29-0.79 3.8 3.46 3.67 3.79-2.42 1.39-4.75 2.88c-1.097 0.625-2.041 1.359-2.867 2.207l-0.003 0.003s-2.96-2.7-2.42-6.17c0.66-2.914 1.694-5.489 3.070-7.839l-0.070 0.129s2.83-0.41 3.25-2.62c0.129-1.098 0.203-2.369 0.203-3.658 0-0.824-0.030-1.641-0.089-2.45l0.006 0.108z"></path>
<path fill="#fff" d="M32.71 39.11c2.29 0 7.16 5 11.79 7.63s6.5 5.080 5.12 8.26-3.33 3.21-6.16 3.29c-2.007-0.044-3.936-0.238-5.816-0.573l0.226 0.033c-1.564 0.998-3.471 1.591-5.517 1.591-0.17 0-0.339-0.004-0.507-0.012l0.024 0.001c-3.54-0.2-4.83-1.91-5.25-2s-4.41 1.79-8.5 0.29-5.62-6.21-4-8.13 7.25-3.25 10.75-6 4.13-4.29 7.84-4.38z"></path>
<path fill="#1d1d1b" d="M18 13.78c0.493-1.42 1.328-2.616 2.408-3.53l0.012-0.010c2-1.83 2.71-2.080 2.83-2s0.88 0.67 0.75 0.83-2.62 2.13-3.29 2.79-1.29 2.8-1.5 2.75-0.92-0.79-1.21-0.83z"></path>
<path fill="#1d1d1b" d="M43.33 9.32c0.34 0.070 2.71 1.21 2.54 1.63s-0.12 0.54-0.33 0.54c-0.875-0.271-1.634-0.611-2.341-1.028l0.051 0.028c-0.13-0.17-0.13-1.21 0.080-1.17z"></path>
<path fill="#1d1d1b" d="M43.25 11.78s4.5 2.17 4.58 2.54c0.014 0.048 0.022 0.103 0.022 0.16 0 0.169-0.070 0.321-0.182 0.43l-0 0s-4.21-2-4.34-2.13-0.33-0.92-0.080-1z"></path>
<path fill="#1d1d1b" d="M43.25 14.45c1.736 0.639 3.193 1.312 4.587 2.085l-0.167-0.085c0.080 0.25 0 0.66-0.090 0.75-1.792-0.597-3.267-1.202-4.694-1.892l0.234 0.102c-0-0.015-0-0.033-0-0.051 0-0.324 0.048-0.636 0.136-0.931l-0.006 0.023z"></path>
<path fill="#1d1d1b" d="M42.92 16.86c1.398 0.342 2.623 0.933 3.686 1.729l-0.026-0.019c0 0.34 0.25 0.75 0 0.75-1.513-0.485-2.793-1.020-4.018-1.649l0.148 0.069c-0.17-0.17 0.040-0.74 0.21-0.88z"></path>
<path fill="#1d1d1b" d="M42.75 19.2c1.457 0.525 2.707 1.132 3.881 1.852l-0.091-0.052c0.13 0.17 0 0.92-0.12 0.88s-3.63-1.42-3.75-1.59-0.13-1.090 0.080-1.090z"></path>
<path fill="#1d1d1b" d="M42.25 21.7c0.19 0.18 2.54 0.87 2.46 1.080-0.064 0.214-0.239 0.375-0.456 0.419l-0.004 0.001c-0.779-0.119-1.48-0.368-2.11-0.726l0.030 0.016c-0.17-0.21 0.040-0.83 0.080-0.79z"></path>
<path fill="#1d1d1b" d="M18.5 28c1.598 0.374 3.493 0.655 5.43 0.784l0.11 0.006c3 0.13 4.38 0.42 4.38 1.17s-1.84 3.12-5.21 3.5-5 0.29-5.34-0.090-0.2-5.090 0.63-5.37z"></path>
<path fill="#1d1d1b" d="M37.62 29.2c0.48-0.69 5.63-0.2 7.38-0.2s2.54 0 2.58 0.25 0.25 4.080 0 4.33c-0.817 0.237-1.755 0.373-2.726 0.373-1.172 0-2.298-0.199-3.345-0.565l0.071 0.022c-2.37-1-4.33-3.67-3.96-4.21z"></path>
<path fill="#1d1d1b" d="M16.71 34.61c1.034 0.837 2.366 1.343 3.815 1.343 0.255 0 0.507-0.016 0.754-0.046l-0.030 0.003c2.75-0.38 6.25-3.55 8.12-4.63s2.75-1.46 4.34-1.25 4 2.5 6.29 4 4 2.17 5.46 2.080 1.83-0.37 1.87 0 0.17 0.92 0 1c-0.686 0.233-1.477 0.368-2.299 0.368-0.938 0-1.836-0.175-2.661-0.495l0.050 0.017c-2-0.92-7.13-5.79-9.46-5.79s-8.090 5.5-11.42 5.83-5.46-1.46-5.46-1.66 0.42-0.81 0.63-0.77z"></path>
<path fill="#1d1d1b" d="M12.71 42.74c0-0.22 2.25-1.71 2.58-1.5 0.181 0.090 0.304 0.273 0.304 0.486 0 0.114-0.035 0.219-0.095 0.306l0.001-0.002c-0.678 0.58-1.443 1.092-2.264 1.51l-0.066 0.030c-0.17 0-0.5-0.66-0.46-0.83z"></path>
<path fill="#1d1d1b" d="M13.62 44.45c0.060-0.22 2.25-1.71 2.59-1.5 0.179 0.093 0.299 0.277 0.299 0.49 0 0.112-0.033 0.216-0.091 0.303l0.001-0.002c-0.68 0.582-1.449 1.095-2.275 1.51l-0.065 0.030c-0.21 0-0.5-0.67-0.46-0.83z"></path>
<path fill="#1d1d1b" d="M51.22 42.66c-0.060-0.22-2.25-1.71-2.59-1.5-0.179 0.093-0.299 0.277-0.299 0.49 0 0.112 0.033 0.216 0.091 0.303l-0.001-0.002c0.68 0.582 1.449 1.095 2.275 1.51l0.065 0.030c0.24 0 0.5-0.67 0.46-0.83z"></path>
<path fill="#1d1d1b" d="M50.3 44.36c-0.060-0.21-2.25-1.7-2.58-1.5-0.182 0.092-0.304 0.278-0.304 0.492 0 0.115 0.035 0.222 0.096 0.31l-0.001-0.002c0.676 0.586 1.442 1.099 2.266 1.511l0.064 0.029c0.21 0 0.5-0.67 0.46-0.84z"></path>
<path fill="#1d1d1b" d="M39.72 44.45c-0.060-0.22-2.25-1.71-2.59-1.5-0.179 0.093-0.299 0.277-0.299 0.49 0 0.112 0.033 0.216 0.091 0.303l-0.001-0.002c0.68 0.582 1.449 1.095 2.275 1.51l0.065 0.030c0.21 0 0.5-0.67 0.46-0.83z"></path>
<path fill="#1d1d1b" d="M38.8 46.16c-0.060-0.22-2.25-1.71-2.58-1.5-0.184 0.086-0.309 0.269-0.309 0.482 0 0.116 0.037 0.223 0.1 0.31l-0.001-0.002c0.677 0.59 1.442 1.106 2.267 1.521l0.063 0.029c0.21 0 0.5-0.68 0.46-0.84z"></path>
<path fill="#1d1d1b" d="M23 46.41c0.33 0.33 1.37 1.87 1.62 1.75s0.71-0.34 0.55-0.5-1.55-2-1.8-1.84c-0.173 0.154-0.302 0.354-0.368 0.581l-0.002 0.009z"></path>
<path fill="#1d1d1b" d="M39.37 47.91c0.090-0.21 1.050-1.38 1.3-1.38s0.79 0.29 0.66 0.67c-0.364 0.535-0.837 0.97-1.389 1.279l-0.021 0.011c-0.17 0-0.55-0.58-0.55-0.58z"></path>
<path fill="#1d1d1b" d="M32 45.57c2-0.12 4 1.13 5.62 2.75s1 1.63 2.75 1.67 5.92-1.5 7.5 1.33 0.13 4.92-1.87 5.68-5 0-6.17-0.17c-0.58-0.16-1.245-0.252-1.932-0.252-0.066 0-0.132 0.001-0.198 0.003l0.010-0c-1.232 1.196-2.915 1.934-4.77 1.934-0.303 0-0.601-0.020-0.894-0.058l0.035 0.004c-2.132-0.063-4.056-0.907-5.505-2.255l0.005 0.005c-0.37-0.21-3.5 1.46-6.62 0.87s-4.13-2.91-3.75-5c0.596-2.143 2.53-3.69 4.825-3.69 0.37 0 0.731 0.040 1.078 0.116l-0.033-0.006c2.71 0.75 3.92 1.79 4.84 1.21s1.7-3.93 5.080-4.14z"></path>
<path fill="#e6e4da" d="M32.5 46.74c2.34 0 4.21 3.29 5.46 3.92s4.91-0.25 7 0.12c1.317 0.098 2.348 1.19 2.348 2.523 0 0.248-0.036 0.488-0.102 0.714l0.005-0.018c-0.21 1.41-1.21 2.53-3.63 2.45s-5-1.38-5.75-1.25-2.58 2.080-4.25 2.33c-0.246 0.028-0.531 0.044-0.82 0.044-1.416 0-2.741-0.388-3.875-1.064l0.035 0.019c-0.637-0.563-1.347-1.070-2.108-1.498l-0.062-0.032c-0.67-0.21-2.92 1.29-5.71 1s-3.71-2.090-3.37-3.75 1.87-3.090 3.58-2.63 4.71 2.13 5.87 1.5 2.59-4.38 5.38-4.38z"></path>
<path fill="#1f4863" d="M20.62 51.24c1.43-0.81 2.88 0.71 2.75 2.080-0.099 0.942-0.89 1.67-1.85 1.67-0.531 0-1.010-0.222-1.349-0.579l-0.001-0.001c-1.42-1.21-0.5-2.63 0.45-3.17z"></path>
<path fill="#1f4863" d="M43.12 51.7c1.43-0.81 2.88 0.71 2.75 2.080-0.104 0.938-0.892 1.661-1.849 1.661-0.532 0-1.011-0.223-1.35-0.58l-0.001-0.001c-1.42-1.2-0.5-2.62 0.45-3.16z"></path>
<path fill="#1f4863" d="M31.12 51.34c0.002-0.775 0.068-1.533 0.191-2.271l-0.011 0.081c0.11 0 2.37-0.22 2.48 0.11 0.056 0.49 0.088 1.057 0.088 1.632 0 0.172-0.003 0.343-0.008 0.513l0.001-0.025s1.79 0 1.82 0.14c0.053 0.417 0.083 0.9 0.083 1.39s-0.030 0.973-0.089 1.447l0.006-0.057c-0.19 0.070-1.68 0.29-1.68 0.29 0.026 0.231 0.040 0.499 0.040 0.77s-0.015 0.539-0.043 0.803l0.003-0.033c-0.451 0.077-0.97 0.121-1.5 0.121s-1.049-0.044-1.555-0.129l0.055 0.008c0-0.22-0.080-1.28-0.080-1.28s-1.5-0.18-1.5-0.37c0.044-1.19 0.151-2.311 0.32-3.412l-0.020 0.162c0.010-0.040 1.4 0.11 1.4 0.11z"></path>
</svg>
