<!-- Generated by IcoMoon.io -->
<svg version="1.1" xmlns="http://www.w3.org/2000/svg" width="64" height="64" viewBox="0 0 64 64">
<path fill="#1d1d1b" d="M24.19 4.27c0.279-0.099 0.6-0.157 0.935-0.157 0.81 0 1.542 0.336 2.064 0.876l0.001 0.001c0.4 0.31 0.43 0.62 0.84 0.5s2.060-2.31 3.75-2.16 3.22 2.85 3.66 2.91 2.94-1.78 4.44-1.91 3.060 0 3.37 1.78-0.12 2.5 0.91 3 5-1.34 6.53 0.6-0.19 4.59 0.19 5 4.59 0.34 5.37 1.59 0.090 2.56-0.25 3.7-0.91 1.91-0.19 2.47 1.91 0.5 2.53 0.72 1.94 0.47 2 2.9-2.34 2.6-2.15 3.75 2.81 2.16 3.31 3.55c0.129 0.313 0.204 0.676 0.204 1.057 0 1.158-0.693 2.153-1.686 2.596l-0.018 0.007c-1.56 0.88-2.34 0.88-2.34 1.41-0.039 0.437-0.062 0.945-0.062 1.459 0 1.039 0.092 2.057 0.267 3.046l-0.015-0.105c0.4 1.69 0.34 2.22-0.16 3.13s-1.59 0.65-2.31 0.59-1.6-0.28-1.88 0.16 0.85 3.22 0.35 4.19c-0.402 0.794-1.213 1.329-2.148 1.329-0.171 0-0.337-0.018-0.498-0.052l0.016 0.003c-1.19-0.19-1.59-0.66-2.12-0.44s-0.44 2.72-1.54 3.91c-0.549 0.78-1.446 1.283-2.46 1.283-0.234 0-0.461-0.027-0.68-0.077l0.020 0.004c-1.38-0.15-2-1.28-2.72-1.060s-0.94 3-2.5 3.56c-0.455 0.179-0.982 0.283-1.533 0.283-0.782 0-1.516-0.209-2.147-0.574l0.021 0.011c-0.93-0.43-0.84-1.090-1.78-0.78s-1.9 1.91-3.56 2.25c-0.246 0.083-0.529 0.131-0.824 0.131-0.896 0-1.689-0.443-2.171-1.122l-0.006-0.008c-0.47-0.58-0.28-1.47-1.22-1.58s-2.060 1.84-3.41 1.94c-0.028 0.001-0.061 0.001-0.093 0.001-1.468 0-2.757-0.768-3.487-1.924l-0.010-0.017c-0.91-1.31-0.22-2.75-1.25-3.060s-3 1.21-4.53 0c-0.871-0.547-1.441-1.502-1.441-2.591 0-0.024 0-0.048 0.001-0.073l-0 0.004c0-0.53-0.19-1.25-1-1.25s-3.060 0.41-3.87-0.47c-0.463-0.525-0.746-1.22-0.746-1.98 0-0.548 0.147-1.062 0.404-1.504l-0.008 0.014c0.69-1.12 1.57-1.72 1.1-2.31s-3.1-1.66-3.6-3.56 1.13-3.28 1.32-4.13 0.59-1.75-0.13-2-2.47-1.19-2.75-2-0.41-1.79 0.59-2.090 3.44-1.44 3.13-2.16-2-2.12-2.34-3.12-0.25-3.16 0.81-3.66 3.22-0.16 3.37-0.72-1.47-2.44-1.5-3.47 0.72-2.75 1.75-3 3.13 0.6 3.75 0.060-0.4-3.43 0.57-4.060c0.485-0.253 1.058-0.402 1.667-0.402 0.48 0 0.938 0.092 1.358 0.26l-0.025-0.009c0.5 0.25 1 0.87 1.34 0.46s-0.63-3 0.44-3.9 3.18 0.75 4 0.31 1.060-2.73 2.78-3.32z"></path>
<path fill="#fab900" d="M24.66 5.74c0.65-0.070 1.5 1.84 2.93 1.78 1.091-0.161 2.029-0.716 2.684-1.513l0.006-0.007c0.5-0.41 1.47-1.070 1.69-1s1.62 2.87 3 3.28 2.34-1.16 3.41-1.69 1.75-1.12 2.47-0.65 0.060 3.56 1.81 4.56 4.72-0.66 6.12 0-0.34 4.59 0.35 5.37 4.72 0.28 5.37 1.47-1.5 3.31-1.22 4.91 1.5 1.72 2.85 2.31 2.090 0.22 2.15 1.41-2.93 3-2.18 4.87 3.25 2.16 3.15 3.56-3.25 2.12-3.59 3.43 0.87 6.81 0.22 7.13-2.94-0.19-3.82 0.59 0 4-0.62 4.53-2.69-0.44-4 0.56-1 4.35-1.94 4.47-2.69-1.78-4.66-0.87-1.65 3.12-2.78 3.31-2.060-1.62-4.28-1.16-2.78 2.47-4.060 2.32-1.63-2.66-3-2.78-3.72 2.37-5.060 1.84-0.28-3.47-2.25-4.38-4.1 0.25-5 0.070-0.38-2.6-0.88-3c-0.728-0.727-1.73-1.18-2.838-1.19h-0.002c-1.6 0-2.5-0.12-2.13-1s2.35-2.78 1.6-3.59-4.16-2.68-4-4.13 1.9-3.44 1.47-4.84c-0.284-0.991-0.939-1.796-1.801-2.27l-0.019-0.010c-0.53-0.32-1.68-1-1.060-1.41s3.78-1.91 3.63-3.020-2.070-2.26-2.38-3.48-0.28-2.13 0.28-2.31 3.66-0.35 4-1.44-1.43-3-1.53-3.84 0.19-1.54 1-1.44 3.35 0.75 4.070-0.78 0.15-3.38 0.59-3.41 1.72 1.13 3.25 0.53 1.22-2.44 1.28-2.78-0.25-1.22 0.44-1.25 3.31 1.2 4.12-0.16 0.59-2.84 1.16-2.9z"></path>
<path fill="#1d1d1b" d="M30.41 15.83c4.11-0.62 7.87 0.16 12 5s4.18 6.13 4.060 10.88-2.13 9.59-4.56 11.75-8.78 4.31-14 2.31-8.72-5.13-10.63-10.16 0.19-11.060 2-14.090 5.72-4.88 11.13-5.69z"></path>
<path fill="#ffe19b" d="M30.81 17.39c0.281-0.023 0.609-0.036 0.939-0.036 4.078 0 7.687 2.013 9.886 5.099l0.025 0.037c2.78 4 3.62 5.34 3 10.12s-1.75 7.16-4.38 9.39c-2.149 1.678-4.889 2.691-7.866 2.691-1.399 0-2.745-0.224-4.005-0.637l0.091 0.026c-4.16-1.5-7.47-4-9-8.56s-0.090-9.59 1.22-12.28 5.5-5.31 10.090-5.85z"></path>
<path fill="#1d1d1b" d="M25.34 22.24c0.34 0 1 0.94 0.66 1.25s-2.12 0.87-3.12 2.62-0.63 4.13-0.82 4.41-1.15 0.47-1.34 0.22c-0.089-0.502-0.14-1.080-0.14-1.669 0-1.265 0.235-2.475 0.663-3.589l-0.023 0.068c0.831-1.634 2.303-2.841 4.076-3.3l0.044-0.010z"></path>
<path fill="#1d1d1b" d="M21.34 12c0.26-0.17 2.72 3.5 2.54 3.72s0 0.62-0.44 0.28-2.88-3.25-2.78-3.5 0.59-0.42 0.68-0.5z"></path>
<path fill="#1d1d1b" d="M25.59 10.33c0-0.14 0.41-0.34 0.63-0.19 0.658 0.99 1.22 2.128 1.63 3.337l0.030 0.104c-0.13 0.22-0.32 0.38-0.47 0.28s-1.82-3.47-1.82-3.53z"></path>
<path fill="#1d1d1b" d="M30.47 8.52c0.11-0.26 1-0.13 1.090 0.060 0.062 0.674 0.097 1.458 0.097 2.25s-0.035 1.576-0.105 2.35l0.007-0.1c-0.18 0.1-0.31 0.19-0.46 0-0.31-1.326-0.535-2.888-0.627-4.485l-0.003-0.075z"></path>
<path fill="#1d1d1b" d="M38.41 9.050c0.15-0.1 0.47-0.22 0.4 0.16-0.481 2.143-1.007 3.929-1.633 5.668l0.103-0.328c-0.19 0-0.72 0-0.72-0.22 0.632-2.165 1.261-3.918 1.979-5.625l-0.129 0.345z"></path>
<path fill="#1d1d1b" d="M42.34 16.77c0.993-1.284 2.115-2.396 3.366-3.348l0.044-0.032c0.22 0.1 0.47 0.22 0.34 0.32s-2.9 3.84-3.090 3.78c-0.274-0.186-0.496-0.427-0.655-0.71l-0.005-0.010z"></path>
<path fill="#1d1d1b" d="M46.34 21.64c1.122-0.884 2.381-1.721 3.705-2.456l0.145-0.074c0.22 0.1 0.34 0.35 0.22 0.44s-3.6 2.88-3.75 2.81-0.32-0.72-0.32-0.72z"></path>
<path fill="#1d1d1b" d="M48.94 26.93c0.21-0.32 3.22 0 3.37 0.15s0.22 0.38 0.070 0.44-2.88 0.66-3.22 0.37c-0.181-0.148-0.295-0.371-0.295-0.621 0-0.123 0.028-0.24 0.078-0.344l-0.002 0.005z"></path>
<path fill="#1d1d1b" d="M49 32.74c0.27-0.27 5 1.25 4.87 1.5s0.25 0.56-0.18 0.56c-1.91-0.329-3.534-0.718-5.118-1.198l0.298 0.078c-0.024-0.093-0.038-0.199-0.038-0.309 0-0.232 0.062-0.45 0.171-0.637l-0.003 0.006z"></path>
<path fill="#1d1d1b" d="M48.72 37.14c0.1-0.070 4.090 1.19 4 1.54s0 0.37-0.16 0.4c-1.599-0.255-3.019-0.631-4.379-1.131l0.159 0.051c0.057-0.33 0.191-0.621 0.383-0.864l-0.003 0.004z"></path>
<path fill="#1d1d1b" d="M45.69 42.43c1.211 0.874 2.26 1.862 3.167 2.971l0.023 0.029c-0.13 0.22 0.060 0.18-0.13 0.22-1.334-0.788-2.49-1.648-3.546-2.614l0.016 0.014c0.030-0.16 0.44-0.53 0.47-0.62z"></path>
<path fill="#1d1d1b" d="M42.56 45.64c0.19 0.070 2.75 3.25 2.63 3.5s-0.31 0.44-0.5 0.38c-0.987-1.026-1.874-2.162-2.639-3.383l-0.051-0.087c0.16-0.16 0.47-0.44 0.56-0.41z"></path>
<path fill="#1d1d1b" d="M37.88 48.080c0.855 1.214 1.574 2.611 2.085 4.103l0.035 0.117c-0.16 0.16-0.59 0.34-0.69 0.28-0.723-1.192-1.465-2.616-2.12-4.088l-0.1-0.252c0.233-0.093 0.504-0.151 0.786-0.16l0.004-0z"></path>
<path fill="#1d1d1b" d="M32.88 49.36c0.11-0.11 0.78-0.060 0.78 0.070s-0.66 5.34-0.66 5.34-0.44 0-0.47-0.13 0.22-5.15 0.35-5.28z"></path>
<path fill="#1d1d1b" d="M28.5 48.86c0.090-0.13 0.59-0.18 0.59 0.070-0.219 1.44-0.533 2.714-0.948 3.942l0.047-0.162c-0.19 0.090-0.44 0.28-0.47 0.12s0.72-3.83 0.78-3.97z"></path>
<path fill="#1d1d1b" d="M23 47.46c0.14-0.13 0.75 0.15 0.72 0.4-0.407 1.291-0.885 2.4-1.459 3.449l0.049-0.099c-0.18 0-0.59-0.070-0.59-0.16 0.349-1.379 0.787-2.573 1.331-3.708l-0.051 0.118z"></path>
<path fill="#1d1d1b" d="M18.66 44.27c0.041-0.049 0.102-0.080 0.17-0.080 0.122 0 0.22 0.099 0.22 0.22 0 0.053-0.019 0.102-0.050 0.14l0-0c-0.937 1.494-1.833 2.76-2.791 3.974l0.071-0.094c-0.12 0-0.69-0.13-0.62-0.29s2.78-3.68 3-3.87z"></path>
<path fill="#1d1d1b" d="M14.94 40.77c0.15 0 0.4 0.37 0.37 0.56-0.871 0.76-1.857 1.426-2.919 1.963l-0.081 0.037c-0.18-0.060-0.65-0.43-0.5-0.53s2.78-1.94 3.13-2.030z"></path>
<path fill="#1d1d1b" d="M9.94 36.8c1.187-0.242 2.583-0.41 4.007-0.468l0.053-0.002c0.13 0.16 0.34 0.53 0.090 0.66-1.078 0.321-2.428 0.624-3.806 0.844l-0.194 0.026c-0.18-0.060-0.15-1.060-0.15-1.060z"></path>
<path fill="#1d1d1b" d="M9.59 30.64c0.535-0.053 1.156-0.082 1.785-0.082s1.25 0.030 1.863 0.089l-0.078-0.006c0.12 0.19 0.25 0.38 0.090 0.47-1.094 0.14-2.359 0.22-3.643 0.22-0.038 0-0.075-0-0.113-0h0.006c-0.090-0.060-0.090-0.62 0.090-0.69z"></path>
<path fill="#1d1d1b" d="M10.53 24.43c0.13-0.090 4.31 1.34 4.25 1.65s0 0.35-0.19 0.38-4.12-1.16-4.34-1.25 0.030-0.63 0.28-0.78z"></path>
<path fill="#1d1d1b" d="M13.31 20.27c0.19 0 3.28 1.47 3.22 1.72s0 0.5-0.28 0.37-3.25-1.31-3.37-1.47 0.21-0.62 0.43-0.62z"></path>
<path fill="#1d1d1b" d="M17.44 14.86c0.22 0.15 3 2.75 2.81 2.88s-0.56 0.34-0.69 0.25-2.78-2.47-2.62-2.69 0.4-0.5 0.5-0.44z"></path>
</svg>
