<!-- Generated by IcoMoon.io -->
<svg version="1.1" xmlns="http://www.w3.org/2000/svg" width="64" height="64" viewBox="0 0 64 64">
<path fill="#1d1d1b" d="M55.64 22.81c-0.21-1-3.73-11.58-4.41-13.52s-2.57-1.9-3.92-1.56c-2.717 0.804-5.064 1.786-7.276 2.987l0.196-0.097c-1.34 0.9-0.63 3.52-0.63 3.52-0.896 0.505-1.966 1.009-3.074 1.44l-0.176 0.060c-2.48 1-21.71 9.050-21.94 9.17s-0.12 1.54-0.12 1.63-0.33 0.060-0.4 0-0.68-1.92-0.68-1.92c0.383-0.121 0.714-0.27 1.023-0.452l-0.023 0.012c-0.307-1.387-0.744-2.609-1.313-3.755l0.043 0.095c-1.827 0.611-3.361 1.264-4.832 2.020l0.192-0.090c0.304 1.139 0.752 2.138 1.335 3.042l-0.025-0.042c0.17 0.090 1.27-0.39 1.27-0.39s0.71 1.87 0.77 2c-0.469 0.132-0.878 0.302-1.259 0.515l0.029-0.015c0.151 1.244 0.414 2.37 0.785 3.447l-0.035-0.117c0.13 0.25 4-0.6 4-0.6s0.23 0.39 0.34 0.56 0.25 0.15 0.62 0.23 9.19-1.11 9.19-1.11c0.175 0.313 0.353 0.581 0.551 0.834l-0.011-0.014c0.29 0.35 0.75 1 0.75 1l-7.22 17.31c-0.435 0.030-0.828 0.191-1.144 0.443l0.004-0.003c-0.241 0.157-0.398 0.426-0.398 0.731 0 0.466 0.366 0.846 0.826 0.869l0.002 0c0.9 0.080 2.15 0.27 2.48-0.56s-0.58-1.4-0.58-1.4 3.79-9.12 3.85-9.25 4 1.88 4 1.88l0.28 11.91c-0.249 0.068-0.465 0.154-0.669 0.259l0.019-0.009c-0.396 0.228-0.659 0.649-0.659 1.131 0 0.401 0.181 0.759 0.466 0.998l0.002 0.002c0.88 0.7 2.65 0.75 2.94-0.52 0.025-0.105 0.039-0.226 0.039-0.349 0-0.642-0.381-1.196-0.929-1.447l-0.010-0.004s-0.25-11.58-0.2-11.68 4-2.38 4.1-2.38 4.75 9.23 4.75 9.23c-0.319 0.214-0.574 0.501-0.744 0.837l-0.006 0.013c-0.27 0.57-0.23 1.86 0.6 2.19s3 0.25 3-1.39c-0.001-0.946-0.7-1.728-1.61-1.859l-0.010-0.001-9.15-17.31s0.38-0.080 0.71-1.1c0.071-0.288 0.111-0.618 0.111-0.958 0-0.469-0.077-0.92-0.22-1.341l0.009 0.029c0.658-0.133 1.437-0.229 2.232-0.268l0.038-0.002c1.89-0.17 10.54-0.75 10.54-0.75s0.83 0.85 1 1c0.362 0.175 0.786 0.277 1.235 0.277 0.139 0 0.276-0.010 0.41-0.029l-0.015 0.002c0.85-0.070 7.7-2 8.37-2.65 0.436-0.507 0.701-1.172 0.701-1.898 0-0.297-0.044-0.583-0.126-0.853l0.005 0.021zM28.35 40.37c-0.612-0.259-1.138-0.557-1.625-0.907l0.025 0.017c0.1-0.070 1.16-0.42 1.14-0.48s-0.14-1-0.25-1-2.43 0.5-2.52 0.46 2.29-6.38 2.4-6.44 0.54 0.21 0.54 0.21 0.35 8.14 0.29 8.14zM33.14 38.21c-0.883-0.131-1.946-0.227-3.024-0.268l-0.056-0.002c-0.1 0.14-0.25 0.66-0.15 0.72s2.65 0.4 2.52 0.5c-0.823 0.471-1.795 0.928-2.804 1.311l-0.146 0.049c-0.070-0.11-0.27-8.11-0.21-8.21 0.179-0.149 0.394-0.262 0.628-0.327l0.012-0.003c0.090 0.020 3.4 6.18 3.23 6.23z"></path>
<path fill="#85bfe9" d="M9.5 22.79c0.79-0.366 1.762-0.733 2.762-1.036l0.168-0.044c0.291 0.529 0.494 1.149 0.568 1.807l0.002 0.023c-0.845 0.384-1.846 0.727-2.883 0.976l-0.117 0.024c0-0.040-0.71-1.63-0.5-1.75z"></path>
<path fill="#696a9b" d="M11.52 27.73c0.829-0.176 1.801-0.298 2.794-0.339l0.036-0.001c0.182 0.625 0.301 1.347 0.329 2.093l0.001 0.017c-0.87 0.231-1.875 0.378-2.91 0.41l-0.020 0c-0.133-0.649-0.217-1.401-0.23-2.169l-0-0.011z"></path>
<path fill="#92a0d1" d="M16.1 25.71c0.2-0.26 24-10 24.13-9.82s3.52 9.25 3.37 9.4-1 0.12-1 0.12c-0.467-1.294-0.959-2.38-1.524-3.419l0.064 0.129c-0.21 0-0.6 0.13-0.6 0.25s1.27 3.17 1.12 3.17-0.7 0.080-0.7 0.080c-0.471-1.196-0.941-2.184-1.469-3.135l0.069 0.135c-0.15 0-0.73 0.19-0.73 0.32s1.17 2.66 1.080 2.66l-0.85 0.070c-0.504-0.979-0.995-1.797-1.532-2.581l0.052 0.081c-0.15 0-0.81 0.2-0.77 0.37 0.35 0.611 0.706 1.344 1.014 2.102l0.046 0.128c-0.392 0.062-0.864 0.108-1.343 0.129l-0.027 0.001c-0.313-0.702-0.647-1.299-1.027-1.863l0.027 0.043c-0.17 0-0.73 0-0.73 0.21s0.71 1.69 0.64 1.73-4.43 0.67-4.43 0.67-0.75-1.52-3.25-0.9c-1.249 0.194-2.194 1.262-2.194 2.551 0 0.049 0.001 0.098 0.004 0.146l-0-0.007c-0.11 0.060-7.19 0.94-7.67 1s-0.71 0.14-0.77 0c-0.384-1.047-0.73-2.313-0.976-3.614l-0.024-0.156z"></path>
<path fill="#85bfe9" d="M28.35 26.73c1.070-0.24 2.33 0.91 1.94 2.89s-2.69 1.67-3.44 0.42c-0.255-0.341-0.408-0.771-0.408-1.237 0-1.088 0.836-1.981 1.9-2.072l0.008-0.001z"></path>
<path fill="#1d1d1b" d="M35 19.23c1.219-0.605 2.652-1.148 4.142-1.551l0.168-0.039c0.248 0.268 0.401 0.629 0.401 1.024 0 0.016-0 0.032-0.001 0.048l0-0.002c-1.252 0.561-2.745 1.075-4.289 1.46l-0.191 0.040c-0.157-0.206-0.252-0.466-0.252-0.749 0-0.082 0.008-0.162 0.023-0.239l-0.001 0.008z"></path>
<path fill="#696a9b" d="M41.58 11.77c1.701-0.809 3.797-1.63 5.954-2.317l0.376-0.103c0.38-0.060 1.17-0.23 1.46 0.61s4.81 13.93 4.69 14.18-0.75 0.4-0.75 0.4c-0.269-1.48-0.615-2.766-1.055-4.009l0.055 0.179c-0.23-0.090-0.77 0.12-0.71 0.27 0.346 1.020 0.672 2.28 0.912 3.571l0.028 0.179c-0.1 0.16-0.9 0.52-0.92 0.41s-0.91-4.25-1.2-4.39-0.8 0.21-0.84 0.44 1.29 4 1.15 4.12c-0.226 0.12-0.494 0.19-0.779 0.19-0.004 0-0.008 0-0.012-0h0.001c0-0.060-1.13-4.19-1.3-4.27s-0.93 0.14-0.93 0.27 1.48 4.080 1.39 4.19c-0.257 0.145-0.561 0.236-0.886 0.25l-0.004 0c0-0.070-1.42-4.42-1.57-4.46s-0.87 0.080-0.85 0.29 1.5 4.25 1.35 4.29-0.77 0.33-0.89 0.21-4.54-11.52-4.75-12.33c-0.094-0.291-0.148-0.625-0.148-0.972 0-0.431 0.084-0.843 0.236-1.22l-0.008 0.022z"></path>
<path fill="#1d1d1b" d="M43.58 12.77c0.939-0.406 2.145-0.838 3.378-1.206l0.252-0.064c0.16 0 0.35 0.81 0.29 0.94-0.941 0.37-2.158 0.76-3.402 1.085l-0.248 0.055c-0.080-0.020-0.44-0.71-0.27-0.81z"></path>
<path fill="#85bfe9" d="M39.58 49.58c0.41 0.050 0.92 0.75 0.73 1.17s-1.21 0.62-1.52 0.16c-0.095-0.135-0.152-0.303-0.152-0.485 0-0.469 0.381-0.85 0.85-0.85 0.032 0 0.064 0.002 0.096 0.005l-0.004-0z"></path>
</svg>
