<!-- Generated by IcoMoon.io -->
<svg version="1.1" xmlns="http://www.w3.org/2000/svg" width="64" height="64" viewBox="0 0 64 64">
<path fill="#1d1d1b" d="M56.62 28.46c-1.399-1.147-2.997-2.132-4.718-2.888l-0.132-0.052s-1.18-3.35-2.4-5.85c-2.396-3.891-6.314-6.647-10.904-7.446l-0.096-0.014c-5.31-0.69-9.75-0.94-16.13 2.15-3.988 2.087-7.181 5.223-9.282 9.045l-0.058 0.115c-2.363 0.749-4.418 1.811-6.248 3.161l0.058-0.041c-1.343 1.049-2.199 2.669-2.199 4.489 0 2.058 1.095 3.861 2.734 4.857l0.025 0.014c1.605 0.99 3.488 1.965 5.444 2.801l0.287 0.109c1.102 2.851 2.624 5.302 4.519 7.412l-0.019-0.022c2.94 2.94 5.28 5.25 11.63 5.75s8 0 11.31-1.81c2.737-1.577 5.098-3.39 7.192-5.472l-0.002 0.002c1.12-0.984 2.137-2.017 3.075-3.118l0.035-0.042c4.31-1.2 6.93-2.83 8.11-5.53 1.27-2.94 0.71-5.37-2.23-7.62zM12.62 36.46c-0.1 0-4.94-2-5.75-4.75s3.37-5.53 5.4-6.41c-0.372 1.225-0.586 2.633-0.586 4.092 0 0.751 0.057 1.489 0.166 2.209l-0.010-0.081c0.5 3.31 0.84 5 0.75 4.97zM54.9 37.58c-1.91 1.66-3.47 2.060-3.41 1.91 0.772-1.782 1.278-3.85 1.408-6.019l0.002-0.051c-0.021-1.923-0.18-3.792-0.468-5.617l0.028 0.217s3.44 1.22 4.47 3.84-0.12 4.060-2.030 5.72z"></path>
<path fill="#85bfe9" d="M16.84 22.46c-0.37-0.090-0.85-0.32-0.38-0.85 2.197-3.107 5.277-5.461 8.873-6.712l0.127-0.038c2.246-0.84 4.842-1.327 7.551-1.327 2.404 0 4.718 0.383 6.886 1.091l-0.157-0.044c2.28 0.69 5.41 2.34 5.25 2.59-0.233 0.343-0.62 0.566-1.059 0.57h-0.001c-0.63 0.060-2.84-0.38-4.78 0.43s-2.5 1.47-3.88 1.5c-0.387-0.023-0.84-0.036-1.296-0.036-1.834 0-3.619 0.21-5.333 0.607l0.159-0.031c-2.9 0.75-3.46 1.65-5.68 1.93-1.629 0.209-3.513 0.328-5.424 0.328-0.301 0-0.601-0.003-0.9-0.009l0.045 0.001z"></path>
<path fill="#1d1d1b" d="M19.52 20.61c0.526-0.855 1.221-1.556 2.044-2.075l0.026-0.015c0.69-0.569 1.487-1.044 2.35-1.389l0.060-0.021c0.16 0 0.38 0.38 0.22 0.47-0.92 0.458-1.704 1.044-2.366 1.746l-0.004 0.004c-1 1.090-0.78 1.56-1.22 1.63s-1.26-0.19-1.11-0.35z"></path>
<path fill="#cbe7f5" d="M15 24.33c0.735-0.267 1.584-0.421 2.468-0.421 0.145 0 0.289 0.004 0.431 0.012l-0.020-0.001c1.75 0 2.9 0.66 6.22-0.37s4.060-1.81 5.75-1.84 3.34 0.5 5.9-0.25 3.69-1.57 5.070-1.85 3.84-0.22 4.34-0.31 1.69-0.41 1.87-0.22c0.995 1.586 1.873 3.413 2.542 5.339l0.058 0.191c0.94 2.75 1.060 3.66 0.87 4-1.567 0.961-3.464 1.53-5.494 1.53-0.002 0-0.004 0-0.006 0h0c-2.78 0.1-4.46-1.75-9-1.59s-8.93 0.91-11.060 0.66-3.5-1.35-6.060-1.22c-0.143-0.005-0.312-0.009-0.481-0.009-1.219 0-2.4 0.16-3.525 0.46l0.095-0.022c-0.87 0.29-1 0.72-1.12 0.22s0.33-3.53 1.15-4.31z"></path>
<path fill="#1d1d1b" d="M44.77 20.71c1.046 0.291 1.956 0.773 2.733 1.41l-0.013-0.010c-0.090 0.19 0.070 0.44-0.34 0.44-1.033-0.279-1.937-0.676-2.765-1.186l0.045 0.026c0.033-0.269 0.157-0.505 0.34-0.68l0-0z"></path>
<path fill="#1d1d1b" d="M43.81 22.64s4.25 1.94 4.25 2.22 0.18 0.47-0.16 0.44c-1.746-0.583-3.233-1.239-4.646-2.013l0.146 0.073c-0.060-0.22 0.41-0.72 0.41-0.72z"></path>
<path fill="#1d1d1b" d="M41.77 24.080c0.16 0 5.54 2.63 5.5 2.88s0.13 0.5-0.18 0.46c-2.276-0.793-4.164-1.61-5.984-2.543l0.264 0.123c0.030-0.23 0.28-0.92 0.4-0.92z"></path>
<path fill="#1d1d1b" d="M40.24 25.92c0.1 0 4.32 1.94 4.22 2.13s-0.060 0.34-0.28 0.34c-1.726-0.529-3.164-1.090-4.552-1.739l0.212 0.089c0.081-0.314 0.219-0.589 0.404-0.825l-0.004 0.005z"></path>
<path fill="#cbe7f5" d="M14.21 30.33c0.14-0.14 0.94-1.16 3.69-0.72s4.25 1.78 7.31 1.22 9.63-0.91 12.35-0.34 2.060 1.56 6.53 1.37 6.5-1.5 6.72-1.19c0.142 0.713 0.223 1.533 0.223 2.371 0 1.101-0.14 2.169-0.402 3.187l0.019-0.088c-0.56 2.88-0.91 3.78-1.060 3.94-1.71 0.47-3.708 0.804-5.761 0.935l-0.089 0.005c-0.4-0.19-4.25-3.13-4.47-3.13s-0.71 0.22-0.59 0.44 4.32 2.67 4.060 2.84c-1.98 0.37-4.259 0.582-6.587 0.582-1.91 0-3.787-0.143-5.62-0.418l0.206 0.026c-5.186-0.727-9.797-1.796-14.246-3.225l0.596 0.165c-0.793-0.124-1.5-0.42-2.105-0.85l0.015 0.010c-0.575-1.39-1.014-3.006-1.239-4.689l-0.011-0.101c-0.23-1.75 0.25-2.090 0.46-2.34z"></path>
<path fill="#1d1d1b" d="M41.65 36.46c1.617 0.91 3.013 1.955 4.256 3.156l-0.006-0.006c0 0.25 0 0.44-0.22 0.41s-4.68-2.75-4.62-3.020 0.46-0.48 0.59-0.54z"></path>
<path fill="#1d1d1b" d="M43.060 35.49c0-0.090 0.46-0.44 0.75-0.38 1.418 0.844 2.646 1.773 3.761 2.821l-0.011-0.011c0 0.29 0.060 0.57-0.25 0.5-1.612-0.915-3.002-1.884-4.294-2.966l0.044 0.036z"></path>
<path fill="#1d1d1b" d="M45.24 33.89c-0.14-0.1 0.16-0.5 0.53-0.43s2.57 1.28 2.5 1.56-0.15 0.62-0.34 0.62c-1.055-0.614-1.933-1.193-2.779-1.812l0.089 0.062z"></path>
<path fill="#85bfe9" d="M15.93 40.080c0-0.28 7.59 2.56 12.59 2.94 2.422 0.253 5.232 0.398 8.076 0.398 1.901 0 3.788-0.065 5.657-0.192l-0.253 0.014c4.66-0.38 5.88-0.66 5.88-0.53-2.062 2.791-4.799 4.972-7.974 6.323l-0.126 0.047c-2.389 0.762-5.136 1.201-7.987 1.201-2.574 0-5.065-0.358-7.425-1.028l0.191 0.046c-3.75-1.25-6.62-5.56-7-6.13-0.583-0.883-1.128-1.899-1.582-2.963l-0.048-0.127z"></path>
<path fill="#1d1d1b" d="M20.71 43.49c0.29-0.29 1.060 0.65 1.75 0.59s1.66-0.25 2 0.060 0.66 0.66 1.25 0.6 2.22-0.72 2.5-0.57 0.5 0.13 0.32 0.32c-0.751 0.588-1.681 0.981-2.697 1.088l-0.023 0.002c-1.1 0-1.94-0.87-2.38-0.81-0.372 0.097-0.799 0.152-1.238 0.152-0.201 0-0.4-0.012-0.595-0.034l0.024 0.002c-0.75-0.12-1.16-1.15-0.91-1.4z"></path>
<path fill="#1d1d1b" d="M28.52 47.33c1.045 0.361 2.282 0.655 3.556 0.828l0.104 0.012c0.157 0.021 0.339 0.032 0.524 0.032 0.463 0 0.909-0.074 1.326-0.211l-0.030 0.009c0.25-0.1 1.070-0.32 1.19-0.16s0.28 0.22 0.13 0.41c-0.412 0.322-0.929 0.528-1.493 0.56l-0.007 0c-0.72 0.060-2.75 0-3.63 0s-1 0.12-1.47-0.16-0.6-1.23-0.2-1.32z"></path>
<path fill="#1d1d1b" d="M37.27 45.92c0.2-0.11 1.32-0.53 1.54-0.34s0.59 0.31 0.21 0.53c-0.42 0.254-0.911 0.44-1.436 0.527l-0.024 0.003c-0.25-0.030-0.5-0.59-0.29-0.72z"></path>
</svg>
