<!-- Generated by IcoMoon.io -->
<svg version="1.1" xmlns="http://www.w3.org/2000/svg" width="64" height="64" viewBox="0 0 64 64">
<path fill="#1d1d1b" d="M31.23 5.25c0.531-0.032 1.153-0.051 1.778-0.051 5.655 0 10.959 1.503 15.534 4.131l-0.152-0.080c7.84 4.19 10.37 10.72 11.81 14.16s0.38 14.75-4.31 20.9-5.69 10.040-14.19 12.79-18.090 2.090-23.31-1.1-8.78-6.56-12.6-13.5-2.62-13.25-1.31-19 7.88-11.4 11.060-13.25c4.531-2.558 9.842-4.331 15.496-4.982l0.194-0.018z"></path>
<path fill="#e7413e" d="M31.73 7.22c6.14-0.37 10.060 0.94 14.35 2.63s6.56 4.81 8.68 7.25 2.16 3.62 2.16 3.62-2.060-0.78-3.19 0.13-2.22 2-2.22 1.87c-0.236-1.039-0.418-2.277-0.506-3.541l-0.004-0.079c0.001-0.049 0.002-0.108 0.002-0.166 0-1.051-0.18-2.059-0.511-2.997l0.019 0.063c-0.284-0.563-0.583-1.045-0.919-1.497l0.019 0.027c-0.35-0.53-0.35-0.84-0.75-1s-1.13 0.16-1 0.44 1.19 1.88 1.060 2.41-1.37 1.9-1.47 2.43c-0.059 0.182-0.092 0.392-0.092 0.61s0.034 0.428 0.096 0.625l-0.004-0.015c0.357 0.909 0.575 1.96 0.6 3.060l0 0.010c-0.1 0.93 0.12 1-0.13 1s-0.56 0.22-0.78 0-0.31-2.41-1.12-3.53-3.32-2.1-4-2.22c-0.141-0.047-0.302-0.075-0.471-0.075-0.338 0-0.651 0.111-0.904 0.298l0.004-0.003c-0.152 0.22-0.253 0.486-0.279 0.774l-0.001 0.006s0.56 0.59 0.9 0.4c0.185-0.14 0.418-0.223 0.671-0.223 0.143 0 0.28 0.027 0.406 0.076l-0.008-0.003c0.56 0.15 1.65 0.69 1.59 1s-0.060 0.44-0.22 0.44-1.94-0.69-2.25-0.5-0.53 1.15-0.090 1.25 3.44 0.71 3.62 1.21c0.099 0.22 0.157 0.477 0.157 0.747 0 0.581-0.266 1.099-0.683 1.441l-0.003 0.003c-0.84 0.53-1 0.91-3.56-0.4s-2.9-1.66-4.61-1.6c-0.535 0.067-1.154 0.105-1.782 0.105-0.238 0-0.475-0.006-0.711-0.016l0.033 0.001c-0.47-0.090-3.35-3-3.75-2.78s-0.79 0.66-0.63 0.91 2.55 2.5 2.55 2.84-0.84 3.16 0.19 3.85 3.4 1.4 3.65 2.15c0.057 0.137 0.091 0.296 0.091 0.462 0 0.274-0.090 0.527-0.243 0.731l0.002-0.003c-1.060 0.398-2.297 0.704-3.58 0.862l-0.080 0.008c-0.9-0.060-2.94-1.43-5.81-0.53-2.187 0.834-4.717 1.373-7.354 1.498l-0.055 0.002c-2.28 0-4.62-1.22-6.84-1.22-0.183-0.013-0.397-0.020-0.613-0.020-1.28 0-2.499 0.261-3.607 0.733l0.060-0.023c-0.84 0.41-2.18 1.6-2.47 1.35s-0.71-5.66 1.1-10.32 6.9-10.34 10.47-12.34c4.269-2.445 9.341-3.98 14.75-4.218l0.070-0.002z"></path>
<path fill="#1d1d1b" d="M38.51 9.91c0.182-0.012 0.395-0.019 0.61-0.019 1.114 0 2.183 0.19 3.177 0.54l-0.067-0.021c0.19 0.22 0.66 0.47 0.19 0.56-0.361 0.020-0.784 0.032-1.21 0.032-0.927 0-1.841-0.055-2.738-0.163l0.108 0.011c-0.29-0.13-0.38-0.79-0.070-0.94z"></path>
<path fill="#1d1d1b" d="M38.61 15.22c0.11 0 1.5-0.37 2.34-0.56s1.44-0.1 1.47 0.090 0.37 0.35-0.25 0.53c-0.954 0.336-2.102 0.632-3.282 0.832l-0.128 0.018c-0.15-0.13-0.28-0.88-0.15-0.91z"></path>
<path fill="#1d1d1b" d="M32.17 11.85c1-0.1 3.66 1.28 3.47 2.43-0.666 1.662-2.171 2.857-3.977 3.068l-0.023 0.002c-1.63-0.070-3.34-0.38-3.81-1.82s0.62-3.34 4.34-3.68z"></path>
<path fill="#a42116" d="M32.11 12.63c1.12 0 2.75 1 2.47 1.75-0.645 1.046-1.67 1.804-2.879 2.084l-0.031 0.006c-0.91 0-3-0.090-2.88-1.44s1.21-2.4 3.32-2.4z"></path>
<path fill="#1d1d1b" d="M35.54 18.94c0.45-0.15 2.5 0 2.54 0.41s0.34 0.62-0.16 0.71c-0.365 0.063-0.785 0.099-1.214 0.099-0.544 0-1.074-0.058-1.585-0.168l0.049 0.009c0.021-0.4 0.157-0.764 0.374-1.066l-0.004 0.006z"></path>
<path fill="#1d1d1b" d="M24.51 11c0.461-0.385 1.040-0.645 1.675-0.719l0.015-0.001c1-0.21 1.41-0.25 1.47-0.090s0.22 0.38 0 0.5c-0.595 0.097-1.129 0.271-1.624 0.515l0.034-0.015c-0.6 0.41-0.57 0.53-0.88 0.59s-0.62-0.65-0.69-0.78z"></path>
<path fill="#1d1d1b" d="M19.48 14.31c0.895-0.54 1.975-0.86 3.131-0.86 0.565 0 1.113 0.076 1.633 0.22l-0.043-0.010c0.838 0.541 1.384 1.471 1.384 2.528 0 0.235-0.027 0.463-0.078 0.683l0.004-0.020c-0.13 0.691-0.674 1.225-1.36 1.339l-0.010 0.001c-0.5 0.090-2.94 0.78-4.53 0.060s-2.35-2.25-0.13-3.94z"></path>
<path fill="#a42116" d="M20.23 14.75c0.45-0.29 2.78-0.94 3.44-0.53s1.34 1.63 1.060 2.25-1.28 1.060-2.65 1.090-2.66 0-2.79-0.78c-0.016-0.096-0.026-0.206-0.026-0.318 0-0.722 0.383-1.355 0.957-1.707l0.009-0.005z"></path>
<path fill="#1d1d1b" d="M20.45 22c0.95-0.3 3.47-0.12 4.28 1.63 0.189 0.33 0.3 0.725 0.3 1.147 0 1.031-0.667 1.907-1.594 2.218l-0.017 0.005c-1 0.5-3.69 1.19-5.13-0.72s-0.96-3.28 2.16-4.28z"></path>
<path fill="#a42116" d="M20.36 22.81c0.245-0.058 0.526-0.091 0.815-0.091 0.963 0 1.84 0.369 2.497 0.974l-0.003-0.002c1 1 0.34 2.090-0.75 2.59s-2.94 0.82-3.78-0.62-0.44-2.41 1.22-2.85z"></path>
<path fill="#1d1d1b" d="M26.92 20.31c0.29 0 1 0.13 0.84 0.63-0.119 0.302-0.408 0.512-0.746 0.512-0.22 0-0.419-0.089-0.564-0.232l0 0c-0.34-0.44 0.16-0.84 0.47-0.91z"></path>
<path fill="#1d1d1b" d="M27.83 23.81c0.47-0.15 2 0 2 0.19s0.13 0.41-0.15 0.53c-0.324 0.106-0.696 0.167-1.083 0.167-0.182 0-0.361-0.014-0.536-0.040l0.020 0.002c-0.22-0.13-0.35-0.81-0.25-0.85z"></path>
<path fill="#1d1d1b" d="M25.7 29.88c0.31-0.11 1.28-0.38 1.38-0.13s0.21 0.44 0 0.63-1.19 0.47-1.32 0.34-0.25-0.78-0.060-0.84z"></path>
<path fill="#1d1d1b" d="M17.17 29.19c0.14-0.012 0.303-0.020 0.468-0.020 0.578 0 1.137 0.088 1.662 0.25l-0.040-0.011c0.72 0.25 1.1 0.5 0.94 0.69s-0.060 0.37-0.37 0.28c-0.312-0.17-0.684-0.27-1.079-0.27-0.106 0-0.211 0.007-0.313 0.021l0.012-0.001c-0.66 0.12-0.78 0.34-1.19 0.25s-0.4-1.1-0.090-1.19z"></path>
<path fill="#1d1d1b" d="M9.58 29c0.080-0.19 1.78-1.28 2.31-1.060 0.451 0.209 0.982 0.391 1.533 0.519l0.057 0.011c0.41 0.060 0.94 0 0.78 0.25s0 0.72-0.53 0.75-1.78-0.62-2.090-0.56-1.13 1-1.53 1-0.63-0.66-0.53-0.91z"></path>
<path fill="#1d1d1b" d="M11.79 23.25c0.19-0.28 2.070-1 2.32-0.78s0.37 0.47 0.18 0.69c-0.611 0.356-1.326 0.61-2.089 0.716l-0.031 0.004c-0.17-0.1-0.44-0.53-0.38-0.63z"></path>
<path fill="#f2910d" d="M5.7 35.66c0-0.18 2.72-2.75 5.41-2.31s5.12 2 8.31 1.37 6.78-2.12 9-1.72 2.94 1.1 4 0.81 0.84-0.53 1.66-0.59c0.075 0.003 0.163 0.005 0.252 0.005 0.688 0 1.351-0.104 1.975-0.297l-0.047 0.013c0.649-0.363 1.101-1.011 1.189-1.769l0.001-0.011c-0.23-0.871-0.605-1.632-1.102-2.297l0.012 0.017c-0.32-0.16-1.5-1-1.85-1.16s-1.34-0.31-1.37-0.75-0.31-1.69 0.25-1.91 3.69-0.53 4.69 0.19 2.31 2 4.060 2c0.13 0.009 0.281 0.014 0.433 0.014 1.18 0 2.288-0.305 3.251-0.841l-0.034 0.017c0.6-0.41 0.82-1.31 1.1-1.31s1.9-0.060 2.090-0.31c0.093-0.453 0.146-0.973 0.146-1.506 0-0.633-0.075-1.248-0.217-1.838l0.011 0.053c-0.28-0.59-0.69-1.56-0.38-2.090s0.79-1.87 1.13-1.81 0.59 0.59 0.56 1.22c0 0.011 0 0.024 0 0.038 0 1.604 0.091 3.186 0.268 4.743l-0.018-0.191c0.16 0.81 0 0.88 0.35 1s1-0.44 1-0.44 1-1.15 1.62-1.28c0.14-0.016 0.302-0.025 0.466-0.025 0.367 0 0.724 0.046 1.064 0.131l-0.030-0.006s-1 1.15-0.87 1.68 0.72 1.28 0.18 1.75-2.26 2.030-2.090 2.75c0.305 1.296 0.679 2.413 1.141 3.484l-0.051-0.134c0.25 0.46 0.22 0.62 1.070 0.53s1.090-0.63 1.5-0.5c0.21 0.087 0.455 0.138 0.711 0.138 0.192 0 0.378-0.029 0.552-0.082l-0.013 0.004c0.46-0.16 1.53 0 1.53 0.19s-0.82 2.65-0.82 2.65c-0.793-0.247-1.705-0.39-2.65-0.39-0.211 0-0.42 0.007-0.628 0.021l0.028-0.002c-1.59 0.15-0.93 0.53-2.21 0.060s-2.79-1.75-3.41-1.78c-0.026-0.001-0.056-0.002-0.086-0.002-0.55 0-1.043 0.24-1.382 0.62l-0.002 0.002c0.302 0.99 0.717 1.852 1.242 2.635l-0.022-0.035c0.37 0.59 0.56 0.84 1.25 0.94s1 0 1.31 0.46c0.703 1.192 1.348 2.575 1.858 4.022l0.052 0.168c-0.1 0.25 0.090 0.41-0.31 0.28s-2.72-2.090-4.83-2.53c-1.302-0.179-2.473-0.473-3.59-0.878l0.12 0.038c-0.25-0.19-0.56-0.38-0.53-0.53s0.22-1.69 0-1.88c-0.251-0.147-0.543-0.255-0.855-0.308l-0.015-0.002s-0.29 1.62-0.47 1.5-0.41 0-0.41-0.28-0.34-1.31-0.19-1.6 0.41-0.21 0.28-0.53-0.87-0.84-0.87-0.84c-0.893 0.366-1.929 0.63-3.010 0.746l-0.050 0.004c-1.35 0.060-2.53 0.12-2.57 0.47-0.131 1.286-0.538 2.454-1.161 3.477l0.021-0.037c-0.87 1.37-0.31 1.46-1.16 1.56s-4.12-0.41-4.37 0c-0.126 0.613-0.198 1.317-0.198 2.038 0 0.272 0.010 0.541 0.030 0.808l-0.002-0.035c0 0.5 0.22 3.56-0.31 4.13s-0.4 0.71-1 0.78-4-0.41-5.31 0-2.88 1.090-3.13 1.72 0.1 1.71 0.57 2.93c0.343 0.803 0.738 1.493 1.201 2.131l-0.021-0.031s-2.81-1.57-3.47-2-1-0.72-1-1-0.5-4.38 0.91-6 4.090-0.25 5.53-2.13 2.72-5.34 3.25-5.22 0.34 0.38 0.69 0.22 0.9-0.47 0.81-0.59-0.44-0.91-0.6-1.22c-0.134-0.402-0.269-0.733-0.423-1.053l0.023 0.053c-0.214-0.101-0.466-0.16-0.731-0.16-0.174 0-0.343 0.026-0.502 0.073l0.012-0.003c-1.3 0.665-2.809 1.185-4.395 1.484l-0.105 0.016c-2.59 0.5-3.63 0.34-4.38 0.060s-2.090-1.44-3.68-1.37-1.75 1-3.19 1.84-2.75 1.72-2.99 1.5c-0.667-1.076-1.063-2.381-1.063-3.779 0-0.067 0.001-0.134 0.003-0.201l-0 0.010z"></path>
<path fill="#e7413e" d="M58.54 31.31l-2.43 0.070c-0.82 0-1.32 0.31-1.66 0-0.435-0.741-0.762-1.603-0.932-2.521l-0.008-0.049c0-0.25 2-1.68 1.94-2.37s-0.41-1.81-0.090-1.94 1.31-0.34 1.34-0.78 0.22-0.72-0.090-0.88-1-0.28-1-0.43-0.060-0.38 0.19-0.38 1.31-0.37 1.71-0.090 1.19 1.69 1.25 4.31c0.007 0.275 0.011 0.599 0.011 0.923 0 1.458-0.084 2.896-0.248 4.309l0.016-0.172z"></path>
<path fill="#e7413e" d="M52.79 37c0.995-0.144 2.143-0.226 3.311-0.226 0.19 0 0.379 0.002 0.567 0.007l-0.028-0.001c0.44 0 0.72 0.13 0.69 0.22-0.525 2.424-1.48 4.564-2.788 6.437l0.038-0.057c-1.94 2.4-4.58 6.72-6.58 8.4-1.271 1.036-2.705 1.961-4.237 2.72l-0.133 0.060c-0.876-1.212-1.739-2.272-2.657-3.28l0.027 0.030c-0.25-0.060-1.12 0.19-1 0.35s2.82 3.15 2.63 3.31c-0.356 0.233-0.779 0.399-1.233 0.468l-0.017 0.002c-0.691-1.112-1.35-2.051-2.055-2.953l0.055 0.073c-0.22-0.090-1 0-0.85 0.25s2 2.79 1.85 2.94c-0.532 0.213-1.172 0.406-1.831 0.546l-0.079 0.014c-0.408-0.752-0.751-1.625-0.983-2.541l-0.017-0.079c-0.22-1.16-0.37-2.13 0.56-2.88s2.6-1.75 2.070-3.65-1.19-3-0.91-3.81 1.81-2.54 2.14-2.35 0.18 1.53 0.75 2.19c0.491 0.506 1.042 0.949 1.643 1.319l0.037 0.021s0.5 2.82 1.1 3.54 1 0.68 1.34 1.28 0.41 1.090 0.81 1 0.5-0.25 0.44-0.44-0.53-1.16-0.34-1.22 0.81 0.62 1.060 0.47 0.75-0.63 0.66-0.72-0.82-0.84-1.13-0.91l-0.94-0.18s-0.9-2-1.34-2.88c-0.427-0.683-0.896-1.275-1.422-1.812l0.002 0.002c-0.4-0.56-1.060-2.5-0.72-2.56s1.35 0.93 2.5 1c0.022-0 0.047-0.001 0.073-0.001 1.246 0 2.385 0.462 3.253 1.225l-0.005-0.005c0.946 0.812 2.151 1.348 3.476 1.468l0.024 0.002c0.654-0.378 1.209-0.844 1.672-1.391l0.008-0.009c0.273-0.22 0.446-0.554 0.446-0.929 0-0.103-0.013-0.204-0.038-0.299l0.002 0.008c-0.15-0.39-1.93-3.98-1.9-4.17z"></path>
<path fill="#e7413e" d="M23 55.78s-2.25-4-2.060-4.5c0.521-0.931 1.501-1.549 2.626-1.549 0.243 0 0.479 0.029 0.705 0.083l-0.020-0.004c2 0.41 4.22 0.91 5.41-0.65s0.93-3.44 1-4.060-0.060-2.79 0.44-2.82 3.4-0.12 4-0.68c0.72-0.871 1.354-1.856 1.862-2.913l0.038-0.087c0.13-0.38 0.41-1.75 0.66-1.79 0.356-0.043 0.767-0.068 1.185-0.068s0.829 0.025 1.234 0.073l-0.049-0.005c0 0.16 1.070 0.82-0.12 2.29s-2.060 2.18-2.41 3 0.38 3.68 0.5 4.75 0.56 1.53-0.12 2.12-2.5 1.66-2.35 3.69 1.25 3.72 1.13 4-4.44 1.090-7.91 0.44-5.75-1.32-5.75-1.32z"></path>
<path fill="#1d1d1b" d="M24.45 52.88l1.75 0.22c0.553 0.013 1.082 0.056 1.602 0.128l-0.072-0.008c0.1 0.090 0.38 0.59 0.19 0.75-0.298 0.026-0.645 0.041-0.995 0.041-0.83 0-1.64-0.084-2.422-0.245l0.077 0.013c-0.35-0.15-0.22-0.78-0.13-0.9z"></path>
<path fill="#1d1d1b" d="M28 51.5c0.388-0.317 0.889-0.508 1.435-0.508 0.248 0 0.487 0.040 0.711 0.113l-0.016-0.005c1.090 0.43 1.18 0.93 1.87 0.93s0.72 0 0.85 0.22 0.5 0.75 0.18 0.81c-0.053 0.003-0.114 0.005-0.176 0.005-0.385 0-0.754-0.068-1.096-0.192l0.022 0.007c-0.25-0.1-1.34-0.85-2-0.78-0.366 0.083-0.822 0.157-1.287 0.206l-0.053 0.005c-0.21-0.060-0.44-0.81-0.44-0.81z"></path>
<path fill="#1d1d1b" d="M31.58 48.13c0.737-0.361 1.596-0.606 2.502-0.688l0.028-0.002c0.12 0.19 0.28 0.12 0.12 0.41-0.734 0.548-1.622 0.934-2.587 1.086l-0.033 0.004c-0.22-0.19-0.030-0.72-0.030-0.81z"></path>
<path fill="#1d1d1b" d="M32.48 43.31s2.25-0.12 2.53-0.18 0.28 0.53 0.22 0.62c-0.471 0.186-1.016 0.298-1.585 0.31l-0.005 0c-0.31 0-1.22-0.25-1.22-0.25z"></path>
<path fill="#1d1d1b" d="M42.54 48.81c0.1 0.1 3.41 3.25 3.16 3.54-0.145 0.163-0.336 0.282-0.552 0.338l-0.008 0.002s-3.060-2.78-3.060-3.16 0.46-0.72 0.46-0.72z"></path>
<path fill="#1d1d1b" d="M39.23 28.75c0.171-0.074 0.371-0.117 0.58-0.117s0.409 0.043 0.59 0.12l-0.010-0.004c0.5 0.28 0.9 1.56 1.56 1.38s0.69-0.75 1.47-0.53 2 0.71 1.94 0.84 0 0.31-0.28 0.34-1.94-0.59-2.16-0.43-0.060 0.34-0.91 0.34c-0.045 0.004-0.097 0.006-0.149 0.006-0.595 0-1.121-0.297-1.437-0.751l-0.004-0.006c-0.19-0.38-0.28-0.88-0.59-0.81-0.023 0.003-0.049 0.005-0.075 0.005-0.245 0-0.452-0.16-0.524-0.381l-0.001-0.004z"></path>
<path fill="#1d1d1b" d="M46.83 30.1c0-0.38 1.25-0.22 1.34 0.12s0 0.56-0.28 0.66-0.66 0.28-0.94 0-0.12-0.72-0.12-0.78z"></path>
<path fill="#1d1d1b" d="M48.2 27.5c0-0.16 1-2 1.25-2s0.81 0.22 0.69 0.6-1 1.78-1.28 1.78-0.6-0.070-0.66-0.38z"></path>
<path fill="#e7413e" d="M7.58 41c0.16-0.4 2.84-1.62 3.25-1.91s1.46-1.53 2.15-1.12c1.392 0.96 3.116 1.533 4.973 1.533 0.087 0 0.174-0.001 0.26-0.004l-0.013 0c2.44-0.22 5.91-1.37 6-1.12-0.639 1.84-1.518 3.435-2.618 4.847l0.028-0.037c-0.66 0.44-3.69 0.47-4.72 1.62-0.901 1.179-1.466 2.658-1.53 4.265l-0 0.015v2.29c-1.775-1.646-3.41-3.373-4.928-5.201l-0.072-0.089c-2.57-3.090-2.85-4.96-2.78-5.090z"></path>
<path fill="#1d1d1b" d="M10.48 41.56c-0.11-0.34 1.22-1.37 1.47-1.28 0.432 0.316 0.947 0.547 1.506 0.656l0.024 0.004c0.69 0 1.81-0.25 1.94 0s0.16 0.5 0 0.59c-0.277 0.077-0.595 0.121-0.923 0.121-0.136 0-0.271-0.008-0.403-0.023l0.016 0.002c-0.75 0-1.78-0.32-2.070-0.28s-0.62 0.71-1 0.75-0.53-0.44-0.56-0.54z"></path>
<path fill="#1d1d1b" d="M17.79 40.78c0.098 0.009 0.211 0.015 0.326 0.015 0.387 0 0.76-0.060 1.11-0.172l-0.026 0.007c0.44-0.16 0.66-0.44 0.88-0.25s0.34 0.53 0.18 0.65-0.060 0.28-0.65 0.38c-0.468 0.093-1.006 0.146-1.557 0.146-0.233 0-0.465-0.010-0.693-0.028l0.030 0.002c-0.1-0.12 0.31-0.78 0.4-0.75z"></path>
<path fill="#1d1d1b" d="M12.7 43.41c0.070-0.28 2.22-0.38 2.34-0.19s0.47 0.44 0.1 0.59c-0.635 0.232-1.376 0.408-2.144 0.496l-0.046 0.004c-0.153-0.258-0.245-0.568-0.25-0.899v-0.001z"></path>
<path fill="#1d1d1b" d="M13.080 45.56c0.445-0.205 0.961-0.357 1.503-0.427l0.027-0.003c0.090 0.090 0.53 0.25 0.25 0.5-0.389 0.325-0.849 0.581-1.351 0.742l-0.029 0.008c-0.12-0.070-0.48-0.78-0.4-0.82z"></path>
</svg>
